{"accessors":[{"bufferView":0,"componentType":5123,"count":1020,"max":[961],"min":[0],"type":"SCALAR"},{"bufferView":1,"componentType":5126,"count":962,"max":[0.008233485743403435,0.003225645050406456,0.01211338397115469],"min":[-0.008233485743403435,-0.006947668734937906,-0.01211338397115469],"type":"VEC3"},{"bufferView":2,"componentType":5126,"count":962,"max":[0.9978465437889099,0.8813715577125549,0.9900281429290771],"min":[-0.9978466629981995,-0.9708632230758667,-0.9900285601615906],"type":"VEC3"},{"bufferView":3,"componentType":5123,"count":4224,"max":[3519],"min":[0],"type":"SCALAR"},{"bufferView":4,"componentType":5126,"count":3520,"max":[0.02789592370390892,-0.007014656905084848,0.0012568862875923514],"min":[-0.027895908802747726,-0.03353416919708252,-0.001256898627616465],"type":"VEC3"},{"bufferView":5,"componentType":5126,"count":3520,"max":[0.9998816251754761,0.9955176711082458,0.9753447771072388],"min":[-0.9998816251754761,-0.9999488592147827,-0.9753450155258179],"type":"VEC3"},{"bufferView":6,"componentType":5123,"count":4224,"max":[3519],"min":[0],"type":"SCALAR"},{"bufferView":7,"componentType":5126,"count":3520,"max":[0.02798447012901306,-0.007400155067443848,0.0012568801175802946],"min":[-0.027984485030174255,-0.0335509292781353,-0.0012814697111025453],"type":"VEC3"},{"bufferView":8,"componentType":5126,"count":3520,"max":[0.9999993443489075,0.9929062724113464,0.9761580228805542],"min":[-0.9999993443489075,-0.9996898770332336,-0.9758773446083069],"type":"VEC3"},{"bufferView":9,"componentType":5123,"count":4224,"max":[3519],"min":[0],"type":"SCALAR"},{"bufferView":10,"componentType":5126,"count":3520,"max":[0.027729637920856476,-0.007231620606034994,0.0012717497302219272],"min":[-0.027729637920856476,-0.03356654569506645,-0.001256890594959259],"type":"VEC3"},{"bufferView":11,"componentType":5126,"count":3520,"max":[0.9999967813491821,0.9931550025939941,0.9759113788604736],"min":[-0.9999967813491821,-0.9999687671661377,-0.9760387539863586],"type":"VEC3"},{"bufferView":12,"componentType":5123,"count":4224,"max":[3519],"min":[0],"type":"SCALAR"},{"bufferView":13,"componentType":5126,"count":3520,"max":[0.02807343378663063,-0.007234838791191578,0.001256886520422995],"min":[-0.028073418885469437,-0.03368382155895233,-0.0012568981619551778],"type":"VEC3"},{"bufferView":14,"componentType":5126,"count":3520,"max":[0.9999507665634155,0.9945013523101807,0.9759706258773804],"min":[-0.9999507665634155,-0.9999556541442871,-0.9759703278541565],"type":"VEC3"},{"bufferView":15,"componentType":5123,"count":4224,"max":[3519],"min":[0],"type":"SCALAR"},{"bufferView":16,"componentType":5126,"count":3520,"max":[0.027882926166057587,-0.007124493829905987,0.0012533477274701],"min":[-0.02788294106721878,-0.03347109630703926,-0.0013106376864016056],"type":"VEC3"},{"bufferView":17,"componentType":5126,"count":3520,"max":[0.9999908804893494,0.9952008724212646,0.9737752079963684],"min":[-0.9999908804893494,-0.9999961853027344,-0.9738118648529053],"type":"VEC3"},{"bufferView":18,"componentType":5123,"count":918,"max":[551],"min":[0],"type":"SCALAR"},{"bufferView":19,"componentType":5126,"count":552,"max":[0.008233485743403435,0.003225645050406456,0.01211338397115469],"min":[-0.008233485743403435,-0.006947668734937906,-0.01211338397115469],"type":"VEC3"},{"bufferView":20,"componentType":5126,"count":552,"max":[0.999442994594574,1.0,0.9973981380462646],"min":[-0.999442994594574,-0.8674479722976685,-0.9973981380462646],"type":"VEC3"},{"bufferView":21,"componentType":5123,"count":4092,"max":[3167],"min":[0],"type":"SCALAR"},{"bufferView":22,"componentType":5126,"count":3168,"max":[0.027882926166057587,-0.007124493829905987,0.0012533477274701],"min":[-0.02788294106721878,-0.03347109630703926,-0.0013106376864016056],"type":"VEC3"},{"bufferView":23,"componentType":5126,"count":3168,"max":[0.9999908804893494,0.9999961853027344,0.9738118648529053],"min":[-0.9999908804893494,-0.9952008724212646,-0.9737752079963684],"type":"VEC3"},{"bufferView":24,"componentType":5123,"count":4092,"max":[3167],"min":[0],"type":"SCALAR"},{"bufferView":25,"componentType":5126,"count":3168,"max":[0.02807343378663063,-0.007234838791191578,0.001256886520422995],"min":[-0.028073418885469437,-0.03368382155895233,-0.0012568981619551778],"type":"VEC3"},{"bufferView":26,"componentType":5126,"count":3168,"max":[0.9997371435165405,0.9999556541442871,0.9759703278541565],"min":[-0.9997371435165405,-0.9945013523101807,-0.9759706258773804],"type":"VEC3"},{"bufferView":27,"componentType":5123,"count":4092,"max":[3167],"min":[0],"type":"SCALAR"},{"bufferView":28,"componentType":5126,"count":3168,"max":[0.027729637920856476,-0.007231620606034994,0.0012717497302219272],"min":[-0.027729637920856476,-0.03356654569506645,-0.001256890594959259],"type":"VEC3"},{"bufferView":29,"componentType":5126,"count":3168,"max":[0.9999364614486694,0.9999687671661377,0.9760387539863586],"min":[-0.9999364614486694,-0.9931550025939941,-0.9759113788604736],"type":"VEC3"},{"bufferView":30,"componentType":5123,"count":4092,"max":[3167],"min":[0],"type":"SCALAR"},{"bufferView":31,"componentType":5126,"count":3168,"max":[0.02798447012901306,-0.007400155067443848,0.0012568801175802946],"min":[-0.027984485030174255,-0.0335509292781353,-0.0012814697111025453],"type":"VEC3"},{"bufferView":32,"componentType":5126,"count":3168,"max":[0.9999302625656128,0.9996898770332336,0.9758773446083069],"min":[-0.9999302625656128,-0.9929062724113464,-0.9761580228805542],"type":"VEC3"},{"bufferView":33,"componentType":5123,"count":4092,"max":[3167],"min":[0],"type":"SCALAR"},{"bufferView":34,"componentType":5126,"count":3168,"max":[0.02789592370390892,-0.007014656905084848,0.0012568862875923514],"min":[-0.027895908802747726,-0.03353416919708252,-0.001256898627616465],"type":"VEC3"},{"bufferView":35,"componentType":5126,"count":3168,"max":[0.9998816251754761,0.9999488592147827,0.9753450155258179],"min":[-0.9998816251754761,-0.9955176711082458,-0.9753447771072388],"type":"VEC3"},{"bufferView":36,"componentType":5123,"count":70056,"max":[11923],"min":[0],"type":"SCALAR"},{"bufferView":37,"componentType":5126,"count":11924,"max":[0.028881875798106194,0.03992205485701561,0.01041914988309145],"min":[-0.028881875798106194,-0.09772247076034546,-0.01041914988309145],"type":"VEC3"},{"bufferView":38,"componentType":5126,"count":11924,"max":[1.0,1.0,1.0],"min":[-1.0,-1.0,-1.0],"type":"VEC3"},{"bufferView":39,"componentType":5126,"count":11924,"max":[1.0,0.514102578163147,0.01123681291937828,1.0],"min":[0.8577286601066589,-0.5141025185585022,-0.011647231876850128,-1.0],"type":"VEC4"},{"bufferView":40,"componentType":5126,"count":11924,"max":[0.9999033212661743,1.001843810081482],"min":[9.66191291809082e-05,0.03490936756134033],"type":"VEC2"},{"bufferView":41,"componentType":5126,"count":11924,"max":[1.0,1.0,1.0,1.0],"min":[0.0,0.0,0.0,1.0],"type":"VEC4"},{"bufferView":42,"componentType":5123,"count":80736,"max":[14263],"min":[0],"type":"SCALAR"},{"bufferView":43,"componentType":5126,"count":14264,"max":[0.028881875798106194,0.03992205485701561,0.01041914988309145],"min":[-0.028881875798106194,-0.09772247076034546,-0.01041914988309145],"type":"VEC3"},{"bufferView":44,"componentType":5126,"count":14264,"max":[1.0,1.0,1.0],"min":[-1.0,-1.0,-1.0],"type":"VEC3"},{"bufferView":45,"componentType":5126,"count":14264,"max":[1.0,0.7981100082397461,0.012531707063317299,1.0],"min":[-0.7006505727767944,-0.7981095314025879,-0.012531707063317299,-1.0],"type":"VEC4"},{"bufferView":46,"componentType":5126,"count":14264,"max":[0.9999035000801086,0.9868207573890686],"min":[9.66787338256836e-05,0.034113287925720215],"type":"VEC2"},{"bufferView":47,"componentType":5126,"count":14264,"max":[1.0,1.0,1.0,1.0],"min":[0.0,0.0,0.0,1.0],"type":"VEC4"},{"bufferView":48,"componentType":5123,"count":48696,"max":[8331],"min":[0],"type":"SCALAR"},{"bufferView":49,"componentType":5126,"count":8332,"max":[0.029105544090270996,0.03992205485701561,0.01041914988309145],"min":[-0.029105544090270996,-0.09819246828556061,-0.01041914988309145],"type":"VEC3"},{"bufferView":50,"componentType":5126,"count":8332,"max":[1.0,1.0,1.0],"min":[-1.0,-1.0,-1.0],"type":"VEC3"},{"bufferView":51,"componentType":5126,"count":8332,"max":[1.0,0.5141041278839111,0.02503811940550804,1.0],"min":[0.8577269315719604,-0.5141040682792664,-0.02320745773613453,-1.0],"type":"VEC4"},{"bufferView":52,"componentType":5126,"count":8332,"max":[0.9999092817306519,1.0017001628875732],"min":[9.065866470336914e-05,0.09513920545578003],"type":"VEC2"},{"bufferView":53,"componentType":5126,"count":8332,"max":[1.0,1.0,1.0,1.0],"min":[0.0,0.0,0.0,1.0],"type":"VEC4"},{"bufferView":54,"componentType":5123,"count":54912,"max":[10005],"min":[0],"type":"SCALAR"},{"bufferView":55,"componentType":5126,"count":10006,"max":[0.029105544090270996,0.03992205485701561,0.01041914988309145],"min":[-0.029105544090270996,-0.09819246828556061,-0.01041914988309145],"type":"VEC3"},{"bufferView":56,"componentType":5126,"count":10006,"max":[1.0,1.0,1.0],"min":[-1.0,-1.0,-1.0],"type":"VEC3"},{"bufferView":57,"componentType":5126,"count":10006,"max":[1.0,0.8685929775238037,0.9998791813850403,1.0],"min":[-0.9565363526344299,-0.8685854077339172,-0.9998791813850403,-1.0],"type":"VEC4"},{"bufferView":58,"componentType":5126,"count":10006,"max":[0.9999092817306519,0.990211009979248],"min":[9.065866470336914e-05,0.09513920545578003],"type":"VEC2"},{"bufferView":59,"componentType":5126,"count":10006,"max":[1.0,1.0,1.0,1.0],"min":[0.0,0.0,0.0,1.0],"type":"VEC4"},{"bufferView":60,"componentType":5123,"count":79032,"max":[14555],"min":[0],"type":"SCALAR"},{"bufferView":61,"componentType":5126,"count":14556,"max":[0.028952667489647865,0.03992205485701561,0.01041914988309145],"min":[-0.028952667489647865,-0.09785246849060059,-0.01041914988309145],"type":"VEC3"},{"bufferView":62,"componentType":5126,"count":14556,"max":[1.0,1.0,1.0],"min":[-1.0,-1.0,-1.0],"type":"VEC3"},{"bufferView":63,"componentType":5126,"count":14556,"max":[1.0,0.5141028165817261,0.014671815559267998,1.0],"min":[0.8577282428741455,-0.5141028165817261,-0.014670723117887974,-1.0],"type":"VEC4"},{"bufferView":64,"componentType":5126,"count":14556,"max":[0.9999032020568848,1.001319408416748],"min":[9.66787338256836e-05,0.030220389366149902],"type":"VEC2"},{"bufferView":65,"componentType":5126,"count":14556,"max":[1.0,1.0,1.0,1.0],"min":[0.0,0.0,0.0,1.0],"type":"VEC4"},{"bufferView":66,"componentType":5123,"count":85968,"max":[22747],"min":[0],"type":"SCALAR"},{"bufferView":67,"componentType":5126,"count":22748,"max":[0.028952667489647865,0.03992205485701561,0.01041914988309145],"min":[-0.028952667489647865,-0.09785246849060059,-0.01041914988309145],"type":"VEC3"},{"bufferView":68,"componentType":5126,"count":22748,"max":[1.0,1.0,1.0],"min":[-1.0,-1.0,-1.0],"type":"VEC3"},{"bufferView":69,"componentType":5126,"count":22748,"max":[1.0,0.9998399019241333,0.9999990463256836,1.0],"min":[-0.9961280822753906,-0.9998398423194885,-0.9999990463256836,-1.0],"type":"VEC4"},{"bufferView":70,"componentType":5126,"count":22748,"max":[0.9999032020568848,0.9865343570709229],"min":[9.669570135883987e-05,0.03751552104949951],"type":"VEC2"},{"bufferView":71,"componentType":5126,"count":22748,"max":[1.0,1.0,1.0,1.0],"min":[0.0,0.0,0.0,1.0],"type":"VEC4"},{"bufferView":72,"componentType":5123,"count":69240,"max":[13063],"min":[0],"type":"SCALAR"},{"bufferView":73,"componentType":5126,"count":13064,"max":[0.028899718075990677,0.03992205485701561,0.01041914988309145],"min":[-0.028899718075990677,-0.09775246679782867,-0.01041914988309145],"type":"VEC3"},{"bufferView":74,"componentType":5126,"count":13064,"max":[1.0,1.0,1.0],"min":[-1.0,-1.0,-1.0],"type":"VEC3"},{"bufferView":75,"componentType":5126,"count":13064,"max":[1.0,0.5141041278839111,0.0011852651368826628,1.0],"min":[0.8577278256416321,-0.5141041874885559,-0.001183956628665328,-1.0],"type":"VEC4"},{"bufferView":76,"componentType":5126,"count":13064,"max":[0.999904990196228,1.0022648572921753],"min":[9.50120811467059e-05,0.05560886859893799],"type":"VEC2"},{"bufferView":77,"componentType":5126,"count":13064,"max":[1.0,1.0,1.0,1.0],"min":[0.0,0.0,0.0,1.0],"type":"VEC4"},{"bufferView":78,"componentType":5123,"count":75840,"max":[13439],"min":[0],"type":"SCALAR"},{"bufferView":79,"componentType":5126,"count":13440,"max":[0.028899718075990677,0.03992205485701561,0.01041914988309145],"min":[-0.028899718075990677,-0.09775246679782867,-0.01041914988309145],"type":"VEC3"},{"bufferView":80,"componentType":5126,"count":13440,"max":[1.0,1.0,1.0],"min":[-1.0,-1.0,-1.0],"type":"VEC3"},{"bufferView":81,"componentType":5126,"count":13440,"max":[1.0,0.5141041278839111,0.0011840570950880647,1.0],"min":[0.8577278256416321,-0.5141041278839111,-0.0011847130954265594,-1.0],"type":"VEC4"},{"bufferView":82,"componentType":5126,"count":13440,"max":[0.999904990196228,0.9804587960243225],"min":[9.500980377197266e-05,0.05425870418548584],"type":"VEC2"},{"bufferView":83,"componentType":5126,"count":13440,"max":[1.0,1.0,1.0,1.0],"min":[0.0,0.0,0.0,1.0],"type":"VEC4"},{"bufferView":84,"componentType":5123,"count":65232,"max":[11087],"min":[0],"type":"SCALAR"},{"bufferView":85,"componentType":5126,"count":11088,"max":[0.029363753274083138,0.03992205485701561,0.01041914988309145],"min":[-0.029363753274083138,-0.09872247278690338,-0.01041914988309145],"type":"VEC3"},{"bufferView":86,"componentType":5126,"count":11088,"max":[1.0,1.0,1.0],"min":[-1.0,-1.0,-1.0],"type":"VEC3"},{"bufferView":87,"componentType":5126,"count":11088,"max":[1.0,0.5140975117683411,0.027345407754182816,1.0],"min":[0.8577211499214172,-0.5140975117683411,-0.027344832196831703,-1.0],"type":"VEC4"},{"bufferView":88,"componentType":5126,"count":11088,"max":[0.9999176263809204,1.001301646232605],"min":[8.237361907958984e-05,0.1751781702041626],"type":"VEC2"},{"bufferView":89,"componentType":5126,"count":11088,"max":[1.0,1.0,1.0,1.0],"min":[0.0,0.0,0.0,1.0],"type":"VEC4"},{"bufferView":90,"componentType":5123,"count":70680,"max":[14287],"min":[0],"type":"SCALAR"},{"bufferView":91,"componentType":5126,"count":14288,"max":[0.029363753274083138,0.03992205485701561,0.01041914988309145],"min":[-0.029363753274083138,-0.09872247278690338,-0.01041914988309145],"type":"VEC3"},{"bufferView":92,"componentType":5126,"count":14288,"max":[1.0,1.0,1.0],"min":[-1.0,-1.0,-1.0],"type":"VEC3"},{"bufferView":93,"componentType":5126,"count":14288,"max":[1.0,0.999760627746582,0.9283704161643982,1.0],"min":[-0.9921178221702576,-0.999760627746582,-0.9283704161643982,-1.0],"type":"VEC4"},{"bufferView":94,"componentType":5126,"count":14288,"max":[0.99991774559021,0.9825136661529541],"min":[8.224608609452844e-05,0.17570096254348755],"type":"VEC2"},{"bufferView":95,"componentType":5126,"count":14288,"max":[1.0,1.0,1.0,1.0],"min":[0.0,0.0,0.0,1.0],"type":"VEC4"}],"asset":{"generator":"Verge3D for Blender v4.6.0","version":"2.0"},"bufferViews":[{"buffer":0,"byteLength":2040,"byteOffset":0,"target":34963},{"buffer":0,"byteLength":11544,"byteOffset":2040,"target":34962},{"buffer":0,"byteLength":11544,"byteOffset":13584,"target":34962},{"buffer":0,"byteLength":8448,"byteOffset":25128,"target":34963},{"buffer":0,"byteLength":42240,"byteOffset":33576,"target":34962},{"buffer":0,"byteLength":42240,"byteOffset":75816,"target":34962},{"buffer":0,"byteLength":8448,"byteOffset":118056,"target":34963},{"buffer":0,"byteLength":42240,"byteOffset":126504,"target":34962},{"buffer":0,"byteLength":42240,"byteOffset":168744,"target":34962},{"buffer":0,"byteLength":8448,"byteOffset":210984,"target":34963},{"buffer":0,"byteLength":42240,"byteOffset":219432,"target":34962},{"buffer":0,"byteLength":42240,"byteOffset":261672,"target":34962},{"buffer":0,"byteLength":8448,"byteOffset":303912,"target":34963},{"buffer":0,"byteLength":42240,"byteOffset":312360,"target":34962},{"buffer":0,"byteLength":42240,"byteOffset":354600,"target":34962},{"buffer":0,"byteLength":8448,"byteOffset":396840,"target":34963},{"buffer":0,"byteLength":42240,"byteOffset":405288,"target":34962},{"buffer":0,"byteLength":42240,"byteOffset":447528,"target":34962},{"buffer":0,"byteLength":1836,"byteOffset":489768,"target":34963},{"buffer":0,"byteLength":6624,"byteOffset":491604,"target":34962},{"buffer":0,"byteLength":6624,"byteOffset":498228,"target":34962},{"buffer":0,"byteLength":8184,"byteOffset":504852,"target":34963},{"buffer":0,"byteLength":38016,"byteOffset":513036,"target":34962},{"buffer":0,"byteLength":38016,"byteOffset":551052,"target":34962},{"buffer":0,"byteLength":8184,"byteOffset":589068,"target":34963},{"buffer":0,"byteLength":38016,"byteOffset":597252,"target":34962},{"buffer":0,"byteLength":38016,"byteOffset":635268,"target":34962},{"buffer":0,"byteLength":8184,"byteOffset":673284,"target":34963},{"buffer":0,"byteLength":38016,"byteOffset":681468,"target":34962},{"buffer":0,"byteLength":38016,"byteOffset":719484,"target":34962},{"buffer":0,"byteLength":8184,"byteOffset":757500,"target":34963},{"buffer":0,"byteLength":38016,"byteOffset":765684,"target":34962},{"buffer":0,"byteLength":38016,"byteOffset":803700,"target":34962},{"buffer":0,"byteLength":8184,"byteOffset":841716,"target":34963},{"buffer":0,"byteLength":38016,"byteOffset":849900,"target":34962},{"buffer":0,"byteLength":38016,"byteOffset":887916,"target":34962},{"buffer":0,"byteLength":140112,"byteOffset":925932,"target":34963},{"buffer":0,"byteLength":143088,"byteOffset":1066044,"target":34962},{"buffer":0,"byteLength":143088,"byteOffset":1209132,"target":34962},{"buffer":0,"byteLength":190784,"byteOffset":1352220,"target":34962},{"buffer":0,"byteLength":95392,"byteOffset":1543004,"target":34962},{"buffer":0,"byteLength":190784,"byteOffset":1638396,"target":34962},{"buffer":0,"byteLength":161472,"byteOffset":1829180,"target":34963},{"buffer":0,"byteLength":171168,"byteOffset":1990652,"target":34962},{"buffer":0,"byteLength":171168,"byteOffset":2161820,"target":34962},{"buffer":0,"byteLength":228224,"byteOffset":2332988,"target":34962},{"buffer":0,"byteLength":114112,"byteOffset":2561212,"target":34962},{"buffer":0,"byteLength":228224,"byteOffset":2675324,"target":34962},{"buffer":0,"byteLength":97392,"byteOffset":2903548,"target":34963},{"buffer":0,"byteLength":99984,"byteOffset":3000940,"target":34962},{"buffer":0,"byteLength":99984,"byteOffset":3100924,"target":34962},{"buffer":0,"byteLength":133312,"byteOffset":3200908,"target":34962},{"buffer":0,"byteLength":66656,"byteOffset":3334220,"target":34962},{"buffer":0,"byteLength":133312,"byteOffset":3400876,"target":34962},{"buffer":0,"byteLength":109824,"byteOffset":3534188,"target":34963},{"buffer":0,"byteLength":120072,"byteOffset":3644012,"target":34962},{"buffer":0,"byteLength":120072,"byteOffset":3764084,"target":34962},{"buffer":0,"byteLength":160096,"byteOffset":3884156,"target":34962},{"buffer":0,"byteLength":80048,"byteOffset":4044252,"target":34962},{"buffer":0,"byteLength":160096,"byteOffset":4124300,"target":34962},{"buffer":0,"byteLength":158064,"byteOffset":4284396,"target":34963},{"buffer":0,"byteLength":174672,"byteOffset":4442460,"target":34962},{"buffer":0,"byteLength":174672,"byteOffset":4617132,"target":34962},{"buffer":0,"byteLength":232896,"byteOffset":4791804,"target":34962},{"buffer":0,"byteLength":116448,"byteOffset":5024700,"target":34962},{"buffer":0,"byteLength":232896,"byteOffset":5141148,"target":34962},{"buffer":0,"byteLength":171936,"byteOffset":5374044,"target":34963},{"buffer":0,"byteLength":272976,"byteOffset":5545980,"target":34962},{"buffer":0,"byteLength":272976,"byteOffset":5818956,"target":34962},{"buffer":0,"byteLength":363968,"byteOffset":6091932,"target":34962},{"buffer":0,"byteLength":181984,"byteOffset":6455900,"target":34962},{"buffer":0,"byteLength":363968,"byteOffset":6637884,"target":34962},{"buffer":0,"byteLength":138480,"byteOffset":7001852,"target":34963},{"buffer":0,"byteLength":156768,"byteOffset":7140332,"target":34962},{"buffer":0,"byteLength":156768,"byteOffset":7297100,"target":34962},{"buffer":0,"byteLength":209024,"byteOffset":7453868,"target":34962},{"buffer":0,"byteLength":104512,"byteOffset":7662892,"target":34962},{"buffer":0,"byteLength":209024,"byteOffset":7767404,"target":34962},{"buffer":0,"byteLength":151680,"byteOffset":7976428,"target":34963},{"buffer":0,"byteLength":161280,"byteOffset":8128108,"target":34962},{"buffer":0,"byteLength":161280,"byteOffset":8289388,"target":34962},{"buffer":0,"byteLength":215040,"byteOffset":8450668,"target":34962},{"buffer":0,"byteLength":107520,"byteOffset":8665708,"target":34962},{"buffer":0,"byteLength":215040,"byteOffset":8773228,"target":34962},{"buffer":0,"byteLength":130464,"byteOffset":8988268,"target":34963},{"buffer":0,"byteLength":133056,"byteOffset":9118732,"target":34962},{"buffer":0,"byteLength":133056,"byteOffset":9251788,"target":34962},{"buffer":0,"byteLength":177408,"byteOffset":9384844,"target":34962},{"buffer":0,"byteLength":88704,"byteOffset":9562252,"target":34962},{"buffer":0,"byteLength":177408,"byteOffset":9650956,"target":34962},{"buffer":0,"byteLength":141360,"byteOffset":9828364,"target":34963},{"buffer":0,"byteLength":171456,"byteOffset":9969724,"target":34962},{"buffer":0,"byteLength":171456,"byteOffset":10141180,"target":34962},{"buffer":0,"byteLength":228608,"byteOffset":10312636,"target":34962},{"buffer":0,"byteLength":114304,"byteOffset":10541244,"target":34962},{"buffer":0,"byteLength":228608,"byteOffset":10655548,"target":34962}],"buffers":[{"byteLength":10884156,"uri":"gem_4.bin"}],"cameras":[{"extensions":{"S8S_v3d_camera":{"controls":"ORBIT","enablePan":true,"moveSpeed":1,"orbitMaxDistance":10000,"orbitMaxPolarAngle":3.141592653589793,"orbitMinDistance":0,"orbitMinPolarAngle":0,"orbitTarget":[0.0063959751278162,-0.005179713014513254,-0.01212246809154749],"rotateSpeed":1,"viewportFitInitialAspect":1,"viewportFitType":"VERTICAL"}},"name":"__DEFAULT__","perspective":{"aspectRatio":1,"yfov":0.7853981633974483,"zfar":5.0,"znear":0.0010000000474974513},"type":"perspective"}],"extensions":{"S8S_v3d_materials":{"nodeGraphs":[{"edges":[{"fromNode":4,"fromOutput":0,"toInput":0,"toNode":8},{"fromNode":4,"fromOutput":0,"toInput":0,"toNode":9},{"fromNode":4,"fromOutput":0,"toInput":0,"toNode":0},{"fromNode":2,"fromOutput":0,"toInput":1,"toNode":0},{"fromNode":3,"fromOutput":0,"toInput":1,"toNode":8},{"fromNode":1,"fromOutput":0,"toInput":1,"toNode":9},{"fromNode":13,"fromOutput":0,"toInput":0,"toNode":2},{"fromNode":13,"fromOutput":0,"toInput":2,"toNode":1},{"fromNode":13,"fromOutput":0,"toInput":1,"toNode":3},{"fromNode":14,"fromOutput":1,"toInput":0,"toNode":4},{"fromNode":0,"fromOutput":0,"toInput":4,"toNode":6},{"fromNode":8,"fromOutput":0,"toInput":4,"toNode":7},{"fromNode":9,"fromOutput":0,"toInput":4,"toNode":11},{"fromNode":6,"fromOutput":0,"toInput":0,"toNode":10},{"fromNode":7,"fromOutput":0,"toInput":1,"toNode":10},{"fromNode":10,"fromOutput":0,"toInput":0,"toNode":12},{"fromNode":11,"fromOutput":0,"toInput":1,"toNode":12},{"fromNode":12,"fromOutput":0,"toInput":0,"toNode":5}],"name":"inner_gem_material","nodes":[{"inputs":[[0.5,0.5,0.5],[0.5,0.5,0.5],[0.0,0.0,0.0],1.0],"is_active_output":false,"name":"Vector Math.003","operation":"ADD","outputs":[[0.0,0.0,0.0],0.0],"type":"VECT_MATH_BL"},{"inputs":[0.0,0.0,0.09999999403953552],"is_active_output":false,"name":"Combine XYZ.002","outputs":[[0.0,0.0,0.0]],"type":"COMBXYZ_BL"},{"inputs":[0.09999999403953552,0.0,0.0],"is_active_output":false,"name":"Combine XYZ","outputs":[[0.0,0.0,0.0]],"type":"COMBXYZ_BL"},{"inputs":[0.0,0.09999999403953552,0.0],"is_active_output":false,"name":"Combine XYZ.001","outputs":[[0.0,0.0,0.0]],"type":"COMBXYZ_BL"},{"inputs":[[0.0,0.0,0.0]],"is_active_output":false,"name":"Reroute.001","outputs":[[0.0,0.0,0.0]],"type":"REROUTE_BL"},{"inputs":[[0,0,0,0]],"is_active_output":true,"name":"Group Output","outputs":[],"type":"GROUP_OUTPUT_BL"},{"inputs":[[1.0,0.0,0.0,1.0],0.10000000149011612,0.0,0.0,[0.0,0.0,0.0],[0.0,0.0,0.0]],"is_active_output":false,"name":"Glossy BSDF","outputs":[[0,0,0,0]],"type":"BSDF_GLOSSY_BL"},{"inputs":[[0.0,1.0,0.0,1.0],0.10000000149011612,0.0,0.0,[0.0,0.0,0.0],[0.0,0.0,0.0]],"is_active_output":false,"name":"Glossy BSDF.001","outputs":[[0,0,0,0]],"type":"BSDF_GLOSSY_BL"},{"inputs":[[0.5,0.5,0.5],[0.5,0.5,0.5],[0.0,0.0,0.0],1.0],"is_active_output":false,"name":"Vector Math.001","operation":"ADD","outputs":[[0.0,0.0,0.0],0.0],"type":"VECT_MATH_BL"},{"inputs":[[0.5,0.5,0.5],[0.5,0.5,0.5],[0.0,0.0,0.0],1.0],"is_active_output":false,"name":"Vector Math.002","operation":"ADD","outputs":[[0.0,0.0,0.0],0.0],"type":"VECT_MATH_BL"},{"inputs":[[0,0,0,0],[0,0,0,0]],"is_active_output":false,"name":"Add Shader","outputs":[[0,0,0,0]],"type":"ADD_SHADER_BL"},{"inputs":[[0.0,0.0,1.0,1.0],0.10000000149011612,0.0,0.0,[0.0,0.0,0.0],[0.0,0.0,0.0]],"is_active_output":false,"name":"Glossy BSDF.002","outputs":[[0,0,0,0]],"type":"BSDF_GLOSSY_BL"},{"inputs":[[0,0,0,0],[0,0,0,0]],"is_active_output":false,"name":"Add Shader.001","outputs":[[0,0,0,0]],"type":"ADD_SHADER_BL"},{"inputs":[],"is_active_output":false,"name":"Group Input","outputs":[0.0],"type":"GROUP_INPUT_BL"},{"inputs":[],"is_active_output":false,"name":"Geometry.001","outputs":[[0.0,0.0,0.0],[0.0,0.0,0.0],[0.0,0.0,0.0],[0.0,0.0,0.0],[0.0,0.0,0.0],[0.0,0.0,0.0],0.0,0.0,0.0],"type":"NEW_GEOMETRY_BL"}]},{"edges":[{"fromNode":18,"fromOutput":0,"toInput":0,"toNode":23},{"fromNode":13,"fromOutput":0,"toInput":1,"toNode":6},{"fromNode":22,"fromOutput":2,"toInput":0,"toNode":6},{"fromNode":23,"fromOutput":0,"toInput":0,"toNode":22},{"fromNode":10,"fromOutput":2,"toInput":0,"toNode":9},{"fromNode":9,"fromOutput":0,"toInput":0,"toNode":8},{"fromNode":12,"fromOutput":0,"toInput":1,"toNode":14},{"fromNode":11,"fromOutput":0,"toInput":0,"toNode":10},{"fromNode":8,"fromOutput":0,"toInput":0,"toNode":14},{"fromNode":18,"fromOutput":0,"toInput":0,"toNode":17},{"fromNode":17,"fromOutput":0,"toInput":1,"toNode":19},{"fromNode":7,"fromOutput":0,"toInput":2,"toNode":6},{"fromNode":20,"fromOutput":2,"toInput":4,"toNode":7},{"fromNode":16,"fromOutput":0,"toInput":0,"toNode":20},{"fromNode":21,"fromOutput":1,"toInput":6,"toNode":20},{"fromNode":19,"fromOutput":0,"toInput":7,"toNode":20},{"fromNode":6,"fromOutput":0,"toInput":2,"toNode":14},{"fromNode":14,"fromOutput":0,"toInput":0,"toNode":24},{"fromNode":15,"fromOutput":2,"toInput":1,"toNode":7},{"fromNode":3,"fromOutput":2,"toInput":0,"toNode":7},{"fromNode":20,"fromOutput":2,"toInput":1,"toNode":2},{"fromNode":2,"fromOutput":0,"toInput":0,"toNode":3},{"fromNode":20,"fromOutput":2,"toInput":1,"toNode":4},{"fromNode":5,"fromOutput":2,"toInput":6,"toNode":3},{"fromNode":4,"fromOutput":1,"toInput":0,"toNode":5},{"fromNode":15,"fromOutput":0,"toInput":6,"toNode":5},{"fromNode":15,"fromOutput":1,"toInput":7,"toNode":5}],"name":"metall_material","nodes":[{"inputs":[],"is_active_output":false,"name":"Frame","outputs":[],"type":"FRAME_BL"},{"inputs":[],"is_active_output":false,"name":"Frame.001","outputs":[],"type":"FRAME_BL"},{"inputs":[1.4500000476837158,[0.0,0.0,0.0]],"is_active_output":false,"name":"Fresnel","outputs":[0.0],"type":"FRESNEL_BL"},{"blendType":"MIX","clampFactor":true,"clampResult":false,"dataType":"RGBA","factorMode":"UNIFORM","inputs":[0.5,[0.5,0.5,0.5],0.0,0.0,[0.0,0.0,0.0],[0.0,0.0,0.0],[0.5,0.5,0.5,1.0],[0.6795570850372314,0.6795570850372314,0.6795570850372314,1.0],0,0],"is_active_output":false,"name":"Mix.002","outputs":[0.0,[0.0,0.0,0.0],[0.0,0.0,0.0,0.0],0],"type":"MIX_BL"},{"inputs":[0.5,[0.0,0.0,0.0]],"is_active_output":false,"name":"Layer Weight","outputs":[0.0,0.0],"type":"LAYER_WEIGHT_BL"},{"blendType":"MIX","clampFactor":true,"clampResult":false,"dataType":"RGBA","factorMode":"UNIFORM","inputs":[0.5,[0.5,0.5,0.5],0.0,0.0,[0.0,0.0,0.0],[0.0,0.0,0.0],[0.5,0.5,0.5,1.0],[0.5,0.5,0.5,1.0],0,0],"is_active_output":false,"name":"Mix.003","outputs":[0.0,[0.0,0.0,0.0],[0.0,0.0,0.0,0.0],0],"type":"MIX_BL"},{"inputs":[0.5,[0,0,0,0],[0,0,0,0]],"is_active_output":false,"name":"Mix Shader","outputs":[[0,0,0,0]],"type":"MIX_SHADER_BL"},{"inputs":[[0.6266327500343323,0.6266327500343323,0.6266327500343323,1.0],0.0,0.0,0.0,[0.0,0.0,0.0],[0.0,0.0,0.0]],"is_active_output":false,"name":"Glossy BSDF","outputs":[[0,0,0,0]],"type":"BSDF_GLOSSY_BL"},{"inputs":[0.5,23.39999771118164,0.5],"is_active_output":false,"name":"Math.001","operation":"MULTIPLY","outputs":[0.0],"type":"MATH_BL","useClamp":true},{"inputs":[0.5,0.07000000029802322,0.5],"is_active_output":false,"name":"Math","operation":"ADD","outputs":[0.0],"type":"MATH_BL","useClamp":false},{"inputs":[[0.800000011920929,0.800000011920929,0.800000011920929,1.0]],"is_active_output":false,"mode":"RGB","name":"Separate RGB","outputs":[0.0,0.0,0.0],"type":"SEPARATE_COLOR_BL"},{"inputs":[],"is_active_output":false,"name":"Geometry","outputs":[[0.0,0.0,0.0],[0.0,0.0,0.0],[0.0,0.0,0.0],[0.0,0.0,0.0],[0.0,0.0,0.0],[0.0,0.0,0.0],0.0,0.0,0.0],"type":"NEW_GEOMETRY_BL"},{"inputs":[[1.0,1.0,1.0,1.0],1.0],"is_active_output":false,"name":"Emission.001","outputs":[[0,0,0,0]],"type":"EMISSION_BL"},{"inputs":[[0.0,0.0,0.0,1.0],0.0,[0.0,0.0,0.0]],"is_active_output":false,"name":"Diffuse BSDF","outputs":[[0,0,0,0]],"type":"BSDF_DIFFUSE_BL"},{"inputs":[0.5,[0,0,0,0],[0,0,0,0]],"is_active_output":false,"name":"Mix Shader.001","outputs":[[0,0,0,0]],"type":"MIX_SHADER_BL"},{"inputs":[],"is_active_output":false,"name":"Group Input","outputs":[[0.0,0.0,0.0,1.0],[0.0,0.0,0.0,1.0],0.0],"type":"GROUP_INPUT_BL"},{"colorLayer":"engrave_mask","inputs":[],"is_active_output":false,"name":"Attribute","outputs":[[0.0,0.0,0.0,0.0],[0.0,0.0,0.0],0.0,0.0],"type":"ATTRIBUTE_BL"},{"alphaMode":"STRAIGHT","inputs":[[0.0,0.0,0.0]],"is_active_output":false,"name":"Image Texture.001","outputs":[[0.0,0.0,0.0,0.0],0.0],"projection":"FLAT","projectionBlend":0.0,"texture":1,"type":"TEX_IMAGE_BL"},{"inputs":[],"is_active_output":false,"name":"UV Map","outputs":[[0.0,0.0,0.0]],"type":"UVMAP_BL","uvLayer":"engrave"},{"inputs":[1.0,[0.5,0.5,1.0,1.0]],"is_active_output":false,"name":"Normal Map","outputs":[[0.0,0.0,0.0]],"type":"NORMAL_MAP_BL","uvLayer":"engrave"},{"blendType":"MIX","clampFactor":true,"clampResult":false,"dataType":"RGBA","factorMode":"UNIFORM","inputs":[0.5,[0.5,0.5,0.5],0.0,0.0,[0.0,0.0,0.0],[0.0,0.0,0.0],[0.5,0.5,0.5,1.0],[0.5,0.5,0.5,1.0],0,0],"is_active_output":false,"name":"Mix.001","outputs":[0.0,[0.0,0.0,0.0],[0.0,0.0,0.0,0.0],0],"type":"MIX_BL"},{"inputs":[],"is_active_output":false,"name":"Geometry.001","outputs":[[0.0,0.0,0.0],[0.0,0.0,0.0],[0.0,0.0,0.0],[0.0,0.0,0.0],[0.0,0.0,0.0],[0.0,0.0,0.0],0.0,0.0,0.0],"type":"NEW_GEOMETRY_BL"},{"blendType":"MIX","clampFactor":true,"clampResult":false,"dataType":"RGBA","factorMode":"UNIFORM","inputs":[0.5,[0.5,0.5,0.5],0.0,0.0,[0.0,0.0,0.0],[0.0,0.0,0.0],[0.7743505835533142,0.7743505835533142,0.7743505835533142,1.0],[1.0,1.0,1.0,1.0],0,0],"is_active_output":false,"name":"Mix","outputs":[0.0,[0.0,0.0,0.0],[0.0,0.0,0.0,0.0],0],"type":"MIX_BL"},{"alphaMode":"STRAIGHT","inputs":[[0.0,0.0,0.0]],"is_active_output":false,"name":"Image Texture","outputs":[[0.0,0.0,0.0,0.0],0.0],"projection":"FLAT","projectionBlend":0.0,"texture":2,"type":"TEX_IMAGE_BL"},{"inputs":[[0,0,0,0]],"is_active_output":true,"name":"Group Output","outputs":[],"type":"GROUP_OUTPUT_BL"}]},{"edges":[{"fromNode":1,"fromOutput":1,"toInput":1,"toNode":11},{"fromNode":7,"fromOutput":0,"toInput":0,"toNode":8},{"fromNode":8,"fromOutput":0,"toInput":0,"toNode":0},{"fromNode":1,"fromOutput":1,"toInput":1,"toNode":8},{"fromNode":0,"fromOutput":0,"toInput":0,"toNode":2},{"fromNode":4,"fromOutput":0,"toInput":1,"toNode":9},{"fromNode":9,"fromOutput":0,"toInput":0,"toNode":13},{"fromNode":10,"fromOutput":0,"toInput":2,"toNode":9},{"fromNode":11,"fromOutput":0,"toInput":0,"toNode":9},{"fromNode":2,"fromOutput":0,"toInput":6,"toNode":3},{"fromNode":3,"fromOutput":2,"toInput":6,"toNode":5},{"fromNode":12,"fromOutput":0,"toInput":7,"toNode":3},{"fromNode":5,"fromOutput":2,"toInput":0,"toNode":4},{"fromNode":12,"fromOutput":0,"toInput":0,"toNode":6},{"fromNode":6,"fromOutput":2,"toInput":7,"toNode":5}],"name":"outer_gem_material","nodes":[{"dispersionFactor":1.0,"falloffFactor":0.0,"inputs":[[0.0,0.0,0.0],0.0,1.8000000715255737,0.8999999761581421,0.5,2.0,0.0],"is_active_output":false,"name":"Noise Texture.001","outputs":[0.0,[0.0,0.0,0.0,0.0]],"type":"TEX_NOISE_BL"},{"inputs":[],"is_active_output":false,"name":"Geometry","outputs":[[0.0,0.0,0.0],[0.0,0.0,0.0],[0.0,0.0,0.0],[0.0,0.0,0.0],[0.0,0.0,0.0],[0.0,0.0,0.0],0.0,0.0,0.0],"type":"NEW_GEOMETRY_BL"},{"curve":{"input":[0.0,0.6272729635238647],"interpolation":"LINEAR","output":[0.28444889187812805,0.28444889187812805,0.28444889187812805,1.0,1.0,1.0,1.0,1.0]},"inputs":[0.5],"is_active_output":false,"name":"ColorRamp.001","outputs":[[0.0,0.0,0.0,0.0],0.0],"type":"VALTORGB_BL"},{"blendType":"COLOR","clampFactor":true,"clampResult":false,"dataType":"RGBA","factorMode":"UNIFORM","inputs":[1.0,[0.5,0.5,0.5],0.0,0.0,[0.0,0.0,0.0],[0.0,0.0,0.0],[0.5,0.5,0.5,1.0],[0.23454074561595917,0.49895036220550537,1.0,1.0],0,0],"is_active_output":false,"name":"Mix","outputs":[0.0,[0.0,0.0,0.0],[0.0,0.0,0.0,0.0],0],"type":"MIX_BL"},{"distribution":"BECKMANN","inputs":[[0.09989873319864273,0.004391442518681288,0.0,1.0],0.0,3.5,[0.0,0.0,0.0]],"is_active_output":false,"name":"Refraction BSDF","outputs":[[0,0,0,0]],"type":"BSDF_REFRACTION_BL"},{"blendType":"MULTIPLY","clampFactor":true,"clampResult":false,"dataType":"RGBA","factorMode":"UNIFORM","inputs":[1.0,[0.5,0.5,0.5],0.0,0.0,[0.0,0.0,0.0],[0.0,0.0,0.0],[0.5,0.5,0.5,1.0],[0.5,0.5,0.5,1.0],0,0],"is_active_output":false,"name":"Mix.001","outputs":[0.0,[0.0,0.0,0.0],[0.0,0.0,0.0,0.0],0],"type":"MIX_BL"},{"inputs":[[0.800000011920929,0.800000011920929,0.800000011920929,1.0]],"is_active_output":false,"mode":"HSV","name":"Separate HSV","outputs":[0.0,0.0,0.0],"type":"SEPARATE_COLOR_BL"},{"inputs":[],"is_active_output":false,"name":"Texture Coordinate","object":-1,"outputs":[[0.0,0.0,0.0],[0.0,0.0,0.0],[0.0,0.0,0.0],[0.0,0.0,0.0],[0.0,0.0,0.0],[0.0,0.0,0.0],[0.0,0.0,0.0]],"type":"TEX_COORD_BL"},{"inputs":[[0.5,0.5,0.5],[0.5,0.5,0.5],[0.0,0.0,0.0],1.0],"is_active_output":false,"name":"Vector Math","operation":"ADD","outputs":[[0.0,0.0,0.0],0.0],"type":"VECT_MATH_BL"},{"inputs":[0.5,[0,0,0,0],[0,0,0,0]],"is_active_output":false,"name":"Mix Shader","outputs":[[0,0,0,0]],"type":"MIX_SHADER_BL"},{"inputs":[[0.800000011920929,0.800000011920929,0.800000011920929,1.0],0.0,0.0,0.0,[0.0,0.0,0.0],[0.0,0.0,0.0]],"is_active_output":false,"name":"Glossy BSDF","outputs":[[0,0,0,0]],"type":"BSDF_GLOSSY_BL"},{"inputs":[2.499999523162842,[0.0,0.0,0.0]],"is_active_output":false,"name":"Fresnel","outputs":[0.0],"type":"FRESNEL_BL"},{"inputs":[],"is_active_output":false,"name":"Group Input","outputs":[[0.0,0.0,0.0,1.0]],"type":"GROUP_INPUT_BL"},{"inputs":[[0,0,0,0]],"is_active_output":true,"name":"Group Output","outputs":[],"type":"GROUP_OUTPUT_BL"}]}]}},"extensionsUsed":["S8S_v3d_texture","S8S_v3d_materials","S8S_v3d_camera","S8S_v3d_mesh","S8S_v3d_node","S8S_v3d_scene"],"images":[{"uri":"environment.hdr"},{"uri":"engrave_normal.jpg"},{"uri":"engrave_ao.jpg"}],"materials":[{"extensions":{"S8S_v3d_materials":{"gtaoVisible":true,"materialIndex":0,"nodeGraph":{"edges":[{"fromNode":2,"fromOutput":0,"toInput":0,"toNode":1},{"fromNode":0,"fromOutput":0,"toInput":0,"toNode":2}],"nodes":[{"inputs":[],"is_active_output":false,"name":"Value","outputs":[0.009999999776482582],"type":"VALUE_BL"},{"inputs":[[0,0,0,0],[0,0,0,0],[0.0,0.0,0.0],0.0],"is_active_output":true,"name":"Material Output","outputs":[],"type":"OUTPUT_MATERIAL_BL"},{"inputs":[0.0],"is_active_output":false,"name":"Group","nodeGraph":0,"outputs":[[0,0,0,0]],"type":"GROUP_BL"}]},"useCastShadows":true}},"name":"gem_inner"},{"extensions":{"S8S_v3d_materials":{"gtaoVisible":true,"materialIndex":0,"nodeGraph":{"edges":[{"fromNode":0,"fromOutput":0,"toInput":0,"toNode":2},{"fromNode":1,"fromOutput":0,"toInput":0,"toNode":0}],"nodes":[{"inputs":[[0.0,0.0,0.0,1.0]],"is_active_output":false,"name":"Group","nodeGraph":2,"outputs":[[0,0,0,0]],"type":"GROUP_BL"},{"inputs":[],"is_active_output":false,"name":"gem_color","outputs":[[0.800000011920929,0.800000011920929,0.800000011920929,1.0]],"type":"RGB_BL"},{"inputs":[[0,0,0,0],[0,0,0,0],[0.0,0.0,0.0],0.0],"is_active_output":true,"name":"Material Output","outputs":[],"type":"OUTPUT_MATERIAL_BL"}]},"useCastShadows":true}},"name":"gem_outer"},{"extensions":{"S8S_v3d_materials":{"gtaoVisible":true,"materialIndex":0,"nodeGraph":{"edges":[{"fromNode":4,"fromOutput":0,"toInput":0,"toNode":3},{"fromNode":1,"fromOutput":0,"toInput":1,"toNode":4},{"fromNode":0,"fromOutput":0,"toInput":0,"toNode":4},{"fromNode":2,"fromOutput":0,"toInput":2,"toNode":4}],"nodes":[{"inputs":[],"is_active_output":false,"name":"metall_color_1","outputs":[[0.7293471693992615,0.7293471693992615,0.7293471693992615,1.0]],"type":"RGB_BL"},{"inputs":[],"is_active_output":false,"name":"metall_color_2","outputs":[[0.5382355451583862,0.5382355451583862,0.5382355451583862,1.0]],"type":"RGB_BL"},{"inputs":[],"is_active_output":false,"name":"metall_roughness","outputs":[0.0],"type":"VALUE_BL"},{"inputs":[[0,0,0,0],[0,0,0,0],[0.0,0.0,0.0],0.0],"is_active_output":true,"name":"Material Output","outputs":[],"type":"OUTPUT_MATERIAL_BL"},{"inputs":[[0.0,0.0,0.0,1.0],[0.0,0.0,0.0,1.0],0.0],"is_active_output":false,"name":"Group","nodeGraph":1,"outputs":[[0,0,0,0]],"type":"GROUP_BL"}]},"useCastShadows":true}},"name":"metall"},{"extensions":{"S8S_v3d_materials":{"gtaoVisible":true,"materialIndex":0,"nodeGraph":{"edges":[{"fromNode":2,"fromOutput":0,"toInput":0,"toNode":0},{"fromNode":4,"fromOutput":0,"toInput":6,"toNode":3},{"fromNode":1,"fromOutput":0,"toInput":0,"toNode":3},{"fromNode":3,"fromOutput":2,"toInput":0,"toNode":2}],"nodes":[{"inputs":[[0,0,0,0],[0,0,0,0]],"is_active_output":true,"name":"World Output","outputs":[],"type":"OUTPUT_WORLD_BL"},{"inputs":[],"is_active_output":false,"name":"Light Path","outputs":[0.0,0.0,0.0,0.0,0.0,0.0,0.0,0.0,0.0,0.0,0.0,0.0,0.0],"type":"LIGHT_PATH_BL"},{"inputs":[[1.0,1.0,1.0,1.0],1.0000001192092896],"is_active_output":false,"name":"Background","outputs":[[0,0,0,0]],"type":"BACKGROUND_BL"},{"blendType":"MIX","clampFactor":true,"clampResult":false,"dataType":"RGBA","factorMode":"UNIFORM","inputs":[0.5,[0.5,0.5,0.5],0.0,0.0,[0.0,0.0,0.0],[0.0,0.0,0.0],[0.5,0.5,0.5,1.0],[1.0,1.0,1.0,1.0],0,0],"is_active_output":false,"name":"Mix","outputs":[0.0,[0.0,0.0,0.0],[0.0,0.0,0.0,0.0],0],"type":"MIX_BL"},{"inputs":[[0.0,0.0,0.0]],"is_active_output":false,"name":"Environment Texture","outputs":[[0.0,0.0,0.0,0.0]],"projection":"EQUIRECTANGULAR","texture":0,"type":"TEX_ENVIRONMENT_BL"}]},"useCastShadows":true}},"name":"Verge3D_Environment_World"}],"meshes":[{"extensions":{"S8S_v3d_mesh":{"colorLayers":{},"uvLayers":{}}},"name":"gem_4_inside","primitives":[{"attributes":{"NORMAL":2,"POSITION":1},"indices":0,"material":0,"mode":4}]},{"extensions":{"S8S_v3d_mesh":{"colorLayers":{},"uvLayers":{}}},"name":"gem_4_inside_2.001","primitives":[{"attributes":{"NORMAL":5,"POSITION":4},"indices":3,"material":0,"mode":4}]},{"extensions":{"S8S_v3d_mesh":{"colorLayers":{},"uvLayers":{}}},"name":"gem_4_inside_2.003","primitives":[{"attributes":{"NORMAL":8,"POSITION":7},"indices":6,"material":0,"mode":4}]},{"extensions":{"S8S_v3d_mesh":{"colorLayers":{},"uvLayers":{}}},"name":"gem_4_inside_2.005","primitives":[{"attributes":{"NORMAL":11,"POSITION":10},"indices":9,"material":0,"mode":4}]},{"extensions":{"S8S_v3d_mesh":{"colorLayers":{},"uvLayers":{}}},"name":"gem_4_inside_2.007","primitives":[{"attributes":{"NORMAL":14,"POSITION":13},"indices":12,"material":0,"mode":4}]},{"extensions":{"S8S_v3d_mesh":{"colorLayers":{},"uvLayers":{}}},"name":"gem_4_inside_2.009","primitives":[{"attributes":{"NORMAL":17,"POSITION":16},"indices":15,"material":0,"mode":4}]},{"extensions":{"S8S_v3d_mesh":{"colorLayers":{},"uvLayers":{}}},"name":"gem_4_outside","primitives":[{"attributes":{"NORMAL":20,"POSITION":19},"indices":18,"material":1,"mode":4}]},{"extensions":{"S8S_v3d_mesh":{"colorLayers":{},"uvLayers":{}}},"name":"gem_4_outside_2.001","primitives":[{"attributes":{"NORMAL":23,"POSITION":22},"indices":21,"material":1,"mode":4}]},{"extensions":{"S8S_v3d_mesh":{"colorLayers":{},"uvLayers":{}}},"name":"gem_4_outside_2.003","primitives":[{"attributes":{"NORMAL":26,"POSITION":25},"indices":24,"material":1,"mode":4}]},{"extensions":{"S8S_v3d_mesh":{"colorLayers":{},"uvLayers":{}}},"name":"gem_4_outside_2.005","primitives":[{"attributes":{"NORMAL":29,"POSITION":28},"indices":27,"material":1,"mode":4}]},{"extensions":{"S8S_v3d_mesh":{"colorLayers":{},"uvLayers":{}}},"name":"gem_4_outside_2.007","primitives":[{"attributes":{"NORMAL":32,"POSITION":31},"indices":30,"material":1,"mode":4}]},{"extensions":{"S8S_v3d_mesh":{"colorLayers":{},"uvLayers":{}}},"name":"gem_4_outside_2.009","primitives":[{"attributes":{"NORMAL":35,"POSITION":34},"indices":33,"material":1,"mode":4}]},{"extensions":{"S8S_v3d_mesh":{"colorLayers":{"engrave_mask":"COLOR_0"},"uvLayers":{"engrave":"TEXCOORD_0"}}},"name":"ring_type_1_gem_4_curve_0_line_0","primitives":[{"attributes":{"COLOR_0":41,"NORMAL":38,"POSITION":37,"TANGENT":39,"TEXCOORD_0":40},"indices":36,"material":2,"mode":4}]},{"extensions":{"S8S_v3d_mesh":{"colorLayers":{"engrave_mask":"COLOR_0"},"uvLayers":{"engrave":"TEXCOORD_0"}}},"name":"ring_type_1_gem_4_curve_0_line_1","primitives":[{"attributes":{"COLOR_0":47,"NORMAL":44,"POSITION":43,"TANGENT":45,"TEXCOORD_0":46},"indices":42,"material":2,"mode":4}]},{"extensions":{"S8S_v3d_mesh":{"colorLayers":{"engrave_mask":"COLOR_0"},"uvLayers":{"engrave":"TEXCOORD_0"}}},"name":"ring_type_2_gem_4_curve_0_line_0","primitives":[{"attributes":{"COLOR_0":53,"NORMAL":50,"POSITION":49,"TANGENT":51,"TEXCOORD_0":52},"indices":48,"material":2,"mode":4}]},{"extensions":{"S8S_v3d_mesh":{"colorLayers":{"engrave_mask":"COLOR_0"},"uvLayers":{"engrave":"TEXCOORD_0"}}},"name":"ring_type_2_gem_4_curve_0_line_1","primitives":[{"attributes":{"COLOR_0":59,"NORMAL":56,"POSITION":55,"TANGENT":57,"TEXCOORD_0":58},"indices":54,"material":2,"mode":4}]},{"extensions":{"S8S_v3d_mesh":{"colorLayers":{"engrave_mask":"COLOR_0"},"uvLayers":{"engrave":"TEXCOORD_0"}}},"name":"ring_type_3_gem_4_curve_0_line_0","primitives":[{"attributes":{"COLOR_0":65,"NORMAL":62,"POSITION":61,"TANGENT":63,"TEXCOORD_0":64},"indices":60,"material":2,"mode":4}]},{"extensions":{"S8S_v3d_mesh":{"colorLayers":{"engrave_mask":"COLOR_0"},"uvLayers":{"engrave":"TEXCOORD_0"}}},"name":"ring_type_3_gem_4_curve_0_line_1","primitives":[{"attributes":{"COLOR_0":71,"NORMAL":68,"POSITION":67,"TANGENT":69,"TEXCOORD_0":70},"indices":66,"material":2,"mode":4}]},{"extensions":{"S8S_v3d_mesh":{"colorLayers":{"engrave_mask":"COLOR_0"},"uvLayers":{"engrave":"TEXCOORD_0"}}},"name":"ring_type_4_gem_4_curve_0_line_0","primitives":[{"attributes":{"COLOR_0":77,"NORMAL":74,"POSITION":73,"TANGENT":75,"TEXCOORD_0":76},"indices":72,"material":2,"mode":4}]},{"extensions":{"S8S_v3d_mesh":{"colorLayers":{"engrave_mask":"COLOR_0"},"uvLayers":{"engrave":"TEXCOORD_0"}}},"name":"ring_type_4_gem_4_curve_0_line_1","primitives":[{"attributes":{"COLOR_0":83,"NORMAL":80,"POSITION":79,"TANGENT":81,"TEXCOORD_0":82},"indices":78,"material":2,"mode":4}]},{"extensions":{"S8S_v3d_mesh":{"colorLayers":{"engrave_mask":"COLOR_0"},"uvLayers":{"engrave":"TEXCOORD_0"}}},"name":"ring_type_5_gem_4_curve_0_line_0","primitives":[{"attributes":{"COLOR_0":89,"NORMAL":86,"POSITION":85,"TANGENT":87,"TEXCOORD_0":88},"indices":84,"material":2,"mode":4}]},{"extensions":{"S8S_v3d_mesh":{"colorLayers":{"engrave_mask":"COLOR_0"},"uvLayers":{"engrave":"TEXCOORD_0"}}},"name":"ring_type_5_gem_4_curve_0_line_1","primitives":[{"attributes":{"COLOR_0":95,"NORMAL":92,"POSITION":91,"TANGENT":93,"TEXCOORD_0":94},"indices":90,"material":2,"mode":4}]}],"nodes":[{"extensions":{"S8S_v3d_node":{"frustumCulling":true,"groupNames":[],"hidden":true,"hidpiCompositing":false,"objectColor":[1.0,1.0,1.0,1.0],"objectIndex":0,"renderOrder":0}},"name":"Empty","translation":[0.0,-0.028885208070278168,-0.0]},{"children":[22,51],"extensions":{"S8S_v3d_node":{"frustumCulling":true,"groupNames":["gem_4_line_0"],"hidden":true,"hidpiCompositing":false,"objectColor":[1.0,1.0,1.0,1.0],"objectIndex":0,"renderOrder":0,"useShadows":true}},"mesh":16,"name":"ring_type_3_gem_4_curve_0_line_0","translation":[0.0,7.999999797903001e-05,-0.0]},{"extensions":{"S8S_v3d_node":{"frustumCulling":true,"groupNames":["gem_4_line_0"],"hidden":true,"hidpiCompositing":false,"objectColor":[1.0,1.0,1.0,1.0],"objectIndex":0,"renderOrder":0,"useShadows":true}},"mesh":6,"name":"gem_type_2_gem_4_curve_0_line_0_outside","translation":[0.0,0.03812466561794281,-0.05000000074505806]},{"children":[2],"name":"v3d_Proxy_Node_0_gem_type_2_gem_4_curve_0_line_0_outside","translation":[-0.0,-0.0,0.05000000074505806]},{"children":[53,35],"extensions":{"S8S_v3d_node":{"frustumCulling":true,"groupNames":["gem_4_line_0"],"hidden":true,"hidpiCompositing":false,"objectColor":[1.0,1.0,1.0,1.0],"objectIndex":0,"renderOrder":0,"useShadows":true}},"mesh":12,"name":"ring_type_1_gem_4_curve_0_line_0","translation":[0.0,1.4999999621068127e-05,-0.0]},{"extensions":{"S8S_v3d_node":{"frustumCulling":true,"groupNames":["gem_4_line_0"],"hidden":true,"hidpiCompositing":false,"objectColor":[1.0,1.0,1.0,1.0],"objectIndex":0,"renderOrder":0,"useShadows":true}},"mesh":6,"name":"gem_type_4_gem_4_curve_0_line_0_outside","translation":[0.0,0.03812466561794281,0.05000000074505806]},{"children":[5],"name":"v3d_Proxy_Node_0_gem_type_4_gem_4_curve_0_line_0_outside","translation":[-0.0,-0.0,-0.05000000074505806]},{"children":[38,19],"extensions":{"S8S_v3d_node":{"frustumCulling":true,"groupNames":["gem_4_line_0"],"hidden":true,"hidpiCompositing":false,"objectColor":[1.0,1.0,1.0,1.0],"objectIndex":0,"renderOrder":0,"useShadows":true}},"mesh":20,"name":"ring_type_5_gem_4_curve_0_line_0","translation":[0.0,0.0005150000215508044,-0.0]},{"extensions":{"S8S_v3d_node":{"frustumCulling":true,"groupNames":["gem_4_line_1"],"hidden":true,"hidpiCompositing":false,"objectColor":[1.0,1.0,1.0,1.0],"objectIndex":0,"renderOrder":0,"useShadows":true}},"mesh":6,"name":"gem_type_3_gem_4_curve_0_line_1_outside","translation":[0.10000000149011612,0.03812466561794281,-0.0]},{"children":[8],"name":"v3d_Proxy_Node_0_gem_type_3_gem_4_curve_0_line_1_outside","translation":[-0.10000000149011612,-0.0,-0.0]},{"extensions":{"S8S_v3d_node":{"frustumCulling":true,"groupNames":["gem_4_line_1"],"hidden":true,"hidpiCompositing":false,"objectColor":[1.0,1.0,1.0,1.0],"objectIndex":0,"renderOrder":0,"useShadows":true}},"mesh":6,"name":"gem_type_4_gem_4_curve_0_line_1_outside","translation":[0.10000000149011612,0.03812466561794281,0.05000000074505806]},{"children":[10],"name":"v3d_Proxy_Node_0_gem_type_4_gem_4_curve_0_line_1_outside","translation":[-0.10000000149011612,-0.0,-0.05000000074505806]},{"extensions":{"S8S_v3d_node":{"frustumCulling":true,"groupNames":["gem_4_line_1"],"hidden":true,"hidpiCompositing":false,"objectColor":[1.0,1.0,1.0,1.0],"objectIndex":0,"renderOrder":0,"useShadows":true}},"mesh":1,"name":"gem_type_1_gem_4_curve_0_line_1_inside_1","rotation":[1.9470718370939721e-07,1.6292068494294654e-07,-1.0,1.7478846739112444e-14],"translation":[0.10000000894069672,-3.7596573803418826e-16,-0.10000000149011612]},{"children":[12],"name":"v3d_Proxy_Node_0_gem_type_1_gem_4_curve_0_line_1_inside_1","translation":[-0.10000000149011612,-0.0,0.10000000149011612]},{"extensions":{"S8S_v3d_node":{"frustumCulling":true,"groupNames":["gem_4_line_1"],"hidden":true,"hidpiCompositing":false,"objectColor":[1.0,1.0,1.0,1.0],"objectIndex":0,"renderOrder":0,"useShadows":true}},"mesh":0,"name":"gem_type_5_gem_4_curve_0_line_1_inside","translation":[0.10000000149011612,0.03812466561794281,0.10000000149011612]},{"children":[14],"name":"v3d_Proxy_Node_0_gem_type_5_gem_4_curve_0_line_1_inside","translation":[-0.10000000149011612,-0.0,-0.10000000149011612]},{"extensions":{"S8S_v3d_node":{"frustumCulling":true,"groupNames":["gem_4_line_1"],"hidden":true,"hidpiCompositing":false,"objectColor":[1.0,1.0,1.0,1.0],"objectIndex":0,"renderOrder":0,"useShadows":true}},"mesh":5,"name":"gem_type_5_gem_4_curve_0_line_1_inside_1","rotation":[1.9470718370939721e-07,1.6292068494294654e-07,-1.0,1.7478846739112444e-14],"translation":[0.09999999403953552,-3.7596573803418826e-16,0.10000000149011612]},{"children":[16],"name":"v3d_Proxy_Node_0_gem_type_5_gem_4_curve_0_line_1_inside_1","translation":[-0.10000000149011612,-0.0,-0.10000000149011612]},{"extensions":{"S8S_v3d_node":{"frustumCulling":true,"groupNames":["gem_4_line_0"],"hidden":true,"hidpiCompositing":false,"objectColor":[1.0,1.0,1.0,1.0],"objectIndex":0,"renderOrder":0,"useShadows":true}},"mesh":6,"name":"gem_type_5_gem_4_curve_0_line_0_outside","translation":[0.0,0.03812466561794281,0.10000000149011612]},{"children":[18],"name":"v3d_Proxy_Node_0_gem_type_5_gem_4_curve_0_line_0_outside","translation":[-0.0,-0.0,-0.10000000149011612]},{"extensions":{"S8S_v3d_node":{"frustumCulling":true,"groupNames":["gem_4_line_0"],"hidden":true,"hidpiCompositing":false,"objectColor":[1.0,1.0,1.0,1.0],"objectIndex":0,"renderOrder":0,"useShadows":true}},"mesh":0,"name":"gem_type_2_gem_4_curve_0_line_0_inside","translation":[0.0,0.03812466561794281,-0.05000000074505806]},{"children":[20],"name":"v3d_Proxy_Node_0_gem_type_2_gem_4_curve_0_line_0_inside","translation":[-0.0,-0.0,0.05000000074505806]},{"extensions":{"S8S_v3d_node":{"frustumCulling":true,"groupNames":["gem_4_line_0"],"hidden":true,"hidpiCompositing":false,"objectColor":[1.0,1.0,1.0,1.0],"objectIndex":0,"renderOrder":0,"useShadows":true}},"mesh":0,"name":"gem_type_3_gem_4_curve_0_line_0_inside","translation":[0.0,0.03812466561794281,-0.0]},{"children":[66,46,57,42],"extensions":{"S8S_v3d_node":{"frustumCulling":true,"groupNames":["gem_4_line_1"],"hidden":true,"hidpiCompositing":false,"objectColor":[1.0,1.0,1.0,1.0],"objectIndex":0,"renderOrder":0,"useShadows":true}},"mesh":15,"name":"ring_type_2_gem_4_curve_0_line_1","translation":[0.0,0.0002500000118743628,-0.0]},{"children":[68,50,11,60],"extensions":{"S8S_v3d_node":{"frustumCulling":true,"groupNames":["gem_4_line_1"],"hidden":true,"hidpiCompositing":false,"objectColor":[1.0,1.0,1.0,1.0],"objectIndex":0,"renderOrder":0,"useShadows":true}},"mesh":19,"name":"ring_type_4_gem_4_curve_0_line_1","translation":[0.0,2.9999999242136255e-05,-0.0]},{"extensions":{"S8S_v3d_node":{"frustumCulling":true,"groupNames":["gem_4_line_0"],"hidden":true,"hidpiCompositing":false,"objectColor":[1.0,1.0,1.0,1.0],"objectIndex":0,"renderOrder":0,"useShadows":true}},"mesh":0,"name":"gem_type_4_gem_4_curve_0_line_0_inside","translation":[0.0,0.03812466561794281,0.05000000074505806]},{"children":[25],"name":"v3d_Proxy_Node_0_gem_type_4_gem_4_curve_0_line_0_inside","translation":[-0.0,-0.0,-0.05000000074505806]},{"extensions":{"S8S_v3d_node":{"frustumCulling":true,"groupNames":["gem_4_line_1"],"hidden":true,"hidpiCompositing":false,"objectColor":[1.0,1.0,1.0,1.0],"objectIndex":0,"renderOrder":0,"useShadows":true}},"mesh":7,"name":"gem_type_5_gem_4_curve_0_line_1_outside_1","rotation":[1.9470718370939721e-07,1.6292068494294654e-07,-1.0,1.7478846739112444e-14],"translation":[0.09999999403953552,-3.7596573803418826e-16,0.10000000149011612]},{"children":[27],"name":"v3d_Proxy_Node_0_gem_type_5_gem_4_curve_0_line_1_outside_1","translation":[-0.10000000149011612,-0.0,-0.10000000149011612]},{"extensions":{"S8S_v3d_node":{"frustumCulling":true,"groupNames":["gem_4_line_1"],"hidden":true,"hidpiCompositing":false,"objectColor":[1.0,1.0,1.0,1.0],"objectIndex":0,"renderOrder":0,"useShadows":true}},"mesh":0,"name":"gem_type_1_gem_4_curve_0_line_1_inside","translation":[0.10000000149011612,0.03812466561794281,-0.10000000149011612]},{"children":[29],"name":"v3d_Proxy_Node_0_gem_type_1_gem_4_curve_0_line_1_inside","translation":[-0.10000000149011612,-0.0,0.10000000149011612]},{"extensions":{"S8S_v3d_node":{"frustumCulling":true,"groupNames":["gem_4_line_1"],"hidden":true,"hidpiCompositing":false,"objectColor":[1.0,1.0,1.0,1.0],"objectIndex":0,"renderOrder":0,"useShadows":true}},"mesh":3,"name":"gem_type_3_gem_4_curve_0_line_1_inside_1","rotation":[1.9470718370939721e-07,1.6292068494294654e-07,-1.0,1.7478846739112444e-14],"translation":[0.10000000149011612,-8.470329472543003e-22,1.7763578981914345e-15]},{"children":[31],"name":"v3d_Proxy_Node_0_gem_type_3_gem_4_curve_0_line_1_inside_1","translation":[-0.10000000149011612,-0.0,-0.0]},{"children":[21,3],"extensions":{"S8S_v3d_node":{"frustumCulling":true,"groupNames":["gem_4_line_0"],"hidden":true,"hidpiCompositing":false,"objectColor":[1.0,1.0,1.0,1.0],"objectIndex":0,"renderOrder":0,"useShadows":true}},"mesh":14,"name":"ring_type_2_gem_4_curve_0_line_0","translation":[0.0,0.0002500000118743628,-0.0]},{"extensions":{"S8S_v3d_node":{"frustumCulling":true,"groupNames":["gem_4_line_0"],"hidden":true,"hidpiCompositing":false,"objectColor":[1.0,1.0,1.0,1.0],"objectIndex":0,"renderOrder":0,"useShadows":true}},"mesh":6,"name":"gem_type_1_gem_4_curve_0_line_0_outside","translation":[0.0,0.03812466561794281,-0.10000000149011612]},{"children":[34],"name":"v3d_Proxy_Node_0_gem_type_1_gem_4_curve_0_line_0_outside","translation":[-0.0,-0.0,0.10000000149011612]},{"children":[26,6],"extensions":{"S8S_v3d_node":{"frustumCulling":true,"groupNames":["gem_4_line_0"],"hidden":true,"hidpiCompositing":false,"objectColor":[1.0,1.0,1.0,1.0],"objectIndex":0,"renderOrder":0,"useShadows":true}},"mesh":18,"name":"ring_type_4_gem_4_curve_0_line_0","translation":[0.0,2.9999999242136255e-05,-0.0]},{"extensions":{"S8S_v3d_node":{"frustumCulling":true,"groupNames":["gem_4_line_0"],"hidden":true,"hidpiCompositing":false,"objectColor":[1.0,1.0,1.0,1.0],"objectIndex":0,"renderOrder":0,"useShadows":true}},"mesh":0,"name":"gem_type_5_gem_4_curve_0_line_0_inside","translation":[0.0,0.03812466561794281,0.10000000149011612]},{"children":[37],"name":"v3d_Proxy_Node_0_gem_type_5_gem_4_curve_0_line_0_inside","translation":[-0.0,-0.0,-0.10000000149011612]},{"extensions":{"S8S_v3d_node":{"frustumCulling":true,"groupNames":["gem_4_line_1"],"hidden":true,"hidpiCompositing":false,"objectColor":[1.0,1.0,1.0,1.0],"objectIndex":0,"renderOrder":0,"useShadows":true}},"mesh":6,"name":"gem_type_5_gem_4_curve_0_line_1_outside","translation":[0.10000000149011612,0.03812466561794281,0.10000000149011612]},{"children":[39],"name":"v3d_Proxy_Node_0_gem_type_5_gem_4_curve_0_line_1_outside","translation":[-0.10000000149011612,-0.0,-0.10000000149011612]},{"extensions":{"S8S_v3d_node":{"frustumCulling":true,"groupNames":["gem_4_line_1"],"hidden":true,"hidpiCompositing":false,"objectColor":[1.0,1.0,1.0,1.0],"objectIndex":0,"renderOrder":0,"useShadows":true}},"mesh":10,"name":"gem_type_2_gem_4_curve_0_line_1_outside_1","rotation":[1.9470718370939721e-07,1.6292068494294654e-07,-1.0,1.7478846739112444e-14],"translation":[0.09999999403953552,-2.1523225774344387e-15,-0.04999999701976776]},{"children":[41],"name":"v3d_Proxy_Node_0_gem_type_2_gem_4_curve_0_line_1_outside_1","translation":[-0.10000000149011612,-0.0,0.05000000074505806]},{"extensions":{"S8S_v3d_node":{"frustumCulling":true,"groupNames":["gem_4_line_1"],"hidden":true,"hidpiCompositing":false,"objectColor":[1.0,1.0,1.0,1.0],"objectIndex":0,"renderOrder":0,"useShadows":true}},"mesh":11,"name":"gem_type_1_gem_4_curve_0_line_1_outside_1","rotation":[1.9470718370939721e-07,1.6292068494294654e-07,-1.0,1.7478846739112444e-14],"translation":[0.10000000894069672,-3.7596573803418826e-16,-0.10000000149011612]},{"children":[43],"name":"v3d_Proxy_Node_0_gem_type_1_gem_4_curve_0_line_1_outside_1","translation":[-0.10000000149011612,-0.0,0.10000000149011612]},{"extensions":{"S8S_v3d_node":{"frustumCulling":true,"groupNames":["gem_4_line_1"],"hidden":true,"hidpiCompositing":false,"objectColor":[1.0,1.0,1.0,1.0],"objectIndex":0,"renderOrder":0,"useShadows":true}},"mesh":2,"name":"gem_type_2_gem_4_curve_0_line_1_inside_1","rotation":[1.9470718370939721e-07,1.6292068494294654e-07,-1.0,1.7478846739112444e-14],"translation":[0.09999999403953552,-2.1523225774344387e-15,-0.04999999701976776]},{"children":[45],"name":"v3d_Proxy_Node_0_gem_type_2_gem_4_curve_0_line_1_inside_1","translation":[-0.10000000149011612,-0.0,0.05000000074505806]},{"extensions":{"S8S_v3d_node":{"frustumCulling":true,"groupNames":["gem_4_line_1"],"hidden":true,"hidpiCompositing":false,"objectColor":[1.0,1.0,1.0,1.0],"objectIndex":0,"renderOrder":0,"useShadows":true}},"mesh":0,"name":"gem_type_3_gem_4_curve_0_line_1_inside","translation":[0.10000000149011612,0.03812466561794281,-0.0]},{"children":[47],"name":"v3d_Proxy_Node_0_gem_type_3_gem_4_curve_0_line_1_inside","translation":[-0.10000000149011612,-0.0,-0.0]},{"extensions":{"S8S_v3d_node":{"frustumCulling":true,"groupNames":["gem_4_line_1"],"hidden":true,"hidpiCompositing":false,"objectColor":[1.0,1.0,1.0,1.0],"objectIndex":0,"renderOrder":0,"useShadows":true}},"mesh":4,"name":"gem_type_4_gem_4_curve_0_line_1_inside_1","rotation":[1.9470718370939721e-07,1.6292068494294654e-07,-1.0,1.7478846739112444e-14],"translation":[0.10000000894069672,-2.1523225774344387e-15,0.05000000447034836]},{"children":[49],"name":"v3d_Proxy_Node_0_gem_type_4_gem_4_curve_0_line_1_inside_1","translation":[-0.10000000149011612,-0.0,-0.05000000074505806]},{"extensions":{"S8S_v3d_node":{"frustumCulling":true,"groupNames":["gem_4_line_0"],"hidden":true,"hidpiCompositing":false,"objectColor":[1.0,1.0,1.0,1.0],"objectIndex":0,"renderOrder":0,"useShadows":true}},"mesh":6,"name":"gem_type_3_gem_4_curve_0_line_0_outside","translation":[0.0,0.03812466561794281,-0.0]},{"extensions":{"S8S_v3d_node":{"frustumCulling":true,"groupNames":["gem_4_line_0"],"hidden":true,"hidpiCompositing":false,"objectColor":[1.0,1.0,1.0,1.0],"objectIndex":0,"renderOrder":0,"useShadows":true}},"mesh":0,"name":"gem_type_1_gem_4_curve_0_line_0_inside","translation":[0.0,0.03812466561794281,-0.10000000149011612]},{"children":[52],"name":"v3d_Proxy_Node_0_gem_type_1_gem_4_curve_0_line_0_inside","translation":[-0.0,-0.0,0.10000000149011612]},{"children":[48,32,9,62],"extensions":{"S8S_v3d_node":{"frustumCulling":true,"groupNames":["gem_4_line_1"],"hidden":true,"hidpiCompositing":false,"objectColor":[1.0,1.0,1.0,1.0],"objectIndex":0,"renderOrder":0,"useShadows":true}},"mesh":17,"name":"ring_type_3_gem_4_curve_0_line_1","translation":[0.0,7.999999797903001e-05,-0.0]},{"children":[15,17,40,28],"extensions":{"S8S_v3d_node":{"frustumCulling":true,"groupNames":["gem_4_line_1"],"hidden":true,"hidpiCompositing":false,"objectColor":[1.0,1.0,1.0,1.0],"objectIndex":0,"renderOrder":0,"useShadows":true}},"mesh":21,"name":"ring_type_5_gem_4_curve_0_line_1","translation":[0.0,0.0005150000215508044,-0.0]},{"extensions":{"S8S_v3d_node":{"frustumCulling":true,"groupNames":["gem_4_line_1"],"hidden":true,"hidpiCompositing":false,"objectColor":[1.0,1.0,1.0,1.0],"objectIndex":0,"renderOrder":0,"useShadows":true}},"mesh":6,"name":"gem_type_2_gem_4_curve_0_line_1_outside","translation":[0.10000000149011612,0.03812466561794281,-0.05000000074505806]},{"children":[56],"name":"v3d_Proxy_Node_0_gem_type_2_gem_4_curve_0_line_1_outside","translation":[-0.10000000149011612,-0.0,0.05000000074505806]},{"children":[30,13,64,44],"extensions":{"S8S_v3d_node":{"frustumCulling":true,"groupNames":["gem_4_line_1"],"hidden":true,"hidpiCompositing":false,"objectColor":[1.0,1.0,1.0,1.0],"objectIndex":0,"renderOrder":0,"useShadows":true}},"mesh":13,"name":"ring_type_1_gem_4_curve_0_line_1","translation":[0.0,1.4999999621068127e-05,-0.0]},{"extensions":{"S8S_v3d_node":{"frustumCulling":true,"groupNames":["gem_4_line_1"],"hidden":true,"hidpiCompositing":false,"objectColor":[1.0,1.0,1.0,1.0],"objectIndex":0,"renderOrder":0,"useShadows":true}},"mesh":8,"name":"gem_type_4_gem_4_curve_0_line_1_outside_1","rotation":[1.9470718370939721e-07,1.6292068494294654e-07,-1.0,1.7478846739112444e-14],"translation":[0.10000000894069672,-2.1523225774344387e-15,0.05000000447034836]},{"children":[59],"name":"v3d_Proxy_Node_0_gem_type_4_gem_4_curve_0_line_1_outside_1","translation":[-0.10000000149011612,-0.0,-0.05000000074505806]},{"extensions":{"S8S_v3d_node":{"frustumCulling":true,"groupNames":["gem_4_line_1"],"hidden":true,"hidpiCompositing":false,"objectColor":[1.0,1.0,1.0,1.0],"objectIndex":0,"renderOrder":0,"useShadows":true}},"mesh":9,"name":"gem_type_3_gem_4_curve_0_line_1_outside_1","rotation":[1.9470718370939721e-07,1.6292068494294654e-07,-1.0,1.7478846739112444e-14],"translation":[0.10000000149011612,-8.470329472543003e-22,1.7763578981914345e-15]},{"children":[61],"name":"v3d_Proxy_Node_0_gem_type_3_gem_4_curve_0_line_1_outside_1","translation":[-0.10000000149011612,-0.0,-0.0]},{"extensions":{"S8S_v3d_node":{"frustumCulling":true,"groupNames":["gem_4_line_1"],"hidden":true,"hidpiCompositing":false,"objectColor":[1.0,1.0,1.0,1.0],"objectIndex":0,"renderOrder":0,"useShadows":true}},"mesh":6,"name":"gem_type_1_gem_4_curve_0_line_1_outside","translation":[0.10000000149011612,0.03812466561794281,-0.10000000149011612]},{"children":[63],"name":"v3d_Proxy_Node_0_gem_type_1_gem_4_curve_0_line_1_outside","translation":[-0.10000000149011612,-0.0,0.10000000149011612]},{"extensions":{"S8S_v3d_node":{"frustumCulling":true,"groupNames":["gem_4_line_1"],"hidden":true,"hidpiCompositing":false,"objectColor":[1.0,1.0,1.0,1.0],"objectIndex":0,"renderOrder":0,"useShadows":true}},"mesh":0,"name":"gem_type_2_gem_4_curve_0_line_1_inside","translation":[0.10000000149011612,0.03812466561794281,-0.05000000074505806]},{"children":[65],"name":"v3d_Proxy_Node_0_gem_type_2_gem_4_curve_0_line_1_inside","translation":[-0.10000000149011612,-0.0,0.05000000074505806]},{"extensions":{"S8S_v3d_node":{"frustumCulling":true,"groupNames":["gem_4_line_1"],"hidden":true,"hidpiCompositing":false,"objectColor":[1.0,1.0,1.0,1.0],"objectIndex":0,"renderOrder":0,"useShadows":true}},"mesh":0,"name":"gem_type_4_gem_4_curve_0_line_1_inside","translation":[0.10000000149011612,0.03812466561794281,0.05000000074505806]},{"children":[67],"name":"v3d_Proxy_Node_0_gem_type_4_gem_4_curve_0_line_1_inside","translation":[-0.10000000149011612,-0.0,-0.05000000074505806]},{"camera":0,"name":"__DEFAULT_CAMERA__","rotation":[-0.35991260409355164,-0.3083997964859009,-0.1273965686559677,0.8712764382362366],"scale":[1.0,0.9999998211860657,0.9999998211860657],"translation":[-0.03468959406018257,0.05987738445401192,0.038642704486846924]}],"samplers":[{}],"scene":0,"scenes":[{"extensions":{"S8S_v3d_scene":{"aaMethod":"AUTO","iblEnvironmentMode":"PMREM","physicallyCorrectLights":true,"pmremMaxTileSize":512,"shadowMap":{"esmDistanceScale":1.0,"renderReverseSided":false,"renderSingleSided":true,"type":"PCFPOISSON"},"useHDR":true,"worldMaterial":3}},"extras":{"animFrameRate":24,"coordSystem":"Z_UP_RIGHT"},"name":"Scene","nodes":[0,1,33,4,36,7,54,23,24,55,58,69]}],"textures":[{"extensions":{"S8S_v3d_texture":{"colorSpace":"linear rec.709","source":0}},"name":"environment.hdr","sampler":0},{"extensions":{"S8S_v3d_texture":{"anisotropy":16,"colorSpace":"non-color"}},"name":"engrave_normal","sampler":0,"source":1},{"extensions":{"S8S_v3d_texture":{"anisotropy":16,"colorSpace":"srgb"}},"name":"engrave_ao","sampler":0,"source":2}]}
