{"accessors":[{"bufferView":0,"componentType":5123,"count":1044,"max":[983],"min":[0],"type":"SCALAR"},{"bufferView":1,"componentType":5126,"count":984,"max":[0.007968655787408352,0.0032256431877613068,0.012353084050118923],"min":[-0.007967391982674599,-0.006947668734937906,-0.01211338397115469],"type":"VEC3"},{"bufferView":2,"componentType":5126,"count":984,"max":[0.9971024990081787,0.9951380491256714,0.9949858784675598],"min":[-0.9969412088394165,-0.9969080090522766,-0.7946252822875977],"type":"VEC3"},{"bufferView":3,"componentType":5123,"count":4224,"max":[3519],"min":[0],"type":"SCALAR"},{"bufferView":4,"componentType":5126,"count":3520,"max":[0.028009336441755295,0.014653905294835567,0.0014874865300953388],"min":[-0.02800934389233589,-0.01220383308827877,-0.0014874795451760292],"type":"VEC3"},{"bufferView":5,"componentType":5126,"count":3520,"max":[0.9997018575668335,0.9948070645332336,0.9754614233970642],"min":[-0.9997018575668335,-0.9998950958251953,-0.9754611253738403],"type":"VEC3"},{"bufferView":6,"componentType":5123,"count":4224,"max":[3519],"min":[0],"type":"SCALAR"},{"bufferView":7,"componentType":5126,"count":3520,"max":[0.02809968963265419,0.014401745051145554,0.0015000166604295373],"min":[-0.02809971198439598,-0.012088563293218613,-0.001499784761108458],"type":"VEC3"},{"bufferView":8,"componentType":5126,"count":3520,"max":[0.9999272227287292,0.9920657873153687,0.9761708974838257],"min":[-0.9999272227287292,-0.999754786491394,-0.9758902788162231],"type":"VEC3"},{"bufferView":9,"componentType":5123,"count":4224,"max":[3519],"min":[0],"type":"SCALAR"},{"bufferView":10,"componentType":5126,"count":3520,"max":[0.02784508839249611,0.014568306505680084,0.0014943350106477737],"min":[-0.027845051139593124,-0.012104453518986702,-0.0014956571394577622],"type":"VEC3"},{"bufferView":11,"componentType":5126,"count":3520,"max":[0.9999920129776001,0.9923244118690491,0.9759227633476257],"min":[-0.9999920129776001,-0.9999176263809204,-0.9760505557060242],"type":"VEC3"},{"bufferView":12,"componentType":5123,"count":4224,"max":[3519],"min":[0],"type":"SCALAR"},{"bufferView":13,"componentType":5126,"count":3520,"max":[0.027992844581604004,0.014613503590226173,0.001487485133111477],"min":[-0.02799282968044281,-0.012228291481733322,-0.0014874807093292475],"type":"VEC3"},{"bufferView":14,"componentType":5126,"count":3520,"max":[0.9993976354598999,0.9953075051307678,0.9757317900657654],"min":[-0.9993976354598999,-0.999955415725708,-0.9757322669029236],"type":"VEC3"},{"bufferView":15,"componentType":5123,"count":4224,"max":[3519],"min":[0],"type":"SCALAR"},{"bufferView":16,"componentType":5126,"count":3520,"max":[0.028066471219062805,0.014688648283481598,0.0014874862972646952],"min":[-0.028066486120224,-0.0120784230530262,-0.0014874793123453856],"type":"VEC3"},{"bufferView":17,"componentType":5126,"count":3520,"max":[0.9999972581863403,0.9963462352752686,0.9747698903083801],"min":[-0.9999972581863403,-0.9999017715454102,-0.9747697710990906],"type":"VEC3"},{"bufferView":18,"componentType":5123,"count":786,"max":[491],"min":[0],"type":"SCALAR"},{"bufferView":19,"componentType":5126,"count":492,"max":[0.007968655787408352,0.0032256431877613068,0.012353084050118923],"min":[-0.007967391982674599,-0.006947668734937906,-0.01211338397115469],"type":"VEC3"},{"bufferView":20,"componentType":5126,"count":492,"max":[0.9991395473480225,1.0,0.7395288348197937],"min":[-0.9991268515586853,-0.8716039061546326,-0.9973981380462646],"type":"VEC3"},{"bufferView":21,"componentType":5123,"count":4092,"max":[3167],"min":[0],"type":"SCALAR"},{"bufferView":22,"componentType":5126,"count":3168,"max":[0.028066471219062805,0.014683885499835014,0.0014874862972646952],"min":[-0.028066486120224,-0.012083185836672783,-0.0014874793123453856],"type":"VEC3"},{"bufferView":23,"componentType":5126,"count":3168,"max":[0.9999972581863403,0.9999017715454102,0.9747697710990906],"min":[-0.9999972581863403,-0.9963462352752686,-0.9747698903083801],"type":"VEC3"},{"bufferView":24,"componentType":5123,"count":4092,"max":[3167],"min":[0],"type":"SCALAR"},{"bufferView":25,"componentType":5126,"count":3168,"max":[0.027992848306894302,0.014608733355998993,0.001487485133111477],"min":[-0.02799282595515251,-0.012233061715960503,-0.0014874807093292475],"type":"VEC3"},{"bufferView":26,"componentType":5126,"count":3168,"max":[0.9993976354598999,0.999955415725708,0.9757319092750549],"min":[-0.9993976354598999,-0.9953075051307678,-0.9757312536239624],"type":"VEC3"},{"bufferView":27,"componentType":5123,"count":4092,"max":[3167],"min":[0],"type":"SCALAR"},{"bufferView":28,"componentType":5126,"count":3168,"max":[0.02784508839249611,0.014563461765646935,0.0014943371061235666],"min":[-0.027845051139593124,-0.012109298259019852,-0.0014956550439819694],"type":"VEC3"},{"bufferView":29,"componentType":5126,"count":3168,"max":[0.9999920129776001,0.9999176263809204,0.9760505557060242],"min":[-0.9999920129776001,-0.99232417345047,-0.9759225249290466],"type":"VEC3"},{"bufferView":30,"componentType":5123,"count":4092,"max":[3167],"min":[0],"type":"SCALAR"},{"bufferView":31,"componentType":5126,"count":3168,"max":[0.02809968590736389,0.014396864920854568,0.001500012120231986],"min":[-0.02809971570968628,-0.012093443423509598,-0.0014997893013060093],"type":"VEC3"},{"bufferView":32,"componentType":5126,"count":3168,"max":[0.9999272227287292,0.999754786491394,0.9758902788162231],"min":[-0.9999272227287292,-0.9920657873153687,-0.9761708974838257],"type":"VEC3"},{"bufferView":33,"componentType":5123,"count":4092,"max":[3167],"min":[0],"type":"SCALAR"},{"bufferView":34,"componentType":5126,"count":3168,"max":[0.02800934389233589,0.01464912947267294,0.0014874865300953388],"min":[-0.028009336441755295,-0.012208608910441399,-0.0014874795451760292],"type":"VEC3"},{"bufferView":35,"componentType":5126,"count":3168,"max":[0.9997018575668335,0.9998950958251953,0.9754608869552612],"min":[-0.9997018575668335,-0.9948070645332336,-0.9754616618156433],"type":"VEC3"},{"bufferView":36,"componentType":5123,"count":64464,"max":[11041],"min":[0],"type":"SCALAR"},{"bufferView":37,"componentType":5126,"count":11042,"max":[0.028881875798106194,0.04062318801879883,0.014203297905623913],"min":[-0.028881875798106194,-0.09842360019683838,-0.010259106755256653],"type":"VEC3"},{"bufferView":38,"componentType":5126,"count":11042,"max":[1.0,1.0,1.0],"min":[-1.0,-1.0,-1.0],"type":"VEC3"},{"bufferView":39,"componentType":5126,"count":11042,"max":[1.0,0.5141025185585022,0.011920046992599964,1.0],"min":[0.8577286601066589,-0.5141025185585022,-0.011921495199203491,-1.0],"type":"VEC4"},{"bufferView":40,"componentType":5126,"count":11042,"max":[0.9999035000801086,1.0021412372589111],"min":[9.66787338256836e-05,0.04410958290100098],"type":"VEC2"},{"bufferView":41,"componentType":5126,"count":11042,"max":[1.0,1.0,1.0,1.0],"min":[0.0,0.0,0.0,1.0],"type":"VEC4"},{"bufferView":42,"componentType":5123,"count":76716,"max":[13821],"min":[0],"type":"SCALAR"},{"bufferView":43,"componentType":5126,"count":13822,"max":[0.028881875798106194,0.04062318801879883,0.014203297905623913],"min":[-0.028881875798106194,-0.09842360019683838,-0.01025900337845087],"type":"VEC3"},{"bufferView":44,"componentType":5126,"count":13822,"max":[1.0,1.0,1.0],"min":[-1.0,-1.0,-1.0],"type":"VEC3"},{"bufferView":45,"componentType":5126,"count":13822,"max":[1.0,0.514102578163147,0.011647311970591545,1.0],"min":[0.8577286601066589,-0.514102578163147,-0.011234628967940807,-1.0],"type":"VEC4"},{"bufferView":46,"componentType":5126,"count":13822,"max":[0.9999035000801086,0.992108941078186],"min":[9.66787338256836e-05,0.029587388038635254],"type":"VEC2"},{"bufferView":47,"componentType":5126,"count":13822,"max":[1.0,1.0,1.0,1.0],"min":[0.0,0.0,0.0,1.0],"type":"VEC4"},{"bufferView":48,"componentType":5123,"count":55956,"max":[9525],"min":[0],"type":"SCALAR"},{"bufferView":49,"componentType":5126,"count":9526,"max":[0.029105544090270996,0.04062318801879883,0.014203297905623913],"min":[-0.029105544090270996,-0.09889360517263412,-0.01025900337845087],"type":"VEC3"},{"bufferView":50,"componentType":5126,"count":9526,"max":[1.0,1.0,0.9999996423721313],"min":[-1.0,-1.0,-0.9999997615814209],"type":"VEC3"},{"bufferView":51,"componentType":5126,"count":9526,"max":[1.0,0.514102578163147,0.026701336726546288,1.0],"min":[0.8577243089675903,-0.514102578163147,-0.026699692010879517,-1.0],"type":"VEC4"},{"bufferView":52,"componentType":5126,"count":9526,"max":[0.9999092817306519,1.0017001628875732],"min":[9.071826934814453e-05,0.08984649181365967],"type":"VEC2"},{"bufferView":53,"componentType":5126,"count":9526,"max":[1.0,1.0,1.0,1.0],"min":[0.0,0.0,0.0,1.0],"type":"VEC4"},{"bufferView":54,"componentType":5123,"count":70044,"max":[12985],"min":[0],"type":"SCALAR"},{"bufferView":55,"componentType":5126,"count":12986,"max":[0.029105544090270996,0.04062318801879883,0.014203297905623913],"min":[-0.029105544090270996,-0.09889360517263412,-0.01025900337845087],"type":"VEC3"},{"bufferView":56,"componentType":5126,"count":12986,"max":[1.0,1.0,0.9999996423721313],"min":[-1.0,-1.0,-0.9999997615814209],"type":"VEC3"},{"bufferView":57,"componentType":5126,"count":12986,"max":[1.0,0.514102578163147,0.026701336726546288,1.0],"min":[0.8577243089675903,-0.514102578163147,-0.026699692010879517,-1.0],"type":"VEC4"},{"bufferView":58,"componentType":5126,"count":12986,"max":[0.9999092817306519,0.9736038446426392],"min":[9.071826934814453e-05,0.08984649181365967],"type":"VEC2"},{"bufferView":59,"componentType":5126,"count":12986,"max":[1.0,1.0,1.0,1.0],"min":[0.0,0.0,0.0,1.0],"type":"VEC4"},{"bufferView":60,"componentType":5123,"count":66876,"max":[11353],"min":[0],"type":"SCALAR"},{"bufferView":61,"componentType":5126,"count":11354,"max":[0.028952667489647865,0.04062318801879883,0.014203297905623913],"min":[-0.028952667489647865,-0.0985536053776741,-0.01025900337845087],"type":"VEC3"},{"bufferView":62,"componentType":5126,"count":11354,"max":[1.0,1.0,0.9999996423721313],"min":[-1.0,-1.0,-0.9999996423721313],"type":"VEC3"},{"bufferView":63,"componentType":5126,"count":11354,"max":[1.0,0.5141028761863708,0.014214569702744484,1.0],"min":[0.8577284812927246,-0.5141029357910156,-0.013513073325157166,-1.0],"type":"VEC4"},{"bufferView":64,"componentType":5126,"count":11354,"max":[0.9999033212661743,1.007439374923706],"min":[9.669153951108456e-05,0.035701632499694824],"type":"VEC2"},{"bufferView":65,"componentType":5126,"count":11354,"max":[1.0,1.0,1.0,1.0],"min":[0.0,0.0,0.0,1.0],"type":"VEC4"},{"bufferView":66,"componentType":5123,"count":67404,"max":[12057],"min":[0],"type":"SCALAR"},{"bufferView":67,"componentType":5126,"count":12058,"max":[0.028952667489647865,0.04062318801879883,0.014203297905623913],"min":[-0.028952667489647865,-0.0985536053776741,-0.01025900337845087],"type":"VEC3"},{"bufferView":68,"componentType":5126,"count":12058,"max":[1.0,1.0,0.9999996423721313],"min":[-1.0,-1.0,-0.9999996423721313],"type":"VEC3"},{"bufferView":69,"componentType":5126,"count":12058,"max":[1.0,0.5141028761863708,0.01407666690647602,1.0],"min":[0.8577284812927246,-0.5141029357910156,-0.014770583249628544,-1.0],"type":"VEC4"},{"bufferView":70,"componentType":5126,"count":12058,"max":[0.9999033212661743,0.9908634424209595],"min":[9.66787338256836e-05,0.03206467628479004],"type":"VEC2"},{"bufferView":71,"componentType":5126,"count":12058,"max":[1.0,1.0,1.0,1.0],"min":[0.0,0.0,0.0,1.0],"type":"VEC4"},{"bufferView":72,"componentType":5123,"count":64284,"max":[10879],"min":[0],"type":"SCALAR"},{"bufferView":73,"componentType":5126,"count":10880,"max":[0.028899718075990677,0.04062318801879883,0.014203297905623913],"min":[-0.028899718075990677,-0.09845360368490219,-0.01025900337845087],"type":"VEC3"},{"bufferView":74,"componentType":5126,"count":10880,"max":[1.0,1.0,1.0],"min":[-1.0,-1.0,-1.0],"type":"VEC3"},{"bufferView":75,"componentType":5126,"count":10880,"max":[1.0,0.5141041278839111,0.0011840621009469032,1.0],"min":[0.8577278256416321,-0.5141041278839111,-0.001184716820716858,-1.0],"type":"VEC4"},{"bufferView":76,"componentType":5126,"count":10880,"max":[0.9999049305915833,1.0024921894073486],"min":[9.500980377197266e-05,0.056997060775756836],"type":"VEC2"},{"bufferView":77,"componentType":5126,"count":10880,"max":[1.0,1.0,1.0,1.0],"min":[0.0,0.0,0.0,1.0],"type":"VEC4"},{"bufferView":78,"componentType":5123,"count":71796,"max":[12713],"min":[0],"type":"SCALAR"},{"bufferView":79,"componentType":5126,"count":12714,"max":[0.028899718075990677,0.04062318801879883,0.014203297905623913],"min":[-0.028899718075990677,-0.09845360368490219,-0.01025900337845087],"type":"VEC3"},{"bufferView":80,"componentType":5126,"count":12714,"max":[1.0,1.0,1.0],"min":[-1.0,-1.0,-1.0],"type":"VEC3"},{"bufferView":81,"componentType":5126,"count":12714,"max":[1.0,0.5141041278839111,0.0011885507265105844,1.0],"min":[0.8577278256416321,-0.5141041278839111,-0.0011885517742484808,-1.0],"type":"VEC4"},{"bufferView":82,"componentType":5126,"count":12714,"max":[0.999904990196228,0.9770201444625854],"min":[9.501206659479067e-05,0.04608672857284546],"type":"VEC2"},{"bufferView":83,"componentType":5126,"count":12714,"max":[1.0,1.0,1.0,1.0],"min":[0.0,0.0,0.0,1.0],"type":"VEC4"},{"bufferView":84,"componentType":5123,"count":64236,"max":[15533],"min":[0],"type":"SCALAR"},{"bufferView":85,"componentType":5126,"count":15534,"max":[0.029363753274083138,0.04062318801879883,0.014203297905623913],"min":[-0.029363753274083138,-0.09845360368490219,-0.01025900337845087],"type":"VEC3"},{"bufferView":86,"componentType":5126,"count":15534,"max":[1.0,1.0,1.0],"min":[-1.0,-1.0,-1.0],"type":"VEC3"},{"bufferView":87,"componentType":5126,"count":15534,"max":[1.0,1.0,0.9607704877853394,1.0],"min":[-1.0,-1.0,-0.9791094660758972,-1.0],"type":"VEC4"},{"bufferView":88,"componentType":5126,"count":15534,"max":[1.0000007152557373,1.0027353763580322],"min":[-5.168116672393808e-07,0.1742492914199829],"type":"VEC2"},{"bufferView":89,"componentType":5126,"count":15534,"max":[1.0,1.0,1.0,1.0],"min":[0.0,0.0,0.0,1.0],"type":"VEC4"},{"bufferView":90,"componentType":5123,"count":68820,"max":[17571],"min":[0],"type":"SCALAR"},{"bufferView":91,"componentType":5126,"count":17572,"max":[0.029363753274083138,0.04062318801879883,0.014203297905623913],"min":[-0.029363753274083138,-0.09845360368490219,-0.01025900337845087],"type":"VEC3"},{"bufferView":92,"componentType":5126,"count":17572,"max":[1.0,1.0,1.0],"min":[-1.0,-1.0,-1.0],"type":"VEC3"},{"bufferView":93,"componentType":5126,"count":17572,"max":[1.0,1.0,0.9995465278625488,1.0],"min":[-0.9997954964637756,-1.0,-0.9999789595603943,-1.0],"type":"VEC4"},{"bufferView":94,"componentType":5126,"count":17572,"max":[0.9999176263809204,0.9877814054489136],"min":[8.237361907958984e-05,0.16162621974945068],"type":"VEC2"},{"bufferView":95,"componentType":5126,"count":17572,"max":[1.0,1.0,1.0,1.0],"min":[0.0,0.0,0.0,1.0],"type":"VEC4"}],"asset":{"generator":"Verge3D for Blender v4.6.0","version":"2.0"},"bufferViews":[{"buffer":0,"byteLength":2088,"byteOffset":0,"target":34963},{"buffer":0,"byteLength":11808,"byteOffset":2088,"target":34962},{"buffer":0,"byteLength":11808,"byteOffset":13896,"target":34962},{"buffer":0,"byteLength":8448,"byteOffset":25704,"target":34963},{"buffer":0,"byteLength":42240,"byteOffset":34152,"target":34962},{"buffer":0,"byteLength":42240,"byteOffset":76392,"target":34962},{"buffer":0,"byteLength":8448,"byteOffset":118632,"target":34963},{"buffer":0,"byteLength":42240,"byteOffset":127080,"target":34962},{"buffer":0,"byteLength":42240,"byteOffset":169320,"target":34962},{"buffer":0,"byteLength":8448,"byteOffset":211560,"target":34963},{"buffer":0,"byteLength":42240,"byteOffset":220008,"target":34962},{"buffer":0,"byteLength":42240,"byteOffset":262248,"target":34962},{"buffer":0,"byteLength":8448,"byteOffset":304488,"target":34963},{"buffer":0,"byteLength":42240,"byteOffset":312936,"target":34962},{"buffer":0,"byteLength":42240,"byteOffset":355176,"target":34962},{"buffer":0,"byteLength":8448,"byteOffset":397416,"target":34963},{"buffer":0,"byteLength":42240,"byteOffset":405864,"target":34962},{"buffer":0,"byteLength":42240,"byteOffset":448104,"target":34962},{"buffer":0,"byteLength":1572,"byteOffset":490344,"target":34963},{"buffer":0,"byteLength":5904,"byteOffset":491916,"target":34962},{"buffer":0,"byteLength":5904,"byteOffset":497820,"target":34962},{"buffer":0,"byteLength":8184,"byteOffset":503724,"target":34963},{"buffer":0,"byteLength":38016,"byteOffset":511908,"target":34962},{"buffer":0,"byteLength":38016,"byteOffset":549924,"target":34962},{"buffer":0,"byteLength":8184,"byteOffset":587940,"target":34963},{"buffer":0,"byteLength":38016,"byteOffset":596124,"target":34962},{"buffer":0,"byteLength":38016,"byteOffset":634140,"target":34962},{"buffer":0,"byteLength":8184,"byteOffset":672156,"target":34963},{"buffer":0,"byteLength":38016,"byteOffset":680340,"target":34962},{"buffer":0,"byteLength":38016,"byteOffset":718356,"target":34962},{"buffer":0,"byteLength":8184,"byteOffset":756372,"target":34963},{"buffer":0,"byteLength":38016,"byteOffset":764556,"target":34962},{"buffer":0,"byteLength":38016,"byteOffset":802572,"target":34962},{"buffer":0,"byteLength":8184,"byteOffset":840588,"target":34963},{"buffer":0,"byteLength":38016,"byteOffset":848772,"target":34962},{"buffer":0,"byteLength":38016,"byteOffset":886788,"target":34962},{"buffer":0,"byteLength":128928,"byteOffset":924804,"target":34963},{"buffer":0,"byteLength":132504,"byteOffset":1053732,"target":34962},{"buffer":0,"byteLength":132504,"byteOffset":1186236,"target":34962},{"buffer":0,"byteLength":176672,"byteOffset":1318740,"target":34962},{"buffer":0,"byteLength":88336,"byteOffset":1495412,"target":34962},{"buffer":0,"byteLength":176672,"byteOffset":1583748,"target":34962},{"buffer":0,"byteLength":153432,"byteOffset":1760420,"target":34963},{"buffer":0,"byteLength":165864,"byteOffset":1913852,"target":34962},{"buffer":0,"byteLength":165864,"byteOffset":2079716,"target":34962},{"buffer":0,"byteLength":221152,"byteOffset":2245580,"target":34962},{"buffer":0,"byteLength":110576,"byteOffset":2466732,"target":34962},{"buffer":0,"byteLength":221152,"byteOffset":2577308,"target":34962},{"buffer":0,"byteLength":111912,"byteOffset":2798460,"target":34963},{"buffer":0,"byteLength":114312,"byteOffset":2910372,"target":34962},{"buffer":0,"byteLength":114312,"byteOffset":3024684,"target":34962},{"buffer":0,"byteLength":152416,"byteOffset":3138996,"target":34962},{"buffer":0,"byteLength":76208,"byteOffset":3291412,"target":34962},{"buffer":0,"byteLength":152416,"byteOffset":3367620,"target":34962},{"buffer":0,"byteLength":140088,"byteOffset":3520036,"target":34963},{"buffer":0,"byteLength":155832,"byteOffset":3660124,"target":34962},{"buffer":0,"byteLength":155832,"byteOffset":3815956,"target":34962},{"buffer":0,"byteLength":207776,"byteOffset":3971788,"target":34962},{"buffer":0,"byteLength":103888,"byteOffset":4179564,"target":34962},{"buffer":0,"byteLength":207776,"byteOffset":4283452,"target":34962},{"buffer":0,"byteLength":133752,"byteOffset":4491228,"target":34963},{"buffer":0,"byteLength":136248,"byteOffset":4624980,"target":34962},{"buffer":0,"byteLength":136248,"byteOffset":4761228,"target":34962},{"buffer":0,"byteLength":181664,"byteOffset":4897476,"target":34962},{"buffer":0,"byteLength":90832,"byteOffset":5079140,"target":34962},{"buffer":0,"byteLength":181664,"byteOffset":5169972,"target":34962},{"buffer":0,"byteLength":134808,"byteOffset":5351636,"target":34963},{"buffer":0,"byteLength":144696,"byteOffset":5486444,"target":34962},{"buffer":0,"byteLength":144696,"byteOffset":5631140,"target":34962},{"buffer":0,"byteLength":192928,"byteOffset":5775836,"target":34962},{"buffer":0,"byteLength":96464,"byteOffset":5968764,"target":34962},{"buffer":0,"byteLength":192928,"byteOffset":6065228,"target":34962},{"buffer":0,"byteLength":128568,"byteOffset":6258156,"target":34963},{"buffer":0,"byteLength":130560,"byteOffset":6386724,"target":34962},{"buffer":0,"byteLength":130560,"byteOffset":6517284,"target":34962},{"buffer":0,"byteLength":174080,"byteOffset":6647844,"target":34962},{"buffer":0,"byteLength":87040,"byteOffset":6821924,"target":34962},{"buffer":0,"byteLength":174080,"byteOffset":6908964,"target":34962},{"buffer":0,"byteLength":143592,"byteOffset":7083044,"target":34963},{"buffer":0,"byteLength":152568,"byteOffset":7226636,"target":34962},{"buffer":0,"byteLength":152568,"byteOffset":7379204,"target":34962},{"buffer":0,"byteLength":203424,"byteOffset":7531772,"target":34962},{"buffer":0,"byteLength":101712,"byteOffset":7735196,"target":34962},{"buffer":0,"byteLength":203424,"byteOffset":7836908,"target":34962},{"buffer":0,"byteLength":128472,"byteOffset":8040332,"target":34963},{"buffer":0,"byteLength":186408,"byteOffset":8168804,"target":34962},{"buffer":0,"byteLength":186408,"byteOffset":8355212,"target":34962},{"buffer":0,"byteLength":248544,"byteOffset":8541620,"target":34962},{"buffer":0,"byteLength":124272,"byteOffset":8790164,"target":34962},{"buffer":0,"byteLength":248544,"byteOffset":8914436,"target":34962},{"buffer":0,"byteLength":137640,"byteOffset":9162980,"target":34963},{"buffer":0,"byteLength":210864,"byteOffset":9300620,"target":34962},{"buffer":0,"byteLength":210864,"byteOffset":9511484,"target":34962},{"buffer":0,"byteLength":281152,"byteOffset":9722348,"target":34962},{"buffer":0,"byteLength":140576,"byteOffset":10003500,"target":34962},{"buffer":0,"byteLength":281152,"byteOffset":10144076,"target":34962}],"buffers":[{"byteLength":10425228,"uri":"gem_7.bin"}],"cameras":[{"extensions":{"S8S_v3d_camera":{"controls":"ORBIT","enablePan":true,"moveSpeed":1,"orbitMaxDistance":10000,"orbitMaxPolarAngle":3.141592653589793,"orbitMinDistance":0,"orbitMinPolarAngle":0,"orbitTarget":[0.002543465234339237,0.007418340537697077,-0.0011450059246271849],"rotateSpeed":1,"viewportFitInitialAspect":1,"viewportFitType":"VERTICAL"}},"name":"__DEFAULT__","perspective":{"aspectRatio":1,"yfov":0.7853981633974483,"zfar":5.0,"znear":0.0010000000474974513},"type":"perspective"}],"extensions":{"S8S_v3d_materials":{"nodeGraphs":[{"edges":[{"fromNode":4,"fromOutput":0,"toInput":0,"toNode":8},{"fromNode":4,"fromOutput":0,"toInput":0,"toNode":9},{"fromNode":4,"fromOutput":0,"toInput":0,"toNode":0},{"fromNode":2,"fromOutput":0,"toInput":1,"toNode":0},{"fromNode":3,"fromOutput":0,"toInput":1,"toNode":8},{"fromNode":1,"fromOutput":0,"toInput":1,"toNode":9},{"fromNode":13,"fromOutput":0,"toInput":0,"toNode":2},{"fromNode":13,"fromOutput":0,"toInput":2,"toNode":1},{"fromNode":13,"fromOutput":0,"toInput":1,"toNode":3},{"fromNode":14,"fromOutput":1,"toInput":0,"toNode":4},{"fromNode":0,"fromOutput":0,"toInput":4,"toNode":6},{"fromNode":8,"fromOutput":0,"toInput":4,"toNode":7},{"fromNode":9,"fromOutput":0,"toInput":4,"toNode":11},{"fromNode":6,"fromOutput":0,"toInput":0,"toNode":10},{"fromNode":7,"fromOutput":0,"toInput":1,"toNode":10},{"fromNode":10,"fromOutput":0,"toInput":0,"toNode":12},{"fromNode":11,"fromOutput":0,"toInput":1,"toNode":12},{"fromNode":12,"fromOutput":0,"toInput":0,"toNode":5}],"name":"inner_gem_material","nodes":[{"inputs":[[0.5,0.5,0.5],[0.5,0.5,0.5],[0.0,0.0,0.0],1.0],"is_active_output":false,"name":"Vector Math.003","operation":"ADD","outputs":[[0.0,0.0,0.0],0.0],"type":"VECT_MATH_BL"},{"inputs":[0.0,0.0,0.09999999403953552],"is_active_output":false,"name":"Combine XYZ.002","outputs":[[0.0,0.0,0.0]],"type":"COMBXYZ_BL"},{"inputs":[0.09999999403953552,0.0,0.0],"is_active_output":false,"name":"Combine XYZ","outputs":[[0.0,0.0,0.0]],"type":"COMBXYZ_BL"},{"inputs":[0.0,0.09999999403953552,0.0],"is_active_output":false,"name":"Combine XYZ.001","outputs":[[0.0,0.0,0.0]],"type":"COMBXYZ_BL"},{"inputs":[[0.0,0.0,0.0]],"is_active_output":false,"name":"Reroute.001","outputs":[[0.0,0.0,0.0]],"type":"REROUTE_BL"},{"inputs":[[0,0,0,0]],"is_active_output":true,"name":"Group Output","outputs":[],"type":"GROUP_OUTPUT_BL"},{"inputs":[[1.0,0.0,0.0,1.0],0.10000000149011612,0.0,0.0,[0.0,0.0,0.0],[0.0,0.0,0.0]],"is_active_output":false,"name":"Glossy BSDF","outputs":[[0,0,0,0]],"type":"BSDF_GLOSSY_BL"},{"inputs":[[0.0,1.0,0.0,1.0],0.10000000149011612,0.0,0.0,[0.0,0.0,0.0],[0.0,0.0,0.0]],"is_active_output":false,"name":"Glossy BSDF.001","outputs":[[0,0,0,0]],"type":"BSDF_GLOSSY_BL"},{"inputs":[[0.5,0.5,0.5],[0.5,0.5,0.5],[0.0,0.0,0.0],1.0],"is_active_output":false,"name":"Vector Math.001","operation":"ADD","outputs":[[0.0,0.0,0.0],0.0],"type":"VECT_MATH_BL"},{"inputs":[[0.5,0.5,0.5],[0.5,0.5,0.5],[0.0,0.0,0.0],1.0],"is_active_output":false,"name":"Vector Math.002","operation":"ADD","outputs":[[0.0,0.0,0.0],0.0],"type":"VECT_MATH_BL"},{"inputs":[[0,0,0,0],[0,0,0,0]],"is_active_output":false,"name":"Add Shader","outputs":[[0,0,0,0]],"type":"ADD_SHADER_BL"},{"inputs":[[0.0,0.0,1.0,1.0],0.10000000149011612,0.0,0.0,[0.0,0.0,0.0],[0.0,0.0,0.0]],"is_active_output":false,"name":"Glossy BSDF.002","outputs":[[0,0,0,0]],"type":"BSDF_GLOSSY_BL"},{"inputs":[[0,0,0,0],[0,0,0,0]],"is_active_output":false,"name":"Add Shader.001","outputs":[[0,0,0,0]],"type":"ADD_SHADER_BL"},{"inputs":[],"is_active_output":false,"name":"Group Input","outputs":[0.0],"type":"GROUP_INPUT_BL"},{"inputs":[],"is_active_output":false,"name":"Geometry.001","outputs":[[0.0,0.0,0.0],[0.0,0.0,0.0],[0.0,0.0,0.0],[0.0,0.0,0.0],[0.0,0.0,0.0],[0.0,0.0,0.0],0.0,0.0,0.0],"type":"NEW_GEOMETRY_BL"}]},{"edges":[{"fromNode":18,"fromOutput":0,"toInput":0,"toNode":23},{"fromNode":13,"fromOutput":0,"toInput":1,"toNode":6},{"fromNode":22,"fromOutput":2,"toInput":0,"toNode":6},{"fromNode":23,"fromOutput":0,"toInput":0,"toNode":22},{"fromNode":10,"fromOutput":2,"toInput":0,"toNode":9},{"fromNode":9,"fromOutput":0,"toInput":0,"toNode":8},{"fromNode":12,"fromOutput":0,"toInput":1,"toNode":14},{"fromNode":11,"fromOutput":0,"toInput":0,"toNode":10},{"fromNode":8,"fromOutput":0,"toInput":0,"toNode":14},{"fromNode":18,"fromOutput":0,"toInput":0,"toNode":17},{"fromNode":17,"fromOutput":0,"toInput":1,"toNode":19},{"fromNode":7,"fromOutput":0,"toInput":2,"toNode":6},{"fromNode":20,"fromOutput":2,"toInput":4,"toNode":7},{"fromNode":16,"fromOutput":0,"toInput":0,"toNode":20},{"fromNode":21,"fromOutput":1,"toInput":6,"toNode":20},{"fromNode":19,"fromOutput":0,"toInput":7,"toNode":20},{"fromNode":6,"fromOutput":0,"toInput":2,"toNode":14},{"fromNode":14,"fromOutput":0,"toInput":0,"toNode":24},{"fromNode":15,"fromOutput":2,"toInput":1,"toNode":7},{"fromNode":3,"fromOutput":2,"toInput":0,"toNode":7},{"fromNode":20,"fromOutput":2,"toInput":1,"toNode":2},{"fromNode":2,"fromOutput":0,"toInput":0,"toNode":3},{"fromNode":20,"fromOutput":2,"toInput":1,"toNode":4},{"fromNode":5,"fromOutput":2,"toInput":6,"toNode":3},{"fromNode":4,"fromOutput":1,"toInput":0,"toNode":5},{"fromNode":15,"fromOutput":0,"toInput":6,"toNode":5},{"fromNode":15,"fromOutput":1,"toInput":7,"toNode":5}],"name":"metall_material","nodes":[{"inputs":[],"is_active_output":false,"name":"Frame","outputs":[],"type":"FRAME_BL"},{"inputs":[],"is_active_output":false,"name":"Frame.001","outputs":[],"type":"FRAME_BL"},{"inputs":[1.4500000476837158,[0.0,0.0,0.0]],"is_active_output":false,"name":"Fresnel","outputs":[0.0],"type":"FRESNEL_BL"},{"blendType":"MIX","clampFactor":true,"clampResult":false,"dataType":"RGBA","factorMode":"UNIFORM","inputs":[0.5,[0.5,0.5,0.5],0.0,0.0,[0.0,0.0,0.0],[0.0,0.0,0.0],[0.5,0.5,0.5,1.0],[0.6795570850372314,0.6795570850372314,0.6795570850372314,1.0],0,0],"is_active_output":false,"name":"Mix.002","outputs":[0.0,[0.0,0.0,0.0],[0.0,0.0,0.0,0.0],0],"type":"MIX_BL"},{"inputs":[0.5,[0.0,0.0,0.0]],"is_active_output":false,"name":"Layer Weight","outputs":[0.0,0.0],"type":"LAYER_WEIGHT_BL"},{"blendType":"MIX","clampFactor":true,"clampResult":false,"dataType":"RGBA","factorMode":"UNIFORM","inputs":[0.5,[0.5,0.5,0.5],0.0,0.0,[0.0,0.0,0.0],[0.0,0.0,0.0],[0.5,0.5,0.5,1.0],[0.5,0.5,0.5,1.0],0,0],"is_active_output":false,"name":"Mix.003","outputs":[0.0,[0.0,0.0,0.0],[0.0,0.0,0.0,0.0],0],"type":"MIX_BL"},{"inputs":[0.5,[0,0,0,0],[0,0,0,0]],"is_active_output":false,"name":"Mix Shader","outputs":[[0,0,0,0]],"type":"MIX_SHADER_BL"},{"inputs":[[0.6266327500343323,0.6266327500343323,0.6266327500343323,1.0],0.0,0.0,0.0,[0.0,0.0,0.0],[0.0,0.0,0.0]],"is_active_output":false,"name":"Glossy BSDF","outputs":[[0,0,0,0]],"type":"BSDF_GLOSSY_BL"},{"inputs":[0.5,23.39999771118164,0.5],"is_active_output":false,"name":"Math.001","operation":"MULTIPLY","outputs":[0.0],"type":"MATH_BL","useClamp":true},{"inputs":[0.5,0.07000000029802322,0.5],"is_active_output":false,"name":"Math","operation":"ADD","outputs":[0.0],"type":"MATH_BL","useClamp":false},{"inputs":[[0.800000011920929,0.800000011920929,0.800000011920929,1.0]],"is_active_output":false,"mode":"RGB","name":"Separate RGB","outputs":[0.0,0.0,0.0],"type":"SEPARATE_COLOR_BL"},{"inputs":[],"is_active_output":false,"name":"Geometry","outputs":[[0.0,0.0,0.0],[0.0,0.0,0.0],[0.0,0.0,0.0],[0.0,0.0,0.0],[0.0,0.0,0.0],[0.0,0.0,0.0],0.0,0.0,0.0],"type":"NEW_GEOMETRY_BL"},{"inputs":[[1.0,1.0,1.0,1.0],1.0],"is_active_output":false,"name":"Emission.001","outputs":[[0,0,0,0]],"type":"EMISSION_BL"},{"inputs":[[0.0,0.0,0.0,1.0],0.0,[0.0,0.0,0.0]],"is_active_output":false,"name":"Diffuse BSDF","outputs":[[0,0,0,0]],"type":"BSDF_DIFFUSE_BL"},{"inputs":[0.5,[0,0,0,0],[0,0,0,0]],"is_active_output":false,"name":"Mix Shader.001","outputs":[[0,0,0,0]],"type":"MIX_SHADER_BL"},{"inputs":[],"is_active_output":false,"name":"Group Input","outputs":[[0.0,0.0,0.0,1.0],[0.0,0.0,0.0,1.0],0.0],"type":"GROUP_INPUT_BL"},{"colorLayer":"engrave_mask","inputs":[],"is_active_output":false,"name":"Attribute","outputs":[[0.0,0.0,0.0,0.0],[0.0,0.0,0.0],0.0,0.0],"type":"ATTRIBUTE_BL"},{"alphaMode":"STRAIGHT","inputs":[[0.0,0.0,0.0]],"is_active_output":false,"name":"Image Texture.001","outputs":[[0.0,0.0,0.0,0.0],0.0],"projection":"FLAT","projectionBlend":0.0,"texture":1,"type":"TEX_IMAGE_BL"},{"inputs":[],"is_active_output":false,"name":"UV Map","outputs":[[0.0,0.0,0.0]],"type":"UVMAP_BL","uvLayer":"engrave"},{"inputs":[1.0,[0.5,0.5,1.0,1.0]],"is_active_output":false,"name":"Normal Map","outputs":[[0.0,0.0,0.0]],"type":"NORMAL_MAP_BL","uvLayer":"engrave"},{"blendType":"MIX","clampFactor":true,"clampResult":false,"dataType":"RGBA","factorMode":"UNIFORM","inputs":[0.5,[0.5,0.5,0.5],0.0,0.0,[0.0,0.0,0.0],[0.0,0.0,0.0],[0.5,0.5,0.5,1.0],[0.5,0.5,0.5,1.0],0,0],"is_active_output":false,"name":"Mix.001","outputs":[0.0,[0.0,0.0,0.0],[0.0,0.0,0.0,0.0],0],"type":"MIX_BL"},{"inputs":[],"is_active_output":false,"name":"Geometry.001","outputs":[[0.0,0.0,0.0],[0.0,0.0,0.0],[0.0,0.0,0.0],[0.0,0.0,0.0],[0.0,0.0,0.0],[0.0,0.0,0.0],0.0,0.0,0.0],"type":"NEW_GEOMETRY_BL"},{"blendType":"MIX","clampFactor":true,"clampResult":false,"dataType":"RGBA","factorMode":"UNIFORM","inputs":[0.5,[0.5,0.5,0.5],0.0,0.0,[0.0,0.0,0.0],[0.0,0.0,0.0],[0.7743505835533142,0.7743505835533142,0.7743505835533142,1.0],[1.0,1.0,1.0,1.0],0,0],"is_active_output":false,"name":"Mix","outputs":[0.0,[0.0,0.0,0.0],[0.0,0.0,0.0,0.0],0],"type":"MIX_BL"},{"alphaMode":"STRAIGHT","inputs":[[0.0,0.0,0.0]],"is_active_output":false,"name":"Image Texture","outputs":[[0.0,0.0,0.0,0.0],0.0],"projection":"FLAT","projectionBlend":0.0,"texture":2,"type":"TEX_IMAGE_BL"},{"inputs":[[0,0,0,0]],"is_active_output":true,"name":"Group Output","outputs":[],"type":"GROUP_OUTPUT_BL"}]},{"edges":[{"fromNode":1,"fromOutput":1,"toInput":1,"toNode":11},{"fromNode":7,"fromOutput":0,"toInput":0,"toNode":8},{"fromNode":8,"fromOutput":0,"toInput":0,"toNode":0},{"fromNode":1,"fromOutput":1,"toInput":1,"toNode":8},{"fromNode":0,"fromOutput":0,"toInput":0,"toNode":2},{"fromNode":4,"fromOutput":0,"toInput":1,"toNode":9},{"fromNode":9,"fromOutput":0,"toInput":0,"toNode":13},{"fromNode":10,"fromOutput":0,"toInput":2,"toNode":9},{"fromNode":11,"fromOutput":0,"toInput":0,"toNode":9},{"fromNode":2,"fromOutput":0,"toInput":6,"toNode":3},{"fromNode":3,"fromOutput":2,"toInput":6,"toNode":5},{"fromNode":12,"fromOutput":0,"toInput":7,"toNode":3},{"fromNode":5,"fromOutput":2,"toInput":0,"toNode":4},{"fromNode":12,"fromOutput":0,"toInput":0,"toNode":6},{"fromNode":6,"fromOutput":2,"toInput":7,"toNode":5}],"name":"outer_gem_material","nodes":[{"dispersionFactor":1.0,"falloffFactor":0.0,"inputs":[[0.0,0.0,0.0],0.0,1.8000000715255737,0.8999999761581421,0.5,2.0,0.0],"is_active_output":false,"name":"Noise Texture.001","outputs":[0.0,[0.0,0.0,0.0,0.0]],"type":"TEX_NOISE_BL"},{"inputs":[],"is_active_output":false,"name":"Geometry","outputs":[[0.0,0.0,0.0],[0.0,0.0,0.0],[0.0,0.0,0.0],[0.0,0.0,0.0],[0.0,0.0,0.0],[0.0,0.0,0.0],0.0,0.0,0.0],"type":"NEW_GEOMETRY_BL"},{"curve":{"input":[0.0,0.6272729635238647],"interpolation":"LINEAR","output":[0.28444889187812805,0.28444889187812805,0.28444889187812805,1.0,1.0,1.0,1.0,1.0]},"inputs":[0.5],"is_active_output":false,"name":"ColorRamp.001","outputs":[[0.0,0.0,0.0,0.0],0.0],"type":"VALTORGB_BL"},{"blendType":"COLOR","clampFactor":true,"clampResult":false,"dataType":"RGBA","factorMode":"UNIFORM","inputs":[1.0,[0.5,0.5,0.5],0.0,0.0,[0.0,0.0,0.0],[0.0,0.0,0.0],[0.5,0.5,0.5,1.0],[0.23454074561595917,0.49895036220550537,1.0,1.0],0,0],"is_active_output":false,"name":"Mix","outputs":[0.0,[0.0,0.0,0.0],[0.0,0.0,0.0,0.0],0],"type":"MIX_BL"},{"distribution":"BECKMANN","inputs":[[0.09989873319864273,0.004391442518681288,0.0,1.0],0.0,3.5,[0.0,0.0,0.0]],"is_active_output":false,"name":"Refraction BSDF","outputs":[[0,0,0,0]],"type":"BSDF_REFRACTION_BL"},{"blendType":"MULTIPLY","clampFactor":true,"clampResult":false,"dataType":"RGBA","factorMode":"UNIFORM","inputs":[1.0,[0.5,0.5,0.5],0.0,0.0,[0.0,0.0,0.0],[0.0,0.0,0.0],[0.5,0.5,0.5,1.0],[0.5,0.5,0.5,1.0],0,0],"is_active_output":false,"name":"Mix.001","outputs":[0.0,[0.0,0.0,0.0],[0.0,0.0,0.0,0.0],0],"type":"MIX_BL"},{"inputs":[[0.800000011920929,0.800000011920929,0.800000011920929,1.0]],"is_active_output":false,"mode":"HSV","name":"Separate HSV","outputs":[0.0,0.0,0.0],"type":"SEPARATE_COLOR_BL"},{"inputs":[],"is_active_output":false,"name":"Texture Coordinate","object":-1,"outputs":[[0.0,0.0,0.0],[0.0,0.0,0.0],[0.0,0.0,0.0],[0.0,0.0,0.0],[0.0,0.0,0.0],[0.0,0.0,0.0],[0.0,0.0,0.0]],"type":"TEX_COORD_BL"},{"inputs":[[0.5,0.5,0.5],[0.5,0.5,0.5],[0.0,0.0,0.0],1.0],"is_active_output":false,"name":"Vector Math","operation":"ADD","outputs":[[0.0,0.0,0.0],0.0],"type":"VECT_MATH_BL"},{"inputs":[0.5,[0,0,0,0],[0,0,0,0]],"is_active_output":false,"name":"Mix Shader","outputs":[[0,0,0,0]],"type":"MIX_SHADER_BL"},{"inputs":[[0.800000011920929,0.800000011920929,0.800000011920929,1.0],0.0,0.0,0.0,[0.0,0.0,0.0],[0.0,0.0,0.0]],"is_active_output":false,"name":"Glossy BSDF","outputs":[[0,0,0,0]],"type":"BSDF_GLOSSY_BL"},{"inputs":[2.499999523162842,[0.0,0.0,0.0]],"is_active_output":false,"name":"Fresnel","outputs":[0.0],"type":"FRESNEL_BL"},{"inputs":[],"is_active_output":false,"name":"Group Input","outputs":[[0.0,0.0,0.0,1.0]],"type":"GROUP_INPUT_BL"},{"inputs":[[0,0,0,0]],"is_active_output":true,"name":"Group Output","outputs":[],"type":"GROUP_OUTPUT_BL"}]}]}},"extensionsUsed":["S8S_v3d_texture","S8S_v3d_materials","S8S_v3d_camera","S8S_v3d_mesh","S8S_v3d_node","S8S_v3d_scene"],"images":[{"uri":"environment.hdr"},{"uri":"engrave_normal.jpg"},{"uri":"engrave_ao.jpg"}],"materials":[{"extensions":{"S8S_v3d_materials":{"gtaoVisible":true,"materialIndex":0,"nodeGraph":{"edges":[{"fromNode":2,"fromOutput":0,"toInput":0,"toNode":1},{"fromNode":0,"fromOutput":0,"toInput":0,"toNode":2}],"nodes":[{"inputs":[],"is_active_output":false,"name":"Value","outputs":[0.009999999776482582],"type":"VALUE_BL"},{"inputs":[[0,0,0,0],[0,0,0,0],[0.0,0.0,0.0],0.0],"is_active_output":true,"name":"Material Output","outputs":[],"type":"OUTPUT_MATERIAL_BL"},{"inputs":[0.0],"is_active_output":false,"name":"Group","nodeGraph":0,"outputs":[[0,0,0,0]],"type":"GROUP_BL"}]},"useCastShadows":true}},"name":"gem_inner"},{"extensions":{"S8S_v3d_materials":{"gtaoVisible":true,"materialIndex":0,"nodeGraph":{"edges":[{"fromNode":0,"fromOutput":0,"toInput":0,"toNode":2},{"fromNode":1,"fromOutput":0,"toInput":0,"toNode":0}],"nodes":[{"inputs":[[0.0,0.0,0.0,1.0]],"is_active_output":false,"name":"Group","nodeGraph":2,"outputs":[[0,0,0,0]],"type":"GROUP_BL"},{"inputs":[],"is_active_output":false,"name":"gem_color","outputs":[[0.800000011920929,0.800000011920929,0.800000011920929,1.0]],"type":"RGB_BL"},{"inputs":[[0,0,0,0],[0,0,0,0],[0.0,0.0,0.0],0.0],"is_active_output":true,"name":"Material Output","outputs":[],"type":"OUTPUT_MATERIAL_BL"}]},"useCastShadows":true}},"name":"gem_outer"},{"extensions":{"S8S_v3d_materials":{"gtaoVisible":true,"materialIndex":0,"nodeGraph":{"edges":[{"fromNode":4,"fromOutput":0,"toInput":0,"toNode":3},{"fromNode":1,"fromOutput":0,"toInput":1,"toNode":4},{"fromNode":0,"fromOutput":0,"toInput":0,"toNode":4},{"fromNode":2,"fromOutput":0,"toInput":2,"toNode":4}],"nodes":[{"inputs":[],"is_active_output":false,"name":"metall_color_1","outputs":[[0.7293471693992615,0.7293471693992615,0.7293471693992615,1.0]],"type":"RGB_BL"},{"inputs":[],"is_active_output":false,"name":"metall_color_2","outputs":[[0.5382355451583862,0.5382355451583862,0.5382355451583862,1.0]],"type":"RGB_BL"},{"inputs":[],"is_active_output":false,"name":"metall_roughness","outputs":[0.0],"type":"VALUE_BL"},{"inputs":[[0,0,0,0],[0,0,0,0],[0.0,0.0,0.0],0.0],"is_active_output":true,"name":"Material Output","outputs":[],"type":"OUTPUT_MATERIAL_BL"},{"inputs":[[0.0,0.0,0.0,1.0],[0.0,0.0,0.0,1.0],0.0],"is_active_output":false,"name":"Group","nodeGraph":1,"outputs":[[0,0,0,0]],"type":"GROUP_BL"}]},"useCastShadows":true}},"name":"metall"},{"extensions":{"S8S_v3d_materials":{"gtaoVisible":true,"materialIndex":0,"nodeGraph":{"edges":[{"fromNode":2,"fromOutput":0,"toInput":0,"toNode":0},{"fromNode":4,"fromOutput":0,"toInput":6,"toNode":3},{"fromNode":1,"fromOutput":0,"toInput":0,"toNode":3},{"fromNode":3,"fromOutput":2,"toInput":0,"toNode":2}],"nodes":[{"inputs":[[0,0,0,0],[0,0,0,0]],"is_active_output":true,"name":"World Output","outputs":[],"type":"OUTPUT_WORLD_BL"},{"inputs":[],"is_active_output":false,"name":"Light Path","outputs":[0.0,0.0,0.0,0.0,0.0,0.0,0.0,0.0,0.0,0.0,0.0,0.0,0.0],"type":"LIGHT_PATH_BL"},{"inputs":[[1.0,1.0,1.0,1.0],1.0000001192092896],"is_active_output":false,"name":"Background","outputs":[[0,0,0,0]],"type":"BACKGROUND_BL"},{"blendType":"MIX","clampFactor":true,"clampResult":false,"dataType":"RGBA","factorMode":"UNIFORM","inputs":[0.5,[0.5,0.5,0.5],0.0,0.0,[0.0,0.0,0.0],[0.0,0.0,0.0],[0.5,0.5,0.5,1.0],[1.0,1.0,1.0,1.0],0,0],"is_active_output":false,"name":"Mix","outputs":[0.0,[0.0,0.0,0.0],[0.0,0.0,0.0,0.0],0],"type":"MIX_BL"},{"inputs":[[0.0,0.0,0.0]],"is_active_output":false,"name":"Environment Texture","outputs":[[0.0,0.0,0.0,0.0]],"projection":"EQUIRECTANGULAR","texture":0,"type":"TEX_ENVIRONMENT_BL"}]},"useCastShadows":true}},"name":"Verge3D_Environment_World"}],"meshes":[{"extensions":{"S8S_v3d_mesh":{"colorLayers":{},"uvLayers":{}}},"name":"gem_7_inside","primitives":[{"attributes":{"NORMAL":2,"POSITION":1},"indices":0,"material":0,"mode":4}]},{"extensions":{"S8S_v3d_mesh":{"colorLayers":{},"uvLayers":{}}},"name":"gem_7_inside_1.001","primitives":[{"attributes":{"NORMAL":5,"POSITION":4},"indices":3,"material":0,"mode":4}]},{"extensions":{"S8S_v3d_mesh":{"colorLayers":{},"uvLayers":{}}},"name":"gem_7_inside_1.003","primitives":[{"attributes":{"NORMAL":8,"POSITION":7},"indices":6,"material":0,"mode":4}]},{"extensions":{"S8S_v3d_mesh":{"colorLayers":{},"uvLayers":{}}},"name":"gem_7_inside_1.005","primitives":[{"attributes":{"NORMAL":11,"POSITION":10},"indices":9,"material":0,"mode":4}]},{"extensions":{"S8S_v3d_mesh":{"colorLayers":{},"uvLayers":{}}},"name":"gem_7_inside_1.007","primitives":[{"attributes":{"NORMAL":14,"POSITION":13},"indices":12,"material":0,"mode":4}]},{"extensions":{"S8S_v3d_mesh":{"colorLayers":{},"uvLayers":{}}},"name":"gem_7_inside_1.009","primitives":[{"attributes":{"NORMAL":17,"POSITION":16},"indices":15,"material":0,"mode":4}]},{"extensions":{"S8S_v3d_mesh":{"colorLayers":{},"uvLayers":{}}},"name":"gem_7_outside","primitives":[{"attributes":{"NORMAL":20,"POSITION":19},"indices":18,"material":1,"mode":4}]},{"extensions":{"S8S_v3d_mesh":{"colorLayers":{},"uvLayers":{}}},"name":"gem_7_outside_1.001","primitives":[{"attributes":{"NORMAL":23,"POSITION":22},"indices":21,"material":1,"mode":4}]},{"extensions":{"S8S_v3d_mesh":{"colorLayers":{},"uvLayers":{}}},"name":"gem_7_outside_1.003","primitives":[{"attributes":{"NORMAL":26,"POSITION":25},"indices":24,"material":1,"mode":4}]},{"extensions":{"S8S_v3d_mesh":{"colorLayers":{},"uvLayers":{}}},"name":"gem_7_outside_1.005","primitives":[{"attributes":{"NORMAL":29,"POSITION":28},"indices":27,"material":1,"mode":4}]},{"extensions":{"S8S_v3d_mesh":{"colorLayers":{},"uvLayers":{}}},"name":"gem_7_outside_1.007","primitives":[{"attributes":{"NORMAL":32,"POSITION":31},"indices":30,"material":1,"mode":4}]},{"extensions":{"S8S_v3d_mesh":{"colorLayers":{},"uvLayers":{}}},"name":"gem_7_outside_1.009","primitives":[{"attributes":{"NORMAL":35,"POSITION":34},"indices":33,"material":1,"mode":4}]},{"extensions":{"S8S_v3d_mesh":{"colorLayers":{"engrave_mask":"COLOR_0"},"uvLayers":{"engrave":"TEXCOORD_0"}}},"name":"ring_type_1_gem_7_curve_0_line_0","primitives":[{"attributes":{"COLOR_0":41,"NORMAL":38,"POSITION":37,"TANGENT":39,"TEXCOORD_0":40},"indices":36,"material":2,"mode":4}]},{"extensions":{"S8S_v3d_mesh":{"colorLayers":{"engrave_mask":"COLOR_0"},"uvLayers":{"engrave":"TEXCOORD_0"}}},"name":"ring_type_1_gem_7_curve_0_line_1","primitives":[{"attributes":{"COLOR_0":47,"NORMAL":44,"POSITION":43,"TANGENT":45,"TEXCOORD_0":46},"indices":42,"material":2,"mode":4}]},{"extensions":{"S8S_v3d_mesh":{"colorLayers":{"engrave_mask":"COLOR_0"},"uvLayers":{"engrave":"TEXCOORD_0"}}},"name":"ring_type_2_gem_7_curve_0_line_0","primitives":[{"attributes":{"COLOR_0":53,"NORMAL":50,"POSITION":49,"TANGENT":51,"TEXCOORD_0":52},"indices":48,"material":2,"mode":4}]},{"extensions":{"S8S_v3d_mesh":{"colorLayers":{"engrave_mask":"COLOR_0"},"uvLayers":{"engrave":"TEXCOORD_0"}}},"name":"ring_type_2_gem_7_curve_0_line_1","primitives":[{"attributes":{"COLOR_0":59,"NORMAL":56,"POSITION":55,"TANGENT":57,"TEXCOORD_0":58},"indices":54,"material":2,"mode":4}]},{"extensions":{"S8S_v3d_mesh":{"colorLayers":{"engrave_mask":"COLOR_0"},"uvLayers":{"engrave":"TEXCOORD_0"}}},"name":"ring_type_3_gem_7_curve_0_line_0","primitives":[{"attributes":{"COLOR_0":65,"NORMAL":62,"POSITION":61,"TANGENT":63,"TEXCOORD_0":64},"indices":60,"material":2,"mode":4}]},{"extensions":{"S8S_v3d_mesh":{"colorLayers":{"engrave_mask":"COLOR_0"},"uvLayers":{"engrave":"TEXCOORD_0"}}},"name":"ring_type_3_gem_7_curve_0_line_1","primitives":[{"attributes":{"COLOR_0":71,"NORMAL":68,"POSITION":67,"TANGENT":69,"TEXCOORD_0":70},"indices":66,"material":2,"mode":4}]},{"extensions":{"S8S_v3d_mesh":{"colorLayers":{"engrave_mask":"COLOR_0"},"uvLayers":{"engrave":"TEXCOORD_0"}}},"name":"ring_type_4_gem_7_curve_0_line_0","primitives":[{"attributes":{"COLOR_0":77,"NORMAL":74,"POSITION":73,"TANGENT":75,"TEXCOORD_0":76},"indices":72,"material":2,"mode":4}]},{"extensions":{"S8S_v3d_mesh":{"colorLayers":{"engrave_mask":"COLOR_0"},"uvLayers":{"engrave":"TEXCOORD_0"}}},"name":"ring_type_4_gem_7_curve_0_line_1","primitives":[{"attributes":{"COLOR_0":83,"NORMAL":80,"POSITION":79,"TANGENT":81,"TEXCOORD_0":82},"indices":78,"material":2,"mode":4}]},{"extensions":{"S8S_v3d_mesh":{"colorLayers":{"engrave_mask":"COLOR_0"},"uvLayers":{"engrave":"TEXCOORD_0"}}},"name":"ring_type_5_gem_7_curve_0_line_0","primitives":[{"attributes":{"COLOR_0":89,"NORMAL":86,"POSITION":85,"TANGENT":87,"TEXCOORD_0":88},"indices":84,"material":2,"mode":4}]},{"extensions":{"S8S_v3d_mesh":{"colorLayers":{"engrave_mask":"COLOR_0"},"uvLayers":{"engrave":"TEXCOORD_0"}}},"name":"ring_type_5_gem_7_curve_0_line_1","primitives":[{"attributes":{"COLOR_0":95,"NORMAL":92,"POSITION":91,"TANGENT":93,"TEXCOORD_0":94},"indices":90,"material":2,"mode":4}]}],"nodes":[{"children":[41,22],"extensions":{"S8S_v3d_node":{"frustumCulling":true,"groupNames":["gem_7_line_0"],"hidden":true,"hidpiCompositing":false,"objectColor":[1.0,1.0,1.0,1.0],"objectIndex":0,"renderOrder":0,"useShadows":true}},"mesh":20,"name":"ring_type_5_gem_7_curve_0_line_0","translation":[0.0,2.9999999242136255e-05,-0.0]},{"children":[39,17],"extensions":{"S8S_v3d_node":{"frustumCulling":true,"groupNames":["gem_7_line_0"],"hidden":true,"hidpiCompositing":false,"objectColor":[1.0,1.0,1.0,1.0],"objectIndex":0,"renderOrder":0,"useShadows":true}},"mesh":16,"name":"ring_type_3_gem_7_curve_0_line_0","translation":[0.0,7.999999797903001e-05,-0.0]},{"extensions":{"S8S_v3d_node":{"frustumCulling":true,"groupNames":["gem_7_line_0"],"hidden":true,"hidpiCompositing":false,"objectColor":[1.0,1.0,1.0,1.0],"objectIndex":0,"renderOrder":0,"useShadows":true}},"mesh":6,"name":"gem_type_1_gem_7_curve_0_line_0_outside","translation":[0.0,0.03812466561794281,-0.10000000149011612]},{"children":[2],"name":"v3d_Proxy_Node_0_gem_type_1_gem_7_curve_0_line_0_outside","translation":[-0.0,-0.0,0.10000000149011612]},{"children":[24,3],"extensions":{"S8S_v3d_node":{"frustumCulling":true,"groupNames":["gem_7_line_0"],"hidden":true,"hidpiCompositing":false,"objectColor":[1.0,1.0,1.0,1.0],"objectIndex":0,"renderOrder":0,"useShadows":true}},"mesh":12,"name":"ring_type_1_gem_7_curve_0_line_0","translation":[0.0,1.4999999621068127e-05,-0.0]},{"extensions":{"S8S_v3d_node":{"frustumCulling":true,"groupNames":["gem_7_line_0"],"hidden":true,"hidpiCompositing":false,"objectColor":[1.0,1.0,1.0,1.0],"objectIndex":0,"renderOrder":0,"useShadows":true}},"mesh":0,"name":"gem_type_4_gem_7_curve_0_line_0_inside","translation":[0.0,0.03812466561794281,0.05000000074505806]},{"children":[5],"name":"v3d_Proxy_Node_0_gem_type_4_gem_7_curve_0_line_0_inside","translation":[-0.0,-0.0,-0.05000000074505806]},{"extensions":{"S8S_v3d_node":{"frustumCulling":true,"groupNames":["gem_7_line_1"],"hidden":true,"hidpiCompositing":false,"objectColor":[1.0,1.0,1.0,1.0],"objectIndex":0,"renderOrder":0,"useShadows":true}},"mesh":6,"name":"gem_type_2_gem_7_curve_0_line_1_outside","translation":[0.10000000149011612,0.03812466561794281,-0.05000000074505806]},{"children":[7],"name":"v3d_Proxy_Node_0_gem_type_2_gem_7_curve_0_line_1_outside","translation":[-0.10000000149011612,-0.0,0.05000000074505806]},{"extensions":{"S8S_v3d_node":{"frustumCulling":true,"groupNames":["gem_7_line_1"],"hidden":true,"hidpiCompositing":false,"objectColor":[1.0,1.0,1.0,1.0],"objectIndex":0,"renderOrder":0,"useShadows":true}},"mesh":6,"name":"gem_type_4_gem_7_curve_0_line_1_outside","translation":[0.10000000149011612,0.03812466561794281,0.05000000074505806]},{"children":[9],"name":"v3d_Proxy_Node_0_gem_type_4_gem_7_curve_0_line_1_outside","translation":[-0.10000000149011612,-0.0,-0.05000000074505806]},{"extensions":{"S8S_v3d_node":{"frustumCulling":true,"groupNames":["gem_7_line_1"],"hidden":true,"hidpiCompositing":false,"objectColor":[1.0,1.0,1.0,1.0],"objectIndex":0,"renderOrder":0,"useShadows":true}},"mesh":1,"name":"gem_type_1_gem_7_curve_0_line_1_inside_1","rotation":[1.9470718370939721e-07,1.6292068494294654e-07,-1.0,1.7478846739112444e-14],"translation":[0.09999999403953552,0.021443886682391167,-0.10000000149011612]},{"children":[11],"name":"v3d_Proxy_Node_0_gem_type_1_gem_7_curve_0_line_1_inside_1","translation":[-0.10000000149011612,-0.0,0.10000000149011612]},{"extensions":{"S8S_v3d_node":{"frustumCulling":true,"groupNames":["gem_7_line_1"],"hidden":true,"hidpiCompositing":false,"objectColor":[1.0,1.0,1.0,1.0],"objectIndex":0,"renderOrder":0,"useShadows":true}},"mesh":0,"name":"gem_type_3_gem_7_curve_0_line_1_inside","translation":[0.10000000149011612,0.03812466561794281,-0.0]},{"children":[13],"name":"v3d_Proxy_Node_0_gem_type_3_gem_7_curve_0_line_1_inside","translation":[-0.10000000149011612,-0.0,-0.0]},{"extensions":{"S8S_v3d_node":{"frustumCulling":true,"groupNames":["gem_7_line_1"],"hidden":true,"hidpiCompositing":false,"objectColor":[1.0,1.0,1.0,1.0],"objectIndex":0,"renderOrder":0,"useShadows":true}},"mesh":0,"name":"gem_type_5_gem_7_curve_0_line_1_inside","translation":[0.10000000149011612,0.03812466561794281,0.10000000149011612]},{"children":[15],"name":"v3d_Proxy_Node_0_gem_type_5_gem_7_curve_0_line_1_inside","translation":[-0.10000000149011612,-0.0,-0.10000000149011612]},{"extensions":{"S8S_v3d_node":{"frustumCulling":true,"groupNames":["gem_7_line_0"],"hidden":true,"hidpiCompositing":false,"objectColor":[1.0,1.0,1.0,1.0],"objectIndex":0,"renderOrder":0,"useShadows":true}},"mesh":6,"name":"gem_type_3_gem_7_curve_0_line_0_outside","translation":[0.0,0.03812466561794281,-0.0]},{"extensions":{"S8S_v3d_node":{"frustumCulling":true,"groupNames":["gem_7_line_0"],"hidden":true,"hidpiCompositing":false,"objectColor":[1.0,1.0,1.0,1.0],"objectIndex":0,"renderOrder":0,"useShadows":true}},"mesh":0,"name":"gem_type_2_gem_7_curve_0_line_0_inside","translation":[0.0,0.03812466561794281,-0.05000000074505806]},{"children":[18],"name":"v3d_Proxy_Node_0_gem_type_2_gem_7_curve_0_line_0_inside","translation":[-0.0,-0.0,0.05000000074505806]},{"children":[51,33,10,60],"extensions":{"S8S_v3d_node":{"frustumCulling":true,"groupNames":["gem_7_line_1"],"hidden":true,"hidpiCompositing":false,"objectColor":[1.0,1.0,1.0,1.0],"objectIndex":0,"renderOrder":0,"useShadows":true}},"mesh":19,"name":"ring_type_4_gem_7_curve_0_line_1","translation":[0.0,2.9999999242136255e-05,-0.0]},{"extensions":{"S8S_v3d_node":{"frustumCulling":true,"groupNames":["gem_7_line_0"],"hidden":true,"hidpiCompositing":false,"objectColor":[1.0,1.0,1.0,1.0],"objectIndex":0,"renderOrder":0,"useShadows":true}},"mesh":6,"name":"gem_type_5_gem_7_curve_0_line_0_outside","translation":[0.0,0.03812466561794281,0.10000000149011612]},{"children":[21],"name":"v3d_Proxy_Node_0_gem_type_5_gem_7_curve_0_line_0_outside","translation":[-0.0,-0.0,-0.10000000149011612]},{"extensions":{"S8S_v3d_node":{"frustumCulling":true,"groupNames":["gem_7_line_0"],"hidden":true,"hidpiCompositing":false,"objectColor":[1.0,1.0,1.0,1.0],"objectIndex":0,"renderOrder":0,"useShadows":true}},"mesh":0,"name":"gem_type_1_gem_7_curve_0_line_0_inside","translation":[0.0,0.03812466561794281,-0.10000000149011612]},{"children":[23],"name":"v3d_Proxy_Node_0_gem_type_1_gem_7_curve_0_line_0_inside","translation":[-0.0,-0.0,0.10000000149011612]},{"children":[49,31,8,62],"extensions":{"S8S_v3d_node":{"frustumCulling":true,"groupNames":["gem_7_line_1"],"hidden":true,"hidpiCompositing":false,"objectColor":[1.0,1.0,1.0,1.0],"objectIndex":0,"renderOrder":0,"useShadows":true}},"mesh":15,"name":"ring_type_2_gem_7_curve_0_line_1","translation":[0.0,0.0002500000118743628,-0.0]},{"extensions":{"S8S_v3d_node":{"frustumCulling":true,"groupNames":["gem_7_line_1"],"hidden":true,"hidpiCompositing":false,"objectColor":[1.0,1.0,1.0,1.0],"objectIndex":0,"renderOrder":0,"useShadows":true}},"mesh":7,"name":"gem_type_5_gem_7_curve_0_line_1_outside_1","rotation":[1.9470718370939721e-07,1.6292068494294654e-07,-1.0,1.7478846739112444e-14],"translation":[0.09999999403953552,0.020923128351569176,0.10000000149011612]},{"children":[26],"name":"v3d_Proxy_Node_0_gem_type_5_gem_7_curve_0_line_1_outside_1","translation":[-0.10000000149011612,-0.0,-0.10000000149011612]},{"extensions":{"S8S_v3d_node":{"frustumCulling":true,"groupNames":["gem_7_line_1"],"hidden":true,"hidpiCompositing":false,"objectColor":[1.0,1.0,1.0,1.0],"objectIndex":0,"renderOrder":0,"useShadows":true}},"mesh":9,"name":"gem_type_3_gem_7_curve_0_line_1_outside_1","rotation":[1.9470718370939721e-07,1.6292068494294654e-07,-1.0,1.7478846739112444e-14],"translation":[0.10000002384185791,0.021571405231952667,8.17797081253957e-06]},{"children":[28],"name":"v3d_Proxy_Node_0_gem_type_3_gem_7_curve_0_line_1_outside_1","translation":[-0.10000000149011612,-0.0,-0.0]},{"extensions":{"S8S_v3d_node":{"frustumCulling":true,"groupNames":["gem_7_line_1"],"hidden":true,"hidpiCompositing":false,"objectColor":[1.0,1.0,1.0,1.0],"objectIndex":0,"renderOrder":0,"useShadows":true}},"mesh":2,"name":"gem_type_2_gem_7_curve_0_line_1_inside_1","rotation":[1.9470718370939721e-07,1.6292068494294654e-07,-1.0,1.7478846739112444e-14],"translation":[0.09999999403953552,0.021578039973974228,-0.050012532621622086]},{"children":[30],"name":"v3d_Proxy_Node_0_gem_type_2_gem_7_curve_0_line_1_inside_1","translation":[-0.10000000149011612,-0.0,0.05000000074505806]},{"extensions":{"S8S_v3d_node":{"frustumCulling":true,"groupNames":["gem_7_line_1"],"hidden":true,"hidpiCompositing":false,"objectColor":[1.0,1.0,1.0,1.0],"objectIndex":0,"renderOrder":0,"useShadows":true}},"mesh":4,"name":"gem_type_4_gem_7_curve_0_line_1_inside_1","rotation":[1.9470718370939721e-07,1.6292068494294654e-07,-1.0,1.7478846739112444e-14],"translation":[0.10000000894069672,0.021515775471925735,0.05000000074505806]},{"children":[32],"name":"v3d_Proxy_Node_0_gem_type_4_gem_7_curve_0_line_1_inside_1","translation":[-0.10000000149011612,-0.0,-0.05000000074505806]},{"extensions":{"S8S_v3d_node":{"frustumCulling":true,"groupNames":["gem_7_line_1"],"hidden":true,"hidpiCompositing":false,"objectColor":[1.0,1.0,1.0,1.0],"objectIndex":0,"renderOrder":0,"useShadows":true}},"mesh":5,"name":"gem_type_5_gem_7_curve_0_line_1_inside_1","rotation":[1.9470718370939721e-07,1.6292068494294654e-07,-1.0,1.7478846739112444e-14],"translation":[0.09999999403953552,0.02092789113521576,0.10000000149011612]},{"children":[34],"name":"v3d_Proxy_Node_0_gem_type_5_gem_7_curve_0_line_1_inside_1","translation":[-0.10000000149011612,-0.0,-0.10000000149011612]},{"extensions":{"S8S_v3d_node":{"frustumCulling":true,"groupNames":[],"hidden":true,"hidpiCompositing":false,"objectColor":[1.0,1.0,1.0,1.0],"objectIndex":0,"renderOrder":0}},"name":"Empty","translation":[0.0,-0.028885208070278168,-0.0]},{"children":[6,55],"extensions":{"S8S_v3d_node":{"frustumCulling":true,"groupNames":["gem_7_line_0"],"hidden":true,"hidpiCompositing":false,"objectColor":[1.0,1.0,1.0,1.0],"objectIndex":0,"renderOrder":0,"useShadows":true}},"mesh":18,"name":"ring_type_4_gem_7_curve_0_line_0","translation":[0.0,2.9999999242136255e-05,-0.0]},{"children":[19,53],"extensions":{"S8S_v3d_node":{"frustumCulling":true,"groupNames":["gem_7_line_0"],"hidden":true,"hidpiCompositing":false,"objectColor":[1.0,1.0,1.0,1.0],"objectIndex":0,"renderOrder":0,"useShadows":true}},"mesh":14,"name":"ring_type_2_gem_7_curve_0_line_0","translation":[0.0,0.0002500000118743628,-0.0]},{"extensions":{"S8S_v3d_node":{"frustumCulling":true,"groupNames":["gem_7_line_0"],"hidden":true,"hidpiCompositing":false,"objectColor":[1.0,1.0,1.0,1.0],"objectIndex":0,"renderOrder":0,"useShadows":true}},"mesh":0,"name":"gem_type_3_gem_7_curve_0_line_0_inside","translation":[0.0,0.03812466561794281,-0.0]},{"extensions":{"S8S_v3d_node":{"frustumCulling":true,"groupNames":["gem_7_line_0"],"hidden":true,"hidpiCompositing":false,"objectColor":[1.0,1.0,1.0,1.0],"objectIndex":0,"renderOrder":0,"useShadows":true}},"mesh":0,"name":"gem_type_5_gem_7_curve_0_line_0_inside","translation":[0.0,0.03812466561794281,0.10000000149011612]},{"children":[40],"name":"v3d_Proxy_Node_0_gem_type_5_gem_7_curve_0_line_0_inside","translation":[-0.0,-0.0,-0.10000000149011612]},{"extensions":{"S8S_v3d_node":{"frustumCulling":true,"groupNames":["gem_7_line_1"],"hidden":true,"hidpiCompositing":false,"objectColor":[1.0,1.0,1.0,1.0],"objectIndex":0,"renderOrder":0,"useShadows":true}},"mesh":6,"name":"gem_type_3_gem_7_curve_0_line_1_outside","translation":[0.10000000149011612,0.03812466561794281,-0.0]},{"children":[42],"name":"v3d_Proxy_Node_0_gem_type_3_gem_7_curve_0_line_1_outside","translation":[-0.10000000149011612,-0.0,-0.0]},{"extensions":{"S8S_v3d_node":{"frustumCulling":true,"groupNames":["gem_7_line_1"],"hidden":true,"hidpiCompositing":false,"objectColor":[1.0,1.0,1.0,1.0],"objectIndex":0,"renderOrder":0,"useShadows":true}},"mesh":6,"name":"gem_type_5_gem_7_curve_0_line_1_outside","translation":[0.10000000149011612,0.03812466561794281,0.10000000149011612]},{"children":[44],"name":"v3d_Proxy_Node_0_gem_type_5_gem_7_curve_0_line_1_outside","translation":[-0.10000000149011612,-0.0,-0.10000000149011612]},{"extensions":{"S8S_v3d_node":{"frustumCulling":true,"groupNames":["gem_7_line_1"],"hidden":true,"hidpiCompositing":false,"objectColor":[1.0,1.0,1.0,1.0],"objectIndex":0,"renderOrder":0,"useShadows":true}},"mesh":11,"name":"gem_type_1_gem_7_curve_0_line_1_outside_1","rotation":[1.9470718370939721e-07,1.6292068494294654e-07,-1.0,1.7478846739112444e-14],"translation":[0.10000000894069672,0.02143911086022854,-0.10000000149011612]},{"children":[46],"name":"v3d_Proxy_Node_0_gem_type_1_gem_7_curve_0_line_1_outside_1","translation":[-0.10000000149011612,-0.0,0.10000000149011612]},{"extensions":{"S8S_v3d_node":{"frustumCulling":true,"groupNames":["gem_7_line_1"],"hidden":true,"hidpiCompositing":false,"objectColor":[1.0,1.0,1.0,1.0],"objectIndex":0,"renderOrder":0,"useShadows":true}},"mesh":0,"name":"gem_type_2_gem_7_curve_0_line_1_inside","translation":[0.10000000149011612,0.03812466561794281,-0.05000000074505806]},{"children":[48],"name":"v3d_Proxy_Node_0_gem_type_2_gem_7_curve_0_line_1_inside","translation":[-0.10000000149011612,-0.0,0.05000000074505806]},{"extensions":{"S8S_v3d_node":{"frustumCulling":true,"groupNames":["gem_7_line_1"],"hidden":true,"hidpiCompositing":false,"objectColor":[1.0,1.0,1.0,1.0],"objectIndex":0,"renderOrder":0,"useShadows":true}},"mesh":0,"name":"gem_type_4_gem_7_curve_0_line_1_inside","translation":[0.10000000149011612,0.03812466561794281,0.05000000074505806]},{"children":[50],"name":"v3d_Proxy_Node_0_gem_type_4_gem_7_curve_0_line_1_inside","translation":[-0.10000000149011612,-0.0,-0.05000000074505806]},{"extensions":{"S8S_v3d_node":{"frustumCulling":true,"groupNames":["gem_7_line_0"],"hidden":true,"hidpiCompositing":false,"objectColor":[1.0,1.0,1.0,1.0],"objectIndex":0,"renderOrder":0,"useShadows":true}},"mesh":6,"name":"gem_type_2_gem_7_curve_0_line_0_outside","translation":[0.0,0.03812466561794281,-0.05000000074505806]},{"children":[52],"name":"v3d_Proxy_Node_0_gem_type_2_gem_7_curve_0_line_0_outside","translation":[-0.0,-0.0,0.05000000074505806]},{"extensions":{"S8S_v3d_node":{"frustumCulling":true,"groupNames":["gem_7_line_0"],"hidden":true,"hidpiCompositing":false,"objectColor":[1.0,1.0,1.0,1.0],"objectIndex":0,"renderOrder":0,"useShadows":true}},"mesh":6,"name":"gem_type_4_gem_7_curve_0_line_0_outside","translation":[0.0,0.03812466561794281,0.05000000074505806]},{"children":[54],"name":"v3d_Proxy_Node_0_gem_type_4_gem_7_curve_0_line_0_outside","translation":[-0.0,-0.0,-0.05000000074505806]},{"children":[14,68,43,29],"extensions":{"S8S_v3d_node":{"frustumCulling":true,"groupNames":["gem_7_line_1"],"hidden":true,"hidpiCompositing":false,"objectColor":[1.0,1.0,1.0,1.0],"objectIndex":0,"renderOrder":0,"useShadows":true}},"mesh":17,"name":"ring_type_3_gem_7_curve_0_line_1","translation":[0.0,7.999999797903001e-05,-0.0]},{"children":[16,35,45,27],"extensions":{"S8S_v3d_node":{"frustumCulling":true,"groupNames":["gem_7_line_1"],"hidden":true,"hidpiCompositing":false,"objectColor":[1.0,1.0,1.0,1.0],"objectIndex":0,"renderOrder":0,"useShadows":true}},"mesh":21,"name":"ring_type_5_gem_7_curve_0_line_1","translation":[0.0,2.9999999242136255e-05,-0.0]},{"children":[66,12,64,47],"extensions":{"S8S_v3d_node":{"frustumCulling":true,"groupNames":["gem_7_line_1"],"hidden":true,"hidpiCompositing":false,"objectColor":[1.0,1.0,1.0,1.0],"objectIndex":0,"renderOrder":0,"useShadows":true}},"mesh":13,"name":"ring_type_1_gem_7_curve_0_line_1","translation":[0.0,1.4999999621068127e-05,-0.0]},{"extensions":{"S8S_v3d_node":{"frustumCulling":true,"groupNames":["gem_7_line_1"],"hidden":true,"hidpiCompositing":false,"objectColor":[1.0,1.0,1.0,1.0],"objectIndex":0,"renderOrder":0,"useShadows":true}},"mesh":8,"name":"gem_type_4_gem_7_curve_0_line_1_outside_1","rotation":[1.9470718370939721e-07,1.6292068494294654e-07,-1.0,1.7478846739112444e-14],"translation":[0.10000000894069672,0.021511005237698555,0.05000000074505806]},{"children":[59],"name":"v3d_Proxy_Node_0_gem_type_4_gem_7_curve_0_line_1_outside_1","translation":[-0.10000000149011612,-0.0,-0.05000000074505806]},{"extensions":{"S8S_v3d_node":{"frustumCulling":true,"groupNames":["gem_7_line_1"],"hidden":true,"hidpiCompositing":false,"objectColor":[1.0,1.0,1.0,1.0],"objectIndex":0,"renderOrder":0,"useShadows":true}},"mesh":10,"name":"gem_type_2_gem_7_curve_0_line_1_outside_1","rotation":[1.9470718370939721e-07,1.6292068494294654e-07,-1.0,1.7478846739112444e-14],"translation":[0.09999998658895493,0.021573159843683243,-0.05001252889633179]},{"children":[61],"name":"v3d_Proxy_Node_0_gem_type_2_gem_7_curve_0_line_1_outside_1","translation":[-0.10000000149011612,-0.0,0.05000000074505806]},{"extensions":{"S8S_v3d_node":{"frustumCulling":true,"groupNames":["gem_7_line_1"],"hidden":true,"hidpiCompositing":false,"objectColor":[1.0,1.0,1.0,1.0],"objectIndex":0,"renderOrder":0,"useShadows":true}},"mesh":6,"name":"gem_type_1_gem_7_curve_0_line_1_outside","translation":[0.10000000149011612,0.03812466561794281,-0.10000000149011612]},{"children":[63],"name":"v3d_Proxy_Node_0_gem_type_1_gem_7_curve_0_line_1_outside","translation":[-0.10000000149011612,-0.0,0.10000000149011612]},{"extensions":{"S8S_v3d_node":{"frustumCulling":true,"groupNames":["gem_7_line_1"],"hidden":true,"hidpiCompositing":false,"objectColor":[1.0,1.0,1.0,1.0],"objectIndex":0,"renderOrder":0,"useShadows":true}},"mesh":0,"name":"gem_type_1_gem_7_curve_0_line_1_inside","translation":[0.10000000149011612,0.03812466561794281,-0.10000000149011612]},{"children":[65],"name":"v3d_Proxy_Node_0_gem_type_1_gem_7_curve_0_line_1_inside","translation":[-0.10000000149011612,-0.0,0.10000000149011612]},{"extensions":{"S8S_v3d_node":{"frustumCulling":true,"groupNames":["gem_7_line_1"],"hidden":true,"hidpiCompositing":false,"objectColor":[1.0,1.0,1.0,1.0],"objectIndex":0,"renderOrder":0,"useShadows":true}},"mesh":3,"name":"gem_type_3_gem_7_curve_0_line_1_inside_1","rotation":[1.9470718370939721e-07,1.6292068494294654e-07,-1.0,1.7478846739112444e-14],"translation":[0.10000002384185791,0.021576249971985817,8.180086297215894e-06]},{"children":[67],"name":"v3d_Proxy_Node_0_gem_type_3_gem_7_curve_0_line_1_inside_1","translation":[-0.10000000149011612,-0.0,-0.0]},{"camera":0,"name":"__DEFAULT_CAMERA__","rotation":[-0.3421345353126526,-0.2945652902126312,-0.1138782948255539,0.884989857673645],"scale":[0.9999998807907104,0.9999998211860657,0.9999998211860657],"translation":[-0.028866488486528397,0.055063340812921524,0.040811602026224136]}],"samplers":[{}],"scene":0,"scenes":[{"extensions":{"S8S_v3d_scene":{"aaMethod":"AUTO","iblEnvironmentMode":"PMREM","physicallyCorrectLights":true,"pmremMaxTileSize":512,"shadowMap":{"esmDistanceScale":1.0,"renderReverseSided":false,"renderSingleSided":true,"type":"PCFPOISSON"},"useHDR":true,"worldMaterial":3}},"extras":{"animFrameRate":24,"coordSystem":"Z_UP_RIGHT"},"name":"Scene","nodes":[36,1,38,37,0,4,56,25,20,57,58,69]}],"textures":[{"extensions":{"S8S_v3d_texture":{"colorSpace":"linear rec.709","source":0}},"name":"environment.hdr","sampler":0},{"extensions":{"S8S_v3d_texture":{"anisotropy":16,"colorSpace":"non-color"}},"name":"engrave_normal","sampler":0,"source":1},{"extensions":{"S8S_v3d_texture":{"anisotropy":16,"colorSpace":"srgb"}},"name":"engrave_ao","sampler":0,"source":2}]}
