{"accessors":[{"bufferView":0,"componentType":5123,"count":1464,"max":[1362],"min":[0],"type":"SCALAR"},{"bufferView":1,"componentType":5126,"count":1363,"max":[0.006424806546419859,0.002464931458234787,0.006424773018807173],"min":[-0.006424805615097284,-0.004473659209907055,-0.006424827501177788],"type":"VEC3"},{"bufferView":2,"componentType":5126,"count":1363,"max":[0.9998352527618408,0.9758000373840332,0.9999906420707703],"min":[-0.99982088804245,-0.981329083442688,-0.9999906420707703],"type":"VEC3"},{"bufferView":3,"componentType":5126,"count":1363,"max":[0.8803947567939758,1.0],"min":[0.3819863796234131,0.012289047241210938],"type":"VEC2"},{"bufferView":4,"componentType":5123,"count":4224,"max":[3519],"min":[0],"type":"SCALAR"},{"bufferView":5,"componentType":5126,"count":3520,"max":[0.027896486222743988,-0.007199175655841827,0.001487476285547018],"min":[-0.027896471321582794,-0.0332222618162632,-0.0014874895568937063],"type":"VEC3"},{"bufferView":6,"componentType":5126,"count":3520,"max":[0.9999873638153076,0.9932704567909241,0.9761841297149658],"min":[-0.9999873638153076,-0.9999918937683105,-0.9761840105056763],"type":"VEC3"},{"bufferView":7,"componentType":5123,"count":4224,"max":[3519],"min":[0],"type":"SCALAR"},{"bufferView":8,"componentType":5126,"count":3520,"max":[0.02800162509083748,-0.007504649925976992,0.0014874760527163744],"min":[-0.028001639991998672,-0.03317323699593544,-0.001487489091232419],"type":"VEC3"},{"bufferView":9,"componentType":5126,"count":3520,"max":[0.999972403049469,0.9902225136756897,0.97588050365448],"min":[-0.999972403049469,-0.9993041157722473,-0.9758803844451904],"type":"VEC3"},{"bufferView":10,"componentType":5123,"count":4224,"max":[3519],"min":[0],"type":"SCALAR"},{"bufferView":11,"componentType":5126,"count":3520,"max":[0.027742624282836914,-0.007277278229594231,0.001504978397861123],"min":[-0.027742624282836914,-0.03330770134925842,-0.0014874842017889023],"type":"VEC3"},{"bufferView":12,"componentType":5126,"count":3520,"max":[0.9999977350234985,0.990393340587616,0.9757899045944214],"min":[-0.9999977350234985,-0.9999832510948181,-0.9758543372154236],"type":"VEC3"},{"bufferView":13,"componentType":5123,"count":4224,"max":[3519],"min":[0],"type":"SCALAR"},{"bufferView":14,"componentType":5126,"count":3520,"max":[0.027905844151973724,-0.007318511605262756,0.0014874764019623399],"min":[-0.02790582925081253,-0.033322032541036606,-0.001532986992970109],"type":"VEC3"},{"bufferView":15,"componentType":5126,"count":3520,"max":[0.9999212622642517,0.9919827580451965,0.9762437343597412],"min":[-0.9999212622642517,-0.9999925494194031,-0.9761111736297607],"type":"VEC3"},{"bufferView":16,"componentType":5123,"count":4224,"max":[3519],"min":[0],"type":"SCALAR"},{"bufferView":17,"componentType":5126,"count":3520,"max":[0.027752377092838287,-0.007783933542668819,0.0014874764019623399],"min":[-0.02775239199399948,-0.03361993283033371,-0.0014874887419864535],"type":"VEC3"},{"bufferView":18,"componentType":5126,"count":3520,"max":[0.9999446272850037,0.9881168603897095,0.9736757874488831],"min":[-0.9999446272850037,-0.9999047517776489,-0.9736760854721069],"type":"VEC3"},{"bufferView":19,"componentType":5123,"count":666,"max":[455],"min":[0],"type":"SCALAR"},{"bufferView":20,"componentType":5126,"count":456,"max":[0.006424806546419859,0.002464931458234787,0.006424773018807173],"min":[-0.006424805615097284,-0.004473659209907055,-0.006424827501177788],"type":"VEC3"},{"bufferView":21,"componentType":5126,"count":456,"max":[1.0,1.0,1.0],"min":[-1.0,-0.9313163161277771,-1.0],"type":"VEC3"},{"bufferView":22,"componentType":5126,"count":456,"max":[0.8803947567939758,1.0],"min":[0.3819863796234131,0.012289047241210938],"type":"VEC2"},{"bufferView":23,"componentType":5123,"count":4092,"max":[3167],"min":[0],"type":"SCALAR"},{"bufferView":24,"componentType":5126,"count":3168,"max":[0.027752377092838287,-0.007783933542668819,0.0014874764019623399],"min":[-0.02775239199399948,-0.03361993283033371,-0.0014874887419864535],"type":"VEC3"},{"bufferView":25,"componentType":5126,"count":3168,"max":[0.9998612999916077,0.9999047517776489,0.9736760854721069],"min":[-0.9998613595962524,-0.9881168603897095,-0.9736757874488831],"type":"VEC3"},{"bufferView":26,"componentType":5123,"count":4092,"max":[3167],"min":[0],"type":"SCALAR"},{"bufferView":27,"componentType":5126,"count":3168,"max":[0.027905844151973724,-0.007318511605262756,0.0014874764019623399],"min":[-0.02790582925081253,-0.033322032541036606,-0.001532986992970109],"type":"VEC3"},{"bufferView":28,"componentType":5126,"count":3168,"max":[0.9998846650123596,0.9999925494194031,0.9761111736297607],"min":[-0.9998847842216492,-0.9919827580451965,-0.9762437343597412],"type":"VEC3"},{"bufferView":29,"componentType":5123,"count":4092,"max":[3167],"min":[0],"type":"SCALAR"},{"bufferView":30,"componentType":5126,"count":3168,"max":[0.027742624282836914,-0.007277278229594231,0.001504978397861123],"min":[-0.027742624282836914,-0.03330770134925842,-0.0014874842017889023],"type":"VEC3"},{"bufferView":31,"componentType":5126,"count":3168,"max":[0.9999977350234985,0.9999832510948181,0.9758543372154236],"min":[-0.9999977350234985,-0.990393340587616,-0.9757899045944214],"type":"VEC3"},{"bufferView":32,"componentType":5123,"count":4092,"max":[3167],"min":[0],"type":"SCALAR"},{"bufferView":33,"componentType":5126,"count":3168,"max":[0.02800162509083748,-0.007504649925976992,0.0014874760527163744],"min":[-0.028001639991998672,-0.03317323699593544,-0.001487489091232419],"type":"VEC3"},{"bufferView":34,"componentType":5126,"count":3168,"max":[0.999972403049469,0.9993041157722473,0.9758803844451904],"min":[-0.999972403049469,-0.9902225136756897,-0.97588050365448],"type":"VEC3"},{"bufferView":35,"componentType":5123,"count":4092,"max":[3167],"min":[0],"type":"SCALAR"},{"bufferView":36,"componentType":5126,"count":3168,"max":[0.027896486222743988,-0.007199175655841827,0.001487476285547018],"min":[-0.027896471321582794,-0.0332222618162632,-0.0014874895568937063],"type":"VEC3"},{"bufferView":37,"componentType":5126,"count":3168,"max":[0.9999552965164185,0.9999918937683105,0.9761840105056763],"min":[-0.9999552965164185,-0.9932704567909241,-0.9761841297149658],"type":"VEC3"},{"bufferView":38,"componentType":5123,"count":68760,"max":[13501],"min":[0],"type":"SCALAR"},{"bufferView":39,"componentType":5126,"count":13502,"max":[0.028881875798106194,0.0393250435590744,0.007179815322160721],"min":[-0.028881875798106194,-0.09712545573711395,-0.007179815322160721],"type":"VEC3"},{"bufferView":40,"componentType":5126,"count":13502,"max":[1.0,1.0,1.0],"min":[-1.0,-1.0,-1.0],"type":"VEC3"},{"bufferView":41,"componentType":5126,"count":13502,"max":[1.0,0.8970111608505249,0.9999164342880249,1.0],"min":[-0.9918102025985718,-0.8970634937286377,-0.9999164342880249,-1.0],"type":"VEC4"},{"bufferView":42,"componentType":5126,"count":13502,"max":[0.9999034404754639,1.001778244972229],"min":[9.663304808782414e-05,0.03410184383392334],"type":"VEC2"},{"bufferView":43,"componentType":5126,"count":13502,"max":[1.0,1.0,1.0,1.0],"min":[0.0,0.0,0.0,1.0],"type":"VEC4"},{"bufferView":44,"componentType":5123,"count":76344,"max":[19445],"min":[0],"type":"SCALAR"},{"bufferView":45,"componentType":5126,"count":19446,"max":[0.028881875798106194,0.0393250435590744,0.007179815322160721],"min":[-0.028881875798106194,-0.09712545573711395,-0.007179815322160721],"type":"VEC3"},{"bufferView":46,"componentType":5126,"count":19446,"max":[1.0,1.0,1.0],"min":[-1.0,-1.0,-1.0],"type":"VEC3"},{"bufferView":47,"componentType":5126,"count":19446,"max":[1.0,0.999987781047821,0.9995872378349304,1.0],"min":[-0.9999997019767761,-0.999987781047821,-0.9995872378349304,-1.0],"type":"VEC4"},{"bufferView":48,"componentType":5126,"count":19446,"max":[0.9999034404754639,0.9821334481239319],"min":[9.66316947597079e-05,0.03277730941772461],"type":"VEC2"},{"bufferView":49,"componentType":5126,"count":19446,"max":[1.0,1.0,1.0,1.0],"min":[0.0,0.0,0.0,1.0],"type":"VEC4"},{"bufferView":50,"componentType":5123,"count":48888,"max":[8359],"min":[0],"type":"SCALAR"},{"bufferView":51,"componentType":5126,"count":8360,"max":[0.029105544090270996,0.0393250435590744,0.007179815322160721],"min":[-0.029105544090270996,-0.0975954607129097,-0.007179815322160721],"type":"VEC3"},{"bufferView":52,"componentType":5126,"count":8360,"max":[1.0,1.0,0.9999998807907104],"min":[-1.0,-1.0,-0.9999998807907104],"type":"VEC3"},{"bufferView":53,"componentType":5126,"count":8360,"max":[1.0,0.5141042470932007,0.02497251145541668,1.0],"min":[0.8577269911766052,-0.5141041278839111,-0.023275472223758698,-1.0],"type":"VEC4"},{"bufferView":54,"componentType":5126,"count":8360,"max":[0.9999094009399414,1.001688838005066],"min":[9.06461791601032e-05,0.10079407691955566],"type":"VEC2"},{"bufferView":55,"componentType":5126,"count":8360,"max":[1.0,1.0,1.0,1.0],"min":[0.0,0.0,0.0,1.0],"type":"VEC4"},{"bufferView":56,"componentType":5123,"count":62808,"max":[20517],"min":[0],"type":"SCALAR"},{"bufferView":57,"componentType":5126,"count":20518,"max":[0.029105544090270996,0.0393250435590744,0.007179815322160721],"min":[-0.029105544090270996,-0.0975954607129097,-0.007179815322160721],"type":"VEC3"},{"bufferView":58,"componentType":5126,"count":20518,"max":[1.0,1.0,0.9999998807907104],"min":[-1.0,-1.0,-0.9999998807907104],"type":"VEC3"},{"bufferView":59,"componentType":5126,"count":20518,"max":[1.0,1.0,0.9994555711746216,1.0],"min":[-1.0,-1.0,-0.9994555711746216,-1.0],"type":"VEC4"},{"bufferView":60,"componentType":5126,"count":20518,"max":[1.0000001192092896,1.0034003257751465],"min":[-0.17136232554912567,0.09929144382476807],"type":"VEC2"},{"bufferView":61,"componentType":5126,"count":20518,"max":[1.0,1.0,1.0,1.0],"min":[0.0,0.0,0.0,1.0],"type":"VEC4"},{"bufferView":62,"componentType":5123,"count":70272,"max":[11991],"min":[0],"type":"SCALAR"},{"bufferView":63,"componentType":5126,"count":11992,"max":[0.028952667489647865,0.0393250435590744,0.007179815322160721],"min":[-0.028952667489647865,-0.09725546091794968,-0.007179815322160721],"type":"VEC3"},{"bufferView":64,"componentType":5126,"count":11992,"max":[1.0,1.0,0.9999998807907104],"min":[-1.0,-1.0,-0.9999998807907104],"type":"VEC3"},{"bufferView":65,"componentType":5126,"count":11992,"max":[1.0,0.5141029357910156,0.01475892961025238,1.0],"min":[0.8577284812927246,-0.5141029357910156,-0.013509813696146011,-1.0],"type":"VEC4"},{"bufferView":66,"componentType":5126,"count":11992,"max":[0.9999033212661743,1.0018118619918823],"min":[9.669163409853354e-05,0.03316640853881836],"type":"VEC2"},{"bufferView":67,"componentType":5126,"count":11992,"max":[1.0,1.0,1.0,1.0],"min":[0.0,0.0,0.0,1.0],"type":"VEC4"},{"bufferView":68,"componentType":5123,"count":85368,"max":[15567],"min":[0],"type":"SCALAR"},{"bufferView":69,"componentType":5126,"count":15568,"max":[0.028952667489647865,0.0393250435590744,0.007179815322160721],"min":[-0.028952667489647865,-0.09725546091794968,-0.007179815322160721],"type":"VEC3"},{"bufferView":70,"componentType":5126,"count":15568,"max":[1.0,1.0,0.9999998807907104],"min":[-1.0,-1.0,-0.9999998807907104],"type":"VEC3"},{"bufferView":71,"componentType":5126,"count":15568,"max":[1.0,0.5141028165817261,0.01522993203252554,1.0],"min":[0.8577282428741455,-0.5141028165817261,-0.014667239040136337,-1.0],"type":"VEC4"},{"bufferView":72,"componentType":5126,"count":15568,"max":[0.9999032020568848,0.9882396459579468],"min":[9.669583960203454e-05,0.03983086347579956],"type":"VEC2"},{"bufferView":73,"componentType":5126,"count":15568,"max":[1.0,1.0,1.0,1.0],"min":[0.0,0.0,0.0,1.0],"type":"VEC4"},{"bufferView":74,"componentType":5123,"count":77304,"max":[13239],"min":[0],"type":"SCALAR"},{"bufferView":75,"componentType":5126,"count":13240,"max":[0.028899718075990677,0.0393250435590744,0.007179815322160721],"min":[-0.028899718075990677,-0.09715545922517776,-0.007179815322160721],"type":"VEC3"},{"bufferView":76,"componentType":5126,"count":13240,"max":[1.0,1.0,0.9999998807907104],"min":[-1.0,-1.0,-0.9999998807907104],"type":"VEC3"},{"bufferView":77,"componentType":5126,"count":13240,"max":[1.0,0.5141030550003052,0.0011708632810041308,1.0],"min":[0.8577284812927246,-0.5141030550003052,-0.0011715180007740855,-1.0],"type":"VEC4"},{"bufferView":78,"componentType":5126,"count":13240,"max":[0.999904990196228,1.0024914741516113],"min":[9.50138783082366e-05,0.049526333808898926],"type":"VEC2"},{"bufferView":79,"componentType":5126,"count":13240,"max":[1.0,1.0,1.0,1.0],"min":[0.0,0.0,0.0,1.0],"type":"VEC4"},{"bufferView":80,"componentType":5123,"count":84912,"max":[23417],"min":[0],"type":"SCALAR"},{"bufferView":81,"componentType":5126,"count":23418,"max":[0.028899718075990677,0.0393250435590744,0.007179815322160721],"min":[-0.028899718075990677,-0.09715545922517776,-0.007179815322160721],"type":"VEC3"},{"bufferView":82,"componentType":5126,"count":23418,"max":[1.0,1.0,0.9999998807907104],"min":[-1.0,-1.0,-0.9999998807907104],"type":"VEC3"},{"bufferView":83,"componentType":5126,"count":23418,"max":[1.0,0.9999980330467224,0.9999999403953552,1.0],"min":[-1.0,-0.9999979734420776,-0.9999999403953552,-1.0],"type":"VEC4"},{"bufferView":84,"componentType":5126,"count":23418,"max":[0.999904990196228,0.9827820062637329],"min":[9.500980377197266e-05,0.047203898429870605],"type":"VEC2"},{"bufferView":85,"componentType":5126,"count":23418,"max":[1.0,1.0,1.0,1.0],"min":[0.0,0.0,0.0,1.0],"type":"VEC4"},{"bufferView":86,"componentType":5123,"count":71712,"max":[20581],"min":[0],"type":"SCALAR"},{"bufferView":87,"componentType":5126,"count":20582,"max":[0.029363755136728287,0.0393250435590744,0.007179815322160721],"min":[-0.029363755136728287,-0.09812545776367188,-0.007179815322160721],"type":"VEC3"},{"bufferView":88,"componentType":5126,"count":20582,"max":[1.0,1.0,0.9999998807907104],"min":[-1.0,-1.0,-0.9999998807907104],"type":"VEC3"},{"bufferView":89,"componentType":5126,"count":20582,"max":[1.0,1.0,0.999208390712738,1.0],"min":[-1.0,-1.0,-0.999208390712738,-1.0],"type":"VEC4"},{"bufferView":90,"componentType":5126,"count":20582,"max":[1.0528172254562378,1.002736210823059],"min":[-0.16631516814231873,0.17650192975997925],"type":"VEC2"},{"bufferView":91,"componentType":5126,"count":20582,"max":[1.0,1.0,1.0,1.0],"min":[0.0,0.0,0.0,1.0],"type":"VEC4"},{"bufferView":92,"componentType":5123,"count":64752,"max":[11007],"min":[0],"type":"SCALAR"},{"bufferView":93,"componentType":5126,"count":11008,"max":[0.029363755136728287,0.0393250435590744,0.007179815322160721],"min":[-0.029363755136728287,-0.09812545776367188,-0.007179815322160721],"type":"VEC3"},{"bufferView":94,"componentType":5126,"count":11008,"max":[1.0,1.0,0.9999998807907104],"min":[-1.0,-1.0,-0.9999998807907104],"type":"VEC3"},{"bufferView":95,"componentType":5126,"count":11008,"max":[1.0,0.5140976309776306,0.028216706588864326,1.0],"min":[0.8577210903167725,-0.5140976309776306,-0.028215190395712852,-1.0],"type":"VEC4"},{"bufferView":96,"componentType":5126,"count":11008,"max":[0.9999176263809204,1.0013021230697632],"min":[8.237361907958984e-05,0.16746091842651367],"type":"VEC2"},{"bufferView":97,"componentType":5126,"count":11008,"max":[1.0,1.0,1.0,1.0],"min":[0.0,0.0,0.0,1.0],"type":"VEC4"}],"asset":{"generator":"Verge3D for Blender v4.6.0","version":"2.0"},"bufferViews":[{"buffer":0,"byteLength":2928,"byteOffset":0,"target":34963},{"buffer":0,"byteLength":16356,"byteOffset":2928,"target":34962},{"buffer":0,"byteLength":16356,"byteOffset":19284,"target":34962},{"buffer":0,"byteLength":10904,"byteOffset":35640,"target":34962},{"buffer":0,"byteLength":8448,"byteOffset":46544,"target":34963},{"buffer":0,"byteLength":42240,"byteOffset":54992,"target":34962},{"buffer":0,"byteLength":42240,"byteOffset":97232,"target":34962},{"buffer":0,"byteLength":8448,"byteOffset":139472,"target":34963},{"buffer":0,"byteLength":42240,"byteOffset":147920,"target":34962},{"buffer":0,"byteLength":42240,"byteOffset":190160,"target":34962},{"buffer":0,"byteLength":8448,"byteOffset":232400,"target":34963},{"buffer":0,"byteLength":42240,"byteOffset":240848,"target":34962},{"buffer":0,"byteLength":42240,"byteOffset":283088,"target":34962},{"buffer":0,"byteLength":8448,"byteOffset":325328,"target":34963},{"buffer":0,"byteLength":42240,"byteOffset":333776,"target":34962},{"buffer":0,"byteLength":42240,"byteOffset":376016,"target":34962},{"buffer":0,"byteLength":8448,"byteOffset":418256,"target":34963},{"buffer":0,"byteLength":42240,"byteOffset":426704,"target":34962},{"buffer":0,"byteLength":42240,"byteOffset":468944,"target":34962},{"buffer":0,"byteLength":1332,"byteOffset":511184,"target":34963},{"buffer":0,"byteLength":5472,"byteOffset":512516,"target":34962},{"buffer":0,"byteLength":5472,"byteOffset":517988,"target":34962},{"buffer":0,"byteLength":3648,"byteOffset":523460,"target":34962},{"buffer":0,"byteLength":8184,"byteOffset":527108,"target":34963},{"buffer":0,"byteLength":38016,"byteOffset":535292,"target":34962},{"buffer":0,"byteLength":38016,"byteOffset":573308,"target":34962},{"buffer":0,"byteLength":8184,"byteOffset":611324,"target":34963},{"buffer":0,"byteLength":38016,"byteOffset":619508,"target":34962},{"buffer":0,"byteLength":38016,"byteOffset":657524,"target":34962},{"buffer":0,"byteLength":8184,"byteOffset":695540,"target":34963},{"buffer":0,"byteLength":38016,"byteOffset":703724,"target":34962},{"buffer":0,"byteLength":38016,"byteOffset":741740,"target":34962},{"buffer":0,"byteLength":8184,"byteOffset":779756,"target":34963},{"buffer":0,"byteLength":38016,"byteOffset":787940,"target":34962},{"buffer":0,"byteLength":38016,"byteOffset":825956,"target":34962},{"buffer":0,"byteLength":8184,"byteOffset":863972,"target":34963},{"buffer":0,"byteLength":38016,"byteOffset":872156,"target":34962},{"buffer":0,"byteLength":38016,"byteOffset":910172,"target":34962},{"buffer":0,"byteLength":137520,"byteOffset":948188,"target":34963},{"buffer":0,"byteLength":162024,"byteOffset":1085708,"target":34962},{"buffer":0,"byteLength":162024,"byteOffset":1247732,"target":34962},{"buffer":0,"byteLength":216032,"byteOffset":1409756,"target":34962},{"buffer":0,"byteLength":108016,"byteOffset":1625788,"target":34962},{"buffer":0,"byteLength":216032,"byteOffset":1733804,"target":34962},{"buffer":0,"byteLength":152688,"byteOffset":1949836,"target":34963},{"buffer":0,"byteLength":233352,"byteOffset":2102524,"target":34962},{"buffer":0,"byteLength":233352,"byteOffset":2335876,"target":34962},{"buffer":0,"byteLength":311136,"byteOffset":2569228,"target":34962},{"buffer":0,"byteLength":155568,"byteOffset":2880364,"target":34962},{"buffer":0,"byteLength":311136,"byteOffset":3035932,"target":34962},{"buffer":0,"byteLength":97776,"byteOffset":3347068,"target":34963},{"buffer":0,"byteLength":100320,"byteOffset":3444844,"target":34962},{"buffer":0,"byteLength":100320,"byteOffset":3545164,"target":34962},{"buffer":0,"byteLength":133760,"byteOffset":3645484,"target":34962},{"buffer":0,"byteLength":66880,"byteOffset":3779244,"target":34962},{"buffer":0,"byteLength":133760,"byteOffset":3846124,"target":34962},{"buffer":0,"byteLength":125616,"byteOffset":3979884,"target":34963},{"buffer":0,"byteLength":246216,"byteOffset":4105500,"target":34962},{"buffer":0,"byteLength":246216,"byteOffset":4351716,"target":34962},{"buffer":0,"byteLength":328288,"byteOffset":4597932,"target":34962},{"buffer":0,"byteLength":164144,"byteOffset":4926220,"target":34962},{"buffer":0,"byteLength":328288,"byteOffset":5090364,"target":34962},{"buffer":0,"byteLength":140544,"byteOffset":5418652,"target":34963},{"buffer":0,"byteLength":143904,"byteOffset":5559196,"target":34962},{"buffer":0,"byteLength":143904,"byteOffset":5703100,"target":34962},{"buffer":0,"byteLength":191872,"byteOffset":5847004,"target":34962},{"buffer":0,"byteLength":95936,"byteOffset":6038876,"target":34962},{"buffer":0,"byteLength":191872,"byteOffset":6134812,"target":34962},{"buffer":0,"byteLength":170736,"byteOffset":6326684,"target":34963},{"buffer":0,"byteLength":186816,"byteOffset":6497420,"target":34962},{"buffer":0,"byteLength":186816,"byteOffset":6684236,"target":34962},{"buffer":0,"byteLength":249088,"byteOffset":6871052,"target":34962},{"buffer":0,"byteLength":124544,"byteOffset":7120140,"target":34962},{"buffer":0,"byteLength":249088,"byteOffset":7244684,"target":34962},{"buffer":0,"byteLength":154608,"byteOffset":7493772,"target":34963},{"buffer":0,"byteLength":158880,"byteOffset":7648380,"target":34962},{"buffer":0,"byteLength":158880,"byteOffset":7807260,"target":34962},{"buffer":0,"byteLength":211840,"byteOffset":7966140,"target":34962},{"buffer":0,"byteLength":105920,"byteOffset":8177980,"target":34962},{"buffer":0,"byteLength":211840,"byteOffset":8283900,"target":34962},{"buffer":0,"byteLength":169824,"byteOffset":8495740,"target":34963},{"buffer":0,"byteLength":281016,"byteOffset":8665564,"target":34962},{"buffer":0,"byteLength":281016,"byteOffset":8946580,"target":34962},{"buffer":0,"byteLength":374688,"byteOffset":9227596,"target":34962},{"buffer":0,"byteLength":187344,"byteOffset":9602284,"target":34962},{"buffer":0,"byteLength":374688,"byteOffset":9789628,"target":34962},{"buffer":0,"byteLength":143424,"byteOffset":10164316,"target":34963},{"buffer":0,"byteLength":246984,"byteOffset":10307740,"target":34962},{"buffer":0,"byteLength":246984,"byteOffset":10554724,"target":34962},{"buffer":0,"byteLength":329312,"byteOffset":10801708,"target":34962},{"buffer":0,"byteLength":164656,"byteOffset":11131020,"target":34962},{"buffer":0,"byteLength":329312,"byteOffset":11295676,"target":34962},{"buffer":0,"byteLength":129504,"byteOffset":11624988,"target":34963},{"buffer":0,"byteLength":132096,"byteOffset":11754492,"target":34962},{"buffer":0,"byteLength":132096,"byteOffset":11886588,"target":34962},{"buffer":0,"byteLength":176128,"byteOffset":12018684,"target":34962},{"buffer":0,"byteLength":88064,"byteOffset":12194812,"target":34962},{"buffer":0,"byteLength":176128,"byteOffset":12282876,"target":34962}],"buffers":[{"byteLength":12459004,"uri":"gem_6.bin"}],"cameras":[{"extensions":{"S8S_v3d_camera":{"controls":"ORBIT","enablePan":true,"moveSpeed":1,"orbitMaxDistance":10000,"orbitMaxPolarAngle":3.141592653589793,"orbitMinDistance":0,"orbitMinPolarAngle":0,"orbitTarget":[-0.0008359944331459701,0.006946505978703499,0.008527743630111217],"rotateSpeed":1,"viewportFitInitialAspect":1,"viewportFitType":"VERTICAL"}},"name":"__DEFAULT__","perspective":{"aspectRatio":1,"yfov":0.7853981633974483,"zfar":5.0,"znear":0.0010000000474974513},"type":"perspective"}],"extensions":{"S8S_v3d_materials":{"nodeGraphs":[{"edges":[{"fromNode":4,"fromOutput":0,"toInput":0,"toNode":8},{"fromNode":4,"fromOutput":0,"toInput":0,"toNode":9},{"fromNode":4,"fromOutput":0,"toInput":0,"toNode":0},{"fromNode":2,"fromOutput":0,"toInput":1,"toNode":0},{"fromNode":3,"fromOutput":0,"toInput":1,"toNode":8},{"fromNode":1,"fromOutput":0,"toInput":1,"toNode":9},{"fromNode":13,"fromOutput":0,"toInput":0,"toNode":2},{"fromNode":13,"fromOutput":0,"toInput":2,"toNode":1},{"fromNode":13,"fromOutput":0,"toInput":1,"toNode":3},{"fromNode":14,"fromOutput":1,"toInput":0,"toNode":4},{"fromNode":0,"fromOutput":0,"toInput":4,"toNode":6},{"fromNode":8,"fromOutput":0,"toInput":4,"toNode":7},{"fromNode":9,"fromOutput":0,"toInput":4,"toNode":11},{"fromNode":6,"fromOutput":0,"toInput":0,"toNode":10},{"fromNode":7,"fromOutput":0,"toInput":1,"toNode":10},{"fromNode":10,"fromOutput":0,"toInput":0,"toNode":12},{"fromNode":11,"fromOutput":0,"toInput":1,"toNode":12},{"fromNode":12,"fromOutput":0,"toInput":0,"toNode":5}],"name":"inner_gem_material","nodes":[{"inputs":[[0.5,0.5,0.5],[0.5,0.5,0.5],[0.0,0.0,0.0],1.0],"is_active_output":false,"name":"Vector Math.003","operation":"ADD","outputs":[[0.0,0.0,0.0],0.0],"type":"VECT_MATH_BL"},{"inputs":[0.0,0.0,0.09999999403953552],"is_active_output":false,"name":"Combine XYZ.002","outputs":[[0.0,0.0,0.0]],"type":"COMBXYZ_BL"},{"inputs":[0.09999999403953552,0.0,0.0],"is_active_output":false,"name":"Combine XYZ","outputs":[[0.0,0.0,0.0]],"type":"COMBXYZ_BL"},{"inputs":[0.0,0.09999999403953552,0.0],"is_active_output":false,"name":"Combine XYZ.001","outputs":[[0.0,0.0,0.0]],"type":"COMBXYZ_BL"},{"inputs":[[0.0,0.0,0.0]],"is_active_output":false,"name":"Reroute.001","outputs":[[0.0,0.0,0.0]],"type":"REROUTE_BL"},{"inputs":[[0,0,0,0]],"is_active_output":true,"name":"Group Output","outputs":[],"type":"GROUP_OUTPUT_BL"},{"inputs":[[1.0,0.0,0.0,1.0],0.10000000149011612,0.0,0.0,[0.0,0.0,0.0],[0.0,0.0,0.0]],"is_active_output":false,"name":"Glossy BSDF","outputs":[[0,0,0,0]],"type":"BSDF_GLOSSY_BL"},{"inputs":[[0.0,1.0,0.0,1.0],0.10000000149011612,0.0,0.0,[0.0,0.0,0.0],[0.0,0.0,0.0]],"is_active_output":false,"name":"Glossy BSDF.001","outputs":[[0,0,0,0]],"type":"BSDF_GLOSSY_BL"},{"inputs":[[0.5,0.5,0.5],[0.5,0.5,0.5],[0.0,0.0,0.0],1.0],"is_active_output":false,"name":"Vector Math.001","operation":"ADD","outputs":[[0.0,0.0,0.0],0.0],"type":"VECT_MATH_BL"},{"inputs":[[0.5,0.5,0.5],[0.5,0.5,0.5],[0.0,0.0,0.0],1.0],"is_active_output":false,"name":"Vector Math.002","operation":"ADD","outputs":[[0.0,0.0,0.0],0.0],"type":"VECT_MATH_BL"},{"inputs":[[0,0,0,0],[0,0,0,0]],"is_active_output":false,"name":"Add Shader","outputs":[[0,0,0,0]],"type":"ADD_SHADER_BL"},{"inputs":[[0.0,0.0,1.0,1.0],0.10000000149011612,0.0,0.0,[0.0,0.0,0.0],[0.0,0.0,0.0]],"is_active_output":false,"name":"Glossy BSDF.002","outputs":[[0,0,0,0]],"type":"BSDF_GLOSSY_BL"},{"inputs":[[0,0,0,0],[0,0,0,0]],"is_active_output":false,"name":"Add Shader.001","outputs":[[0,0,0,0]],"type":"ADD_SHADER_BL"},{"inputs":[],"is_active_output":false,"name":"Group Input","outputs":[0.0],"type":"GROUP_INPUT_BL"},{"inputs":[],"is_active_output":false,"name":"Geometry.001","outputs":[[0.0,0.0,0.0],[0.0,0.0,0.0],[0.0,0.0,0.0],[0.0,0.0,0.0],[0.0,0.0,0.0],[0.0,0.0,0.0],0.0,0.0,0.0],"type":"NEW_GEOMETRY_BL"}]},{"edges":[{"fromNode":18,"fromOutput":0,"toInput":0,"toNode":23},{"fromNode":13,"fromOutput":0,"toInput":1,"toNode":6},{"fromNode":22,"fromOutput":2,"toInput":0,"toNode":6},{"fromNode":23,"fromOutput":0,"toInput":0,"toNode":22},{"fromNode":10,"fromOutput":2,"toInput":0,"toNode":9},{"fromNode":9,"fromOutput":0,"toInput":0,"toNode":8},{"fromNode":12,"fromOutput":0,"toInput":1,"toNode":14},{"fromNode":11,"fromOutput":0,"toInput":0,"toNode":10},{"fromNode":8,"fromOutput":0,"toInput":0,"toNode":14},{"fromNode":18,"fromOutput":0,"toInput":0,"toNode":17},{"fromNode":17,"fromOutput":0,"toInput":1,"toNode":19},{"fromNode":7,"fromOutput":0,"toInput":2,"toNode":6},{"fromNode":20,"fromOutput":2,"toInput":4,"toNode":7},{"fromNode":16,"fromOutput":0,"toInput":0,"toNode":20},{"fromNode":21,"fromOutput":1,"toInput":6,"toNode":20},{"fromNode":19,"fromOutput":0,"toInput":7,"toNode":20},{"fromNode":6,"fromOutput":0,"toInput":2,"toNode":14},{"fromNode":14,"fromOutput":0,"toInput":0,"toNode":24},{"fromNode":15,"fromOutput":2,"toInput":1,"toNode":7},{"fromNode":3,"fromOutput":2,"toInput":0,"toNode":7},{"fromNode":20,"fromOutput":2,"toInput":1,"toNode":2},{"fromNode":2,"fromOutput":0,"toInput":0,"toNode":3},{"fromNode":20,"fromOutput":2,"toInput":1,"toNode":4},{"fromNode":5,"fromOutput":2,"toInput":6,"toNode":3},{"fromNode":4,"fromOutput":1,"toInput":0,"toNode":5},{"fromNode":15,"fromOutput":0,"toInput":6,"toNode":5},{"fromNode":15,"fromOutput":1,"toInput":7,"toNode":5}],"name":"metall_material","nodes":[{"inputs":[],"is_active_output":false,"name":"Frame","outputs":[],"type":"FRAME_BL"},{"inputs":[],"is_active_output":false,"name":"Frame.001","outputs":[],"type":"FRAME_BL"},{"inputs":[1.4500000476837158,[0.0,0.0,0.0]],"is_active_output":false,"name":"Fresnel","outputs":[0.0],"type":"FRESNEL_BL"},{"blendType":"MIX","clampFactor":true,"clampResult":false,"dataType":"RGBA","factorMode":"UNIFORM","inputs":[0.5,[0.5,0.5,0.5],0.0,0.0,[0.0,0.0,0.0],[0.0,0.0,0.0],[0.5,0.5,0.5,1.0],[0.6795570850372314,0.6795570850372314,0.6795570850372314,1.0],0,0],"is_active_output":false,"name":"Mix.002","outputs":[0.0,[0.0,0.0,0.0],[0.0,0.0,0.0,0.0],0],"type":"MIX_BL"},{"inputs":[0.5,[0.0,0.0,0.0]],"is_active_output":false,"name":"Layer Weight","outputs":[0.0,0.0],"type":"LAYER_WEIGHT_BL"},{"blendType":"MIX","clampFactor":true,"clampResult":false,"dataType":"RGBA","factorMode":"UNIFORM","inputs":[0.5,[0.5,0.5,0.5],0.0,0.0,[0.0,0.0,0.0],[0.0,0.0,0.0],[0.5,0.5,0.5,1.0],[0.5,0.5,0.5,1.0],0,0],"is_active_output":false,"name":"Mix.003","outputs":[0.0,[0.0,0.0,0.0],[0.0,0.0,0.0,0.0],0],"type":"MIX_BL"},{"inputs":[0.5,[0,0,0,0],[0,0,0,0]],"is_active_output":false,"name":"Mix Shader","outputs":[[0,0,0,0]],"type":"MIX_SHADER_BL"},{"inputs":[[0.6266327500343323,0.6266327500343323,0.6266327500343323,1.0],0.0,0.0,0.0,[0.0,0.0,0.0],[0.0,0.0,0.0]],"is_active_output":false,"name":"Glossy BSDF","outputs":[[0,0,0,0]],"type":"BSDF_GLOSSY_BL"},{"inputs":[0.5,23.39999771118164,0.5],"is_active_output":false,"name":"Math.001","operation":"MULTIPLY","outputs":[0.0],"type":"MATH_BL","useClamp":true},{"inputs":[0.5,0.07000000029802322,0.5],"is_active_output":false,"name":"Math","operation":"ADD","outputs":[0.0],"type":"MATH_BL","useClamp":false},{"inputs":[[0.800000011920929,0.800000011920929,0.800000011920929,1.0]],"is_active_output":false,"mode":"RGB","name":"Separate RGB","outputs":[0.0,0.0,0.0],"type":"SEPARATE_COLOR_BL"},{"inputs":[],"is_active_output":false,"name":"Geometry","outputs":[[0.0,0.0,0.0],[0.0,0.0,0.0],[0.0,0.0,0.0],[0.0,0.0,0.0],[0.0,0.0,0.0],[0.0,0.0,0.0],0.0,0.0,0.0],"type":"NEW_GEOMETRY_BL"},{"inputs":[[1.0,1.0,1.0,1.0],1.0],"is_active_output":false,"name":"Emission.001","outputs":[[0,0,0,0]],"type":"EMISSION_BL"},{"inputs":[[0.0,0.0,0.0,1.0],0.0,[0.0,0.0,0.0]],"is_active_output":false,"name":"Diffuse BSDF","outputs":[[0,0,0,0]],"type":"BSDF_DIFFUSE_BL"},{"inputs":[0.5,[0,0,0,0],[0,0,0,0]],"is_active_output":false,"name":"Mix Shader.001","outputs":[[0,0,0,0]],"type":"MIX_SHADER_BL"},{"inputs":[],"is_active_output":false,"name":"Group Input","outputs":[[0.0,0.0,0.0,1.0],[0.0,0.0,0.0,1.0],0.0],"type":"GROUP_INPUT_BL"},{"colorLayer":"engrave_mask","inputs":[],"is_active_output":false,"name":"Attribute","outputs":[[0.0,0.0,0.0,0.0],[0.0,0.0,0.0],0.0,0.0],"type":"ATTRIBUTE_BL"},{"alphaMode":"STRAIGHT","inputs":[[0.0,0.0,0.0]],"is_active_output":false,"name":"Image Texture.001","outputs":[[0.0,0.0,0.0,0.0],0.0],"projection":"FLAT","projectionBlend":0.0,"texture":1,"type":"TEX_IMAGE_BL"},{"inputs":[],"is_active_output":false,"name":"UV Map","outputs":[[0.0,0.0,0.0]],"type":"UVMAP_BL","uvLayer":"engrave"},{"inputs":[1.0,[0.5,0.5,1.0,1.0]],"is_active_output":false,"name":"Normal Map","outputs":[[0.0,0.0,0.0]],"type":"NORMAL_MAP_BL","uvLayer":"engrave"},{"blendType":"MIX","clampFactor":true,"clampResult":false,"dataType":"RGBA","factorMode":"UNIFORM","inputs":[0.5,[0.5,0.5,0.5],0.0,0.0,[0.0,0.0,0.0],[0.0,0.0,0.0],[0.5,0.5,0.5,1.0],[0.5,0.5,0.5,1.0],0,0],"is_active_output":false,"name":"Mix.001","outputs":[0.0,[0.0,0.0,0.0],[0.0,0.0,0.0,0.0],0],"type":"MIX_BL"},{"inputs":[],"is_active_output":false,"name":"Geometry.001","outputs":[[0.0,0.0,0.0],[0.0,0.0,0.0],[0.0,0.0,0.0],[0.0,0.0,0.0],[0.0,0.0,0.0],[0.0,0.0,0.0],0.0,0.0,0.0],"type":"NEW_GEOMETRY_BL"},{"blendType":"MIX","clampFactor":true,"clampResult":false,"dataType":"RGBA","factorMode":"UNIFORM","inputs":[0.5,[0.5,0.5,0.5],0.0,0.0,[0.0,0.0,0.0],[0.0,0.0,0.0],[0.7743505835533142,0.7743505835533142,0.7743505835533142,1.0],[1.0,1.0,1.0,1.0],0,0],"is_active_output":false,"name":"Mix","outputs":[0.0,[0.0,0.0,0.0],[0.0,0.0,0.0,0.0],0],"type":"MIX_BL"},{"alphaMode":"STRAIGHT","inputs":[[0.0,0.0,0.0]],"is_active_output":false,"name":"Image Texture","outputs":[[0.0,0.0,0.0,0.0],0.0],"projection":"FLAT","projectionBlend":0.0,"texture":2,"type":"TEX_IMAGE_BL"},{"inputs":[[0,0,0,0]],"is_active_output":true,"name":"Group Output","outputs":[],"type":"GROUP_OUTPUT_BL"}]},{"edges":[{"fromNode":1,"fromOutput":1,"toInput":1,"toNode":11},{"fromNode":7,"fromOutput":0,"toInput":0,"toNode":8},{"fromNode":8,"fromOutput":0,"toInput":0,"toNode":0},{"fromNode":1,"fromOutput":1,"toInput":1,"toNode":8},{"fromNode":0,"fromOutput":0,"toInput":0,"toNode":2},{"fromNode":4,"fromOutput":0,"toInput":1,"toNode":9},{"fromNode":9,"fromOutput":0,"toInput":0,"toNode":13},{"fromNode":10,"fromOutput":0,"toInput":2,"toNode":9},{"fromNode":11,"fromOutput":0,"toInput":0,"toNode":9},{"fromNode":2,"fromOutput":0,"toInput":6,"toNode":3},{"fromNode":3,"fromOutput":2,"toInput":6,"toNode":5},{"fromNode":12,"fromOutput":0,"toInput":7,"toNode":3},{"fromNode":5,"fromOutput":2,"toInput":0,"toNode":4},{"fromNode":12,"fromOutput":0,"toInput":0,"toNode":6},{"fromNode":6,"fromOutput":2,"toInput":7,"toNode":5}],"name":"outer_gem_material","nodes":[{"dispersionFactor":1.0,"falloffFactor":0.0,"inputs":[[0.0,0.0,0.0],0.0,1.8000000715255737,0.8999999761581421,0.5,2.0,0.0],"is_active_output":false,"name":"Noise Texture.001","outputs":[0.0,[0.0,0.0,0.0,0.0]],"type":"TEX_NOISE_BL"},{"inputs":[],"is_active_output":false,"name":"Geometry","outputs":[[0.0,0.0,0.0],[0.0,0.0,0.0],[0.0,0.0,0.0],[0.0,0.0,0.0],[0.0,0.0,0.0],[0.0,0.0,0.0],0.0,0.0,0.0],"type":"NEW_GEOMETRY_BL"},{"curve":{"input":[0.0,0.6272729635238647],"interpolation":"LINEAR","output":[0.28444889187812805,0.28444889187812805,0.28444889187812805,1.0,1.0,1.0,1.0,1.0]},"inputs":[0.5],"is_active_output":false,"name":"ColorRamp.001","outputs":[[0.0,0.0,0.0,0.0],0.0],"type":"VALTORGB_BL"},{"blendType":"COLOR","clampFactor":true,"clampResult":false,"dataType":"RGBA","factorMode":"UNIFORM","inputs":[1.0,[0.5,0.5,0.5],0.0,0.0,[0.0,0.0,0.0],[0.0,0.0,0.0],[0.5,0.5,0.5,1.0],[0.23454074561595917,0.49895036220550537,1.0,1.0],0,0],"is_active_output":false,"name":"Mix","outputs":[0.0,[0.0,0.0,0.0],[0.0,0.0,0.0,0.0],0],"type":"MIX_BL"},{"distribution":"BECKMANN","inputs":[[0.09989873319864273,0.004391442518681288,0.0,1.0],0.0,3.5,[0.0,0.0,0.0]],"is_active_output":false,"name":"Refraction BSDF","outputs":[[0,0,0,0]],"type":"BSDF_REFRACTION_BL"},{"blendType":"MULTIPLY","clampFactor":true,"clampResult":false,"dataType":"RGBA","factorMode":"UNIFORM","inputs":[1.0,[0.5,0.5,0.5],0.0,0.0,[0.0,0.0,0.0],[0.0,0.0,0.0],[0.5,0.5,0.5,1.0],[0.5,0.5,0.5,1.0],0,0],"is_active_output":false,"name":"Mix.001","outputs":[0.0,[0.0,0.0,0.0],[0.0,0.0,0.0,0.0],0],"type":"MIX_BL"},{"inputs":[[0.800000011920929,0.800000011920929,0.800000011920929,1.0]],"is_active_output":false,"mode":"HSV","name":"Separate HSV","outputs":[0.0,0.0,0.0],"type":"SEPARATE_COLOR_BL"},{"inputs":[],"is_active_output":false,"name":"Texture Coordinate","object":-1,"outputs":[[0.0,0.0,0.0],[0.0,0.0,0.0],[0.0,0.0,0.0],[0.0,0.0,0.0],[0.0,0.0,0.0],[0.0,0.0,0.0],[0.0,0.0,0.0]],"type":"TEX_COORD_BL"},{"inputs":[[0.5,0.5,0.5],[0.5,0.5,0.5],[0.0,0.0,0.0],1.0],"is_active_output":false,"name":"Vector Math","operation":"ADD","outputs":[[0.0,0.0,0.0],0.0],"type":"VECT_MATH_BL"},{"inputs":[0.5,[0,0,0,0],[0,0,0,0]],"is_active_output":false,"name":"Mix Shader","outputs":[[0,0,0,0]],"type":"MIX_SHADER_BL"},{"inputs":[[0.800000011920929,0.800000011920929,0.800000011920929,1.0],0.0,0.0,0.0,[0.0,0.0,0.0],[0.0,0.0,0.0]],"is_active_output":false,"name":"Glossy BSDF","outputs":[[0,0,0,0]],"type":"BSDF_GLOSSY_BL"},{"inputs":[2.499999523162842,[0.0,0.0,0.0]],"is_active_output":false,"name":"Fresnel","outputs":[0.0],"type":"FRESNEL_BL"},{"inputs":[],"is_active_output":false,"name":"Group Input","outputs":[[0.0,0.0,0.0,1.0]],"type":"GROUP_INPUT_BL"},{"inputs":[[0,0,0,0]],"is_active_output":true,"name":"Group Output","outputs":[],"type":"GROUP_OUTPUT_BL"}]}]}},"extensionsUsed":["S8S_v3d_texture","S8S_v3d_materials","S8S_v3d_camera","S8S_v3d_mesh","S8S_v3d_node","S8S_v3d_scene"],"images":[{"uri":"environment.hdr"},{"uri":"engrave_normal.jpg"},{"uri":"engrave_ao.jpg"}],"materials":[{"extensions":{"S8S_v3d_materials":{"gtaoVisible":true,"materialIndex":0,"nodeGraph":{"edges":[{"fromNode":2,"fromOutput":0,"toInput":0,"toNode":1},{"fromNode":0,"fromOutput":0,"toInput":0,"toNode":2}],"nodes":[{"inputs":[],"is_active_output":false,"name":"Value","outputs":[0.009999999776482582],"type":"VALUE_BL"},{"inputs":[[0,0,0,0],[0,0,0,0],[0.0,0.0,0.0],0.0],"is_active_output":true,"name":"Material Output","outputs":[],"type":"OUTPUT_MATERIAL_BL"},{"inputs":[0.0],"is_active_output":false,"name":"Group","nodeGraph":0,"outputs":[[0,0,0,0]],"type":"GROUP_BL"}]},"useCastShadows":true}},"name":"gem_inner"},{"extensions":{"S8S_v3d_materials":{"gtaoVisible":true,"materialIndex":0,"nodeGraph":{"edges":[{"fromNode":0,"fromOutput":0,"toInput":0,"toNode":2},{"fromNode":1,"fromOutput":0,"toInput":0,"toNode":0}],"nodes":[{"inputs":[[0.0,0.0,0.0,1.0]],"is_active_output":false,"name":"Group","nodeGraph":2,"outputs":[[0,0,0,0]],"type":"GROUP_BL"},{"inputs":[],"is_active_output":false,"name":"gem_color","outputs":[[0.800000011920929,0.800000011920929,0.800000011920929,1.0]],"type":"RGB_BL"},{"inputs":[[0,0,0,0],[0,0,0,0],[0.0,0.0,0.0],0.0],"is_active_output":true,"name":"Material Output","outputs":[],"type":"OUTPUT_MATERIAL_BL"}]},"useCastShadows":true}},"name":"gem_outer"},{"extensions":{"S8S_v3d_materials":{"gtaoVisible":true,"materialIndex":0,"nodeGraph":{"edges":[{"fromNode":4,"fromOutput":0,"toInput":0,"toNode":3},{"fromNode":1,"fromOutput":0,"toInput":1,"toNode":4},{"fromNode":0,"fromOutput":0,"toInput":0,"toNode":4},{"fromNode":2,"fromOutput":0,"toInput":2,"toNode":4}],"nodes":[{"inputs":[],"is_active_output":false,"name":"metall_color_1","outputs":[[0.7293471693992615,0.7293471693992615,0.7293471693992615,1.0]],"type":"RGB_BL"},{"inputs":[],"is_active_output":false,"name":"metall_color_2","outputs":[[0.5382355451583862,0.5382355451583862,0.5382355451583862,1.0]],"type":"RGB_BL"},{"inputs":[],"is_active_output":false,"name":"metall_roughness","outputs":[0.0],"type":"VALUE_BL"},{"inputs":[[0,0,0,0],[0,0,0,0],[0.0,0.0,0.0],0.0],"is_active_output":true,"name":"Material Output","outputs":[],"type":"OUTPUT_MATERIAL_BL"},{"inputs":[[0.0,0.0,0.0,1.0],[0.0,0.0,0.0,1.0],0.0],"is_active_output":false,"name":"Group","nodeGraph":1,"outputs":[[0,0,0,0]],"type":"GROUP_BL"}]},"useCastShadows":true}},"name":"metall"},{"extensions":{"S8S_v3d_materials":{"gtaoVisible":true,"materialIndex":0,"nodeGraph":{"edges":[{"fromNode":2,"fromOutput":0,"toInput":0,"toNode":0},{"fromNode":4,"fromOutput":0,"toInput":6,"toNode":3},{"fromNode":1,"fromOutput":0,"toInput":0,"toNode":3},{"fromNode":3,"fromOutput":2,"toInput":0,"toNode":2}],"nodes":[{"inputs":[[0,0,0,0],[0,0,0,0]],"is_active_output":true,"name":"World Output","outputs":[],"type":"OUTPUT_WORLD_BL"},{"inputs":[],"is_active_output":false,"name":"Light Path","outputs":[0.0,0.0,0.0,0.0,0.0,0.0,0.0,0.0,0.0,0.0,0.0,0.0,0.0],"type":"LIGHT_PATH_BL"},{"inputs":[[1.0,1.0,1.0,1.0],1.0000001192092896],"is_active_output":false,"name":"Background","outputs":[[0,0,0,0]],"type":"BACKGROUND_BL"},{"blendType":"MIX","clampFactor":true,"clampResult":false,"dataType":"RGBA","factorMode":"UNIFORM","inputs":[0.5,[0.5,0.5,0.5],0.0,0.0,[0.0,0.0,0.0],[0.0,0.0,0.0],[0.5,0.5,0.5,1.0],[1.0,1.0,1.0,1.0],0,0],"is_active_output":false,"name":"Mix","outputs":[0.0,[0.0,0.0,0.0],[0.0,0.0,0.0,0.0],0],"type":"MIX_BL"},{"inputs":[[0.0,0.0,0.0]],"is_active_output":false,"name":"Environment Texture","outputs":[[0.0,0.0,0.0,0.0]],"projection":"EQUIRECTANGULAR","texture":0,"type":"TEX_ENVIRONMENT_BL"}]},"useCastShadows":true}},"name":"Verge3D_Environment_World"}],"meshes":[{"extensions":{"S8S_v3d_mesh":{"colorLayers":{},"uvLayers":{"UVMap":"TEXCOORD_0"}}},"name":"gem_6_inside","primitives":[{"attributes":{"NORMAL":2,"POSITION":1,"TEXCOORD_0":3},"indices":0,"material":0,"mode":4}]},{"extensions":{"S8S_v3d_mesh":{"colorLayers":{},"uvLayers":{}}},"name":"gem_6_inside_1.001","primitives":[{"attributes":{"NORMAL":6,"POSITION":5},"indices":4,"material":0,"mode":4}]},{"extensions":{"S8S_v3d_mesh":{"colorLayers":{},"uvLayers":{}}},"name":"gem_6_inside_1.003","primitives":[{"attributes":{"NORMAL":9,"POSITION":8},"indices":7,"material":0,"mode":4}]},{"extensions":{"S8S_v3d_mesh":{"colorLayers":{},"uvLayers":{}}},"name":"gem_6_inside_1.005","primitives":[{"attributes":{"NORMAL":12,"POSITION":11},"indices":10,"material":0,"mode":4}]},{"extensions":{"S8S_v3d_mesh":{"colorLayers":{},"uvLayers":{}}},"name":"gem_6_inside_1.007","primitives":[{"attributes":{"NORMAL":15,"POSITION":14},"indices":13,"material":0,"mode":4}]},{"extensions":{"S8S_v3d_mesh":{"colorLayers":{},"uvLayers":{}}},"name":"gem_6_inside_1.009","primitives":[{"attributes":{"NORMAL":18,"POSITION":17},"indices":16,"material":0,"mode":4}]},{"extensions":{"S8S_v3d_mesh":{"colorLayers":{},"uvLayers":{"UVMap":"TEXCOORD_0"}}},"name":"gem_6_outside","primitives":[{"attributes":{"NORMAL":21,"POSITION":20,"TEXCOORD_0":22},"indices":19,"material":1,"mode":4}]},{"extensions":{"S8S_v3d_mesh":{"colorLayers":{},"uvLayers":{}}},"name":"gem_6_outside_1.001","primitives":[{"attributes":{"NORMAL":25,"POSITION":24},"indices":23,"material":1,"mode":4}]},{"extensions":{"S8S_v3d_mesh":{"colorLayers":{},"uvLayers":{}}},"name":"gem_6_outside_1.003","primitives":[{"attributes":{"NORMAL":28,"POSITION":27},"indices":26,"material":1,"mode":4}]},{"extensions":{"S8S_v3d_mesh":{"colorLayers":{},"uvLayers":{}}},"name":"gem_6_outside_1.005","primitives":[{"attributes":{"NORMAL":31,"POSITION":30},"indices":29,"material":1,"mode":4}]},{"extensions":{"S8S_v3d_mesh":{"colorLayers":{},"uvLayers":{}}},"name":"gem_6_outside_1.007","primitives":[{"attributes":{"NORMAL":34,"POSITION":33},"indices":32,"material":1,"mode":4}]},{"extensions":{"S8S_v3d_mesh":{"colorLayers":{},"uvLayers":{}}},"name":"gem_6_outside_1.009","primitives":[{"attributes":{"NORMAL":37,"POSITION":36},"indices":35,"material":1,"mode":4}]},{"extensions":{"S8S_v3d_mesh":{"colorLayers":{"engrave_mask":"COLOR_0"},"uvLayers":{"engrave":"TEXCOORD_0"}}},"name":"ring_type_1_gem_6_curve_0_line_0","primitives":[{"attributes":{"COLOR_0":43,"NORMAL":40,"POSITION":39,"TANGENT":41,"TEXCOORD_0":42},"indices":38,"material":2,"mode":4}]},{"extensions":{"S8S_v3d_mesh":{"colorLayers":{"engrave_mask":"COLOR_0"},"uvLayers":{"engrave":"TEXCOORD_0"}}},"name":"ring_type_1_gem_6_curve_0_line_1","primitives":[{"attributes":{"COLOR_0":49,"NORMAL":46,"POSITION":45,"TANGENT":47,"TEXCOORD_0":48},"indices":44,"material":2,"mode":4}]},{"extensions":{"S8S_v3d_mesh":{"colorLayers":{"engrave_mask":"COLOR_0"},"uvLayers":{"engrave":"TEXCOORD_0"}}},"name":"ring_type_2_squa_gem.001","primitives":[{"attributes":{"COLOR_0":55,"NORMAL":52,"POSITION":51,"TANGENT":53,"TEXCOORD_0":54},"indices":50,"material":2,"mode":4}]},{"extensions":{"S8S_v3d_mesh":{"colorLayers":{"engrave_mask":"COLOR_0"},"uvLayers":{"engrave":"TEXCOORD_0"}}},"name":"ring_type_2_squa_gem.002","primitives":[{"attributes":{"COLOR_0":61,"NORMAL":58,"POSITION":57,"TANGENT":59,"TEXCOORD_0":60},"indices":56,"material":2,"mode":4}]},{"extensions":{"S8S_v3d_mesh":{"colorLayers":{"engrave_mask":"COLOR_0"},"uvLayers":{"engrave":"TEXCOORD_0"}}},"name":"ring_type_3_squa_gem.001","primitives":[{"attributes":{"COLOR_0":67,"NORMAL":64,"POSITION":63,"TANGENT":65,"TEXCOORD_0":66},"indices":62,"material":2,"mode":4}]},{"extensions":{"S8S_v3d_mesh":{"colorLayers":{"engrave_mask":"COLOR_0"},"uvLayers":{"engrave":"TEXCOORD_0"}}},"name":"ring_type_3_squa_gem.002","primitives":[{"attributes":{"COLOR_0":73,"NORMAL":70,"POSITION":69,"TANGENT":71,"TEXCOORD_0":72},"indices":68,"material":2,"mode":4}]},{"extensions":{"S8S_v3d_mesh":{"colorLayers":{"engrave_mask":"COLOR_0"},"uvLayers":{"engrave":"TEXCOORD_0"}}},"name":"ring_type_4_squa_gem.001","primitives":[{"attributes":{"COLOR_0":79,"NORMAL":76,"POSITION":75,"TANGENT":77,"TEXCOORD_0":78},"indices":74,"material":2,"mode":4}]},{"extensions":{"S8S_v3d_mesh":{"colorLayers":{"engrave_mask":"COLOR_0"},"uvLayers":{"engrave":"TEXCOORD_0"}}},"name":"ring_type_4_squa_gem.002","primitives":[{"attributes":{"COLOR_0":85,"NORMAL":82,"POSITION":81,"TANGENT":83,"TEXCOORD_0":84},"indices":80,"material":2,"mode":4}]},{"extensions":{"S8S_v3d_mesh":{"colorLayers":{"engrave_mask":"COLOR_0"},"uvLayers":{"engrave":"TEXCOORD_0"}}},"name":"ring_type_5_rec_gem.001","primitives":[{"attributes":{"COLOR_0":91,"NORMAL":88,"POSITION":87,"TANGENT":89,"TEXCOORD_0":90},"indices":86,"material":2,"mode":4}]},{"extensions":{"S8S_v3d_mesh":{"colorLayers":{"engrave_mask":"COLOR_0"},"uvLayers":{"engrave":"TEXCOORD_0"}}},"name":"ring_type_5_rec_gem.003","primitives":[{"attributes":{"COLOR_0":97,"NORMAL":94,"POSITION":93,"TANGENT":95,"TEXCOORD_0":96},"indices":92,"material":2,"mode":4}]}],"nodes":[{"children":[29,38],"extensions":{"S8S_v3d_node":{"frustumCulling":true,"groupNames":["gem_6_line_0"],"hidden":true,"hidpiCompositing":false,"objectColor":[1.0,1.0,1.0,1.0],"objectIndex":0,"renderOrder":0,"useShadows":true}},"mesh":16,"name":"ring_type_3_gem_6_curve_0_line_0","translation":[0.0,7.999999797903001e-05,-0.0]},{"children":[42,28],"extensions":{"S8S_v3d_node":{"frustumCulling":true,"groupNames":["gem_6_line_0"],"hidden":true,"hidpiCompositing":false,"objectColor":[1.0,1.0,1.0,1.0],"objectIndex":0,"renderOrder":0,"useShadows":true}},"mesh":21,"name":"ring_type_5_gem_6_curve_0_line_0","translation":[0.0,0.0005150000215508044,-0.0]},{"extensions":{"S8S_v3d_node":{"frustumCulling":true,"groupNames":["gem_6_line_0"],"hidden":true,"hidpiCompositing":false,"objectColor":[1.0,1.0,1.0,1.0],"objectIndex":0,"renderOrder":0,"useShadows":true}},"mesh":6,"name":"gem_type_1_gem_6_curve_0_line_0_outside","translation":[0.0,0.03812466561794281,-0.10000000149011612]},{"children":[2],"name":"v3d_Proxy_Node_0_gem_type_1_gem_6_curve_0_line_0_outside","translation":[-0.0,-0.0,0.10000000149011612]},{"children":[22,3],"extensions":{"S8S_v3d_node":{"frustumCulling":true,"groupNames":["gem_6_line_0"],"hidden":true,"hidpiCompositing":false,"objectColor":[1.0,1.0,1.0,1.0],"objectIndex":0,"renderOrder":0,"useShadows":true}},"mesh":12,"name":"ring_type_1_gem_6_curve_0_line_0","translation":[0.0,1.4999999621068127e-05,-0.0]},{"extensions":{"S8S_v3d_node":{"frustumCulling":true,"groupNames":["gem_6_line_0"],"hidden":true,"hidpiCompositing":false,"objectColor":[1.0,1.0,1.0,1.0],"objectIndex":0,"renderOrder":0,"useShadows":true}},"mesh":6,"name":"gem_type_4_gem_6_curve_0_line_0_outside","translation":[0.0,0.03812466561794281,0.05000000074505806]},{"children":[5],"name":"v3d_Proxy_Node_0_gem_type_4_gem_6_curve_0_line_0_outside","translation":[-0.0,-0.0,-0.05000000074505806]},{"extensions":{"S8S_v3d_node":{"frustumCulling":true,"groupNames":["gem_6_line_1"],"hidden":true,"hidpiCompositing":false,"objectColor":[1.0,1.0,1.0,1.0],"objectIndex":0,"renderOrder":0,"useShadows":true}},"mesh":8,"name":"gem_type_4_gem_6_curve_0_line_1_outside_1","rotation":[1.9470718370939721e-07,1.6292068494294654e-07,-1.0,1.7478846739112444e-14],"translation":[0.10000000894069672,-2.1523225774344387e-15,0.05000000447034836]},{"children":[7],"name":"v3d_Proxy_Node_0_gem_type_4_gem_6_curve_0_line_1_outside_1","translation":[-0.10000000149011612,-0.0,-0.05000000074505806]},{"extensions":{"S8S_v3d_node":{"frustumCulling":true,"groupNames":["gem_6_line_1"],"hidden":true,"hidpiCompositing":false,"objectColor":[1.0,1.0,1.0,1.0],"objectIndex":0,"renderOrder":0,"useShadows":true}},"mesh":10,"name":"gem_type_2_gem_6_curve_0_line_1_outside_1","rotation":[1.9470718370939721e-07,1.6292068494294654e-07,-1.0,1.7478846739112444e-14],"translation":[0.09999999403953552,-2.1523225774344387e-15,-0.04999999701976776]},{"children":[9],"name":"v3d_Proxy_Node_0_gem_type_2_gem_6_curve_0_line_1_outside_1","translation":[-0.10000000149011612,-0.0,0.05000000074505806]},{"extensions":{"S8S_v3d_node":{"frustumCulling":true,"groupNames":["gem_6_line_1"],"hidden":true,"hidpiCompositing":false,"objectColor":[1.0,1.0,1.0,1.0],"objectIndex":0,"renderOrder":0,"useShadows":true}},"mesh":0,"name":"gem_type_2_gem_6_curve_0_line_1_inside","translation":[0.10000000149011612,0.03812466561794281,-0.05000000074505806]},{"children":[11],"name":"v3d_Proxy_Node_0_gem_type_2_gem_6_curve_0_line_1_inside","translation":[-0.10000000149011612,-0.0,0.05000000074505806]},{"extensions":{"S8S_v3d_node":{"frustumCulling":true,"groupNames":["gem_6_line_1"],"hidden":true,"hidpiCompositing":false,"objectColor":[1.0,1.0,1.0,1.0],"objectIndex":0,"renderOrder":0,"useShadows":true}},"mesh":3,"name":"gem_type_3_gem_6_curve_0_line_1_inside_1","rotation":[1.9470718370939721e-07,1.6292068494294654e-07,-1.0,1.7478846739112444e-14],"translation":[0.10000000149011612,-8.470329472543003e-22,1.7763578981914345e-15]},{"children":[13],"name":"v3d_Proxy_Node_0_gem_type_3_gem_6_curve_0_line_1_inside_1","translation":[-0.10000000149011612,-0.0,-0.0]},{"extensions":{"S8S_v3d_node":{"frustumCulling":true,"groupNames":["gem_6_line_1"],"hidden":true,"hidpiCompositing":false,"objectColor":[1.0,1.0,1.0,1.0],"objectIndex":0,"renderOrder":0,"useShadows":true}},"mesh":0,"name":"gem_type_5_gem_6_curve_0_line_1_inside","translation":[0.10000000149011612,0.03812466561794281,0.10000000149011612]},{"children":[15],"name":"v3d_Proxy_Node_0_gem_type_5_gem_6_curve_0_line_1_inside","translation":[-0.10000000149011612,-0.0,-0.10000000149011612]},{"extensions":{"S8S_v3d_node":{"frustumCulling":true,"groupNames":["gem_6_line_1"],"hidden":true,"hidpiCompositing":false,"objectColor":[1.0,1.0,1.0,1.0],"objectIndex":0,"renderOrder":0,"useShadows":true}},"mesh":5,"name":"gem_type_5_gem_6_curve_0_line_1_inside_1","rotation":[1.9470718370939721e-07,1.6292068494294654e-07,-1.0,1.7478846739112444e-14],"translation":[0.09999999403953552,-3.7596573803418826e-16,0.10000000149011612]},{"children":[17],"name":"v3d_Proxy_Node_0_gem_type_5_gem_6_curve_0_line_1_inside_1","translation":[-0.10000000149011612,-0.0,-0.10000000149011612]},{"extensions":{"S8S_v3d_node":{"frustumCulling":true,"groupNames":["gem_6_line_0"],"hidden":true,"hidpiCompositing":false,"objectColor":[1.0,1.0,1.0,1.0],"objectIndex":0,"renderOrder":0,"useShadows":true}},"mesh":6,"name":"gem_type_2_gem_6_curve_0_line_0_outside","translation":[0.0,0.03812466561794281,-0.05000000074505806]},{"children":[19],"name":"v3d_Proxy_Node_0_gem_type_2_gem_6_curve_0_line_0_outside","translation":[-0.0,-0.0,0.05000000074505806]},{"extensions":{"S8S_v3d_node":{"frustumCulling":true,"groupNames":["gem_6_line_0"],"hidden":true,"hidpiCompositing":false,"objectColor":[1.0,1.0,1.0,1.0],"objectIndex":0,"renderOrder":0,"useShadows":true}},"mesh":0,"name":"gem_type_1_gem_6_curve_0_line_0_inside","translation":[0.0,0.03812466561794281,-0.10000000149011612]},{"children":[21],"name":"v3d_Proxy_Node_0_gem_type_1_gem_6_curve_0_line_0_inside","translation":[-0.0,-0.0,0.10000000149011612]},{"extensions":{"S8S_v3d_node":{"frustumCulling":true,"groupNames":["gem_6_line_0"],"hidden":true,"hidpiCompositing":false,"objectColor":[1.0,1.0,1.0,1.0],"objectIndex":0,"renderOrder":0,"useShadows":true}},"mesh":0,"name":"gem_type_4_gem_6_curve_0_line_0_inside","translation":[0.0,0.03812466561794281,0.05000000074505806]},{"children":[23],"name":"v3d_Proxy_Node_0_gem_type_4_gem_6_curve_0_line_0_inside","translation":[-0.0,-0.0,-0.05000000074505806]},{"children":[50,35,8,68],"extensions":{"S8S_v3d_node":{"frustumCulling":true,"groupNames":["gem_6_line_1"],"hidden":true,"hidpiCompositing":false,"objectColor":[1.0,1.0,1.0,1.0],"objectIndex":0,"renderOrder":0,"useShadows":true}},"mesh":19,"name":"ring_type_4_gem_6_curve_0_line_1","translation":[0.0,2.9999999242136255e-05,-0.0]},{"children":[12,66,31,10],"extensions":{"S8S_v3d_node":{"frustumCulling":true,"groupNames":["gem_6_line_1"],"hidden":true,"hidpiCompositing":false,"objectColor":[1.0,1.0,1.0,1.0],"objectIndex":0,"renderOrder":0,"useShadows":true}},"mesh":15,"name":"ring_type_2_gem_6_curve_0_line_1","translation":[0.0,0.0002500000118743628,-0.0]},{"extensions":{"S8S_v3d_node":{"frustumCulling":true,"groupNames":["gem_6_line_0"],"hidden":true,"hidpiCompositing":false,"objectColor":[1.0,1.0,1.0,1.0],"objectIndex":0,"renderOrder":0,"useShadows":true}},"mesh":6,"name":"gem_type_5_gem_6_curve_0_line_0_outside","translation":[0.0,0.03812466561794281,0.10000000149011612]},{"children":[27],"name":"v3d_Proxy_Node_0_gem_type_5_gem_6_curve_0_line_0_outside","translation":[-0.0,-0.0,-0.10000000149011612]},{"extensions":{"S8S_v3d_node":{"frustumCulling":true,"groupNames":["gem_6_line_0"],"hidden":true,"hidpiCompositing":false,"objectColor":[1.0,1.0,1.0,1.0],"objectIndex":0,"renderOrder":0,"useShadows":true}},"mesh":0,"name":"gem_type_3_gem_6_curve_0_line_0_inside","translation":[0.0,0.03812466561794281,-0.0]},{"extensions":{"S8S_v3d_node":{"frustumCulling":true,"groupNames":["gem_6_line_1"],"hidden":true,"hidpiCompositing":false,"objectColor":[1.0,1.0,1.0,1.0],"objectIndex":0,"renderOrder":0,"useShadows":true}},"mesh":6,"name":"gem_type_2_gem_6_curve_0_line_1_outside","translation":[0.10000000149011612,0.03812466561794281,-0.05000000074505806]},{"children":[30],"name":"v3d_Proxy_Node_0_gem_type_2_gem_6_curve_0_line_1_outside","translation":[-0.10000000149011612,-0.0,0.05000000074505806]},{"extensions":{"S8S_v3d_node":{"frustumCulling":true,"groupNames":["gem_6_line_1"],"hidden":true,"hidpiCompositing":false,"objectColor":[1.0,1.0,1.0,1.0],"objectIndex":0,"renderOrder":0,"useShadows":true}},"mesh":6,"name":"gem_type_1_gem_6_curve_0_line_1_outside","translation":[0.10000000149011612,0.03812466561794281,-0.10000000149011612]},{"children":[32],"name":"v3d_Proxy_Node_0_gem_type_1_gem_6_curve_0_line_1_outside","translation":[-0.10000000149011612,-0.0,0.10000000149011612]},{"extensions":{"S8S_v3d_node":{"frustumCulling":true,"groupNames":["gem_6_line_1"],"hidden":true,"hidpiCompositing":false,"objectColor":[1.0,1.0,1.0,1.0],"objectIndex":0,"renderOrder":0,"useShadows":true}},"mesh":6,"name":"gem_type_4_gem_6_curve_0_line_1_outside","translation":[0.10000000149011612,0.03812466561794281,0.05000000074505806]},{"children":[34],"name":"v3d_Proxy_Node_0_gem_type_4_gem_6_curve_0_line_1_outside","translation":[-0.10000000149011612,-0.0,-0.05000000074505806]},{"children":[40,20],"extensions":{"S8S_v3d_node":{"frustumCulling":true,"groupNames":["gem_6_line_0"],"hidden":true,"hidpiCompositing":false,"objectColor":[1.0,1.0,1.0,1.0],"objectIndex":0,"renderOrder":0,"useShadows":true}},"mesh":14,"name":"ring_type_2_gem_6_curve_0_line_0","translation":[0.0,0.0002500000118743628,-0.0]},{"children":[24,6],"extensions":{"S8S_v3d_node":{"frustumCulling":true,"groupNames":["gem_6_line_0"],"hidden":true,"hidpiCompositing":false,"objectColor":[1.0,1.0,1.0,1.0],"objectIndex":0,"renderOrder":0,"useShadows":true}},"mesh":18,"name":"ring_type_4_gem_6_curve_0_line_0","translation":[0.0,2.9999999242136255e-05,-0.0]},{"extensions":{"S8S_v3d_node":{"frustumCulling":true,"groupNames":["gem_6_line_0"],"hidden":true,"hidpiCompositing":false,"objectColor":[1.0,1.0,1.0,1.0],"objectIndex":0,"renderOrder":0,"useShadows":true}},"mesh":6,"name":"gem_type_3_gem_6_curve_0_line_0_outside","translation":[0.0,0.03812466561794281,-0.0]},{"extensions":{"S8S_v3d_node":{"frustumCulling":true,"groupNames":["gem_6_line_0"],"hidden":true,"hidpiCompositing":false,"objectColor":[1.0,1.0,1.0,1.0],"objectIndex":0,"renderOrder":0,"useShadows":true}},"mesh":0,"name":"gem_type_2_gem_6_curve_0_line_0_inside","translation":[0.0,0.03812466561794281,-0.05000000074505806]},{"children":[39],"name":"v3d_Proxy_Node_0_gem_type_2_gem_6_curve_0_line_0_inside","translation":[-0.0,-0.0,0.05000000074505806]},{"extensions":{"S8S_v3d_node":{"frustumCulling":true,"groupNames":["gem_6_line_0"],"hidden":true,"hidpiCompositing":false,"objectColor":[1.0,1.0,1.0,1.0],"objectIndex":0,"renderOrder":0,"useShadows":true}},"mesh":0,"name":"gem_type_5_gem_6_curve_0_line_0_inside","translation":[0.0,0.03812466561794281,0.10000000149011612]},{"children":[41],"name":"v3d_Proxy_Node_0_gem_type_5_gem_6_curve_0_line_0_inside","translation":[-0.0,-0.0,-0.10000000149011612]},{"extensions":{"S8S_v3d_node":{"frustumCulling":true,"groupNames":["gem_6_line_1"],"hidden":true,"hidpiCompositing":false,"objectColor":[1.0,1.0,1.0,1.0],"objectIndex":0,"renderOrder":0,"useShadows":true}},"mesh":6,"name":"gem_type_5_gem_6_curve_0_line_1_outside","translation":[0.10000000149011612,0.03812466561794281,0.10000000149011612]},{"children":[43],"name":"v3d_Proxy_Node_0_gem_type_5_gem_6_curve_0_line_1_outside","translation":[-0.10000000149011612,-0.0,-0.10000000149011612]},{"extensions":{"S8S_v3d_node":{"frustumCulling":true,"groupNames":["gem_6_line_1"],"hidden":true,"hidpiCompositing":false,"objectColor":[1.0,1.0,1.0,1.0],"objectIndex":0,"renderOrder":0,"useShadows":true}},"mesh":9,"name":"gem_type_3_gem_6_curve_0_line_1_outside_1","rotation":[1.9470718370939721e-07,1.6292068494294654e-07,-1.0,1.7478846739112444e-14],"translation":[0.10000000149011612,-8.470329472543003e-22,1.7763578981914345e-15]},{"children":[45],"name":"v3d_Proxy_Node_0_gem_type_3_gem_6_curve_0_line_1_outside_1","translation":[-0.10000000149011612,-0.0,-0.0]},{"extensions":{"S8S_v3d_node":{"frustumCulling":true,"groupNames":["gem_6_line_1"],"hidden":true,"hidpiCompositing":false,"objectColor":[1.0,1.0,1.0,1.0],"objectIndex":0,"renderOrder":0,"useShadows":true}},"mesh":1,"name":"gem_type_1_gem_6_curve_0_line_1_inside_1","rotation":[1.9470718370939721e-07,1.6292068494294654e-07,-1.0,1.7478846739112444e-14],"translation":[0.10000000894069672,-3.7596573803418826e-16,-0.10000000149011612]},{"children":[47],"name":"v3d_Proxy_Node_0_gem_type_1_gem_6_curve_0_line_1_inside_1","translation":[-0.10000000149011612,-0.0,0.10000000149011612]},{"extensions":{"S8S_v3d_node":{"frustumCulling":true,"groupNames":["gem_6_line_1"],"hidden":true,"hidpiCompositing":false,"objectColor":[1.0,1.0,1.0,1.0],"objectIndex":0,"renderOrder":0,"useShadows":true}},"mesh":0,"name":"gem_type_4_gem_6_curve_0_line_1_inside","translation":[0.10000000149011612,0.03812466561794281,0.05000000074505806]},{"children":[49],"name":"v3d_Proxy_Node_0_gem_type_4_gem_6_curve_0_line_1_inside","translation":[-0.10000000149011612,-0.0,-0.05000000074505806]},{"extensions":{"S8S_v3d_node":{"frustumCulling":true,"groupNames":["gem_6_line_1"],"hidden":true,"hidpiCompositing":false,"objectColor":[1.0,1.0,1.0,1.0],"objectIndex":0,"renderOrder":0,"useShadows":true}},"mesh":0,"name":"gem_type_3_gem_6_curve_0_line_1_inside","translation":[0.10000000149011612,0.03812466561794281,-0.0]},{"children":[51],"name":"v3d_Proxy_Node_0_gem_type_3_gem_6_curve_0_line_1_inside","translation":[-0.10000000149011612,-0.0,-0.0]},{"extensions":{"S8S_v3d_node":{"frustumCulling":true,"groupNames":[],"hidden":true,"hidpiCompositing":false,"objectColor":[1.0,1.0,1.0,1.0],"objectIndex":0,"renderOrder":0}},"name":"Empty","translation":[0.0,-0.028885208070278168,-0.0]},{"children":[52,14,57,46],"extensions":{"S8S_v3d_node":{"frustumCulling":true,"groupNames":["gem_6_line_1"],"hidden":true,"hidpiCompositing":false,"objectColor":[1.0,1.0,1.0,1.0],"objectIndex":0,"renderOrder":0,"useShadows":true}},"mesh":17,"name":"ring_type_3_gem_6_curve_0_line_1","translation":[0.0,7.999999797903001e-05,-0.0]},{"children":[16,18,44,60],"extensions":{"S8S_v3d_node":{"frustumCulling":true,"groupNames":["gem_6_line_1"],"hidden":true,"hidpiCompositing":false,"objectColor":[1.0,1.0,1.0,1.0],"objectIndex":0,"renderOrder":0,"useShadows":true}},"mesh":20,"name":"ring_type_5_gem_6_curve_0_line_1","translation":[0.0,0.0005150000215508044,-0.0]},{"extensions":{"S8S_v3d_node":{"frustumCulling":true,"groupNames":["gem_6_line_1"],"hidden":true,"hidpiCompositing":false,"objectColor":[1.0,1.0,1.0,1.0],"objectIndex":0,"renderOrder":0,"useShadows":true}},"mesh":6,"name":"gem_type_3_gem_6_curve_0_line_1_outside","translation":[0.10000000149011612,0.03812466561794281,-0.0]},{"children":[56],"name":"v3d_Proxy_Node_0_gem_type_3_gem_6_curve_0_line_1_outside","translation":[-0.10000000149011612,-0.0,-0.0]},{"children":[64,48,33,62],"extensions":{"S8S_v3d_node":{"frustumCulling":true,"groupNames":["gem_6_line_1"],"hidden":true,"hidpiCompositing":false,"objectColor":[1.0,1.0,1.0,1.0],"objectIndex":0,"renderOrder":0,"useShadows":true}},"mesh":13,"name":"ring_type_1_gem_6_curve_0_line_1","translation":[0.0,1.4999999621068127e-05,-0.0]},{"extensions":{"S8S_v3d_node":{"frustumCulling":true,"groupNames":["gem_6_line_1"],"hidden":true,"hidpiCompositing":false,"objectColor":[1.0,1.0,1.0,1.0],"objectIndex":0,"renderOrder":0,"useShadows":true}},"mesh":7,"name":"gem_type_5_gem_6_curve_0_line_1_outside_1","rotation":[1.9470718370939721e-07,1.6292068494294654e-07,-1.0,1.7478846739112444e-14],"translation":[0.09999999403953552,-3.7596573803418826e-16,0.10000000149011612]},{"children":[59],"name":"v3d_Proxy_Node_0_gem_type_5_gem_6_curve_0_line_1_outside_1","translation":[-0.10000000149011612,-0.0,-0.10000000149011612]},{"extensions":{"S8S_v3d_node":{"frustumCulling":true,"groupNames":["gem_6_line_1"],"hidden":true,"hidpiCompositing":false,"objectColor":[1.0,1.0,1.0,1.0],"objectIndex":0,"renderOrder":0,"useShadows":true}},"mesh":11,"name":"gem_type_1_gem_6_curve_0_line_1_outside_1","rotation":[1.9470718370939721e-07,1.6292068494294654e-07,-1.0,1.7478846739112444e-14],"translation":[0.10000000894069672,-3.7596573803418826e-16,-0.10000000149011612]},{"children":[61],"name":"v3d_Proxy_Node_0_gem_type_1_gem_6_curve_0_line_1_outside_1","translation":[-0.10000000149011612,-0.0,0.10000000149011612]},{"extensions":{"S8S_v3d_node":{"frustumCulling":true,"groupNames":["gem_6_line_1"],"hidden":true,"hidpiCompositing":false,"objectColor":[1.0,1.0,1.0,1.0],"objectIndex":0,"renderOrder":0,"useShadows":true}},"mesh":0,"name":"gem_type_1_gem_6_curve_0_line_1_inside","translation":[0.10000000149011612,0.03812466561794281,-0.10000000149011612]},{"children":[63],"name":"v3d_Proxy_Node_0_gem_type_1_gem_6_curve_0_line_1_inside","translation":[-0.10000000149011612,-0.0,0.10000000149011612]},{"extensions":{"S8S_v3d_node":{"frustumCulling":true,"groupNames":["gem_6_line_1"],"hidden":true,"hidpiCompositing":false,"objectColor":[1.0,1.0,1.0,1.0],"objectIndex":0,"renderOrder":0,"useShadows":true}},"mesh":2,"name":"gem_type_2_gem_6_curve_0_line_1_inside_1","rotation":[1.9470718370939721e-07,1.6292068494294654e-07,-1.0,1.7478846739112444e-14],"translation":[0.09999999403953552,-2.1523225774344387e-15,-0.04999999701976776]},{"children":[65],"name":"v3d_Proxy_Node_0_gem_type_2_gem_6_curve_0_line_1_inside_1","translation":[-0.10000000149011612,-0.0,0.05000000074505806]},{"extensions":{"S8S_v3d_node":{"frustumCulling":true,"groupNames":["gem_6_line_1"],"hidden":true,"hidpiCompositing":false,"objectColor":[1.0,1.0,1.0,1.0],"objectIndex":0,"renderOrder":0,"useShadows":true}},"mesh":4,"name":"gem_type_4_gem_6_curve_0_line_1_inside_1","rotation":[1.9470718370939721e-07,1.6292068494294654e-07,-1.0,1.7478846739112444e-14],"translation":[0.10000000894069672,-2.1523225774344387e-15,0.05000000447034836]},{"children":[67],"name":"v3d_Proxy_Node_0_gem_type_4_gem_6_curve_0_line_1_inside_1","translation":[-0.10000000149011612,-0.0,-0.05000000074505806]},{"camera":0,"name":"__DEFAULT_CAMERA__","rotation":[-0.09856042265892029,0.9012684226036072,0.30743828415870667,0.28893399238586426],"scale":[1.0000001192092896,1.0,0.9999998211860657],"translation":[0.03564700111746788,0.05539295822381973,-0.042524777352809906]}],"samplers":[{}],"scene":0,"scenes":[{"extensions":{"S8S_v3d_scene":{"aaMethod":"AUTO","iblEnvironmentMode":"PMREM","physicallyCorrectLights":true,"pmremMaxTileSize":512,"shadowMap":{"esmDistanceScale":1.0,"renderReverseSided":false,"renderSingleSided":true,"type":"PCFPOISSON"},"useHDR":true,"worldMaterial":3}},"extras":{"animFrameRate":24,"coordSystem":"Z_UP_RIGHT"},"name":"Scene","nodes":[53,0,36,37,1,4,54,26,25,55,58,69]}],"textures":[{"extensions":{"S8S_v3d_texture":{"colorSpace":"linear rec.709","source":0}},"name":"environment.hdr","sampler":0},{"extensions":{"S8S_v3d_texture":{"anisotropy":16,"colorSpace":"non-color"}},"name":"engrave_normal","sampler":0,"source":1},{"extensions":{"S8S_v3d_texture":{"anisotropy":16,"colorSpace":"srgb"}},"name":"engrave_ao","sampler":0,"source":2}]}
