{"accessors":[{"bufferView":0,"componentType":5123,"count":1152,"max":[1023],"min":[0],"type":"SCALAR"},{"bufferView":1,"componentType":5126,"count":1024,"max":[0.008233485743403435,0.003225645050406456,0.008233485743403435],"min":[-0.008233485743403435,-0.006947668734937906,-0.008233485743403435],"type":"VEC3"},{"bufferView":2,"componentType":5126,"count":1024,"max":[0.9953631162643433,0.8608849048614502,0.9953631162643433],"min":[-0.9953631162643433,-0.9520893692970276,-0.995363175868988],"type":"VEC3"},{"bufferView":3,"componentType":5123,"count":906,"max":[543],"min":[0],"type":"SCALAR"},{"bufferView":4,"componentType":5126,"count":544,"max":[0.008233485743403435,0.003225645050406456,0.008233485743403435],"min":[-0.008233485743403435,-0.006947668734937906,-0.008233485743403435],"type":"VEC3"},{"bufferView":5,"componentType":5126,"count":544,"max":[0.9987955093383789,1.0,0.9987954497337341],"min":[-0.9987955093383789,-0.7642611265182495,-0.9987955093383789],"type":"VEC3"},{"bufferView":6,"componentType":5123,"count":4224,"max":[3519],"min":[0],"type":"SCALAR"},{"bufferView":7,"componentType":5126,"count":3520,"max":[0.027895916253328323,0.03353416919708252,0.00125688046682626],"min":[-0.027895916253328323,0.007014656905084848,-0.0012568824458867311],"type":"VEC3"},{"bufferView":8,"componentType":5126,"count":3520,"max":[0.9999517798423767,0.9999488592147827,0.9753453135490417],"min":[-0.9999517798423767,-0.9955174922943115,-0.9753450155258179],"type":"VEC3"},{"bufferView":9,"componentType":5123,"count":4092,"max":[3167],"min":[0],"type":"SCALAR"},{"bufferView":10,"componentType":5126,"count":3168,"max":[0.027895916253328323,0.03353416919708252,0.00125688046682626],"min":[-0.027895916253328323,0.007014656905084848,-0.0012568824458867311],"type":"VEC3"},{"bufferView":11,"componentType":5126,"count":3168,"max":[0.9998816251754761,0.9955174922943115,0.9753450155258179],"min":[-0.9998816251754761,-0.9999488592147827,-0.9753453135490417],"type":"VEC3"},{"bufferView":12,"componentType":5123,"count":4224,"max":[3519],"min":[0],"type":"SCALAR"},{"bufferView":13,"componentType":5126,"count":3520,"max":[0.027984485030174255,0.0335509292781353,0.0012568722013384104],"min":[-0.02798447012901306,0.007400155067443848,-0.0012814562069252133],"type":"VEC3"},{"bufferView":14,"componentType":5126,"count":3520,"max":[0.9999302625656128,0.9996897578239441,0.9761580228805542],"min":[-0.9999302625656128,-0.992905855178833,-0.9758775234222412],"type":"VEC3"},{"bufferView":15,"componentType":5123,"count":4092,"max":[3167],"min":[0],"type":"SCALAR"},{"bufferView":16,"componentType":5126,"count":3168,"max":[0.027984485030174255,0.0335509292781353,0.0012568722013384104],"min":[-0.02798447012901306,0.007400155067443848,-0.0012814562069252133],"type":"VEC3"},{"bufferView":17,"componentType":5126,"count":3168,"max":[0.9999302625656128,0.992905855178833,0.9758775234222412],"min":[-0.9999302625656128,-0.9996897578239441,-0.9761580228805542],"type":"VEC3"},{"bufferView":18,"componentType":5123,"count":4224,"max":[3519],"min":[0],"type":"SCALAR"},{"bufferView":19,"componentType":5126,"count":3520,"max":[0.027733657509088516,-0.007217868231236935,0.0012728164438158274],"min":[-0.027733657509088516,-0.033583637326955795,-0.0012568908277899027],"type":"VEC3"},{"bufferView":20,"componentType":5126,"count":3520,"max":[0.9999833106994629,0.9932077527046204,0.975965142250061],"min":[-0.9999833106994629,-0.9999899864196777,-0.9760803580284119],"type":"VEC3"},{"bufferView":21,"componentType":5123,"count":4092,"max":[3167],"min":[0],"type":"SCALAR"},{"bufferView":22,"componentType":5126,"count":3168,"max":[0.027733657509088516,-0.007217868231236935,0.0012728164438158274],"min":[-0.027733657509088516,-0.033583637326955795,-0.0012568908277899027],"type":"VEC3"},{"bufferView":23,"componentType":5126,"count":3168,"max":[0.9999833106994629,0.9999899864196777,0.9760803580284119],"min":[-0.9999833106994629,-0.9932077527046204,-0.975965142250061],"type":"VEC3"},{"bufferView":24,"componentType":5123,"count":4224,"max":[3519],"min":[0],"type":"SCALAR"},{"bufferView":25,"componentType":5126,"count":3520,"max":[0.02794797718524933,0.03347758203744888,0.0012568806996569037],"min":[-0.02794797718524933,0.007181553635746241,-0.0012568819802254438],"type":"VEC3"},{"bufferView":26,"componentType":5126,"count":3520,"max":[0.9999943971633911,0.9999510645866394,0.9736756682395935],"min":[-0.9999943971633911,-0.9947298765182495,-0.9736756682395935],"type":"VEC3"},{"bufferView":27,"componentType":5123,"count":4092,"max":[3167],"min":[0],"type":"SCALAR"},{"bufferView":28,"componentType":5126,"count":3168,"max":[0.02794797718524933,0.03347758203744888,0.0012568806996569037],"min":[-0.02794797718524933,0.007181553635746241,-0.0012568819802254438],"type":"VEC3"},{"bufferView":29,"componentType":5126,"count":3168,"max":[0.9999943971633911,0.9947298765182495,0.9736756682395935],"min":[-0.9999943971633911,-0.9999510645866394,-0.9736756682395935],"type":"VEC3"},{"bufferView":30,"componentType":5123,"count":68280,"max":[11611],"min":[0],"type":"SCALAR"},{"bufferView":31,"componentType":5126,"count":11612,"max":[0.028881875798106194,0.039923038333654404,0.007664161268621683],"min":[-0.028881875798106194,-0.09772345423698425,-0.007664161268621683],"type":"VEC3"},{"bufferView":32,"componentType":5126,"count":11612,"max":[1.0,1.0,1.0],"min":[-1.0,-1.0,-1.0],"type":"VEC3"},{"bufferView":33,"componentType":5126,"count":11612,"max":[1.0,0.514102578163147,0.011647575534880161,1.0],"min":[0.8577287197113037,-0.514102578163147,-0.011237019672989845,-1.0],"type":"VEC4"},{"bufferView":34,"componentType":5126,"count":11612,"max":[0.9999035000801086,1.001843810081482],"min":[9.66787338256836e-05,0.03772127628326416],"type":"VEC2"},{"bufferView":35,"componentType":5126,"count":11612,"max":[1.0,1.0,1.0,1.0],"min":[0.0,0.0,0.0,1.0],"type":"VEC4"},{"bufferView":36,"componentType":5123,"count":75888,"max":[13403],"min":[0],"type":"SCALAR"},{"bufferView":37,"componentType":5126,"count":13404,"max":[0.028881875798106194,0.039923038333654404,0.007664161268621683],"min":[-0.028881875798106194,-0.09772345423698425,-0.007664161268621683],"type":"VEC3"},{"bufferView":38,"componentType":5126,"count":13404,"max":[1.0,1.0,1.0],"min":[-1.0,-1.0,-1.0],"type":"VEC3"},{"bufferView":39,"componentType":5126,"count":13404,"max":[1.0,0.5141025185585022,0.011918095871806145,1.0],"min":[0.8577286601066589,-0.5141025185585022,-0.01191951334476471,-1.0],"type":"VEC4"},{"bufferView":40,"componentType":5126,"count":13404,"max":[0.9999035000801086,0.9999999403953552],"min":[9.66787338256836e-05,0.036795735359191895],"type":"VEC2"},{"bufferView":41,"componentType":5126,"count":13404,"max":[1.0,1.0,1.0,1.0],"min":[0.0,0.0,0.0,1.0],"type":"VEC4"},{"bufferView":42,"componentType":5123,"count":47160,"max":[8059],"min":[0],"type":"SCALAR"},{"bufferView":43,"componentType":5126,"count":8060,"max":[0.029105544090270996,0.039923038333654404,0.007664161268621683],"min":[-0.029105544090270996,-0.0981934517621994,-0.007664161268621683],"type":"VEC3"},{"bufferView":44,"componentType":5126,"count":8060,"max":[1.0,1.0,1.0],"min":[-1.0,-1.0,-1.0],"type":"VEC3"},{"bufferView":45,"componentType":5126,"count":8060,"max":[1.0,0.5141040682792664,0.02503811940550804,1.0],"min":[0.8577269315719604,-0.5141041278839111,-0.023207202553749084,-1.0],"type":"VEC4"},{"bufferView":46,"componentType":5126,"count":8060,"max":[0.9999092817306519,1.0017001628875732],"min":[9.065866470336914e-05,0.1009443998336792],"type":"VEC2"},{"bufferView":47,"componentType":5126,"count":8060,"max":[1.0,1.0,1.0,1.0],"min":[0.0,0.0,0.0,1.0],"type":"VEC4"},{"bufferView":48,"componentType":5123,"count":55152,"max":[10023],"min":[0],"type":"SCALAR"},{"bufferView":49,"componentType":5126,"count":10024,"max":[0.029105544090270996,0.039923038333654404,0.007664161268621683],"min":[-0.029105544090270996,-0.0981934517621994,-0.007664161268621683],"type":"VEC3"},{"bufferView":50,"componentType":5126,"count":10024,"max":[1.0,1.0,1.0],"min":[-1.0,-1.0,-1.0],"type":"VEC3"},{"bufferView":51,"componentType":5126,"count":10024,"max":[1.0,0.5141026377677917,0.026343172416090965,1.0],"min":[0.8577243089675903,-0.5141025185585022,-0.02634112536907196,-1.0],"type":"VEC4"},{"bufferView":52,"componentType":5126,"count":10024,"max":[0.9999092817306519,0.9833440184593201],"min":[9.069877705769613e-05,0.10792297124862671],"type":"VEC2"},{"bufferView":53,"componentType":5126,"count":10024,"max":[1.0,1.0,1.0,1.0],"min":[0.0,0.0,0.0,1.0],"type":"VEC4"},{"bufferView":54,"componentType":5123,"count":75960,"max":[13047],"min":[0],"type":"SCALAR"},{"bufferView":55,"componentType":5126,"count":13048,"max":[0.028952667489647865,0.039923038333654404,0.007664161268621683],"min":[-0.028952667489647865,-0.09785345196723938,-0.007664161268621683],"type":"VEC3"},{"bufferView":56,"componentType":5126,"count":13048,"max":[1.0,1.0,1.0],"min":[-1.0,-1.0,-1.0],"type":"VEC3"},{"bufferView":57,"componentType":5126,"count":13048,"max":[1.0,0.5141028761863708,0.01421879418194294,1.0],"min":[0.8577284812927246,-0.5141028761863708,-0.013510379008948803,-1.0],"type":"VEC4"},{"bufferView":58,"componentType":5126,"count":13048,"max":[0.9999033212661743,1.001883864402771],"min":[9.669143037172034e-05,0.03324037790298462],"type":"VEC2"},{"bufferView":59,"componentType":5126,"count":13048,"max":[1.0,1.0,1.0,1.0],"min":[0.0,0.0,0.0,1.0],"type":"VEC4"},{"bufferView":60,"componentType":5123,"count":82704,"max":[14747],"min":[0],"type":"SCALAR"},{"bufferView":61,"componentType":5126,"count":14748,"max":[0.028952667489647865,0.039923038333654404,0.007664161268621683],"min":[-0.028952667489647865,-0.09785345196723938,-0.007664161268621683],"type":"VEC3"},{"bufferView":62,"componentType":5126,"count":14748,"max":[1.0,1.0,1.0],"min":[-1.0,-1.0,-1.0],"type":"VEC3"},{"bufferView":63,"componentType":5126,"count":14748,"max":[1.0,0.5141028761863708,0.01421867311000824,1.0],"min":[0.8577284812927246,-0.5141028761863708,-0.013510368764400482,-1.0],"type":"VEC4"},{"bufferView":64,"componentType":5126,"count":14748,"max":[0.9999033212661743,0.9882675409317017],"min":[9.669143037172034e-05,0.03764498233795166],"type":"VEC2"},{"bufferView":65,"componentType":5126,"count":14748,"max":[1.0,1.0,1.0,1.0],"min":[0.0,0.0,0.0,1.0],"type":"VEC4"},{"bufferView":66,"componentType":5123,"count":67176,"max":[11419],"min":[0],"type":"SCALAR"},{"bufferView":67,"componentType":5126,"count":11420,"max":[0.028899718075990677,0.039923038333654404,0.007664161268621683],"min":[-0.028899718075990677,-0.09775345027446747,-0.007664161268621683],"type":"VEC3"},{"bufferView":68,"componentType":5126,"count":11420,"max":[1.0,1.0,1.0],"min":[-1.0,-1.0,-1.0],"type":"VEC3"},{"bufferView":69,"componentType":5126,"count":11420,"max":[1.0,0.5141041278839111,0.0011840570950880647,1.0],"min":[0.8577278256416321,-0.5141040682792664,-0.001184385153464973,-1.0],"type":"VEC4"},{"bufferView":70,"componentType":5126,"count":11420,"max":[0.999904990196228,0.9576464891433716],"min":[9.500980377197266e-05,0.006255149841308594],"type":"VEC2"},{"bufferView":71,"componentType":5126,"count":11420,"max":[1.0,1.0,1.0,1.0],"min":[0.0,0.0,0.0,1.0],"type":"VEC4"},{"bufferView":72,"componentType":5123,"count":68544,"max":[12159],"min":[0],"type":"SCALAR"},{"bufferView":73,"componentType":5126,"count":12160,"max":[0.028899718075990677,0.039923038333654404,0.007664161268621683],"min":[-0.028899718075990677,-0.09775345027446747,-0.007664161268621683],"type":"VEC3"},{"bufferView":74,"componentType":5126,"count":12160,"max":[1.0,1.0,1.0],"min":[-1.0,-1.0,-1.0],"type":"VEC3"},{"bufferView":75,"componentType":5126,"count":12160,"max":[1.0,0.5141040682792664,0.0011885479325428605,1.0],"min":[0.8577278256416321,-0.5141041278839111,-0.0011872346512973309,-1.0],"type":"VEC4"},{"bufferView":76,"componentType":5126,"count":12160,"max":[0.999904990196228,1.0],"min":[9.501207387074828e-05,0.04733014106750488],"type":"VEC2"},{"bufferView":77,"componentType":5126,"count":12160,"max":[1.0,1.0,1.0,1.0],"min":[0.0,0.0,0.0,1.0],"type":"VEC4"},{"bufferView":78,"componentType":5123,"count":4224,"max":[3519],"min":[0],"type":"SCALAR"},{"bufferView":79,"componentType":5126,"count":3520,"max":[0.028073418885469437,0.03368382155895233,0.0012568820966407657],"min":[-0.02807343378663063,0.007234838791191578,-0.0012568841921165586],"type":"VEC3"},{"bufferView":80,"componentType":5126,"count":3520,"max":[0.9998108744621277,0.9999556541442871,0.9759708642959595],"min":[-0.9998108744621277,-0.9945016503334045,-0.9759703278541565],"type":"VEC3"},{"bufferView":81,"componentType":5123,"count":4092,"max":[3167],"min":[0],"type":"SCALAR"},{"bufferView":82,"componentType":5126,"count":3168,"max":[0.028073418885469437,0.03368382155895233,0.0012568820966407657],"min":[-0.02807343378663063,0.007234838791191578,-0.0012568841921165586],"type":"VEC3"},{"bufferView":83,"componentType":5126,"count":3168,"max":[0.9997371435165405,0.9945016503334045,0.9759703278541565],"min":[-0.9997371435165405,-0.9999556541442871,-0.9759708642959595],"type":"VEC3"},{"bufferView":84,"componentType":5123,"count":63624,"max":[10887],"min":[0],"type":"SCALAR"},{"bufferView":85,"componentType":5126,"count":10888,"max":[0.029363753274083138,0.039923038333654404,0.007664161268621683],"min":[-0.029363753274083138,-0.09872345626354218,-0.007664161268621683],"type":"VEC3"},{"bufferView":86,"componentType":5126,"count":10888,"max":[1.0,1.0,1.0],"min":[-1.0,-1.0,-1.0],"type":"VEC3"},{"bufferView":87,"componentType":5126,"count":10888,"max":[1.0,0.5141013860702515,0.025490615516901016,1.0],"min":[0.8577275276184082,-0.5141013860702515,-0.02296105958521366,-1.0],"type":"VEC4"},{"bufferView":88,"componentType":5126,"count":10888,"max":[0.99991774559021,1.0013011693954468],"min":[8.225440979003906e-05,0.15935659408569336],"type":"VEC2"},{"bufferView":89,"componentType":5126,"count":10888,"max":[1.0,1.0,1.0,1.0],"min":[0.0,0.0,0.0,1.0],"type":"VEC4"},{"bufferView":90,"componentType":5123,"count":67464,"max":[12087],"min":[0],"type":"SCALAR"},{"bufferView":91,"componentType":5126,"count":12088,"max":[0.029363753274083138,0.039923038333654404,0.007664161268621683],"min":[-0.029363753274083138,-0.09872345626354218,-0.007664161268621683],"type":"VEC3"},{"bufferView":92,"componentType":5126,"count":12088,"max":[1.0,1.0,1.0],"min":[-1.0,-1.0,-1.0],"type":"VEC3"},{"bufferView":93,"componentType":5126,"count":12088,"max":[1.0,0.5141013860702515,0.02549062669277191,1.0],"min":[0.8577275276184082,-0.5141013264656067,-0.02296176180243492,-1.0],"type":"VEC4"},{"bufferView":94,"componentType":5126,"count":12088,"max":[0.99991774559021,1.0],"min":[8.225440979003906e-05,0.17503267526626587],"type":"VEC2"},{"bufferView":95,"componentType":5126,"count":12088,"max":[1.0,1.0,1.0,1.0],"min":[0.0,0.0,0.0,1.0],"type":"VEC4"}],"asset":{"generator":"Verge3D for Blender v4.6.0","version":"2.0"},"bufferViews":[{"buffer":0,"byteLength":2304,"byteOffset":0,"target":34963},{"buffer":0,"byteLength":12288,"byteOffset":2304,"target":34962},{"buffer":0,"byteLength":12288,"byteOffset":14592,"target":34962},{"buffer":0,"byteLength":1812,"byteOffset":26880,"target":34963},{"buffer":0,"byteLength":6528,"byteOffset":28692,"target":34962},{"buffer":0,"byteLength":6528,"byteOffset":35220,"target":34962},{"buffer":0,"byteLength":8448,"byteOffset":41748,"target":34963},{"buffer":0,"byteLength":42240,"byteOffset":50196,"target":34962},{"buffer":0,"byteLength":42240,"byteOffset":92436,"target":34962},{"buffer":0,"byteLength":8184,"byteOffset":134676,"target":34963},{"buffer":0,"byteLength":38016,"byteOffset":142860,"target":34962},{"buffer":0,"byteLength":38016,"byteOffset":180876,"target":34962},{"buffer":0,"byteLength":8448,"byteOffset":218892,"target":34963},{"buffer":0,"byteLength":42240,"byteOffset":227340,"target":34962},{"buffer":0,"byteLength":42240,"byteOffset":269580,"target":34962},{"buffer":0,"byteLength":8184,"byteOffset":311820,"target":34963},{"buffer":0,"byteLength":38016,"byteOffset":320004,"target":34962},{"buffer":0,"byteLength":38016,"byteOffset":358020,"target":34962},{"buffer":0,"byteLength":8448,"byteOffset":396036,"target":34963},{"buffer":0,"byteLength":42240,"byteOffset":404484,"target":34962},{"buffer":0,"byteLength":42240,"byteOffset":446724,"target":34962},{"buffer":0,"byteLength":8184,"byteOffset":488964,"target":34963},{"buffer":0,"byteLength":38016,"byteOffset":497148,"target":34962},{"buffer":0,"byteLength":38016,"byteOffset":535164,"target":34962},{"buffer":0,"byteLength":8448,"byteOffset":573180,"target":34963},{"buffer":0,"byteLength":42240,"byteOffset":581628,"target":34962},{"buffer":0,"byteLength":42240,"byteOffset":623868,"target":34962},{"buffer":0,"byteLength":8184,"byteOffset":666108,"target":34963},{"buffer":0,"byteLength":38016,"byteOffset":674292,"target":34962},{"buffer":0,"byteLength":38016,"byteOffset":712308,"target":34962},{"buffer":0,"byteLength":136560,"byteOffset":750324,"target":34963},{"buffer":0,"byteLength":139344,"byteOffset":886884,"target":34962},{"buffer":0,"byteLength":139344,"byteOffset":1026228,"target":34962},{"buffer":0,"byteLength":185792,"byteOffset":1165572,"target":34962},{"buffer":0,"byteLength":92896,"byteOffset":1351364,"target":34962},{"buffer":0,"byteLength":185792,"byteOffset":1444260,"target":34962},{"buffer":0,"byteLength":151776,"byteOffset":1630052,"target":34963},{"buffer":0,"byteLength":160848,"byteOffset":1781828,"target":34962},{"buffer":0,"byteLength":160848,"byteOffset":1942676,"target":34962},{"buffer":0,"byteLength":214464,"byteOffset":2103524,"target":34962},{"buffer":0,"byteLength":107232,"byteOffset":2317988,"target":34962},{"buffer":0,"byteLength":214464,"byteOffset":2425220,"target":34962},{"buffer":0,"byteLength":94320,"byteOffset":2639684,"target":34963},{"buffer":0,"byteLength":96720,"byteOffset":2734004,"target":34962},{"buffer":0,"byteLength":96720,"byteOffset":2830724,"target":34962},{"buffer":0,"byteLength":128960,"byteOffset":2927444,"target":34962},{"buffer":0,"byteLength":64480,"byteOffset":3056404,"target":34962},{"buffer":0,"byteLength":128960,"byteOffset":3120884,"target":34962},{"buffer":0,"byteLength":110304,"byteOffset":3249844,"target":34963},{"buffer":0,"byteLength":120288,"byteOffset":3360148,"target":34962},{"buffer":0,"byteLength":120288,"byteOffset":3480436,"target":34962},{"buffer":0,"byteLength":160384,"byteOffset":3600724,"target":34962},{"buffer":0,"byteLength":80192,"byteOffset":3761108,"target":34962},{"buffer":0,"byteLength":160384,"byteOffset":3841300,"target":34962},{"buffer":0,"byteLength":151920,"byteOffset":4001684,"target":34963},{"buffer":0,"byteLength":156576,"byteOffset":4153604,"target":34962},{"buffer":0,"byteLength":156576,"byteOffset":4310180,"target":34962},{"buffer":0,"byteLength":208768,"byteOffset":4466756,"target":34962},{"buffer":0,"byteLength":104384,"byteOffset":4675524,"target":34962},{"buffer":0,"byteLength":208768,"byteOffset":4779908,"target":34962},{"buffer":0,"byteLength":165408,"byteOffset":4988676,"target":34963},{"buffer":0,"byteLength":176976,"byteOffset":5154084,"target":34962},{"buffer":0,"byteLength":176976,"byteOffset":5331060,"target":34962},{"buffer":0,"byteLength":235968,"byteOffset":5508036,"target":34962},{"buffer":0,"byteLength":117984,"byteOffset":5744004,"target":34962},{"buffer":0,"byteLength":235968,"byteOffset":5861988,"target":34962},{"buffer":0,"byteLength":134352,"byteOffset":6097956,"target":34963},{"buffer":0,"byteLength":137040,"byteOffset":6232308,"target":34962},{"buffer":0,"byteLength":137040,"byteOffset":6369348,"target":34962},{"buffer":0,"byteLength":182720,"byteOffset":6506388,"target":34962},{"buffer":0,"byteLength":91360,"byteOffset":6689108,"target":34962},{"buffer":0,"byteLength":182720,"byteOffset":6780468,"target":34962},{"buffer":0,"byteLength":137088,"byteOffset":6963188,"target":34963},{"buffer":0,"byteLength":145920,"byteOffset":7100276,"target":34962},{"buffer":0,"byteLength":145920,"byteOffset":7246196,"target":34962},{"buffer":0,"byteLength":194560,"byteOffset":7392116,"target":34962},{"buffer":0,"byteLength":97280,"byteOffset":7586676,"target":34962},{"buffer":0,"byteLength":194560,"byteOffset":7683956,"target":34962},{"buffer":0,"byteLength":8448,"byteOffset":7878516,"target":34963},{"buffer":0,"byteLength":42240,"byteOffset":7886964,"target":34962},{"buffer":0,"byteLength":42240,"byteOffset":7929204,"target":34962},{"buffer":0,"byteLength":8184,"byteOffset":7971444,"target":34963},{"buffer":0,"byteLength":38016,"byteOffset":7979628,"target":34962},{"buffer":0,"byteLength":38016,"byteOffset":8017644,"target":34962},{"buffer":0,"byteLength":127248,"byteOffset":8055660,"target":34963},{"buffer":0,"byteLength":130656,"byteOffset":8182908,"target":34962},{"buffer":0,"byteLength":130656,"byteOffset":8313564,"target":34962},{"buffer":0,"byteLength":174208,"byteOffset":8444220,"target":34962},{"buffer":0,"byteLength":87104,"byteOffset":8618428,"target":34962},{"buffer":0,"byteLength":174208,"byteOffset":8705532,"target":34962},{"buffer":0,"byteLength":134928,"byteOffset":8879740,"target":34963},{"buffer":0,"byteLength":145056,"byteOffset":9014668,"target":34962},{"buffer":0,"byteLength":145056,"byteOffset":9159724,"target":34962},{"buffer":0,"byteLength":193408,"byteOffset":9304780,"target":34962},{"buffer":0,"byteLength":96704,"byteOffset":9498188,"target":34962},{"buffer":0,"byteLength":193408,"byteOffset":9594892,"target":34962}],"buffers":[{"byteLength":9788300,"uri":"gem_3.bin"}],"cameras":[{"extensions":{"S8S_v3d_camera":{"controls":"ORBIT","enablePan":true,"moveSpeed":1,"orbitMaxDistance":10000,"orbitMaxPolarAngle":3.141592653589793,"orbitMinDistance":0,"orbitMinPolarAngle":0,"orbitTarget":[0.006918941158801317,-0.005993612110614777,-0.01503441296517849],"rotateSpeed":1,"viewportFitInitialAspect":1,"viewportFitType":"VERTICAL"}},"name":"__DEFAULT__","perspective":{"aspectRatio":1,"yfov":0.7853981633974483,"zfar":5.0,"znear":0.0010000000474974513},"type":"perspective"}],"extensions":{"S8S_v3d_materials":{"nodeGraphs":[{"edges":[{"fromNode":4,"fromOutput":0,"toInput":0,"toNode":8},{"fromNode":4,"fromOutput":0,"toInput":0,"toNode":9},{"fromNode":4,"fromOutput":0,"toInput":0,"toNode":0},{"fromNode":2,"fromOutput":0,"toInput":1,"toNode":0},{"fromNode":3,"fromOutput":0,"toInput":1,"toNode":8},{"fromNode":1,"fromOutput":0,"toInput":1,"toNode":9},{"fromNode":13,"fromOutput":0,"toInput":0,"toNode":2},{"fromNode":13,"fromOutput":0,"toInput":2,"toNode":1},{"fromNode":13,"fromOutput":0,"toInput":1,"toNode":3},{"fromNode":14,"fromOutput":1,"toInput":0,"toNode":4},{"fromNode":0,"fromOutput":0,"toInput":4,"toNode":6},{"fromNode":8,"fromOutput":0,"toInput":4,"toNode":7},{"fromNode":9,"fromOutput":0,"toInput":4,"toNode":11},{"fromNode":6,"fromOutput":0,"toInput":0,"toNode":10},{"fromNode":7,"fromOutput":0,"toInput":1,"toNode":10},{"fromNode":10,"fromOutput":0,"toInput":0,"toNode":12},{"fromNode":11,"fromOutput":0,"toInput":1,"toNode":12},{"fromNode":12,"fromOutput":0,"toInput":0,"toNode":5}],"name":"inner_gem_material","nodes":[{"inputs":[[0.5,0.5,0.5],[0.5,0.5,0.5],[0.0,0.0,0.0],1.0],"is_active_output":false,"name":"Vector Math.003","operation":"ADD","outputs":[[0.0,0.0,0.0],0.0],"type":"VECT_MATH_BL"},{"inputs":[0.0,0.0,0.09999999403953552],"is_active_output":false,"name":"Combine XYZ.002","outputs":[[0.0,0.0,0.0]],"type":"COMBXYZ_BL"},{"inputs":[0.09999999403953552,0.0,0.0],"is_active_output":false,"name":"Combine XYZ","outputs":[[0.0,0.0,0.0]],"type":"COMBXYZ_BL"},{"inputs":[0.0,0.09999999403953552,0.0],"is_active_output":false,"name":"Combine XYZ.001","outputs":[[0.0,0.0,0.0]],"type":"COMBXYZ_BL"},{"inputs":[[0.0,0.0,0.0]],"is_active_output":false,"name":"Reroute.001","outputs":[[0.0,0.0,0.0]],"type":"REROUTE_BL"},{"inputs":[[0,0,0,0]],"is_active_output":true,"name":"Group Output","outputs":[],"type":"GROUP_OUTPUT_BL"},{"inputs":[[1.0,0.0,0.0,1.0],0.10000000149011612,0.0,0.0,[0.0,0.0,0.0],[0.0,0.0,0.0]],"is_active_output":false,"name":"Glossy BSDF","outputs":[[0,0,0,0]],"type":"BSDF_GLOSSY_BL"},{"inputs":[[0.0,1.0,0.0,1.0],0.10000000149011612,0.0,0.0,[0.0,0.0,0.0],[0.0,0.0,0.0]],"is_active_output":false,"name":"Glossy BSDF.001","outputs":[[0,0,0,0]],"type":"BSDF_GLOSSY_BL"},{"inputs":[[0.5,0.5,0.5],[0.5,0.5,0.5],[0.0,0.0,0.0],1.0],"is_active_output":false,"name":"Vector Math.001","operation":"ADD","outputs":[[0.0,0.0,0.0],0.0],"type":"VECT_MATH_BL"},{"inputs":[[0.5,0.5,0.5],[0.5,0.5,0.5],[0.0,0.0,0.0],1.0],"is_active_output":false,"name":"Vector Math.002","operation":"ADD","outputs":[[0.0,0.0,0.0],0.0],"type":"VECT_MATH_BL"},{"inputs":[[0,0,0,0],[0,0,0,0]],"is_active_output":false,"name":"Add Shader","outputs":[[0,0,0,0]],"type":"ADD_SHADER_BL"},{"inputs":[[0.0,0.0,1.0,1.0],0.10000000149011612,0.0,0.0,[0.0,0.0,0.0],[0.0,0.0,0.0]],"is_active_output":false,"name":"Glossy BSDF.002","outputs":[[0,0,0,0]],"type":"BSDF_GLOSSY_BL"},{"inputs":[[0,0,0,0],[0,0,0,0]],"is_active_output":false,"name":"Add Shader.001","outputs":[[0,0,0,0]],"type":"ADD_SHADER_BL"},{"inputs":[],"is_active_output":false,"name":"Group Input","outputs":[0.0],"type":"GROUP_INPUT_BL"},{"inputs":[],"is_active_output":false,"name":"Geometry.001","outputs":[[0.0,0.0,0.0],[0.0,0.0,0.0],[0.0,0.0,0.0],[0.0,0.0,0.0],[0.0,0.0,0.0],[0.0,0.0,0.0],0.0,0.0,0.0],"type":"NEW_GEOMETRY_BL"}]},{"edges":[{"fromNode":18,"fromOutput":0,"toInput":0,"toNode":23},{"fromNode":13,"fromOutput":0,"toInput":1,"toNode":6},{"fromNode":22,"fromOutput":2,"toInput":0,"toNode":6},{"fromNode":23,"fromOutput":0,"toInput":0,"toNode":22},{"fromNode":10,"fromOutput":2,"toInput":0,"toNode":9},{"fromNode":9,"fromOutput":0,"toInput":0,"toNode":8},{"fromNode":12,"fromOutput":0,"toInput":1,"toNode":14},{"fromNode":11,"fromOutput":0,"toInput":0,"toNode":10},{"fromNode":8,"fromOutput":0,"toInput":0,"toNode":14},{"fromNode":18,"fromOutput":0,"toInput":0,"toNode":17},{"fromNode":17,"fromOutput":0,"toInput":1,"toNode":19},{"fromNode":7,"fromOutput":0,"toInput":2,"toNode":6},{"fromNode":20,"fromOutput":2,"toInput":4,"toNode":7},{"fromNode":16,"fromOutput":0,"toInput":0,"toNode":20},{"fromNode":21,"fromOutput":1,"toInput":6,"toNode":20},{"fromNode":19,"fromOutput":0,"toInput":7,"toNode":20},{"fromNode":6,"fromOutput":0,"toInput":2,"toNode":14},{"fromNode":14,"fromOutput":0,"toInput":0,"toNode":24},{"fromNode":15,"fromOutput":2,"toInput":1,"toNode":7},{"fromNode":3,"fromOutput":2,"toInput":0,"toNode":7},{"fromNode":20,"fromOutput":2,"toInput":1,"toNode":2},{"fromNode":2,"fromOutput":0,"toInput":0,"toNode":3},{"fromNode":20,"fromOutput":2,"toInput":1,"toNode":4},{"fromNode":5,"fromOutput":2,"toInput":6,"toNode":3},{"fromNode":4,"fromOutput":1,"toInput":0,"toNode":5},{"fromNode":15,"fromOutput":0,"toInput":6,"toNode":5},{"fromNode":15,"fromOutput":1,"toInput":7,"toNode":5}],"name":"metall_material","nodes":[{"inputs":[],"is_active_output":false,"name":"Frame","outputs":[],"type":"FRAME_BL"},{"inputs":[],"is_active_output":false,"name":"Frame.001","outputs":[],"type":"FRAME_BL"},{"inputs":[1.4500000476837158,[0.0,0.0,0.0]],"is_active_output":false,"name":"Fresnel","outputs":[0.0],"type":"FRESNEL_BL"},{"blendType":"MIX","clampFactor":true,"clampResult":false,"dataType":"RGBA","factorMode":"UNIFORM","inputs":[0.5,[0.5,0.5,0.5],0.0,0.0,[0.0,0.0,0.0],[0.0,0.0,0.0],[0.5,0.5,0.5,1.0],[0.6795570850372314,0.6795570850372314,0.6795570850372314,1.0],0,0],"is_active_output":false,"name":"Mix.002","outputs":[0.0,[0.0,0.0,0.0],[0.0,0.0,0.0,0.0],0],"type":"MIX_BL"},{"inputs":[0.5,[0.0,0.0,0.0]],"is_active_output":false,"name":"Layer Weight","outputs":[0.0,0.0],"type":"LAYER_WEIGHT_BL"},{"blendType":"MIX","clampFactor":true,"clampResult":false,"dataType":"RGBA","factorMode":"UNIFORM","inputs":[0.5,[0.5,0.5,0.5],0.0,0.0,[0.0,0.0,0.0],[0.0,0.0,0.0],[0.5,0.5,0.5,1.0],[0.5,0.5,0.5,1.0],0,0],"is_active_output":false,"name":"Mix.003","outputs":[0.0,[0.0,0.0,0.0],[0.0,0.0,0.0,0.0],0],"type":"MIX_BL"},{"inputs":[0.5,[0,0,0,0],[0,0,0,0]],"is_active_output":false,"name":"Mix Shader","outputs":[[0,0,0,0]],"type":"MIX_SHADER_BL"},{"inputs":[[0.6266327500343323,0.6266327500343323,0.6266327500343323,1.0],0.0,0.0,0.0,[0.0,0.0,0.0],[0.0,0.0,0.0]],"is_active_output":false,"name":"Glossy BSDF","outputs":[[0,0,0,0]],"type":"BSDF_GLOSSY_BL"},{"inputs":[0.5,23.39999771118164,0.5],"is_active_output":false,"name":"Math.001","operation":"MULTIPLY","outputs":[0.0],"type":"MATH_BL","useClamp":true},{"inputs":[0.5,0.07000000029802322,0.5],"is_active_output":false,"name":"Math","operation":"ADD","outputs":[0.0],"type":"MATH_BL","useClamp":false},{"inputs":[[0.800000011920929,0.800000011920929,0.800000011920929,1.0]],"is_active_output":false,"mode":"RGB","name":"Separate RGB","outputs":[0.0,0.0,0.0],"type":"SEPARATE_COLOR_BL"},{"inputs":[],"is_active_output":false,"name":"Geometry","outputs":[[0.0,0.0,0.0],[0.0,0.0,0.0],[0.0,0.0,0.0],[0.0,0.0,0.0],[0.0,0.0,0.0],[0.0,0.0,0.0],0.0,0.0,0.0],"type":"NEW_GEOMETRY_BL"},{"inputs":[[1.0,1.0,1.0,1.0],1.0],"is_active_output":false,"name":"Emission.001","outputs":[[0,0,0,0]],"type":"EMISSION_BL"},{"inputs":[[0.0,0.0,0.0,1.0],0.0,[0.0,0.0,0.0]],"is_active_output":false,"name":"Diffuse BSDF","outputs":[[0,0,0,0]],"type":"BSDF_DIFFUSE_BL"},{"inputs":[0.5,[0,0,0,0],[0,0,0,0]],"is_active_output":false,"name":"Mix Shader.001","outputs":[[0,0,0,0]],"type":"MIX_SHADER_BL"},{"inputs":[],"is_active_output":false,"name":"Group Input","outputs":[[0.0,0.0,0.0,1.0],[0.0,0.0,0.0,1.0],0.0],"type":"GROUP_INPUT_BL"},{"colorLayer":"engrave_mask","inputs":[],"is_active_output":false,"name":"Attribute","outputs":[[0.0,0.0,0.0,0.0],[0.0,0.0,0.0],0.0,0.0],"type":"ATTRIBUTE_BL"},{"alphaMode":"STRAIGHT","inputs":[[0.0,0.0,0.0]],"is_active_output":false,"name":"Image Texture.001","outputs":[[0.0,0.0,0.0,0.0],0.0],"projection":"FLAT","projectionBlend":0.0,"texture":1,"type":"TEX_IMAGE_BL"},{"inputs":[],"is_active_output":false,"name":"UV Map","outputs":[[0.0,0.0,0.0]],"type":"UVMAP_BL","uvLayer":"engrave"},{"inputs":[1.0,[0.5,0.5,1.0,1.0]],"is_active_output":false,"name":"Normal Map","outputs":[[0.0,0.0,0.0]],"type":"NORMAL_MAP_BL","uvLayer":"engrave"},{"blendType":"MIX","clampFactor":true,"clampResult":false,"dataType":"RGBA","factorMode":"UNIFORM","inputs":[0.5,[0.5,0.5,0.5],0.0,0.0,[0.0,0.0,0.0],[0.0,0.0,0.0],[0.5,0.5,0.5,1.0],[0.5,0.5,0.5,1.0],0,0],"is_active_output":false,"name":"Mix.001","outputs":[0.0,[0.0,0.0,0.0],[0.0,0.0,0.0,0.0],0],"type":"MIX_BL"},{"inputs":[],"is_active_output":false,"name":"Geometry.001","outputs":[[0.0,0.0,0.0],[0.0,0.0,0.0],[0.0,0.0,0.0],[0.0,0.0,0.0],[0.0,0.0,0.0],[0.0,0.0,0.0],0.0,0.0,0.0],"type":"NEW_GEOMETRY_BL"},{"blendType":"MIX","clampFactor":true,"clampResult":false,"dataType":"RGBA","factorMode":"UNIFORM","inputs":[0.5,[0.5,0.5,0.5],0.0,0.0,[0.0,0.0,0.0],[0.0,0.0,0.0],[0.7743505835533142,0.7743505835533142,0.7743505835533142,1.0],[1.0,1.0,1.0,1.0],0,0],"is_active_output":false,"name":"Mix","outputs":[0.0,[0.0,0.0,0.0],[0.0,0.0,0.0,0.0],0],"type":"MIX_BL"},{"alphaMode":"STRAIGHT","inputs":[[0.0,0.0,0.0]],"is_active_output":false,"name":"Image Texture","outputs":[[0.0,0.0,0.0,0.0],0.0],"projection":"FLAT","projectionBlend":0.0,"texture":2,"type":"TEX_IMAGE_BL"},{"inputs":[[0,0,0,0]],"is_active_output":true,"name":"Group Output","outputs":[],"type":"GROUP_OUTPUT_BL"}]},{"edges":[{"fromNode":1,"fromOutput":1,"toInput":1,"toNode":11},{"fromNode":7,"fromOutput":0,"toInput":0,"toNode":8},{"fromNode":8,"fromOutput":0,"toInput":0,"toNode":0},{"fromNode":1,"fromOutput":1,"toInput":1,"toNode":8},{"fromNode":0,"fromOutput":0,"toInput":0,"toNode":2},{"fromNode":4,"fromOutput":0,"toInput":1,"toNode":9},{"fromNode":9,"fromOutput":0,"toInput":0,"toNode":13},{"fromNode":10,"fromOutput":0,"toInput":2,"toNode":9},{"fromNode":11,"fromOutput":0,"toInput":0,"toNode":9},{"fromNode":2,"fromOutput":0,"toInput":6,"toNode":3},{"fromNode":3,"fromOutput":2,"toInput":6,"toNode":5},{"fromNode":12,"fromOutput":0,"toInput":7,"toNode":3},{"fromNode":5,"fromOutput":2,"toInput":0,"toNode":4},{"fromNode":12,"fromOutput":0,"toInput":0,"toNode":6},{"fromNode":6,"fromOutput":2,"toInput":7,"toNode":5}],"name":"outer_gem_material","nodes":[{"dispersionFactor":1.0,"falloffFactor":0.0,"inputs":[[0.0,0.0,0.0],0.0,1.8000000715255737,0.8999999761581421,0.5,2.0,0.0],"is_active_output":false,"name":"Noise Texture.001","outputs":[0.0,[0.0,0.0,0.0,0.0]],"type":"TEX_NOISE_BL"},{"inputs":[],"is_active_output":false,"name":"Geometry","outputs":[[0.0,0.0,0.0],[0.0,0.0,0.0],[0.0,0.0,0.0],[0.0,0.0,0.0],[0.0,0.0,0.0],[0.0,0.0,0.0],0.0,0.0,0.0],"type":"NEW_GEOMETRY_BL"},{"curve":{"input":[0.0,0.6272729635238647],"interpolation":"LINEAR","output":[0.28444889187812805,0.28444889187812805,0.28444889187812805,1.0,1.0,1.0,1.0,1.0]},"inputs":[0.5],"is_active_output":false,"name":"ColorRamp.001","outputs":[[0.0,0.0,0.0,0.0],0.0],"type":"VALTORGB_BL"},{"blendType":"COLOR","clampFactor":true,"clampResult":false,"dataType":"RGBA","factorMode":"UNIFORM","inputs":[1.0,[0.5,0.5,0.5],0.0,0.0,[0.0,0.0,0.0],[0.0,0.0,0.0],[0.5,0.5,0.5,1.0],[0.23454074561595917,0.49895036220550537,1.0,1.0],0,0],"is_active_output":false,"name":"Mix","outputs":[0.0,[0.0,0.0,0.0],[0.0,0.0,0.0,0.0],0],"type":"MIX_BL"},{"distribution":"BECKMANN","inputs":[[0.09989873319864273,0.004391442518681288,0.0,1.0],0.0,3.5,[0.0,0.0,0.0]],"is_active_output":false,"name":"Refraction BSDF","outputs":[[0,0,0,0]],"type":"BSDF_REFRACTION_BL"},{"blendType":"MULTIPLY","clampFactor":true,"clampResult":false,"dataType":"RGBA","factorMode":"UNIFORM","inputs":[1.0,[0.5,0.5,0.5],0.0,0.0,[0.0,0.0,0.0],[0.0,0.0,0.0],[0.5,0.5,0.5,1.0],[0.5,0.5,0.5,1.0],0,0],"is_active_output":false,"name":"Mix.001","outputs":[0.0,[0.0,0.0,0.0],[0.0,0.0,0.0,0.0],0],"type":"MIX_BL"},{"inputs":[[0.800000011920929,0.800000011920929,0.800000011920929,1.0]],"is_active_output":false,"mode":"HSV","name":"Separate HSV","outputs":[0.0,0.0,0.0],"type":"SEPARATE_COLOR_BL"},{"inputs":[],"is_active_output":false,"name":"Texture Coordinate","object":-1,"outputs":[[0.0,0.0,0.0],[0.0,0.0,0.0],[0.0,0.0,0.0],[0.0,0.0,0.0],[0.0,0.0,0.0],[0.0,0.0,0.0],[0.0,0.0,0.0]],"type":"TEX_COORD_BL"},{"inputs":[[0.5,0.5,0.5],[0.5,0.5,0.5],[0.0,0.0,0.0],1.0],"is_active_output":false,"name":"Vector Math","operation":"ADD","outputs":[[0.0,0.0,0.0],0.0],"type":"VECT_MATH_BL"},{"inputs":[0.5,[0,0,0,0],[0,0,0,0]],"is_active_output":false,"name":"Mix Shader","outputs":[[0,0,0,0]],"type":"MIX_SHADER_BL"},{"inputs":[[0.800000011920929,0.800000011920929,0.800000011920929,1.0],0.0,0.0,0.0,[0.0,0.0,0.0],[0.0,0.0,0.0]],"is_active_output":false,"name":"Glossy BSDF","outputs":[[0,0,0,0]],"type":"BSDF_GLOSSY_BL"},{"inputs":[2.499999523162842,[0.0,0.0,0.0]],"is_active_output":false,"name":"Fresnel","outputs":[0.0],"type":"FRESNEL_BL"},{"inputs":[],"is_active_output":false,"name":"Group Input","outputs":[[0.0,0.0,0.0,1.0]],"type":"GROUP_INPUT_BL"},{"inputs":[[0,0,0,0]],"is_active_output":true,"name":"Group Output","outputs":[],"type":"GROUP_OUTPUT_BL"}]}]}},"extensionsUsed":["S8S_v3d_texture","S8S_v3d_materials","S8S_v3d_camera","S8S_v3d_mesh","S8S_v3d_node","S8S_v3d_scene"],"images":[{"uri":"environment.hdr"},{"uri":"engrave_normal.jpg"},{"uri":"engrave_ao.jpg"}],"materials":[{"extensions":{"S8S_v3d_materials":{"gtaoVisible":true,"materialIndex":0,"nodeGraph":{"edges":[{"fromNode":2,"fromOutput":0,"toInput":0,"toNode":1},{"fromNode":0,"fromOutput":0,"toInput":0,"toNode":2}],"nodes":[{"inputs":[],"is_active_output":false,"name":"Value","outputs":[0.009999999776482582],"type":"VALUE_BL"},{"inputs":[[0,0,0,0],[0,0,0,0],[0.0,0.0,0.0],0.0],"is_active_output":true,"name":"Material Output","outputs":[],"type":"OUTPUT_MATERIAL_BL"},{"inputs":[0.0],"is_active_output":false,"name":"Group","nodeGraph":0,"outputs":[[0,0,0,0]],"type":"GROUP_BL"}]},"useCastShadows":true}},"name":"gem_inner"},{"extensions":{"S8S_v3d_materials":{"gtaoVisible":true,"materialIndex":0,"nodeGraph":{"edges":[{"fromNode":0,"fromOutput":0,"toInput":0,"toNode":2},{"fromNode":1,"fromOutput":0,"toInput":0,"toNode":0}],"nodes":[{"inputs":[[0.0,0.0,0.0,1.0]],"is_active_output":false,"name":"Group","nodeGraph":2,"outputs":[[0,0,0,0]],"type":"GROUP_BL"},{"inputs":[],"is_active_output":false,"name":"gem_color","outputs":[[0.800000011920929,0.800000011920929,0.800000011920929,1.0]],"type":"RGB_BL"},{"inputs":[[0,0,0,0],[0,0,0,0],[0.0,0.0,0.0],0.0],"is_active_output":true,"name":"Material Output","outputs":[],"type":"OUTPUT_MATERIAL_BL"}]},"useCastShadows":true}},"name":"gem_outer"},{"extensions":{"S8S_v3d_materials":{"gtaoVisible":true,"materialIndex":0,"nodeGraph":{"edges":[{"fromNode":4,"fromOutput":0,"toInput":0,"toNode":3},{"fromNode":1,"fromOutput":0,"toInput":1,"toNode":4},{"fromNode":0,"fromOutput":0,"toInput":0,"toNode":4},{"fromNode":2,"fromOutput":0,"toInput":2,"toNode":4}],"nodes":[{"inputs":[],"is_active_output":false,"name":"metall_color_1","outputs":[[0.7293471693992615,0.7293471693992615,0.7293471693992615,1.0]],"type":"RGB_BL"},{"inputs":[],"is_active_output":false,"name":"metall_color_2","outputs":[[0.5382355451583862,0.5382355451583862,0.5382355451583862,1.0]],"type":"RGB_BL"},{"inputs":[],"is_active_output":false,"name":"metall_roughness","outputs":[0.0],"type":"VALUE_BL"},{"inputs":[[0,0,0,0],[0,0,0,0],[0.0,0.0,0.0],0.0],"is_active_output":true,"name":"Material Output","outputs":[],"type":"OUTPUT_MATERIAL_BL"},{"inputs":[[0.0,0.0,0.0,1.0],[0.0,0.0,0.0,1.0],0.0],"is_active_output":false,"name":"Group","nodeGraph":1,"outputs":[[0,0,0,0]],"type":"GROUP_BL"}]},"useCastShadows":true}},"name":"metall"},{"extensions":{"S8S_v3d_materials":{"gtaoVisible":true,"materialIndex":0,"nodeGraph":{"edges":[{"fromNode":2,"fromOutput":0,"toInput":0,"toNode":0},{"fromNode":4,"fromOutput":0,"toInput":6,"toNode":3},{"fromNode":1,"fromOutput":0,"toInput":0,"toNode":3},{"fromNode":3,"fromOutput":2,"toInput":0,"toNode":2}],"nodes":[{"inputs":[[0,0,0,0],[0,0,0,0]],"is_active_output":true,"name":"World Output","outputs":[],"type":"OUTPUT_WORLD_BL"},{"inputs":[],"is_active_output":false,"name":"Light Path","outputs":[0.0,0.0,0.0,0.0,0.0,0.0,0.0,0.0,0.0,0.0,0.0,0.0,0.0],"type":"LIGHT_PATH_BL"},{"inputs":[[1.0,1.0,1.0,1.0],1.0000001192092896],"is_active_output":false,"name":"Background","outputs":[[0,0,0,0]],"type":"BACKGROUND_BL"},{"blendType":"MIX","clampFactor":true,"clampResult":false,"dataType":"RGBA","factorMode":"UNIFORM","inputs":[0.5,[0.5,0.5,0.5],0.0,0.0,[0.0,0.0,0.0],[0.0,0.0,0.0],[0.5,0.5,0.5,1.0],[1.0,1.0,1.0,1.0],0,0],"is_active_output":false,"name":"Mix","outputs":[0.0,[0.0,0.0,0.0],[0.0,0.0,0.0,0.0],0],"type":"MIX_BL"},{"inputs":[[0.0,0.0,0.0]],"is_active_output":false,"name":"Environment Texture","outputs":[[0.0,0.0,0.0,0.0]],"projection":"EQUIRECTANGULAR","texture":0,"type":"TEX_ENVIRONMENT_BL"}]},"useCastShadows":true}},"name":"Verge3D_Environment_World"}],"meshes":[{"extensions":{"S8S_v3d_mesh":{"colorLayers":{},"uvLayers":{}}},"name":"gem_3_inside","primitives":[{"attributes":{"NORMAL":2,"POSITION":1},"indices":0,"material":0,"mode":4}]},{"extensions":{"S8S_v3d_mesh":{"colorLayers":{},"uvLayers":{}}},"name":"gem_3_outside","primitives":[{"attributes":{"NORMAL":5,"POSITION":4},"indices":3,"material":1,"mode":4}]},{"extensions":{"S8S_v3d_mesh":{"colorLayers":{},"uvLayers":{}}},"name":"gem_type_1_gem_3_curve_0_line_1_inside_1","primitives":[{"attributes":{"NORMAL":8,"POSITION":7},"indices":6,"material":0,"mode":4}]},{"extensions":{"S8S_v3d_mesh":{"colorLayers":{},"uvLayers":{}}},"name":"gem_type_1_gem_3_curve_0_line_1_outside_1","primitives":[{"attributes":{"NORMAL":11,"POSITION":10},"indices":9,"material":1,"mode":4}]},{"extensions":{"S8S_v3d_mesh":{"colorLayers":{},"uvLayers":{}}},"name":"gem_type_2_gem_3_curve_0_line_1_inside_1","primitives":[{"attributes":{"NORMAL":14,"POSITION":13},"indices":12,"material":0,"mode":4}]},{"extensions":{"S8S_v3d_mesh":{"colorLayers":{},"uvLayers":{}}},"name":"gem_type_2_gem_3_curve_0_line_1_outside_1","primitives":[{"attributes":{"NORMAL":17,"POSITION":16},"indices":15,"material":1,"mode":4}]},{"extensions":{"S8S_v3d_mesh":{"colorLayers":{},"uvLayers":{}}},"name":"gem_type_3_gem_3_curve_0_line_1_inside_1","primitives":[{"attributes":{"NORMAL":20,"POSITION":19},"indices":18,"material":0,"mode":4}]},{"extensions":{"S8S_v3d_mesh":{"colorLayers":{},"uvLayers":{}}},"name":"gem_type_3_gem_3_curve_0_line_1_outside_1","primitives":[{"attributes":{"NORMAL":23,"POSITION":22},"indices":21,"material":1,"mode":4}]},{"extensions":{"S8S_v3d_mesh":{"colorLayers":{},"uvLayers":{}}},"name":"gem_type_5_gem_3_curve_0_line_1_inside","primitives":[{"attributes":{"NORMAL":26,"POSITION":25},"indices":24,"material":0,"mode":4}]},{"extensions":{"S8S_v3d_mesh":{"colorLayers":{},"uvLayers":{}}},"name":"gem_type_5_gem_3_curve_0_line_1_outside_1","primitives":[{"attributes":{"NORMAL":29,"POSITION":28},"indices":27,"material":1,"mode":4}]},{"extensions":{"S8S_v3d_mesh":{"colorLayers":{"engrave_mask":"COLOR_0"},"uvLayers":{"engrave":"TEXCOORD_0"}}},"name":"ring_type_1_gem_3_curve_0_line_0","primitives":[{"attributes":{"COLOR_0":35,"NORMAL":32,"POSITION":31,"TANGENT":33,"TEXCOORD_0":34},"indices":30,"material":2,"mode":4}]},{"extensions":{"S8S_v3d_mesh":{"colorLayers":{"engrave_mask":"COLOR_0"},"uvLayers":{"engrave":"TEXCOORD_0"}}},"name":"ring_type_1_gem_3_curve_0_line_1","primitives":[{"attributes":{"COLOR_0":41,"NORMAL":38,"POSITION":37,"TANGENT":39,"TEXCOORD_0":40},"indices":36,"material":2,"mode":4}]},{"extensions":{"S8S_v3d_mesh":{"colorLayers":{"engrave_mask":"COLOR_0"},"uvLayers":{"engrave":"TEXCOORD_0"}}},"name":"ring_type_2_gem_3_curve_0_line_0","primitives":[{"attributes":{"COLOR_0":47,"NORMAL":44,"POSITION":43,"TANGENT":45,"TEXCOORD_0":46},"indices":42,"material":2,"mode":4}]},{"extensions":{"S8S_v3d_mesh":{"colorLayers":{"engrave_mask":"COLOR_0"},"uvLayers":{"engrave":"TEXCOORD_0"}}},"name":"ring_type_2_gem_3_curve_0_line_1","primitives":[{"attributes":{"COLOR_0":53,"NORMAL":50,"POSITION":49,"TANGENT":51,"TEXCOORD_0":52},"indices":48,"material":2,"mode":4}]},{"extensions":{"S8S_v3d_mesh":{"colorLayers":{"engrave_mask":"COLOR_0"},"uvLayers":{"engrave":"TEXCOORD_0"}}},"name":"ring_type_3_gem_3_curve_0_line_0","primitives":[{"attributes":{"COLOR_0":59,"NORMAL":56,"POSITION":55,"TANGENT":57,"TEXCOORD_0":58},"indices":54,"material":2,"mode":4}]},{"extensions":{"S8S_v3d_mesh":{"colorLayers":{"engrave_mask":"COLOR_0"},"uvLayers":{"engrave":"TEXCOORD_0"}}},"name":"ring_type_3_gem_3_curve_0_line_1","primitives":[{"attributes":{"COLOR_0":65,"NORMAL":62,"POSITION":61,"TANGENT":63,"TEXCOORD_0":64},"indices":60,"material":2,"mode":4}]},{"extensions":{"S8S_v3d_mesh":{"colorLayers":{"engrave_mask":"COLOR_0"},"uvLayers":{"engrave":"TEXCOORD_0"}}},"name":"ring_type_4_gem_3_curve_0_line_0","primitives":[{"attributes":{"COLOR_0":71,"NORMAL":68,"POSITION":67,"TANGENT":69,"TEXCOORD_0":70},"indices":66,"material":2,"mode":4}]},{"extensions":{"S8S_v3d_mesh":{"colorLayers":{"engrave_mask":"COLOR_0"},"uvLayers":{"engrave":"TEXCOORD_0"}}},"name":"ring_type_4_gem_3_curve_0_line_1","primitives":[{"attributes":{"COLOR_0":77,"NORMAL":74,"POSITION":73,"TANGENT":75,"TEXCOORD_0":76},"indices":72,"material":2,"mode":4}]},{"extensions":{"S8S_v3d_mesh":{"colorLayers":{},"uvLayers":{}}},"name":"ring_type_4_gem_3_curve_0_line_1_inside_1","primitives":[{"attributes":{"NORMAL":80,"POSITION":79},"indices":78,"material":0,"mode":4}]},{"extensions":{"S8S_v3d_mesh":{"colorLayers":{},"uvLayers":{}}},"name":"ring_type_4_gem_3_curve_0_line_1_outside_1","primitives":[{"attributes":{"NORMAL":83,"POSITION":82},"indices":81,"material":1,"mode":4}]},{"extensions":{"S8S_v3d_mesh":{"colorLayers":{"engrave_mask":"COLOR_0"},"uvLayers":{"engrave":"TEXCOORD_0"}}},"name":"ring_type_5_gem_3_curve_0_line_0","primitives":[{"attributes":{"COLOR_0":89,"NORMAL":86,"POSITION":85,"TANGENT":87,"TEXCOORD_0":88},"indices":84,"material":2,"mode":4}]},{"extensions":{"S8S_v3d_mesh":{"colorLayers":{"engrave_mask":"COLOR_0"},"uvLayers":{"engrave":"TEXCOORD_0"}}},"name":"ring_type_5_gem_3_curve_0_line_1","primitives":[{"attributes":{"COLOR_0":95,"NORMAL":92,"POSITION":91,"TANGENT":93,"TEXCOORD_0":94},"indices":90,"material":2,"mode":4}]}],"nodes":[{"extensions":{"S8S_v3d_node":{"frustumCulling":true,"groupNames":[],"hidden":true,"hidpiCompositing":false,"objectColor":[1.0,1.0,1.0,1.0],"objectIndex":0,"renderOrder":0}},"name":"Empty","translation":[0.0,-0.028885208070278168,-0.0]},{"extensions":{"S8S_v3d_node":{"frustumCulling":true,"groupNames":["gem_3_line_0"],"hidden":true,"hidpiCompositing":false,"objectColor":[1.0,1.0,1.0,1.0],"objectIndex":0,"renderOrder":0,"useShadows":true}},"mesh":1,"name":"gem_type_2_gem_3_curve_0_line_0_outside","translation":[0.0,0.03812466561794281,-0.05000000074505806]},{"children":[1],"name":"v3d_Proxy_Node_0_gem_type_2_gem_3_curve_0_line_0_outside","translation":[-0.0,-0.0,0.05000000074505806]},{"extensions":{"S8S_v3d_node":{"frustumCulling":true,"groupNames":["gem_3_line_0"],"hidden":true,"hidpiCompositing":false,"objectColor":[1.0,1.0,1.0,1.0],"objectIndex":0,"renderOrder":0,"useShadows":true}},"mesh":1,"name":"gem_type_4_gem_3_curve_0_line_0_outside","translation":[0.0,0.03812466561794281,0.05000000074505806]},{"children":[3],"name":"v3d_Proxy_Node_0_gem_type_4_gem_3_curve_0_line_0_outside","translation":[-0.0,-0.0,-0.05000000074505806]},{"children":[25,13,55,38],"extensions":{"S8S_v3d_node":{"frustumCulling":true,"groupNames":["gem_3_line_1"],"hidden":true,"hidpiCompositing":false,"objectColor":[1.0,1.0,1.0,1.0],"objectIndex":0,"renderOrder":0,"useShadows":true}},"mesh":15,"name":"ring_type_3_gem_3_curve_0_line_1","translation":[0.0,7.999999797903001e-05,-0.0]},{"children":[29,9,59,45],"extensions":{"S8S_v3d_node":{"frustumCulling":true,"groupNames":["gem_3_line_1"],"hidden":true,"hidpiCompositing":false,"objectColor":[1.0,1.0,1.0,1.0],"objectIndex":0,"renderOrder":0,"useShadows":true}},"mesh":21,"name":"ring_type_5_gem_3_curve_0_line_1","translation":[0.0,0.0005150000215508044,-0.0]},{"children":[27,63,57,40],"extensions":{"S8S_v3d_node":{"frustumCulling":true,"groupNames":["gem_3_line_1"],"hidden":true,"hidpiCompositing":false,"objectColor":[1.0,1.0,1.0,1.0],"objectIndex":0,"renderOrder":0,"useShadows":true}},"mesh":11,"name":"ring_type_1_gem_3_curve_0_line_1","translation":[0.0,1.4999999621068127e-05,-0.0]},{"extensions":{"S8S_v3d_node":{"frustumCulling":true,"groupNames":["gem_3_line_1"],"hidden":true,"hidpiCompositing":false,"objectColor":[1.0,1.0,1.0,1.0],"objectIndex":0,"renderOrder":0,"useShadows":true}},"mesh":1,"name":"gem_type_5_gem_3_curve_0_line_1_outside","translation":[0.10000000149011612,0.03812466561794281,0.10000000149011612]},{"children":[8],"name":"v3d_Proxy_Node_0_gem_type_5_gem_3_curve_0_line_1_outside","translation":[-0.10000000149011612,-0.0,-0.10000000149011612]},{"extensions":{"S8S_v3d_node":{"frustumCulling":true,"groupNames":["gem_3_line_1"],"hidden":true,"hidpiCompositing":false,"objectColor":[1.0,1.0,1.0,1.0],"objectIndex":0,"renderOrder":0,"useShadows":true}},"mesh":19,"name":"gem_type_4_gem_3_curve_0_line_1_outside_1","translation":[7.450580596923828e-09,-2.1523225774344387e-15,3.725290298461914e-09]},{"extensions":{"S8S_v3d_node":{"frustumCulling":true,"groupNames":["gem_3_line_1"],"hidden":true,"hidpiCompositing":false,"objectColor":[1.0,1.0,1.0,1.0],"objectIndex":0,"renderOrder":0,"useShadows":true}},"mesh":5,"name":"gem_type_2_gem_3_curve_0_line_1_outside_1","translation":[7.450580596923828e-09,-2.1523225774344387e-15,3.725290298461914e-09]},{"extensions":{"S8S_v3d_node":{"frustumCulling":true,"groupNames":["gem_3_line_1"],"hidden":true,"hidpiCompositing":false,"objectColor":[1.0,1.0,1.0,1.0],"objectIndex":0,"renderOrder":0,"useShadows":true}},"mesh":6,"name":"gem_type_3_gem_3_curve_0_line_1_inside_1","rotation":[1.9470718370939721e-07,1.6292068494294654e-07,-1.0,1.7478846739112444e-14],"translation":[0.10000000149011612,-8.470329472543003e-22,1.7763578981914345e-15]},{"children":[12],"name":"v3d_Proxy_Node_0_gem_type_3_gem_3_curve_0_line_1_inside_1","translation":[-0.10000000149011612,-0.0,-0.0]},{"children":[51,34],"extensions":{"S8S_v3d_node":{"frustumCulling":true,"groupNames":["gem_3_line_0"],"hidden":true,"hidpiCompositing":false,"objectColor":[1.0,1.0,1.0,1.0],"objectIndex":0,"renderOrder":0,"useShadows":true}},"mesh":20,"name":"ring_type_5_gem_3_curve_0_line_0","translation":[0.0,0.0005150000215508044,-0.0]},{"children":[49,30],"extensions":{"S8S_v3d_node":{"frustumCulling":true,"groupNames":["gem_3_line_0"],"hidden":true,"hidpiCompositing":false,"objectColor":[1.0,1.0,1.0,1.0],"objectIndex":0,"renderOrder":0,"useShadows":true}},"mesh":14,"name":"ring_type_3_gem_3_curve_0_line_0","translation":[0.0,7.999999797903001e-05,-0.0]},{"children":[53,32],"extensions":{"S8S_v3d_node":{"frustumCulling":true,"groupNames":["gem_3_line_0"],"hidden":true,"hidpiCompositing":false,"objectColor":[1.0,1.0,1.0,1.0],"objectIndex":0,"renderOrder":0,"useShadows":true}},"mesh":10,"name":"ring_type_1_gem_3_curve_0_line_0","translation":[0.0,1.4999999621068127e-05,-0.0]},{"extensions":{"S8S_v3d_node":{"frustumCulling":true,"groupNames":["gem_3_line_0"],"hidden":true,"hidpiCompositing":false,"objectColor":[1.0,1.0,1.0,1.0],"objectIndex":0,"renderOrder":0,"useShadows":true}},"mesh":0,"name":"gem_type_2_gem_3_curve_0_line_0_inside","translation":[0.0,0.03812466561794281,-0.05000000074505806]},{"children":[17],"name":"v3d_Proxy_Node_0_gem_type_2_gem_3_curve_0_line_0_inside","translation":[-0.0,-0.0,0.05000000074505806]},{"extensions":{"S8S_v3d_node":{"frustumCulling":true,"groupNames":["gem_3_line_0"],"hidden":true,"hidpiCompositing":false,"objectColor":[1.0,1.0,1.0,1.0],"objectIndex":0,"renderOrder":0,"useShadows":true}},"mesh":0,"name":"gem_type_4_gem_3_curve_0_line_0_inside","translation":[0.0,0.03812466561794281,0.05000000074505806]},{"children":[19],"name":"v3d_Proxy_Node_0_gem_type_4_gem_3_curve_0_line_0_inside","translation":[-0.0,-0.0,-0.05000000074505806]},{"extensions":{"S8S_v3d_node":{"frustumCulling":true,"groupNames":["gem_3_line_1"],"hidden":true,"hidpiCompositing":false,"objectColor":[1.0,1.0,1.0,1.0],"objectIndex":0,"renderOrder":0,"useShadows":true}},"mesh":1,"name":"gem_type_2_gem_3_curve_0_line_1_outside","translation":[0.10000000149011612,0.03812466561794281,-0.05000000074505806]},{"children":[21],"name":"v3d_Proxy_Node_0_gem_type_2_gem_3_curve_0_line_1_outside","translation":[-0.10000000149011612,-0.0,0.05000000074505806]},{"extensions":{"S8S_v3d_node":{"frustumCulling":true,"groupNames":["gem_3_line_1"],"hidden":true,"hidpiCompositing":false,"objectColor":[1.0,1.0,1.0,1.0],"objectIndex":0,"renderOrder":0,"useShadows":true}},"mesh":1,"name":"gem_type_4_gem_3_curve_0_line_1_outside","translation":[0.0,0.03812466561794281,-0.0]},{"extensions":{"S8S_v3d_node":{"frustumCulling":true,"groupNames":["gem_3_line_1"],"hidden":true,"hidpiCompositing":false,"objectColor":[1.0,1.0,1.0,1.0],"objectIndex":0,"renderOrder":0,"useShadows":true}},"mesh":0,"name":"gem_type_3_gem_3_curve_0_line_1_inside","translation":[0.10000000149011612,0.03812466561794281,-0.0]},{"children":[24],"name":"v3d_Proxy_Node_0_gem_type_3_gem_3_curve_0_line_1_inside","translation":[-0.10000000149011612,-0.0,-0.0]},{"extensions":{"S8S_v3d_node":{"frustumCulling":true,"groupNames":["gem_3_line_1"],"hidden":true,"hidpiCompositing":false,"objectColor":[1.0,1.0,1.0,1.0],"objectIndex":0,"renderOrder":0,"useShadows":true}},"mesh":0,"name":"gem_type_1_gem_3_curve_0_line_1_inside","translation":[0.10000000149011612,0.03812466561794281,-0.10000000149011612]},{"children":[26],"name":"v3d_Proxy_Node_0_gem_type_1_gem_3_curve_0_line_1_inside","translation":[-0.10000000149011612,-0.0,0.10000000149011612]},{"extensions":{"S8S_v3d_node":{"frustumCulling":true,"groupNames":["gem_3_line_1"],"hidden":true,"hidpiCompositing":false,"objectColor":[1.0,1.0,1.0,1.0],"objectIndex":0,"renderOrder":0,"useShadows":true}},"mesh":0,"name":"gem_type_5_gem_3_curve_0_line_1_inside_1","translation":[0.10000000149011612,0.03812466561794281,0.10000000149011612]},{"children":[28],"name":"v3d_Proxy_Node_0_gem_type_5_gem_3_curve_0_line_1_inside_1","translation":[-0.10000000149011612,-0.0,-0.10000000149011612]},{"extensions":{"S8S_v3d_node":{"frustumCulling":true,"groupNames":["gem_3_line_0"],"hidden":true,"hidpiCompositing":false,"objectColor":[1.0,1.0,1.0,1.0],"objectIndex":0,"renderOrder":0,"useShadows":true}},"mesh":1,"name":"gem_type_3_gem_3_curve_0_line_0_outside","translation":[0.0,0.03812466561794281,-0.0]},{"extensions":{"S8S_v3d_node":{"frustumCulling":true,"groupNames":["gem_3_line_0"],"hidden":true,"hidpiCompositing":false,"objectColor":[1.0,1.0,1.0,1.0],"objectIndex":0,"renderOrder":0,"useShadows":true}},"mesh":1,"name":"gem_type_1_gem_3_curve_0_line_0_outside","translation":[0.0,0.03812466561794281,-0.10000000149011612]},{"children":[31],"name":"v3d_Proxy_Node_0_gem_type_1_gem_3_curve_0_line_0_outside","translation":[-0.0,-0.0,0.10000000149011612]},{"extensions":{"S8S_v3d_node":{"frustumCulling":true,"groupNames":["gem_3_line_0"],"hidden":true,"hidpiCompositing":false,"objectColor":[1.0,1.0,1.0,1.0],"objectIndex":0,"renderOrder":0,"useShadows":true}},"mesh":1,"name":"gem_type_5_gem_3_curve_0_line_0_outside","translation":[0.0,0.03812466561794281,0.10000000149011612]},{"children":[33],"name":"v3d_Proxy_Node_0_gem_type_5_gem_3_curve_0_line_0_outside","translation":[-0.0,-0.0,-0.10000000149011612]},{"children":[46,43,23,10],"extensions":{"S8S_v3d_node":{"frustumCulling":true,"groupNames":["gem_3_line_1"],"hidden":true,"hidpiCompositing":false,"objectColor":[1.0,1.0,1.0,1.0],"objectIndex":0,"renderOrder":0,"useShadows":true}},"mesh":17,"name":"ring_type_4_gem_3_curve_0_line_1","translation":[0.0,2.9999999242136255e-05,-0.0]},{"children":[61,42,22,11],"extensions":{"S8S_v3d_node":{"frustumCulling":true,"groupNames":["gem_3_line_1"],"hidden":true,"hidpiCompositing":false,"objectColor":[1.0,1.0,1.0,1.0],"objectIndex":0,"renderOrder":0,"useShadows":true}},"mesh":13,"name":"ring_type_2_gem_3_curve_0_line_1","translation":[0.0,0.0002500000118743628,-0.0]},{"extensions":{"S8S_v3d_node":{"frustumCulling":true,"groupNames":["gem_3_line_1"],"hidden":true,"hidpiCompositing":false,"objectColor":[1.0,1.0,1.0,1.0],"objectIndex":0,"renderOrder":0,"useShadows":true}},"mesh":7,"name":"gem_type_3_gem_3_curve_0_line_1_outside_1","rotation":[1.9470718370939721e-07,1.6292068494294654e-07,-1.0,1.7478846739112444e-14],"translation":[0.10000000149011612,-8.470329472543003e-22,1.7763578981914345e-15]},{"children":[37],"name":"v3d_Proxy_Node_0_gem_type_3_gem_3_curve_0_line_1_outside_1","translation":[-0.10000000149011612,-0.0,-0.0]},{"extensions":{"S8S_v3d_node":{"frustumCulling":true,"groupNames":["gem_3_line_1"],"hidden":true,"hidpiCompositing":false,"objectColor":[1.0,1.0,1.0,1.0],"objectIndex":0,"renderOrder":0,"useShadows":true}},"mesh":3,"name":"gem_type_1_gem_3_curve_0_line_1_outside_1","translation":[0.10000000149011612,0.0,-0.10000000149011612]},{"children":[39],"name":"v3d_Proxy_Node_0_gem_type_1_gem_3_curve_0_line_1_outside_1","translation":[-0.10000000149011612,-0.0,0.10000000149011612]},{"extensions":{"S8S_v3d_node":{"frustumCulling":true,"groupNames":["gem_3_line_1"],"hidden":true,"hidpiCompositing":false,"objectColor":[1.0,1.0,1.0,1.0],"objectIndex":0,"renderOrder":0,"useShadows":true}},"mesh":4,"name":"gem_type_2_gem_3_curve_0_line_1_inside_1","translation":[0.09999999403953552,-2.1523225774344387e-15,-0.04999999701976776]},{"children":[41],"name":"v3d_Proxy_Node_0_gem_type_2_gem_3_curve_0_line_1_inside_1","translation":[-0.10000000149011612,-0.0,0.05000000074505806]},{"extensions":{"S8S_v3d_node":{"frustumCulling":true,"groupNames":["gem_3_line_1"],"hidden":true,"hidpiCompositing":false,"objectColor":[1.0,1.0,1.0,1.0],"objectIndex":0,"renderOrder":0,"useShadows":true}},"mesh":18,"name":"gem_type_4_gem_3_curve_0_line_1_inside_1","translation":[7.450580596923828e-09,-2.1523225774344387e-15,3.725290298461914e-09]},{"extensions":{"S8S_v3d_node":{"frustumCulling":true,"groupNames":["gem_3_line_1"],"hidden":true,"hidpiCompositing":false,"objectColor":[1.0,1.0,1.0,1.0],"objectIndex":0,"renderOrder":0,"useShadows":true}},"mesh":8,"name":"gem_type_5_gem_3_curve_0_line_1_inside","translation":[0.10000000149011612,0.0,0.10000000149011612]},{"children":[44],"name":"v3d_Proxy_Node_0_gem_type_5_gem_3_curve_0_line_1_inside","translation":[-0.10000000149011612,-0.0,-0.10000000149011612]},{"extensions":{"S8S_v3d_node":{"frustumCulling":true,"groupNames":["gem_3_line_1"],"hidden":true,"hidpiCompositing":false,"objectColor":[1.0,1.0,1.0,1.0],"objectIndex":0,"renderOrder":0,"useShadows":true}},"mesh":0,"name":"gem_type_4_gem_3_curve_0_line_1_inside","translation":[0.0,0.03812466561794281,-0.0]},{"children":[18,2],"extensions":{"S8S_v3d_node":{"frustumCulling":true,"groupNames":["gem_3_line_0"],"hidden":true,"hidpiCompositing":false,"objectColor":[1.0,1.0,1.0,1.0],"objectIndex":0,"renderOrder":0,"useShadows":true}},"mesh":12,"name":"ring_type_2_gem_3_curve_0_line_0","translation":[0.0,0.0002500000118743628,-0.0]},{"children":[20,4],"extensions":{"S8S_v3d_node":{"frustumCulling":true,"groupNames":["gem_3_line_0"],"hidden":true,"hidpiCompositing":false,"objectColor":[1.0,1.0,1.0,1.0],"objectIndex":0,"renderOrder":0,"useShadows":true}},"mesh":16,"name":"ring_type_4_gem_3_curve_0_line_0","translation":[0.0,2.9999999242136255e-05,-0.0]},{"extensions":{"S8S_v3d_node":{"frustumCulling":true,"groupNames":["gem_3_line_0"],"hidden":true,"hidpiCompositing":false,"objectColor":[1.0,1.0,1.0,1.0],"objectIndex":0,"renderOrder":0,"useShadows":true}},"mesh":0,"name":"gem_type_3_gem_3_curve_0_line_0_inside","translation":[0.0,0.03812466561794281,-0.0]},{"extensions":{"S8S_v3d_node":{"frustumCulling":true,"groupNames":["gem_3_line_0"],"hidden":true,"hidpiCompositing":false,"objectColor":[1.0,1.0,1.0,1.0],"objectIndex":0,"renderOrder":0,"useShadows":true}},"mesh":0,"name":"gem_type_5_gem_3_curve_0_line_0_inside","translation":[0.0,0.03812466561794281,0.10000000149011612]},{"children":[50],"name":"v3d_Proxy_Node_0_gem_type_5_gem_3_curve_0_line_0_inside","translation":[-0.0,-0.0,-0.10000000149011612]},{"extensions":{"S8S_v3d_node":{"frustumCulling":true,"groupNames":["gem_3_line_0"],"hidden":true,"hidpiCompositing":false,"objectColor":[1.0,1.0,1.0,1.0],"objectIndex":0,"renderOrder":0,"useShadows":true}},"mesh":0,"name":"gem_type_1_gem_3_curve_0_line_0_inside","translation":[0.0,0.03812466561794281,-0.10000000149011612]},{"children":[52],"name":"v3d_Proxy_Node_0_gem_type_1_gem_3_curve_0_line_0_inside","translation":[-0.0,-0.0,0.10000000149011612]},{"extensions":{"S8S_v3d_node":{"frustumCulling":true,"groupNames":["gem_3_line_1"],"hidden":true,"hidpiCompositing":false,"objectColor":[1.0,1.0,1.0,1.0],"objectIndex":0,"renderOrder":0,"useShadows":true}},"mesh":1,"name":"gem_type_3_gem_3_curve_0_line_1_outside","translation":[0.10000000149011612,0.03812466561794281,-0.0]},{"children":[54],"name":"v3d_Proxy_Node_0_gem_type_3_gem_3_curve_0_line_1_outside","translation":[-0.10000000149011612,-0.0,-0.0]},{"extensions":{"S8S_v3d_node":{"frustumCulling":true,"groupNames":["gem_3_line_1"],"hidden":true,"hidpiCompositing":false,"objectColor":[1.0,1.0,1.0,1.0],"objectIndex":0,"renderOrder":0,"useShadows":true}},"mesh":1,"name":"gem_type_1_gem_3_curve_0_line_1_outside","translation":[0.10000000149011612,0.03812466561794281,-0.10000000149011612]},{"children":[56],"name":"v3d_Proxy_Node_0_gem_type_1_gem_3_curve_0_line_1_outside","translation":[-0.10000000149011612,-0.0,0.10000000149011612]},{"extensions":{"S8S_v3d_node":{"frustumCulling":true,"groupNames":["gem_3_line_1"],"hidden":true,"hidpiCompositing":false,"objectColor":[1.0,1.0,1.0,1.0],"objectIndex":0,"renderOrder":0,"useShadows":true}},"mesh":9,"name":"gem_type_5_gem_3_curve_0_line_1_outside_1","translation":[0.10000000149011612,0.0,0.10000000149011612]},{"children":[58],"name":"v3d_Proxy_Node_0_gem_type_5_gem_3_curve_0_line_1_outside_1","translation":[-0.10000000149011612,-0.0,-0.10000000149011612]},{"extensions":{"S8S_v3d_node":{"frustumCulling":true,"groupNames":["gem_3_line_1"],"hidden":true,"hidpiCompositing":false,"objectColor":[1.0,1.0,1.0,1.0],"objectIndex":0,"renderOrder":0,"useShadows":true}},"mesh":0,"name":"gem_type_2_gem_3_curve_0_line_1_inside","translation":[0.10000000149011612,0.03812466561794281,-0.05000000074505806]},{"children":[60],"name":"v3d_Proxy_Node_0_gem_type_2_gem_3_curve_0_line_1_inside","translation":[-0.10000000149011612,-0.0,0.05000000074505806]},{"extensions":{"S8S_v3d_node":{"frustumCulling":true,"groupNames":["gem_3_line_1"],"hidden":true,"hidpiCompositing":false,"objectColor":[1.0,1.0,1.0,1.0],"objectIndex":0,"renderOrder":0,"useShadows":true}},"mesh":2,"name":"gem_type_1_gem_3_curve_0_line_1_inside_1","translation":[0.10000000149011612,0.0,-0.10000000149011612]},{"children":[62],"name":"v3d_Proxy_Node_0_gem_type_1_gem_3_curve_0_line_1_inside_1","translation":[-0.10000000149011612,-0.0,0.10000000149011612]},{"camera":0,"name":"__DEFAULT_CAMERA__","rotation":[-0.35342374444007874,-0.291869193315506,-0.11708462238311768,0.8810194730758667],"scale":[0.9999999403953552,0.9999998211860657,0.9999998807907104],"translation":[-0.03451959788799286,0.06037094071507454,0.04064362123608589]}],"samplers":[{}],"scene":0,"scenes":[{"extensions":{"S8S_v3d_scene":{"aaMethod":"AUTO","iblEnvironmentMode":"PMREM","physicallyCorrectLights":true,"pmremMaxTileSize":512,"shadowMap":{"esmDistanceScale":1.0,"renderReverseSided":false,"renderSingleSided":true,"type":"PCFPOISSON"},"useHDR":true,"worldMaterial":3}},"extras":{"animFrameRate":24,"coordSystem":"Z_UP_RIGHT"},"name":"Scene","nodes":[0,15,47,48,14,16,5,36,35,6,7,64]}],"textures":[{"extensions":{"S8S_v3d_texture":{"colorSpace":"linear rec.709","source":0}},"name":"environment.hdr","sampler":0},{"extensions":{"S8S_v3d_texture":{"anisotropy":16,"colorSpace":"non-color"}},"name":"engrave_normal","sampler":0,"source":1},{"extensions":{"S8S_v3d_texture":{"anisotropy":16,"colorSpace":"srgb"}},"name":"engrave_ao","sampler":0,"source":2}]}
