{"accessors":[{"bufferView":0,"componentType":5121,"count":174,"max":[113],"min":[0],"type":"SCALAR"},{"bufferView":1,"componentType":5126,"count":114,"max":[0.3717157244682312,0.14585784077644348,0.2413775473833084],"min":[-0.3717157244682312,-0.1258578598499298,-0.4427551031112671],"type":"VEC3"},{"bufferView":2,"componentType":5126,"count":114,"max":[1.0,1.0,1.0],"min":[-1.0,-1.0,-1.0],"type":"VEC3"},{"bufferView":3,"componentType":5126,"count":114,"max":[1.0,1.0,1.0,1.0],"min":[-1.0,-1.0,-1.0,-1.0],"type":"VEC4"},{"bufferView":4,"componentType":5126,"count":114,"max":[0.5749832391738892,0.999618411064148],"min":[0.18934404850006104,0.16651415824890137],"type":"VEC2"},{"bufferView":5,"componentType":5126,"count":114,"max":[0.30000004172325134,0.0,-0.0],"min":[-0.30000004172325134,0.0,-0.0],"type":"VEC3"},{"bufferView":6,"componentType":5126,"count":114,"max":[5.996227264404297e-05,2.199411392211914e-05,6.651878356933594e-05],"min":[-7.748603820800781e-05,-1.8537044525146484e-05,-7.748603820800781e-05],"type":"VEC3"},{"bufferView":7,"componentType":5126,"count":114,"max":[6.651878356933594e-05,1.7914899217430502e-05,7.748603820800781e-05],"min":[-7.748603820800781e-05,-1.4172816008795053e-05,-5.996227264404297e-05],"type":"VEC3"},{"bufferView":8,"componentType":5126,"count":114,"max":[0.0,0.10000000894069672,-0.0],"min":[0.0,-0.10000000894069672,-0.0],"type":"VEC3"},{"bufferView":9,"componentType":5126,"count":114,"max":[1.3470649719238281e-05,1.0848045349121094e-05,1.6987323760986328e-05],"min":[-1.704692840576172e-05,-5.543231964111328e-06,-1.5974044799804688e-05],"type":"VEC3"},{"bufferView":10,"componentType":5126,"count":114,"max":[1.704692840576172e-05,8.814487955532968e-06,1.6987323760986328e-05],"min":[-1.6033649444580078e-05,-3.159046173095703e-06,-1.3470649719238281e-05],"type":"VEC3"},{"bufferView":11,"componentType":5121,"count":552,"max":[205],"min":[0],"type":"SCALAR"},{"bufferView":12,"componentType":5126,"count":206,"max":[0.40000003576278687,0.2999999523162842,0.3679336905479431],"min":[-0.3999999165534973,-0.2999999523162842,-0.3320663273334503],"type":"VEC3"},{"bufferView":13,"componentType":5126,"count":206,"max":[0.999997615814209,0.9999982118606567,0.9986063838005066],"min":[-0.9999977350234985,-0.9999982118606567,-0.9996834397315979],"type":"VEC3"},{"bufferView":14,"componentType":5126,"count":206,"max":[0.9999995231628418,0.9999991059303284,0.7069951891899109,1.0],"min":[-0.9999995827674866,-0.9999980330467224,-0.7072620391845703,1.0],"type":"VEC4"},{"bufferView":15,"componentType":5126,"count":206,"max":[0.9128414392471313,0.999618411064148],"min":[0.00038161175325512886,0.07197743654251099],"type":"VEC2"},{"bufferView":16,"componentType":5126,"count":206,"max":[0.30000007152557373,0.0,-0.0],"min":[-0.3000001013278961,0.0,-0.0],"type":"VEC3"},{"bufferView":17,"componentType":5126,"count":206,"max":[1.4999997802078724e-05,1.4990568161010742e-05,2.0999927073717117e-05],"min":[-1.8009915947914124e-05,-1.0999967344105244e-05,-2.5000073947012424e-05],"type":"VEC3"},{"bufferView":18,"componentType":5126,"count":206,"max":[1.4848075807094574e-05,8.031143806874752e-06,1.8008053302764893e-05],"min":[-1.0961783118546009e-05,-1.4999997802078724e-05,-1.9241124391555786e-05],"type":"VEC3"},{"bufferView":19,"componentType":5126,"count":206,"max":[0.0,0.40000006556510925,-0.0],"min":[0.0,0.0,-0.0],"type":"VEC3"},{"bufferView":20,"componentType":5126,"count":206,"max":[9.999959729611874e-06,8.99285078048706e-06,1.0999967344105244e-05],"min":[-2.2000051103532314e-05,-1.7000013031065464e-05,-5.9604644775390625e-06],"type":"VEC3"},{"bufferView":21,"componentType":5126,"count":206,"max":[1.7000013031065464e-05,2.2000516764819622e-05,1.174508361145854e-05],"min":[-1.979968510568142e-05,-1.2934207916259766e-05,-8.013099431991577e-06],"type":"VEC3"},{"bufferView":22,"componentType":5126,"count":206,"max":[0.0,0.0,0.30000007152557373],"min":[0.0,0.0,-0.0],"type":"VEC3"},{"bufferView":23,"componentType":5126,"count":206,"max":[9.999959729611874e-06,3.198161721229553e-05,1.2814998626708984e-05],"min":[-2.300017513334751e-05,-2.3999949917197227e-05,-2.599984873086214e-05],"type":"VEC3"},{"bufferView":24,"componentType":5126,"count":206,"max":[1.3999990187585354e-05,2.3002969101071358e-05,3.2007694244384766e-05],"min":[-2.40028603002429e-05,-1.0013580322265625e-05,-1.976173371076584e-05],"type":"VEC3"},{"bufferView":25,"componentType":5121,"count":48,"max":[31],"min":[0],"type":"SCALAR"},{"bufferView":26,"componentType":5126,"count":32,"max":[0.3717157244682312,0.009999999776482582,0.3320663273334503],"min":[-0.3717157244682312,-0.009999999776482582,-0.3320663273334503],"type":"VEC3"},{"bufferView":27,"componentType":5126,"count":32,"max":[0.00023700000019744039,0.9999988675117493,1.0],"min":[-0.00023700000019744039,-0.9999988675117493,-1.0],"type":"VEC3"},{"bufferView":28,"componentType":5126,"count":32,"max":[1.0,3.388834375073202e-05,0.00023725873325020075,1.0],"min":[1.0,-3.388906770851463e-05,-0.00023725873325020075,1.0],"type":"VEC4"},{"bufferView":29,"componentType":5126,"count":32,"max":[0.7293609380722046,0.999618411064148],"min":[0.5415537357330322,0.6542170643806458],"type":"VEC2"},{"bufferView":30,"componentType":5126,"count":32,"max":[0.2999998927116394,0.0,-0.0],"min":[-0.2989999055862427,0.0,-0.0],"type":"VEC3"},{"bufferView":31,"componentType":5126,"count":32,"max":[0.0,3.0000010156072676e-06,3.00002284348011e-06],"min":[0.0,-3.0000010156072676e-06,-3.00002284348011e-06],"type":"VEC3"},{"bufferView":32,"componentType":5126,"count":32,"max":[0.0,7.958078640513122e-13,8.242295734817162e-13],"min":[0.0,-7.815970093361102e-13,-8.242295734817162e-13],"type":"VEC3"},{"bufferView":33,"componentType":5126,"count":32,"max":[0.0,0.0,0.30000004172325134],"min":[0.0,0.0,-0.0],"type":"VEC3"},{"bufferView":34,"componentType":5126,"count":32,"max":[3.637978807091713e-12,4.3000000005122274e-05,-0.0],"min":[-3.637978807091713e-12,-4.3000000005122274e-05,-4.2999861761927605e-05],"type":"VEC3"},{"bufferView":35,"componentType":5126,"count":32,"max":[0.0,1.0913936421275139e-11,1.1709744285326451e-11],"min":[0.0,-1.1127099242003169e-11,-1.1691980716932449e-11],"type":"VEC3"},{"bufferView":36,"componentType":5121,"count":174,"max":[117],"min":[0],"type":"SCALAR"},{"bufferView":37,"componentType":5126,"count":118,"max":[0.3717157244682312,0.14585784077644348,0.2413775473833084],"min":[-0.3717157244682312,-0.1258578598499298,-0.4427551031112671],"type":"VEC3"},{"bufferView":38,"componentType":5126,"count":118,"max":[1.0,1.0,1.0],"min":[-1.0,-1.0,-1.0],"type":"VEC3"},{"bufferView":39,"componentType":5126,"count":118,"max":[1.0,1.0,1.0,1.0],"min":[-1.0,-1.0,-1.0,1.0],"type":"VEC4"},{"bufferView":40,"componentType":5126,"count":118,"max":[0.5747569799423218,0.999618411064148],"min":[0.0003816187381744385,0.08726811408996582],"type":"VEC2"},{"bufferView":41,"componentType":5126,"count":118,"max":[0.30000004172325134,0.0,-0.0],"min":[-0.30000004172325134,0.0,-0.0],"type":"VEC3"},{"bufferView":42,"componentType":5126,"count":118,"max":[7.748603820800781e-05,1.4483928680419922e-05,7.748603820800781e-05],"min":[-5.048513412475586e-05,-3.281235694885254e-05,-6.651878356933594e-05],"type":"VEC3"},{"bufferView":43,"componentType":5126,"count":118,"max":[6.651878356933594e-05,1.8894672393798828e-05,7.748603820800781e-05],"min":[-7.748603820800781e-05,-1.0669231414794922e-05,-5.048513412475586e-05],"type":"VEC3"},{"bufferView":44,"componentType":5126,"count":118,"max":[0.0,0.10000000894069672,-0.0],"min":[0.0,-0.10000000894069672,-0.0],"type":"VEC3"},{"bufferView":45,"componentType":5126,"count":118,"max":[2.4020671844482422e-05,1.0728836059570312e-05,1.52587890625e-05],"min":[-1.3470649719238281e-05,-5.4836273193359375e-06,-2.4020671844482422e-05],"type":"VEC3"},{"bufferView":46,"componentType":5126,"count":118,"max":[2.4020671844482422e-05,8.81248342921026e-06,2.4020671844482422e-05],"min":[-1.3530254364013672e-05,-2.950429916381836e-06,-1.3470649719238281e-05],"type":"VEC3"},{"bufferView":47,"componentType":5121,"count":252,"max":[137],"min":[0],"type":"SCALAR"},{"bufferView":48,"componentType":5126,"count":138,"max":[0.36171573400497437,0.0,0.010000013746321201],"min":[-0.009999990463256836,-0.5434314608573914,-0.010000014677643776],"type":"VEC3"},{"bufferView":49,"componentType":5126,"count":138,"max":[1.0,1.0,1.0],"min":[-1.0,-1.0,-1.0],"type":"VEC3"},{"bufferView":50,"componentType":5126,"count":138,"max":[1.0,0.7071087956428528,1.0,1.0],"min":[-1.0,-0.7071095108985901,-1.0,1.0],"type":"VEC4"},{"bufferView":51,"componentType":5126,"count":138,"max":[0.929319441318512,0.8062518835067749],"min":[0.53345787525177,0.4170287251472473],"type":"VEC2"},{"bufferView":52,"componentType":5126,"count":138,"max":[0.29999998211860657,0.0,-0.0],"min":[0.0,0.0,-0.0],"type":"VEC3"},{"bufferView":53,"componentType":5126,"count":138,"max":[7.957220077514648e-06,1.0013580322265625e-05,1.1205673217773438e-05],"min":[-1.1086463928222656e-05,-6.020069122314453e-06,-1.4007091522216797e-05],"type":"VEC3"},{"bufferView":54,"componentType":5126,"count":138,"max":[6.139278411865234e-06,8.087605237960815e-06,9.238719940185547e-06],"min":[-1.1026859283447266e-05,-6.979098543524742e-06,-1.1026859283447266e-05],"type":"VEC3"},{"bufferView":55,"componentType":5126,"count":138,"max":[0.0,0.4000000059604645,-0.0],"min":[0.0,0.0,-0.0],"type":"VEC3"},{"bufferView":56,"componentType":5126,"count":138,"max":[1.700000029813964e-05,5.125999450683594e-06,8.821487426757812e-06],"min":[-3.199999991920777e-05,-7.927417755126953e-06,-7.152557373046875e-06],"type":"VEC3"},{"bufferView":57,"componentType":5126,"count":138,"max":[7.271766662597656e-06,1.700000029813964e-05,7.987022399902344e-06],"min":[-7.569789886474609e-06,-3.199999991920777e-05,-7.569789886474609e-06],"type":"VEC3"},{"bufferView":58,"componentType":5121,"count":252,"max":[137],"min":[0],"type":"SCALAR"},{"bufferView":59,"componentType":5126,"count":138,"max":[0.009999990463256836,0.0,0.010000013746321201],"min":[-0.36171573400497437,-0.5434314608573914,-0.010000014677643776],"type":"VEC3"},{"bufferView":60,"componentType":5126,"count":138,"max":[1.0,1.0,1.0],"min":[-1.0,-1.0,-1.0],"type":"VEC3"},{"bufferView":61,"componentType":5126,"count":138,"max":[1.0,0.7071349620819092,1.0,1.0],"min":[-1.0,-0.7070969343185425,-1.0,1.0],"type":"VEC4"},{"bufferView":62,"componentType":5126,"count":138,"max":[0.7749419808387756,0.4191248416900635],"min":[0.5382199883460999,0.10020953416824341],"type":"VEC2"},{"bufferView":63,"componentType":5126,"count":138,"max":[0.0,0.0,-0.0],"min":[-0.29999998211860657,0.0,-0.0],"type":"VEC3"},{"bufferView":64,"componentType":5126,"count":138,"max":[1.1086463928222656e-05,9.775161743164062e-06,1.430511474609375e-05],"min":[-8.791685104370117e-06,-6.020069122314453e-06,-1.0967254638671875e-05],"type":"VEC3"},{"bufferView":65,"componentType":5126,"count":138,"max":[7.808208465576172e-06,6.750226020812988e-06,1.0192394256591797e-05],"min":[-1.1026859283447266e-05,-8.958624675869942e-06,-1.1026859283447266e-05],"type":"VEC3"},{"bufferView":66,"componentType":5126,"count":138,"max":[0.0,0.4000000059604645,-0.0],"min":[0.0,0.0,-0.0],"type":"VEC3"},{"bufferView":67,"componentType":5126,"count":138,"max":[6.299999949987978e-05,7.450580596923828e-06,7.152557373046875e-06],"min":[-3.400000059627928e-05,-1.436471939086914e-05,-7.510185241699219e-06],"type":"VEC3"},{"bufferView":68,"componentType":5126,"count":138,"max":[7.092952728271484e-06,3.400000059627928e-05,6.556510925292969e-06],"min":[-9.08970832824707e-06,-6.299999949987978e-05,-8.52346420288086e-06],"type":"VEC3"},{"bufferView":69,"componentType":5121,"count":132,"max":[95],"min":[0],"type":"SCALAR"},{"bufferView":70,"componentType":5126,"count":96,"max":[0.1858578473329544,0.2717157006263733,0.010000023059546947],"min":[-0.185857892036438,-0.27171576023101807,-0.01000001560896635],"type":"VEC3"},{"bufferView":71,"componentType":5126,"count":96,"max":[1.0,1.0,1.0],"min":[-1.0,-1.0,-1.0],"type":"VEC3"},{"bufferView":72,"componentType":5126,"count":96,"max":[0.7071047425270081,0.7071031332015991,1.0,1.0],"min":[-0.7071153521537781,-1.0,-1.0,1.0],"type":"VEC4"},{"bufferView":73,"componentType":5126,"count":96,"max":[0.8911583423614502,0.6577553153038025],"min":[0.5334578156471252,0.41703104972839355],"type":"VEC2"},{"bufferView":74,"componentType":5126,"count":96,"max":[0.15000002086162567,0.0,-0.0],"min":[-0.15000002086162567,0.0,-0.0],"type":"VEC3"},{"bufferView":75,"componentType":5126,"count":96,"max":[0.0,5.364418029785156e-06,7.569789886474609e-06],"min":[-7.510185241699219e-06,-6.020069122314453e-06,-4.947185516357422e-06],"type":"VEC3"},{"bufferView":76,"componentType":5126,"count":96,"max":[7.059608151394059e-07,3.6954879760742188e-06,3.2782554626464844e-06],"min":[-5.0067901611328125e-06,-5.0067901611328125e-06,-3.698728050949285e-06],"type":"VEC3"},{"bufferView":77,"componentType":5126,"count":96,"max":[0.0,0.40000003576278687,-0.0],"min":[0.0,0.0,-0.0],"type":"VEC3"},{"bufferView":78,"componentType":5126,"count":96,"max":[2.2351741790771484e-05,1.0669231414794922e-05,1.1682510375976562e-05],"min":[-1.1324882507324219e-05,-1.049041748046875e-05,-1.1682510375976562e-05],"type":"VEC3"},{"bufferView":79,"componentType":5126,"count":96,"max":[1.3470649719238281e-05,1.049041748046875e-05,1.3476344975060783e-05],"min":[-1.049041748046875e-05,-1.3470649719238281e-05,-6.9663601607317105e-06],"type":"VEC3"},{"bufferView":80,"componentType":5123,"count":1836,"max":[483],"min":[0],"type":"SCALAR"},{"bufferView":81,"componentType":5126,"count":484,"max":[0.40408360958099365,0.4000000059604645,0.3421439230442047],"min":[-0.4040835499763489,-5.2847344278461605e-09,-0.3421439230442047],"type":"VEC3"},{"bufferView":82,"componentType":5126,"count":484,"max":[0.996177077293396,0.27872100472450256,0.9962077736854553],"min":[-0.996177077293396,-0.9976041913032532,-0.9962077736854553],"type":"VEC3"},{"bufferView":83,"componentType":5126,"count":484,"max":[0.9650521874427795,1.0,0.9862735867500305,1.0],"min":[-0.9650535583496094,0.035358231514692307,-0.9862735271453857,-1.0],"type":"VEC4"},{"bufferView":84,"componentType":5126,"count":484,"max":[0.999618411064148,0.999618411064148],"min":[0.0003816187381744385,0.0074988603591918945],"type":"VEC2"},{"bufferView":85,"componentType":5126,"count":484,"max":[0.30000004172325134,0.0,-0.0],"min":[-0.30000004172325134,0.0,-0.0],"type":"VEC3"},{"bufferView":86,"componentType":5126,"count":484,"max":[1.3977289199829102e-05,6.99702650308609e-06,8.970499038696289e-06],"min":[-1.198798418045044e-05,-5.5000004067551345e-05,-8.970499038696289e-06],"type":"VEC3"},{"bufferView":87,"componentType":5126,"count":484,"max":[1.33514404296875e-05,2.9802322387695312e-06,3.375897358637303e-05],"min":[-4.341932071838528e-05,-2.9206275939941406e-06,-1.4454126358032227e-05],"type":"VEC3"},{"bufferView":88,"componentType":5126,"count":484,"max":[0.0,0.0,0.30000004172325134],"min":[0.0,0.0,-0.0],"type":"VEC3"},{"bufferView":89,"componentType":5126,"count":484,"max":[2.86102294921875e-06,1.3997778296470642e-05,1.989305019378662e-06],"min":[-2.8908252716064453e-06,-5.0999999075429514e-05,-1.3709068298339844e-06],"type":"VEC3"},{"bufferView":90,"componentType":5126,"count":484,"max":[2.8580427169799805e-05,2.209097146987915e-06,3.762543201446533e-05],"min":[-1.0624527931213379e-05,-1.7881393432617188e-06,-9.045004844665527e-06],"type":"VEC3"},{"bufferView":91,"componentType":5121,"count":24,"max":[15],"min":[0],"type":"SCALAR"},{"bufferView":92,"componentType":5126,"count":16,"max":[4.593962669372559,4.8932271003723145,4.593962669372559],"min":[-4.593962669372559,0.0,-0.7384735941886902],"type":"VEC3"},{"bufferView":93,"componentType":5126,"count":16,"max":[1.0,0.0,1.0],"min":[-1.0,-1.0,-0.0],"type":"VEC3"},{"bufferView":94,"componentType":5126,"count":16,"max":[2.928788661956787,5.499269962310791],"min":[-2.396149158477783,-4.499269962310791],"type":"VEC2"},{"bufferView":95,"componentType":5121,"count":6,"max":[3],"min":[0],"type":"SCALAR"},{"bufferView":96,"componentType":5126,"count":4,"max":[4.593962669372559,0.0,4.593962669372559],"min":[-4.593962669372559,0.0,-0.7384735941886902],"type":"VEC3"},{"bufferView":97,"componentType":5126,"count":4,"max":[0.0,1.0,-0.0],"min":[0.0,1.0,-0.0],"type":"VEC3"},{"bufferView":98,"componentType":5126,"count":4,"max":[1.4507912397384644,2.499695062637329],"min":[-0.8703528642654419,-1.499695062637329],"type":"VEC2"},{"bufferView":99,"componentType":5123,"count":2292,"max":[424],"min":[0],"type":"SCALAR"},{"bufferView":100,"componentType":5126,"count":425,"max":[0.05855230614542961,0.05855230614542961,-0.0],"min":[-0.05855230614542961,-0.05855230614542961,-0.16906659305095673],"type":"VEC3"},{"bufferView":101,"componentType":5126,"count":425,"max":[1.0,1.0,0.9999979734420776],"min":[-1.0,-1.0,-0.9999978542327881],"type":"VEC3"},{"bufferView":102,"componentType":5126,"count":425,"max":[1.0,1.0],"min":[0.0,0.8309333920478821],"type":"VEC2"},{"bufferView":103,"componentType":5121,"count":288,"max":[63],"min":[0],"type":"SCALAR"},{"bufferView":104,"componentType":5126,"count":64,"max":[0.08147066086530685,0.07882723212242126,0.0009449592907913029],"min":[-0.09234166890382767,-0.05883568897843361,-0.37593355774879456],"type":"VEC3"},{"bufferView":105,"componentType":5126,"count":64,"max":[0.9360770583152771,0.9363878965377808,0.7479140162467957],"min":[-0.9360762238502502,-0.9363875985145569,-0.7479148507118225],"type":"VEC3"},{"bufferView":106,"componentType":5126,"count":64,"max":[0.0,1.0],"min":[0.0,1.0],"type":"VEC2"},{"bufferView":107,"componentType":5121,"count":15,"max":[6],"min":[0],"type":"SCALAR"},{"bufferView":108,"componentType":5126,"count":7,"max":[0.15407715737819672,0.0,1.0301748514175415],"min":[-0.15407715737819672,0.0,-0.0],"type":"VEC3"},{"bufferView":109,"componentType":5126,"count":7,"max":[0.0,1.0,-0.0],"min":[0.0,1.0,-0.0],"type":"VEC3"},{"bufferView":110,"componentType":5126,"count":7,"max":[1.3989812135696411,0.6689176559448242],"min":[-0.026234209537506104,0.33108240365982056],"type":"VEC2"},{"bufferView":111,"componentType":5121,"count":15,"max":[6],"min":[0],"type":"SCALAR"},{"bufferView":112,"componentType":5126,"count":7,"max":[0.15407715737819672,2.014106925685155e-08,1.235242247581482],"min":[-0.15407715737819672,0.0,0.46077394485473633],"type":"VEC3"},{"bufferView":113,"componentType":5126,"count":7,"max":[0.0,1.0,-0.0],"min":[0.0,1.0,-0.0],"type":"VEC3"},{"bufferView":114,"componentType":5126,"count":7,"max":[1.3989812135696411,0.6689176559448242],"min":[-0.026234209537506104,0.33108240365982056],"type":"VEC2"},{"bufferView":115,"componentType":5121,"count":15,"max":[6],"min":[0],"type":"SCALAR"},{"bufferView":116,"componentType":5126,"count":7,"max":[0.15407715737819672,2.014106925685155e-08,1.235242247581482],"min":[-0.15407715737819672,0.0,0.46077394485473633],"type":"VEC3"},{"bufferView":117,"componentType":5126,"count":7,"max":[0.0,1.0,-0.0],"min":[0.0,1.0,-0.0],"type":"VEC3"},{"bufferView":118,"componentType":5126,"count":7,"max":[1.3989812135696411,0.6689176559448242],"min":[-0.026234209537506104,0.33108240365982056],"type":"VEC2"},{"bufferView":119,"componentType":5121,"count":15,"max":[6],"min":[0],"type":"SCALAR"},{"bufferView":120,"componentType":5126,"count":7,"max":[0.15407715737819672,2.014106925685155e-08,1.235242247581482],"min":[-0.15407715737819672,0.0,0.46077394485473633],"type":"VEC3"},{"bufferView":121,"componentType":5126,"count":7,"max":[0.0,1.0,-0.0],"min":[0.0,1.0,-0.0],"type":"VEC3"},{"bufferView":122,"componentType":5126,"count":7,"max":[1.3989812135696411,0.6689176559448242],"min":[-0.026234209537506104,0.33108240365982056],"type":"VEC2"}],"asset":{"generator":"Verge3D for Blender v4.6.0","version":"2.0"},"bufferViews":[{"buffer":0,"byteLength":174,"byteOffset":0,"target":34963},{"buffer":0,"byteLength":1368,"byteOffset":176,"target":34962},{"buffer":0,"byteLength":1368,"byteOffset":1544,"target":34962},{"buffer":0,"byteLength":1824,"byteOffset":2912,"target":34962},{"buffer":0,"byteLength":912,"byteOffset":4736,"target":34962},{"buffer":0,"byteLength":1368,"byteOffset":5648},{"buffer":0,"byteLength":1368,"byteOffset":7016},{"buffer":0,"byteLength":1368,"byteOffset":8384},{"buffer":0,"byteLength":1368,"byteOffset":9752},{"buffer":0,"byteLength":1368,"byteOffset":11120},{"buffer":0,"byteLength":1368,"byteOffset":12488},{"buffer":0,"byteLength":552,"byteOffset":13856,"target":34963},{"buffer":0,"byteLength":2472,"byteOffset":14408,"target":34962},{"buffer":0,"byteLength":2472,"byteOffset":16880,"target":34962},{"buffer":0,"byteLength":3296,"byteOffset":19352,"target":34962},{"buffer":0,"byteLength":1648,"byteOffset":22648,"target":34962},{"buffer":0,"byteLength":2472,"byteOffset":24296},{"buffer":0,"byteLength":2472,"byteOffset":26768},{"buffer":0,"byteLength":2472,"byteOffset":29240},{"buffer":0,"byteLength":2472,"byteOffset":31712},{"buffer":0,"byteLength":2472,"byteOffset":34184},{"buffer":0,"byteLength":2472,"byteOffset":36656},{"buffer":0,"byteLength":2472,"byteOffset":39128},{"buffer":0,"byteLength":2472,"byteOffset":41600},{"buffer":0,"byteLength":2472,"byteOffset":44072},{"buffer":0,"byteLength":48,"byteOffset":46544,"target":34963},{"buffer":0,"byteLength":384,"byteOffset":46592,"target":34962},{"buffer":0,"byteLength":384,"byteOffset":46976,"target":34962},{"buffer":0,"byteLength":512,"byteOffset":47360,"target":34962},{"buffer":0,"byteLength":256,"byteOffset":47872,"target":34962},{"buffer":0,"byteLength":384,"byteOffset":48128},{"buffer":0,"byteLength":384,"byteOffset":48512},{"buffer":0,"byteLength":384,"byteOffset":48896},{"buffer":0,"byteLength":384,"byteOffset":49280},{"buffer":0,"byteLength":384,"byteOffset":49664},{"buffer":0,"byteLength":384,"byteOffset":50048},{"buffer":0,"byteLength":174,"byteOffset":50432,"target":34963},{"buffer":0,"byteLength":1416,"byteOffset":50608,"target":34962},{"buffer":0,"byteLength":1416,"byteOffset":52024,"target":34962},{"buffer":0,"byteLength":1888,"byteOffset":53440,"target":34962},{"buffer":0,"byteLength":944,"byteOffset":55328,"target":34962},{"buffer":0,"byteLength":1416,"byteOffset":56272},{"buffer":0,"byteLength":1416,"byteOffset":57688},{"buffer":0,"byteLength":1416,"byteOffset":59104},{"buffer":0,"byteLength":1416,"byteOffset":60520},{"buffer":0,"byteLength":1416,"byteOffset":61936},{"buffer":0,"byteLength":1416,"byteOffset":63352},{"buffer":0,"byteLength":252,"byteOffset":64768,"target":34963},{"buffer":0,"byteLength":1656,"byteOffset":65020,"target":34962},{"buffer":0,"byteLength":1656,"byteOffset":66676,"target":34962},{"buffer":0,"byteLength":2208,"byteOffset":68332,"target":34962},{"buffer":0,"byteLength":1104,"byteOffset":70540,"target":34962},{"buffer":0,"byteLength":1656,"byteOffset":71644},{"buffer":0,"byteLength":1656,"byteOffset":73300},{"buffer":0,"byteLength":1656,"byteOffset":74956},{"buffer":0,"byteLength":1656,"byteOffset":76612},{"buffer":0,"byteLength":1656,"byteOffset":78268},{"buffer":0,"byteLength":1656,"byteOffset":79924},{"buffer":0,"byteLength":252,"byteOffset":81580,"target":34963},{"buffer":0,"byteLength":1656,"byteOffset":81832,"target":34962},{"buffer":0,"byteLength":1656,"byteOffset":83488,"target":34962},{"buffer":0,"byteLength":2208,"byteOffset":85144,"target":34962},{"buffer":0,"byteLength":1104,"byteOffset":87352,"target":34962},{"buffer":0,"byteLength":1656,"byteOffset":88456},{"buffer":0,"byteLength":1656,"byteOffset":90112},{"buffer":0,"byteLength":1656,"byteOffset":91768},{"buffer":0,"byteLength":1656,"byteOffset":93424},{"buffer":0,"byteLength":1656,"byteOffset":95080},{"buffer":0,"byteLength":1656,"byteOffset":96736},{"buffer":0,"byteLength":132,"byteOffset":98392,"target":34963},{"buffer":0,"byteLength":1152,"byteOffset":98524,"target":34962},{"buffer":0,"byteLength":1152,"byteOffset":99676,"target":34962},{"buffer":0,"byteLength":1536,"byteOffset":100828,"target":34962},{"buffer":0,"byteLength":768,"byteOffset":102364,"target":34962},{"buffer":0,"byteLength":1152,"byteOffset":103132},{"buffer":0,"byteLength":1152,"byteOffset":104284},{"buffer":0,"byteLength":1152,"byteOffset":105436},{"buffer":0,"byteLength":1152,"byteOffset":106588},{"buffer":0,"byteLength":1152,"byteOffset":107740},{"buffer":0,"byteLength":1152,"byteOffset":108892},{"buffer":0,"byteLength":3672,"byteOffset":110044,"target":34963},{"buffer":0,"byteLength":5808,"byteOffset":113716,"target":34962},{"buffer":0,"byteLength":5808,"byteOffset":119524,"target":34962},{"buffer":0,"byteLength":7744,"byteOffset":125332,"target":34962},{"buffer":0,"byteLength":3872,"byteOffset":133076,"target":34962},{"buffer":0,"byteLength":5808,"byteOffset":136948},{"buffer":0,"byteLength":5808,"byteOffset":142756},{"buffer":0,"byteLength":5808,"byteOffset":148564},{"buffer":0,"byteLength":5808,"byteOffset":154372},{"buffer":0,"byteLength":5808,"byteOffset":160180},{"buffer":0,"byteLength":5808,"byteOffset":165988},{"buffer":0,"byteLength":24,"byteOffset":171796,"target":34963},{"buffer":0,"byteLength":192,"byteOffset":171820,"target":34962},{"buffer":0,"byteLength":192,"byteOffset":172012,"target":34962},{"buffer":0,"byteLength":128,"byteOffset":172204,"target":34962},{"buffer":0,"byteLength":6,"byteOffset":172332,"target":34963},{"buffer":0,"byteLength":48,"byteOffset":172340,"target":34962},{"buffer":0,"byteLength":48,"byteOffset":172388,"target":34962},{"buffer":0,"byteLength":32,"byteOffset":172436,"target":34962},{"buffer":0,"byteLength":4584,"byteOffset":172468,"target":34963},{"buffer":0,"byteLength":5100,"byteOffset":177052,"target":34962},{"buffer":0,"byteLength":5100,"byteOffset":182152,"target":34962},{"buffer":0,"byteLength":3400,"byteOffset":187252,"target":34962},{"buffer":0,"byteLength":288,"byteOffset":190652,"target":34963},{"buffer":0,"byteLength":768,"byteOffset":190940,"target":34962},{"buffer":0,"byteLength":768,"byteOffset":191708,"target":34962},{"buffer":0,"byteLength":512,"byteOffset":192476,"target":34962},{"buffer":0,"byteLength":15,"byteOffset":192988,"target":34963},{"buffer":0,"byteLength":84,"byteOffset":193004,"target":34962},{"buffer":0,"byteLength":84,"byteOffset":193088,"target":34962},{"buffer":0,"byteLength":56,"byteOffset":193172,"target":34962},{"buffer":0,"byteLength":15,"byteOffset":193228,"target":34963},{"buffer":0,"byteLength":84,"byteOffset":193244,"target":34962},{"buffer":0,"byteLength":84,"byteOffset":193328,"target":34962},{"buffer":0,"byteLength":56,"byteOffset":193412,"target":34962},{"buffer":0,"byteLength":15,"byteOffset":193468,"target":34963},{"buffer":0,"byteLength":84,"byteOffset":193484,"target":34962},{"buffer":0,"byteLength":84,"byteOffset":193568,"target":34962},{"buffer":0,"byteLength":56,"byteOffset":193652,"target":34962},{"buffer":0,"byteLength":15,"byteOffset":193708,"target":34963},{"buffer":0,"byteLength":84,"byteOffset":193724,"target":34962},{"buffer":0,"byteLength":84,"byteOffset":193808,"target":34962},{"buffer":0,"byteLength":56,"byteOffset":193892,"target":34962}],"buffers":[{"byteLength":193948,"uri":"furniture_configurator.bin"}],"cameras":[{"extensions":{"S8S_v3d_camera":{"controls":"ORBIT","enablePan":false,"moveSpeed":1.0,"orbitMaxAzimuthAngle":1.1344640254974365,"orbitMaxDistance":5.0,"orbitMaxPolarAngle":1.483529806137085,"orbitMaxZoom":100.0,"orbitMinAzimuthAngle":-1.1344640254974365,"orbitMinDistance":3.0,"orbitMinPolarAngle":0.4363323152065277,"orbitMinZoom":0.009999999776482582,"orbitTarget":[0.0,0.5144430994987488,-0.017933666706085205],"rotateSpeed":1.0,"viewportFitInitialAspect":1.7777777777777777,"viewportFitType":"AUTO"}},"name":"Camera","perspective":{"aspectRatio":1.7777777777777777,"yfov":0.6911111294713378,"zfar":100.0,"znear":0.10000000149011612},"type":"perspective"}],"extensions":{"S8S_v3d_lights":{"lights":[{"angle":0.4363323152065277,"color":[1.0,1.0,1.0],"decay":2,"distance":38.729833894913796,"intensity":1500.0,"name":"Lamp","penumbra":1.0,"power":1500.0,"profile":"blender","shadow":{"bias":-0.0003780000686645508,"cameraFar":38.729833894913796,"cameraFov":0.8726646304130554,"cameraNear":1.0,"enabled":true,"expBias":2.5,"mapSize":512,"radius":1.0,"slopeScaledBias":2.5},"type":"spot"}]}},"extensionsUsed":["S8S_v3d_texture","S8S_v3d_materials","S8S_v3d_camera","S8S_v3d_lights","S8S_v3d_mesh","S8S_v3d_node","S8S_v3d_scene"],"images":[{"uri":"concrete_basecolor.jpg"},{"uri":"walmut_basecolor.jpg"},{"uri":"walmut_normal.png"},{"uri":"environment.hdr"}],"materials":[{"alphaMode":"BLEND","doubleSided":true,"extensions":{"S8S_v3d_materials":{"depthWrite":false,"gtaoVisible":false,"materialIndex":0,"nodeGraph":{"edges":[{"fromNode":0,"fromOutput":0,"toInput":0,"toNode":1},{"fromNode":2,"fromOutput":0,"toInput":4,"toNode":0},{"fromNode":3,"fromOutput":0,"toInput":0,"toNode":2}],"nodes":[{"inputs":[[0.042793840169906616,0.042793840169906616,0.042793840169906616,1.0],0.0,1.0,1.4500000476837158,1.0,[0.0,0.0,0.0],0.0,[1.0,0.20000000298023224,0.10000000149011612],0.05000000074505806,1.399999976158142,0.0,0.0,[1.0,1.0,1.0,1.0],0.0,0.0,[0.0,0.0,0.0],0.0,0.0,0.029999999329447746,1.5,[1.0,1.0,1.0,1.0],[0.0,0.0,0.0],0.0,0.5,[1.0,1.0,1.0,1.0],[0.0,0.0,0.0,1.0],1.0],"is_active_output":false,"name":"Principled BSDF","outputs":[[0,0,0,0]],"type":"BSDF_PRINCIPLED_BL"},{"inputs":[[0,0,0,0],[0,0,0,0],[0.0,0.0,0.0],0.0],"is_active_output":true,"name":"Material Output","outputs":[],"type":"OUTPUT_MATERIAL_BL"},{"gradientType":"LINEAR","inputs":[[0.0,0.0,0.0]],"is_active_output":false,"name":"Gradient Texture","outputs":[[0.0,0.0,0.0,0.0],0.0],"type":"TEX_GRADIENT_BL"},{"inputs":[],"is_active_output":false,"name":"UV Map","outputs":[[0.0,0.0,0.0]],"type":"UVMAP_BL","uvLayer":"UVMap"}]},"renderSide":"DOUBLE","useCastShadows":false}},"name":"arrows"},{"extensions":{"S8S_v3d_materials":{"gtaoVisible":true,"materialIndex":0,"nodeGraph":{"edges":[{"fromNode":0,"fromOutput":0,"toInput":0,"toNode":1}],"nodes":[{"inputs":[[0.6349076628684998,0.6812976002693176,0.7024833559989929,1.0],0.0,0.10000000149011612,1.4500000476837158,1.0,[0.0,0.0,0.0],0.0,[1.0,0.20000000298023224,0.10000000149011612],0.05000000074505806,1.399999976158142,0.0,1.0,[1.0,1.0,1.0,1.0],0.0,0.0,[0.0,0.0,0.0],0.0,0.0,0.029999999329447746,1.5,[1.0,1.0,1.0,1.0],[0.0,0.0,0.0],0.0,0.5,[1.0,1.0,1.0,1.0],[0.0,0.0,0.0,1.0],1.0],"is_active_output":false,"name":"Principled BSDF","outputs":[[0,0,0,0]],"type":"BSDF_PRINCIPLED_BL"},{"inputs":[[0,0,0,0],[0,0,0,0],[0.0,0.0,0.0],0.0],"is_active_output":true,"name":"Material Output","outputs":[],"type":"OUTPUT_MATERIAL_BL"}]},"useCastShadows":true}},"name":"ceramic"},{"extensions":{"S8S_v3d_materials":{"gtaoVisible":true,"materialIndex":0,"nodeGraph":{"edges":[{"fromNode":3,"fromOutput":0,"toInput":0,"toNode":1},{"fromNode":1,"fromOutput":0,"toInput":0,"toNode":0},{"fromNode":2,"fromOutput":0,"toInput":11,"toNode":1}],"nodes":[{"inputs":[[0,0,0,0],[0,0,0,0],[0.0,0.0,0.0],0.0],"is_active_output":true,"name":"Material Output","outputs":[],"type":"OUTPUT_MATERIAL_BL"},{"inputs":[[0.800000011920929,0.800000011920929,0.800000011920929,1.0],0.0,0.30000001192092896,1.4500000476837158,1.0,[0.0,0.0,0.0],0.0,[1.0,0.20000000298023224,0.10000000149011612],0.05000000074505806,1.399999976158142,0.0,0.5,[1.0,1.0,1.0,1.0],0.0,0.0,[0.0,0.0,0.0],0.0,0.0,0.029999999329447746,1.5,[1.0,1.0,1.0,1.0],[0.0,0.0,0.0],0.0,0.5,[1.0,1.0,1.0,1.0],[0.0,0.0,0.0,1.0],1.0],"is_active_output":false,"name":"Principled BSDF","outputs":[[0,0,0,0]],"type":"BSDF_PRINCIPLED_BL"},{"inputs":[1.4500000476837158,[0.0,0.0,0.0]],"is_active_output":false,"name":"Fresnel","outputs":[0.0],"type":"FRESNEL_BL"},{"alphaMode":"STRAIGHT","inputs":[[0.0,0.0,0.0]],"is_active_output":false,"name":"Image Texture","outputs":[[0.0,0.0,0.0,0.0],0.0],"projection":"FLAT","projectionBlend":0.0,"texture":0,"type":"TEX_IMAGE_BL"}]},"useCastShadows":true}},"name":"floor"},{"extensions":{"S8S_v3d_materials":{"gtaoVisible":true,"materialIndex":0,"nodeGraph":{"edges":[{"fromNode":0,"fromOutput":0,"toInput":0,"toNode":1}],"nodes":[{"inputs":[[0.49692288041114807,0.39721497893333435,0.2446165531873703,1.0],0.0,1.0,1.4500000476837158,1.0,[0.0,0.0,0.0],0.0,[1.0,0.20000000298023224,0.10000000149011612],0.05000000074505806,1.399999976158142,0.0,0.5,[1.0,1.0,1.0,1.0],0.0,0.0,[0.0,0.0,0.0],0.0,0.0,0.029999999329447746,1.5,[1.0,1.0,1.0,1.0],[0.0,0.0,0.0],0.0,0.5,[1.0,1.0,1.0,1.0],[0.0,0.0,0.0,1.0],1.0],"is_active_output":false,"name":"Principled BSDF","outputs":[[0,0,0,0]],"type":"BSDF_PRINCIPLED_BL"},{"inputs":[[0,0,0,0],[0,0,0,0],[0.0,0.0,0.0],0.0],"is_active_output":true,"name":"Material Output","outputs":[],"type":"OUTPUT_MATERIAL_BL"}]},"useCastShadows":true}},"name":"sticks"},{"extensions":{"S8S_v3d_materials":{"gtaoVisible":true,"materialIndex":0,"nodeGraph":{"edges":[{"fromNode":3,"fromOutput":0,"toInput":0,"toNode":4},{"fromNode":11,"fromOutput":2,"toInput":0,"toNode":3},{"fromNode":8,"fromOutput":0,"toInput":0,"toNode":0},{"fromNode":8,"fromOutput":0,"toInput":0,"toNode":7},{"fromNode":7,"fromOutput":0,"toInput":1,"toNode":2},{"fromNode":2,"fromOutput":0,"toInput":5,"toNode":3},{"fromNode":1,"fromOutput":0,"toInput":17,"toNode":3},{"fromNode":1,"fromOutput":0,"toInput":11,"toNode":3},{"fromNode":5,"fromOutput":0,"toInput":0,"toNode":11},{"fromNode":10,"fromOutput":0,"toInput":0,"toNode":8},{"fromNode":9,"fromOutput":0,"toInput":0,"toNode":10},{"fromNode":0,"fromOutput":0,"toInput":7,"toNode":11},{"fromNode":6,"fromOutput":0,"toInput":6,"toNode":11}],"nodes":[{"alphaMode":"STRAIGHT","inputs":[[0.0,0.0,0.0]],"is_active_output":false,"name":"Image Texture","outputs":[[0.0,0.0,0.0,0.0],0.0],"projection":"FLAT","projectionBlend":0.0,"texture":1,"type":"TEX_IMAGE_BL"},{"inputs":[1.4500000476837158,[0.0,0.0,0.0]],"is_active_output":false,"name":"Fresnel","outputs":[0.0],"type":"FRESNEL_BL"},{"inputs":[1.0,[0.5,0.5,1.0,1.0]],"is_active_output":false,"name":"Normal Map","outputs":[[0.0,0.0,0.0]],"type":"NORMAL_MAP_BL","uvLayer":"UVMap"},{"inputs":[[0.800000011920929,0.800000011920929,0.800000011920929,1.0],0.0,0.3499999940395355,1.4500000476837158,1.0,[0.0,0.0,0.0],0.0,[1.0,0.20000000298023224,0.10000000149011612],0.05000000074505806,1.399999976158142,0.0,0.5,[1.0,1.0,1.0,1.0],0.0,0.0,[0.0,0.0,0.0],0.0,0.125,0.20000000298023224,1.2000000476837158,[1.0,1.0,1.0,1.0],[0.0,0.0,0.0],0.0,0.5,[1.0,1.0,1.0,1.0],[0.0,0.0,0.0,1.0],1.0],"is_active_output":false,"name":"Principled BSDF","outputs":[[0,0,0,0]],"type":"BSDF_PRINCIPLED_BL"},{"inputs":[[0,0,0,0],[0,0,0,0],[0.0,0.0,0.0],0.0],"is_active_output":true,"name":"Material Output","outputs":[],"type":"OUTPUT_MATERIAL_BL"},{"inputs":[],"is_active_output":false,"name":"switcher","outputs":[1.0],"type":"VALUE_BL"},{"inputs":[],"is_active_output":false,"name":"color","outputs":[[0.3799999952316284,0.22499999403953552,0.14300000667572021,1.0]],"type":"RGB_BL"},{"alphaMode":"STRAIGHT","inputs":[[0.0,0.0,0.0]],"is_active_output":false,"name":"Image Texture.001","outputs":[[0.0,0.0,0.0,0.0],0.0],"projection":"FLAT","projectionBlend":0.0,"texture":2,"type":"TEX_IMAGE_BL"},{"inputs":[[0.0,0.0,0.0]],"is_active_output":false,"name":"Reroute","outputs":[[0.0,0.0,0.0]],"type":"REROUTE_BL"},{"inputs":[],"is_active_output":false,"name":"UV Map","outputs":[[0.0,0.0,0.0]],"type":"UVMAP_BL","uvLayer":"UVMap"},{"inputs":[[0.0,0.0,0.0],[0.0,0.0,0.0],[0.0,0.0,0.0],[3.0,3.0,3.0]],"is_active_output":false,"name":"Mapping","outputs":[[0.0,0.0,0.0]],"type":"MAPPING_BL","vectorType":"POINT"},{"blendType":"MIX","clampFactor":true,"clampResult":false,"dataType":"RGBA","factorMode":"UNIFORM","inputs":[1.0,[0.5,0.5,0.5],0.0,0.0,[0.0,0.0,0.0],[0.0,0.0,0.0],[0.5,0.5,0.5,1.0],[0.5,0.5,0.5,1.0],0,0],"is_active_output":false,"name":"Mix","outputs":[0.0,[0.0,0.0,0.0],[0.0,0.0,0.0,0.0],0],"type":"MIX_BL"}]},"useCastShadows":true}},"name":"table_mat"},{"extensions":{"S8S_v3d_materials":{"gtaoVisible":true,"materialIndex":0,"nodeGraph":{"edges":[{"fromNode":0,"fromOutput":0,"toInput":0,"toNode":1}],"nodes":[{"inputs":[[0.5680603981018066,0.5680603981018066,0.5680603981018066,1.0],0.0,1.0,1.4500000476837158,1.0,[0.0,0.0,0.0],0.0,[1.0,0.20000000298023224,0.10000000149011612],0.05000000074505806,1.399999976158142,0.0,0.5,[1.0,1.0,1.0,1.0],0.0,0.0,[0.0,0.0,0.0],0.0,0.0,0.029999999329447746,1.5,[1.0,1.0,1.0,1.0],[0.0,0.0,0.0],0.0,0.5,[1.0,1.0,1.0,1.0],[0.0,0.0,0.0,1.0],1.0],"is_active_output":false,"name":"Principled BSDF","outputs":[[0,0,0,0]],"type":"BSDF_PRINCIPLED_BL"},{"inputs":[[0,0,0,0],[0,0,0,0],[0.0,0.0,0.0],0.0],"is_active_output":true,"name":"Material Output","outputs":[],"type":"OUTPUT_MATERIAL_BL"}]},"useCastShadows":true}},"name":"walls"},{"extensions":{"S8S_v3d_materials":{"gtaoVisible":true,"materialIndex":0,"nodeGraph":{"edges":[{"fromNode":0,"fromOutput":0,"toInput":0,"toNode":1},{"fromNode":4,"fromOutput":0,"toInput":6,"toNode":2},{"fromNode":3,"fromOutput":0,"toInput":0,"toNode":2},{"fromNode":2,"fromOutput":2,"toInput":0,"toNode":0}],"nodes":[{"inputs":[[0.05087608844041824,0.05087608844041824,0.05087608844041824,1.0],0.49999991059303284],"is_active_output":false,"name":"Background","outputs":[[0,0,0,0]],"type":"BACKGROUND_BL"},{"inputs":[[0,0,0,0],[0,0,0,0]],"is_active_output":true,"name":"World Output","outputs":[],"type":"OUTPUT_WORLD_BL"},{"blendType":"MIX","clampFactor":true,"clampResult":false,"dataType":"RGBA","factorMode":"UNIFORM","inputs":[0.5,[0.5,0.5,0.5],0.0,0.0,[0.0,0.0,0.0],[0.0,0.0,0.0],[0.5,0.5,0.5,1.0],[0.0,0.0,0.0,1.0],0,0],"is_active_output":false,"name":"Mix","outputs":[0.0,[0.0,0.0,0.0],[0.0,0.0,0.0,0.0],0],"type":"MIX_BL"},{"inputs":[],"is_active_output":false,"name":"Light Path","outputs":[0.0,0.0,0.0,0.0,0.0,0.0,0.0,0.0,0.0,0.0,0.0,0.0,0.0],"type":"LIGHT_PATH_BL"},{"inputs":[[0.0,0.0,0.0]],"is_active_output":false,"name":"Environment Texture","outputs":[[0.0,0.0,0.0,0.0]],"projection":"EQUIRECTANGULAR","texture":3,"type":"TEX_ENVIRONMENT_BL"}]},"useCastShadows":true}},"name":"Verge3D_Environment_World"}],"meshes":[{"extensions":{"S8S_v3d_mesh":{"colorLayers":{},"uvLayers":{"UVMap":"TEXCOORD_0"}}},"extras":{"targetNames":["width","height"]},"name":"Cube.001","primitives":[{"attributes":{"NORMAL":2,"POSITION":1,"TANGENT":3,"TEXCOORD_0":4},"indices":0,"material":4,"mode":4,"targets":[{"NORMAL":6,"POSITION":5,"TANGENT":7},{"NORMAL":9,"POSITION":8,"TANGENT":10}]}],"weights":[0.0,0.0]},{"extensions":{"S8S_v3d_mesh":{"colorLayers":{},"uvLayers":{"UVMap":"TEXCOORD_0"}}},"extras":{"targetNames":["width","height","depth"]},"name":"Cube.002","primitives":[{"attributes":{"NORMAL":13,"POSITION":12,"TANGENT":14,"TEXCOORD_0":15},"indices":11,"material":4,"mode":4,"targets":[{"NORMAL":17,"POSITION":16,"TANGENT":18},{"NORMAL":20,"POSITION":19,"TANGENT":21},{"NORMAL":23,"POSITION":22,"TANGENT":24}]}],"weights":[0.0,0.0,0.0]},{"extensions":{"S8S_v3d_mesh":{"colorLayers":{},"uvLayers":{"UVMap":"TEXCOORD_0"}}},"extras":{"targetNames":["width","depth"]},"name":"Cube.003","primitives":[{"attributes":{"NORMAL":27,"POSITION":26,"TANGENT":28,"TEXCOORD_0":29},"indices":25,"material":4,"mode":4,"targets":[{"NORMAL":31,"POSITION":30,"TANGENT":32},{"NORMAL":34,"POSITION":33,"TANGENT":35}]}],"weights":[0.0,0.0]},{"extensions":{"S8S_v3d_mesh":{"colorLayers":{},"uvLayers":{"UVMap":"TEXCOORD_0"}}},"extras":{"targetNames":["width","height"]},"name":"Cube.004","primitives":[{"attributes":{"NORMAL":38,"POSITION":37,"TANGENT":39,"TEXCOORD_0":40},"indices":36,"material":4,"mode":4,"targets":[{"NORMAL":42,"POSITION":41,"TANGENT":43},{"NORMAL":45,"POSITION":44,"TANGENT":46}]}],"weights":[0.0,0.0]},{"extensions":{"S8S_v3d_mesh":{"colorLayers":{},"uvLayers":{"UVMap":"TEXCOORD_0"}}},"extras":{"targetNames":["width","height"]},"name":"Cube.006","primitives":[{"attributes":{"NORMAL":49,"POSITION":48,"TANGENT":50,"TEXCOORD_0":51},"indices":47,"material":4,"mode":4,"targets":[{"NORMAL":53,"POSITION":52,"TANGENT":54},{"NORMAL":56,"POSITION":55,"TANGENT":57}]}],"weights":[0.0,0.0]},{"extensions":{"S8S_v3d_mesh":{"colorLayers":{},"uvLayers":{"UVMap":"TEXCOORD_0"}}},"extras":{"targetNames":["width","height"]},"name":"Cube.009","primitives":[{"attributes":{"NORMAL":60,"POSITION":59,"TANGENT":61,"TEXCOORD_0":62},"indices":58,"material":4,"mode":4,"targets":[{"NORMAL":64,"POSITION":63,"TANGENT":65},{"NORMAL":67,"POSITION":66,"TANGENT":68}]}],"weights":[0.0,0.0]},{"extensions":{"S8S_v3d_mesh":{"colorLayers":{},"uvLayers":{"UVMap":"TEXCOORD_0"}}},"extras":{"targetNames":["width","height"]},"name":"Cube.010","primitives":[{"attributes":{"NORMAL":71,"POSITION":70,"TANGENT":72,"TEXCOORD_0":73},"indices":69,"material":4,"mode":4,"targets":[{"NORMAL":75,"POSITION":74,"TANGENT":76},{"NORMAL":78,"POSITION":77,"TANGENT":79}]}],"weights":[0.0,0.0]},{"extensions":{"S8S_v3d_mesh":{"colorLayers":{},"uvLayers":{"UVMap":"TEXCOORD_0"}}},"extras":{"targetNames":["width","depth"]},"name":"Plane","primitives":[{"attributes":{"NORMAL":82,"POSITION":81,"TANGENT":83,"TEXCOORD_0":84},"indices":80,"material":4,"mode":4,"targets":[{"NORMAL":86,"POSITION":85,"TANGENT":87},{"NORMAL":89,"POSITION":88,"TANGENT":90}]}],"weights":[0.0,0.0]},{"extensions":{"S8S_v3d_mesh":{"colorLayers":{},"uvLayers":{"UVMap":"TEXCOORD_0"}}},"name":"Plane.001","primitives":[{"attributes":{"NORMAL":93,"POSITION":92,"TEXCOORD_0":94},"indices":91,"material":5,"mode":4},{"attributes":{"NORMAL":97,"POSITION":96,"TEXCOORD_0":98},"indices":95,"material":2,"mode":4}]},{"extensions":{"S8S_v3d_mesh":{"colorLayers":{},"uvLayers":{"UVMap":"TEXCOORD_0"}}},"name":"Plane.002","primitives":[{"attributes":{"NORMAL":101,"POSITION":100,"TEXCOORD_0":102},"indices":99,"material":1,"mode":4},{"attributes":{"NORMAL":105,"POSITION":104,"TEXCOORD_0":106},"indices":103,"material":3,"mode":4}]},{"extensions":{"S8S_v3d_mesh":{"colorLayers":{},"uvLayers":{"UVMap":"TEXCOORD_0"}}},"name":"Plane.003","primitives":[{"attributes":{"NORMAL":109,"POSITION":108,"TEXCOORD_0":110},"indices":107,"material":0,"mode":4}]},{"extensions":{"S8S_v3d_mesh":{"colorLayers":{},"uvLayers":{"UVMap":"TEXCOORD_0"}}},"name":"Plane.004","primitives":[{"attributes":{"NORMAL":113,"POSITION":112,"TEXCOORD_0":114},"indices":111,"material":0,"mode":4}]},{"extensions":{"S8S_v3d_mesh":{"colorLayers":{},"uvLayers":{"UVMap":"TEXCOORD_0"}}},"name":"Plane.005","primitives":[{"attributes":{"NORMAL":117,"POSITION":116,"TEXCOORD_0":118},"indices":115,"material":0,"mode":4}]},{"extensions":{"S8S_v3d_mesh":{"colorLayers":{},"uvLayers":{"UVMap":"TEXCOORD_0"}}},"name":"Plane.007","primitives":[{"attributes":{"NORMAL":121,"POSITION":120,"TEXCOORD_0":122},"indices":119,"material":0,"mode":4}]}],"nodes":[{"extensions":{"S8S_v3d_node":{"frustumCulling":true,"groupNames":[],"hidden":false,"hidpiCompositing":false,"objectColor":[1.0,1.0,1.0,1.0],"objectIndex":0,"renderOrder":0}},"name":"info_4","translation":[0.8157950639724731,0.03715447708964348,0.632463276386261]},{"extensions":{"S8S_v3d_node":{"frustumCulling":true,"groupNames":["environment"],"hidden":false,"hidpiCompositing":false,"objectColor":[1.0,1.0,1.0,1.0],"objectIndex":0,"renderOrder":0,"useShadows":true}},"mesh":10,"name":"arrow_depth","translation":[0.0,0.027905305847525597,-0.017933666706085205]},{"extensions":{"S8S_v3d_node":{"frustumCulling":true,"groupNames":["table"],"hidden":false,"hidpiCompositing":false,"objectColor":[1.0,1.0,1.0,1.0],"objectIndex":0,"renderOrder":0,"useShadows":true}},"mesh":2,"name":"shelf","translation":[0.0,0.699999988079071,-0.017933666706085205]},{"extensions":{"S8S_v3d_node":{"frustumCulling":true,"groupNames":["environment"],"hidden":false,"hidpiCompositing":false,"objectColor":[1.0,1.0,1.0,1.0],"objectIndex":0,"renderOrder":0}},"name":"height","translation":[1.4901161193847656e-07,1.69441819190979,-0.328696072101593]},{"extensions":{"S8S_v3d_node":{"frustumCulling":true,"groupNames":["table"],"hidden":true,"hidpiCompositing":false,"objectColor":[1.0,1.0,1.0,1.0],"objectIndex":0,"renderOrder":0,"useShadows":true}},"mesh":0,"name":"drawer_2","translation":[0.0,0.8258578777313232,0.09275510907173157]},{"extensions":{"S8S_v3d_node":{"frustumCulling":true,"groupNames":["table"],"hidden":true,"hidpiCompositing":false,"objectColor":[1.0,1.0,1.0,1.0],"objectIndex":0,"renderOrder":0,"useShadows":true}},"mesh":4,"name":"door_left","translation":[-0.36171573400497437,0.9717159867286682,0.32413268089294434]},{"extensions":{"S8S_v3d_node":{"frustumCulling":true,"groupNames":[],"hidden":false,"hidpiCompositing":false,"objectColor":[1.0,1.0,1.0,1.0],"objectIndex":0,"renderOrder":0}},"name":"info_3","translation":[-0.8442015051841736,1.5156744718551636,-0.29676535725593567]},{"extensions":{"S8S_v3d_node":{"frustumCulling":true,"groupNames":["environment"],"hidden":false,"hidpiCompositing":false,"objectColor":[1.0,1.0,1.0,1.0],"objectIndex":0,"renderOrder":0,"useShadows":true}},"mesh":8,"name":"floor_walls","translation":[0.0,0.0,0.368473619222641]},{"extensions":{"S8S_v3d_node":{"frustumCulling":true,"groupNames":["table"],"hidden":false,"hidpiCompositing":false,"objectColor":[1.0,1.0,1.0,1.0],"objectIndex":0,"renderOrder":0,"useShadows":true}},"mesh":7,"name":"legs","translation":[-2.1730860666480112e-08,-6.730828394641009e-11,1.2417634698280722e-09]},{"extensions":{"S8S_v3d_node":{"frustumCulling":true,"groupNames":["environment"],"hidden":false,"hidpiCompositing":false,"objectColor":[1.0,1.0,1.0,1.0],"objectIndex":0,"renderOrder":0}},"name":"width","translation":[1.0784142017364502,0.6160039901733398,-0.30241858959198]},{"extensions":{"S8S_v3d_node":{"frustumCulling":true,"groupNames":["environment"],"hidden":false,"hidpiCompositing":false,"objectColor":[1.0,1.0,1.0,1.0],"objectIndex":0,"renderOrder":0}},"name":"depth","translation":[0.0,0.04286119341850281,0.8554129600524902]},{"extensions":{"S8S_v3d_node":{"frustumCulling":true,"groupNames":["environment"],"hidden":false,"hidpiCompositing":false,"objectColor":[1.0,1.0,1.0,1.0],"objectIndex":0,"renderOrder":0,"useShadows":true}},"mesh":13,"name":"arrow_top","rotation":[5.338507591545749e-08,0.7071067690849304,0.7071067690849304,5.338507591545749e-08],"translation":[0.0,0.6160040497779846,-0.3481277823448181]},{"extensions":{"S8S_v3d_node":{"frustumCulling":true,"groupNames":[],"hidden":false,"hidpiCompositing":false,"objectColor":[1.0,1.0,1.0,1.0],"objectIndex":0,"renderOrder":0}},"name":"info_2","translation":[-0.7711713314056396,0.03715447708964348,0.632463276386261]},{"camera":0,"extensions":{"S8S_v3d_node":{"frustumCulling":true,"groupNames":["environment"],"hidden":false,"hidpiCompositing":false,"objectColor":[0.0,0.0,0.0,0.0],"objectIndex":0,"renderOrder":0}},"name":"Camera","rotation":[-0.11349880695343018,0.2947566509246826,0.03528398647904396,0.948151707649231],"scale":[1.0,0.9999998807907104,0.9999999403953552],"translation":[2.229743242263794,1.469692349433899,3.2217190265655518]},{"extensions":{"S8S_v3d_node":{"frustumCulling":true,"groupNames":["environment"],"hidden":false,"hidpiCompositing":false,"objectColor":[1.0,1.0,1.0,1.0],"objectIndex":0,"renderOrder":0}},"name":"Empty","translation":[0.0,0.5144430994987488,-0.017933666706085205]},{"extensions":{"S8S_v3d_node":{"frustumCulling":true,"groupNames":["environment"],"hidden":false,"hidpiCompositing":false,"objectColor":[1.0,1.0,1.0,1.0],"objectIndex":0,"renderOrder":0,"useShadows":true}},"mesh":9,"name":"vase","rotation":[0.7071067690849304,0.0,-0.0,0.7071067690849304],"translation":[0.21829238533973694,1.0,-0.09698772430419922]},{"extensions":{"S8S_v3d_node":{"frustumCulling":true,"groupNames":["environment"],"hidden":false,"hidpiCompositing":false,"objectColor":[1.0,1.0,1.0,1.0],"objectIndex":0,"renderOrder":0,"useShadows":true}},"mesh":11,"name":"arrow_right","rotation":[0.5,0.5,0.5,0.5000000596046448],"translation":[0.0,0.6160040497779846,-0.3481277823448181]},{"extensions":{"S8S_v3d_node":{"frustumCulling":true,"groupNames":["table"],"hidden":true,"hidpiCompositing":false,"objectColor":[1.0,1.0,1.0,1.0],"objectIndex":0,"renderOrder":0,"useShadows":true}},"mesh":3,"name":"drawer_1","translation":[0.0,0.5541421175003052,0.09275510907173157]},{"extensions":{"S8S_v3d_node":{"frustumCulling":true,"groupNames":[],"hidden":false,"hidpiCompositing":false,"objectColor":[1.0,1.0,1.0,1.0],"objectIndex":0,"renderOrder":0}},"name":"info_1","translation":[0.8157950639724731,1.5156744718551636,-0.29676535725593567]},{"extensions":{"S8S_v3d_lights":{"light":0},"S8S_v3d_node":{"frustumCulling":true,"groupNames":["environment"],"hidden":false,"hidpiCompositing":false,"objectColor":[0.0,0.0,0.0,0.0],"objectIndex":0,"renderOrder":0}},"name":"Lamp","rotation":[-0.16750040650367737,0.2900281846523285,0.11781200021505356,0.9348516464233398],"scale":[0.9999999403953552,0.9999999403953552,0.9999998807907104],"translation":[3.386112928390503,3.304049491882324,5.144188404083252]},{"extensions":{"S8S_v3d_node":{"frustumCulling":true,"groupNames":["table"],"hidden":false,"hidpiCompositing":false,"objectColor":[1.0,1.0,1.0,1.0],"objectIndex":0,"renderOrder":0,"useShadows":true}},"mesh":1,"name":"box","translation":[0.0,0.699999988079071,-0.017933666706085205]},{"extensions":{"S8S_v3d_node":{"frustumCulling":true,"groupNames":["environment"],"hidden":false,"hidpiCompositing":false,"objectColor":[1.0,1.0,1.0,1.0],"objectIndex":0,"renderOrder":0,"useShadows":true}},"mesh":12,"name":"arrow_left","rotation":[0.5000000596046448,-0.4999999403953552,-0.4999999403953552,0.5000000596046448],"translation":[0.0,0.6160040497779846,-0.3481277823448181]},{"extensions":{"S8S_v3d_node":{"frustumCulling":true,"groupNames":["table"],"hidden":true,"hidpiCompositing":false,"objectColor":[1.0,1.0,1.0,1.0],"objectIndex":0,"renderOrder":0,"useShadows":true}},"mesh":5,"name":"door_right","translation":[0.36171573400497437,0.9717157483100891,0.32413268089294434]},{"extensions":{"S8S_v3d_node":{"frustumCulling":true,"groupNames":["table"],"hidden":true,"hidpiCompositing":false,"objectColor":[1.0,1.0,1.0,1.0],"objectIndex":0,"renderOrder":0,"useShadows":true}},"mesh":6,"name":"sliding_door","translation":[-0.1858578473329544,0.7000000476837158,0.32413268089294434]}],"samplers":[{}],"scene":0,"scenes":[{"extensions":{"S8S_v3d_scene":{"aaMethod":"AUTO","iblEnvironmentMode":"PMREM","physicallyCorrectLights":true,"pmremMaxTileSize":256,"postprocessing":[{"bentNormals":false,"bounceApprox":false,"distance":0.5,"factor":0.75,"precision":0.25,"type":"gtao"}],"shadowMap":{"esmDistanceScale":3.0,"renderReverseSided":false,"renderSingleSided":true,"type":"ESM"},"worldMaterial":6}},"extras":{"animFrameRate":24,"coordSystem":"Z_UP_RIGHT"},"name":"Scene","nodes":[18,12,6,0,19,13,14,7,15,1,16,21,11,9,10,3,20,8,2,4,5,17,22,23]}],"textures":[{"extensions":{"S8S_v3d_texture":{"colorSpace":"srgb"}},"name":"concrete_basecolor","sampler":0,"source":0},{"extensions":{"S8S_v3d_texture":{"colorSpace":"srgb"}},"name":"walmut_basecolor","sampler":0,"source":1},{"extensions":{"S8S_v3d_texture":{"colorSpace":"non-color"}},"name":"plywood_normal","sampler":0,"source":2},{"extensions":{"S8S_v3d_texture":{"colorSpace":"linear rec.709","source":3}},"name":"environment.hdr.001","sampler":0}]}
