<?xml version="1.0" encoding="UTF-8" standalone="no"?>
<svg
   aria-hidden="true"
   focusable="false"
   data-prefix="fas"
   data-icon="gamepad"
   class="svg-inline--fa fa-gamepad"
   role="img"
   viewBox="0 0 640 512"
   version="1.1"
   id="svg4"
   sodipodi:docname="gamepad-solid.svg"
   inkscape:version="1.1.1 (3bf5ae0d25, 2021-09-20)"
   xmlns:inkscape="http://www.inkscape.org/namespaces/inkscape"
   xmlns:sodipodi="http://sodipodi.sourceforge.net/DTD/sodipodi-0.dtd"
   xmlns="http://www.w3.org/2000/svg"
   xmlns:svg="http://www.w3.org/2000/svg">
  <defs
     id="defs8" />
  <sodipodi:namedview
     id="namedview6"
     pagecolor="#ffffff"
     bordercolor="#666666"
     borderopacity="1.0"
     inkscape:pageshadow="2"
     inkscape:pageopacity="0.0"
     inkscape:pagecheckerboard="0"
     showgrid="false"
     inkscape:zoom="1.625"
     inkscape:cx="345.53846"
     inkscape:cy="245.84615"
     inkscape:window-width="1920"
     inkscape:window-height="1057"
     inkscape:window-x="1912"
     inkscape:window-y="-8"
     inkscape:window-maximized="1"
     inkscape:current-layer="svg4" />
  <path
     fill="currentColor"
     d="M 459.28206,103.38462 H 255.79488 c -84.2882,0 -152.61539,67.64359 -152.61539,152.61538 0,84.97179 68.32719,152.61538 152.61539,152.61538 h 203.48718 c 84.25641,0 152.61538,-68.32717 152.61538,-152.61538 0,-84.28821 -68.35897,-152.61538 -152.61538,-152.61538 z m -159.68974,171.6923 h -25.4359 v 25.4359 c 0,10.49231 -8.56872,19.07692 -19.06103,19.07692 -10.4923,0 -19.09282,-8.58461 -19.09282,-19.07692 v -25.4359 l -24.72051,-0.71538 c -10.49231,0 -19.79231,-7.86923 -19.79231,-18.36154 0,-10.49231 8.62436,-19.08487 19.11667,-19.08487 l 25.39615,0.008 v -25.4359 c 0,-10.49231 8.60052,-19.07692 19.09282,-19.07692 10.49231,0 19.06103,8.58461 19.06103,19.07692 v 25.4359 h 25.4359 c 10.4923,0 19.09282,8.58461 19.09282,19.07692 -0.0159,10.49231 -7.88513,19.07692 -19.09282,19.07692 z m 146.25641,50.8718 c -17.58257,0 -31.07949,-14.20436 -31.07949,-31.07949 0,-16.87513 14.20436,-31.79487 31.07949,-31.79487 16.87512,0 31.07948,14.21231 31.07948,31.79487 0,17.58256 -12.79743,31.07949 -31.07948,31.07949 z m 50.87179,-76.30769 c -17.58256,0 -31.07949,-14.20436 -31.07949,-31.07949 0,-16.87513 14.20436,-31.79487 31.07949,-31.79487 17.58257,0 31.07949,14.2123 31.07949,31.79487 0,17.58256 -12.79744,31.07949 -31.07949,31.07949 z"
     id="path2"
     style="fill:#cbcbcb;fill-opacity:1;stroke-width:0.794872" />
</svg>
