{"accessors":[{"bufferView":0,"componentType":5123,"count":288,"max":[287],"min":[0],"type":"SCALAR"},{"bufferView":1,"componentType":5126,"count":288,"max":[12.051846504211426,11.646361351013184,2.0521483421325684],"min":[-12.033672332763672,-12.43588638305664,-2.298330545425415],"type":"VEC3"},{"bufferView":2,"componentType":5126,"count":288,"max":[1.0,1.0,1.0],"min":[-1.0,-1.0,-1.0],"type":"VEC3"},{"bufferView":3,"componentType":5126,"count":288,"max":[1.0,1.0,1.0,1.0],"min":[-1.0,-1.0,-1.0,-1.0],"type":"VEC4"},{"bufferView":4,"componentType":5126,"count":288,"max":[2.1904008388519287,0.9992367625236511],"min":[-1.1734178066253662,0.19841676950454712],"type":"VEC2"},{"bufferView":5,"componentType":5126,"count":288,"max":[0.9976497888565063,0.8607479333877563],"min":[0.893515408039093,0.19988298416137695],"type":"VEC2"},{"bufferView":6,"componentType":5121,"count":90,"max":[59],"min":[0],"type":"SCALAR"},{"bufferView":7,"componentType":5126,"count":60,"max":[11.956013679504395,11.586382865905762,2.0064587593078613],"min":[-11.981144905090332,-12.375907897949219,-2.1523492336273193],"type":"VEC3"},{"bufferView":8,"componentType":5126,"count":60,"max":[1.0,1.0,4.768370445162873e-07],"min":[-1.0,-1.0,-8.528832040610723e-08],"type":"VEC3"},{"bufferView":9,"componentType":5126,"count":60,"max":[0.9998999238014221,0.9999000430107117],"min":[9.997999586630613e-05,9.995698928833008e-05],"type":"VEC2"},{"bufferView":10,"componentType":5126,"count":60,"max":[0.9935004115104675,0.9985220432281494],"min":[0.893517792224884,0.6044782400131226],"type":"VEC2"},{"bufferView":11,"componentType":5121,"count":240,"max":[239],"min":[0],"type":"SCALAR"},{"bufferView":12,"componentType":5126,"count":240,"max":[12.029056549072266,11.651347160339355,2.1931304931640625],"min":[-12.041123390197754,-12.424530982971191,-1.333123803138733],"type":"VEC3"},{"bufferView":13,"componentType":5126,"count":240,"max":[1.0,1.0,1.0],"min":[-1.0,-1.0,-1.0],"type":"VEC3"},{"bufferView":14,"componentType":5126,"count":240,"max":[1.0,1.0,1.0,1.0],"min":[-1.0,-1.0,-1.0,-1.0],"type":"VEC4"},{"bufferView":15,"componentType":5126,"count":240,"max":[3.612797975540161,0.7784689664840698],"min":[-2.6070687770843506,0.19574421644210815],"type":"VEC2"},{"bufferView":16,"componentType":5126,"count":240,"max":[0.998515784740448,0.6892496347427368],"min":[0.8951396942138672,0.2009602189064026],"type":"VEC2"},{"bufferView":17,"componentType":5121,"count":192,"max":[191],"min":[0],"type":"SCALAR"},{"bufferView":18,"componentType":5126,"count":192,"max":[12.015990257263184,11.685431480407715,2.286684513092041],"min":[-7.813014030456543,-12.461015701293945,-1.729500412940979],"type":"VEC3"},{"bufferView":19,"componentType":5126,"count":192,"max":[1.0,1.0,1.0],"min":[-1.0,-1.0,-1.0],"type":"VEC3"},{"bufferView":20,"componentType":5126,"count":192,"max":[1.0,1.0,1.0,1.0],"min":[-1.0,-1.0,-1.0,-1.0],"type":"VEC4"},{"bufferView":21,"componentType":5126,"count":192,"max":[2.1904008388519287,0.2983691692352295],"min":[-1.1593831777572632,-0.0017338991165161133],"type":"VEC2"},{"bufferView":22,"componentType":5126,"count":192,"max":[0.998275876045227,0.9982607960700989],"min":[0.8935171961784363,0.22739452123641968],"type":"VEC2"},{"bufferView":23,"componentType":5121,"count":6,"max":[3],"min":[0],"type":"SCALAR"},{"bufferView":24,"componentType":5126,"count":4,"max":[12.041122436523438,-5.764617919921875,12.041122436523438],"min":[-12.041122436523438,-5.764617919921875,-12.041122436523438],"type":"VEC3"},{"bufferView":25,"componentType":5126,"count":4,"max":[0.0,1.0,0.0],"min":[0.0,1.0,0.0],"type":"VEC3"},{"bufferView":26,"componentType":5126,"count":4,"max":[1.0,0.0,0.0,1.0],"min":[1.0,0.0,0.0,1.0],"type":"VEC4"},{"bufferView":27,"componentType":5126,"count":4,"max":[1.0,1.0],"min":[0.0,0.0],"type":"VEC2"},{"bufferView":28,"componentType":5126,"count":4,"max":[0.44454288482666016,0.5517417192459106],"min":[0.0014720881590619683,0.10867112874984741],"type":"VEC2"},{"bufferView":29,"componentType":5121,"count":60,"max":[57],"min":[0],"type":"SCALAR"},{"bufferView":30,"componentType":5126,"count":58,"max":[12.041122436523438,5.764617919921875,12.041122436523438],"min":[-12.041122436523438,-5.764617919921875,-12.041122436523438],"type":"VEC3"},{"bufferView":31,"componentType":5126,"count":58,"max":[1.0,1.0,1.0],"min":[-1.0,-1.0,-1.0],"type":"VEC3"},{"bufferView":32,"componentType":5126,"count":58,"max":[1.0,2.8709104071822367e-07,1.0,-1.0],"min":[-1.0,-1.0,-3.734490405804536e-07,-1.0],"type":"VEC4"},{"bufferView":33,"componentType":5126,"count":58,"max":[0.9998607039451599,0.9998607039451599],"min":[0.0001393213024130091,0.021051406860351562],"type":"VEC2"},{"bufferView":34,"componentType":5126,"count":58,"max":[0.9848343133926392,0.9985281825065613],"min":[0.0014723475323989987,0.0014739036560058594],"type":"VEC2"}],"asset":{"generator":"Verge3D for 3ds Max v4.9.0","version":"2.0"},"bufferViews":[{"buffer":0,"byteLength":576,"byteOffset":0,"target":34963},{"buffer":0,"byteLength":3456,"byteOffset":576,"target":34962},{"buffer":0,"byteLength":3456,"byteOffset":4032,"target":34962},{"buffer":0,"byteLength":4608,"byteOffset":7488,"target":34962},{"buffer":0,"byteLength":2304,"byteOffset":12096,"target":34962},{"buffer":0,"byteLength":2304,"byteOffset":14400,"target":34962},{"buffer":0,"byteLength":90,"byteOffset":16704,"target":34963},{"buffer":0,"byteLength":720,"byteOffset":16796,"target":34962},{"buffer":0,"byteLength":720,"byteOffset":17516,"target":34962},{"buffer":0,"byteLength":480,"byteOffset":18236,"target":34962},{"buffer":0,"byteLength":480,"byteOffset":18716,"target":34962},{"buffer":0,"byteLength":240,"byteOffset":19196,"target":34963},{"buffer":0,"byteLength":2880,"byteOffset":19436,"target":34962},{"buffer":0,"byteLength":2880,"byteOffset":22316,"target":34962},{"buffer":0,"byteLength":3840,"byteOffset":25196,"target":34962},{"buffer":0,"byteLength":1920,"byteOffset":29036,"target":34962},{"buffer":0,"byteLength":1920,"byteOffset":30956,"target":34962},{"buffer":0,"byteLength":192,"byteOffset":32876,"target":34963},{"buffer":0,"byteLength":2304,"byteOffset":33068,"target":34962},{"buffer":0,"byteLength":2304,"byteOffset":35372,"target":34962},{"buffer":0,"byteLength":3072,"byteOffset":37676,"target":34962},{"buffer":0,"byteLength":1536,"byteOffset":40748,"target":34962},{"buffer":0,"byteLength":1536,"byteOffset":42284,"target":34962},{"buffer":0,"byteLength":6,"byteOffset":43820,"target":34963},{"buffer":0,"byteLength":48,"byteOffset":43828,"target":34962},{"buffer":0,"byteLength":48,"byteOffset":43876,"target":34962},{"buffer":0,"byteLength":64,"byteOffset":43924,"target":34962},{"buffer":0,"byteLength":32,"byteOffset":43988,"target":34962},{"buffer":0,"byteLength":32,"byteOffset":44020,"target":34962},{"buffer":0,"byteLength":60,"byteOffset":44052,"target":34963},{"buffer":0,"byteLength":696,"byteOffset":44112,"target":34962},{"buffer":0,"byteLength":696,"byteOffset":44808,"target":34962},{"buffer":0,"byteLength":928,"byteOffset":45504,"target":34962},{"buffer":0,"byteLength":464,"byteOffset":46432,"target":34962},{"buffer":0,"byteLength":464,"byteOffset":46896,"target":34962}],"buffers":[{"byteLength":47360,"uri":"canvas_texture.bin"}],"cameras":[{"extensions":{"S8S_v3d_camera":{"controls":"ORBIT","enablePan":false,"moveSpeed":1.0,"orbitMaxDistance":14.0,"orbitMaxPolarAngle":1.6580627893946132,"orbitMaxZoom":100.0,"orbitMinDistance":6.199999809265137,"orbitMinPolarAngle":0.26179940444390626,"orbitMinZoom":0.009999999776482582,"orbitTarget":4,"rotateSpeed":1.0,"viewportFitInitialAspect":1.7777777777777777,"viewportFitType":"VERTICAL"}},"name":"Camera001","perspective":{"aspectRatio":1.7777777777777777,"yfov":0.43834365048127794,"zfar":100.0,"znear":2.5},"type":"perspective"}],"extensions":{"S8S_v3d_clipping_planes":{},"S8S_v3d_curves":{},"S8S_v3d_light_probes":{"lightProbes":[{"clipStart":0.10000000149011612,"falloff":0.5,"influenceDistance":1.0,"name":"V3DReflectionPlane001","planeSize":[12.855562210083008,12.927380561828613],"type":"PLANAR","visibilityGroup":null,"visibilityGroupInv":false}]},"S8S_v3d_lights":{"lights":[{"angle":0.5235987755982988,"color":[1.0,1.0,1.0],"decay":0,"intensity":31.41592653589793,"name":"Spot001","penumbra":0.3333333333333333,"profile":"max","target":7,"type":"spot"},{"angle":0.5235987755982988,"color":[1.0,1.0,1.0],"decay":0,"intensity":31.41592653589793,"name":"Spot002","penumbra":0.3333333333333333,"profile":"max","target":9,"type":"spot"},{"color":[0.0,0.0,0.0],"intensity":1,"profile":"max","type":"ambient"}]}},"extensionsUsed":["S8S_v3d_texture","KHR_texture_basisu","S8S_v3d_materials","S8S_v3d_camera","S8S_v3d_lights","S8S_v3d_light_probes","S8S_v3d_node","S8S_v3d_clipping_planes","S8S_v3d_curves","S8S_v3d_scene"],"images":[{"uri":"ao.png"},{"uri":"cornice.ktx2"},{"uri":"uv_grid.ktx2"},{"uri":"floor_basecolor.ktx2"},{"uri":"floor_normal.ktx2"},{"uri":"noise.ktx2"},{"uri":"environment.hdr.xz"}],"materials":[{"doubleSided":false,"extensions":{"S8S_v3d_materials":{"gtaoVisible":true,"nodeGraph":{"edges":[{"fromNode":1,"fromOutput":0,"toInput":0,"toNode":0},{"fromNode":1,"fromOutput":1,"toInput":1,"toNode":0},{"fromNode":2,"fromOutput":0,"toInput":0,"toNode":1},{"fromNode":2,"fromOutput":0,"toInput":3,"toNode":1},{"fromNode":3,"fromOutput":0,"toInput":21,"toNode":1},{"fromNode":4,"fromOutput":0,"toInput":0,"toNode":3}],"nodes":[{"inputs":[[1,1,1,1]],"is_active_output":true,"name":"MaxOutput","outputs":[],"type":"OUTPUT_MX"},{"brdfCurve":5.0,"brdfHigh":1.0,"brdfLow":0.05000000074505806,"brdfMode":true,"emitLuminance":1500.0,"inputFactors":[1.0,0,0,1.0,0,0,0,0,0,0,0,0,0,0,0,0,0,0,0,0,0,0.30000001192092896,0,0,0],"inputs":[1.0,[0.7019607843137254,0.3607843137254902,0.058823529411764705,1.0],0.25,[0.8,0.8,0.8,1.0],0.20000000298023224,1.0,0.0,0.0,0.25,0.0,[0.0,0.0,0.0,1.0],0.0,1.5199999809265137,0.0,[1.0,1.0,1.0,1.0],1.0,1.0,[0.0,0.0,0.0,1.0],0.0,[1.0,1.0,1.0,1.0],0.0,[0,0,0],[0,0,0],0,1],"is_active_output":false,"name":"frame_1","outputs":[[0,0,0,0]],"roughnessInv":false,"thinWalled":false,"transRoughnessInv":false,"transRoughnessLock":true,"type":"PHYSICAL_MX"},{"alphaAsMono":false,"alphaAsRGB":false,"alphaSource":"NONE","axis":"XY","clampToEdgeNoExtend":[false,false],"inputs":[0.0,0.0,1.0,1.0,0.0],"is_active_output":false,"mapping":"EXPLICIT_MAP_CHANNEL","name":"ao","outputs":[[0,0,0,0]],"texture":0,"type":"BITMAP_MX","uvIndex":1},{"flip":[false,true],"inputFactors":[1.0,0,0,0],"inputs":[[0,0,0,0],[0,0,0],1.0,1.0],"is_active_output":false,"name":"Map #9","outputs":[[0,0,0]],"type":"NORMAL_BUMP_MX"},{"alphaAsMono":false,"alphaAsRGB":false,"alphaSource":"NONE","axis":"XY","clampToEdgeNoExtend":[false,false],"inputs":[0.0,0.0,1.0,1.0,0.0],"is_active_output":false,"mapping":"EXPLICIT_MAP_CHANNEL","name":"Map #8","outputs":[[0,0,0,0]],"texture":1,"type":"BITMAP_MX","uvIndex":0}]},"profile":"max"}},"name":"frame_1"},{"doubleSided":false,"extensions":{"S8S_v3d_materials":{"gtaoVisible":true,"nodeGraph":{"edges":[{"fromNode":1,"fromOutput":0,"toInput":0,"toNode":0},{"fromNode":1,"fromOutput":1,"toInput":1,"toNode":0},{"fromNode":2,"fromOutput":0,"toInput":0,"toNode":1},{"fromNode":3,"fromOutput":0,"toInput":1,"toNode":1},{"fromNode":2,"fromOutput":0,"toInput":2,"toNode":1}],"nodes":[{"inputs":[[1,1,1,1]],"is_active_output":true,"name":"MaxOutput","outputs":[],"type":"OUTPUT_MX"},{"brdfCurve":5.0,"brdfHigh":1.0,"brdfLow":0.05000000074505806,"brdfMode":true,"emitLuminance":1500.0,"inputFactors":[1.0,1.0,1.0,0,0,0,0,0,0,0,0,0,0,0,0,0,0,0,0,0,0,0,0,0,0],"inputs":[1.0,[0.8,0.8,0.8,1.0],0.25,[0.8,0.8,0.8,1.0],0.4000000059604645,0.0,0.0,0.0,0.25,0.0,[0.0,0.0,0.0,1.0],0.0,1.5199999809265137,0.0,[1.0,1.0,1.0,1.0],1.0,1.0,[0.0,0.0,0.0,1.0],0.0,[1.0,1.0,1.0,1.0],0.0,[0,0,0],[0,0,0],0,1],"is_active_output":false,"name":"canvas","outputs":[[0,0,0,0]],"roughnessInv":false,"thinWalled":false,"transRoughnessInv":false,"transRoughnessLock":true,"type":"PHYSICAL_MX"},{"alphaAsMono":false,"alphaAsRGB":false,"alphaSource":"NONE","axis":"XY","clampToEdgeNoExtend":[false,false],"inputs":[0.0,0.0,1.0,1.0,0.0],"is_active_output":false,"mapping":"EXPLICIT_MAP_CHANNEL","name":"ao","outputs":[[0,0,0,0]],"texture":0,"type":"BITMAP_MX","uvIndex":1},{"alphaAsMono":false,"alphaAsRGB":false,"alphaSource":"NONE","axis":"XY","clampToEdgeNoExtend":[false,false],"inputs":[0.0,0.0,1.0,1.0,0.0],"is_active_output":false,"mapping":"EXPLICIT_MAP_CHANNEL","name":"canvas_texture","outputs":[[0,0,0,0]],"texture":2,"type":"BITMAP_MX","uvIndex":0}]},"profile":"max"}},"name":"canvas"},{"doubleSided":false,"extensions":{"S8S_v3d_materials":{"gtaoVisible":true,"nodeGraph":{"edges":[{"fromNode":1,"fromOutput":0,"toInput":0,"toNode":0},{"fromNode":1,"fromOutput":1,"toInput":1,"toNode":0},{"fromNode":2,"fromOutput":0,"toInput":0,"toNode":1},{"fromNode":2,"fromOutput":0,"toInput":2,"toNode":1},{"fromNode":3,"fromOutput":0,"toInput":21,"toNode":1},{"fromNode":4,"fromOutput":0,"toInput":0,"toNode":3}],"nodes":[{"inputs":[[1,1,1,1]],"is_active_output":true,"name":"MaxOutput","outputs":[],"type":"OUTPUT_MX"},{"brdfCurve":5.0,"brdfHigh":1.0,"brdfLow":0.05000000074505806,"brdfMode":true,"emitLuminance":1500.0,"inputFactors":[1.0,0,1.0,0,0,0,0,0,0,0,0,0,0,0,0,0,0,0,0,0,0,0.30000001192092896,0,0,0],"inputs":[1.0,[0.11510791404574525,0.04057760799632353,0.06273527332380706,1.0],0.25,[0.8,0.8,0.8,1.0],0.20000000298023224,0.5,0.0,0.0,0.25,0.0,[0.0,0.0,0.0,1.0],0.0,1.5199999809265137,0.0,[1.0,1.0,1.0,1.0],1.0,1.0,[0.0,0.0,0.0,1.0],0.0,[1.0,1.0,1.0,1.0],0.0,[0,0,0],[0,0,0],0,1],"is_active_output":false,"name":"frame_3","outputs":[[0,0,0,0]],"roughnessInv":false,"thinWalled":false,"transRoughnessInv":false,"transRoughnessLock":true,"type":"PHYSICAL_MX"},{"alphaAsMono":false,"alphaAsRGB":false,"alphaSource":"NONE","axis":"XY","clampToEdgeNoExtend":[false,false],"inputs":[0.0,0.0,1.0,1.0,0.0],"is_active_output":false,"mapping":"EXPLICIT_MAP_CHANNEL","name":"ao","outputs":[[0,0,0,0]],"texture":0,"type":"BITMAP_MX","uvIndex":1},{"flip":[false,true],"inputFactors":[1.0,0,0,0],"inputs":[[0,0,0,0],[0,0,0],1.0,1.0],"is_active_output":false,"name":"Map #9","outputs":[[0,0,0]],"type":"NORMAL_BUMP_MX"},{"alphaAsMono":false,"alphaAsRGB":false,"alphaSource":"NONE","axis":"XY","clampToEdgeNoExtend":[false,false],"inputs":[0.0,0.0,1.0,1.0,0.0],"is_active_output":false,"mapping":"EXPLICIT_MAP_CHANNEL","name":"Map #8","outputs":[[0,0,0,0]],"texture":1,"type":"BITMAP_MX","uvIndex":0}]},"profile":"max"}},"name":"frame_3"},{"doubleSided":false,"extensions":{"S8S_v3d_materials":{"gtaoVisible":true,"nodeGraph":{"edges":[{"fromNode":1,"fromOutput":0,"toInput":0,"toNode":0},{"fromNode":1,"fromOutput":1,"toInput":1,"toNode":0},{"fromNode":2,"fromOutput":0,"toInput":0,"toNode":1},{"fromNode":2,"fromOutput":0,"toInput":2,"toNode":1},{"fromNode":3,"fromOutput":0,"toInput":21,"toNode":1},{"fromNode":4,"fromOutput":0,"toInput":0,"toNode":3}],"nodes":[{"inputs":[[1,1,1,1]],"is_active_output":true,"name":"MaxOutput","outputs":[],"type":"OUTPUT_MX"},{"brdfCurve":5.0,"brdfHigh":1.0,"brdfLow":0.05000000074505806,"brdfMode":true,"emitLuminance":1500.0,"inputFactors":[1.0,0,1.0,0,0,0,0,0,0,0,0,0,0,0,0,0,0,0,0,0,0,0.30000001192092896,0,0,0],"inputs":[1.0,[0.5764705882352941,0.5215686274509804,0.1568627450980392,1.0],0.25,[0.8,0.8,0.8,1.0],0.20000000298023224,1.0,0.0,0.0,0.25,0.0,[0.0,0.0,0.0,1.0],0.0,1.5199999809265137,0.0,[1.0,1.0,1.0,1.0],1.0,1.0,[0.0,0.0,0.0,1.0],0.0,[1.0,1.0,1.0,1.0],0.0,[0,0,0],[0,0,0],0,1],"is_active_output":false,"name":"frame_2","outputs":[[0,0,0,0]],"roughnessInv":false,"thinWalled":false,"transRoughnessInv":false,"transRoughnessLock":true,"type":"PHYSICAL_MX"},{"alphaAsMono":false,"alphaAsRGB":false,"alphaSource":"NONE","axis":"XY","clampToEdgeNoExtend":[false,false],"inputs":[0.0,0.0,1.0,1.0,0.0],"is_active_output":false,"mapping":"EXPLICIT_MAP_CHANNEL","name":"ao","outputs":[[0,0,0,0]],"texture":0,"type":"BITMAP_MX","uvIndex":1},{"flip":[false,true],"inputFactors":[1.0,0,0,0],"inputs":[[0,0,0,0],[0,0,0],1.0,1.0],"is_active_output":false,"name":"Map #9","outputs":[[0,0,0]],"type":"NORMAL_BUMP_MX"},{"alphaAsMono":false,"alphaAsRGB":false,"alphaSource":"NONE","axis":"XY","clampToEdgeNoExtend":[false,false],"inputs":[0.0,0.0,1.0,1.0,0.0],"is_active_output":false,"mapping":"EXPLICIT_MAP_CHANNEL","name":"Map #8","outputs":[[0,0,0,0]],"texture":1,"type":"BITMAP_MX","uvIndex":0}]},"profile":"max"}},"name":"frame_2"},{"doubleSided":false,"extensions":{"S8S_v3d_materials":{"gtaoVisible":true,"nodeGraph":{"edges":[{"fromNode":1,"fromOutput":0,"toInput":0,"toNode":0},{"fromNode":1,"fromOutput":1,"toInput":1,"toNode":0},{"fromNode":2,"fromOutput":0,"toInput":0,"toNode":1},{"fromNode":3,"fromOutput":0,"toInput":1,"toNode":1},{"fromNode":2,"fromOutput":0,"toInput":2,"toNode":1},{"fromNode":4,"fromOutput":0,"toInput":21,"toNode":1},{"fromNode":5,"fromOutput":0,"toInput":0,"toNode":4}],"nodes":[{"inputs":[[1,1,1,1]],"is_active_output":true,"name":"MaxOutput","outputs":[],"type":"OUTPUT_MX"},{"brdfCurve":5.0,"brdfHigh":1.0,"brdfLow":0.05000000074505806,"brdfMode":true,"emitLuminance":1500.0,"inputFactors":[1.0,1.0,1.0,0,0,0,0,0,0,0,0,0,0,0,0,0,0,0,0,0,0,0.30000001192092896,0,0,0],"inputs":[1.0,[0.8,0.8,0.8,1.0],0.5,[0.8,0.8,0.8,1.0],0.0,0.0,0.0,0.0,0.25,0.0,[0.0,0.0,0.0,1.0],0.0,1.5199999809265137,0.0,[1.0,1.0,1.0,1.0],1.0,1.0,[0.0,0.0,0.0,1.0],0.0,[1.0,1.0,1.0,1.0],0.0,[0,0,0],[0,0,0],0,1],"is_active_output":false,"name":"floor","outputs":[[0,0,0,0]],"roughnessInv":false,"thinWalled":false,"transRoughnessInv":false,"transRoughnessLock":true,"type":"PHYSICAL_MX"},{"alphaAsMono":false,"alphaAsRGB":false,"alphaSource":"NONE","axis":"XY","clampToEdgeNoExtend":[false,false],"inputs":[0.0,0.0,1.0,1.0,0.0],"is_active_output":false,"mapping":"EXPLICIT_MAP_CHANNEL","name":"ao","outputs":[[0,0,0,0]],"texture":0,"type":"BITMAP_MX","uvIndex":1},{"alphaAsMono":false,"alphaAsRGB":false,"alphaSource":"NONE","axis":"XY","clampToEdgeNoExtend":[false,false],"inputs":[0.0,0.0,5.0,5.0,0.0],"is_active_output":false,"mapping":"EXPLICIT_MAP_CHANNEL","name":"Map #3","outputs":[[0,0,0,0]],"texture":3,"type":"BITMAP_MX","uvIndex":0},{"flip":[false,false],"inputFactors":[1.0,0,0,0],"inputs":[[0,0,0,0],[0,0,0],2.0,1.0],"is_active_output":false,"name":"Map #4","outputs":[[0,0,0]],"type":"NORMAL_BUMP_MX"},{"alphaAsMono":false,"alphaAsRGB":false,"alphaSource":"NONE","axis":"XY","clampToEdgeNoExtend":[false,false],"inputs":[0.0,0.0,5.0,5.0,0.0],"is_active_output":false,"mapping":"EXPLICIT_MAP_CHANNEL","name":"Map #1","outputs":[[0,0,0,0]],"texture":4,"type":"BITMAP_MX","uvIndex":0}]},"profile":"max"}},"name":"floor"},{"doubleSided":false,"extensions":{"S8S_v3d_materials":{"gtaoVisible":true,"nodeGraph":{"edges":[{"fromNode":1,"fromOutput":0,"toInput":0,"toNode":0},{"fromNode":1,"fromOutput":1,"toInput":1,"toNode":0},{"fromNode":2,"fromOutput":0,"toInput":0,"toNode":1},{"fromNode":2,"fromOutput":0,"toInput":2,"toNode":1},{"fromNode":3,"fromOutput":0,"toInput":21,"toNode":1},{"fromNode":4,"fromOutput":0,"toInput":0,"toNode":3}],"nodes":[{"inputs":[[1,1,1,1]],"is_active_output":true,"name":"MaxOutput","outputs":[],"type":"OUTPUT_MX"},{"brdfCurve":5.0,"brdfHigh":1.0,"brdfLow":0.05000000074505806,"brdfMode":true,"emitLuminance":1500.0,"inputFactors":[1.0,0,1.0,0,0,0,0,0,0,0,0,0,0,0,0,0,0,0,0,0,0,1.0,0,0,0],"inputs":[1.0,[0.762589937097886,0.651522767310049,0.5321670831418505,1.0],0.5,[0.8,0.8,0.8,1.0],0.699999988079071,0.0,0.0,0.0,0.25,0.0,[0.0,0.0,0.0,1.0],0.0,1.5199999809265137,0.0,[1.0,1.0,1.0,1.0],1.0,1.0,[0.0,0.0,0.0,1.0],0.0,[1.0,1.0,1.0,1.0],0.0,[0,0,0],[0,0,0],0,1],"is_active_output":false,"name":"walls","outputs":[[0,0,0,0]],"roughnessInv":false,"thinWalled":false,"transRoughnessInv":false,"transRoughnessLock":true,"type":"PHYSICAL_MX"},{"alphaAsMono":false,"alphaAsRGB":false,"alphaSource":"NONE","axis":"XY","clampToEdgeNoExtend":[false,false],"inputs":[0.0,0.0,1.0,1.0,0.0],"is_active_output":false,"mapping":"EXPLICIT_MAP_CHANNEL","name":"ao","outputs":[[0,0,0,0]],"texture":0,"type":"BITMAP_MX","uvIndex":1},{"flip":[false,true],"inputFactors":[1.0,0,0,0],"inputs":[[0,0,0,0],[0,0,0],1.0,1.0],"is_active_output":false,"name":"Map #6","outputs":[[0,0,0]],"type":"NORMAL_BUMP_MX"},{"alphaAsMono":false,"alphaAsRGB":false,"alphaSource":"NONE","axis":"XY","clampToEdgeNoExtend":[false,false],"inputs":[0.0,0.0,20.0,20.0,0.0],"is_active_output":false,"mapping":"EXPLICIT_MAP_CHANNEL","name":"Map #5","outputs":[[0,0,0,0]],"texture":5,"type":"BITMAP_MX","uvIndex":0}]},"profile":"max"}},"name":"walls"},{"extensions":{"S8S_v3d_materials":{"nodeGraph":{"edges":[{"fromNode":1,"fromOutput":0,"toInput":0,"toNode":0},{"fromNode":1,"fromOutput":1,"toInput":1,"toNode":0}],"nodes":[{"inputs":[[1,1,1,1]],"is_active_output":true,"name":"MaxOutput","outputs":[],"type":"OUTPUT_MX"},{"alphaAsMono":false,"alphaAsRGB":false,"alphaSource":"FILE","axis":"XY","clampToEdgeNoExtend":[false,false],"inputs":[0.0,0.0,1.0,1.0,0.0],"is_active_output":false,"mapping":"SPHERICAL_ENVIRONMENT","name":"Map #13","outputs":[[0,0,0,0]],"texture":6,"type":"BITMAP_ENV_MX","uvIndex":0}]},"profile":"max"}},"name":"Verge3D_Environment"}],"meshes":[{"name":"frames","primitives":[{"attributes":{"NORMAL":2,"POSITION":1,"TANGENT":3,"TEXCOORD_0":4,"TEXCOORD_1":5},"indices":0,"material":0,"mode":4},{"attributes":{"NORMAL":8,"POSITION":7,"TEXCOORD_0":9,"TEXCOORD_1":10},"indices":6,"material":1,"mode":4},{"attributes":{"NORMAL":13,"POSITION":12,"TANGENT":14,"TEXCOORD_0":15,"TEXCOORD_1":16},"indices":11,"material":2,"mode":4},{"attributes":{"NORMAL":19,"POSITION":18,"TANGENT":20,"TEXCOORD_0":21,"TEXCOORD_1":22},"indices":17,"material":3,"mode":4}]},{"name":"floor","primitives":[{"attributes":{"NORMAL":25,"POSITION":24,"TANGENT":26,"TEXCOORD_0":27,"TEXCOORD_1":28},"indices":23,"material":4,"mode":4}]},{"name":"walls","primitives":[{"attributes":{"NORMAL":31,"POSITION":30,"TANGENT":32,"TEXCOORD_0":33,"TEXCOORD_1":34},"indices":29,"material":5,"mode":4}]}],"nodes":[{"extensions":{"S8S_v3d_node":{"frustumCulling":true,"hidden":false,"hidpiCompositing":false,"renderOrder":0,"useCastShadows":true,"useShadows":true}},"extras":{"customProps":{"MapChannel:1":"UVMap","MapChannel:2":"ao"}},"mesh":0,"name":"frames","rotation":[1.6858739115832577e-07,-0.7071067690849304,-0.7071067690849304,1.0677015893634234e-07]},{"extensions":{"S8S_v3d_node":{"frustumCulling":true,"hidden":false,"hidpiCompositing":false,"renderOrder":0,"useCastShadows":true,"useShadows":true}},"extras":{"customProps":{"MapChannel:1":"UVMap","MapChannel:2":"ao"}},"mesh":1,"name":"floor","rotation":[-8.146033536604591e-08,-0.0,0.0,1.0],"translation":[0.0,2.203561544418335,-0.3947630822658539]},{"extensions":{"S8S_v3d_node":{"frustumCulling":true,"hidden":false,"hidpiCompositing":false,"renderOrder":0,"useCastShadows":true,"useShadows":true}},"extras":{"customProps":{"MapChannel:1":"UVMap","MapChannel:2":"ao"}},"mesh":2,"name":"walls","rotation":[-8.146033536604591e-08,-0.0,0.0,1.0],"translation":[0.0,2.203561544418335,-0.3947630822658539]},{"camera":0,"extensions":{"S8S_v3d_node":{"hidden":false,"hidpiCompositing":false}},"name":"Camera001","rotation":[-0.04775087907910347,0.21274268627166748,0.010409688577055931,0.975885272026062],"scale":[0.9999999403953552,1.0000001192092896,1.0],"translation":[5.050024032592773,1.1946120262145996,10.630780220031738]},{"extensions":{"S8S_v3d_node":{"hidden":false,"hidpiCompositing":false}},"name":"Camera001.Target","translation":[-0.01865541934967041,0.0,-0.44216251373291016]},{"extensions":{"S8S_v3d_light_probes":{"lightProbe":0},"S8S_v3d_node":{"hidden":false,"hidpiCompositing":false}},"name":"V3DReflectionPlane001","translation":[-0.0767369195818901,-3.773829460144043,-0.3884395360946655]},{"extensions":{"S8S_v3d_lights":{"light":0},"S8S_v3d_node":{"hidden":false,"hidpiCompositing":false}},"name":"Spot001","rotation":[-1.0350065693387478e-08,0.8807594776153564,0.47356387972831726,1.9249611682425893e-08],"scale":[1.0,1.0,1.0],"translation":[1.6593777729667636e-07,4.638552188873291,-3.7962136268615723]},{"extensions":{"S8S_v3d_node":{"hidden":false,"hidpiCompositing":false}},"name":"Spot001.Target","rotation":[-0.4999999403953552,0.5,-0.5000000596046448,-0.4999999403953552],"translation":[2.7823192638720684e-08,-0.14097905158996582,-0.6365204453468323]},{"extensions":{"S8S_v3d_lights":{"light":1},"S8S_v3d_node":{"hidden":false,"hidpiCompositing":false}},"name":"Spot002","rotation":[-0.5465751886367798,-1.8302177551277055e-08,-1.1945781253075438e-08,0.837410032749176],"scale":[1.0,1.0,1.0],"translation":[-7.90147041129785e-08,5.417692184448242,1.8076456785202026]},{"extensions":{"S8S_v3d_node":{"hidden":false,"hidpiCompositing":false}},"name":"Spot002.Target","rotation":[-0.4999999403953552,0.5,-0.5000000596046448,-0.4999999403953552],"translation":[2.7823192638720684e-08,-0.14097905158996582,-0.6365204453468323]},{"extensions":{"S8S_v3d_lights":{"light":2}},"rotation":[-0.7071068286895752,-0.0,-0.0,0.7071067690849304],"scale":[1.0,1.0,1.0],"translation":[0.0,0.0,0.0]}],"samplers":[{}],"scene":0,"scenes":[{"extensions":{"S8S_v3d_scene":{"aaMethod":"AUTO","iblEnvironmentMode":"PMREM","physicallyCorrectLights":true,"pmremMaxTileSize":256,"shadowMap":{"esmDistanceScale":0.30000001192092896,"renderReverseSided":false,"renderSingleSided":true,"type":"PCFPOISSON"},"toneMapping":{"brightness":45.0,"chromaticAdaptation":false,"colorDifferentiation":false,"contrast":50.0,"exteriorDaylight":false,"midTones":1.0,"physicalScale":1500.0,"processBG":false,"type":"logarithmicMax","whiteColor":[255.0,255.0,255.0]},"unitsScaleFactor":1.0,"worldMaterial":6}},"extras":{"animFrameRate":30,"coordSystem":"Z_UP_RIGHT"},"name":"Scene","nodes":[0,1,2,3,4,5,6,7,8,9,10]}],"textures":[{"extensions":{"S8S_v3d_texture":{"anisotropy":1,"colorSpace":"linear"}},"name":"ao","sampler":0,"source":0},{"extensions":{"KHR_texture_basisu":{"source":1},"S8S_v3d_texture":{"anisotropy":1,"colorSpace":"linear"}},"name":"Map #8","sampler":0},{"extensions":{"KHR_texture_basisu":{"source":2},"S8S_v3d_texture":{"anisotropy":1,"colorSpace":"srgb"}},"name":"canvas_texture","sampler":0},{"extensions":{"KHR_texture_basisu":{"source":3},"S8S_v3d_texture":{"anisotropy":1,"colorSpace":"srgb","uvTransform":[5.0,-0.0,0,0.0,5.0,0,-2.0,-2.0,1]}},"name":"Map #3","sampler":0},{"extensions":{"KHR_texture_basisu":{"source":4},"S8S_v3d_texture":{"anisotropy":1,"colorSpace":"linear","uvTransform":[5.0,-0.0,0,0.0,5.0,0,-2.0,-2.0,1]}},"name":"Map #1","sampler":0},{"extensions":{"KHR_texture_basisu":{"source":5},"S8S_v3d_texture":{"anisotropy":1,"colorSpace":"linear","uvTransform":[20.0,-0.0,0,0.0,20.0,0,-9.5,-9.5,1]}},"name":"Map #5","sampler":0},{"extensions":{"S8S_v3d_texture":{"colorSpace":"linear","source":6}},"name":"Map #13","sampler":0}]}
