{"accessors":[{"bufferView":0,"componentType":5123,"count":918,"max":[326],"min":[0],"type":"SCALAR"},{"bufferView":1,"componentType":5126,"count":327,"max":[1.622601866722107,4.845966339111328,1.6273202896118164],"min":[-1.5575652122497559,0.19004730880260468,-1.5161807537078857],"type":"VEC3"},{"bufferView":2,"componentType":5126,"count":327,"max":[0.9497504830360413,0.9970001578330994,0.9904082417488098],"min":[-0.9182487726211548,-0.112139031291008,-0.9417098760604858],"type":"VEC3"},{"bufferView":3,"componentType":5126,"count":327,"max":[0.9850826263427734,1.0044184923171997],"min":[0.0019236782100051641,0.015163660049438477],"type":"VEC2"},{"bufferView":4,"componentType":5126,"count":327,"max":[1.0,1.0,1.0,1.0],"min":[0.4341537058353424,0.4341537058353424,0.4341537058353424,1.0],"type":"VEC4"},{"bufferView":5,"componentType":5121,"count":234,"max":[49],"min":[0],"type":"SCALAR"},{"bufferView":6,"componentType":5126,"count":50,"max":[0.30617064237594604,4.387174606323242,0.35353535413742065],"min":[-0.30617058277130127,-0.30524468421936035,-0.35353535413742065],"type":"VEC3"},{"bufferView":7,"componentType":5126,"count":50,"max":[0.873650074005127,0.9892213344573975,0.9993007779121399],"min":[-0.8705161809921265,-0.010485999286174774,-0.9993007779121399],"type":"VEC3"},{"bufferView":8,"componentType":5126,"count":50,"max":[1.5040266513824463,4.6344122886657715],"min":[-0.4968642592430115,-4.3074212074279785],"type":"VEC2"},{"bufferView":9,"componentType":5126,"count":50,"max":[1.0,1.0,1.0,1.0],"min":[0.0,0.0,0.0,1.0],"type":"VEC4"},{"bufferView":10,"componentType":5123,"count":924,"max":[315],"min":[0],"type":"SCALAR"},{"bufferView":11,"componentType":5126,"count":316,"max":[3.010134696960449,9.760111808776855,2.9764933586120605],"min":[-2.782698154449463,0.9875575304031372,-2.4312684535980225],"type":"VEC3"},{"bufferView":12,"componentType":5126,"count":316,"max":[0.7489356398582458,0.9980456233024597,0.8198050260543823],"min":[-0.7718023657798767,-0.5999023914337158,-0.9378477334976196],"type":"VEC3"},{"bufferView":13,"componentType":5126,"count":316,"max":[0.9799558520317078,1.0078636407852173],"min":[0.001923680305480957,-0.036016225814819336],"type":"VEC2"},{"bufferView":14,"componentType":5126,"count":316,"max":[1.0,1.0,1.0,1.0],"min":[1.0,1.0,1.0,1.0],"type":"VEC4"},{"bufferView":15,"componentType":5121,"count":270,"max":[56],"min":[0],"type":"SCALAR"},{"bufferView":16,"componentType":5126,"count":57,"max":[0.3968575596809387,9.13520336151123,0.45825159549713135],"min":[-0.39685750007629395,-0.4043788015842438,-0.45825159549713135],"type":"VEC3"},{"bufferView":17,"componentType":5126,"count":57,"max":[0.8791057467460632,0.9805411100387573,0.9995493292808533],"min":[-0.876984179019928,-0.11969203501939774,-0.9997366666793823],"type":"VEC3"},{"bufferView":18,"componentType":5126,"count":57,"max":[1.501200556755066,9.349579811096191],"min":[-0.5030428171157837,-5.1114349365234375],"type":"VEC2"},{"bufferView":19,"componentType":5126,"count":57,"max":[1.0,1.0,1.0,1.0],"min":[0.0,0.0,0.0,1.0],"type":"VEC4"},{"bufferView":20,"componentType":5121,"count":690,"max":[239],"min":[0],"type":"SCALAR"},{"bufferView":21,"componentType":5126,"count":240,"max":[2.839580535888672,8.460933685302734,2.7207601070404053],"min":[-2.580552101135254,0.9693272113800049,-2.6489219665527344],"type":"VEC3"},{"bufferView":22,"componentType":5126,"count":240,"max":[0.9985339045524597,0.9988822340965271,0.7446200847625732],"min":[-0.87428218126297,-0.82973712682724,-0.8752076029777527],"type":"VEC3"},{"bufferView":23,"componentType":5126,"count":240,"max":[0.9823378920555115,0.9886458516120911],"min":[0.0027623772621154785,-0.03342235088348389],"type":"VEC2"},{"bufferView":24,"componentType":5126,"count":240,"max":[1.0,1.0,1.0,1.0],"min":[1.0,1.0,1.0,1.0],"type":"VEC4"},{"bufferView":25,"componentType":5121,"count":234,"max":[49],"min":[0],"type":"SCALAR"},{"bufferView":26,"componentType":5126,"count":50,"max":[0.3556375503540039,7.79293155670166,0.4106549024581909],"min":[-0.7363764047622681,-0.4043788015842438,-1.6402987241744995],"type":"VEC3"},{"bufferView":27,"componentType":5126,"count":50,"max":[0.8763948678970337,0.7850310206413269,0.9986441731452942],"min":[-0.8868758678436279,-0.4026361107826233,-0.9999860525131226],"type":"VEC3"},{"bufferView":28,"componentType":5126,"count":50,"max":[1.4960980415344238,7.530370235443115],"min":[-0.4931159019470215,-4.539081573486328],"type":"VEC2"},{"bufferView":29,"componentType":5126,"count":50,"max":[1.0,1.0,1.0,1.0],"min":[0.0,0.0,0.0,1.0],"type":"VEC4"},{"bufferView":30,"componentType":5121,"count":540,"max":[189],"min":[0],"type":"SCALAR"},{"bufferView":31,"componentType":5126,"count":190,"max":[1.9156197309494019,4.4092230796813965,2.1356985569000244],"min":[-2.301985263824463,-0.10351705551147461,-2.2154760360717773],"type":"VEC3"},{"bufferView":32,"componentType":5126,"count":190,"max":[0.6613052487373352,0.9997961521148682,0.6097620725631714],"min":[-0.6977182626724243,0.700509250164032,-0.6449532508850098],"type":"VEC3"},{"bufferView":33,"componentType":5126,"count":190,"max":[0.9803742170333862,0.9972230792045593],"min":[0.0021821558475494385,-0.008189916610717773],"type":"VEC2"},{"bufferView":34,"componentType":5126,"count":190,"max":[1.0,1.0,1.0,1.0],"min":[1.0,1.0,1.0,1.0],"type":"VEC4"},{"bufferView":35,"componentType":5121,"count":198,"max":[42],"min":[0],"type":"SCALAR"},{"bufferView":36,"componentType":5126,"count":43,"max":[0.3313976526260376,4.914454936981201,0.3826649785041809],"min":[-0.3313976526260376,-0.4043788015842438,-0.3826649785041809],"type":"VEC3"},{"bufferView":37,"componentType":5126,"count":43,"max":[0.8674201369285583,1.0,0.9990121722221375],"min":[-0.867210865020752,0.040743984282016754,-0.9990121722221375],"type":"VEC3"},{"bufferView":38,"componentType":5126,"count":43,"max":[0.9973698258399963,2.786520481109619],"min":[0.004527658224105835,-1.1105146408081055],"type":"VEC2"},{"bufferView":39,"componentType":5126,"count":43,"max":[1.0,1.0,1.0,1.0],"min":[0.0,0.0,0.0,1.0],"type":"VEC4"}],"asset":{"generator":"Verge3D for Blender v4.6.0","version":"2.0"},"bufferViews":[{"buffer":0,"byteLength":1836,"byteOffset":0,"target":34963},{"buffer":0,"byteLength":3924,"byteOffset":1836,"target":34962},{"buffer":0,"byteLength":3924,"byteOffset":5760,"target":34962},{"buffer":0,"byteLength":2616,"byteOffset":9684,"target":34962},{"buffer":0,"byteLength":5232,"byteOffset":12300,"target":34962},{"buffer":0,"byteLength":234,"byteOffset":17532,"target":34963},{"buffer":0,"byteLength":600,"byteOffset":17768,"target":34962},{"buffer":0,"byteLength":600,"byteOffset":18368,"target":34962},{"buffer":0,"byteLength":400,"byteOffset":18968,"target":34962},{"buffer":0,"byteLength":800,"byteOffset":19368,"target":34962},{"buffer":0,"byteLength":1848,"byteOffset":20168,"target":34963},{"buffer":0,"byteLength":3792,"byteOffset":22016,"target":34962},{"buffer":0,"byteLength":3792,"byteOffset":25808,"target":34962},{"buffer":0,"byteLength":2528,"byteOffset":29600,"target":34962},{"buffer":0,"byteLength":5056,"byteOffset":32128,"target":34962},{"buffer":0,"byteLength":270,"byteOffset":37184,"target":34963},{"buffer":0,"byteLength":684,"byteOffset":37456,"target":34962},{"buffer":0,"byteLength":684,"byteOffset":38140,"target":34962},{"buffer":0,"byteLength":456,"byteOffset":38824,"target":34962},{"buffer":0,"byteLength":912,"byteOffset":39280,"target":34962},{"buffer":0,"byteLength":690,"byteOffset":40192,"target":34963},{"buffer":0,"byteLength":2880,"byteOffset":40884,"target":34962},{"buffer":0,"byteLength":2880,"byteOffset":43764,"target":34962},{"buffer":0,"byteLength":1920,"byteOffset":46644,"target":34962},{"buffer":0,"byteLength":3840,"byteOffset":48564,"target":34962},{"buffer":0,"byteLength":234,"byteOffset":52404,"target":34963},{"buffer":0,"byteLength":600,"byteOffset":52640,"target":34962},{"buffer":0,"byteLength":600,"byteOffset":53240,"target":34962},{"buffer":0,"byteLength":400,"byteOffset":53840,"target":34962},{"buffer":0,"byteLength":800,"byteOffset":54240,"target":34962},{"buffer":0,"byteLength":540,"byteOffset":55040,"target":34963},{"buffer":0,"byteLength":2280,"byteOffset":55580,"target":34962},{"buffer":0,"byteLength":2280,"byteOffset":57860,"target":34962},{"buffer":0,"byteLength":1520,"byteOffset":60140,"target":34962},{"buffer":0,"byteLength":3040,"byteOffset":61660,"target":34962},{"buffer":0,"byteLength":198,"byteOffset":64700,"target":34963},{"buffer":0,"byteLength":516,"byteOffset":64900,"target":34962},{"buffer":0,"byteLength":516,"byteOffset":65416,"target":34962},{"buffer":0,"byteLength":344,"byteOffset":65932,"target":34962},{"buffer":0,"byteLength":688,"byteOffset":66276,"target":34962}],"buffers":[{"byteLength":66964,"uri":"assets.bin"}],"cameras":[{"extensions":{"S8S_v3d_camera":{"controls":"ORBIT","enablePan":true,"moveSpeed":1,"orbitMaxDistance":10000,"orbitMaxPolarAngle":3.141592653589793,"orbitMinDistance":0,"orbitMinPolarAngle":0,"orbitTarget":[-0.003888750448822975,3.64281964302063,0.22338250279426575],"rotateSpeed":1,"viewportFitInitialAspect":1,"viewportFitType":"VERTICAL"}},"name":"__DEFAULT__","perspective":{"aspectRatio":1,"yfov":0.7853981633974483,"zfar":1000.0,"znear":0.009999999776482582},"type":"perspective"}],"extensions":{"S8S_v3d_lights":{"lights":[{"color":[1.0,1.0,1.0],"intensity":2.0,"name":"Lamp","profile":"blender","shadow":{"bias":-1.7999999597668648e-05,"cameraFar":100,"cameraFov":0,"cameraNear":0.1,"csm":{"count":4,"exponent":1.0,"fade":0.0,"lightMargin":0.0,"maxDistance":60.0},"enabled":true,"expBias":2.5,"mapSize":1024,"radius":1.0,"slopeScaledBias":2.5},"type":"directional"}]},"S8S_v3d_materials":{"nodeGraphs":[{"edges":[{"fromNode":2,"fromOutput":2,"toInput":0,"toNode":1},{"fromNode":4,"fromOutput":0,"toInput":0,"toNode":5},{"fromNode":3,"fromOutput":0,"toInput":6,"toNode":2},{"fromNode":0,"fromOutput":2,"toInput":7,"toNode":2},{"fromNode":5,"fromOutput":0,"toInput":0,"toNode":0}],"name":"shadow","nodes":[{"blendType":"MIX","clampFactor":true,"clampResult":false,"dataType":"RGBA","factorMode":"UNIFORM","inputs":[0.5,[0.5,0.5,0.5],0.0,0.0,[0.0,0.0,0.0],[0.0,0.0,0.0],[0.19781818985939026,0.5121480226516724,0.8134249448776245,1.0],[1.0,1.0,1.0,1.0],0,0],"is_active_output":false,"name":"Mix.001","outputs":[0.0,[0.0,0.0,0.0],[0.0,0.0,0.0,0.0],0],"type":"MIX_BL"},{"inputs":[[0.0,0.0,0.0,0.0]],"is_active_output":true,"name":"Group Output","outputs":[],"type":"GROUP_OUTPUT_BL"},{"blendType":"MULTIPLY","clampFactor":true,"clampResult":false,"dataType":"RGBA","factorMode":"UNIFORM","inputs":[1.0,[0.5,0.5,0.5],0.0,0.0,[0.0,0.0,0.0],[0.0,0.0,0.0],[0.5,0.5,0.5,1.0],[0.5,0.5,0.5,1.0],0,0],"is_active_output":false,"name":"Mix","outputs":[0.0,[0.0,0.0,0.0],[0.0,0.0,0.0,0.0],0],"type":"MIX_BL"},{"inputs":[],"is_active_output":false,"name":"Group Input","outputs":[[0.5,0.5,0.5,1.0]],"type":"GROUP_INPUT_BL"},{"inputs":[[1.0,1.0,1.0,1.0],0.0,[0.0,0.0,0.0]],"is_active_output":false,"name":"Diffuse BSDF.001","outputs":[[0,0,0,0]],"type":"BSDF_DIFFUSE_BL"},{"inputs":[[0,0,0,0]],"is_active_output":false,"name":"Shader to RGB","outputs":[[0.0,0.0,0.0,0.0],0.0],"type":"SHADERTORGB_BL"}]}]}},"extensionsUsed":["KHR_texture_basisu","S8S_v3d_texture","S8S_v3d_materials","S8S_v3d_camera","S8S_v3d_lights","S8S_v3d_mesh","S8S_v3d_node","S8S_v3d_scene"],"images":[{"uri":"pine_branches.ktx2"},{"uri":"bark.ktx2"},{"uri":"snow_tile_1.ktx2"}],"materials":[{"alphaMode":"BLEND","doubleSided":true,"extensions":{"S8S_v3d_materials":{"alphaToCoverage":true,"gtaoVisible":true,"materialIndex":0,"nodeGraph":{"edges":[{"fromNode":0,"fromOutput":0,"toInput":1,"toNode":3},{"fromNode":5,"fromOutput":1,"toInput":0,"toNode":3},{"fromNode":3,"fromOutput":0,"toInput":0,"toNode":4},{"fromNode":5,"fromOutput":0,"toInput":0,"toNode":1},{"fromNode":2,"fromOutput":0,"toInput":2,"toNode":3},{"fromNode":1,"fromOutput":0,"toInput":0,"toNode":2}],"nodes":[{"inputs":[[1.0,1.0,1.0,1.0]],"is_active_output":false,"name":"Transparent BSDF","outputs":[[0,0,0,0]],"type":"BSDF_TRANSPARENT_BL"},{"inputs":[[0.5,0.5,0.5,1.0]],"is_active_output":false,"name":"Group","nodeGraph":0,"outputs":[[0.0,0.0,0.0,0.0]],"type":"GROUP_BL"},{"inputs":[[1.0,1.0,1.0,1.0],1.0],"is_active_output":false,"name":"Emission","outputs":[[0,0,0,0]],"type":"EMISSION_BL"},{"inputs":[0.5,[0,0,0,0],[0,0,0,0]],"is_active_output":false,"name":"Mix Shader","outputs":[[0,0,0,0]],"type":"MIX_SHADER_BL"},{"inputs":[[0,0,0,0],[0,0,0,0],[0.0,0.0,0.0],0.0],"is_active_output":true,"name":"Material Output","outputs":[],"type":"OUTPUT_MATERIAL_BL"},{"alphaMode":"STRAIGHT","inputs":[[0.0,0.0,0.0]],"is_active_output":false,"name":"Image Texture","outputs":[[0.0,0.0,0.0,0.0],0.0],"projection":"FLAT","projectionBlend":0.0,"texture":0,"type":"TEX_IMAGE_BL"}]},"renderSide":"DOUBLE","useCastShadows":true}},"name":"leafs"},{"extensions":{"S8S_v3d_materials":{"gtaoVisible":true,"materialIndex":0,"nodeGraph":{"edges":[{"fromNode":1,"fromOutput":0,"toInput":0,"toNode":0},{"fromNode":2,"fromOutput":0,"toInput":0,"toNode":1},{"fromNode":3,"fromOutput":2,"toInput":0,"toNode":2},{"fromNode":4,"fromOutput":0,"toInput":6,"toNode":5},{"fromNode":6,"fromOutput":0,"toInput":7,"toNode":3},{"fromNode":7,"fromOutput":0,"toInput":6,"toNode":3},{"fromNode":5,"fromOutput":2,"toInput":0,"toNode":3},{"fromNode":6,"fromOutput":0,"toInput":7,"toNode":5}],"nodes":[{"inputs":[[0,0,0,0],[0,0,0,0],[0.0,0.0,0.0],0.0],"is_active_output":true,"name":"Material Output","outputs":[],"type":"OUTPUT_MATERIAL_BL"},{"inputs":[[0.21586059033870697,0.14412851631641388,0.05286065861582756,1.0],1.0],"is_active_output":false,"name":"Emission","outputs":[[0,0,0,0]],"type":"EMISSION_BL"},{"inputs":[[0.5,0.5,0.5,1.0]],"is_active_output":false,"name":"Group","nodeGraph":0,"outputs":[[0.0,0.0,0.0,0.0]],"type":"GROUP_BL"},{"blendType":"MIX","clampFactor":true,"clampResult":false,"dataType":"RGBA","factorMode":"UNIFORM","inputs":[0.5,[0.5,0.5,0.5],0.0,0.0,[0.0,0.0,0.0],[0.0,0.0,0.0],[0.5,0.5,0.5,1.0],[0.5,0.5,0.5,1.0],0,0],"is_active_output":false,"name":"Mix","outputs":[0.0,[0.0,0.0,0.0],[0.0,0.0,0.0,0.0],0],"type":"MIX_BL"},{"colorLayer":"snow","inputs":[],"is_active_output":false,"name":"Vertex Color","outputs":[[0.0,0.0,0.0,0.0],0.0],"type":"VERTEX_COLOR_BL"},{"blendType":"DIVIDE","clampFactor":true,"clampResult":false,"dataType":"RGBA","factorMode":"UNIFORM","inputs":[0.016666650772094727,[0.5,0.5,0.5],0.0,0.0,[0.0,0.0,0.0],[0.0,0.0,0.0],[0.5,0.5,0.5,1.0],[0.5,0.5,0.5,1.0],0,0],"is_active_output":false,"name":"Mix.001","outputs":[0.0,[0.0,0.0,0.0],[0.0,0.0,0.0,0.0],0],"type":"MIX_BL"},{"alphaMode":"STRAIGHT","inputs":[[0.0,0.0,0.0]],"is_active_output":false,"name":"Image Texture","outputs":[[0.0,0.0,0.0,0.0],0.0],"projection":"FLAT","projectionBlend":0.0,"texture":1,"type":"TEX_IMAGE_BL"},{"alphaMode":"STRAIGHT","inputs":[[0.0,0.0,0.0]],"is_active_output":false,"name":"Image Texture.001","outputs":[[0.0,0.0,0.0,0.0],0.0],"projection":"FLAT","projectionBlend":0.0,"texture":2,"type":"TEX_IMAGE_BL"}]},"useCastShadows":true}},"name":"trunk"},{"extensions":{"S8S_v3d_materials":{"gtaoVisible":true,"materialIndex":0,"nodeGraph":{"edges":[{"fromNode":1,"fromOutput":0,"toInput":0,"toNode":0}],"nodes":[{"inputs":[[0,0,0,0],[0,0,0,0]],"is_active_output":true,"name":"World Output","outputs":[],"type":"OUTPUT_WORLD_BL"},{"inputs":[[0.5906189680099487,0.7011019587516785,0.7758224010467529,1.0],1.0],"is_active_output":false,"name":"Background","outputs":[[0,0,0,0]],"type":"BACKGROUND_BL"}]},"useCastShadows":true}},"name":"Verge3D_Environment_World"}],"meshes":[{"extensions":{"S8S_v3d_mesh":{"colorLayers":{"snow":"COLOR_0"},"uvLayers":{"UVMap":"TEXCOORD_0"}}},"name":"Cylinder","primitives":[{"attributes":{"COLOR_0":4,"NORMAL":2,"POSITION":1,"TEXCOORD_0":3},"indices":0,"material":0,"mode":4},{"attributes":{"COLOR_0":9,"NORMAL":7,"POSITION":6,"TEXCOORD_0":8},"indices":5,"material":1,"mode":4}]},{"extensions":{"S8S_v3d_mesh":{"colorLayers":{"snow":"COLOR_0"},"uvLayers":{"UVMap":"TEXCOORD_0"}}},"name":"Cylinder.001","primitives":[{"attributes":{"COLOR_0":14,"NORMAL":12,"POSITION":11,"TEXCOORD_0":13},"indices":10,"material":0,"mode":4},{"attributes":{"COLOR_0":19,"NORMAL":17,"POSITION":16,"TEXCOORD_0":18},"indices":15,"material":1,"mode":4}]},{"extensions":{"S8S_v3d_mesh":{"colorLayers":{"snow":"COLOR_0"},"uvLayers":{"UVMap":"TEXCOORD_0"}}},"name":"Cylinder.002","primitives":[{"attributes":{"COLOR_0":24,"NORMAL":22,"POSITION":21,"TEXCOORD_0":23},"indices":20,"material":0,"mode":4},{"attributes":{"COLOR_0":29,"NORMAL":27,"POSITION":26,"TEXCOORD_0":28},"indices":25,"material":1,"mode":4}]},{"extensions":{"S8S_v3d_mesh":{"colorLayers":{"snow":"COLOR_0"},"uvLayers":{"UVMap":"TEXCOORD_0"}}},"name":"Cylinder.003","primitives":[{"attributes":{"COLOR_0":34,"NORMAL":32,"POSITION":31,"TEXCOORD_0":33},"indices":30,"material":0,"mode":4},{"attributes":{"COLOR_0":39,"NORMAL":37,"POSITION":36,"TEXCOORD_0":38},"indices":35,"material":1,"mode":4}]}],"nodes":[{"extensions":{"S8S_v3d_node":{"frustumCulling":true,"groupNames":["trees"],"hidden":false,"hidpiCompositing":false,"objectColor":[1.0,1.0,1.0,1.0],"objectIndex":0,"renderOrder":0,"useShadows":true}},"mesh":0,"name":"pine_1"},{"extensions":{"S8S_v3d_node":{"frustumCulling":true,"groupNames":["trees"],"hidden":false,"hidpiCompositing":false,"objectColor":[1.0,1.0,1.0,1.0],"objectIndex":0,"renderOrder":0,"useShadows":true}},"mesh":1,"name":"pine_2"},{"extensions":{"S8S_v3d_node":{"frustumCulling":true,"groupNames":["trees"],"hidden":false,"hidpiCompositing":false,"objectColor":[1.0,1.0,1.0,1.0],"objectIndex":0,"renderOrder":0,"useShadows":true}},"mesh":2,"name":"pine_3"},{"extensions":{"S8S_v3d_node":{"frustumCulling":true,"groupNames":["trees"],"hidden":false,"hidpiCompositing":false,"objectColor":[1.0,1.0,1.0,1.0],"objectIndex":0,"renderOrder":0,"useShadows":true}},"mesh":3,"name":"pine_4"},{"camera":0,"name":"__DEFAULT_CAMERA__","rotation":[-0.12388649582862854,0.5242345929145813,0.07741215825080872,0.8389502763748169],"scale":[0.9999997615814209,0.9999995827674866,0.9999996423721313],"translation":[9.869925498962402,6.959593296051025,5.039151668548584]}],"samplers":[{}],"scene":0,"scenes":[{"extensions":{"S8S_v3d_scene":{"aaMethod":"AUTO","iblEnvironmentMode":"PMREM","physicallyCorrectLights":true,"pmremMaxTileSize":512,"shadowMap":{"esmDistanceScale":1.0,"renderReverseSided":false,"renderSingleSided":true,"type":"PCFPOISSON"},"toneMapping":{"type":"filmicBlender"},"worldMaterial":2}},"extras":{"animFrameRate":24,"coordSystem":"Z_UP_RIGHT"},"name":"Scene","nodes":[0,1,2,3,4]}],"textures":[{"extensions":{"KHR_texture_basisu":{"source":0},"S8S_v3d_texture":{"colorSpace":"srgb"}},"name":"pine_branches.png","sampler":0},{"extensions":{"KHR_texture_basisu":{"source":1},"S8S_v3d_texture":{"colorSpace":"srgb"}},"name":"bark.png","sampler":0},{"extensions":{"KHR_texture_basisu":{"source":2},"S8S_v3d_texture":{"colorSpace":"srgb"}},"name":"snow_tile_1.jpg","sampler":0}]}
