{"accessors":[{"bufferView":0,"componentType":5123,"count":5208,"max":[1159],"min":[0],"type":"SCALAR"},{"bufferView":1,"componentType":5126,"count":1160,"max":[1.4615020751953125,3.323958396911621,0.9999999403953552],"min":[-1.4615023136138916,-0.9692810773849487,-0.9999999403953552],"type":"VEC3"},{"bufferView":2,"componentType":5126,"count":1160,"max":[0.9999781847000122,1.0,0.9999994039535522],"min":[-0.9999901056289673,-1.0,-1.0],"type":"VEC3"},{"bufferView":3,"componentType":5126,"count":1160,"max":[0.9969305992126465,0.9969695806503296],"min":[0.0029896381311118603,0.011282026767730713],"type":"VEC2"},{"bufferView":4,"componentType":5123,"count":1160,"max":[7,2,0,0],"min":[1,0,0,0],"type":"VEC4"},{"bufferView":5,"componentType":5126,"count":1160,"max":[1.0,0.4989880323410034,0.0,0.0],"min":[0.5010119676589966,0.0,0.0,0.0],"type":"VEC4"},{"bufferView":6,"componentType":5121,"count":240,"max":[239],"min":[0],"type":"SCALAR"},{"bufferView":7,"componentType":5126,"count":240,"max":[0.58073890209198,0.9840463995933533,0.5582037568092346],"min":[-0.5869301557540894,-1.0428557395935059,-0.5582037568092346],"type":"VEC3"},{"bufferView":8,"componentType":5126,"count":240,"max":[0.9906440377235413,0.8087455034255981,0.9995677471160889],"min":[-0.9823039770126343,-0.944159746170044,-0.9995677471160889],"type":"VEC3"},{"bufferView":9,"componentType":5126,"count":240,"max":[1.0,1.0],"min":[0.0,0.5276179909706116],"type":"VEC2"},{"bufferView":10,"componentType":5126,"count":9,"max":[1.0,1.1667609214782715e-05,0.9557040333747864,0.0,0.9557041525840759,1.0000001192092896,1.4571109829830675e-07,0.0,1.0935342942275383e-07,1.000000238418579,1.0,0.0,1.475166916847229,2.0980727672576904,1.091600775718689,1.0],"min":[-1.0,-3.88721855415497e-06,-0.9557045698165894,0.0,-0.9557044506072998,-1.0000001192092896,-1.0,0.0,-5.215975420469476e-07,-1.457112261959992e-07,-1.0000001192092896,0.0,-1.4827266931533813,-0.47602346539497375,-0.27058786153793335,1.0],"type":"MAT4"},{"bufferView":11,"componentType":5126,"count":9,"max":[0.5,5.841255187988281e-06,0.4778520166873932,0.0,0.4778520166873932,0.5,1.2681965201693276e-21,0.0,4.371167605654591e-08,0.5000001788139343,0.5,0.0,0.6776852607727051,1.2596733570098877,0.589302122592926,1.0],"min":[-0.5,-1.9510598576744087e-06,-0.47785231471061707,0.0,-0.4778521955013275,-0.5,-0.4999999701976776,0.0,-3.3669252275103645e-07,-1.2681965201693276e-21,-0.5000000596046448,0.0,-0.6776849627494812,-6.715437166349147e-07,-0.4817585349082947,1.0],"type":"MAT4"},{"bufferView":12,"componentType":5126,"count":9,"max":[1.0,1.1682510375976562e-05,0.9557040333747864,0.0,0.9557040333747864,1.0,2.5363930403386553e-21,0.0,8.742335211309182e-08,1.0000003576278687,1.0,0.0,0.45056387782096863,1.0520683526992798,0.421443372964859,1.0],"min":[-1.0,-3.902119715348817e-06,-0.9557046294212341,0.0,-0.955704391002655,-1.0,-0.9999999403953552,0.0,-6.733850455020729e-07,-2.5363930403386553e-21,-1.0000001192092896,0.0,-0.4505421221256256,-2.7292617232888006e-07,-1.0520683526992798,1.0],"type":"MAT4"},{"bufferView":13,"componentType":5126,"count":3,"max":[1.9166666269302368],"min":[0.9583333134651184],"type":"SCALAR"},{"bufferView":14,"componentType":5126,"count":3,"max":[0.0,0.0,-0.0],"min":[0.0,0.0,-0.0],"type":"VEC3"},{"bufferView":15,"componentType":5126,"count":3,"max":[1.9166666269302368],"min":[0.9583333134651184],"type":"SCALAR"},{"bufferView":16,"componentType":5126,"count":3,"max":[5.841255187988281e-06,1.0,1.2681965201693276e-21,0.0],"min":[5.841255187988281e-06,1.0,1.2681965201693276e-21,0.0],"type":"VEC4"},{"bufferView":17,"componentType":5126,"count":3,"max":[1.9166666269302368],"min":[0.9583333134651184],"type":"SCALAR"},{"bufferView":18,"componentType":5126,"count":3,"max":[1.0,1.0,1.0],"min":[1.0,1.0,1.0],"type":"VEC3"},{"bufferView":19,"componentType":5126,"count":60,"max":[2.2916667461395264],"min":[0.0416666679084301],"type":"SCALAR"},{"bufferView":20,"componentType":5126,"count":60,"max":[2.4534454041713616e-06,0.21001014113426208,1.3186131381147563e-21],"min":[-3.370873628227855e-06,-0.28854018449783325,-7.318464313691573e-22],"type":"VEC3"},{"bufferView":21,"componentType":5126,"count":64,"max":[2.2916667461395264],"min":[0.0416666679084301],"type":"SCALAR"},{"bufferView":22,"componentType":5126,"count":64,"max":[-3.7444117424456635e-06,0.7071067690849304,0.7714687585830688,0.0664227306842804],"min":[-0.06642269343137741,-0.7147421836853027,-0.7071067690849304,4.058025751874084e-06],"type":"VEC4"},{"bufferView":23,"componentType":5126,"count":26,"max":[2.2916667461395264],"min":[0.0416666679084301],"type":"SCALAR"},{"bufferView":24,"componentType":5126,"count":26,"max":[1.0,1.0,1.2536126375198364],"min":[1.0,1.0,0.10244936496019363],"type":"VEC3"},{"bufferView":25,"componentType":5126,"count":8,"max":[2.2916667461395264],"min":[0.0416666679084301],"type":"SCALAR"},{"bufferView":26,"componentType":5126,"count":8,"max":[2.1956682179607567e-20,-3.4370669640479484e-27,-0.7349600195884705],"min":[2.1956682179607567e-20,-3.4370669640479484e-27,-0.7349600195884705],"type":"VEC3"},{"bufferView":27,"componentType":5126,"count":34,"max":[2.2916667461395264],"min":[0.9583333134651184],"type":"SCALAR"},{"bufferView":28,"componentType":5126,"count":34,"max":[0.13363595306873322,0.021671505644917488,0.45026689767837524,1.0],"min":[-0.10852023959159851,-0.39532122015953064,-0.1557089388370514,0.8860815167427063],"type":"VEC4"},{"bufferView":29,"componentType":5126,"count":7,"max":[2.2916667461395264],"min":[0.9583333134651184],"type":"SCALAR"},{"bufferView":30,"componentType":5126,"count":7,"max":[1.0,1.0,1.0],"min":[0.9999999403953552,1.0,0.9999999403953552],"type":"VEC3"},{"bufferView":31,"componentType":5126,"count":103,"max":[2.5],"min":[0.0416666679084301],"type":"SCALAR"},{"bufferView":32,"componentType":5126,"count":103,"max":[2.4237944671767764e-05,2.0747203826904297,0.2677607536315918],"min":[-1.3895214796066284,-0.425805926322937,-0.556942343711853],"type":"VEC3"},{"bufferView":33,"componentType":5126,"count":108,"max":[2.5],"min":[0.0416666679084301],"type":"SCALAR"},{"bufferView":34,"componentType":5126,"count":108,"max":[0.33480194211006165,0.06507915258407593,1.0,0.6175415515899658],"min":[-0.09217661619186401,-0.06601771712303162,-0.9999996423721313,2.4785176719888113e-06],"type":"VEC4"},{"bufferView":35,"componentType":5126,"count":39,"max":[2.5],"min":[0.0416666679084301],"type":"SCALAR"},{"bufferView":36,"componentType":5126,"count":39,"max":[1.0,1.2707452774047852,1.0],"min":[0.9999999403953552,0.2916296720504761,0.9999999403953552],"type":"VEC3"},{"bufferView":37,"componentType":5126,"count":77,"max":[2.5],"min":[0.0416666679084301],"type":"SCALAR"},{"bufferView":38,"componentType":5126,"count":77,"max":[0.20694202184677124,1.383715271949768,0.11245939135551453],"min":[-1.9815380573272705,-0.40515977144241333,-0.1767222136259079],"type":"VEC3"},{"bufferView":39,"componentType":5126,"count":43,"max":[2.5],"min":[0.0416666679084301],"type":"SCALAR"},{"bufferView":40,"componentType":5126,"count":43,"max":[-0.1775093525648117,0.7072498202323914,-0.03852611780166626,0.7519267201423645],"min":[-0.6275903582572937,0.3137737512588501,-0.625652551651001,0.07854194194078445],"type":"VEC4"},{"bufferView":41,"componentType":5126,"count":53,"max":[2.5],"min":[0.0416666679084301],"type":"SCALAR"},{"bufferView":42,"componentType":5126,"count":53,"max":[0.9999999403953552,0.9999998807907104,1.1976238489151],"min":[0.9999998211860657,0.9999997615814209,0.7841953635215759],"type":"VEC3"},{"bufferView":43,"componentType":5126,"count":59,"max":[2.2916667461395264],"min":[0.0416666679084301],"type":"SCALAR"},{"bufferView":44,"componentType":5126,"count":59,"max":[1.4852817058563232,1.3887757062911987,0.44309452176094055],"min":[-0.21131014823913574,-0.40931400656700134,-0.9093965291976929],"type":"VEC3"},{"bufferView":45,"componentType":5126,"count":43,"max":[2.2916667461395264],"min":[0.0416666679084301],"type":"SCALAR"},{"bufferView":46,"componentType":5126,"count":43,"max":[-0.05765814334154129,-0.2625318169593811,0.704748272895813,0.8172252774238586],"min":[-0.5898911952972412,-0.6913168430328369,0.026016592979431152,0.11594269424676895],"type":"VEC4"},{"bufferView":47,"componentType":5126,"count":52,"max":[2.2916667461395264],"min":[0.0416666679084301],"type":"SCALAR"},{"bufferView":48,"componentType":5126,"count":52,"max":[1.0000003576278687,1.0000001192092896,1.153579831123352],"min":[1.0,1.0,0.7878093719482422],"type":"VEC3"},{"bufferView":49,"componentType":5126,"count":67,"max":[2.2916667461395264],"min":[0.0416666679084301],"type":"SCALAR"},{"bufferView":50,"componentType":5126,"count":67,"max":[-0.4505515992641449,0.3006398677825928,0.3222581148147583],"min":[-0.7780723571777344,-0.505874752998352,0.11875990778207779],"type":"VEC3"},{"bufferView":51,"componentType":5126,"count":78,"max":[2.2916667461395264],"min":[0.0416666679084301],"type":"SCALAR"},{"bufferView":52,"componentType":5126,"count":78,"max":[5.318574494594941e-06,0.4552595019340515,0.10037019103765488,1.0],"min":[8.515711896036227e-32,-1.6943663734828764e-32,-1.8348534497336644e-12,0.8903588056564331],"type":"VEC4"},{"bufferView":53,"componentType":5126,"count":44,"max":[2.2916667461395264],"min":[0.0416666679084301],"type":"SCALAR"},{"bufferView":54,"componentType":5126,"count":44,"max":[1.0,1.3209571838378906,1.0],"min":[0.9999999403953552,0.7482637763023376,0.9999999403953552],"type":"VEC3"},{"bufferView":55,"componentType":5126,"count":55,"max":[2.2916667461395264],"min":[0.0416666679084301],"type":"SCALAR"},{"bufferView":56,"componentType":5126,"count":55,"max":[0.6459174156188965,0.2812054753303528,0.11875993013381958],"min":[0.4398439824581146,-0.5058852434158325,-0.20255297422409058],"type":"VEC3"},{"bufferView":57,"componentType":5126,"count":88,"max":[2.2916667461395264],"min":[0.0416666679084301],"type":"SCALAR"},{"bufferView":58,"componentType":5126,"count":88,"max":[8.654346761036331e-32,1.7890528842519932e-32,-8.760045098164804e-13,1.0],"min":[-7.166664722606242e-13,-0.26886770129203796,-0.10125383734703064,0.9631771445274353],"type":"VEC4"},{"bufferView":59,"componentType":5126,"count":44,"max":[2.2916667461395264],"min":[0.0416666679084301],"type":"SCALAR"},{"bufferView":60,"componentType":5126,"count":44,"max":[1.0,1.1261330842971802,0.9999999403953552],"min":[0.9999999403953552,0.7482637763023376,0.9999999403953552],"type":"VEC3"}],"animations":[{"channels":[{"sampler":0,"target":{"node":8,"path":"translation"}},{"sampler":1,"target":{"node":8,"path":"rotation"}},{"sampler":2,"target":{"node":8,"path":"scale"}},{"sampler":3,"target":{"node":9,"path":"scale"}},{"sampler":4,"target":{"node":9,"path":"translation"}},{"sampler":5,"target":{"node":9,"path":"rotation"}},{"sampler":6,"target":{"node":10,"path":"translation"}},{"sampler":7,"target":{"node":10,"path":"rotation"}},{"sampler":8,"target":{"node":10,"path":"scale"}},{"sampler":9,"target":{"node":11,"path":"rotation"}},{"sampler":10,"target":{"node":11,"path":"translation"}},{"sampler":11,"target":{"node":11,"path":"scale"}},{"sampler":12,"target":{"node":12,"path":"scale"}},{"sampler":13,"target":{"node":12,"path":"rotation"}},{"sampler":14,"target":{"node":12,"path":"translation"}},{"sampler":15,"target":{"node":13,"path":"scale"}},{"sampler":16,"target":{"node":13,"path":"rotation"}},{"sampler":17,"target":{"node":13,"path":"translation"}},{"sampler":18,"target":{"node":14,"path":"translation"}},{"sampler":19,"target":{"node":14,"path":"rotation"}},{"sampler":20,"target":{"node":14,"path":"scale"}},{"sampler":21,"target":{"node":15,"path":"translation"}},{"sampler":22,"target":{"node":15,"path":"rotation"}},{"sampler":23,"target":{"node":15,"path":"scale"}}],"extensions":{"S8S_v3d_animation":{"auto":false,"loop":"ONCE","offset":0.0,"repeatCount":1.0,"repeatInfinite":true}},"name":"snowman_armature","samplers":[{"input":13,"interpolation":"LINEAR","output":14},{"input":15,"interpolation":"LINEAR","output":16},{"input":17,"interpolation":"LINEAR","output":18},{"input":23,"interpolation":"LINEAR","output":24},{"input":19,"interpolation":"LINEAR","output":20},{"input":21,"interpolation":"LINEAR","output":22},{"input":25,"interpolation":"LINEAR","output":26},{"input":27,"interpolation":"LINEAR","output":28},{"input":29,"interpolation":"LINEAR","output":30},{"input":33,"interpolation":"LINEAR","output":34},{"input":31,"interpolation":"LINEAR","output":32},{"input":35,"interpolation":"LINEAR","output":36},{"input":41,"interpolation":"LINEAR","output":42},{"input":39,"interpolation":"LINEAR","output":40},{"input":37,"interpolation":"LINEAR","output":38},{"input":47,"interpolation":"LINEAR","output":48},{"input":45,"interpolation":"LINEAR","output":46},{"input":43,"interpolation":"LINEAR","output":44},{"input":49,"interpolation":"LINEAR","output":50},{"input":51,"interpolation":"LINEAR","output":52},{"input":53,"interpolation":"LINEAR","output":54},{"input":55,"interpolation":"LINEAR","output":56},{"input":57,"interpolation":"LINEAR","output":58},{"input":59,"interpolation":"LINEAR","output":60}]}],"asset":{"generator":"Verge3D for Blender v4.6.0","version":"2.0"},"bufferViews":[{"buffer":0,"byteLength":10416,"byteOffset":0,"target":34963},{"buffer":0,"byteLength":13920,"byteOffset":10416,"target":34962},{"buffer":0,"byteLength":13920,"byteOffset":24336,"target":34962},{"buffer":0,"byteLength":9280,"byteOffset":38256,"target":34962},{"buffer":0,"byteLength":9280,"byteOffset":47536,"target":34962},{"buffer":0,"byteLength":18560,"byteOffset":56816,"target":34962},{"buffer":0,"byteLength":240,"byteOffset":75376,"target":34963},{"buffer":0,"byteLength":2880,"byteOffset":75616,"target":34962},{"buffer":0,"byteLength":2880,"byteOffset":78496,"target":34962},{"buffer":0,"byteLength":1920,"byteOffset":81376,"target":34962},{"buffer":0,"byteLength":576,"byteOffset":83296},{"buffer":0,"byteLength":576,"byteOffset":83872},{"buffer":0,"byteLength":576,"byteOffset":84448},{"buffer":0,"byteLength":12,"byteOffset":85024},{"buffer":0,"byteLength":36,"byteOffset":85036},{"buffer":0,"byteLength":12,"byteOffset":85072},{"buffer":0,"byteLength":48,"byteOffset":85084},{"buffer":0,"byteLength":12,"byteOffset":85132},{"buffer":0,"byteLength":36,"byteOffset":85144},{"buffer":0,"byteLength":240,"byteOffset":85180},{"buffer":0,"byteLength":720,"byteOffset":85420},{"buffer":0,"byteLength":256,"byteOffset":86140},{"buffer":0,"byteLength":1024,"byteOffset":86396},{"buffer":0,"byteLength":104,"byteOffset":87420},{"buffer":0,"byteLength":312,"byteOffset":87524},{"buffer":0,"byteLength":32,"byteOffset":87836},{"buffer":0,"byteLength":96,"byteOffset":87868},{"buffer":0,"byteLength":136,"byteOffset":87964},{"buffer":0,"byteLength":544,"byteOffset":88100},{"buffer":0,"byteLength":28,"byteOffset":88644},{"buffer":0,"byteLength":84,"byteOffset":88672},{"buffer":0,"byteLength":412,"byteOffset":88756},{"buffer":0,"byteLength":1236,"byteOffset":89168},{"buffer":0,"byteLength":432,"byteOffset":90404},{"buffer":0,"byteLength":1728,"byteOffset":90836},{"buffer":0,"byteLength":156,"byteOffset":92564},{"buffer":0,"byteLength":468,"byteOffset":92720},{"buffer":0,"byteLength":308,"byteOffset":93188},{"buffer":0,"byteLength":924,"byteOffset":93496},{"buffer":0,"byteLength":172,"byteOffset":94420},{"buffer":0,"byteLength":688,"byteOffset":94592},{"buffer":0,"byteLength":212,"byteOffset":95280},{"buffer":0,"byteLength":636,"byteOffset":95492},{"buffer":0,"byteLength":236,"byteOffset":96128},{"buffer":0,"byteLength":708,"byteOffset":96364},{"buffer":0,"byteLength":172,"byteOffset":97072},{"buffer":0,"byteLength":688,"byteOffset":97244},{"buffer":0,"byteLength":208,"byteOffset":97932},{"buffer":0,"byteLength":624,"byteOffset":98140},{"buffer":0,"byteLength":268,"byteOffset":98764},{"buffer":0,"byteLength":804,"byteOffset":99032},{"buffer":0,"byteLength":312,"byteOffset":99836},{"buffer":0,"byteLength":1248,"byteOffset":100148},{"buffer":0,"byteLength":176,"byteOffset":101396},{"buffer":0,"byteLength":528,"byteOffset":101572},{"buffer":0,"byteLength":220,"byteOffset":102100},{"buffer":0,"byteLength":660,"byteOffset":102320},{"buffer":0,"byteLength":352,"byteOffset":102980},{"buffer":0,"byteLength":1408,"byteOffset":103332},{"buffer":0,"byteLength":176,"byteOffset":104740},{"buffer":0,"byteLength":528,"byteOffset":104916}],"buffers":[{"byteLength":105444,"uri":"enemy.bin"}],"cameras":[{"extensions":{"S8S_v3d_camera":{"controls":"ORBIT","enablePan":true,"moveSpeed":1,"orbitMaxDistance":10000,"orbitMaxPolarAngle":3.141592653589793,"orbitMinDistance":0,"orbitMinPolarAngle":0,"orbitTarget":[0.11478914320468903,1.2284220457077026,-0.06659358739852905],"rotateSpeed":1,"viewportFitInitialAspect":1,"viewportFitType":"VERTICAL"}},"name":"__DEFAULT__","perspective":{"aspectRatio":1,"yfov":0.7853981633974483,"zfar":1000.0,"znear":0.009999999776482582},"type":"perspective"}],"extensions":{"S8S_v3d_lights":{"lights":[{"color":[1.0,1.0,1.0],"intensity":2.0,"name":"Sun","profile":"blender","shadow":{"bias":-0.0018,"cameraFar":100,"cameraFov":0,"cameraNear":0.1,"csm":{"count":1,"exponent":0.800000011920929,"fade":0.10000000149011612,"lightMargin":0.0,"maxDistance":5.0},"enabled":true,"expBias":2.5,"mapSize":1024,"radius":1.0,"slopeScaledBias":2.5},"type":"directional"}]},"S8S_v3d_materials":{"nodeGraphs":[{"edges":[{"fromNode":2,"fromOutput":2,"toInput":0,"toNode":1},{"fromNode":4,"fromOutput":0,"toInput":0,"toNode":5},{"fromNode":3,"fromOutput":0,"toInput":6,"toNode":2},{"fromNode":0,"fromOutput":2,"toInput":7,"toNode":2},{"fromNode":5,"fromOutput":0,"toInput":0,"toNode":0}],"name":"shadow","nodes":[{"blendType":"MIX","clampFactor":true,"clampResult":false,"dataType":"RGBA","factorMode":"UNIFORM","inputs":[0.5,[0.5,0.5,0.5],0.0,0.0,[0.0,0.0,0.0],[0.0,0.0,0.0],[0.19781818985939026,0.5121480226516724,0.8134249448776245,1.0],[1.0,1.0,1.0,1.0],0,0],"is_active_output":false,"name":"Mix.001","outputs":[0.0,[0.0,0.0,0.0],[0.0,0.0,0.0,0.0],0],"type":"MIX_BL"},{"inputs":[[0.0,0.0,0.0,0.0]],"is_active_output":true,"name":"Group Output","outputs":[],"type":"GROUP_OUTPUT_BL"},{"blendType":"MULTIPLY","clampFactor":true,"clampResult":false,"dataType":"RGBA","factorMode":"UNIFORM","inputs":[1.0,[0.5,0.5,0.5],0.0,0.0,[0.0,0.0,0.0],[0.0,0.0,0.0],[0.5,0.5,0.5,1.0],[0.5,0.5,0.5,1.0],0,0],"is_active_output":false,"name":"Mix","outputs":[0.0,[0.0,0.0,0.0],[0.0,0.0,0.0,0.0],0],"type":"MIX_BL"},{"inputs":[],"is_active_output":false,"name":"Group Input","outputs":[[0.5,0.5,0.5,1.0]],"type":"GROUP_INPUT_BL"},{"inputs":[[1.0,1.0,1.0,1.0],0.0,[0.0,0.0,0.0]],"is_active_output":false,"name":"Diffuse BSDF.001","outputs":[[0,0,0,0]],"type":"BSDF_DIFFUSE_BL"},{"inputs":[[0,0,0,0]],"is_active_output":false,"name":"Shader to RGB","outputs":[[0.0,0.0,0.0,0.0],0.0],"type":"SHADERTORGB_BL"}]}]}},"extensionsUsed":["KHR_texture_basisu","S8S_v3d_texture","S8S_v3d_materials","S8S_v3d_camera","S8S_v3d_lights","S8S_v3d_mesh","S8S_v3d_node","S8S_v3d_animation","S8S_v3d_scene"],"images":[{"uri":"snowman.ktx2"}],"materials":[{"extensions":{"S8S_v3d_materials":{"gtaoVisible":true,"materialIndex":0,"nodeGraph":{"edges":[{"fromNode":4,"fromOutput":0,"toInput":6,"toNode":2},{"fromNode":1,"fromOutput":0,"toInput":0,"toNode":0},{"fromNode":2,"fromOutput":2,"toInput":0,"toNode":1},{"fromNode":3,"fromOutput":0,"toInput":0,"toNode":2}],"nodes":[{"inputs":[[0,0,0,0],[0,0,0,0],[0.0,0.0,0.0],0.0],"is_active_output":true,"name":"Material Output","outputs":[],"type":"OUTPUT_MATERIAL_BL"},{"inputs":[[0.5,0.5,0.5,1.0]],"is_active_output":false,"name":"Group","nodeGraph":0,"outputs":[[0.0,0.0,0.0,0.0]],"type":"GROUP_BL"},{"blendType":"MIX","clampFactor":true,"clampResult":false,"dataType":"RGBA","factorMode":"UNIFORM","inputs":[1.0,[0.5,0.5,0.5],0.0,0.0,[0.0,0.0,0.0],[0.0,0.0,0.0],[0.5,0.5,0.5,1.0],[1.0,1.0,1.0,1.0],0,0],"is_active_output":false,"name":"Mix","outputs":[0.0,[0.0,0.0,0.0],[0.0,0.0,0.0,0.0],0],"type":"MIX_BL"},{"inputs":[],"is_active_output":false,"name":"Value","outputs":[0.0],"type":"VALUE_BL"},{"alphaMode":"STRAIGHT","inputs":[[0.0,0.0,0.0]],"is_active_output":false,"name":"Image Texture","outputs":[[0.0,0.0,0.0,0.0],0.0],"projection":"FLAT","projectionBlend":0.0,"texture":0,"type":"TEX_IMAGE_BL"}]},"useCastShadows":true}},"name":"snowman"},{"extensions":{"S8S_v3d_materials":{"gtaoVisible":true,"materialIndex":0,"nodeGraph":{"edges":[{"fromNode":1,"fromOutput":0,"toInput":0,"toNode":0}],"nodes":[{"inputs":[[0,0,0,0],[0,0,0,0]],"is_active_output":true,"name":"World Output","outputs":[],"type":"OUTPUT_WORLD_BL"},{"inputs":[[0.05087608844041824,0.05087608844041824,0.05087608844041824,1.0],1.0],"is_active_output":false,"name":"Background","outputs":[[0,0,0,0]],"type":"BACKGROUND_BL"}]},"useCastShadows":true}},"name":"Verge3D_Environment_World"},{"extensions":{"S8S_v3d_materials":{"nodeGraph":{"edges":[{"fromNode":1,"fromOutput":0,"toInput":0,"toNode":0}],"nodes":[{"inputs":[[0,0,0,0],[0,0,0,0],[0,0,0]],"is_active_output":true,"name":"Material Output","outputs":[],"type":"OUTPUT_MATERIAL_BL"},{"inputs":[[0.800000011920929,0.800000011920929,0.800000011920929,1.0],0.0,[0.0,0.0,0.0]],"is_active_output":false,"name":"Diffuse BSDF","outputs":[[0,0,0,0]],"type":"BSDF_DIFFUSE_BL"}]},"useCastShadows":true,"useShadows":true}},"name":"v3d_default_material"}],"meshes":[{"extensions":{"S8S_v3d_mesh":{"colorLayers":{},"uvLayers":{"UVMap":"TEXCOORD_0"}}},"name":"Icosphere","primitives":[{"attributes":{"JOINTS_0":4,"NORMAL":2,"POSITION":1,"TEXCOORD_0":3,"WEIGHTS_0":5},"indices":0,"material":0,"mode":4}]},{"extensions":{"S8S_v3d_mesh":{"colorLayers":{},"uvLayers":{}}},"name":"Icosphere.001","primitives":[{"attributes":{"NORMAL":8,"POSITION":7,"TEXCOORD_0":9},"indices":6,"material":2,"mode":4}]}],"nodes":[{"extensions":{"S8S_v3d_node":{"frustumCulling":true,"groupNames":["snowman"],"hidden":false,"hidpiCompositing":false,"objectColor":[1.0,1.0,1.0,1.0],"objectIndex":0,"renderOrder":0,"useShadows":true}},"mesh":0,"name":"snowman","scale":[0.5,0.5,0.5],"skin":1,"translation":[0.0,0.4817585349082947,-0.0]},{"extensions":{"S8S_v3d_node":{"frustumCulling":true,"groupNames":["snowman"],"hidden":false,"hidpiCompositing":false,"objectColor":[1.0,1.0,1.0,1.0],"objectIndex":0,"renderOrder":0}},"name":"enemy_weapon_place","translation":[-0.5403521060943604,1.3555487394332886,0.1518281102180481]},{"children":[1],"name":"v3d_Proxy_Node_0_enemy_weapon_place","rotation":[-0.5688428282737732,-0.4200211763381958,-0.4200209677219391,0.5688431262969971],"scale":[0.9999998807907104,0.9999999403953552,1.0],"translation":[-1.1381034851074219,-8.386776357838244e-07,1.0870591402053833]},{"children":[2],"name":"v3d_Proxy_Node_1_enemy_weapon_place","translation":[0.0,0.0,-0.355961412191391]},{"extensions":{"S8S_v3d_node":{"frustumCulling":true,"groupNames":["snowman"],"hidden":true,"hidpiCompositing":false,"objectColor":[1.0,1.0,1.0,1.0],"objectIndex":0,"renderOrder":0,"useShadows":true}},"mesh":1,"name":"snowman_collision","translation":[0.0,1.0520683526992798,-0.0]},{"children":[0,4,8],"extensions":{"S8S_v3d_node":{"frustumCulling":true,"groupNames":["snowman"],"hidden":false,"hidpiCompositing":false,"objectColor":[1.0,1.0,1.0,1.0],"objectIndex":0,"renderOrder":0}},"name":"snowman_armature","scale":[1.0000001192092896,1.0,1.0000001192092896],"translation":[8.881784197001252e-16,0.0,-2.7755575615628914e-17]},{"extensions":{"S8S_v3d_node":{"frustumCulling":true,"groupNames":["snowman"],"hidden":false,"hidpiCompositing":false,"objectColor":[1.0,1.0,1.0,1.0],"objectIndex":0,"renderOrder":0}},"name":"enemy_right_hand_center","translation":[-2.0,0.0,-0.0]},{"camera":0,"name":"__DEFAULT_CAMERA__","rotation":[-0.1029428169131279,-0.30060070753097534,-0.032655127346515656,0.9476158022880554],"scale":[0.9999999403953552,0.9999998211860657,0.9999998211860657],"translation":[-1.7587194442749023,1.9430127143859863,2.5892810821533203]},{"children":[9,11,12,13,14,15],"name":"snowman_armature_root","rotation":[5.841255187988281e-06,1.0,1.2681965201693276e-21,0.0]},{"children":[10],"name":"snowman_armature_body_bottom","rotation":[-4.161300239502452e-06,-0.7071067690849304,0.7071067690849304,4.099482794117648e-06],"scale":[1.0,1.0,0.10244936496019363],"translation":[-3.370873628227855e-06,-0.28854018449783325,-7.318464313691573e-22]},{"name":"snowman_armature_body_top","rotation":[-2.051186906811592e-20,-4.547473508864641e-13,-4.371167960925959e-08,1.0],"translation":[2.1956682179607567e-20,-3.4370669640479484e-27,-0.7349600195884705]},{"name":"snowman_armature_head","rotation":[-3.851859888774472e-34,-2.890634648220071e-32,1.0,3.8901953303138725e-06],"scale":[1.0,0.2916296720504761,1.0],"translation":[-1.0774790098366793e-05,-0.425805926322937,-9.267190361354268e-21]},{"name":"snowman_armature_hand.L","rotation":[-0.4200179874897003,0.5688454508781433,-0.5688453912734985,0.42001771926879883],"scale":[0.9999998211860657,0.9999998807907104,0.9999997019767761],"translation":[0.1798110008239746,-0.40515977144241333,3.104186703239975e-07]},{"children":[3],"name":"snowman_armature_hand.R","rotation":[-0.42002415657043457,-0.568840742111206,0.5688403248786926,0.42002448439598083],"scale":[1.0000001192092896,1.0,1.0000001192092896],"translation":[-0.16377800703048706,-0.40931400656700134,8.259509343133686e-08]},{"name":"snowman_armature_foot.L","rotation":[8.654233913578652e-32,3.87326123279913e-34,-9.094947017729282e-13,1.0],"scale":[1.0,1.0,0.9999999403953552],"translation":[-0.4505566954612732,-0.3166901171207428,0.11875993013381958]},{"name":"snowman_armature_foot.R","rotation":[8.654233913578652e-32,3.87326123279913e-34,-9.094947017729282e-13,1.0],"scale":[1.0,1.0,0.9999999403953552],"translation":[0.45054930448532104,-0.31670063734054565,0.11875993013381958]}],"samplers":[{}],"scene":0,"scenes":[{"extensions":{"S8S_v3d_scene":{"aaMethod":"AUTO","iblEnvironmentMode":"PMREM","physicallyCorrectLights":true,"pmremMaxTileSize":512,"shadowMap":{"esmDistanceScale":1.0,"renderReverseSided":false,"renderSingleSided":true,"type":"PCFPOISSON"},"toneMapping":{"type":"filmicBlender"},"worldMaterial":1}},"extras":{"animFrameRate":24,"coordSystem":"Z_UP_RIGHT"},"name":"Scene","nodes":[5,6,7]}],"skins":[{"inverseBindMatrices":10,"joints":[8,9,10,11,12,13,14,15,5],"skeleton":5},{"inverseBindMatrices":11,"joints":[8,9,10,11,12,13,14,15,5],"skeleton":5},{"inverseBindMatrices":12,"joints":[8,9,10,11,12,13,14,15,5],"skeleton":5}],"textures":[{"extensions":{"KHR_texture_basisu":{"source":0},"S8S_v3d_texture":{"colorSpace":"srgb"}},"name":"snowman.jpg","sampler":0}]}
