{"accessors":[{"bufferView":0,"componentType":5121,"count":876,"max":[201],"min":[0],"type":"SCALAR"},{"bufferView":1,"componentType":5126,"count":202,"max":[10.0,0.039787620306015015,10.0],"min":[-10.0,-5.2455973625183105,-10.0],"type":"VEC3"},{"bufferView":2,"componentType":5126,"count":202,"max":[0.9884364604949951,1.0,0.9735503792762756],"min":[-0.9961678981781006,-0.999761164188385,-0.9788221716880798],"type":"VEC3"},{"bufferView":3,"componentType":5126,"count":202,"max":[1.0178077220916748,1.02754545211792],"min":[-0.02710050344467163,-0.027545571327209473],"type":"VEC2"},{"bufferView":4,"componentType":5121,"count":36,"max":[23],"min":[0],"type":"SCALAR"},{"bufferView":5,"componentType":5126,"count":24,"max":[2.0461127758026123,2.800670623779297,1.9686627388000488],"min":[-2.0461127758026123,0.0,-1.9686627388000488],"type":"VEC3"},{"bufferView":6,"componentType":5126,"count":24,"max":[1.0,1.0,1.0],"min":[-1.0,-1.0,-1.0],"type":"VEC3"},{"bufferView":7,"componentType":5126,"count":24,"max":[1.0,1.0],"min":[0.0,0.0],"type":"VEC2"},{"bufferView":8,"componentType":5126,"count":3,"max":[4.125],"min":[0.0],"type":"SCALAR"},{"bufferView":9,"componentType":5126,"count":3,"max":[-0.0,0.9119249582290649,-0.0,1.0],"min":[-0.0,0.0,-0.0,-0.9999619126319885],"type":"VEC4"}],"animations":[{"channels":[{"sampler":0,"target":{"node":1,"path":"rotation"}}],"extensions":{"S8S_v3d_animation":{"auto":false,"loop":"REPEAT","offset":0.0,"repeatCount":1.0,"repeatInfinite":true}},"name":"weapon_spawn_place_2","samplers":[{"input":8,"interpolation":"LINEAR","output":9}]}],"asset":{"generator":"Verge3D for Blender v4.6.0","version":"2.0"},"bufferViews":[{"buffer":0,"byteLength":876,"byteOffset":0,"target":34963},{"buffer":0,"byteLength":2424,"byteOffset":876,"target":34962},{"buffer":0,"byteLength":2424,"byteOffset":3300,"target":34962},{"buffer":0,"byteLength":1616,"byteOffset":5724,"target":34962},{"buffer":0,"byteLength":36,"byteOffset":7340,"target":34963},{"buffer":0,"byteLength":288,"byteOffset":7376,"target":34962},{"buffer":0,"byteLength":288,"byteOffset":7664,"target":34962},{"buffer":0,"byteLength":192,"byteOffset":7952,"target":34962},{"buffer":0,"byteLength":12,"byteOffset":8144},{"buffer":0,"byteLength":48,"byteOffset":8156}],"buffers":[{"byteLength":8204,"uri":"tile_2.bin"}],"cameras":[{"extensions":{"S8S_v3d_camera":{"controls":"ORBIT","enablePan":true,"moveSpeed":1,"orbitMaxDistance":10000,"orbitMaxPolarAngle":3.141592653589793,"orbitMinDistance":0,"orbitMinPolarAngle":0,"orbitTarget":[3.05102276802063,-1.0597665309906006,0.534385621547699],"rotateSpeed":1,"viewportFitInitialAspect":1,"viewportFitType":"VERTICAL"}},"name":"__DEFAULT__","perspective":{"aspectRatio":1,"yfov":0.7853981633974483,"zfar":1000.0,"znear":0.009999999776482582},"type":"perspective"}],"extensions":{"S8S_v3d_materials":{"nodeGraphs":[{"edges":[{"fromNode":2,"fromOutput":2,"toInput":0,"toNode":1},{"fromNode":4,"fromOutput":0,"toInput":0,"toNode":5},{"fromNode":3,"fromOutput":0,"toInput":6,"toNode":2},{"fromNode":0,"fromOutput":2,"toInput":7,"toNode":2},{"fromNode":5,"fromOutput":0,"toInput":0,"toNode":0}],"name":"shadow","nodes":[{"blendType":"MIX","clampFactor":true,"clampResult":false,"dataType":"RGBA","factorMode":"UNIFORM","inputs":[0.5,[0.5,0.5,0.5],0.0,0.0,[0.0,0.0,0.0],[0.0,0.0,0.0],[0.19781818985939026,0.5121480226516724,0.8134249448776245,1.0],[1.0,1.0,1.0,1.0],0,0],"is_active_output":false,"name":"Mix.001","outputs":[0.0,[0.0,0.0,0.0],[0.0,0.0,0.0,0.0],0],"type":"MIX_BL"},{"inputs":[[0.0,0.0,0.0,0.0]],"is_active_output":true,"name":"Group Output","outputs":[],"type":"GROUP_OUTPUT_BL"},{"blendType":"MULTIPLY","clampFactor":true,"clampResult":false,"dataType":"RGBA","factorMode":"UNIFORM","inputs":[1.0,[0.5,0.5,0.5],0.0,0.0,[0.0,0.0,0.0],[0.0,0.0,0.0],[0.5,0.5,0.5,1.0],[0.5,0.5,0.5,1.0],0,0],"is_active_output":false,"name":"Mix","outputs":[0.0,[0.0,0.0,0.0],[0.0,0.0,0.0,0.0],0],"type":"MIX_BL"},{"inputs":[],"is_active_output":false,"name":"Group Input","outputs":[[0.5,0.5,0.5,1.0]],"type":"GROUP_INPUT_BL"},{"inputs":[[1.0,1.0,1.0,1.0],0.0,[0.0,0.0,0.0]],"is_active_output":false,"name":"Diffuse BSDF.001","outputs":[[0,0,0,0]],"type":"BSDF_DIFFUSE_BL"},{"inputs":[[0,0,0,0]],"is_active_output":false,"name":"Shader to RGB","outputs":[[0.0,0.0,0.0,0.0],0.0],"type":"SHADERTORGB_BL"}]}]}},"extensionsUsed":["S8S_v3d_texture","S8S_v3d_materials","S8S_v3d_camera","S8S_v3d_mesh","S8S_v3d_node","S8S_v3d_animation","S8S_v3d_scene"],"images":[{"uri":"snow_tile_1.jpg"}],"materials":[{"alphaMode":"BLEND","doubleSided":true,"extensions":{"S8S_v3d_materials":{"depthWrite":false,"gtaoVisible":false,"materialIndex":0,"nodeGraph":{"edges":[{"fromNode":1,"fromOutput":0,"toInput":0,"toNode":0}],"nodes":[{"inputs":[[0,0,0,0],[0,0,0,0],[0.0,0.0,0.0],0.0],"is_active_output":true,"name":"Material Output","outputs":[],"type":"OUTPUT_MATERIAL_BL"},{"inputs":[[0.8000000715255737,0.0,0.0010861854534596205,1.0],0.0,0.5,1.4500000476837158,0.27727270126342773,[0.0,0.0,0.0],0.0,[1.0,0.20000000298023224,0.10000000149011612],0.05000000074505806,1.399999976158142,0.0,0.5,[1.0,1.0,1.0,1.0],0.0,0.0,[0.0,0.0,0.0],0.0,0.0,0.029999999329447746,1.5,[1.0,1.0,1.0,1.0],[0.0,0.0,0.0],0.0,0.5,[1.0,1.0,1.0,1.0],[0.0,0.0,0.0,1.0],1.0],"is_active_output":false,"name":"Principled BSDF","outputs":[[0,0,0,0]],"type":"BSDF_PRINCIPLED_BL"}]},"renderSide":"DOUBLE","useCastShadows":true}},"name":"Material"},{"extensions":{"S8S_v3d_materials":{"gtaoVisible":true,"materialIndex":0,"nodeGraph":{"edges":[{"fromNode":0,"fromOutput":0,"toInput":0,"toNode":1},{"fromNode":1,"fromOutput":0,"toInput":0,"toNode":10},{"fromNode":10,"fromOutput":0,"toInput":0,"toNode":9},{"fromNode":3,"fromOutput":0,"toInput":0,"toNode":5},{"fromNode":5,"fromOutput":0,"toInput":0,"toNode":6},{"fromNode":6,"fromOutput":0,"toInput":0,"toNode":7},{"fromNode":8,"fromOutput":2,"toInput":0,"toNode":2},{"fromNode":2,"fromOutput":0,"toInput":0,"toNode":4},{"fromNode":7,"fromOutput":0,"toInput":0,"toNode":8},{"fromNode":9,"fromOutput":0,"toInput":7,"toNode":8}],"nodes":[{"inputs":[],"is_active_output":false,"name":"UV Map","outputs":[[0.0,0.0,0.0]],"type":"UVMAP_BL","uvLayer":"UVMap"},{"inputs":[[0.0,0.0,0.0],[0.0,0.0,0.0],[0.0,0.0,0.0],[5.0,5.0,5.0]],"is_active_output":false,"name":"Mapping","outputs":[[0.0,0.0,0.0]],"type":"MAPPING_BL","vectorType":"POINT"},{"inputs":[[1.0,1.0,1.0,1.0],1.0],"is_active_output":false,"name":"Emission","outputs":[[0,0,0,0]],"type":"EMISSION_BL"},{"inputs":[],"is_active_output":false,"name":"Geometry","outputs":[[0.0,0.0,0.0],[0.0,0.0,0.0],[0.0,0.0,0.0],[0.0,0.0,0.0],[0.0,0.0,0.0],[0.0,0.0,0.0],0.0,0.0,0.0],"type":"NEW_GEOMETRY_BL"},{"inputs":[[0,0,0,0],[0,0,0,0],[0.0,0.0,0.0],0.0],"is_active_output":true,"name":"Material Output","outputs":[],"type":"OUTPUT_MATERIAL_BL"},{"inputs":[[0.0,0.0,0.0],[0.0,0.0,0.0],[0.0,0.0,0.0],[0.012000000104308128,0.012000000104308128,0.012000000104308128]],"is_active_output":false,"name":"Mapping.001","outputs":[[0.0,0.0,0.0]],"type":"MAPPING_BL","vectorType":"POINT"},{"gradientType":"SPHERICAL","inputs":[[0.0,0.0,0.0]],"is_active_output":false,"name":"Gradient Texture","outputs":[[0.0,0.0,0.0,0.0],0.0],"type":"TEX_GRADIENT_BL"},{"curve":{"input":[0.04999999701976776,0.386364221572876],"interpolation":"LINEAR","output":[0.0,0.0,0.0,1.0,1.0,1.0,1.0,1.0]},"inputs":[0.5],"is_active_output":false,"name":"ColorRamp","outputs":[[0.0,0.0,0.0,0.0],0.0],"type":"VALTORGB_BL"},{"blendType":"MIX","clampFactor":true,"clampResult":false,"dataType":"RGBA","factorMode":"UNIFORM","inputs":[0.5,[0.5,0.5,0.5],0.0,0.0,[0.0,0.0,0.0],[0.0,0.0,0.0],[0.5906190872192383,0.7011020183563232,0.7758224010467529,1.0],[0.5906190872192383,0.7011020183563232,0.7758224010467529,1.0],0,0],"is_active_output":false,"name":"Mix","outputs":[0.0,[0.0,0.0,0.0],[0.0,0.0,0.0,0.0],0],"type":"MIX_BL"},{"inputs":[[0.5,0.5,0.5,1.0]],"is_active_output":false,"name":"Group","nodeGraph":0,"outputs":[[0.0,0.0,0.0,0.0]],"type":"GROUP_BL"},{"alphaMode":"STRAIGHT","inputs":[[0.0,0.0,0.0]],"is_active_output":false,"name":"Image Texture","outputs":[[0.0,0.0,0.0,0.0],0.0],"projection":"FLAT","projectionBlend":0.0,"texture":0,"type":"TEX_IMAGE_BL"}]},"useCastShadows":true}},"name":"snow_ground"},{"extensions":{"S8S_v3d_materials":{"gtaoVisible":true,"materialIndex":0,"nodeGraph":{"edges":[{"fromNode":1,"fromOutput":0,"toInput":0,"toNode":0}],"nodes":[{"inputs":[[0,0,0,0],[0,0,0,0]],"is_active_output":true,"name":"World Output","outputs":[],"type":"OUTPUT_WORLD_BL"},{"inputs":[[0.05087608844041824,0.05087608844041824,0.05087608844041824,1.0],1.0],"is_active_output":false,"name":"Background","outputs":[[0,0,0,0]],"type":"BACKGROUND_BL"}]},"useCastShadows":true}},"name":"Verge3D_Environment_World"}],"meshes":[{"extensions":{"S8S_v3d_mesh":{"colorLayers":{},"uvLayers":{"UVMap":"TEXCOORD_0"}}},"name":"Plane","primitives":[{"attributes":{"NORMAL":2,"POSITION":1,"TEXCOORD_0":3},"indices":0,"material":1,"mode":4}]},{"extensions":{"S8S_v3d_mesh":{"colorLayers":{},"uvLayers":{"UVMap":"TEXCOORD_0"}}},"name":"Plane.001","primitives":[{"attributes":{"NORMAL":6,"POSITION":5,"TEXCOORD_0":7},"indices":4,"material":0,"mode":4}]}],"nodes":[{"extensions":{"S8S_v3d_node":{"frustumCulling":true,"groupNames":["ground_2"],"hidden":false,"hidpiCompositing":false,"objectColor":[1.0,1.0,1.0,1.0],"objectIndex":0,"renderOrder":0,"useShadows":true}},"mesh":0,"name":"tile_2_ground"},{"children":[6],"extensions":{"S8S_v3d_node":{"frustumCulling":true,"groupNames":["ground_2"],"hidden":false,"hidpiCompositing":false,"objectColor":[1.0,1.0,1.0,1.0],"objectIndex":0,"renderOrder":0}},"name":"weapon_spawn_place_2","translation":[0.026337385177612305,1.5,-0.033262789249420166]},{"extensions":{"S8S_v3d_node":{"frustumCulling":true,"groupNames":["ground_2"],"hidden":false,"hidpiCompositing":false,"objectColor":[1.0,1.0,1.0,1.0],"objectIndex":0,"renderOrder":0}},"name":"tile_2_enemy_spawn","translation":[-0.009754270315170288,0.0,-8.586179733276367]},{"extensions":{"S8S_v3d_node":{"frustumCulling":true,"groupNames":["ground_2"],"hidden":false,"hidpiCompositing":false,"objectColor":[1.0,1.0,1.0,1.0],"objectIndex":0,"renderOrder":0,"useShadows":true}},"mesh":1,"name":"tile_2_enemy_trigger","translation":[0.09562552720308304,0.046835243701934814,7.785358905792236]},{"children":[2,3,0,7,8,9,10,11,1],"extensions":{"S8S_v3d_node":{"frustumCulling":true,"groupNames":["ground_2"],"hidden":false,"hidpiCompositing":false,"objectColor":[1.0,1.0,1.0,1.0],"objectIndex":0,"renderOrder":0}},"name":"tile_2_base"},{"extensions":{"S8S_v3d_node":{"frustumCulling":true,"groupNames":["ground_2"],"hidden":false,"hidpiCompositing":false,"objectColor":[1.0,1.0,1.0,1.0],"objectIndex":0,"renderOrder":0}},"name":"weapon_spawn_place_2_offset","translation":[2.5931239128112793,1.0,1.1296743154525757]},{"children":[5],"name":"v3d_Proxy_Node_0_weapon_spawn_place_2_offset","translation":[-2.5931239128112793,-1.0,-0.7758328914642334]},{"extensions":{"S8S_v3d_node":{"frustumCulling":true,"groupNames":["tile_2_trees"],"hidden":false,"hidpiCompositing":false,"objectColor":[1.0,1.0,1.0,1.0],"objectIndex":0,"renderOrder":0}},"name":"tile_2_tree.000","rotation":[0.0,-0.339400053024292,-0.0,0.9406421184539795],"translation":[-2.8120346069335938,0.0,-8.207422256469727]},{"extensions":{"S8S_v3d_node":{"frustumCulling":true,"groupNames":["tile_2_trees"],"hidden":false,"hidpiCompositing":false,"objectColor":[1.0,1.0,1.0,1.0],"objectIndex":0,"renderOrder":0}},"name":"tile_2_tree.001","rotation":[0.0,-0.339400053024292,-0.0,0.9406421184539795],"translation":[5.402381896972656,-2.3091564178466797,-3.9698190689086914]},{"extensions":{"S8S_v3d_node":{"frustumCulling":true,"groupNames":["tile_2_trees"],"hidden":false,"hidpiCompositing":false,"objectColor":[1.0,1.0,1.0,1.0],"objectIndex":0,"renderOrder":0}},"name":"tile_2_tree.002","rotation":[0.0,0.23410195112228394,-0.0,0.9722120761871338],"translation":[-5.590435981750488,-2.135549545288086,4.411454677581787]},{"extensions":{"S8S_v3d_node":{"frustumCulling":true,"groupNames":["tile_2_trees"],"hidden":false,"hidpiCompositing":false,"objectColor":[1.0,1.0,1.0,1.0],"objectIndex":0,"renderOrder":0}},"name":"tile_2_tree.003","rotation":[0.0,0.39845871925354004,-0.0,0.9171862602233887],"translation":[-4.030139446258545,-2.2934532165527344,6.301138401031494]},{"extensions":{"S8S_v3d_node":{"frustumCulling":true,"groupNames":["tile_2_trees"],"hidden":false,"hidpiCompositing":false,"objectColor":[1.0,1.0,1.0,1.0],"objectIndex":0,"renderOrder":0}},"name":"tile_2_tree.004","rotation":[-0.0,-0.853794515132904,0.0,0.5206102132797241],"scale":[0.9999999403953552,1.0,0.9999999403953552],"translation":[-9.423380851745605,9.5367431640625e-07,9.338079452514648]},{"camera":0,"name":"__DEFAULT_CAMERA__","rotation":[-0.08703521639108658,-0.9041802883148193,-0.22208799421787262,0.3543442487716675],"scale":[1.0000001192092896,1.0,0.9999999403953552],"translation":[-4.064743518829346,4.415369033813477,-7.14994478225708]}],"samplers":[{}],"scene":0,"scenes":[{"extensions":{"S8S_v3d_scene":{"aaMethod":"AUTO","iblEnvironmentMode":"PMREM","physicallyCorrectLights":true,"pmremMaxTileSize":512,"shadowMap":{"esmDistanceScale":1.0,"renderReverseSided":false,"renderSingleSided":true,"type":"PCFPOISSON"},"toneMapping":{"type":"filmicBlender"},"worldMaterial":2}},"extras":{"animFrameRate":24,"coordSystem":"Z_UP_RIGHT"},"name":"Scene","nodes":[4,12]}],"textures":[{"extensions":{"S8S_v3d_texture":{"colorSpace":"srgb"}},"name":"snow_tile_1.jpg","sampler":0,"source":0}]}
