{"accessors":[{"bufferView":0,"componentType":5121,"count":6,"max":[3],"min":[0],"type":"SCALAR"},{"bufferView":1,"componentType":5126,"count":4,"max":[10.0,0.0,10.0],"min":[-10.0,0.0,-10.0],"type":"VEC3"},{"bufferView":2,"componentType":5126,"count":4,"max":[0.0,1.0,-0.0],"min":[0.0,1.0,-0.0],"type":"VEC3"},{"bufferView":3,"componentType":5126,"count":4,"max":[1.0,1.0],"min":[0.0,0.0],"type":"VEC2"},{"bufferView":4,"componentType":5126,"count":3,"max":[4.125],"min":[0.0],"type":"SCALAR"},{"bufferView":5,"componentType":5126,"count":3,"max":[-0.0,0.9119249582290649,-0.0,1.0],"min":[-0.0,0.0,-0.0,-0.9999619126319885],"type":"VEC4"}],"animations":[{"channels":[{"sampler":0,"target":{"node":5,"path":"rotation"}}],"extensions":{"S8S_v3d_animation":{"auto":false,"loop":"REPEAT","offset":0.0,"repeatCount":1.0,"repeatInfinite":true}},"name":"weapon_spawn_place_7","samplers":[{"input":4,"interpolation":"LINEAR","output":5}]}],"asset":{"generator":"Verge3D for Blender v4.6.0","version":"2.0"},"bufferViews":[{"buffer":0,"byteLength":6,"byteOffset":0,"target":34963},{"buffer":0,"byteLength":48,"byteOffset":8,"target":34962},{"buffer":0,"byteLength":48,"byteOffset":56,"target":34962},{"buffer":0,"byteLength":32,"byteOffset":104,"target":34962},{"buffer":0,"byteLength":12,"byteOffset":136},{"buffer":0,"byteLength":48,"byteOffset":148}],"buffers":[{"byteLength":196,"uri":"tile_7.bin"}],"cameras":[{"extensions":{"S8S_v3d_camera":{"controls":"ORBIT","enablePan":true,"moveSpeed":1,"orbitMaxDistance":10000,"orbitMaxPolarAngle":3.141592653589793,"orbitMinDistance":0,"orbitMinPolarAngle":0,"orbitTarget":[-0.9128597974777222,0.8884719610214233,-0.013826917856931686],"rotateSpeed":1,"viewportFitInitialAspect":1,"viewportFitType":"VERTICAL"}},"name":"__DEFAULT__","perspective":{"aspectRatio":1,"yfov":0.7853981633974483,"zfar":1000.0,"znear":0.009999999776482582},"type":"perspective"}],"extensions":{"S8S_v3d_materials":{"nodeGraphs":[{"edges":[{"fromNode":2,"fromOutput":2,"toInput":0,"toNode":1},{"fromNode":4,"fromOutput":0,"toInput":0,"toNode":5},{"fromNode":3,"fromOutput":0,"toInput":6,"toNode":2},{"fromNode":0,"fromOutput":2,"toInput":7,"toNode":2},{"fromNode":5,"fromOutput":0,"toInput":0,"toNode":0}],"name":"shadow","nodes":[{"blendType":"MIX","clampFactor":true,"clampResult":false,"dataType":"RGBA","factorMode":"UNIFORM","inputs":[0.5,[0.5,0.5,0.5],0.0,0.0,[0.0,0.0,0.0],[0.0,0.0,0.0],[0.19781818985939026,0.5121480226516724,0.8134249448776245,1.0],[1.0,1.0,1.0,1.0],0,0],"is_active_output":false,"name":"Mix.001","outputs":[0.0,[0.0,0.0,0.0],[0.0,0.0,0.0,0.0],0],"type":"MIX_BL"},{"inputs":[[0.0,0.0,0.0,0.0]],"is_active_output":true,"name":"Group Output","outputs":[],"type":"GROUP_OUTPUT_BL"},{"blendType":"MULTIPLY","clampFactor":true,"clampResult":false,"dataType":"RGBA","factorMode":"UNIFORM","inputs":[1.0,[0.5,0.5,0.5],0.0,0.0,[0.0,0.0,0.0],[0.0,0.0,0.0],[0.5,0.5,0.5,1.0],[0.5,0.5,0.5,1.0],0,0],"is_active_output":false,"name":"Mix","outputs":[0.0,[0.0,0.0,0.0],[0.0,0.0,0.0,0.0],0],"type":"MIX_BL"},{"inputs":[],"is_active_output":false,"name":"Group Input","outputs":[[0.5,0.5,0.5,1.0]],"type":"GROUP_INPUT_BL"},{"inputs":[[1.0,1.0,1.0,1.0],0.0,[0.0,0.0,0.0]],"is_active_output":false,"name":"Diffuse BSDF.001","outputs":[[0,0,0,0]],"type":"BSDF_DIFFUSE_BL"},{"inputs":[[0,0,0,0]],"is_active_output":false,"name":"Shader to RGB","outputs":[[0.0,0.0,0.0,0.0],0.0],"type":"SHADERTORGB_BL"}]}]}},"extensionsUsed":["S8S_v3d_texture","S8S_v3d_materials","S8S_v3d_camera","S8S_v3d_mesh","S8S_v3d_node","S8S_v3d_animation","S8S_v3d_scene"],"images":[{"uri":"snow_tile_1.jpg"}],"materials":[{"extensions":{"S8S_v3d_materials":{"gtaoVisible":true,"materialIndex":0,"nodeGraph":{"edges":[{"fromNode":0,"fromOutput":0,"toInput":0,"toNode":1},{"fromNode":1,"fromOutput":0,"toInput":0,"toNode":10},{"fromNode":10,"fromOutput":0,"toInput":0,"toNode":9},{"fromNode":3,"fromOutput":0,"toInput":0,"toNode":5},{"fromNode":5,"fromOutput":0,"toInput":0,"toNode":6},{"fromNode":6,"fromOutput":0,"toInput":0,"toNode":7},{"fromNode":8,"fromOutput":2,"toInput":0,"toNode":2},{"fromNode":2,"fromOutput":0,"toInput":0,"toNode":4},{"fromNode":7,"fromOutput":0,"toInput":0,"toNode":8},{"fromNode":9,"fromOutput":0,"toInput":7,"toNode":8}],"nodes":[{"inputs":[],"is_active_output":false,"name":"UV Map","outputs":[[0.0,0.0,0.0]],"type":"UVMAP_BL","uvLayer":"UVMap"},{"inputs":[[0.0,0.0,0.0],[0.0,0.0,0.0],[0.0,0.0,0.0],[5.0,5.0,5.0]],"is_active_output":false,"name":"Mapping","outputs":[[0.0,0.0,0.0]],"type":"MAPPING_BL","vectorType":"POINT"},{"inputs":[[1.0,1.0,1.0,1.0],1.0],"is_active_output":false,"name":"Emission","outputs":[[0,0,0,0]],"type":"EMISSION_BL"},{"inputs":[],"is_active_output":false,"name":"Geometry","outputs":[[0.0,0.0,0.0],[0.0,0.0,0.0],[0.0,0.0,0.0],[0.0,0.0,0.0],[0.0,0.0,0.0],[0.0,0.0,0.0],0.0,0.0,0.0],"type":"NEW_GEOMETRY_BL"},{"inputs":[[0,0,0,0],[0,0,0,0],[0.0,0.0,0.0],0.0],"is_active_output":true,"name":"Material Output","outputs":[],"type":"OUTPUT_MATERIAL_BL"},{"inputs":[[0.0,0.0,0.0],[0.0,0.0,0.0],[0.0,0.0,0.0],[0.012000000104308128,0.012000000104308128,0.012000000104308128]],"is_active_output":false,"name":"Mapping.001","outputs":[[0.0,0.0,0.0]],"type":"MAPPING_BL","vectorType":"POINT"},{"gradientType":"SPHERICAL","inputs":[[0.0,0.0,0.0]],"is_active_output":false,"name":"Gradient Texture","outputs":[[0.0,0.0,0.0,0.0],0.0],"type":"TEX_GRADIENT_BL"},{"curve":{"input":[0.04999999701976776,0.386364221572876],"interpolation":"LINEAR","output":[0.0,0.0,0.0,1.0,1.0,1.0,1.0,1.0]},"inputs":[0.5],"is_active_output":false,"name":"ColorRamp","outputs":[[0.0,0.0,0.0,0.0],0.0],"type":"VALTORGB_BL"},{"blendType":"MIX","clampFactor":true,"clampResult":false,"dataType":"RGBA","factorMode":"UNIFORM","inputs":[0.5,[0.5,0.5,0.5],0.0,0.0,[0.0,0.0,0.0],[0.0,0.0,0.0],[0.5906190872192383,0.7011020183563232,0.7758224010467529,1.0],[0.5906190872192383,0.7011020183563232,0.7758224010467529,1.0],0,0],"is_active_output":false,"name":"Mix","outputs":[0.0,[0.0,0.0,0.0],[0.0,0.0,0.0,0.0],0],"type":"MIX_BL"},{"inputs":[[0.5,0.5,0.5,1.0]],"is_active_output":false,"name":"Group","nodeGraph":0,"outputs":[[0.0,0.0,0.0,0.0]],"type":"GROUP_BL"},{"alphaMode":"STRAIGHT","inputs":[[0.0,0.0,0.0]],"is_active_output":false,"name":"Image Texture","outputs":[[0.0,0.0,0.0,0.0],0.0],"projection":"FLAT","projectionBlend":0.0,"texture":0,"type":"TEX_IMAGE_BL"}]},"useCastShadows":true}},"name":"snow_ground"},{"extensions":{"S8S_v3d_materials":{"gtaoVisible":true,"materialIndex":0,"nodeGraph":{"edges":[{"fromNode":1,"fromOutput":0,"toInput":0,"toNode":0}],"nodes":[{"inputs":[[0,0,0,0],[0,0,0,0]],"is_active_output":true,"name":"World Output","outputs":[],"type":"OUTPUT_WORLD_BL"},{"inputs":[[0.05087608844041824,0.05087608844041824,0.05087608844041824,1.0],1.0],"is_active_output":false,"name":"Background","outputs":[[0,0,0,0]],"type":"BACKGROUND_BL"}]},"useCastShadows":true}},"name":"Verge3D_Environment_World"}],"meshes":[{"extensions":{"S8S_v3d_mesh":{"colorLayers":{},"uvLayers":{"UVMap":"TEXCOORD_0"}}},"name":"Plane","primitives":[{"attributes":{"NORMAL":2,"POSITION":1,"TEXCOORD_0":3},"indices":0,"material":0,"mode":4}]}],"nodes":[{"extensions":{"S8S_v3d_node":{"frustumCulling":true,"groupNames":["ground_7"],"hidden":false,"hidpiCompositing":false,"objectColor":[1.0,1.0,1.0,1.0],"objectIndex":0,"renderOrder":0,"useShadows":true}},"mesh":0,"name":"tile_7_ground"},{"extensions":{"S8S_v3d_node":{"frustumCulling":true,"groupNames":["ground_7"],"hidden":false,"hidpiCompositing":false,"objectColor":[1.0,1.0,1.0,1.0],"objectIndex":0,"renderOrder":0}},"name":"weapon_spawn_place_7_offset","translation":[2.5931239128112793,1.0,1.1296743154525757]},{"children":[1],"name":"v3d_Proxy_Node_0_weapon_spawn_place_7_offset","translation":[-2.5931239128112793,-1.0,-0.7758328914642334]},{"children":[0,4,6,7,8,9,10,13,11,12,5],"extensions":{"S8S_v3d_node":{"frustumCulling":true,"groupNames":["ground_7"],"hidden":false,"hidpiCompositing":false,"objectColor":[1.0,1.0,1.0,1.0],"objectIndex":0,"renderOrder":0}},"name":"tile_7_base"},{"extensions":{"S8S_v3d_node":{"frustumCulling":true,"groupNames":["tile_7_trees"],"hidden":false,"hidpiCompositing":false,"objectColor":[1.0,1.0,1.0,1.0],"objectIndex":0,"renderOrder":0}},"name":"tile_7_tree.000","rotation":[0.0,-0.339400053024292,-0.0,0.9406421184539795],"translation":[-0.6341400146484375,0.0,-2.0916388034820557]},{"children":[2],"extensions":{"S8S_v3d_node":{"frustumCulling":true,"groupNames":["ground_7"],"hidden":false,"hidpiCompositing":false,"objectColor":[1.0,1.0,1.0,1.0],"objectIndex":0,"renderOrder":0}},"name":"weapon_spawn_place_7","translation":[-6.005612850189209,1.5,6.0563859939575195]},{"extensions":{"S8S_v3d_node":{"frustumCulling":true,"groupNames":["tile_7_trees"],"hidden":false,"hidpiCompositing":false,"objectColor":[1.0,1.0,1.0,1.0],"objectIndex":0,"renderOrder":0}},"name":"tile_7_tree.001","rotation":[0.0,-0.339400053024292,-0.0,0.9406421184539795],"translation":[1.363906741142273,0.0,-1.3066917657852173]},{"extensions":{"S8S_v3d_node":{"frustumCulling":true,"groupNames":["tile_7_trees"],"hidden":false,"hidpiCompositing":false,"objectColor":[1.0,1.0,1.0,1.0],"objectIndex":0,"renderOrder":0}},"name":"tile_7_tree.002","rotation":[0.0,-0.339400053024292,-0.0,0.9406421184539795],"translation":[-0.4914224147796631,0.0,-0.5931035876274109]},{"extensions":{"S8S_v3d_node":{"frustumCulling":true,"groupNames":["tile_7_trees"],"hidden":false,"hidpiCompositing":false,"objectColor":[1.0,1.0,1.0,1.0],"objectIndex":0,"renderOrder":0}},"name":"tile_7_tree.003","rotation":[0.0,-0.339400053024292,-0.0,0.9406421184539795],"translation":[1.4352655410766602,0.0,0.5843169093132019]},{"extensions":{"S8S_v3d_node":{"frustumCulling":true,"groupNames":["tile_7_trees"],"hidden":false,"hidpiCompositing":false,"objectColor":[1.0,1.0,1.0,1.0],"objectIndex":0,"renderOrder":0}},"name":"tile_7_tree.004","rotation":[0.0,-0.339400053024292,-0.0,0.9406421184539795],"translation":[1.6493419408798218,0.0,-3.0906622409820557]},{"extensions":{"S8S_v3d_node":{"frustumCulling":true,"groupNames":["tile_7_trees"],"hidden":false,"hidpiCompositing":false,"objectColor":[1.0,1.0,1.0,1.0],"objectIndex":0,"renderOrder":0}},"name":"tile_7_tree.005","rotation":[0.0,-0.339400053024292,-0.0,0.9406421184539795],"translation":[-3.06033992767334,0.0,-1.6991652250289917]},{"extensions":{"S8S_v3d_node":{"frustumCulling":true,"groupNames":["tile_7_trees"],"hidden":false,"hidpiCompositing":false,"objectColor":[1.0,1.0,1.0,1.0],"objectIndex":0,"renderOrder":0}},"name":"tile_7_tree.007","rotation":[0.0,-0.339400053024292,-0.0,0.9406421184539795],"translation":[3.5046708583831787,0.0,-0.7358214855194092]},{"extensions":{"S8S_v3d_node":{"frustumCulling":true,"groupNames":["tile_7_trees"],"hidden":false,"hidpiCompositing":false,"objectColor":[1.0,1.0,1.0,1.0],"objectIndex":0,"renderOrder":0}},"name":"tile_7_tree.008","rotation":[0.0,-0.339400053024292,-0.0,0.9406421184539795],"translation":[-0.31302571296691895,0.0,-4.018327236175537]},{"extensions":{"S8S_v3d_node":{"frustumCulling":true,"groupNames":["tile_7_trees"],"hidden":false,"hidpiCompositing":false,"objectColor":[1.0,1.0,1.0,1.0],"objectIndex":0,"renderOrder":0}},"name":"tile_7_tree.006","rotation":[0.0,-0.339400053024292,-0.0,0.9406421184539795],"translation":[0.721677303314209,0.0,2.5466842651367188]},{"camera":0,"name":"__DEFAULT_CAMERA__","rotation":[-0.14442585408687592,-0.4929981231689453,-0.08338434994220734,0.8538976311683655],"scale":[0.9999999403953552,0.9999999403953552,0.9999998807907104],"translation":[-15.745176315307617,6.852680683135986,8.549612998962402]}],"samplers":[{}],"scene":0,"scenes":[{"extensions":{"S8S_v3d_scene":{"aaMethod":"AUTO","iblEnvironmentMode":"PMREM","physicallyCorrectLights":true,"pmremMaxTileSize":512,"shadowMap":{"esmDistanceScale":1.0,"renderReverseSided":false,"renderSingleSided":true,"type":"PCFPOISSON"},"toneMapping":{"type":"filmicBlender"},"worldMaterial":1}},"extras":{"animFrameRate":24,"coordSystem":"Z_UP_RIGHT"},"name":"Scene","nodes":[3,14]}],"textures":[{"extensions":{"S8S_v3d_texture":{"colorSpace":"srgb"}},"name":"snow_tile_1.jpg","sampler":0,"source":0}]}
