{"accessors":[{"bufferView":0,"componentType":5121,"count":516,"max":[178],"min":[0],"type":"SCALAR"},{"bufferView":1,"componentType":5126,"count":179,"max":[10.0,1.6719181537628174,10.0],"min":[-10.0,0.0,-10.0],"type":"VEC3"},{"bufferView":2,"componentType":5126,"count":179,"max":[0.9120553135871887,1.0,0.7729361057281494],"min":[-0.8705388903617859,0.2783559262752533,-0.9604777693748474],"type":"VEC3"},{"bufferView":3,"componentType":5126,"count":179,"max":[0.9999564290046692,1.0636377334594727],"min":[-0.039710938930511475,-0.06363773345947266],"type":"VEC2"},{"bufferView":4,"componentType":5126,"count":3,"max":[4.125],"min":[0.0],"type":"SCALAR"},{"bufferView":5,"componentType":5126,"count":3,"max":[-0.0,0.9119249582290649,-0.0,1.0],"min":[-0.0,0.0,-0.0,-0.9999619126319885],"type":"VEC4"}],"animations":[{"channels":[{"sampler":0,"target":{"node":0,"path":"rotation"}}],"extensions":{"S8S_v3d_animation":{"auto":false,"loop":"REPEAT","offset":0.0,"repeatCount":1.0,"repeatInfinite":true}},"name":"weapon_spawn_place_6","samplers":[{"input":4,"interpolation":"LINEAR","output":5}]}],"asset":{"generator":"Verge3D for Blender v4.6.0","version":"2.0"},"bufferViews":[{"buffer":0,"byteLength":516,"byteOffset":0,"target":34963},{"buffer":0,"byteLength":2148,"byteOffset":516,"target":34962},{"buffer":0,"byteLength":2148,"byteOffset":2664,"target":34962},{"buffer":0,"byteLength":1432,"byteOffset":4812,"target":34962},{"buffer":0,"byteLength":12,"byteOffset":6244},{"buffer":0,"byteLength":48,"byteOffset":6256}],"buffers":[{"byteLength":6304,"uri":"tile_6.bin"}],"cameras":[{"extensions":{"S8S_v3d_camera":{"controls":"ORBIT","enablePan":true,"moveSpeed":1,"orbitMaxDistance":10000,"orbitMaxPolarAngle":3.141592653589793,"orbitMinDistance":0,"orbitMinPolarAngle":0,"orbitTarget":[-1.2667584419250488,1.5255444049835205,-1.9384300708770752],"rotateSpeed":1,"viewportFitInitialAspect":1,"viewportFitType":"VERTICAL"}},"name":"__DEFAULT__","perspective":{"aspectRatio":1,"yfov":0.7853981633974483,"zfar":1000.0,"znear":0.009999999776482582},"type":"perspective"}],"extensions":{"S8S_v3d_materials":{"nodeGraphs":[{"edges":[{"fromNode":2,"fromOutput":2,"toInput":0,"toNode":1},{"fromNode":4,"fromOutput":0,"toInput":0,"toNode":5},{"fromNode":3,"fromOutput":0,"toInput":6,"toNode":2},{"fromNode":0,"fromOutput":2,"toInput":7,"toNode":2},{"fromNode":5,"fromOutput":0,"toInput":0,"toNode":0}],"name":"shadow","nodes":[{"blendType":"MIX","clampFactor":true,"clampResult":false,"dataType":"RGBA","factorMode":"UNIFORM","inputs":[0.5,[0.5,0.5,0.5],0.0,0.0,[0.0,0.0,0.0],[0.0,0.0,0.0],[0.19781818985939026,0.5121480226516724,0.8134249448776245,1.0],[1.0,1.0,1.0,1.0],0,0],"is_active_output":false,"name":"Mix.001","outputs":[0.0,[0.0,0.0,0.0],[0.0,0.0,0.0,0.0],0],"type":"MIX_BL"},{"inputs":[[0.0,0.0,0.0,0.0]],"is_active_output":true,"name":"Group Output","outputs":[],"type":"GROUP_OUTPUT_BL"},{"blendType":"MULTIPLY","clampFactor":true,"clampResult":false,"dataType":"RGBA","factorMode":"UNIFORM","inputs":[1.0,[0.5,0.5,0.5],0.0,0.0,[0.0,0.0,0.0],[0.0,0.0,0.0],[0.5,0.5,0.5,1.0],[0.5,0.5,0.5,1.0],0,0],"is_active_output":false,"name":"Mix","outputs":[0.0,[0.0,0.0,0.0],[0.0,0.0,0.0,0.0],0],"type":"MIX_BL"},{"inputs":[],"is_active_output":false,"name":"Group Input","outputs":[[0.5,0.5,0.5,1.0]],"type":"GROUP_INPUT_BL"},{"inputs":[[1.0,1.0,1.0,1.0],0.0,[0.0,0.0,0.0]],"is_active_output":false,"name":"Diffuse BSDF.001","outputs":[[0,0,0,0]],"type":"BSDF_DIFFUSE_BL"},{"inputs":[[0,0,0,0]],"is_active_output":false,"name":"Shader to RGB","outputs":[[0.0,0.0,0.0,0.0],0.0],"type":"SHADERTORGB_BL"}]}]}},"extensionsUsed":["S8S_v3d_texture","S8S_v3d_materials","S8S_v3d_camera","S8S_v3d_mesh","S8S_v3d_node","S8S_v3d_animation","S8S_v3d_scene"],"images":[{"uri":"snow_tile_1.jpg"}],"materials":[{"extensions":{"S8S_v3d_materials":{"gtaoVisible":true,"materialIndex":0,"nodeGraph":{"edges":[{"fromNode":0,"fromOutput":0,"toInput":0,"toNode":1},{"fromNode":1,"fromOutput":0,"toInput":0,"toNode":10},{"fromNode":10,"fromOutput":0,"toInput":0,"toNode":9},{"fromNode":3,"fromOutput":0,"toInput":0,"toNode":5},{"fromNode":5,"fromOutput":0,"toInput":0,"toNode":6},{"fromNode":6,"fromOutput":0,"toInput":0,"toNode":7},{"fromNode":8,"fromOutput":2,"toInput":0,"toNode":2},{"fromNode":2,"fromOutput":0,"toInput":0,"toNode":4},{"fromNode":7,"fromOutput":0,"toInput":0,"toNode":8},{"fromNode":9,"fromOutput":0,"toInput":7,"toNode":8}],"nodes":[{"inputs":[],"is_active_output":false,"name":"UV Map","outputs":[[0.0,0.0,0.0]],"type":"UVMAP_BL","uvLayer":"UVMap"},{"inputs":[[0.0,0.0,0.0],[0.0,0.0,0.0],[0.0,0.0,0.0],[5.0,5.0,5.0]],"is_active_output":false,"name":"Mapping","outputs":[[0.0,0.0,0.0]],"type":"MAPPING_BL","vectorType":"POINT"},{"inputs":[[1.0,1.0,1.0,1.0],1.0],"is_active_output":false,"name":"Emission","outputs":[[0,0,0,0]],"type":"EMISSION_BL"},{"inputs":[],"is_active_output":false,"name":"Geometry","outputs":[[0.0,0.0,0.0],[0.0,0.0,0.0],[0.0,0.0,0.0],[0.0,0.0,0.0],[0.0,0.0,0.0],[0.0,0.0,0.0],0.0,0.0,0.0],"type":"NEW_GEOMETRY_BL"},{"inputs":[[0,0,0,0],[0,0,0,0],[0.0,0.0,0.0],0.0],"is_active_output":true,"name":"Material Output","outputs":[],"type":"OUTPUT_MATERIAL_BL"},{"inputs":[[0.0,0.0,0.0],[0.0,0.0,0.0],[0.0,0.0,0.0],[0.012000000104308128,0.012000000104308128,0.012000000104308128]],"is_active_output":false,"name":"Mapping.001","outputs":[[0.0,0.0,0.0]],"type":"MAPPING_BL","vectorType":"POINT"},{"gradientType":"SPHERICAL","inputs":[[0.0,0.0,0.0]],"is_active_output":false,"name":"Gradient Texture","outputs":[[0.0,0.0,0.0,0.0],0.0],"type":"TEX_GRADIENT_BL"},{"curve":{"input":[0.04999999701976776,0.386364221572876],"interpolation":"LINEAR","output":[0.0,0.0,0.0,1.0,1.0,1.0,1.0,1.0]},"inputs":[0.5],"is_active_output":false,"name":"ColorRamp","outputs":[[0.0,0.0,0.0,0.0],0.0],"type":"VALTORGB_BL"},{"blendType":"MIX","clampFactor":true,"clampResult":false,"dataType":"RGBA","factorMode":"UNIFORM","inputs":[0.5,[0.5,0.5,0.5],0.0,0.0,[0.0,0.0,0.0],[0.0,0.0,0.0],[0.5906190872192383,0.7011020183563232,0.7758224010467529,1.0],[0.5906190872192383,0.7011020183563232,0.7758224010467529,1.0],0,0],"is_active_output":false,"name":"Mix","outputs":[0.0,[0.0,0.0,0.0],[0.0,0.0,0.0,0.0],0],"type":"MIX_BL"},{"inputs":[[0.5,0.5,0.5,1.0]],"is_active_output":false,"name":"Group","nodeGraph":0,"outputs":[[0.0,0.0,0.0,0.0]],"type":"GROUP_BL"},{"alphaMode":"STRAIGHT","inputs":[[0.0,0.0,0.0]],"is_active_output":false,"name":"Image Texture","outputs":[[0.0,0.0,0.0,0.0],0.0],"projection":"FLAT","projectionBlend":0.0,"texture":0,"type":"TEX_IMAGE_BL"}]},"useCastShadows":true}},"name":"snow_ground"},{"extensions":{"S8S_v3d_materials":{"gtaoVisible":true,"materialIndex":0,"nodeGraph":{"edges":[{"fromNode":1,"fromOutput":0,"toInput":0,"toNode":0}],"nodes":[{"inputs":[[0,0,0,0],[0,0,0,0]],"is_active_output":true,"name":"World Output","outputs":[],"type":"OUTPUT_WORLD_BL"},{"inputs":[[0.05087608844041824,0.05087608844041824,0.05087608844041824,1.0],1.0],"is_active_output":false,"name":"Background","outputs":[[0,0,0,0]],"type":"BACKGROUND_BL"}]},"useCastShadows":true}},"name":"Verge3D_Environment_World"}],"meshes":[{"extensions":{"S8S_v3d_mesh":{"colorLayers":{},"uvLayers":{"UVMap":"TEXCOORD_0"}}},"name":"Plane","primitives":[{"attributes":{"NORMAL":2,"POSITION":1,"TEXCOORD_0":3},"indices":0,"material":0,"mode":4}]}],"nodes":[{"children":[3],"extensions":{"S8S_v3d_node":{"frustumCulling":true,"groupNames":["ground_6"],"hidden":false,"hidpiCompositing":false,"objectColor":[1.0,1.0,1.0,1.0],"objectIndex":0,"renderOrder":0}},"name":"weapon_spawn_place_6","translation":[-2.177196502685547,2.0,-1.770925521850586]},{"extensions":{"S8S_v3d_node":{"frustumCulling":true,"groupNames":["tile_6_trees"],"hidden":false,"hidpiCompositing":false,"objectColor":[1.0,1.0,1.0,1.0],"objectIndex":0,"renderOrder":0}},"name":"tile_6_tree.000","rotation":[0.0,-0.339400053024292,-0.0,0.9406421184539795],"translation":[-5.386795997619629,1.5952459573745728,-3.19411301612854]},{"extensions":{"S8S_v3d_node":{"frustumCulling":true,"groupNames":["ground_6"],"hidden":false,"hidpiCompositing":false,"objectColor":[1.0,1.0,1.0,1.0],"objectIndex":0,"renderOrder":0}},"name":"weapon_spawn_place_6_offset","translation":[2.5931239128112793,1.0,1.1296743154525757]},{"children":[2],"name":"v3d_Proxy_Node_0_weapon_spawn_place_6_offset","translation":[-2.5931239128112793,-1.0,-0.7758328914642334]},{"children":[13,1,9,5,17,14,10,15,18,7,20,6,19,16,11,8,12,0],"extensions":{"S8S_v3d_node":{"frustumCulling":true,"groupNames":["ground_6"],"hidden":false,"hidpiCompositing":false,"objectColor":[1.0,1.0,1.0,1.0],"objectIndex":0,"renderOrder":0}},"name":"tile_6_base"},{"extensions":{"S8S_v3d_node":{"frustumCulling":true,"groupNames":["tile_6_trees"],"hidden":false,"hidpiCompositing":false,"objectColor":[1.0,1.0,1.0,1.0],"objectIndex":0,"renderOrder":0}},"name":"tile_6_tree.002","rotation":[0.0,-0.339400053024292,-0.0,0.9406421184539795],"translation":[-4.58823299407959,0.8508801460266113,-1.8873732089996338]},{"extensions":{"S8S_v3d_node":{"frustumCulling":true,"groupNames":["tile_6_trees"],"hidden":false,"hidpiCompositing":false,"objectColor":[1.0,1.0,1.0,1.0],"objectIndex":0,"renderOrder":0}},"name":"tile_6_tree.010","rotation":[0.0,-0.339400053024292,-0.0,0.9406421184539795],"translation":[6.664248466491699,-2.384185791015625e-07,1.4157742261886597]},{"extensions":{"S8S_v3d_node":{"frustumCulling":true,"groupNames":["tile_6_trees"],"hidden":false,"hidpiCompositing":false,"objectColor":[1.0,1.0,1.0,1.0],"objectIndex":0,"renderOrder":0}},"name":"tile_6_tree.008","rotation":[0.0,-0.339400053024292,-0.0,0.9406421184539795],"translation":[-1.4665765762329102,0.0,5.081904888153076]},{"extensions":{"S8S_v3d_node":{"frustumCulling":true,"groupNames":["tile_6_trees"],"hidden":false,"hidpiCompositing":false,"objectColor":[1.0,1.0,1.0,1.0],"objectIndex":0,"renderOrder":0}},"name":"tile_6_tree.014","rotation":[0.0,-0.339400053024292,-0.0,0.9406421184539795],"translation":[-2.3377366065979004,0.0,-7.876596450805664]},{"extensions":{"S8S_v3d_node":{"frustumCulling":true,"groupNames":["tile_6_trees"],"hidden":false,"hidpiCompositing":false,"objectColor":[1.0,1.0,1.0,1.0],"objectIndex":0,"renderOrder":0}},"name":"tile_6_tree.001","rotation":[0.0,-0.339400053024292,-0.0,0.9406421184539795],"translation":[-5.7134809494018555,1.409603238105774,-1.7784783840179443]},{"extensions":{"S8S_v3d_node":{"frustumCulling":true,"groupNames":["tile_6_trees"],"hidden":false,"hidpiCompositing":false,"objectColor":[1.0,1.0,1.0,1.0],"objectIndex":0,"renderOrder":0}},"name":"tile_6_tree.005","rotation":[0.0,-0.339400053024292,-0.0,0.9406421184539795],"translation":[-5.640885353088379,0.0,0.5809125900268555]},{"extensions":{"S8S_v3d_node":{"frustumCulling":true,"groupNames":["tile_6_trees"],"hidden":false,"hidpiCompositing":false,"objectColor":[1.0,1.0,1.0,1.0],"objectIndex":0,"renderOrder":0}},"name":"tile_6_tree.013","rotation":[0.0,-0.339400053024292,-0.0,0.9406421184539795],"translation":[1.5098862648010254,2.384185791015625e-07,-5.8438897132873535]},{"extensions":{"S8S_v3d_node":{"frustumCulling":true,"groupNames":["tile_6_trees"],"hidden":false,"hidpiCompositing":false,"objectColor":[1.0,1.0,1.0,1.0],"objectIndex":0,"renderOrder":0}},"name":"tile_6_tree.015","rotation":[0.0,-0.339400053024292,-0.0,0.9406421184539795],"translation":[-0.8495056629180908,2.384185791015625e-07,-8.166983604431152]},{"extensions":{"S8S_v3d_node":{"frustumCulling":true,"groupNames":["ground_6"],"hidden":false,"hidpiCompositing":false,"objectColor":[1.0,1.0,1.0,1.0],"objectIndex":0,"renderOrder":0,"useShadows":true}},"mesh":0,"name":"tile_6_ground"},{"extensions":{"S8S_v3d_node":{"frustumCulling":true,"groupNames":["tile_6_trees"],"hidden":false,"hidpiCompositing":false,"objectColor":[1.0,1.0,1.0,1.0],"objectIndex":0,"renderOrder":0}},"name":"tile_6_tree.004","rotation":[0.0,-0.339400053024292,-0.0,0.9406421184539795],"translation":[-3.5355818271636963,0.8364428281784058,-3.5207977294921875]},{"extensions":{"S8S_v3d_node":{"frustumCulling":true,"groupNames":["tile_6_trees"],"hidden":false,"hidpiCompositing":false,"objectColor":[1.0,1.0,1.0,1.0],"objectIndex":0,"renderOrder":0}},"name":"tile_6_tree.006","rotation":[0.0,-0.339400053024292,-0.0,0.9406421184539795],"translation":[-7.238010883331299,-2.384185791015625e-07,-0.21764996647834778]},{"extensions":{"S8S_v3d_node":{"frustumCulling":true,"groupNames":["tile_6_trees"],"hidden":false,"hidpiCompositing":false,"objectColor":[1.0,1.0,1.0,1.0],"objectIndex":0,"renderOrder":0}},"name":"tile_6_tree.012","rotation":[0.0,-0.339400053024292,-0.0,0.9406421184539795],"translation":[7.753198623657227,0.0,2.4684252738952637]},{"extensions":{"S8S_v3d_node":{"frustumCulling":true,"groupNames":["tile_6_trees"],"hidden":false,"hidpiCompositing":false,"objectColor":[1.0,1.0,1.0,1.0],"objectIndex":0,"renderOrder":0}},"name":"tile_6_tree.003","rotation":[0.0,-0.339400053024292,-0.0,0.9406421184539795],"translation":[-4.914917945861816,0.9669919013977051,-4.573449611663818]},{"extensions":{"S8S_v3d_node":{"frustumCulling":true,"groupNames":["tile_6_trees"],"hidden":false,"hidpiCompositing":false,"objectColor":[1.0,1.0,1.0,1.0],"objectIndex":0,"renderOrder":0}},"name":"tile_6_tree.007","rotation":[0.0,-0.339400053024292,-0.0,0.9406421184539795],"translation":[-5.604585647583008,-2.384185791015625e-07,1.488370656967163]},{"extensions":{"S8S_v3d_node":{"frustumCulling":true,"groupNames":["tile_6_trees"],"hidden":false,"hidpiCompositing":false,"objectColor":[1.0,1.0,1.0,1.0],"objectIndex":0,"renderOrder":0}},"name":"tile_6_tree.011","rotation":[0.0,-0.339400053024292,-0.0,0.9406421184539795],"translation":[4.921928405761719,0.35208773612976074,2.141740560531616]},{"extensions":{"S8S_v3d_node":{"frustumCulling":true,"groupNames":["tile_6_trees"],"hidden":false,"hidpiCompositing":false,"objectColor":[1.0,1.0,1.0,1.0],"objectIndex":0,"renderOrder":0}},"name":"tile_6_tree.009","rotation":[0.0,-0.339400053024292,-0.0,0.9406421184539795],"translation":[6.591650009155273,0.13013672828674316,2.831408977508545]},{"camera":0,"name":"__DEFAULT_CAMERA__","rotation":[-0.1980234831571579,0.1701011061668396,0.034916628152132034,0.9646933078765869],"scale":[0.9999999403953552,0.9999998211860657,0.9999998211860657],"translation":[1.8481872081756592,5.429035663604736,6.619830131530762]}],"samplers":[{}],"scene":0,"scenes":[{"extensions":{"S8S_v3d_scene":{"aaMethod":"AUTO","iblEnvironmentMode":"PMREM","physicallyCorrectLights":true,"pmremMaxTileSize":512,"shadowMap":{"esmDistanceScale":1.0,"renderReverseSided":false,"renderSingleSided":true,"type":"PCFPOISSON"},"toneMapping":{"type":"filmicBlender"},"worldMaterial":1}},"extras":{"animFrameRate":24,"coordSystem":"Z_UP_RIGHT"},"name":"Scene","nodes":[4,21]}],"textures":[{"extensions":{"S8S_v3d_texture":{"colorSpace":"srgb"}},"name":"snow_tile_1.jpg","sampler":0,"source":0}]}
