{"accessors":[{"bufferView":0,"componentType":5121,"count":144,"max":[93],"min":[0],"type":"SCALAR"},{"bufferView":1,"componentType":5126,"count":94,"max":[0.12264832109212875,0.22506475448608398,0.09693721681833267],"min":[-0.11935488879680634,-0.08836153149604797,-0.7892522811889648],"type":"VEC3"},{"bufferView":2,"componentType":5126,"count":94,"max":[1.0,0.9999935030937195,0.8149089813232422],"min":[-1.0,-0.9999979734420776,-0.8429756760597229],"type":"VEC3"},{"bufferView":3,"componentType":5126,"count":94,"max":[0.0,1.0],"min":[0.0,1.0],"type":"VEC2"},{"bufferView":4,"componentType":5121,"count":84,"max":[55],"min":[0],"type":"SCALAR"},{"bufferView":5,"componentType":5126,"count":56,"max":[0.24578692018985748,0.3247276544570923,0.16649019718170166],"min":[-0.2409779280424118,-0.14134559035301208,-0.9440878629684448],"type":"VEC3"},{"bufferView":6,"componentType":5126,"count":56,"max":[0.9984066486358643,0.99992835521698,0.9988878965377808],"min":[-0.9984065890312195,-0.9998688697814941,-0.9997880458831787],"type":"VEC3"},{"bufferView":7,"componentType":5126,"count":56,"max":[1.0,1.0],"min":[0.0,0.0],"type":"VEC2"},{"bufferView":8,"componentType":5121,"count":156,"max":[131],"min":[0],"type":"SCALAR"},{"bufferView":9,"componentType":5126,"count":132,"max":[0.26446953415870667,0.3503919243812561,0.13265013694763184],"min":[-0.26610398292541504,-0.21464866399765015,-0.822577178478241],"type":"VEC3"},{"bufferView":10,"componentType":5126,"count":132,"max":[1.0,1.0,1.0],"min":[-1.0,-0.9830180406570435,-1.0],"type":"VEC3"},{"bufferView":11,"componentType":5126,"count":132,"max":[1.0,1.0],"min":[0.0,0.0],"type":"VEC2"},{"bufferView":12,"componentType":5123,"count":15240,"max":[4516],"min":[0],"type":"SCALAR"},{"bufferView":13,"componentType":5126,"count":4517,"max":[0.8143545389175415,0.2631951868534088,0.20274394750595093],"min":[-0.116509810090065,-0.2809646427631378,-0.3456070125102997],"type":"VEC3"},{"bufferView":14,"componentType":5126,"count":4517,"max":[1.0,1.0,1.0],"min":[-1.0,-1.0,-1.0],"type":"VEC3"},{"bufferView":15,"componentType":5126,"count":4517,"max":[0.9980791211128235,1.0007678270339966],"min":[0.5014158487319946,0.5084707736968994],"type":"VEC2"},{"bufferView":16,"componentType":5123,"count":4517,"max":[2,0,0,0],"min":[0,0,0,0],"type":"VEC4"},{"bufferView":17,"componentType":5126,"count":4517,"max":[1.0,0.0,0.0,0.0],"min":[1.0,0.0,0.0,0.0],"type":"VEC4"},{"bufferView":18,"componentType":5121,"count":156,"max":[123],"min":[0],"type":"SCALAR"},{"bufferView":19,"componentType":5126,"count":124,"max":[0.10362055897712708,0.3066425919532776,0.16619987785816193],"min":[-0.11483051627874374,-0.14046360552310944,-0.45690691471099854],"type":"VEC3"},{"bufferView":20,"componentType":5126,"count":124,"max":[1.0,0.9999743103981018,0.9999893307685852],"min":[-1.0,-0.9999788999557495,-0.9999468922615051],"type":"VEC3"},{"bufferView":21,"componentType":5126,"count":124,"max":[0.0,1.0],"min":[0.0,1.0],"type":"VEC2"},{"bufferView":22,"componentType":5123,"count":3570,"max":[1267],"min":[0],"type":"SCALAR"},{"bufferView":23,"componentType":5126,"count":1268,"max":[0.11903427541255951,0.2974095344543457,0.1716422736644745],"min":[-0.11903427541255951,-0.1310374140739441,-0.44265487790107727],"type":"VEC3"},{"bufferView":24,"componentType":5126,"count":1268,"max":[1.0,1.0,1.0],"min":[-1.0,-1.0,-1.0],"type":"VEC3"},{"bufferView":25,"componentType":5126,"count":1268,"max":[0.9983851909637451,0.5008758902549744],"min":[0.49691128730773926,0.007367849349975586],"type":"VEC2"},{"bufferView":26,"componentType":5123,"count":1268,"max":[3,0,0,0],"min":[0,0,0,0],"type":"VEC4"},{"bufferView":27,"componentType":5126,"count":1268,"max":[1.0,0.0,0.0,0.0],"min":[1.0,0.0,0.0,0.0],"type":"VEC4"},{"bufferView":28,"componentType":5123,"count":12102,"max":[4048],"min":[0],"type":"SCALAR"},{"bufferView":29,"componentType":5126,"count":4049,"max":[0.22575458884239197,0.34860163927078247,0.11606642603874207],"min":[-0.22070670127868652,-0.09700285643339157,-0.9850882291793823],"type":"VEC3"},{"bufferView":30,"componentType":5126,"count":4049,"max":[1.0,1.0,1.0],"min":[-1.0,-1.0,-1.0],"type":"VEC3"},{"bufferView":31,"componentType":5126,"count":4049,"max":[0.4979686141014099,0.9987945556640625],"min":[0.0020336508750915527,0.5045070648193359],"type":"VEC2"},{"bufferView":32,"componentType":5123,"count":4049,"max":[2,0,0,0],"min":[0,0,0,0],"type":"VEC4"},{"bufferView":33,"componentType":5126,"count":4049,"max":[1.0,0.0,0.0,0.0],"min":[1.0,0.0,0.0,0.0],"type":"VEC4"},{"bufferView":34,"componentType":5123,"count":8280,"max":[3106],"min":[0],"type":"SCALAR"},{"bufferView":35,"componentType":5126,"count":3107,"max":[0.12954872846603394,0.21351036429405212,0.07984703034162521],"min":[-0.12954872846603394,-0.0775054544210434,-0.7513553500175476],"type":"VEC3"},{"bufferView":36,"componentType":5126,"count":3107,"max":[1.0,1.0,1.0],"min":[-1.0,-1.0,-0.9988304972648621],"type":"VEC3"},{"bufferView":37,"componentType":5126,"count":3107,"max":[0.49781322479248047,0.49865448474884033],"min":[0.001259148120880127,0.0019278526306152344],"type":"VEC2"},{"bufferView":38,"componentType":5126,"count":5,"max":[1.0,0.0,0.0,0.0,0.0,1.0,0.0,0.0,0.0,0.9999999403953552,1.0,0.0,0.0,0.25621041655540466,0.5152356028556824,1.0],"min":[1.0,0.0,0.0,0.0,0.0,3.422854177870249e-08,-0.9999999403953552,0.0,0.0,0.0,3.422854177870249e-08,0.0,-0.03819014132022858,-0.14312028884887695,0.0,1.0],"type":"MAT4"},{"bufferView":39,"componentType":5126,"count":5,"max":[1.0,2.384185791015625e-07,5.0242958665042137e-14,0.0,5.0242965441305715e-14,1.0,0.0,0.0,0.0,1.0,1.0,0.0,7.801089552117446e-09,0.08520838618278503,0.17819181084632874,1.0],"min":[1.0,0.0,0.0,0.0,-2.384185791015625e-07,3.4228531120561456e-08,-1.0,0.0,-2.3841852225814364e-07,-2.7510046059790765e-22,3.4228531120561456e-08,0.0,-2.03152570321663e-08,-0.05243165045976639,-0.15015771985054016,1.0],"type":"MAT4"},{"bufferView":40,"componentType":5126,"count":7,"max":[1.0,5.7135185471679506e-11,3.758688798166697e-15,0.0,1.3857071234809189e-16,1.0,1.0,0.0,5.7135185471679506e-11,0.0,1.0,0.0,0.10622409731149673,0.08741804957389832,0.3911832869052887,1.0],"min":[1.0,-7.11072353720901e-22,-3.718908081087356e-18,0.0,-2.133217818469172e-21,-2.3259965473698685e-06,0.0,0.0,-3.758688798166697e-15,-1.0,-2.3259965473698685e-06,0.0,-0.10859718173742294,-0.8604345917701721,-0.23081731796264648,1.0],"type":"MAT4"},{"bufferView":41,"componentType":5126,"count":5,"max":[1.0,8.046627044677734e-07,-4.3711338548746426e-08,0.0,1.0,3.422834993216384e-08,0.9999999403953552,0.0,4.4771027774004324e-07,-8.385130740862223e-07,1.0,0.0,3.977270087202475e-18,0.5440971851348877,0.20240704715251923,1.0],"min":[-1.1920947429189255e-07,-0.9999999403953552,-1.0000001192092896,0.0,4.3711487762720935e-08,-3.0294631869765e-07,-8.940696716308594e-08,0.0,-3.9663319739702274e-08,-1.0,-8.344651973857253e-07,0.0,-0.32331380248069763,-0.06900577992200851,-0.06328681856393814,1.0],"type":"MAT4"},{"bufferView":42,"componentType":5126,"count":2,"max":[0.1666666716337204],"min":[0.0],"type":"SCALAR"},{"bufferView":43,"componentType":5126,"count":2,"max":[0.021665208041667938,0.023925140500068665,-0.07647595554590225],"min":[0.021665208041667938,0.023925140500068665,-0.07647595554590225],"type":"VEC3"},{"bufferView":44,"componentType":5126,"count":2,"max":[0.1666666716337204],"min":[0.0],"type":"SCALAR"},{"bufferView":45,"componentType":5126,"count":2,"max":[0.37662479281425476,0.0,-0.0,0.9263659119606018],"min":[0.37662479281425476,0.0,-0.0,0.9263659119606018],"type":"VEC4"},{"bufferView":46,"componentType":5126,"count":2,"max":[0.1666666716337204],"min":[0.0],"type":"SCALAR"},{"bufferView":47,"componentType":5126,"count":2,"max":[1.0,1.0,1.0],"min":[1.0,1.0,1.0],"type":"VEC3"},{"bufferView":48,"componentType":5126,"count":13,"max":[0.5833333134651184],"min":[0.0],"type":"SCALAR"},{"bufferView":49,"componentType":5126,"count":13,"max":[0.03819014132022858,0.04759988188743591,-0.12302242964506149],"min":[0.03819014132022858,0.04759988188743591,-0.13413363695144653],"type":"VEC3"},{"bufferView":50,"componentType":5126,"count":2,"max":[0.1666666716337204],"min":[0.0],"type":"SCALAR"},{"bufferView":51,"componentType":5126,"count":2,"max":[0.0,0.0,-0.0,1.0],"min":[0.0,0.0,-0.0,1.0],"type":"VEC4"},{"bufferView":52,"componentType":5126,"count":2,"max":[0.1666666716337204],"min":[0.0],"type":"SCALAR"},{"bufferView":53,"componentType":5126,"count":2,"max":[1.0,1.0,1.0],"min":[1.0,1.0,1.0],"type":"VEC3"},{"bufferView":54,"componentType":5126,"count":22,"max":[1.0],"min":[0.0],"type":"SCALAR"},{"bufferView":55,"componentType":5126,"count":22,"max":[0.0005778558552265167,0.18555745482444763,-0.25621041655540466],"min":[0.0005778558552265167,0.027859076857566833,-0.6584062576293945],"type":"VEC3"},{"bufferView":56,"componentType":5126,"count":4,"max":[0.25],"min":[0.0],"type":"SCALAR"},{"bufferView":57,"componentType":5126,"count":4,"max":[0.7071067690849304,0.0,-0.0,0.7071067690849304],"min":[0.7071067690849304,0.0,-0.0,0.7071067690849304],"type":"VEC4"},{"bufferView":58,"componentType":5126,"count":14,"max":[1.0],"min":[0.0],"type":"SCALAR"},{"bufferView":59,"componentType":5126,"count":14,"max":[1.0,1.0,1.0],"min":[0.009999990463256836,0.009999990463256836,0.009999990463256836],"type":"VEC3"},{"bufferView":60,"componentType":5126,"count":17,"max":[0.5833333134651184],"min":[0.0],"type":"SCALAR"},{"bufferView":61,"componentType":5126,"count":17,"max":[0.03819014132022858,0.14312028884887695,-0.5152356028556824],"min":[0.03819014132022858,0.14312028884887695,-0.7215694189071655],"type":"VEC3"},{"bufferView":62,"componentType":5126,"count":2,"max":[0.1666666716337204],"min":[0.0],"type":"SCALAR"},{"bufferView":63,"componentType":5126,"count":2,"max":[0.0,0.0,-0.0,1.0],"min":[0.0,0.0,-0.0,1.0],"type":"VEC4"},{"bufferView":64,"componentType":5126,"count":2,"max":[0.1666666716337204],"min":[0.0],"type":"SCALAR"},{"bufferView":65,"componentType":5126,"count":2,"max":[1.0,1.0,1.0],"min":[1.0,1.0,1.0],"type":"VEC3"},{"bufferView":66,"componentType":5126,"count":17,"max":[0.5833333134651184],"min":[0.0],"type":"SCALAR"},{"bufferView":67,"componentType":5126,"count":17,"max":[1.0524859206384463e-08,0.11698617041110992,0.014350907877087593],"min":[-1.029840301924878e-08,0.11698617041110992,-0.029875097796320915],"type":"VEC3"},{"bufferView":68,"componentType":5126,"count":12,"max":[0.375],"min":[0.0],"type":"SCALAR"},{"bufferView":69,"componentType":5126,"count":12,"max":[5.321019358461854e-08,0.17819182574748993,-0.08520837128162384],"min":[-5.603681785260051e-08,0.17819179594516754,-0.32624250650405884],"type":"VEC3"},{"bufferView":70,"componentType":5126,"count":6,"max":[0.2083333283662796],"min":[0.0],"type":"SCALAR"},{"bufferView":71,"componentType":5126,"count":6,"max":[-4.638980083813354e-17,0.03272014111280441,0.014686422422528267],"min":[-6.541172892246422e-17,0.03272014111280441,0.0031251325272023678],"type":"VEC3"},{"bufferView":72,"componentType":5126,"count":18,"max":[8.833333015441895],"min":[0.0],"type":"SCALAR"},{"bufferView":73,"componentType":5126,"count":18,"max":[-4.741278480935307e-09,0.032130394130945206,0.04683281108736992],"min":[-4.741278480935307e-09,0.03213035687804222,0.020484697073698044],"type":"VEC3"},{"bufferView":74,"componentType":5126,"count":217,"max":[8.75],"min":[0.0],"type":"SCALAR"},{"bufferView":75,"componentType":5126,"count":217,"max":[2.537678369662899e-07,4.5646825697076565e-07,0.9996633529663086,1.0],"min":[-5.846969202139007e-07,-3.629279774486349e-07,-0.9999803900718689,0.006263219751417637],"type":"VEC4"},{"bufferView":76,"componentType":5126,"count":13,"max":[0.7083333134651184],"min":[0.0],"type":"SCALAR"},{"bufferView":77,"componentType":5126,"count":13,"max":[0.7070335745811462,0.7071067690849304,0.7071027755737305,0.7071067690849304],"min":[-0.7071027755737305,0.0023837238550186157,-0.7070335745811462,0.0023842277005314827],"type":"VEC4"},{"bufferView":78,"componentType":5126,"count":5,"max":[0.2083333283662796],"min":[0.0],"type":"SCALAR"},{"bufferView":79,"componentType":5126,"count":5,"max":[1.3915783522071468e-17,0.03139016404747963,-0.00968568492680788],"min":[4.971613561794813e-18,0.03139015659689903,-0.024181365966796875],"type":"VEC3"},{"bufferView":80,"componentType":5126,"count":18,"max":[1.0833333730697632],"min":[0.0],"type":"SCALAR"},{"bufferView":81,"componentType":5126,"count":18,"max":[2.471028835294677e-16,-0.06328727304935455,-0.5440971255302429],"min":[-2.888614490104271e-16,-0.06328749656677246,-0.8136724233627319],"type":"VEC3"}],"animations":[{"channels":[{"sampler":0,"target":{"node":15,"path":"translation"}},{"sampler":1,"target":{"node":15,"path":"rotation"}},{"sampler":2,"target":{"node":15,"path":"scale"}},{"sampler":3,"target":{"node":16,"path":"translation"}},{"sampler":4,"target":{"node":16,"path":"rotation"}},{"sampler":5,"target":{"node":16,"path":"scale"}},{"sampler":6,"target":{"node":17,"path":"translation"}},{"sampler":7,"target":{"node":17,"path":"rotation"}},{"sampler":8,"target":{"node":17,"path":"scale"}},{"sampler":9,"target":{"node":18,"path":"translation"}},{"sampler":10,"target":{"node":18,"path":"rotation"}},{"sampler":11,"target":{"node":18,"path":"scale"}}],"extensions":{"S8S_v3d_animation":{"auto":false,"loop":"ONCE","offset":0.0,"repeatCount":1.0,"repeatInfinite":true}},"name":"snowball_shotgun_armature","samplers":[{"input":42,"interpolation":"LINEAR","output":43},{"input":44,"interpolation":"LINEAR","output":45},{"input":46,"interpolation":"LINEAR","output":47},{"input":48,"interpolation":"LINEAR","output":49},{"input":50,"interpolation":"LINEAR","output":51},{"input":52,"interpolation":"LINEAR","output":53},{"input":54,"interpolation":"LINEAR","output":55},{"input":56,"interpolation":"LINEAR","output":57},{"input":58,"interpolation":"LINEAR","output":59},{"input":60,"interpolation":"LINEAR","output":61},{"input":62,"interpolation":"LINEAR","output":63},{"input":64,"interpolation":"LINEAR","output":65}]},{"channels":[{"sampler":0,"target":{"node":20,"path":"translation"}},{"sampler":1,"target":{"node":21,"path":"translation"}},{"sampler":2,"target":{"node":22,"path":"translation"}}],"extensions":{"S8S_v3d_animation":{"auto":false,"loop":"ONCE","offset":0.0,"repeatCount":1.0,"repeatInfinite":true}},"name":"snowball_pistol_armature","samplers":[{"input":66,"interpolation":"LINEAR","output":67},{"input":68,"interpolation":"LINEAR","output":69},{"input":70,"interpolation":"LINEAR","output":71}]},{"channels":[{"sampler":0,"target":{"node":24,"path":"translation"}},{"sampler":1,"target":{"node":25,"path":"rotation"}}],"extensions":{"S8S_v3d_animation":{"auto":false,"loop":"ONCE","offset":0.0,"repeatCount":1.0,"repeatInfinite":true}},"name":"snowball_rifle_armature","samplers":[{"input":72,"interpolation":"LINEAR","output":73},{"input":74,"interpolation":"LINEAR","output":75}]},{"channels":[{"sampler":0,"target":{"node":30,"path":"rotation"}},{"sampler":1,"target":{"node":31,"path":"translation"}},{"sampler":2,"target":{"node":32,"path":"translation"}}],"extensions":{"S8S_v3d_animation":{"auto":false,"loop":"ONCE","offset":0.0,"repeatCount":1.0,"repeatInfinite":true}},"name":"snowball_launcher_armature","samplers":[{"input":76,"interpolation":"LINEAR","output":77},{"input":78,"interpolation":"LINEAR","output":79},{"input":80,"interpolation":"LINEAR","output":81}]}],"asset":{"generator":"Verge3D for Blender v4.6.0","version":"2.0"},"bufferViews":[{"buffer":0,"byteLength":144,"byteOffset":0,"target":34963},{"buffer":0,"byteLength":1128,"byteOffset":144,"target":34962},{"buffer":0,"byteLength":1128,"byteOffset":1272,"target":34962},{"buffer":0,"byteLength":752,"byteOffset":2400,"target":34962},{"buffer":0,"byteLength":84,"byteOffset":3152,"target":34963},{"buffer":0,"byteLength":672,"byteOffset":3236,"target":34962},{"buffer":0,"byteLength":672,"byteOffset":3908,"target":34962},{"buffer":0,"byteLength":448,"byteOffset":4580,"target":34962},{"buffer":0,"byteLength":156,"byteOffset":5028,"target":34963},{"buffer":0,"byteLength":1584,"byteOffset":5184,"target":34962},{"buffer":0,"byteLength":1584,"byteOffset":6768,"target":34962},{"buffer":0,"byteLength":1056,"byteOffset":8352,"target":34962},{"buffer":0,"byteLength":30480,"byteOffset":9408,"target":34963},{"buffer":0,"byteLength":54204,"byteOffset":39888,"target":34962},{"buffer":0,"byteLength":54204,"byteOffset":94092,"target":34962},{"buffer":0,"byteLength":36136,"byteOffset":148296,"target":34962},{"buffer":0,"byteLength":36136,"byteOffset":184432,"target":34962},{"buffer":0,"byteLength":72272,"byteOffset":220568,"target":34962},{"buffer":0,"byteLength":156,"byteOffset":292840,"target":34963},{"buffer":0,"byteLength":1488,"byteOffset":292996,"target":34962},{"buffer":0,"byteLength":1488,"byteOffset":294484,"target":34962},{"buffer":0,"byteLength":992,"byteOffset":295972,"target":34962},{"buffer":0,"byteLength":7140,"byteOffset":296964,"target":34963},{"buffer":0,"byteLength":15216,"byteOffset":304104,"target":34962},{"buffer":0,"byteLength":15216,"byteOffset":319320,"target":34962},{"buffer":0,"byteLength":10144,"byteOffset":334536,"target":34962},{"buffer":0,"byteLength":10144,"byteOffset":344680,"target":34962},{"buffer":0,"byteLength":20288,"byteOffset":354824,"target":34962},{"buffer":0,"byteLength":24204,"byteOffset":375112,"target":34963},{"buffer":0,"byteLength":48588,"byteOffset":399316,"target":34962},{"buffer":0,"byteLength":48588,"byteOffset":447904,"target":34962},{"buffer":0,"byteLength":32392,"byteOffset":496492,"target":34962},{"buffer":0,"byteLength":32392,"byteOffset":528884,"target":34962},{"buffer":0,"byteLength":64784,"byteOffset":561276,"target":34962},{"buffer":0,"byteLength":16560,"byteOffset":626060,"target":34963},{"buffer":0,"byteLength":37284,"byteOffset":642620,"target":34962},{"buffer":0,"byteLength":37284,"byteOffset":679904,"target":34962},{"buffer":0,"byteLength":24856,"byteOffset":717188,"target":34962},{"buffer":0,"byteLength":320,"byteOffset":742044},{"buffer":0,"byteLength":320,"byteOffset":742364},{"buffer":0,"byteLength":448,"byteOffset":742684},{"buffer":0,"byteLength":320,"byteOffset":743132},{"buffer":0,"byteLength":8,"byteOffset":743452},{"buffer":0,"byteLength":24,"byteOffset":743460},{"buffer":0,"byteLength":8,"byteOffset":743484},{"buffer":0,"byteLength":32,"byteOffset":743492},{"buffer":0,"byteLength":8,"byteOffset":743524},{"buffer":0,"byteLength":24,"byteOffset":743532},{"buffer":0,"byteLength":52,"byteOffset":743556},{"buffer":0,"byteLength":156,"byteOffset":743608},{"buffer":0,"byteLength":8,"byteOffset":743764},{"buffer":0,"byteLength":32,"byteOffset":743772},{"buffer":0,"byteLength":8,"byteOffset":743804},{"buffer":0,"byteLength":24,"byteOffset":743812},{"buffer":0,"byteLength":88,"byteOffset":743836},{"buffer":0,"byteLength":264,"byteOffset":743924},{"buffer":0,"byteLength":16,"byteOffset":744188},{"buffer":0,"byteLength":64,"byteOffset":744204},{"buffer":0,"byteLength":56,"byteOffset":744268},{"buffer":0,"byteLength":168,"byteOffset":744324},{"buffer":0,"byteLength":68,"byteOffset":744492},{"buffer":0,"byteLength":204,"byteOffset":744560},{"buffer":0,"byteLength":8,"byteOffset":744764},{"buffer":0,"byteLength":32,"byteOffset":744772},{"buffer":0,"byteLength":8,"byteOffset":744804},{"buffer":0,"byteLength":24,"byteOffset":744812},{"buffer":0,"byteLength":68,"byteOffset":744836},{"buffer":0,"byteLength":204,"byteOffset":744904},{"buffer":0,"byteLength":48,"byteOffset":745108},{"buffer":0,"byteLength":144,"byteOffset":745156},{"buffer":0,"byteLength":24,"byteOffset":745300},{"buffer":0,"byteLength":72,"byteOffset":745324},{"buffer":0,"byteLength":72,"byteOffset":745396},{"buffer":0,"byteLength":216,"byteOffset":745468},{"buffer":0,"byteLength":868,"byteOffset":745684},{"buffer":0,"byteLength":3472,"byteOffset":746552},{"buffer":0,"byteLength":52,"byteOffset":750024},{"buffer":0,"byteLength":208,"byteOffset":750076},{"buffer":0,"byteLength":20,"byteOffset":750284},{"buffer":0,"byteLength":60,"byteOffset":750304},{"buffer":0,"byteLength":72,"byteOffset":750364},{"buffer":0,"byteLength":216,"byteOffset":750436}],"buffers":[{"byteLength":750652,"uri":"weapon.bin"}],"cameras":[{"extensions":{"S8S_v3d_camera":{"controls":"ORBIT","enablePan":true,"moveSpeed":1,"orbitMaxDistance":10000,"orbitMaxPolarAngle":3.141592653589793,"orbitMinDistance":0,"orbitMinPolarAngle":0,"orbitTarget":[0.010925637558102608,0.11803136020898819,-0.41708672046661377],"rotateSpeed":1,"viewportFitInitialAspect":1,"viewportFitType":"VERTICAL"}},"name":"__DEFAULT__","perspective":{"aspectRatio":1,"yfov":0.7853981633974483,"zfar":1000.0,"znear":0.009999999776482582},"type":"perspective"}],"extensions":{"S8S_v3d_materials":{"nodeGraphs":[{"edges":[{"fromNode":2,"fromOutput":2,"toInput":0,"toNode":1},{"fromNode":4,"fromOutput":0,"toInput":0,"toNode":5},{"fromNode":3,"fromOutput":0,"toInput":6,"toNode":2},{"fromNode":0,"fromOutput":2,"toInput":7,"toNode":2},{"fromNode":5,"fromOutput":0,"toInput":0,"toNode":0}],"name":"shadow","nodes":[{"blendType":"MIX","clampFactor":true,"clampResult":false,"dataType":"RGBA","factorMode":"UNIFORM","inputs":[0.5,[0.5,0.5,0.5],0.0,0.0,[0.0,0.0,0.0],[0.0,0.0,0.0],[0.19781818985939026,0.5121480226516724,0.8134249448776245,1.0],[1.0,1.0,1.0,1.0],0,0],"is_active_output":false,"name":"Mix.001","outputs":[0.0,[0.0,0.0,0.0],[0.0,0.0,0.0,0.0],0],"type":"MIX_BL"},{"inputs":[[0.0,0.0,0.0,0.0]],"is_active_output":true,"name":"Group Output","outputs":[],"type":"GROUP_OUTPUT_BL"},{"blendType":"MULTIPLY","clampFactor":true,"clampResult":false,"dataType":"RGBA","factorMode":"UNIFORM","inputs":[1.0,[0.5,0.5,0.5],0.0,0.0,[0.0,0.0,0.0],[0.0,0.0,0.0],[0.5,0.5,0.5,1.0],[0.5,0.5,0.5,1.0],0,0],"is_active_output":false,"name":"Mix","outputs":[0.0,[0.0,0.0,0.0],[0.0,0.0,0.0,0.0],0],"type":"MIX_BL"},{"inputs":[],"is_active_output":false,"name":"Group Input","outputs":[[0.5,0.5,0.5,1.0]],"type":"GROUP_INPUT_BL"},{"inputs":[[1.0,1.0,1.0,1.0],0.0,[0.0,0.0,0.0]],"is_active_output":false,"name":"Diffuse BSDF.001","outputs":[[0,0,0,0]],"type":"BSDF_DIFFUSE_BL"},{"inputs":[[0,0,0,0]],"is_active_output":false,"name":"Shader to RGB","outputs":[[0.0,0.0,0.0,0.0],0.0],"type":"SHADERTORGB_BL"}]}]}},"extensionsUsed":["KHR_texture_basisu","S8S_v3d_texture","S8S_v3d_materials","S8S_v3d_camera","S8S_v3d_mesh","S8S_v3d_node","S8S_v3d_animation","S8S_v3d_scene"],"images":[{"uri":"snowball_guns.ktx2"}],"materials":[{"extensions":{"S8S_v3d_materials":{"gtaoVisible":true,"materialIndex":0,"nodeGraph":{"edges":[{"fromNode":1,"fromOutput":0,"toInput":0,"toNode":0},{"fromNode":2,"fromOutput":0,"toInput":0,"toNode":1},{"fromNode":3,"fromOutput":0,"toInput":0,"toNode":2}],"nodes":[{"inputs":[[0,0,0,0],[0,0,0,0],[0.0,0.0,0.0],0.0],"is_active_output":true,"name":"Material Output","outputs":[],"type":"OUTPUT_MATERIAL_BL"},{"inputs":[[1.0,1.0,1.0,1.0],1.0],"is_active_output":false,"name":"Emission","outputs":[[0,0,0,0]],"type":"EMISSION_BL"},{"inputs":[[0.5,0.5,0.5,1.0]],"is_active_output":false,"name":"Group","nodeGraph":0,"outputs":[[0.0,0.0,0.0,0.0]],"type":"GROUP_BL"},{"alphaMode":"STRAIGHT","inputs":[[0.0,0.0,0.0]],"is_active_output":false,"name":"Image Texture","outputs":[[0.0,0.0,0.0,0.0],0.0],"projection":"FLAT","projectionBlend":0.0,"texture":0,"type":"TEX_IMAGE_BL"}]},"useCastShadows":true}},"name":"snowball_guns"},{"extensions":{"S8S_v3d_materials":{"gtaoVisible":true,"materialIndex":0,"nodeGraph":{"edges":[{"fromNode":1,"fromOutput":0,"toInput":0,"toNode":0}],"nodes":[{"inputs":[[0,0,0,0],[0,0,0,0]],"is_active_output":true,"name":"World Output","outputs":[],"type":"OUTPUT_WORLD_BL"},{"inputs":[[0.5906189680099487,0.7011019587516785,0.7758224010467529,1.0],1.0],"is_active_output":false,"name":"Background","outputs":[[0,0,0,0]],"type":"BACKGROUND_BL"}]},"useCastShadows":true}},"name":"Verge3D_Environment_World"},{"extensions":{"S8S_v3d_materials":{"nodeGraph":{"edges":[{"fromNode":1,"fromOutput":0,"toInput":0,"toNode":0}],"nodes":[{"inputs":[[0,0,0,0],[0,0,0,0],[0,0,0]],"is_active_output":true,"name":"Material Output","outputs":[],"type":"OUTPUT_MATERIAL_BL"},{"inputs":[[0.800000011920929,0.800000011920929,0.800000011920929,1.0],0.0,[0.0,0.0,0.0]],"is_active_output":false,"name":"Diffuse BSDF","outputs":[[0,0,0,0]],"type":"BSDF_DIFFUSE_BL"}]},"useCastShadows":true,"useShadows":true}},"name":"v3d_default_material"}],"meshes":[{"extensions":{"S8S_v3d_mesh":{"colorLayers":{},"uvLayers":{}}},"name":"Plane","primitives":[{"attributes":{"NORMAL":2,"POSITION":1,"TEXCOORD_0":3},"indices":0,"material":2,"mode":4}]},{"extensions":{"S8S_v3d_mesh":{"colorLayers":{},"uvLayers":{}}},"name":"Plane.002","primitives":[{"attributes":{"NORMAL":6,"POSITION":5,"TEXCOORD_0":7},"indices":4,"material":2,"mode":4}]},{"extensions":{"S8S_v3d_mesh":{"colorLayers":{},"uvLayers":{}}},"name":"Plane.003","primitives":[{"attributes":{"NORMAL":10,"POSITION":9,"TEXCOORD_0":11},"indices":8,"material":2,"mode":4}]},{"extensions":{"S8S_v3d_mesh":{"colorLayers":{},"uvLayers":{"UVMap":"TEXCOORD_0"}}},"name":"snowball_launcher_mesh","primitives":[{"attributes":{"JOINTS_0":16,"NORMAL":14,"POSITION":13,"TEXCOORD_0":15,"WEIGHTS_0":17},"indices":12,"material":0,"mode":4}]},{"extensions":{"S8S_v3d_mesh":{"colorLayers":{},"uvLayers":{}}},"name":"snowball_pistol_collision","primitives":[{"attributes":{"NORMAL":20,"POSITION":19,"TEXCOORD_0":21},"indices":18,"material":2,"mode":4}]},{"extensions":{"S8S_v3d_mesh":{"colorLayers":{},"uvLayers":{"UVMap":"TEXCOORD_0"}}},"name":"snowball_pistol_mesh","primitives":[{"attributes":{"JOINTS_0":26,"NORMAL":24,"POSITION":23,"TEXCOORD_0":25,"WEIGHTS_0":27},"indices":22,"material":0,"mode":4}]},{"extensions":{"S8S_v3d_mesh":{"colorLayers":{},"uvLayers":{"UVMap":"TEXCOORD_0"}}},"name":"snowball_rifle_mesh","primitives":[{"attributes":{"JOINTS_0":32,"NORMAL":30,"POSITION":29,"TEXCOORD_0":31,"WEIGHTS_0":33},"indices":28,"material":0,"mode":4}]},{"extensions":{"S8S_v3d_mesh":{"colorLayers":{},"uvLayers":{"UVMap":"TEXCOORD_0"}}},"name":"snowball_shotgun_mesh","primitives":[{"attributes":{"NORMAL":36,"POSITION":35,"TEXCOORD_0":37},"indices":34,"material":0,"mode":4}]}],"nodes":[{"extensions":{"S8S_v3d_node":{"frustumCulling":true,"groupNames":[],"hidden":false,"hidpiCompositing":false,"objectColor":[1.0,1.0,1.0,1.0],"objectIndex":0,"renderOrder":0}},"name":"snowball_enemy"},{"children":[3,15,16,17,18],"extensions":{"S8S_v3d_node":{"frustumCulling":true,"groupNames":["snowball_shotgun"],"hidden":false,"hidpiCompositing":false,"objectColor":[1.0,1.0,1.0,1.0],"objectIndex":0,"renderOrder":0}},"name":"snowball_shotgun_armature","translation":[0.0,0.0,-1.862645149230957e-09]},{"children":[1],"extensions":{"S8S_v3d_node":{"frustumCulling":true,"groupNames":["snowball_shotgun"],"hidden":true,"hidpiCompositing":false,"objectColor":[1.0,1.0,1.0,1.0],"objectIndex":0,"renderOrder":0,"useShadows":true}},"mesh":0,"name":"snowball_shotgun_collision"},{"extensions":{"S8S_v3d_node":{"frustumCulling":true,"groupNames":["snowball_shotgun"],"hidden":false,"hidpiCompositing":false,"objectColor":[1.0,1.0,1.0,1.0],"objectIndex":0,"renderOrder":0,"useShadows":true}},"mesh":7,"name":"snowball_shotgun_mesh"},{"children":[5],"extensions":{"S8S_v3d_node":{"frustumCulling":true,"groupNames":["snowball_pistol"],"hidden":true,"hidpiCompositing":false,"objectColor":[1.0,1.0,1.0,1.0],"objectIndex":0,"renderOrder":0,"useShadows":true}},"mesh":4,"name":"snowball_pistol_collision"},{"children":[6,19,20,21,22],"extensions":{"S8S_v3d_node":{"frustumCulling":true,"groupNames":["snowball_pistol"],"hidden":false,"hidpiCompositing":false,"objectColor":[1.0,1.0,1.0,1.0],"objectIndex":0,"renderOrder":0}},"name":"snowball_pistol_armature"},{"extensions":{"S8S_v3d_node":{"frustumCulling":true,"groupNames":["snowball_pistol"],"hidden":false,"hidpiCompositing":false,"objectColor":[1.0,1.0,1.0,1.0],"objectIndex":0,"renderOrder":0,"useShadows":true}},"mesh":5,"name":"snowball_pistol_mesh","skin":1},{"children":[13],"extensions":{"S8S_v3d_node":{"frustumCulling":true,"groupNames":["snowball_launcher"],"hidden":true,"hidpiCompositing":false,"objectColor":[1.0,1.0,1.0,1.0],"objectIndex":0,"renderOrder":0,"useShadows":true}},"mesh":2,"name":"snowball_launcher_collision"},{"extensions":{"S8S_v3d_node":{"frustumCulling":true,"groupNames":["snowball_launcher"],"hidden":false,"hidpiCompositing":false,"objectColor":[1.0,1.0,1.0,1.0],"objectIndex":0,"renderOrder":0,"useShadows":true}},"mesh":3,"name":"snowball_launcher_mesh","rotation":[0.5,0.5,-0.5,0.5],"skin":3},{"children":[12,23,24,25],"extensions":{"S8S_v3d_node":{"frustumCulling":true,"groupNames":["snowball_rifle"],"hidden":false,"hidpiCompositing":false,"objectColor":[1.0,1.0,1.0,1.0],"objectIndex":0,"renderOrder":0}},"name":"snowball_rifle_armature"},{"children":[9],"name":"v3d_Proxy_Node_0_snowball_rifle_armature","translation":[4.71482053399086e-09,-0.029290124773979187,0.04811781644821167]},{"children":[10],"extensions":{"S8S_v3d_node":{"frustumCulling":true,"groupNames":["snowball_rifle"],"hidden":true,"hidpiCompositing":false,"objectColor":[1.0,1.0,1.0,1.0],"objectIndex":0,"renderOrder":0,"useShadows":true}},"mesh":1,"name":"snowball_rifle_collision","translation":[-4.71482053399086e-09,0.029290124773979187,-0.04811781644821167]},{"extensions":{"S8S_v3d_node":{"frustumCulling":true,"groupNames":["snowball_rifle"],"hidden":false,"hidpiCompositing":false,"objectColor":[1.0,1.0,1.0,1.0],"objectIndex":0,"renderOrder":0,"useShadows":true}},"mesh":6,"name":"snowball_rifle_mesh","skin":2},{"children":[8,29,30,31,32],"extensions":{"S8S_v3d_node":{"frustumCulling":true,"groupNames":["snowball_launcher"],"hidden":false,"hidpiCompositing":false,"objectColor":[1.0,1.0,1.0,1.0],"objectIndex":0,"renderOrder":0}},"name":"snowball_launcher_armature"},{"camera":0,"name":"__DEFAULT_CAMERA__","rotation":[-0.11869928985834122,0.4803244173526764,0.06579617410898209,0.8665274381637573],"scale":[1.0,0.9999997615814209,0.9999997615814209],"translation":[1.9722955226898193,0.7637768983840942,0.8085111975669861]},{"name":"snowball_shotgun_armature_shotgun_root","rotation":[0.37662479281425476,0.0,-0.0,0.9263659119606018],"translation":[0.021665208041667938,0.023925140500068665,-0.07647595554590225]},{"name":"snowball_shotgun_armature_shotgun_trigger","translation":[0.03819014132022858,0.04759988188743591,-0.13413363695144653]},{"name":"snowball_shotgun_armature_shotgun_snowball","rotation":[0.7071067690849304,0.0,-0.0,0.7071067690849304],"translation":[0.0005778558552265167,0.18555745482444763,-0.25621041655540466]},{"name":"snowball_shotgun_armature_shotgun_slider","translation":[0.03819014132022858,0.14312028884887695,-0.5152356028556824]},{"name":"snowball_pistol_armature_pistol_root","rotation":[0.0,2.635760233010612e-17,-0.0,1.0],"translation":[-8.237147919608795e-17,0.05243165045976639,0.15015771985054016]},{"name":"snowball_pistol_armature_pistol_thrower","rotation":[0.7071067690849304,8.429367426288081e-08,-8.429367426288081e-08,0.7071067690849304],"scale":[1.0,0.9999999403953552,0.9999999403953552],"translation":[-4.003088296635664e-17,0.11698617041110992,0.014350907877087593]},{"name":"snowball_pistol_armature_pistol_snowball","rotation":[0.7071067690849304,8.429367426288081e-08,-8.429367426288081e-08,0.7071067690849304],"scale":[1.0,0.9999999403953552,0.9999999403953552],"translation":[-4.003088296635664e-17,0.17819181084632874,-0.08520837128162384]},{"name":"snowball_pistol_armature_pistol_trigger","rotation":[-6.877511514947691e-23,5.769274811438232e-16,-1.1920928955078125e-07,1.0],"translation":[-5.874170180486123e-17,0.03272014111280441,0.0031251325272023678]},{"name":"snowball_rifle_armature_snowball_rifle_root","rotation":[-4.470348358154297e-08,2.220446049250313e-16,-4.963083675318166e-24,1.0],"translation":[-4.741278480935307e-09,-0.08741804212331772,0.058259088546037674]},{"name":"snowball_rifle_armature_snowball_rifle_trigger","rotation":[-3.783620172725932e-07,1.8793443990833486e-15,-3.5553635356529327e-22,1.0],"translation":[-4.741278480935307e-09,0.03213037550449371,0.020484697073698044]},{"children":[26,27,28],"name":"snowball_rifle_armature_snowball_rifle_turnable","rotation":[-7.501014209765344e-08,0.0,-0.0,1.0],"translation":[0.0007432220154441893,0.16633641719818115,-0.3911833167076111]},{"name":"snowball_rifle_armature_snowball_rifle_snowball_1","rotation":[-0.7071075439453125,-0.0,0.0,0.7071059942245483],"scale":[1.0,0.9999999403953552,0.9999999403953552],"translation":[0.1078539565205574,0.060427676886320114,-0.46925175189971924]},{"name":"snowball_rifle_armature_snowball_rifle_snowball_2","rotation":[-0.7071075439453125,-0.0,0.0,0.7071059942245483],"translation":[-0.10696732252836227,0.06447889655828476,-0.46800994873046875]},{"name":"snowball_rifle_armature_snowball_rifle_snowball_3","rotation":[-0.7071075439453125,-2.020036221628274e-11,-2.020031537874889e-11,0.7071059942245483],"translation":[-0.0007432231795974076,-0.12496722489595413,-0.46800991892814636]},{"name":"snowball_launcher_armature_snowball_launcher_root","rotation":[-7.580193539524771e-08,1.1102232893229526e-16,1.5777218104420236e-30,1.0],"scale":[1.0,1.0,0.9999999403953552],"translation":[-4.8920665801357934e-17,-0.21131908893585205,-0.20240700244903564]},{"name":"snowball_launcher_armature_snowball_launcher_drum","rotation":[-2.3228528789331904e-07,0.7071067690849304,-8.429369557916289e-08,0.7071067690849304],"translation":[1.332392752198365e-17,0.06900563836097717,-0.32331383228302]},{"name":"snowball_launcher_armature_snowball_launcher_triggerr","rotation":[-4.2128056065848796e-07,6.170231091910856e-16,-0.0,1.0],"translation":[4.971613561794813e-18,0.03139015659689903,-0.024181365966796875]},{"name":"snowball_launcher_armature_snowball_launcher_snowball","rotation":[0.7071064114570618,7.155929155982198e-16,-0.0,0.7071071267127991],"translation":[-1.60509980721444e-17,-0.06328727304935455,-0.5440971255302429]}],"samplers":[{}],"scene":0,"scenes":[{"extensions":{"S8S_v3d_scene":{"aaMethod":"AUTO","iblEnvironmentMode":"PMREM","physicallyCorrectLights":true,"pmremMaxTileSize":512,"postprocessing":[{"bentNormals":true,"bounceApprox":true,"distance":0.20000000298023224,"factor":1.0,"precision":0.25,"type":"gtao"}],"shadowMap":{"esmDistanceScale":1.0,"renderReverseSided":false,"renderSingleSided":true,"type":"PCFPOISSON"},"worldMaterial":1}},"extras":{"animFrameRate":24,"coordSystem":"Z_UP_RIGHT"},"name":"Scene","nodes":[0,2,4,7,11,14]}],"skins":[{"inverseBindMatrices":38,"joints":[15,16,17,18,1],"skeleton":1},{"inverseBindMatrices":39,"joints":[19,20,21,22,5],"skeleton":5},{"inverseBindMatrices":40,"joints":[23,24,25,26,27,28,9],"skeleton":9},{"inverseBindMatrices":41,"joints":[29,30,31,32,13],"skeleton":13}],"textures":[{"extensions":{"KHR_texture_basisu":{"source":0},"S8S_v3d_texture":{"colorSpace":"srgb"}},"name":"snowball_guns","sampler":0}]}
