{"accessors":[{"bufferView":0,"componentType":5121,"count":160,"max":[33],"min":[0],"type":"SCALAR"},{"bufferView":1,"componentType":5126,"count":34,"max":[0.9238795042037964,0.47174033522605896,0.9238795042037964],"min":[-0.9238795042037964,-0.800000011920929,-0.9238795042037964],"type":"VEC3"},{"bufferView":2,"componentType":5123,"count":960,"max":[959],"min":[0],"type":"SCALAR"},{"bufferView":3,"componentType":5126,"count":960,"max":[6.370780944824219,6.370781898498535,6.370781898498535],"min":[-6.370780944824219,-6.370781898498535,-6.370781898498535],"type":"VEC3"},{"bufferView":4,"componentType":5126,"count":960,"max":[0.9854125380516052,0.987786054611206,0.9846491813659668],"min":[-0.9854124784469604,-0.9877859950065613,-0.9846491813659668],"type":"VEC3"},{"bufferView":5,"componentType":5121,"count":60,"max":[11],"min":[0],"type":"SCALAR"},{"bufferView":6,"componentType":5126,"count":12,"max":[0.7960382103919983,0.8899999856948853,0.7570695877075195],"min":[-0.7960382103919983,-0.8899999856948853,-0.7570695877075195],"type":"VEC3"},{"bufferView":7,"componentType":5121,"count":192,"max":[39],"min":[0],"type":"SCALAR"},{"bufferView":8,"componentType":5126,"count":40,"max":[1.0,1.0,1.0],"min":[-1.0,-1.0,-1.0],"type":"VEC3"},{"bufferView":9,"componentType":5121,"count":126,"max":[22],"min":[0],"type":"SCALAR"},{"bufferView":10,"componentType":5126,"count":23,"max":[0.9550269246101379,0.39213529229164124,1.0334234237670898],"min":[-1.059999942779541,-0.39213529229164124,-1.033423662185669],"type":"VEC3"},{"bufferView":11,"componentType":5121,"count":360,"max":[89],"min":[0],"type":"SCALAR"},{"bufferView":12,"componentType":5126,"count":90,"max":[2.9795634746551514,1.9433343410491943,3.5116710662841797],"min":[-3.5331718921661377,-1.9388481378555298,-3.5334858894348145],"type":"VEC3"},{"bufferView":13,"componentType":5126,"count":254,"max":[8.291666984558105],"min":[0.0],"type":"SCALAR"},{"bufferView":14,"componentType":5126,"count":254,"max":[4.495065212249756,2.4990882873535156,4.676086902618408],"min":[-3.597301483154297,-3.0930211544036865,-2.9117980003356934],"type":"VEC3"},{"bufferView":15,"componentType":5126,"count":258,"max":[8.291666984558105],"min":[0.0],"type":"SCALAR"},{"bufferView":16,"componentType":5126,"count":258,"max":[0.5012996792793274,0.9446295499801636,0.9493633508682251,0.9490154385566711],"min":[-0.9340879321098328,-0.2562950551509857,-0.7649574279785156,-0.3302518129348755],"type":"VEC4"},{"bufferView":17,"componentType":5126,"count":200,"max":[8.291666984558105],"min":[0.0],"type":"SCALAR"},{"bufferView":18,"componentType":5126,"count":200,"max":[1.4359897375106812,1.4359897375106812,1.4359898567199707],"min":[0.36458975076675415,0.36458972096443176,0.36458972096443176],"type":"VEC3"},{"bufferView":19,"componentType":5126,"count":226,"max":[8.291666984558105],"min":[0.0],"type":"SCALAR"},{"bufferView":20,"componentType":5126,"count":226,"max":[1.860823392868042,0.4433661103248596,3.676609992980957],"min":[-3.311152219772339,-4.854626178741455,-0.3869521915912628],"type":"VEC3"},{"bufferView":21,"componentType":5126,"count":257,"max":[8.291666984558105],"min":[0.0],"type":"SCALAR"},{"bufferView":22,"componentType":5126,"count":257,"max":[0.8210091590881348,0.6731688976287842,0.7802894711494446,0.9263603687286377],"min":[-0.8822637796401978,-0.8245235085487366,-0.6898142099380493,-0.08773933351039886],"type":"VEC4"},{"bufferView":23,"componentType":5126,"count":178,"max":[8.291666984558105],"min":[0.0],"type":"SCALAR"},{"bufferView":24,"componentType":5126,"count":178,"max":[1.69623863697052,1.6962387561798096,1.6962385177612305],"min":[0.39322343468666077,0.39322343468666077,0.3932234048843384],"type":"VEC3"},{"bufferView":25,"componentType":5126,"count":218,"max":[8.291666984558105],"min":[0.0],"type":"SCALAR"},{"bufferView":26,"componentType":5126,"count":218,"max":[-0.8529221415519714,4.347737789154053,1.4044668674468994],"min":[-5.066184043884277,-0.7825555801391602,-3.1857004165649414],"type":"VEC3"},{"bufferView":27,"componentType":5126,"count":260,"max":[8.291666984558105],"min":[0.0],"type":"SCALAR"},{"bufferView":28,"componentType":5126,"count":260,"max":[0.9448407888412476,0.7541787624359131,0.8987560272216797,1.0],"min":[-0.7900168299674988,-0.7276747226715088,-0.8058404922485352,-0.05015464127063751],"type":"VEC4"},{"bufferView":29,"componentType":5126,"count":214,"max":[8.291666984558105],"min":[0.0],"type":"SCALAR"},{"bufferView":30,"componentType":5126,"count":214,"max":[1.3043978214263916,1.3043979406356812,1.3043978214263916],"min":[0.32753124833106995,0.3275313377380371,0.32753121852874756],"type":"VEC3"},{"bufferView":31,"componentType":5126,"count":225,"max":[8.291666984558105],"min":[0.0],"type":"SCALAR"},{"bufferView":32,"componentType":5126,"count":225,"max":[2.6044459342956543,2.9063308238983154,0.6614087820053101],"min":[-3.102041721343994,-4.493715763092041,-4.268341064453125],"type":"VEC3"},{"bufferView":33,"componentType":5126,"count":269,"max":[8.291666984558105],"min":[0.0],"type":"SCALAR"},{"bufferView":34,"componentType":5126,"count":269,"max":[0.6449525356292725,0.70955491065979,0.6518361568450928,0.9615511298179626],"min":[-0.37941470742225647,-0.9011246562004089,-0.7895705699920654,-0.9955564141273499],"type":"VEC4"},{"bufferView":35,"componentType":5126,"count":244,"max":[8.291666984558105],"min":[0.0],"type":"SCALAR"},{"bufferView":36,"componentType":5126,"count":244,"max":[0.5617460608482361,0.5617460608482361,0.5617460608482361],"min":[0.15396860241889954,0.15396860241889954,0.15396863222122192],"type":"VEC3"},{"bufferView":37,"componentType":5126,"count":241,"max":[8.291666984558105],"min":[0.0],"type":"SCALAR"},{"bufferView":38,"componentType":5126,"count":241,"max":[2.9538795948028564,0.7573103308677673,3.316415309906006],"min":[-0.7913322448730469,-4.328513145446777,-4.951014995574951],"type":"VEC3"},{"bufferView":39,"componentType":5126,"count":232,"max":[8.291666984558105],"min":[0.0],"type":"SCALAR"},{"bufferView":40,"componentType":5126,"count":232,"max":[0.15020596981048584,0.5671196579933167,-0.0,1.0],"min":[-0.7533816695213318,-0.9078645706176758,-0.8383018374443054,0.2722662389278412],"type":"VEC4"},{"bufferView":41,"componentType":5126,"count":213,"max":[8.291666984558105],"min":[0.0],"type":"SCALAR"},{"bufferView":42,"componentType":5126,"count":213,"max":[0.9128729701042175,0.9128729701042175,0.9128729701042175],"min":[0.35624241828918457,0.35624241828918457,0.35624241828918457],"type":"VEC3"}],"animations":[{"channels":[{"sampler":0,"target":{"node":0,"path":"translation"}},{"sampler":1,"target":{"node":0,"path":"rotation"}},{"sampler":2,"target":{"node":0,"path":"scale"}}],"extensions":{"S8S_v3d_animation":{"auto":true,"loop":"REPEAT","offset":0.0,"repeatCount":1.0,"repeatInfinite":true}},"name":"Gem","samplers":[{"input":13,"interpolation":"LINEAR","output":14},{"input":15,"interpolation":"LINEAR","output":16},{"input":17,"interpolation":"LINEAR","output":18}]},{"channels":[{"sampler":0,"target":{"node":3,"path":"translation"}},{"sampler":1,"target":{"node":3,"path":"rotation"}},{"sampler":2,"target":{"node":3,"path":"scale"}}],"extensions":{"S8S_v3d_animation":{"auto":true,"loop":"REPEAT","offset":0.0,"repeatCount":1.0,"repeatInfinite":true}},"name":"Star.001","samplers":[{"input":19,"interpolation":"LINEAR","output":20},{"input":21,"interpolation":"LINEAR","output":22},{"input":23,"interpolation":"LINEAR","output":24}]},{"channels":[{"sampler":0,"target":{"node":4,"path":"translation"}},{"sampler":1,"target":{"node":4,"path":"rotation"}},{"sampler":2,"target":{"node":4,"path":"scale"}}],"extensions":{"S8S_v3d_animation":{"auto":true,"loop":"REPEAT","offset":0.0,"repeatCount":1.0,"repeatInfinite":true}},"name":"Icosphere","samplers":[{"input":25,"interpolation":"LINEAR","output":26},{"input":27,"interpolation":"LINEAR","output":28},{"input":29,"interpolation":"LINEAR","output":30}]},{"channels":[{"sampler":0,"target":{"node":9,"path":"translation"}},{"sampler":1,"target":{"node":9,"path":"rotation"}},{"sampler":2,"target":{"node":9,"path":"scale"}}],"extensions":{"S8S_v3d_animation":{"auto":true,"loop":"REPEAT","offset":0.0,"repeatCount":1.0,"repeatInfinite":true}},"name":"Torus Knot","samplers":[{"input":31,"interpolation":"LINEAR","output":32},{"input":33,"interpolation":"LINEAR","output":34},{"input":35,"interpolation":"LINEAR","output":36}]},{"channels":[{"sampler":0,"target":{"node":12,"path":"translation"}},{"sampler":1,"target":{"node":12,"path":"rotation"}},{"sampler":2,"target":{"node":12,"path":"scale"}}],"extensions":{"S8S_v3d_animation":{"auto":true,"loop":"REPEAT","offset":0.0,"repeatCount":1.0,"repeatInfinite":true}},"name":"Sponge","samplers":[{"input":37,"interpolation":"LINEAR","output":38},{"input":39,"interpolation":"LINEAR","output":40},{"input":41,"interpolation":"LINEAR","output":42}]}],"asset":{"generator":"Verge3D for Blender v4.6.0","version":"2.0"},"bufferViews":[{"buffer":0,"byteLength":160,"byteOffset":0,"target":34963},{"buffer":0,"byteLength":408,"byteOffset":160,"target":34962},{"buffer":0,"byteLength":1920,"byteOffset":568,"target":34963},{"buffer":0,"byteLength":11520,"byteOffset":2488,"target":34962},{"buffer":0,"byteLength":11520,"byteOffset":14008,"target":34962},{"buffer":0,"byteLength":60,"byteOffset":25528,"target":34963},{"buffer":0,"byteLength":144,"byteOffset":25588,"target":34962},{"buffer":0,"byteLength":192,"byteOffset":25732,"target":34963},{"buffer":0,"byteLength":480,"byteOffset":25924,"target":34962},{"buffer":0,"byteLength":126,"byteOffset":26404,"target":34963},{"buffer":0,"byteLength":276,"byteOffset":26532,"target":34962},{"buffer":0,"byteLength":360,"byteOffset":26808,"target":34963},{"buffer":0,"byteLength":1080,"byteOffset":27168,"target":34962},{"buffer":0,"byteLength":1016,"byteOffset":28248},{"buffer":0,"byteLength":3048,"byteOffset":29264},{"buffer":0,"byteLength":1032,"byteOffset":32312},{"buffer":0,"byteLength":4128,"byteOffset":33344},{"buffer":0,"byteLength":800,"byteOffset":37472},{"buffer":0,"byteLength":2400,"byteOffset":38272},{"buffer":0,"byteLength":904,"byteOffset":40672},{"buffer":0,"byteLength":2712,"byteOffset":41576},{"buffer":0,"byteLength":1028,"byteOffset":44288},{"buffer":0,"byteLength":4112,"byteOffset":45316},{"buffer":0,"byteLength":712,"byteOffset":49428},{"buffer":0,"byteLength":2136,"byteOffset":50140},{"buffer":0,"byteLength":872,"byteOffset":52276},{"buffer":0,"byteLength":2616,"byteOffset":53148},{"buffer":0,"byteLength":1040,"byteOffset":55764},{"buffer":0,"byteLength":4160,"byteOffset":56804},{"buffer":0,"byteLength":856,"byteOffset":60964},{"buffer":0,"byteLength":2568,"byteOffset":61820},{"buffer":0,"byteLength":900,"byteOffset":64388},{"buffer":0,"byteLength":2700,"byteOffset":65288},{"buffer":0,"byteLength":1076,"byteOffset":67988},{"buffer":0,"byteLength":4304,"byteOffset":69064},{"buffer":0,"byteLength":976,"byteOffset":73368},{"buffer":0,"byteLength":2928,"byteOffset":74344},{"buffer":0,"byteLength":964,"byteOffset":77272},{"buffer":0,"byteLength":2892,"byteOffset":78236},{"buffer":0,"byteLength":928,"byteOffset":81128},{"buffer":0,"byteLength":3712,"byteOffset":82056},{"buffer":0,"byteLength":852,"byteOffset":85768},{"buffer":0,"byteLength":2556,"byteOffset":86620}],"buffers":[{"byteLength":89176,"uri":"lines.bin"}],"cameras":[{"extensions":{"S8S_v3d_camera":{"controls":"ORBIT","enablePan":true,"moveSpeed":1.0,"orbitMaxDistance":12.0,"orbitMaxPolarAngle":3.1415927410125732,"orbitMaxZoom":100.0,"orbitMinDistance":5.0,"orbitMinPolarAngle":0.0,"orbitMinZoom":0.009999999776482582,"orbitTarget":[0.0,0.0,-0.0],"rotateSpeed":1.0,"viewportFitInitialAspect":1.7777777777777777,"viewportFitType":"AUTO"}},"name":"Camera","perspective":{"aspectRatio":1.7777777777777777,"yfov":0.5033799372418416,"zfar":100.0,"znear":0.009999999776482582},"type":"perspective"}],"extensions":{"S8S_v3d_lights":{"lights":[{"color":[1.0,0.0008032419136725366,0.0],"decay":2,"distance":20.00000022351742,"intensity":400.0,"name":"Point.002","power":400.0,"profile":"blender","shadow":{"bias":-0.0018,"cameraFar":20.00000022351742,"cameraFov":0,"cameraNear":0.5,"enabled":false,"expBias":2.5,"mapSize":512,"radius":1.0,"slopeScaledBias":2.5},"type":"point"},{"color":[0.0,1.0,0.39109042286872864],"decay":2,"distance":20.00000022351742,"intensity":400.0,"name":"Point.003","power":400.0,"profile":"blender","shadow":{"bias":-0.0018,"cameraFar":20.00000022351742,"cameraFov":0,"cameraNear":0.5,"enabled":false,"expBias":2.5,"mapSize":512,"radius":1.0,"slopeScaledBias":2.5},"type":"point"},{"color":[0.0,0.0010924075031653047,1.0],"decay":2,"distance":20.00000022351742,"intensity":400.0,"name":"Point.004","power":400.0,"profile":"blender","shadow":{"bias":-0.0018,"cameraFar":20.00000022351742,"cameraFov":0,"cameraNear":0.5,"enabled":false,"expBias":2.5,"mapSize":512,"radius":1.0,"slopeScaledBias":2.5},"type":"point"},{"color":[1.0,0.8228489756584167,0.0],"decay":2,"distance":20.00000022351742,"intensity":400.0,"name":"Point.005","power":400.0,"profile":"blender","shadow":{"bias":-0.0018,"cameraFar":20.00000022351742,"cameraFov":0,"cameraNear":0.5,"enabled":false,"expBias":2.5,"mapSize":512,"radius":1.0,"slopeScaledBias":2.5},"type":"point"},{"color":[0.800000011920929,0.0,0.5765690207481384],"decay":2,"distance":17.888544153198417,"intensity":400.0,"name":"Point.006","power":400.0,"profile":"blender","shadow":{"bias":-0.0018,"cameraFar":17.888544153198417,"cameraFov":0,"cameraNear":0.5,"enabled":false,"expBias":2.5,"mapSize":512,"radius":1.0,"slopeScaledBias":2.5},"type":"point"}]}},"extensionsUsed":["S8S_v3d_materials","S8S_v3d_camera","S8S_v3d_lights","S8S_v3d_mesh","S8S_v3d_node","S8S_v3d_animation","S8S_v3d_scene"],"materials":[{"extensions":{"S8S_v3d_materials":{"gtaoVisible":true,"materialIndex":0,"nodeGraph":{"edges":[{"fromNode":1,"fromOutput":0,"toInput":0,"toNode":0}],"nodes":[{"inputs":[[0,0,0,0],[0,0,0,0],[0.0,0.0,0.0],0.0],"is_active_output":true,"name":"Material Output","outputs":[],"type":"OUTPUT_MATERIAL_BL"},{"inputs":[[0.0,0.0009102769545279443,0.7991027235984802,1.0],0.0,[0.0,0.0,0.0]],"is_active_output":false,"name":"Diffuse BSDF","outputs":[[0,0,0,0]],"type":"BSDF_DIFFUSE_BL"}]}}},"name":"cube"},{"extensions":{"S8S_v3d_materials":{"gtaoVisible":true,"materialIndex":0,"nodeGraph":{"edges":[{"fromNode":1,"fromOutput":0,"toInput":0,"toNode":0}],"nodes":[{"inputs":[[0,0,0,0],[0,0,0,0],[0.0,0.0,0.0],0.0],"is_active_output":true,"name":"Material Output","outputs":[],"type":"OUTPUT_MATERIAL_BL"},{"inputs":[[0.0,0.7991026043891907,0.31398889422416687,1.0],0.0,[0.0,0.0,0.0]],"is_active_output":false,"name":"Diffuse BSDF","outputs":[[0,0,0,0]],"type":"BSDF_DIFFUSE_BL"}]}}},"name":"diamant"},{"extensions":{"S8S_v3d_materials":{"gtaoVisible":true,"materialIndex":0,"nodeGraph":{"edges":[{"fromNode":1,"fromOutput":0,"toInput":0,"toNode":0},{"fromNode":3,"fromOutput":0,"toInput":0,"toNode":2},{"fromNode":2,"fromOutput":2,"toInput":0,"toNode":1}],"nodes":[{"inputs":[[0,0,0,0],[0,0,0,0],[0.0,0.0,0.0],0.0],"is_active_output":true,"name":"Material Output","outputs":[],"type":"OUTPUT_MATERIAL_BL"},{"inputs":[[0.800000011920929,0.800000011920929,0.800000011920929,1.0],0.0,[0.0,0.0,0.0]],"is_active_output":false,"name":"Diffuse BSDF","outputs":[[0,0,0,0]],"type":"BSDF_DIFFUSE_BL"},{"blendType":"MIX","clampFactor":true,"clampResult":false,"dataType":"RGBA","factorMode":"UNIFORM","inputs":[0.5,[0.5,0.5,0.5],0.0,0.0,[0.0,0.0,0.0],[0.0,0.0,0.0],[0.04715060442686081,0.04715060442686081,0.04715060442686081,1.0],[0.0,0.0,0.0,1.0],0,0],"is_active_output":false,"name":"Mix","outputs":[0.0,[0.0,0.0,0.0],[0.0,0.0,0.0,0.0],0],"type":"MIX_BL"},{"inputs":[1.4500000476837158,[0.0,0.0,0.0]],"is_active_output":false,"name":"Fresnel","outputs":[0.0],"type":"FRESNEL_BL"}]}}},"name":"environment_sphere"},{"extensions":{"S8S_v3d_materials":{"gtaoVisible":true,"materialIndex":0,"nodeGraph":{"edges":[{"fromNode":1,"fromOutput":0,"toInput":0,"toNode":0}],"nodes":[{"inputs":[[0,0,0,0],[0,0,0,0],[0.0,0.0,0.0],0.0],"is_active_output":true,"name":"Material Output","outputs":[],"type":"OUTPUT_MATERIAL_BL"},{"inputs":[[0.7991032004356384,0.0006068641669116914,0.0,1.0],0.0,[0.0,0.0,0.0]],"is_active_output":false,"name":"Diffuse BSDF","outputs":[[0,0,0,0]],"type":"BSDF_DIFFUSE_BL"}]}}},"name":"icosphere"},{"extensions":{"S8S_v3d_materials":{"gtaoVisible":true,"materialIndex":0,"nodeGraph":{"edges":[{"fromNode":1,"fromOutput":0,"toInput":0,"toNode":0}],"nodes":[{"inputs":[[0,0,0,0],[0,0,0,0],[0.0,0.0,0.0],0.0],"is_active_output":true,"name":"Material Output","outputs":[],"type":"OUTPUT_MATERIAL_BL"},{"inputs":[[1.0,0.8227854371070862,0.0,1.0],0.0,[0.0,0.0,0.0]],"is_active_output":false,"name":"Diffuse BSDF","outputs":[[0,0,0,0]],"type":"BSDF_DIFFUSE_BL"}]}}},"name":"star"},{"extensions":{"S8S_v3d_materials":{"gtaoVisible":true,"materialIndex":0,"nodeGraph":{"edges":[{"fromNode":1,"fromOutput":0,"toInput":0,"toNode":0}],"nodes":[{"inputs":[[0,0,0,0],[0,0,0,0],[0.0,0.0,0.0],0.0],"is_active_output":true,"name":"Material Output","outputs":[],"type":"OUTPUT_MATERIAL_BL"},{"inputs":[[0.7991028428077698,0.0,0.5775802731513977,1.0],0.0,[0.0,0.0,0.0]],"is_active_output":false,"name":"Diffuse BSDF","outputs":[[0,0,0,0]],"type":"BSDF_DIFFUSE_BL"}]}}},"name":"torus"},{"extensions":{"S8S_v3d_materials":{"gtaoVisible":true,"materialIndex":0,"nodeGraph":{"edges":[{"fromNode":0,"fromOutput":0,"toInput":0,"toNode":1}],"nodes":[{"inputs":[[0.0,0.0,0.0,1.0],1.0],"is_active_output":false,"name":"Background","outputs":[[0,0,0,0]],"type":"BACKGROUND_BL"},{"inputs":[[0,0,0,0],[0,0,0,0]],"is_active_output":true,"name":"World Output","outputs":[],"type":"OUTPUT_WORLD_BL"}]}}},"name":"Verge3D_Environment_World"}],"meshes":[{"extensions":{"S8S_v3d_mesh":{"colorLayers":{},"lineColor":[0.0,0.800000011920929,0.31480199098587036],"lineWidth":2.0,"uvLayers":{}}},"name":"Gem","primitives":[{"attributes":{"POSITION":1},"indices":0,"material":1,"mode":1}]},{"extensions":{"S8S_v3d_mesh":{"colorLayers":{},"uvLayers":{}}},"name":"Icosphere","primitives":[{"attributes":{"NORMAL":4,"POSITION":3},"indices":2,"material":2,"mode":4}]},{"extensions":{"S8S_v3d_mesh":{"colorLayers":{},"lineColor":[0.800000011920929,0.0007280000136233866,0.0],"lineWidth":2.0,"uvLayers":{}}},"name":"Icosphere.001","primitives":[{"attributes":{"POSITION":6},"indices":5,"material":3,"mode":1}]},{"extensions":{"S8S_v3d_mesh":{"colorLayers":{},"lineColor":[0.0,0.0009899999713525176,0.800000011920929],"lineWidth":2.0,"uvLayers":{}}},"name":"Sponge","primitives":[{"attributes":{"POSITION":8},"indices":7,"material":0,"mode":1}]},{"extensions":{"S8S_v3d_mesh":{"colorLayers":{},"lineColor":[1.0,0.8228489756584167,0.0],"lineWidth":2.0,"uvLayers":{}}},"name":"Star.001","primitives":[{"attributes":{"POSITION":10},"indices":9,"material":4,"mode":1}]},{"extensions":{"S8S_v3d_mesh":{"colorLayers":{},"lineColor":[0.800000011920929,0.0,0.5765690207481384],"lineWidth":2.0,"uvLayers":{}}},"name":"Torus Knot","primitives":[{"attributes":{"POSITION":12},"indices":11,"material":5,"mode":1}]}],"nodes":[{"children":[2],"extensions":{"S8S_v3d_node":{"frustumCulling":true,"groupNames":["Collection 1"],"hidden":false,"hidpiCompositing":false,"objectColor":[1.0,1.0,1.0,1.0],"objectIndex":0,"renderOrder":0}},"mesh":0,"name":"Gem","rotation":[0.1299302875995636,0.306102991104126,-0.3906001150608063,0.8584000468254089],"translation":[4.491937160491943,2.4990882873535156,0.22677190601825714]},{"extensions":{"S8S_v3d_lights":{"light":1},"S8S_v3d_node":{"frustumCulling":true,"groupNames":["Collection 1"],"hidden":false,"hidpiCompositing":false,"objectColor":[1.0,1.0,1.0,1.0],"objectIndex":0,"renderOrder":0}},"name":"Point.001","rotation":[-0.7071067690849304,0.0,0.0,0.7071067690849304],"scale":[1.0,0.9999999403953552,0.9999999403953552],"translation":[4.491937160491943,2.4990882873535156,0.22677190601825714]},{"children":[1],"name":"v3d_Proxy_Node_0_Point.001","translation":[-4.491937160491943,-2.4990885257720947,-0.22677190601825714]},{"children":[6],"extensions":{"S8S_v3d_node":{"frustumCulling":true,"groupNames":["Collection 1"],"hidden":false,"hidpiCompositing":false,"objectColor":[1.0,1.0,1.0,1.0],"objectIndex":0,"renderOrder":0}},"mesh":4,"name":"Star.001","rotation":[0.13885779678821564,0.17310233414173126,0.33573827147483826,0.9154419302940369],"scale":[1.0064207315444946,1.0064207315444946,1.0064207315444946],"translation":[1.860823392868042,-2.3932483196258545,2.3285887241363525]},{"children":[8],"extensions":{"S8S_v3d_node":{"frustumCulling":true,"groupNames":["Collection 1"],"hidden":false,"hidpiCompositing":false,"objectColor":[1.0,1.0,1.0,1.0],"objectIndex":0,"renderOrder":0}},"mesh":2,"name":"Icosphere","translation":[-0.8529221415519714,-0.7825555801391602,0.671312689781189]},{"extensions":{"S8S_v3d_lights":{"light":3},"S8S_v3d_node":{"frustumCulling":true,"groupNames":["Collection 1"],"hidden":false,"hidpiCompositing":false,"objectColor":[1.0,1.0,1.0,1.0],"objectIndex":0,"renderOrder":0}},"name":"Point.003","rotation":[-0.7071067690849304,0.0,0.0,0.7071067690849304],"scale":[1.0,0.9999999403953552,0.9999999403953552],"translation":[3.2281484603881836,-3.7212421894073486,2.7097344398498535]},{"children":[5],"name":"v3d_Proxy_Node_0_Point.003","rotation":[0.24597309529781342,0.11412521451711655,-0.35217827558517456,0.8957918882369995],"scale":[0.9936202764511108,0.9936201572418213,0.9936202168464661],"translation":[0.12818050384521484,5.579572677612305,0.24723652005195618]},{"extensions":{"S8S_v3d_lights":{"light":0},"S8S_v3d_node":{"frustumCulling":true,"groupNames":["Collection 1"],"hidden":false,"hidpiCompositing":false,"objectColor":[1.0,1.0,1.0,1.0],"objectIndex":0,"renderOrder":0}},"name":"Point","rotation":[-0.7071067690849304,0.0,0.0,0.7071067690849304],"scale":[1.0,0.9999999403953552,0.9999999403953552],"translation":[-3.134523868560791,1.9996095895767212,-3.841631155410141e-07]},{"children":[7],"name":"v3d_Proxy_Node_0_Point","translation":[3.134523868560791,-1.9996094703674316,3.8416314396272355e-07]},{"children":[11],"extensions":{"S8S_v3d_node":{"frustumCulling":true,"groupNames":["Collection 1"],"hidden":false,"hidpiCompositing":false,"objectColor":[1.0,1.0,1.0,1.0],"objectIndex":0,"renderOrder":0}},"mesh":5,"name":"Torus Knot","rotation":[0.08442192524671555,0.005425484385341406,-0.2612718343734741,0.9615511298179626],"scale":[0.27944666147232056,0.27944666147232056,0.27944666147232056],"translation":[-3.102041721343994,-4.493715763092041,0.09622500836849213]},{"extensions":{"S8S_v3d_lights":{"light":4},"S8S_v3d_node":{"frustumCulling":true,"groupNames":["Collection 1"],"hidden":false,"hidpiCompositing":false,"objectColor":[1.0,1.0,1.0,1.0],"objectIndex":0,"renderOrder":0}},"name":"Point.004","rotation":[-0.7071067690849304,0.0,0.0,0.7071067690849304],"scale":[1.0,0.9999999403953552,0.9999999403953552],"translation":[-3.102041721343994,-4.493715763092041,0.09622500836849213]},{"children":[10],"name":"v3d_Proxy_Node_0_Point.004","rotation":[-0.08442191779613495,-0.005425486713647842,0.2612718343734741,0.9615510702133179],"scale":[3.578500747680664,3.578500270843506,3.5785000324249268],"translation":[1.5381700992584229,19.18889808654785,-3.3696203231811523]},{"children":[14],"extensions":{"S8S_v3d_node":{"frustumCulling":true,"groupNames":["Collection 1"],"hidden":false,"hidpiCompositing":false,"objectColor":[1.0,1.0,1.0,1.0],"objectIndex":0,"renderOrder":0}},"mesh":3,"name":"Sponge","scale":[0.6320666074752808,0.6320666074752808,0.6320666074752808],"translation":[1.0992975234985352,-0.4399415850639343,-4.951014995574951]},{"extensions":{"S8S_v3d_lights":{"light":2},"S8S_v3d_node":{"frustumCulling":true,"groupNames":["Collection 1"],"hidden":false,"hidpiCompositing":false,"objectColor":[1.0,1.0,1.0,1.0],"objectIndex":0,"renderOrder":0}},"name":"Point.002","rotation":[-0.7071067690849304,0.0,0.0,0.7071067690849304],"scale":[1.0,0.9999999403953552,0.9999999403953552],"translation":[1.0992975234985352,-0.4399415850639343,-4.951014995574951]},{"children":[13],"name":"v3d_Proxy_Node_0_Point.002","rotation":[0.0,7.848512950658915e-08,-1.4006221071838354e-08,1.0],"scale":[1.5821118354797363,1.5821117162704468,1.5821115970611572],"translation":[-1.7392114400863647,0.6960368156433105,7.833058834075928]},{"extensions":{"S8S_v3d_node":{"frustumCulling":true,"groupNames":["Collection 2"],"hidden":false,"hidpiCompositing":false,"objectColor":[1.0,1.0,1.0,1.0],"objectIndex":0,"renderOrder":0}},"mesh":1,"name":"environment"},{"camera":0,"extensions":{"S8S_v3d_node":{"frustumCulling":true,"groupNames":["Collection 1"],"hidden":false,"hidpiCompositing":false,"objectColor":[0.0,0.0,0.0,0.0],"objectIndex":0,"renderOrder":0}},"name":"Camera","rotation":[-0.20997299253940582,0.3857799470424652,0.09062844514846802,0.8937962055206299],"scale":[1.0,0.9999998807907104,0.9999998807907104],"translation":[6.943476676940918,4.9762349128723145,6.0008368492126465]}],"scene":0,"scenes":[{"extensions":{"S8S_v3d_scene":{"aaMethod":"AUTO","iblEnvironmentMode":"NONE","physicallyCorrectLights":true,"pmremMaxTileSize":512,"worldMaterial":6}},"extras":{"animFrameRate":24,"coordSystem":"Z_UP_RIGHT"},"name":"Scene","nodes":[0,3,4,9,12,16,15]}]}
