{"accessors":[{"bufferView":0,"componentType":5123,"count":4020,"max":[1252],"min":[0],"type":"SCALAR"},{"bufferView":1,"componentType":5126,"count":1253,"max":[0.26637980341911316,1.2996245622634888,0.27171993255615234],"min":[-0.3104862868785858,0.0,-0.27171993255615234],"type":"VEC3"},{"bufferView":2,"componentType":5126,"count":1253,"max":[1.0,1.0,1.0],"min":[-1.0,-1.0,-1.0],"type":"VEC3"},{"bufferView":3,"componentType":5126,"count":1253,"max":[1.0,1.0,1.0,1.0],"min":[-1.0,-1.0,-1.0,-1.0],"type":"VEC4"},{"bufferView":4,"componentType":5126,"count":1253,"max":[0.9966670274734497,0.9966766238212585],"min":[0.003333984175696969,0.003553152084350586],"type":"VEC2"},{"bufferView":5,"componentType":5126,"count":1253,"max":[1.0,1.0,1.0,1.0],"min":[0.0,0.0,0.0,1.0],"type":"VEC4"},{"bufferView":6,"componentType":5126,"count":1253,"max":[0.13286836445331573,1.0,1.0,1.0],"min":[0.0,0.0,0.0,1.0],"type":"VEC4"},{"bufferView":7,"componentType":5121,"count":384,"max":[131],"min":[0],"type":"SCALAR"},{"bufferView":8,"componentType":5126,"count":132,"max":[0.26637980341911316,1.2809100151062012,0.26637980341911316],"min":[-0.26637980341911316,1.0140246152877808,-0.26637980341911316],"type":"VEC3"},{"bufferView":9,"componentType":5126,"count":132,"max":[1.0,1.9999999949504854e-06,1.0],"min":[-1.0,0.0,-1.0],"type":"VEC3"},{"bufferView":10,"componentType":5126,"count":132,"max":[4.565046401694417e-05,1.0,2.914432843681425e-05,1.0],"min":[-2.3115600924938917e-05,-1.0,-2.2605729100177996e-05,1.0],"type":"VEC4"},{"bufferView":11,"componentType":5126,"count":132,"max":[0.5549269914627075,0.9966667890548706],"min":[0.039655886590480804,0.15730679035186768],"type":"VEC2"},{"bufferView":12,"componentType":5126,"count":132,"max":[1.0,1.0,1.0,1.0],"min":[1.0,1.0,1.0,1.0],"type":"VEC4"},{"bufferView":13,"componentType":5126,"count":132,"max":[1.0,1.0,1.0,1.0],"min":[1.0,1.0,1.0,1.0],"type":"VEC4"}],"asset":{"generator":"Verge3D for Blender v4.6.0","version":"2.0"},"bufferViews":[{"buffer":0,"byteLength":8040,"byteOffset":0,"target":34963},{"buffer":0,"byteLength":15036,"byteOffset":8040,"target":34962},{"buffer":0,"byteLength":15036,"byteOffset":23076,"target":34962},{"buffer":0,"byteLength":20048,"byteOffset":38112,"target":34962},{"buffer":0,"byteLength":10024,"byteOffset":58160,"target":34962},{"buffer":0,"byteLength":20048,"byteOffset":68184,"target":34962},{"buffer":0,"byteLength":20048,"byteOffset":88232,"target":34962},{"buffer":0,"byteLength":384,"byteOffset":108280,"target":34963},{"buffer":0,"byteLength":1584,"byteOffset":108664,"target":34962},{"buffer":0,"byteLength":1584,"byteOffset":110248,"target":34962},{"buffer":0,"byteLength":2112,"byteOffset":111832,"target":34962},{"buffer":0,"byteLength":1056,"byteOffset":113944,"target":34962},{"buffer":0,"byteLength":2112,"byteOffset":115000,"target":34962},{"buffer":0,"byteLength":2112,"byteOffset":117112,"target":34962}],"buffers":[{"byteLength":119224,"uri":"nightlight.bin"}],"cameras":[{"extensions":{"S8S_v3d_camera":{"controls":"ORBIT","enablePan":true,"moveSpeed":1,"orbitMaxDistance":10000,"orbitMaxPolarAngle":3.141592653589793,"orbitMinDistance":0,"orbitMinPolarAngle":0,"orbitTarget":[-0.022053241729736328,0.6498122811317444,-0.0],"rotateSpeed":1,"viewportFitInitialAspect":1,"viewportFitType":"VERTICAL"}},"name":"__DEFAULT__","perspective":{"aspectRatio":1,"yfov":0.7853981633974483,"zfar":1000.0,"znear":0.10000000149011612},"type":"perspective"}],"extensions":{"S8S_v3d_materials":{"nodeGraphs":[{"edges":[{"fromNode":3,"fromOutput":0,"toInput":2,"toNode":1},{"fromNode":0,"fromOutput":0,"toInput":1,"toNode":1},{"fromNode":4,"fromOutput":0,"toInput":0,"toNode":1},{"fromNode":5,"fromOutput":0,"toInput":0,"toNode":4},{"fromNode":1,"fromOutput":0,"toInput":0,"toNode":2}],"name":"Nightlight AO","nodes":[{"inputs":[[0.0,0.0,0.0,1.0],0.0,[0.0,0.0,0.0]],"is_active_output":false,"name":"Diffuse BSDF","outputs":[[0,0,0,0]],"type":"BSDF_DIFFUSE_BL"},{"inputs":[0.5,[0,0,0,0],[0,0,0,0]],"is_active_output":false,"name":"Mix Shader","outputs":[[0,0,0,0]],"type":"MIX_SHADER_BL"},{"inputs":[[0,0,0,0]],"is_active_output":true,"name":"Group Output","outputs":[],"type":"GROUP_OUTPUT_BL"},{"inputs":[],"is_active_output":false,"name":"Group Input","outputs":[[0,0,0,0]],"type":"GROUP_INPUT_BL"},{"alphaMode":"STRAIGHT","inputs":[[0.0,0.0,0.0]],"is_active_output":false,"name":"Image Texture","outputs":[[0.0,0.0,0.0,0.0],0.0],"projection":"FLAT","projectionBlend":0.0,"texture":3,"type":"TEX_IMAGE_BL"},{"inputs":[],"is_active_output":false,"name":"UV Map","outputs":[[0.0,0.0,0.0]],"type":"UVMAP_BL","uvLayer":"UVMap"}]}]}},"extensionsUsed":["KHR_texture_basisu","S8S_v3d_texture","S8S_v3d_materials","S8S_v3d_camera","S8S_v3d_mesh","S8S_v3d_node","S8S_v3d_scene"],"images":[{"uri":"Chair_Linen_basecolor.ktx2"},{"uri":"Chair_Linen_normal.ktx2"},{"uri":"environment.hdr.xz"},{"uri":"nightstand_ao.jpg"}],"materials":[{"extensions":{"S8S_v3d_materials":{"gtaoVisible":true,"materialIndex":0,"nodeGraph":{"edges":[{"fromNode":4,"fromOutput":0,"toInput":5,"toNode":0},{"fromNode":6,"fromOutput":0,"toInput":0,"toNode":9},{"fromNode":6,"fromOutput":0,"toInput":0,"toNode":10},{"fromNode":5,"fromOutput":0,"toInput":0,"toNode":6},{"fromNode":9,"fromOutput":0,"toInput":6,"toNode":3},{"fromNode":0,"fromOutput":0,"toInput":0,"toNode":8},{"fromNode":8,"fromOutput":0,"toInput":0,"toNode":1},{"fromNode":10,"fromOutput":0,"toInput":1,"toNode":4},{"fromNode":3,"fromOutput":2,"toInput":6,"toNode":2},{"fromNode":4,"fromOutput":0,"toInput":1,"toNode":7},{"fromNode":7,"fromOutput":0,"toInput":11,"toNode":0},{"fromNode":2,"fromOutput":2,"toInput":0,"toNode":0}],"nodes":[{"inputs":[[0.5768133401870728,0.5768133401870728,0.5768133401870728,1.0],0.0,0.6000000238418579,1.4500000476837158,1.0,[0.0,0.0,0.0],0.0,[1.0,0.20000000298023224,0.10000000149011612],0.05000000074505806,1.399999976158142,0.0,1.0,[1.0,1.0,1.0,1.0],0.0,0.0,[0.0,0.0,0.0],0.0,0.0,0.029999999329447746,1.5,[1.0,1.0,1.0,1.0],[0.0,0.0,0.0],0.20000000298023224,0.5,[1.0,1.0,1.0,1.0],[0.0,0.0,0.0,1.0],1.0],"is_active_output":false,"name":"Principled BSDF","outputs":[[0,0,0,0]],"type":"BSDF_PRINCIPLED_BL"},{"inputs":[[0,0,0,0],[0,0,0,0],[0.0,0.0,0.0],0.0],"is_active_output":true,"name":"Material Output","outputs":[],"type":"OUTPUT_MATERIAL_BL"},{"blendType":"MULTIPLY","clampFactor":true,"clampResult":false,"dataType":"RGBA","factorMode":"UNIFORM","inputs":[0.36666667461395264,[0.5,0.5,0.5],0.0,0.0,[0.0,0.0,0.0],[0.0,0.0,0.0],[0.5,0.5,0.5,1.0],[0.0,0.0,0.0,1.0],0,0],"is_active_output":false,"name":"Mix.001","outputs":[0.0,[0.0,0.0,0.0],[0.0,0.0,0.0,0.0],0],"type":"MIX_BL"},{"blendType":"COLOR","clampFactor":true,"clampResult":false,"dataType":"RGBA","factorMode":"UNIFORM","inputs":[1.0,[0.5,0.5,0.5],0.0,0.0,[0.0,0.0,0.0],[0.0,0.0,0.0],[0.5,0.5,0.5,1.0],[1.0,0.8624045252799988,0.709047257900238,1.0],0,0],"is_active_output":false,"name":"Mix","outputs":[0.0,[0.0,0.0,0.0],[0.0,0.0,0.0,0.0],0],"type":"MIX_BL"},{"inputs":[1.0,[0.5,0.5,1.0,1.0]],"is_active_output":false,"name":"Normal Map","outputs":[[0.0,0.0,0.0]],"type":"NORMAL_MAP_BL","uvLayer":"UVMap"},{"inputs":[],"is_active_output":false,"name":"UV Map","outputs":[[0.0,0.0,0.0]],"type":"UVMAP_BL","uvLayer":"UVMap"},{"inputs":[[0.0,0.0,0.0],[0.0,0.0,0.0],[0.0,0.0,0.0],[3.0,3.0,3.0]],"is_active_output":false,"name":"Mapping","outputs":[[0.0,0.0,0.0]],"type":"MAPPING_BL","vectorType":"POINT"},{"inputs":[1.4500000476837158,[0.0,0.0,0.0]],"is_active_output":false,"name":"Fresnel","outputs":[0.0],"type":"FRESNEL_BL"},{"inputs":[[0,0,0,0]],"is_active_output":false,"name":"Group.001","nodeGraph":0,"outputs":[[0,0,0,0]],"type":"GROUP_BL"},{"alphaMode":"STRAIGHT","inputs":[[0.0,0.0,0.0]],"is_active_output":false,"name":"Image Texture.002","outputs":[[0.0,0.0,0.0,0.0],0.0],"projection":"FLAT","projectionBlend":0.0,"texture":0,"type":"TEX_IMAGE_BL"},{"alphaMode":"STRAIGHT","inputs":[[0.0,0.0,0.0]],"is_active_output":false,"name":"Image Texture.003","outputs":[[0.0,0.0,0.0,0.0],0.0],"projection":"FLAT","projectionBlend":0.0,"texture":1,"type":"TEX_IMAGE_BL"}]},"useCastShadows":true}},"name":"nightlight_linen"},{"extensions":{"S8S_v3d_materials":{"gtaoVisible":true,"materialIndex":0,"nodeGraph":{"edges":[{"fromNode":9,"fromOutput":0,"toInput":0,"toNode":6},{"fromNode":1,"fromOutput":0,"toInput":0,"toNode":2},{"fromNode":2,"fromOutput":0,"toInput":2,"toNode":4},{"fromNode":2,"fromOutput":1,"toInput":1,"toNode":4},{"fromNode":0,"fromOutput":1,"toInput":1,"toNode":3},{"fromNode":5,"fromOutput":2,"toInput":11,"toNode":4},{"fromNode":2,"fromOutput":2,"toInput":7,"toNode":5},{"fromNode":3,"fromOutput":0,"toInput":0,"toNode":5},{"fromNode":6,"fromOutput":0,"toInput":0,"toNode":4},{"fromNode":4,"fromOutput":0,"toInput":0,"toNode":8},{"fromNode":8,"fromOutput":0,"toInput":0,"toNode":7}],"nodes":[{"inputs":[],"is_active_output":false,"name":"Geometry","outputs":[[0.0,0.0,0.0],[0.0,0.0,0.0],[0.0,0.0,0.0],[0.0,0.0,0.0],[0.0,0.0,0.0],[0.0,0.0,0.0],0.0,0.0,0.0],"type":"NEW_GEOMETRY_BL"},{"colorLayer":"rought_met_spec","inputs":[],"is_active_output":false,"name":"Attribute.001","outputs":[[0.0,0.0,0.0,0.0],[0.0,0.0,0.0],0.0,0.0],"type":"ATTRIBUTE_BL"},{"inputs":[[0.800000011920929,0.800000011920929,0.800000011920929,1.0]],"is_active_output":false,"mode":"RGB","name":"Separate RGB","outputs":[0.0,0.0,0.0],"type":"SEPARATE_COLOR_BL"},{"inputs":[1.4500000476837158,[0.0,0.0,0.0]],"is_active_output":false,"name":"Fresnel","outputs":[0.0],"type":"FRESNEL_BL"},{"inputs":[[0.800000011920929,0.800000011920929,0.800000011920929,1.0],0.0,0.0,1.4500000476837158,1.0,[0.0,0.0,0.0],0.0,[1.0,0.20000000298023224,0.10000000149011612],0.05000000074505806,1.399999976158142,0.0,0.5,[1.0,1.0,1.0,1.0],0.0,0.0,[0.0,0.0,0.0],0.0,0.0,0.029999999329447746,1.5,[1.0,1.0,1.0,1.0],[0.0,0.0,0.0],0.0,0.5,[1.0,1.0,1.0,1.0],[0.0,0.0,0.0,1.0],1.0],"is_active_output":false,"name":"Principled BSDF","outputs":[[0,0,0,0]],"type":"BSDF_PRINCIPLED_BL"},{"blendType":"MIX","clampFactor":true,"clampResult":false,"dataType":"RGBA","factorMode":"UNIFORM","inputs":[0.5,[0.5,0.5,0.5],0.0,0.0,[0.0,0.0,0.0],[0.0,0.0,0.0],[0.0,0.0,0.0,1.0],[0.5,0.5,0.5,1.0],0,0],"is_active_output":false,"name":"Mix","outputs":[0.0,[0.0,0.0,0.0],[0.0,0.0,0.0,0.0],0],"type":"MIX_BL"},{"inputs":[[1.0,1.0,1.0,1.0],2.200000047683716],"is_active_output":false,"name":"Gamma","outputs":[[0.0,0.0,0.0,0.0]],"type":"GAMMA_BL"},{"inputs":[[0,0,0,0],[0,0,0,0],[0.0,0.0,0.0],0.0],"is_active_output":true,"name":"Material Output","outputs":[],"type":"OUTPUT_MATERIAL_BL"},{"inputs":[[0,0,0,0]],"is_active_output":false,"name":"Group","nodeGraph":0,"outputs":[[0,0,0,0]],"type":"GROUP_BL"},{"colorLayer":"basecolor","inputs":[],"is_active_output":false,"name":"Attribute","outputs":[[0.0,0.0,0.0,0.0],[0.0,0.0,0.0],0.0,0.0],"type":"ATTRIBUTE_BL"}]},"useCastShadows":true}},"name":"nightlight_uber"},{"extensions":{"S8S_v3d_materials":{"gtaoVisible":true,"materialIndex":0,"nodeGraph":{"edges":[{"fromNode":0,"fromOutput":0,"toInput":0,"toNode":1},{"fromNode":4,"fromOutput":0,"toInput":6,"toNode":3},{"fromNode":2,"fromOutput":0,"toInput":0,"toNode":3},{"fromNode":3,"fromOutput":2,"toInput":0,"toNode":0}],"nodes":[{"inputs":[[0.05087608844041824,0.05087608844041824,0.05087608844041824,1.0],1.0],"is_active_output":false,"name":"Background","outputs":[[0,0,0,0]],"type":"BACKGROUND_BL"},{"inputs":[[0,0,0,0],[0,0,0,0]],"is_active_output":true,"name":"World Output","outputs":[],"type":"OUTPUT_WORLD_BL"},{"inputs":[],"is_active_output":false,"name":"Light Path","outputs":[0.0,0.0,0.0,0.0,0.0,0.0,0.0,0.0,0.0,0.0,0.0,0.0,0.0],"type":"LIGHT_PATH_BL"},{"blendType":"MIX","clampFactor":true,"clampResult":false,"dataType":"RGBA","factorMode":"UNIFORM","inputs":[0.5,[0.5,0.5,0.5],0.0,0.0,[0.0,0.0,0.0],[0.0,0.0,0.0],[0.5,0.5,0.5,1.0],[0.05126946419477463,0.05126946419477463,0.05126946419477463,1.0],0,0],"is_active_output":false,"name":"Mix","outputs":[0.0,[0.0,0.0,0.0],[0.0,0.0,0.0,0.0],0],"type":"MIX_BL"},{"inputs":[[0.0,0.0,0.0]],"is_active_output":false,"name":"Environment Texture","outputs":[[0.0,0.0,0.0,0.0]],"projection":"EQUIRECTANGULAR","texture":2,"type":"TEX_ENVIRONMENT_BL"}]},"useCastShadows":true}},"name":"Verge3D_Environment_World"}],"meshes":[{"extensions":{"S8S_v3d_mesh":{"colorLayers":{"basecolor":"COLOR_0","rought_met_spec":"COLOR_1"},"uvLayers":{"UVMap":"TEXCOORD_0"}}},"name":"Plane.002","primitives":[{"attributes":{"COLOR_0":5,"COLOR_1":6,"NORMAL":2,"POSITION":1,"TANGENT":3,"TEXCOORD_0":4},"indices":0,"material":1,"mode":4},{"attributes":{"COLOR_0":12,"COLOR_1":13,"NORMAL":9,"POSITION":8,"TANGENT":10,"TEXCOORD_0":11},"indices":7,"material":0,"mode":4}]}],"nodes":[{"extensions":{"S8S_v3d_node":{"frustumCulling":true,"groupNames":["nightlight"],"hidden":false,"hidpiCompositing":false,"objectColor":[1.0,1.0,1.0,1.0],"objectIndex":0,"renderOrder":0,"useShadows":true}},"mesh":0,"name":"nightlight"},{"children":[0],"extensions":{"S8S_v3d_node":{"frustumCulling":true,"groupNames":["nightlight"],"hidden":false,"hidpiCompositing":false,"objectColor":[1.0,1.0,1.0,1.0],"objectIndex":0,"renderOrder":0}},"name":"nightlight_base"},{"camera":0,"name":"__DEFAULT_CAMERA__","rotation":[-0.13124747574329376,0.8199283480644226,0.20820759236812592,0.5168570876121521],"scale":[0.9999997019767761,0.9999996423721313,0.9999997615814209],"translation":[1.9236202239990234,1.820534586906433,-0.9300370216369629]}],"samplers":[{}],"scene":0,"scenes":[{"extensions":{"S8S_v3d_scene":{"aaMethod":"AUTO","iblEnvironmentMode":"PMREM","physicallyCorrectLights":true,"pmremMaxTileSize":512,"shadowMap":{"esmDistanceScale":1.0,"renderReverseSided":false,"renderSingleSided":true,"type":"PCFPOISSON"},"toneMapping":{"type":"filmicBlender"},"worldMaterial":2}},"extras":{"animFrameRate":24,"coordSystem":"Z_UP_RIGHT"},"name":"Scene","nodes":[1,2]}],"textures":[{"extensions":{"KHR_texture_basisu":{"source":0},"S8S_v3d_texture":{"colorSpace":"srgb"}},"name":"Chair_Linen_basecolor","sampler":0},{"extensions":{"KHR_texture_basisu":{"source":1},"S8S_v3d_texture":{"colorSpace":"non-color"}},"name":"Chair_Linen_normal","sampler":0},{"extensions":{"S8S_v3d_texture":{"colorSpace":"linear rec.709","source":2}},"name":"environment.hdr","sampler":0},{"extensions":{"S8S_v3d_texture":{"colorSpace":"non-color"}},"name":"nightstand_ao","sampler":0,"source":3}]}
