{"accessors":[{"bufferView":0,"componentType":5123,"count":1320,"max":[447],"min":[0],"type":"SCALAR"},{"bufferView":1,"componentType":5126,"count":448,"max":[0.23956169188022614,0.44662612676620483,0.23956157267093658],"min":[-0.23956163227558136,0.4428200125694275,-0.2395617514848709],"type":"VEC3"},{"bufferView":2,"componentType":5126,"count":448,"max":[1.0,1.0,1.0],"min":[-1.0,0.0,-1.0],"type":"VEC3"},{"bufferView":3,"componentType":5126,"count":448,"max":[0.995467483997345,0.9972786903381348],"min":[0.9688549041748047,0.8183466792106628],"type":"VEC2"},{"bufferView":4,"componentType":5123,"count":1872,"max":[357],"min":[0],"type":"SCALAR"},{"bufferView":5,"componentType":5126,"count":358,"max":[0.017844313755631447,0.00394758116453886,0.07592769712209702],"min":[-0.017908157780766487,-0.01301953848451376,-0.06329526752233505],"type":"VEC3"},{"bufferView":6,"componentType":5126,"count":358,"max":[0.9995204210281372,0.9999303221702576,0.9943288564682007],"min":[-0.9994584321975708,-0.9999880790710449,-0.9996413588523865],"type":"VEC3"},{"bufferView":7,"componentType":5126,"count":358,"max":[0.9961621761322021,0.6624998450279236],"min":[0.0025110244750976562,0.40595388412475586],"type":"VEC2"},{"bufferView":8,"componentType":5123,"count":16428,"max":[3125],"min":[0],"type":"SCALAR"},{"bufferView":9,"componentType":5126,"count":3126,"max":[0.10353744029998779,0.06075127795338631,0.10353744029998779],"min":[-0.10353744029998779,-0.010715363547205925,-0.10353744029998779],"type":"VEC3"},{"bufferView":10,"componentType":5126,"count":3126,"max":[0.9995280504226685,1.0,0.9995278716087341],"min":[-0.9998443126678467,-1.0,-0.9995279908180237],"type":"VEC3"},{"bufferView":11,"componentType":5126,"count":3126,"max":[0.9972842931747437,0.8269630670547485],"min":[0.24137592315673828,0.01762145757675171],"type":"VEC2"},{"bufferView":12,"componentType":5123,"count":1536,"max":[385],"min":[0],"type":"SCALAR"},{"bufferView":13,"componentType":5126,"count":386,"max":[0.2816693186759949,0.44997403025627136,0.2816694378852844],"min":[-0.28166937828063965,0.446622759103775,-0.2816692590713501],"type":"VEC3"},{"bufferView":14,"componentType":5126,"count":386,"max":[1.0,1.0,1.0],"min":[-1.0,-1.0,-1.0],"type":"VEC3"},{"bufferView":15,"componentType":5123,"count":1884,"max":[703],"min":[0],"type":"SCALAR"},{"bufferView":16,"componentType":5126,"count":704,"max":[0.2471589893102646,0.4436415135860443,0.2471589893102646],"min":[-0.2471589893102646,-1.581868802613684e-10,-0.2471589893102646],"type":"VEC3"},{"bufferView":17,"componentType":5126,"count":704,"max":[1.0,1.0,1.0],"min":[-1.0,-1.0,-1.0],"type":"VEC3"},{"bufferView":18,"componentType":5126,"count":704,"max":[1.0,1.0,0.9990017414093018,1.0],"min":[-0.9997691512107849,-1.0,-1.0,1.0],"type":"VEC4"},{"bufferView":19,"componentType":5126,"count":704,"max":[0.9972755908966064,0.9972808957099915],"min":[0.0027231310959905386,0.04130429029464722],"type":"VEC2"}],"asset":{"generator":"Verge3D for Blender v4.6.0","version":"2.0"},"bufferViews":[{"buffer":0,"byteLength":2640,"byteOffset":0,"target":34963},{"buffer":0,"byteLength":5376,"byteOffset":2640,"target":34962},{"buffer":0,"byteLength":5376,"byteOffset":8016,"target":34962},{"buffer":0,"byteLength":3584,"byteOffset":13392,"target":34962},{"buffer":0,"byteLength":3744,"byteOffset":16976,"target":34963},{"buffer":0,"byteLength":4296,"byteOffset":20720,"target":34962},{"buffer":0,"byteLength":4296,"byteOffset":25016,"target":34962},{"buffer":0,"byteLength":2864,"byteOffset":29312,"target":34962},{"buffer":0,"byteLength":32856,"byteOffset":32176,"target":34963},{"buffer":0,"byteLength":37512,"byteOffset":65032,"target":34962},{"buffer":0,"byteLength":37512,"byteOffset":102544,"target":34962},{"buffer":0,"byteLength":25008,"byteOffset":140056,"target":34962},{"buffer":0,"byteLength":3072,"byteOffset":165064,"target":34963},{"buffer":0,"byteLength":4632,"byteOffset":168136,"target":34962},{"buffer":0,"byteLength":4632,"byteOffset":172768,"target":34962},{"buffer":0,"byteLength":3768,"byteOffset":177400,"target":34963},{"buffer":0,"byteLength":8448,"byteOffset":181168,"target":34962},{"buffer":0,"byteLength":8448,"byteOffset":189616,"target":34962},{"buffer":0,"byteLength":11264,"byteOffset":198064,"target":34962},{"buffer":0,"byteLength":5632,"byteOffset":209328,"target":34962}],"buffers":[{"byteLength":214960,"uri":"table.bin"}],"cameras":[{"extensions":{"S8S_v3d_camera":{"controls":"ORBIT","enablePan":true,"moveSpeed":1,"orbitMaxDistance":10000,"orbitMaxPolarAngle":3.141592653589793,"orbitMinDistance":0,"orbitMinPolarAngle":0,"orbitTarget":[0.045914437621831894,0.32538700103759766,0.052460622042417526],"rotateSpeed":1,"viewportFitInitialAspect":1,"viewportFitType":"VERTICAL"}},"name":"__DEFAULT__","perspective":{"aspectRatio":1,"yfov":0.7853981633974483,"zfar":1000.0,"znear":0.009999999776482582},"type":"perspective"}],"extensions":{"S8S_v3d_materials":{"nodeGraphs":[{"edges":[{"fromNode":5,"fromOutput":0,"toInput":2,"toNode":1},{"fromNode":4,"fromOutput":0,"toInput":1,"toNode":1},{"fromNode":2,"fromOutput":0,"toInput":0,"toNode":3},{"fromNode":0,"fromOutput":0,"toInput":0,"toNode":1},{"fromNode":6,"fromOutput":0,"toInput":0,"toNode":0},{"fromNode":1,"fromOutput":0,"toInput":0,"toNode":2}],"name":"Table AO","nodes":[{"alphaMode":"STRAIGHT","inputs":[[0.0,0.0,0.0]],"is_active_output":false,"name":"Image Texture.001","outputs":[[0.0,0.0,0.0,0.0],0.0],"projection":"FLAT","projectionBlend":0.0,"texture":3,"type":"TEX_IMAGE_BL"},{"inputs":[0.5,[0,0,0,0],[0,0,0,0]],"is_active_output":false,"name":"Mix Shader","outputs":[[0,0,0,0]],"type":"MIX_SHADER_BL"},{"inputs":[[0,0,0,0]],"is_active_output":false,"name":"Reroute.001","outputs":[[0,0,0,0]],"type":"REROUTE_BL"},{"inputs":[[0,0,0,0]],"is_active_output":true,"name":"Group Output","outputs":[],"type":"GROUP_OUTPUT_BL"},{"inputs":[[0.0,0.0,0.0,1.0],0.0,[0.0,0.0,0.0]],"is_active_output":false,"name":"Diffuse BSDF","outputs":[[0,0,0,0]],"type":"BSDF_DIFFUSE_BL"},{"inputs":[],"is_active_output":false,"name":"Group Input","outputs":[[0,0,0,0]],"type":"GROUP_INPUT_BL"},{"inputs":[],"is_active_output":false,"name":"UV Map","outputs":[[0.0,0.0,0.0]],"type":"UVMAP_BL","uvLayer":"UVMap"}]}]}},"extensionsUsed":["KHR_texture_basisu","S8S_v3d_texture","S8S_v3d_materials","S8S_v3d_camera","S8S_v3d_mesh","S8S_v3d_node","S8S_v3d_scene"],"images":[{"uri":"Chair_wood_normal.ktx2"},{"uri":"Chair_wood_basecolor.ktx2"},{"uri":"environment.hdr.xz"},{"uri":"table_ao.jpg"}],"materials":[{"extensions":{"S8S_v3d_materials":{"gtaoVisible":true,"materialIndex":0,"nodeGraph":{"edges":[{"fromNode":1,"fromOutput":0,"toInput":11,"toNode":2},{"fromNode":0,"fromOutput":1,"toInput":1,"toNode":1},{"fromNode":3,"fromOutput":0,"toInput":0,"toNode":4},{"fromNode":2,"fromOutput":0,"toInput":0,"toNode":3}],"nodes":[{"inputs":[],"is_active_output":false,"name":"Geometry","outputs":[[0.0,0.0,0.0],[0.0,0.0,0.0],[0.0,0.0,0.0],[0.0,0.0,0.0],[0.0,0.0,0.0],[0.0,0.0,0.0],0.0,0.0,0.0],"type":"NEW_GEOMETRY_BL"},{"inputs":[1.4500000476837158,[0.0,0.0,0.0]],"is_active_output":false,"name":"Fresnel","outputs":[0.0],"type":"FRESNEL_BL"},{"inputs":[[0.7820673584938049,0.762363851070404,0.7050047516822815,1.0],0.0,0.0,1.4500000476837158,1.0,[0.0,0.0,0.0],0.0,[1.0,0.20000000298023224,0.10000000149011612],0.05000000074505806,1.399999976158142,0.0,0.5,[1.0,1.0,1.0,1.0],0.0,0.0,[0.0,0.0,0.0],0.0,0.0,0.029999999329447746,1.5,[1.0,1.0,1.0,1.0],[0.0,0.0,0.0],0.0,0.5,[1.0,1.0,1.0,1.0],[0.0,0.0,0.0,1.0],1.0],"is_active_output":false,"name":"Principled BSDF","outputs":[[0,0,0,0]],"type":"BSDF_PRINCIPLED_BL"},{"inputs":[[0,0,0,0]],"is_active_output":false,"name":"Group","nodeGraph":0,"outputs":[[0,0,0,0]],"type":"GROUP_BL"},{"inputs":[[0,0,0,0],[0,0,0,0],[0.0,0.0,0.0],0.0],"is_active_output":true,"name":"Material Output","outputs":[],"type":"OUTPUT_MATERIAL_BL"}]},"useCastShadows":true}},"name":"cup_ceramic"},{"extensions":{"S8S_v3d_materials":{"gtaoVisible":true,"materialIndex":0,"nodeGraph":{"edges":[{"fromNode":0,"fromOutput":0,"toInput":0,"toNode":1},{"fromNode":1,"fromOutput":0,"toInput":0,"toNode":2}],"nodes":[{"inputs":[[0.48195886611938477,0.48195886611938477,0.48195886611938477,1.0],1.0,0.10454544425010681,1.4500000476837158,1.0,[0.0,0.0,0.0],0.0,[1.0,0.20000000298023224,0.10000000149011612],0.05000000074505806,1.399999976158142,0.0,0.0,[1.0,1.0,1.0,1.0],0.0,0.0,[0.0,0.0,0.0],0.0,0.0,0.029999999329447746,1.5,[1.0,1.0,1.0,1.0],[0.0,0.0,0.0],0.0,0.5,[1.0,1.0,1.0,1.0],[0.0,0.0,0.0,1.0],1.0],"is_active_output":false,"name":"Principled BSDF","outputs":[[0,0,0,0]],"type":"BSDF_PRINCIPLED_BL"},{"inputs":[[0,0,0,0]],"is_active_output":false,"name":"Group","nodeGraph":0,"outputs":[[0,0,0,0]],"type":"GROUP_BL"},{"inputs":[[0,0,0,0],[0,0,0,0],[0.0,0.0,0.0],0.0],"is_active_output":true,"name":"Material Output","outputs":[],"type":"OUTPUT_MATERIAL_BL"}]},"useCastShadows":true}},"name":"spoon_chrome"},{"extensions":{"S8S_v3d_materials":{"gtaoVisible":true,"materialIndex":0,"nodeGraph":{"edges":[{"fromNode":0,"fromOutput":0,"toInput":0,"toNode":2},{"fromNode":2,"fromOutput":0,"toInput":0,"toNode":1}],"nodes":[{"inputs":[[0.37009674310684204,0.37009674310684204,0.37009674310684204,1.0],0.16818182170391083,0.15000000596046448,1.4500000476837158,1.0,[0.0,0.0,0.0],0.0,[1.0,0.20000000298023224,0.10000000149011612],0.05000000074505806,1.399999976158142,0.0,0.5,[1.0,1.0,1.0,1.0],0.0,0.0,[0.0,0.0,0.0],0.0,0.0,0.029999999329447746,1.5,[1.0,1.0,1.0,1.0],[0.0,0.0,0.0],0.0,0.5,[1.0,1.0,1.0,1.0],[0.0,0.0,0.0,1.0],1.0],"is_active_output":false,"name":"Principled BSDF","outputs":[[0,0,0,0]],"type":"BSDF_PRINCIPLED_BL"},{"inputs":[[0,0,0,0],[0,0,0,0],[0.0,0.0,0.0],0.0],"is_active_output":true,"name":"Material Output","outputs":[],"type":"OUTPUT_MATERIAL_BL"},{"inputs":[[0,0,0,0]],"is_active_output":false,"name":"Group","nodeGraph":0,"outputs":[[0,0,0,0]],"type":"GROUP_BL"}]},"useCastShadows":true}},"name":"table_chrome"},{"alphaMode":"BLEND","doubleSided":true,"extensions":{"S8S_v3d_materials":{"depthWrite":false,"gtaoVisible":false,"materialIndex":0,"nodeGraph":{"edges":[{"fromNode":4,"fromOutput":0,"toInput":1,"toNode":1},{"fromNode":5,"fromOutput":0,"toInput":2,"toNode":1},{"fromNode":1,"fromOutput":0,"toInput":0,"toNode":0},{"fromNode":2,"fromOutput":1,"toInput":1,"toNode":3},{"fromNode":6,"fromOutput":2,"toInput":0,"toNode":1},{"fromNode":3,"fromOutput":0,"toInput":0,"toNode":6}],"nodes":[{"inputs":[[0,0,0,0],[0,0,0,0],[0.0,0.0,0.0],0.0],"is_active_output":true,"name":"Material Output","outputs":[],"type":"OUTPUT_MATERIAL_BL"},{"inputs":[0.5,[0,0,0,0],[0,0,0,0]],"is_active_output":false,"name":"Mix Shader","outputs":[[0,0,0,0]],"type":"MIX_SHADER_BL"},{"inputs":[],"is_active_output":false,"name":"Geometry","outputs":[[0.0,0.0,0.0],[0.0,0.0,0.0],[0.0,0.0,0.0],[0.0,0.0,0.0],[0.0,0.0,0.0],[0.0,0.0,0.0],0.0,0.0,0.0],"type":"NEW_GEOMETRY_BL"},{"inputs":[1.4500000476837158,[0.0,0.0,0.0]],"is_active_output":false,"name":"Fresnel","outputs":[0.0],"type":"FRESNEL_BL"},{"inputs":[[0.800000011920929,0.800000011920929,0.800000011920929,1.0],0.0,0.0,0.0,[0.0,0.0,0.0],[0.0,0.0,0.0]],"is_active_output":false,"name":"Glossy BSDF","outputs":[[0,0,0,0]],"type":"BSDF_GLOSSY_BL"},{"inputs":[[1.0,1.0,1.0,1.0]],"is_active_output":false,"name":"Transparent BSDF","outputs":[[0,0,0,0]],"type":"BSDF_TRANSPARENT_BL"},{"blendType":"MIX","clampFactor":true,"clampResult":false,"dataType":"RGBA","factorMode":"UNIFORM","inputs":[0.5,[0.5,0.5,0.5],0.0,0.0,[0.0,0.0,0.0],[0.0,0.0,0.0],[0.32565972208976746,0.32565972208976746,0.32565972208976746,1.0],[1.0,1.0,1.0,1.0],0,0],"is_active_output":false,"name":"Mix","outputs":[0.0,[0.0,0.0,0.0],[0.0,0.0,0.0,0.0],0],"type":"MIX_BL"}]},"renderSide":"DOUBLE","useCastShadows":true}},"name":"table_glass"},{"extensions":{"S8S_v3d_materials":{"gtaoVisible":true,"materialIndex":0,"nodeGraph":{"edges":[{"fromNode":9,"fromOutput":0,"toInput":0,"toNode":5},{"fromNode":0,"fromOutput":0,"toInput":0,"toNode":9},{"fromNode":0,"fromOutput":0,"toInput":0,"toNode":8},{"fromNode":8,"fromOutput":0,"toInput":1,"toNode":4},{"fromNode":4,"fromOutput":0,"toInput":5,"toNode":5},{"fromNode":1,"fromOutput":0,"toInput":0,"toNode":0},{"fromNode":4,"fromOutput":0,"toInput":1,"toNode":2},{"fromNode":3,"fromOutput":2,"toInput":11,"toNode":5},{"fromNode":2,"fromOutput":0,"toInput":0,"toNode":3},{"fromNode":5,"fromOutput":0,"toInput":0,"toNode":6},{"fromNode":6,"fromOutput":0,"toInput":0,"toNode":7}],"nodes":[{"inputs":[[0.0,0.0,0.0],[0.0,0.0,0.0],[0.0,0.0,0.0],[5.0,5.0,5.0]],"is_active_output":false,"name":"Mapping","outputs":[[0.0,0.0,0.0]],"type":"MAPPING_BL","vectorType":"POINT"},{"inputs":[],"is_active_output":false,"name":"UV Map","outputs":[[0.0,0.0,0.0]],"type":"UVMAP_BL","uvLayer":"UVMap"},{"inputs":[1.4500000476837158,[0.0,0.0,0.0]],"is_active_output":false,"name":"Fresnel","outputs":[0.0],"type":"FRESNEL_BL"},{"blendType":"MIX","clampFactor":true,"clampResult":false,"dataType":"RGBA","factorMode":"UNIFORM","inputs":[0.5,[0.5,0.5,0.5],0.0,0.0,[0.0,0.0,0.0],[0.0,0.0,0.0],[0.0,0.0,0.0,1.0],[0.6499999761581421,0.6499999761581421,0.6499999761581421,1.0],0,0],"is_active_output":false,"name":"Mix","outputs":[0.0,[0.0,0.0,0.0],[0.0,0.0,0.0,0.0],0],"type":"MIX_BL"},{"inputs":[1.0,[0.5,0.5,1.0,1.0]],"is_active_output":false,"name":"Normal Map","outputs":[[0.0,0.0,0.0]],"type":"NORMAL_MAP_BL","uvLayer":""},{"inputs":[[0.800000011920929,0.800000011920929,0.800000011920929,1.0],0.0,0.25,1.4500000476837158,1.0,[0.0,0.0,0.0],0.0,[1.0,0.20000000298023224,0.10000000149011612],0.05000000074505806,1.399999976158142,0.0,0.5,[1.0,1.0,1.0,1.0],0.0,0.0,[0.0,0.0,0.0],0.0,0.0,0.029999999329447746,1.5,[1.0,1.0,1.0,1.0],[0.0,0.0,0.0],0.0,0.5,[1.0,1.0,1.0,1.0],[0.0,0.0,0.0,1.0],1.0],"is_active_output":false,"name":"Principled BSDF","outputs":[[0,0,0,0]],"type":"BSDF_PRINCIPLED_BL"},{"inputs":[[0,0,0,0]],"is_active_output":false,"name":"Group","nodeGraph":0,"outputs":[[0,0,0,0]],"type":"GROUP_BL"},{"inputs":[[0,0,0,0],[0,0,0,0],[0.0,0.0,0.0],0.0],"is_active_output":true,"name":"Material Output","outputs":[],"type":"OUTPUT_MATERIAL_BL"},{"alphaMode":"STRAIGHT","inputs":[[0.0,0.0,0.0]],"is_active_output":false,"name":"Image Texture.002","outputs":[[0.0,0.0,0.0,0.0],0.0],"projection":"FLAT","projectionBlend":0.0,"texture":0,"type":"TEX_IMAGE_BL"},{"alphaMode":"STRAIGHT","inputs":[[0.0,0.0,0.0]],"is_active_output":false,"name":"Image Texture.001","outputs":[[0.0,0.0,0.0,0.0],0.0],"projection":"FLAT","projectionBlend":0.0,"texture":1,"type":"TEX_IMAGE_BL"}]},"useCastShadows":true}},"name":"table_wood"},{"extensions":{"S8S_v3d_materials":{"gtaoVisible":true,"materialIndex":0,"nodeGraph":{"edges":[{"fromNode":1,"fromOutput":0,"toInput":0,"toNode":0},{"fromNode":2,"fromOutput":0,"toInput":6,"toNode":3},{"fromNode":3,"fromOutput":2,"toInput":0,"toNode":1},{"fromNode":4,"fromOutput":0,"toInput":0,"toNode":3}],"nodes":[{"inputs":[[0,0,0,0],[0,0,0,0]],"is_active_output":true,"name":"World Output","outputs":[],"type":"OUTPUT_WORLD_BL"},{"inputs":[[0.09599393606185913,0.09599393606185913,0.09599393606185913,1.0],1.0],"is_active_output":false,"name":"Background","outputs":[[0,0,0,0]],"type":"BACKGROUND_BL"},{"inputs":[[0.0,0.0,0.0]],"is_active_output":false,"name":"Environment Texture","outputs":[[0.0,0.0,0.0,0.0]],"projection":"EQUIRECTANGULAR","texture":2,"type":"TEX_ENVIRONMENT_BL"},{"blendType":"MIX","clampFactor":true,"clampResult":false,"dataType":"RGBA","factorMode":"UNIFORM","inputs":[0.5,[0.5,0.5,0.5],0.0,0.0,[0.0,0.0,0.0],[0.0,0.0,0.0],[0.5,0.5,0.5,1.0],[0.04658352583646774,0.04658352583646774,0.04658352583646774,1.0],0,0],"is_active_output":false,"name":"Mix","outputs":[0.0,[0.0,0.0,0.0],[0.0,0.0,0.0,0.0],0],"type":"MIX_BL"},{"inputs":[],"is_active_output":false,"name":"Light Path","outputs":[0.0,0.0,0.0,0.0,0.0,0.0,0.0,0.0,0.0,0.0,0.0,0.0,0.0],"type":"LIGHT_PATH_BL"}]},"useCastShadows":true}},"name":"Verge3D_Environment_World"}],"meshes":[{"extensions":{"S8S_v3d_mesh":{"colorLayers":{},"uvLayers":{"UVMap":"TEXCOORD_0"}}},"name":"Circle.003","primitives":[{"attributes":{"NORMAL":2,"POSITION":1,"TEXCOORD_0":3},"indices":0,"material":2,"mode":4}]},{"extensions":{"S8S_v3d_mesh":{"colorLayers":{},"uvLayers":{"UVMap":"TEXCOORD_0"}}},"name":"Cube.001","primitives":[{"attributes":{"NORMAL":6,"POSITION":5,"TEXCOORD_0":7},"indices":4,"material":1,"mode":4}]},{"extensions":{"S8S_v3d_mesh":{"colorLayers":{},"uvLayers":{"UVMap":"TEXCOORD_0"}}},"name":"CUBezierCircle.002","primitives":[{"attributes":{"NORMAL":10,"POSITION":9,"TEXCOORD_0":11},"indices":8,"material":0,"mode":4}]},{"extensions":{"S8S_v3d_mesh":{"colorLayers":{},"uvLayers":{}}},"name":"Cylinder.002","primitives":[{"attributes":{"NORMAL":14,"POSITION":13},"indices":12,"material":3,"mode":4}]},{"extensions":{"S8S_v3d_mesh":{"colorLayers":{},"uvLayers":{"UVMap":"TEXCOORD_0"}}},"name":"Plane.002","primitives":[{"attributes":{"NORMAL":17,"POSITION":16,"TANGENT":18,"TEXCOORD_0":19},"indices":15,"material":4,"mode":4}]}],"nodes":[{"extensions":{"S8S_v3d_node":{"frustumCulling":true,"groupNames":["table"],"hidden":false,"hidpiCompositing":false,"objectColor":[1.0,1.0,1.0,1.0],"objectIndex":0,"renderOrder":0,"useShadows":true}},"mesh":4,"name":"table_glassholder"},{"extensions":{"S8S_v3d_node":{"frustumCulling":true,"groupNames":["table"],"hidden":false,"hidpiCompositing":false,"objectColor":[1.0,1.0,1.0,1.0],"objectIndex":0,"renderOrder":0,"useShadows":true}},"mesh":0,"name":"table_pins"},{"extensions":{"S8S_v3d_node":{"frustumCulling":true,"groupNames":["table"],"hidden":false,"hidpiCompositing":false,"objectColor":[1.0,1.0,1.0,1.0],"objectIndex":0,"renderOrder":0,"useShadows":true}},"mesh":2,"name":"cup","rotation":[-0.0,-0.9786680936813354,0.0,0.205447718501091],"translation":[-0.09683691710233688,0.460712730884552,-0.09637202322483063]},{"children":[2,5,0,1,4],"extensions":{"S8S_v3d_node":{"frustumCulling":true,"groupNames":["table"],"hidden":false,"hidpiCompositing":false,"objectColor":[1.0,1.0,1.0,1.0],"objectIndex":0,"renderOrder":0}},"name":"table_base"},{"extensions":{"S8S_v3d_node":{"frustumCulling":true,"groupNames":["table"],"hidden":false,"hidpiCompositing":false,"objectColor":[1.0,1.0,1.0,1.0],"objectIndex":0,"renderOrder":0,"useShadows":true}},"mesh":3,"name":"table_top"},{"extensions":{"S8S_v3d_node":{"frustumCulling":true,"groupNames":["table"],"hidden":false,"hidpiCompositing":false,"objectColor":[1.0,1.0,1.0,1.0],"objectIndex":0,"renderOrder":0,"useShadows":true}},"mesh":1,"name":"spoon","rotation":[0.023933257907629013,0.2903120815753937,-0.002249258104711771,0.9566300511360168],"scale":[1.0,0.9999998211860657,0.9999998211860657],"translation":[-0.1258871853351593,0.47391030192375183,-0.041445888578891754]},{"camera":0,"name":"__DEFAULT_CAMERA__","rotation":[-0.25466927886009216,0.47512087225914,0.13814190030097961,0.8308553099632263],"scale":[0.9999999403953552,1.0,0.9999998211860657],"translation":[0.6826953291893005,0.8163349628448486,0.423298180103302]}],"samplers":[{}],"scene":0,"scenes":[{"extensions":{"S8S_v3d_scene":{"aaMethod":"AUTO","iblEnvironmentMode":"PMREM","physicallyCorrectLights":true,"pmremMaxTileSize":512,"shadowMap":{"esmDistanceScale":1.0,"renderReverseSided":false,"renderSingleSided":true,"type":"PCFPOISSON"},"worldMaterial":5}},"extras":{"animFrameRate":24,"coordSystem":"Z_UP_RIGHT"},"name":"Scene","nodes":[3,6]}],"textures":[{"extensions":{"KHR_texture_basisu":{"source":0},"S8S_v3d_texture":{"colorSpace":"non-color"}},"name":"Chair_wood_normal.png","sampler":0},{"extensions":{"KHR_texture_basisu":{"source":1},"S8S_v3d_texture":{"colorSpace":"srgb"}},"name":"Chair_wood_basecolor","sampler":0},{"extensions":{"S8S_v3d_texture":{"colorSpace":"linear rec.709","source":2}},"name":"environment.hdr","sampler":0},{"extensions":{"S8S_v3d_texture":{"colorSpace":"non-color"}},"name":"table_ao","sampler":0,"source":3}]}
