{"accessors":[{"bufferView":0,"componentType":5123,"count":960,"max":[959],"min":[0],"type":"SCALAR"},{"bufferView":1,"componentType":5126,"count":960,"max":[6.328114032745361,6.3281145095825195,6.328114032745361],"min":[-6.3281145095825195,-6.3281145095825195,-6.328114032745361],"type":"VEC3"},{"bufferView":2,"componentType":5126,"count":960,"max":[0.9854124784469604,0.9877859950065613,0.9846491813659668],"min":[-0.9854125380516052,-0.9877859950065613,-0.9846491813659668],"type":"VEC3"},{"bufferView":3,"componentType":5126,"count":960,"max":[0.9984399080276489,0.9984399676322937],"min":[0.0015600540209561586,0.002921164035797119],"type":"VEC2"},{"bufferView":4,"componentType":5123,"count":2880,"max":[481],"min":[0],"type":"SCALAR"},{"bufferView":5,"componentType":5126,"count":482,"max":[1.000000238418579,1.0,1.0000003576278687],"min":[-0.9999998211860657,-1.0,-0.9999991655349731],"type":"VEC3"},{"bufferView":6,"componentType":5126,"count":482,"max":[1.0,1.0,1.0],"min":[-1.0,-1.0,-1.0],"type":"VEC3"},{"bufferView":7,"componentType":5123,"count":2880,"max":[481],"min":[0],"type":"SCALAR"},{"bufferView":8,"componentType":5126,"count":482,"max":[1.000000238418579,1.0,1.0000003576278687],"min":[-0.9999998211860657,-1.0,-0.9999991655349731],"type":"VEC3"},{"bufferView":9,"componentType":5126,"count":482,"max":[1.0,1.0,1.0],"min":[-1.0,-1.0,-1.0],"type":"VEC3"},{"bufferView":10,"componentType":5123,"count":2880,"max":[481],"min":[0],"type":"SCALAR"},{"bufferView":11,"componentType":5126,"count":482,"max":[1.000000238418579,1.0,1.0000003576278687],"min":[-0.9999998211860657,-1.0,-0.9999991655349731],"type":"VEC3"},{"bufferView":12,"componentType":5126,"count":482,"max":[1.0,1.0,1.0],"min":[-1.0,-1.0,-1.0],"type":"VEC3"},{"bufferView":13,"componentType":5123,"count":31392,"max":[5225],"min":[0],"type":"SCALAR"},{"bufferView":14,"componentType":5126,"count":5226,"max":[1.4385061264038086,0.03491957485675812,1.0744391679763794],"min":[-1.4385061264038086,-0.24724647402763367,-1.5720754861831665],"type":"VEC3"},{"bufferView":15,"componentType":5126,"count":5226,"max":[1.0,1.0,1.0],"min":[-1.0,-1.0,-1.0],"type":"VEC3"},{"bufferView":16,"componentType":5123,"count":96768,"max":[16127],"min":[0],"type":"SCALAR"},{"bufferView":17,"componentType":5126,"count":16128,"max":[1.2686214447021484,0.03491957485675812,0.9066744446754456],"min":[-1.268621563911438,-0.24724645912647247,-1.4011032581329346],"type":"VEC3"},{"bufferView":18,"componentType":5126,"count":16128,"max":[1.0,1.0,1.0],"min":[-1.0,-1.0,-1.0],"type":"VEC3"},{"bufferView":19,"componentType":5123,"count":20736,"max":[3455],"min":[0],"type":"SCALAR"},{"bufferView":20,"componentType":5126,"count":3456,"max":[0.36260831356048584,0.042403388768434525,-0.6262493133544922],"min":[-0.36260831356048584,-0.25041547417640686,-1.3514658212661743],"type":"VEC3"},{"bufferView":21,"componentType":5126,"count":3456,"max":[1.0,1.0,1.0],"min":[-1.0,-1.0,-1.0],"type":"VEC3"},{"bufferView":22,"componentType":5123,"count":20736,"max":[3455],"min":[0],"type":"SCALAR"},{"bufferView":23,"componentType":5126,"count":3456,"max":[-0.49376749992370605,0.042403362691402435,0.8570370078086853],"min":[-1.2189842462539673,-0.2504153847694397,0.13182036578655243],"type":"VEC3"},{"bufferView":24,"componentType":5126,"count":3456,"max":[1.0,1.0,1.0],"min":[-1.0,-1.0,-1.0],"type":"VEC3"},{"bufferView":25,"componentType":5123,"count":20736,"max":[3455],"min":[0],"type":"SCALAR"},{"bufferView":26,"componentType":5126,"count":3456,"max":[1.2189841270446777,0.042403362691402435,0.8570371866226196],"min":[0.4937673509120941,-0.2504154443740845,0.13182058930397034],"type":"VEC3"},{"bufferView":27,"componentType":5126,"count":3456,"max":[1.0,1.0,1.0],"min":[-1.0,-1.0,-1.0],"type":"VEC3"},{"bufferView":28,"componentType":5123,"count":33696,"max":[5619],"min":[0],"type":"SCALAR"},{"bufferView":29,"componentType":5126,"count":5620,"max":[0.49104276299476624,0.12228905409574509,0.4924643039703369],"min":[-0.49212029576301575,-0.3340052366256714,-0.4906986653804779],"type":"VEC3"},{"bufferView":30,"componentType":5126,"count":5620,"max":[1.0,1.0,1.0],"min":[-1.0,-1.0,-1.0],"type":"VEC3"},{"bufferView":31,"componentType":5126,"count":1631,"max":[100.0],"min":[0.0],"type":"SCALAR"},{"bufferView":32,"componentType":5126,"count":1631,"max":[0.0,0.9999992847442627,-0.0,1.0],"min":[0.0,-0.9999884366989136,-0.0,-0.999998927116394],"type":"VEC4"}],"animations":[{"channels":[{"sampler":0,"target":{"node":2,"path":"rotation"}}],"extensions":{"S8S_v3d_animation":{"auto":false,"loop":"REPEAT","offset":0.0,"repeatCount":1.0,"repeatInfinite":false}},"name":"Spinner rings","samplers":[{"input":31,"interpolation":"LINEAR","output":32}]},{"channels":[{"sampler":0,"target":{"node":8,"path":"rotation"}}],"extensions":{"S8S_v3d_animation":{"auto":false,"loop":"REPEAT","offset":0.0,"repeatCount":1.0,"repeatInfinite":false}},"name":"Spinner","samplers":[{"input":31,"interpolation":"LINEAR","output":32}]}],"asset":{"generator":"Verge3D for Blender v4.7.0","version":"2.0"},"bufferViews":[{"buffer":0,"byteLength":1920,"byteOffset":0,"target":34963},{"buffer":0,"byteLength":11520,"byteOffset":1920,"target":34962},{"buffer":0,"byteLength":11520,"byteOffset":13440,"target":34962},{"buffer":0,"byteLength":7680,"byteOffset":24960,"target":34962},{"buffer":0,"byteLength":5760,"byteOffset":32640,"target":34963},{"buffer":0,"byteLength":5784,"byteOffset":38400,"target":34962},{"buffer":0,"byteLength":5784,"byteOffset":44184,"target":34962},{"buffer":0,"byteLength":5760,"byteOffset":49968,"target":34963},{"buffer":0,"byteLength":5784,"byteOffset":55728,"target":34962},{"buffer":0,"byteLength":5784,"byteOffset":61512,"target":34962},{"buffer":0,"byteLength":5760,"byteOffset":67296,"target":34963},{"buffer":0,"byteLength":5784,"byteOffset":73056,"target":34962},{"buffer":0,"byteLength":5784,"byteOffset":78840,"target":34962},{"buffer":0,"byteLength":62784,"byteOffset":84624,"target":34963},{"buffer":0,"byteLength":62712,"byteOffset":147408,"target":34962},{"buffer":0,"byteLength":62712,"byteOffset":210120,"target":34962},{"buffer":0,"byteLength":193536,"byteOffset":272832,"target":34963},{"buffer":0,"byteLength":193536,"byteOffset":466368,"target":34962},{"buffer":0,"byteLength":193536,"byteOffset":659904,"target":34962},{"buffer":0,"byteLength":41472,"byteOffset":853440,"target":34963},{"buffer":0,"byteLength":41472,"byteOffset":894912,"target":34962},{"buffer":0,"byteLength":41472,"byteOffset":936384,"target":34962},{"buffer":0,"byteLength":41472,"byteOffset":977856,"target":34963},{"buffer":0,"byteLength":41472,"byteOffset":1019328,"target":34962},{"buffer":0,"byteLength":41472,"byteOffset":1060800,"target":34962},{"buffer":0,"byteLength":41472,"byteOffset":1102272,"target":34963},{"buffer":0,"byteLength":41472,"byteOffset":1143744,"target":34962},{"buffer":0,"byteLength":41472,"byteOffset":1185216,"target":34962},{"buffer":0,"byteLength":67392,"byteOffset":1226688,"target":34963},{"buffer":0,"byteLength":67440,"byteOffset":1294080,"target":34962},{"buffer":0,"byteLength":67440,"byteOffset":1361520,"target":34962},{"buffer":0,"byteLength":6524,"byteOffset":1428960},{"buffer":0,"byteLength":26096,"byteOffset":1435484}],"buffers":[{"byteLength":1461580,"uri":"spinner.bin"}],"cameras":[{"extensions":{"S8S_v3d_camera":{"controls":"ORBIT","enablePan":false,"moveSpeed":1.0,"orbitMaxDistance":10.0,"orbitMaxPolarAngle":3.1415927410125732,"orbitMaxZoom":100.0,"orbitMinDistance":4.0,"orbitMinPolarAngle":0.0,"orbitMinZoom":0.009999999776482582,"orbitTarget":[0.0,0.0,-0.0],"rotateSpeed":1.0,"viewportFitInitialAspect":2.008547067642212,"viewportFitType":"VERTICAL"}},"name":"Camera","perspective":{"aspectRatio":2.008547067642212,"yfov":0.5033799409866333,"zfar":100.0,"znear":0.10000000149011612},"type":"perspective"}],"extensions":{"S8S_v3d_lights":{"lights":[{"color":[1.0,1.0,1.0],"intensity":1.0,"name":"Lamp","profile":"blender","shadow":{"bias":-3.6000001709908247e-06,"cameraFar":100,"cameraFov":0,"cameraNear":0.1,"csm":{"count":4,"exponent":0.800000011920929,"fade":0.10000000149011612,"lightMargin":0.0,"maxDistance":1000.0},"enabled":false,"expBias":2.5,"mapSize":1024,"radius":1.0,"slopeScaledBias":2.5},"type":"directional"},{"color":[1.0,1.0,1.0],"intensity":1.0,"name":"Lamp.001","profile":"blender","shadow":{"bias":-3.6000001709908247e-06,"cameraFar":100,"cameraFov":0,"cameraNear":0.1,"csm":{"count":4,"exponent":0.800000011920929,"fade":0.10000000149011612,"lightMargin":0.0,"maxDistance":1000.0},"enabled":false,"expBias":2.5,"mapSize":1024,"radius":1.0,"slopeScaledBias":2.5},"type":"directional"},{"color":[1.0,1.0,1.0],"intensity":1.0,"name":"Lamp2","profile":"blender","shadow":{"bias":-3.6000001709908247e-06,"cameraFar":100,"cameraFov":0,"cameraNear":0.1,"csm":{"count":4,"exponent":0.800000011920929,"fade":0.10000000149011612,"lightMargin":0.0,"maxDistance":1000.0},"enabled":false,"expBias":2.5,"mapSize":1024,"radius":1.0,"slopeScaledBias":2.5},"type":"directional"}]}},"extensionsUsed":["S8S_v3d_texture","S8S_v3d_materials","S8S_v3d_camera","S8S_v3d_lights","S8S_v3d_mesh","S8S_v3d_node","S8S_v3d_animation","S8S_v3d_scene"],"images":[{"uri":"environment_diff.png"},{"uri":"equirectangular_environment.jpg"}],"materials":[{"alphaMode":"OPAQUE","extensions":{"S8S_v3d_materials":{"gtaoVisible":true,"materialIndex":0,"nodeGraph":{"edges":[{"fromNode":1,"fromOutput":0,"toInput":0,"toNode":0}],"nodes":[{"inputs":[[0,0,0,0],[0,0,0,0],[0.0,0.0,0.0],0.0],"is_active_output":true,"name":"Material Output","outputs":[],"type":"OUTPUT_MATERIAL_BL"},{"inputs":[[0.0,0.01080289762467146,0.8000000715255737,1.0],1.0,0.5,1.4500000476837158,1.0,[0.0,0.0,0.0],0.0,[1.0,1.0,1.0],0.05000000074505806,1.399999976158142,0.0,1.0,[1.0,1.0,1.0,1.0],0.0,0.0,[0.0,0.0,0.0],0.0,0.0,0.029999999329447746,1.5,[1.0,1.0,1.0,1.0],[0.0,0.0,0.0],0.0,0.5,[1.0,1.0,1.0,1.0],[0.0,0.0,0.0,1.0],1.0],"is_active_output":false,"name":"Principled BSDF","outputs":[[0,0,0,0]],"type":"BSDF_PRINCIPLED_BL"}]}}},"name":"Blue"},{"alphaMode":"OPAQUE","extensions":{"S8S_v3d_materials":{"gtaoVisible":true,"materialIndex":0,"nodeGraph":{"edges":[{"fromNode":1,"fromOutput":0,"toInput":0,"toNode":0}],"nodes":[{"inputs":[[0,0,0,0],[0,0,0,0],[0.0,0.0,0.0],0.0],"is_active_output":true,"name":"Material Output","outputs":[],"type":"OUTPUT_MATERIAL_BL"},{"inputs":[[0.07818741351366043,0.17788845300674438,0.799102783203125,1.0],0.0,0.10000000149011612,1.4500000476837158,1.0,[0.0,0.0,0.0],0.0,[1.0,1.0,1.0],0.05000000074505806,1.399999976158142,0.0,1.0,[1.0,1.0,1.0,1.0],0.0,0.0,[0.0,0.0,0.0],0.0,0.0,0.029999999329447746,1.5,[1.0,1.0,1.0,1.0],[0.0,0.0,0.0],0.0,0.5,[1.0,1.0,1.0,1.0],[0.0,0.0,0.0,1.0],1.0],"is_active_output":false,"name":"Principled BSDF","outputs":[[0,0,0,0]],"type":"BSDF_PRINCIPLED_BL"}]}}},"name":"CoverBlue"},{"alphaMode":"OPAQUE","extensions":{"S8S_v3d_materials":{"gtaoVisible":true,"materialIndex":0,"nodeGraph":{"edges":[{"fromNode":1,"fromOutput":0,"toInput":0,"toNode":0}],"nodes":[{"inputs":[[0,0,0,0],[0,0,0,0],[0.0,0.0,0.0],0.0],"is_active_output":true,"name":"Material Output","outputs":[],"type":"OUTPUT_MATERIAL_BL"},{"inputs":[[0.0802198275923729,0.479320228099823,0.03560131788253784,1.0],0.0,0.10000000149011612,1.4500000476837158,1.0,[0.0,0.0,0.0],0.0,[1.0,1.0,1.0],0.05000000074505806,1.399999976158142,0.0,1.0,[1.0,1.0,1.0,1.0],0.0,0.0,[0.0,0.0,0.0],0.0,0.0,0.029999999329447746,1.5,[1.0,1.0,1.0,1.0],[0.0,0.0,0.0],0.0,0.5,[1.0,1.0,1.0,1.0],[0.0,0.0,0.0,1.0],1.0],"is_active_output":false,"name":"Principled BSDF","outputs":[[0,0,0,0]],"type":"BSDF_PRINCIPLED_BL"}]}}},"name":"CoverGreen"},{"alphaMode":"OPAQUE","extensions":{"S8S_v3d_materials":{"gtaoVisible":true,"materialIndex":0,"nodeGraph":{"edges":[{"fromNode":0,"fromOutput":0,"toInput":0,"toNode":1}],"nodes":[{"inputs":[[0.5906188488006592,0.4341537058353424,0.04373503103852272,1.0],0.0,0.10000000149011612,1.4500000476837158,1.0,[0.0,0.0,0.0],0.0,[1.0,1.0,1.0],0.05000000074505806,1.399999976158142,0.0,1.0,[1.0,1.0,1.0,1.0],0.0,0.0,[0.0,0.0,0.0],0.0,0.0,0.029999999329447746,1.5,[1.0,1.0,1.0,1.0],[0.0,0.0,0.0],0.0,0.5,[1.0,1.0,1.0,1.0],[0.0,0.0,0.0,1.0],1.0],"is_active_output":false,"name":"Principled BSDF","outputs":[[0,0,0,0]],"type":"BSDF_PRINCIPLED_BL"},{"inputs":[[0,0,0,0],[0,0,0,0],[0.0,0.0,0.0],0.0],"is_active_output":true,"name":"Material Output","outputs":[],"type":"OUTPUT_MATERIAL_BL"}]}}},"name":"CoverYellow"},{"alphaMode":"OPAQUE","extensions":{"S8S_v3d_materials":{"gtaoVisible":true,"materialIndex":0,"nodeGraph":{"edges":[{"fromNode":1,"fromOutput":0,"toInput":0,"toNode":0},{"fromNode":0,"fromOutput":0,"toInput":0,"toNode":2},{"fromNode":2,"fromOutput":0,"toInput":0,"toNode":3}],"nodes":[{"alphaMode":"STRAIGHT","inputs":[[0.0,0.0,0.0]],"is_active_output":false,"name":"Image Texture","outputs":[[0.0,0.0,0.0,0.0],0.0],"projection":"FLAT","projectionBlend":0.0,"texture":0,"type":"TEX_IMAGE_BL"},{"inputs":[],"is_active_output":false,"name":"UV Map","outputs":[[0.0,0.0,0.0]],"type":"UVMAP_BL","uvLayer":"UVMap"},{"inputs":[[0.800000011920929,0.800000011920929,0.800000011920929,1.0],1.0],"is_active_output":false,"name":"Emission","outputs":[[0,0,0,0]],"type":"EMISSION_BL"},{"inputs":[[0,0,0,0],[0,0,0,0],[0.0,0.0,0.0],0.0],"is_active_output":true,"name":"Material Output","outputs":[],"type":"OUTPUT_MATERIAL_BL"}]}}},"name":"environment"},{"alphaMode":"OPAQUE","extensions":{"S8S_v3d_materials":{"gtaoVisible":true,"materialIndex":0,"nodeGraph":{"edges":[{"fromNode":1,"fromOutput":0,"toInput":0,"toNode":0}],"nodes":[{"inputs":[[0,0,0,0],[0,0,0,0],[0.0,0.0,0.0],0.0],"is_active_output":true,"name":"Material Output","outputs":[],"type":"OUTPUT_MATERIAL_BL"},{"inputs":[[0.7605246305465698,0.03688944876194,0.022173885256052017,1.0],1.0,0.5,1.4500000476837158,1.0,[0.0,0.0,0.0],0.0,[1.0,1.0,1.0],0.05000000074505806,1.399999976158142,0.0,1.0,[1.0,1.0,1.0,1.0],0.0,0.0,[0.0,0.0,0.0],0.0,0.0,0.029999999329447746,1.5,[1.0,1.0,1.0,1.0],[0.0,0.0,0.0],0.0,0.5,[1.0,1.0,1.0,1.0],[0.0,0.0,0.0,1.0],1.0],"is_active_output":false,"name":"Principled BSDF","outputs":[[0,0,0,0]],"type":"BSDF_PRINCIPLED_BL"}]}}},"name":"Red"},{"alphaMode":"OPAQUE","extensions":{"S8S_v3d_materials":{"gtaoVisible":true,"materialIndex":0,"nodeGraph":{"edges":[{"fromNode":1,"fromOutput":0,"toInput":0,"toNode":0}],"nodes":[{"inputs":[[0,0,0,0],[0,0,0,0],[0.0,0.0,0.0],0.0],"is_active_output":true,"name":"Material Output","outputs":[],"type":"OUTPUT_MATERIAL_BL"},{"inputs":[[0.800000011920929,0.800000011920929,0.800000011920929,1.0],1.0,0.0,1.4500000476837158,1.0,[0.0,0.0,0.0],0.0,[1.0,1.0,1.0],0.05000000074505806,1.399999976158142,0.0,0.5,[1.0,1.0,1.0,1.0],0.0,0.0,[0.0,0.0,0.0],0.0,0.0,0.029999999329447746,1.5,[1.0,1.0,1.0,1.0],[0.0,0.0,0.0],0.0,0.5,[1.0,1.0,1.0,1.0],[0.0,0.0,0.0,1.0],1.0],"is_active_output":false,"name":"Principled BSDF","outputs":[[0,0,0,0]],"type":"BSDF_PRINCIPLED_BL"}]}}},"name":"Steel"},{"alphaMode":"OPAQUE","extensions":{"S8S_v3d_materials":{"gtaoVisible":true,"materialIndex":0,"nodeGraph":{"edges":[{"fromNode":0,"fromOutput":0,"toInput":0,"toNode":1}],"nodes":[{"inputs":[[1.0,0.8622993230819702,0.0,1.0],1.0,0.5,1.4500000476837158,1.0,[0.0,0.0,0.0],0.0,[1.0,1.0,1.0],0.05000000074505806,1.399999976158142,0.0,0.0,[1.0,1.0,1.0,1.0],0.0,0.0,[0.0,0.0,0.0],0.0,0.0,0.029999999329447746,1.5,[1.0,1.0,1.0,1.0],[0.0,0.0,0.0],0.0,0.5,[1.0,1.0,1.0,1.0],[0.0,0.0,0.0,1.0],1.0],"is_active_output":false,"name":"Principled BSDF","outputs":[[0,0,0,0]],"type":"BSDF_PRINCIPLED_BL"},{"inputs":[[0,0,0,0],[0,0,0,0],[0.0,0.0,0.0],0.0],"is_active_output":true,"name":"Material Output","outputs":[],"type":"OUTPUT_MATERIAL_BL"}]}}},"name":"Yellow"},{"alphaMode":"OPAQUE","extensions":{"S8S_v3d_materials":{"gtaoVisible":true,"materialIndex":0,"nodeGraph":{"edges":[{"fromNode":1,"fromOutput":0,"toInput":0,"toNode":0},{"fromNode":2,"fromOutput":0,"toInput":0,"toNode":1}],"nodes":[{"inputs":[[0,0,0,0],[0,0,0,0]],"is_active_output":true,"name":"World Output","outputs":[],"type":"OUTPUT_WORLD_BL"},{"inputs":[[1.0,1.0,1.0,1.0],1.0],"is_active_output":false,"name":"Background","outputs":[[0,0,0,0]],"type":"BACKGROUND_BL"},{"inputs":[[0.0,0.0,0.0]],"is_active_output":false,"name":"Environment Texture","outputs":[[0.0,0.0,0.0,0.0]],"projection":"EQUIRECTANGULAR","texture":1,"type":"TEX_ENVIRONMENT_BL"}]}}},"name":"Verge3D_Environment_World"}],"meshes":[{"extensions":{"S8S_v3d_mesh":{"colorLayers":{},"uvLayers":{"UVMap":"TEXCOORD_0"}}},"name":"Icosphere.001","primitives":[{"attributes":{"NORMAL":2,"POSITION":1,"TEXCOORD_0":3},"indices":0,"material":4,"mode":4}]},{"extensions":{"S8S_v3d_mesh":{"colorLayers":{},"uvLayers":{}}},"name":"Sphere","primitives":[{"attributes":{"NORMAL":6,"POSITION":5},"indices":4,"material":5,"mode":4}]},{"extensions":{"S8S_v3d_mesh":{"colorLayers":{},"uvLayers":{}}},"name":"Sphere.001","primitives":[{"attributes":{"NORMAL":9,"POSITION":8},"indices":7,"material":0,"mode":4}]},{"extensions":{"S8S_v3d_mesh":{"colorLayers":{},"uvLayers":{}}},"name":"Sphere.002","primitives":[{"attributes":{"NORMAL":12,"POSITION":11},"indices":10,"material":7,"mode":4}]},{"extensions":{"S8S_v3d_mesh":{"colorLayers":{},"uvLayers":{}}},"name":"Spinner","primitives":[{"attributes":{"NORMAL":15,"POSITION":14},"indices":13,"material":5,"mode":4}]},{"extensions":{"S8S_v3d_mesh":{"colorLayers":{},"uvLayers":{}}},"name":"Spinner rings","primitives":[{"attributes":{"NORMAL":18,"POSITION":17},"indices":16,"material":6,"mode":4},{"attributes":{"NORMAL":21,"POSITION":20},"indices":19,"material":1,"mode":4},{"attributes":{"NORMAL":24,"POSITION":23},"indices":22,"material":2,"mode":4},{"attributes":{"NORMAL":27,"POSITION":26},"indices":25,"material":3,"mode":4}]},{"extensions":{"S8S_v3d_mesh":{"colorLayers":{},"uvLayers":{}}},"name":"Spinner.001","primitives":[{"attributes":{"NORMAL":30,"POSITION":29},"indices":28,"material":5,"mode":4}]}],"nodes":[{"extensions":{"S8S_v3d_node":{"frustumCulling":true,"groupNames":["Collection 1"],"hidden":false,"hidpiCompositing":false,"objectColor":[1.0,1.0,1.0,1.0],"objectIndex":0,"renderOrder":0}},"mesh":1,"name":"Red Ball","scale":[0.368155837059021,0.368155837059021,0.368155837059021],"translation":[0.038958966732025146,8.749961853027344e-05,1.9919980764389038]},{"extensions":{"S8S_v3d_node":{"frustumCulling":true,"groupNames":["all parts","Collection 1","spinner parts"],"hidden":false,"hidpiCompositing":false,"objectColor":[1.0,1.0,1.0,1.0],"objectIndex":0,"renderOrder":0}},"mesh":6,"name":"Spinner Center"},{"extensions":{"S8S_v3d_node":{"frustumCulling":true,"groupNames":["all parts","Collection 1"],"hidden":false,"hidpiCompositing":false,"objectColor":[1.0,1.0,1.0,1.0],"objectIndex":0,"renderOrder":0}},"mesh":5,"name":"Spinner rings"},{"extensions":{"S8S_v3d_node":{"frustumCulling":true,"groupNames":["Collection 2"],"hidden":false,"hidpiCompositing":false,"objectColor":[1.0,1.0,1.0,1.0],"objectIndex":0,"renderOrder":0}},"mesh":0,"name":"Icosphere"},{"extensions":{"S8S_v3d_lights":{"light":1},"S8S_v3d_node":{"frustumCulling":true,"groupNames":["Collection 20"],"hidden":false,"hidpiCompositing":false,"objectColor":[0.0,0.0,0.0,0.0],"objectIndex":0,"renderOrder":0}},"name":"Lamp.001","rotation":[0.6831913590431213,0.2303341031074524,-0.2194911688566208,0.6572818756103516],"scale":[1.0,0.9999998211860657,0.9999999403953552],"translation":[-0.1947765350341797,-5.885728359222412,-0.15212726593017578]},{"extensions":{"S8S_v3d_lights":{"light":0},"S8S_v3d_node":{"frustumCulling":true,"groupNames":["Collection 20"],"hidden":false,"hidpiCompositing":false,"objectColor":[0.0,0.0,0.0,0.0],"objectIndex":0,"renderOrder":0}},"name":"Lamp","rotation":[0.05610642582178116,0.8258824944496155,0.42390987277030945,0.3675195574760437],"scale":[1.0,0.9999999403953552,0.9999998807907104],"translation":[4.7902960777282715,3.542560338973999,-6.437653064727783]},{"camera":0,"extensions":{"S8S_v3d_node":{"frustumCulling":true,"groupNames":["Collection 20"],"hidden":false,"hidpiCompositing":false,"objectColor":[0.0,0.0,0.0,0.0],"objectIndex":0,"renderOrder":0}},"name":"Camera","rotation":[-0.25810858607292175,0.3681166172027588,0.10714542865753174,0.8867863416671753],"scale":[0.9999999403953552,0.9999998807907104,0.9999998211860657],"translation":[3.7255938053131104,3.3361523151397705,3.6177070140838623]},{"extensions":{"S8S_v3d_node":{"frustumCulling":true,"groupNames":["Collection 1"],"hidden":false,"hidpiCompositing":false,"objectColor":[1.0,1.0,1.0,1.0],"objectIndex":0,"renderOrder":0}},"mesh":3,"name":"Yellow Ball","scale":[0.368155837059021,0.368155837059021,0.368155837059021],"translation":[1.9423949718475342,8.749961853027344e-05,-1.0563600063323975]},{"children":[2],"extensions":{"S8S_v3d_node":{"frustumCulling":true,"groupNames":["all parts","Collection 1","spinner parts"],"hidden":false,"hidpiCompositing":false,"objectColor":[1.0,1.0,1.0,1.0],"objectIndex":0,"renderOrder":0}},"mesh":4,"name":"Spinner"},{"extensions":{"S8S_v3d_node":{"frustumCulling":true,"groupNames":["Collection 1"],"hidden":false,"hidpiCompositing":false,"objectColor":[1.0,1.0,1.0,1.0],"objectIndex":0,"renderOrder":0}},"mesh":2,"name":"Blue Ball","scale":[0.368155837059021,0.368155837059021,0.368155837059021],"translation":[-1.908096194267273,8.749961853027344e-05,-1.0683143138885498]},{"extensions":{"S8S_v3d_lights":{"light":2},"S8S_v3d_node":{"frustumCulling":true,"groupNames":["Collection 20"],"hidden":false,"hidpiCompositing":false,"objectColor":[0.0,0.0,0.0,0.0],"objectIndex":0,"renderOrder":0}},"name":"Lamp2","rotation":[-0.3250003755092621,-0.4316905438899994,0.04813798889517784,0.8400599956512451],"scale":[1.0,0.9999998807907104,0.9999998807907104],"translation":[-4.932503700256348,3.3126752376556396,5.533341407775879]}],"samplers":[{}],"scene":0,"scenes":[{"extensions":{"S8S_v3d_scene":{"aaMethod":"AUTO","iblEnvironmentMode":"PMREM","physicallyCorrectLights":true,"pmremMaxTileSize":512,"worldMaterial":8}},"extras":{"animFrameRate":24,"coordSystem":"Z_UP_RIGHT"},"name":"Scene","nodes":[7,9,0,1,8,3,4,10,5,6]}],"textures":[{"extensions":{"S8S_v3d_texture":{"colorSpace":"srgb"}},"name":"environment_diff","sampler":0,"source":0},{"extensions":{"S8S_v3d_texture":{"colorSpace":"srgb"}},"name":"equirectangular_environment.jpg","sampler":0,"source":1}]}
