{"accessors":[{"bufferView":0,"componentType":5121,"count":6,"max":[3],"min":[0],"type":"SCALAR"},{"bufferView":1,"componentType":5126,"count":4,"max":[10.0,0.0,10.0],"min":[-10.0,0.0,-10.0],"type":"VEC3"},{"bufferView":2,"componentType":5126,"count":4,"max":[0.0,1.0,-0.0],"min":[0.0,1.0,-0.0],"type":"VEC3"},{"bufferView":3,"componentType":5126,"count":4,"max":[1.0,1.0],"min":[0.0,0.0],"type":"VEC2"},{"bufferView":4,"componentType":5121,"count":36,"max":[23],"min":[0],"type":"SCALAR"},{"bufferView":5,"componentType":5126,"count":24,"max":[2.1036713123321533,2.800670623779297,2.0070934295654297],"min":[-2.1036713123321533,0.0,-2.0070934295654297],"type":"VEC3"},{"bufferView":6,"componentType":5126,"count":24,"max":[1.0,1.0,1.0],"min":[-1.0,-1.0,-1.0],"type":"VEC3"},{"bufferView":7,"componentType":5126,"count":24,"max":[1.0,1.0],"min":[0.0,0.0],"type":"VEC2"},{"bufferView":8,"componentType":5126,"count":3,"max":[4.125],"min":[0.0],"type":"SCALAR"},{"bufferView":9,"componentType":5126,"count":3,"max":[-0.0,0.9119249582290649,-0.0,1.0],"min":[-0.0,0.0,-0.0,-0.9999619126319885],"type":"VEC4"}],"animations":[{"channels":[{"sampler":0,"target":{"node":3,"path":"rotation"}}],"extensions":{"S8S_v3d_animation":{"auto":false,"loop":"REPEAT","offset":0.0,"repeatCount":1.0,"repeatInfinite":true}},"name":"weapon_spawn_place_0","samplers":[{"input":8,"interpolation":"LINEAR","output":9}]}],"asset":{"generator":"Verge3D for Blender v4.6.0","version":"2.0"},"bufferViews":[{"buffer":0,"byteLength":6,"byteOffset":0,"target":34963},{"buffer":0,"byteLength":48,"byteOffset":8,"target":34962},{"buffer":0,"byteLength":48,"byteOffset":56,"target":34962},{"buffer":0,"byteLength":32,"byteOffset":104,"target":34962},{"buffer":0,"byteLength":36,"byteOffset":136,"target":34963},{"buffer":0,"byteLength":288,"byteOffset":172,"target":34962},{"buffer":0,"byteLength":288,"byteOffset":460,"target":34962},{"buffer":0,"byteLength":192,"byteOffset":748,"target":34962},{"buffer":0,"byteLength":12,"byteOffset":940},{"buffer":0,"byteLength":48,"byteOffset":952}],"buffers":[{"byteLength":1000,"uri":"tile_0.bin"}],"cameras":[{"extensions":{"S8S_v3d_camera":{"controls":"ORBIT","enablePan":true,"moveSpeed":1,"orbitMaxDistance":10000,"orbitMaxPolarAngle":3.141592653589793,"orbitMinDistance":0,"orbitMinPolarAngle":0,"orbitTarget":[0.9308405518531799,1.0744543075561523,0.3554152548313141],"rotateSpeed":1,"viewportFitInitialAspect":1,"viewportFitType":"VERTICAL"}},"name":"__DEFAULT__","perspective":{"aspectRatio":1,"yfov":0.7853981633974483,"zfar":1000.0,"znear":0.009999999776482582},"type":"perspective"}],"extensions":{"S8S_v3d_materials":{"nodeGraphs":[{"edges":[{"fromNode":2,"fromOutput":2,"toInput":0,"toNode":1},{"fromNode":4,"fromOutput":0,"toInput":0,"toNode":5},{"fromNode":3,"fromOutput":0,"toInput":6,"toNode":2},{"fromNode":0,"fromOutput":2,"toInput":7,"toNode":2},{"fromNode":5,"fromOutput":0,"toInput":0,"toNode":0}],"name":"shadow","nodes":[{"blendType":"MIX","clampFactor":true,"clampResult":false,"dataType":"RGBA","factorMode":"UNIFORM","inputs":[0.5,[0.5,0.5,0.5],0.0,0.0,[0.0,0.0,0.0],[0.0,0.0,0.0],[0.19781818985939026,0.5121480226516724,0.8134249448776245,1.0],[1.0,1.0,1.0,1.0],0,0],"is_active_output":false,"name":"Mix.001","outputs":[0.0,[0.0,0.0,0.0],[0.0,0.0,0.0,0.0],0],"type":"MIX_BL"},{"inputs":[[0.0,0.0,0.0,0.0]],"is_active_output":true,"name":"Group Output","outputs":[],"type":"GROUP_OUTPUT_BL"},{"blendType":"MULTIPLY","clampFactor":true,"clampResult":false,"dataType":"RGBA","factorMode":"UNIFORM","inputs":[1.0,[0.5,0.5,0.5],0.0,0.0,[0.0,0.0,0.0],[0.0,0.0,0.0],[0.5,0.5,0.5,1.0],[0.5,0.5,0.5,1.0],0,0],"is_active_output":false,"name":"Mix","outputs":[0.0,[0.0,0.0,0.0],[0.0,0.0,0.0,0.0],0],"type":"MIX_BL"},{"inputs":[],"is_active_output":false,"name":"Group Input","outputs":[[0.5,0.5,0.5,1.0]],"type":"GROUP_INPUT_BL"},{"inputs":[[1.0,1.0,1.0,1.0],0.0,[0.0,0.0,0.0]],"is_active_output":false,"name":"Diffuse BSDF.001","outputs":[[0,0,0,0]],"type":"BSDF_DIFFUSE_BL"},{"inputs":[[0,0,0,0]],"is_active_output":false,"name":"Shader to RGB","outputs":[[0.0,0.0,0.0,0.0],0.0],"type":"SHADERTORGB_BL"}]}]}},"extensionsUsed":["S8S_v3d_texture","S8S_v3d_materials","S8S_v3d_camera","S8S_v3d_mesh","S8S_v3d_node","S8S_v3d_animation","S8S_v3d_scene"],"images":[{"uri":"snow_tile_1.jpg"}],"materials":[{"alphaMode":"BLEND","doubleSided":true,"extensions":{"S8S_v3d_materials":{"depthWrite":false,"gtaoVisible":false,"materialIndex":0,"nodeGraph":{"edges":[{"fromNode":1,"fromOutput":0,"toInput":0,"toNode":0}],"nodes":[{"inputs":[[0,0,0,0],[0,0,0,0],[0.0,0.0,0.0],0.0],"is_active_output":true,"name":"Material Output","outputs":[],"type":"OUTPUT_MATERIAL_BL"},{"inputs":[[0.8000000715255737,0.0,0.0010861854534596205,1.0],0.0,0.5,1.4500000476837158,0.27727270126342773,[0.0,0.0,0.0],0.0,[1.0,0.20000000298023224,0.10000000149011612],0.05000000074505806,1.399999976158142,0.0,0.5,[1.0,1.0,1.0,1.0],0.0,0.0,[0.0,0.0,0.0],0.0,0.0,0.029999999329447746,1.5,[1.0,1.0,1.0,1.0],[0.0,0.0,0.0],0.0,0.5,[1.0,1.0,1.0,1.0],[0.0,0.0,0.0,1.0],1.0],"is_active_output":false,"name":"Principled BSDF","outputs":[[0,0,0,0]],"type":"BSDF_PRINCIPLED_BL"}]},"renderSide":"DOUBLE","useCastShadows":true}},"name":"Material"},{"extensions":{"S8S_v3d_materials":{"gtaoVisible":true,"materialIndex":0,"nodeGraph":{"edges":[{"fromNode":0,"fromOutput":0,"toInput":0,"toNode":1},{"fromNode":1,"fromOutput":0,"toInput":0,"toNode":10},{"fromNode":10,"fromOutput":0,"toInput":0,"toNode":9},{"fromNode":3,"fromOutput":0,"toInput":0,"toNode":5},{"fromNode":5,"fromOutput":0,"toInput":0,"toNode":6},{"fromNode":6,"fromOutput":0,"toInput":0,"toNode":7},{"fromNode":8,"fromOutput":2,"toInput":0,"toNode":2},{"fromNode":2,"fromOutput":0,"toInput":0,"toNode":4},{"fromNode":7,"fromOutput":0,"toInput":0,"toNode":8},{"fromNode":9,"fromOutput":0,"toInput":7,"toNode":8}],"nodes":[{"inputs":[],"is_active_output":false,"name":"UV Map","outputs":[[0.0,0.0,0.0]],"type":"UVMAP_BL","uvLayer":"UVMap"},{"inputs":[[0.0,0.0,0.0],[0.0,0.0,0.0],[0.0,0.0,0.0],[5.0,5.0,5.0]],"is_active_output":false,"name":"Mapping","outputs":[[0.0,0.0,0.0]],"type":"MAPPING_BL","vectorType":"POINT"},{"inputs":[[1.0,1.0,1.0,1.0],1.0],"is_active_output":false,"name":"Emission","outputs":[[0,0,0,0]],"type":"EMISSION_BL"},{"inputs":[],"is_active_output":false,"name":"Geometry","outputs":[[0.0,0.0,0.0],[0.0,0.0,0.0],[0.0,0.0,0.0],[0.0,0.0,0.0],[0.0,0.0,0.0],[0.0,0.0,0.0],0.0,0.0,0.0],"type":"NEW_GEOMETRY_BL"},{"inputs":[[0,0,0,0],[0,0,0,0],[0.0,0.0,0.0],0.0],"is_active_output":true,"name":"Material Output","outputs":[],"type":"OUTPUT_MATERIAL_BL"},{"inputs":[[0.0,0.0,0.0],[0.0,0.0,0.0],[0.0,0.0,0.0],[0.012000000104308128,0.012000000104308128,0.012000000104308128]],"is_active_output":false,"name":"Mapping.001","outputs":[[0.0,0.0,0.0]],"type":"MAPPING_BL","vectorType":"POINT"},{"gradientType":"SPHERICAL","inputs":[[0.0,0.0,0.0]],"is_active_output":false,"name":"Gradient Texture","outputs":[[0.0,0.0,0.0,0.0],0.0],"type":"TEX_GRADIENT_BL"},{"curve":{"input":[0.04999999701976776,0.386364221572876],"interpolation":"LINEAR","output":[0.0,0.0,0.0,1.0,1.0,1.0,1.0,1.0]},"inputs":[0.5],"is_active_output":false,"name":"ColorRamp","outputs":[[0.0,0.0,0.0,0.0],0.0],"type":"VALTORGB_BL"},{"blendType":"MIX","clampFactor":true,"clampResult":false,"dataType":"RGBA","factorMode":"UNIFORM","inputs":[0.5,[0.5,0.5,0.5],0.0,0.0,[0.0,0.0,0.0],[0.0,0.0,0.0],[0.5906190872192383,0.7011020183563232,0.7758224010467529,1.0],[0.5906190872192383,0.7011020183563232,0.7758224010467529,1.0],0,0],"is_active_output":false,"name":"Mix","outputs":[0.0,[0.0,0.0,0.0],[0.0,0.0,0.0,0.0],0],"type":"MIX_BL"},{"inputs":[[0.5,0.5,0.5,1.0]],"is_active_output":false,"name":"Group","nodeGraph":0,"outputs":[[0.0,0.0,0.0,0.0]],"type":"GROUP_BL"},{"alphaMode":"STRAIGHT","inputs":[[0.0,0.0,0.0]],"is_active_output":false,"name":"Image Texture","outputs":[[0.0,0.0,0.0,0.0],0.0],"projection":"FLAT","projectionBlend":0.0,"texture":0,"type":"TEX_IMAGE_BL"}]},"useCastShadows":true}},"name":"snow_ground"},{"extensions":{"S8S_v3d_materials":{"gtaoVisible":true,"materialIndex":0,"nodeGraph":{"edges":[{"fromNode":1,"fromOutput":0,"toInput":0,"toNode":0}],"nodes":[{"inputs":[[0,0,0,0],[0,0,0,0]],"is_active_output":true,"name":"World Output","outputs":[],"type":"OUTPUT_WORLD_BL"},{"inputs":[[0.05087608844041824,0.05087608844041824,0.05087608844041824,1.0],1.0],"is_active_output":false,"name":"Background","outputs":[[0,0,0,0]],"type":"BACKGROUND_BL"}]},"useCastShadows":true}},"name":"Verge3D_Environment_World"}],"meshes":[{"extensions":{"S8S_v3d_mesh":{"colorLayers":{},"uvLayers":{"UVMap":"TEXCOORD_0"}}},"name":"Plane","primitives":[{"attributes":{"NORMAL":2,"POSITION":1,"TEXCOORD_0":3},"indices":0,"material":1,"mode":4}]},{"extensions":{"S8S_v3d_mesh":{"colorLayers":{},"uvLayers":{"UVMap":"TEXCOORD_0"}}},"name":"Plane.001","primitives":[{"attributes":{"NORMAL":6,"POSITION":5,"TEXCOORD_0":7},"indices":4,"material":0,"mode":4}]}],"nodes":[{"extensions":{"S8S_v3d_node":{"frustumCulling":true,"groupNames":["ground_0"],"hidden":false,"hidpiCompositing":false,"objectColor":[1.0,1.0,1.0,1.0],"objectIndex":0,"renderOrder":0,"useShadows":true}},"mesh":0,"name":"tile_0_ground"},{"extensions":{"S8S_v3d_node":{"frustumCulling":true,"groupNames":["ground_0"],"hidden":false,"hidpiCompositing":false,"objectColor":[1.0,1.0,1.0,1.0],"objectIndex":0,"renderOrder":0}},"name":"tile_0_enemy_spawn","translation":[0.43217942118644714,0.0,7.845718860626221]},{"extensions":{"S8S_v3d_node":{"frustumCulling":true,"groupNames":["ground_0"],"hidden":false,"hidpiCompositing":false,"objectColor":[1.0,1.0,1.0,1.0],"objectIndex":0,"renderOrder":0,"useShadows":true}},"mesh":1,"name":"tile_0_enemy_trigger","translation":[-0.2659565806388855,0.046835243701934814,-6.500270366668701]},{"children":[6],"extensions":{"S8S_v3d_node":{"frustumCulling":true,"groupNames":["ground_0"],"hidden":false,"hidpiCompositing":false,"objectColor":[1.0,1.0,1.0,1.0],"objectIndex":0,"renderOrder":0}},"name":"weapon_spawn_place_0","translation":[2.5931239128112793,1.5,0.7758328914642334]},{"children":[1,2,0,7,8,9,10,18,17,11,12,16,13,14,15,3],"extensions":{"S8S_v3d_node":{"frustumCulling":true,"groupNames":["ground_0"],"hidden":false,"hidpiCompositing":false,"objectColor":[1.0,1.0,1.0,1.0],"objectIndex":0,"renderOrder":0}},"name":"tile_0_base"},{"extensions":{"S8S_v3d_node":{"frustumCulling":true,"groupNames":["ground_0"],"hidden":false,"hidpiCompositing":false,"objectColor":[1.0,1.0,1.0,1.0],"objectIndex":0,"renderOrder":0}},"name":"weapon_spawn_place_0_offset","translation":[2.5931239128112793,1.0,1.1296743154525757]},{"children":[5],"name":"v3d_Proxy_Node_0_weapon_spawn_place_0_offset","translation":[-2.5931239128112793,-1.0,-0.7758328914642334]},{"extensions":{"S8S_v3d_node":{"frustumCulling":true,"groupNames":["tile_0_trees"],"hidden":false,"hidpiCompositing":false,"objectColor":[1.0,1.0,1.0,1.0],"objectIndex":0,"renderOrder":0}},"name":"tile_0_tree.000","rotation":[0.0,-0.339400053024292,-0.0,0.9406421184539795],"translation":[-7.805700302124023,0.0,-5.302785873413086]},{"extensions":{"S8S_v3d_node":{"frustumCulling":true,"groupNames":["tile_0_trees"],"hidden":false,"hidpiCompositing":false,"objectColor":[1.0,1.0,1.0,1.0],"objectIndex":0,"renderOrder":0}},"name":"tile_0_tree.001","rotation":[0.0,0.44211623072624207,-0.0,0.8969577550888062],"translation":[-6.0239644050598145,0.0,-6.5754547119140625]},{"extensions":{"S8S_v3d_node":{"frustumCulling":true,"groupNames":["tile_0_trees"],"hidden":false,"hidpiCompositing":false,"objectColor":[1.0,1.0,1.0,1.0],"objectIndex":0,"renderOrder":0}},"name":"tile_0_tree.002","rotation":[0.0,0.8573254346847534,-0.0,0.5147747993469238],"translation":[5.2603631019592285,0.0,-7.084522247314453]},{"extensions":{"S8S_v3d_node":{"frustumCulling":true,"groupNames":["tile_0_trees"],"hidden":false,"hidpiCompositing":false,"objectColor":[1.0,1.0,1.0,1.0],"objectIndex":0,"renderOrder":0}},"name":"tile_0_tree.003","rotation":[0.0,0.5780554413795471,-0.0,0.8159975409507751],"scale":[0.9999999403953552,1.0,0.9999999403953552],"translation":[7.296632766723633,0.0,-1.4847803115844727]},{"extensions":{"S8S_v3d_node":{"frustumCulling":true,"groupNames":["tile_0_trees"],"hidden":false,"hidpiCompositing":false,"objectColor":[1.0,1.0,1.0,1.0],"objectIndex":0,"renderOrder":0}},"name":"tile_0_tree.006","rotation":[-0.0,-0.8990138173103333,0.0,0.4379202425479889],"translation":[4.751296043395996,0.0,3.563472032546997]},{"extensions":{"S8S_v3d_node":{"frustumCulling":true,"groupNames":["tile_0_trees"],"hidden":false,"hidpiCompositing":false,"objectColor":[1.0,1.0,1.0,1.0],"objectIndex":0,"renderOrder":0}},"name":"tile_0_tree.007","rotation":[-0.0,-0.7455335259437561,0.0,0.6664681434631348],"translation":[-5.78372859954834,0.0,6.338685035705566]},{"extensions":{"S8S_v3d_node":{"frustumCulling":true,"groupNames":["tile_0_trees"],"hidden":false,"hidpiCompositing":false,"objectColor":[1.0,1.0,1.0,1.0],"objectIndex":0,"renderOrder":0}},"name":"tile_0_tree.009","rotation":[0.0,-0.4390580356121063,-0.0,0.89845871925354],"translation":[-3.9028501510620117,0.0,5.5997419357299805]},{"extensions":{"S8S_v3d_node":{"frustumCulling":true,"groupNames":["tile_0_trees"],"hidden":false,"hidpiCompositing":false,"objectColor":[1.0,1.0,1.0,1.0],"objectIndex":0,"renderOrder":0}},"name":"tile_0_tree.010","rotation":[0.0,0.3004586696624756,-0.0,0.9537948369979858],"translation":[-5.430052280426025,0.0,4.751296043395996]},{"extensions":{"S8S_v3d_node":{"frustumCulling":true,"groupNames":["tile_0_trees"],"hidden":false,"hidpiCompositing":false,"objectColor":[1.0,1.0,1.0,1.0],"objectIndex":0,"renderOrder":0}},"name":"tile_0_tree.011","rotation":[0.0,0.6132664084434509,-0.0,0.7898761630058289],"scale":[0.9999998807907104,1.0,0.9999998807907104],"translation":[-3.4786272048950195,0.0,3.6483163833618164]},{"extensions":{"S8S_v3d_node":{"frustumCulling":true,"groupNames":["tile_0_trees"],"hidden":false,"hidpiCompositing":false,"objectColor":[1.0,1.0,1.0,1.0],"objectIndex":0,"renderOrder":0}},"name":"tile_0_tree.008","rotation":[0.0,-0.4390580356121063,-0.0,0.89845871925354],"translation":[-6.291755676269531,0.0,3.1663331985473633]},{"extensions":{"S8S_v3d_node":{"frustumCulling":true,"groupNames":["tile_0_trees"],"hidden":false,"hidpiCompositing":false,"objectColor":[1.0,1.0,1.0,1.0],"objectIndex":0,"renderOrder":0}},"name":"tile_0_tree.005","rotation":[-0.0,-0.8990138173103333,0.0,0.4379202425479889],"translation":[7.46632194519043,0.0,3.8180058002471924]},{"extensions":{"S8S_v3d_node":{"frustumCulling":true,"groupNames":["tile_0_trees"],"hidden":false,"hidpiCompositing":false,"objectColor":[1.0,1.0,1.0,1.0],"objectIndex":0,"renderOrder":0}},"name":"tile_0_tree.004","rotation":[0.0,0.9991350769996643,-0.0,0.041582826524972916],"translation":[6.575453758239746,0.0,5.175518989562988]},{"camera":0,"name":"__DEFAULT_CAMERA__","rotation":[-0.16644412279129028,0.41851359605789185,0.0783224031329155,0.8893864750862122],"scale":[0.9999999403953552,0.9999998211860657,0.9999999403953552],"translation":[6.123489856719971,3.68841814994812,4.651147842407227]}],"samplers":[{}],"scene":0,"scenes":[{"extensions":{"S8S_v3d_scene":{"aaMethod":"AUTO","iblEnvironmentMode":"PMREM","physicallyCorrectLights":true,"pmremMaxTileSize":512,"shadowMap":{"esmDistanceScale":1.0,"renderReverseSided":false,"renderSingleSided":true,"type":"PCFPOISSON"},"toneMapping":{"type":"filmicBlender"},"worldMaterial":2}},"extras":{"animFrameRate":24,"coordSystem":"Z_UP_RIGHT"},"name":"Scene","nodes":[4,19]}],"textures":[{"extensions":{"S8S_v3d_texture":{"colorSpace":"srgb"}},"name":"snow_tile_1.jpg","sampler":0,"source":0}]}
