{"accessors":[{"bufferView":0,"componentType":5121,"count":471,"max":[245],"min":[0],"type":"SCALAR"},{"bufferView":1,"componentType":5126,"count":246,"max":[10.0,1.3360373973846436,10.0],"min":[-10.0,-0.4496040642261505,-10.0],"type":"VEC3"},{"bufferView":2,"componentType":5126,"count":246,"max":[0.9774043560028076,1.0,0.9539816379547119],"min":[-0.9289329051971436,0.16271105408668518,-0.9154622554779053],"type":"VEC3"},{"bufferView":3,"componentType":5126,"count":246,"max":[0.9999814033508301,0.9999815225601196],"min":[1.850724220275879e-05,1.8596649169921875e-05],"type":"VEC2"},{"bufferView":4,"componentType":5121,"count":117,"max":[31],"min":[0],"type":"SCALAR"},{"bufferView":5,"componentType":5126,"count":32,"max":[5.522043228149414,-0.4496040642261505,5.528252124786377],"min":[-7.870124340057373,-0.4496040642261505,-7.178587436676025],"type":"VEC3"},{"bufferView":6,"componentType":5126,"count":32,"max":[-0.0,1.0,-0.0],"min":[-0.0,1.0,-0.0],"type":"VEC3"},{"bufferView":7,"componentType":5126,"count":32,"max":[0.7603350877761841,0.8335883617401123],"min":[0.16803234815597534,0.1664116382598877],"type":"VEC2"},{"bufferView":8,"componentType":5121,"count":36,"max":[23],"min":[0],"type":"SCALAR"},{"bufferView":9,"componentType":5126,"count":24,"max":[2.058992624282837,2.800670623779297,1.882614254951477],"min":[-2.058992624282837,0.0,-1.882614254951477],"type":"VEC3"},{"bufferView":10,"componentType":5126,"count":24,"max":[1.0,1.0,1.0],"min":[-1.0,-1.0,-1.0],"type":"VEC3"},{"bufferView":11,"componentType":5126,"count":24,"max":[1.0,1.0],"min":[0.0,0.0],"type":"VEC2"},{"bufferView":12,"componentType":5126,"count":3,"max":[4.125],"min":[0.0],"type":"SCALAR"},{"bufferView":13,"componentType":5126,"count":3,"max":[-0.0,0.9119249582290649,-0.0,1.0],"min":[-0.0,0.0,-0.0,-0.9999619126319885],"type":"VEC4"}],"animations":[{"channels":[{"sampler":0,"target":{"node":1,"path":"rotation"}}],"extensions":{"S8S_v3d_animation":{"auto":false,"loop":"REPEAT","offset":0.0,"repeatCount":1.0,"repeatInfinite":true}},"name":"weapon_spawn_place_3","samplers":[{"input":12,"interpolation":"LINEAR","output":13}]}],"asset":{"generator":"Verge3D for Blender v4.6.0","version":"2.0"},"bufferViews":[{"buffer":0,"byteLength":471,"byteOffset":0,"target":34963},{"buffer":0,"byteLength":2952,"byteOffset":472,"target":34962},{"buffer":0,"byteLength":2952,"byteOffset":3424,"target":34962},{"buffer":0,"byteLength":1968,"byteOffset":6376,"target":34962},{"buffer":0,"byteLength":117,"byteOffset":8344,"target":34963},{"buffer":0,"byteLength":384,"byteOffset":8464,"target":34962},{"buffer":0,"byteLength":384,"byteOffset":8848,"target":34962},{"buffer":0,"byteLength":256,"byteOffset":9232,"target":34962},{"buffer":0,"byteLength":36,"byteOffset":9488,"target":34963},{"buffer":0,"byteLength":288,"byteOffset":9524,"target":34962},{"buffer":0,"byteLength":288,"byteOffset":9812,"target":34962},{"buffer":0,"byteLength":192,"byteOffset":10100,"target":34962},{"buffer":0,"byteLength":12,"byteOffset":10292},{"buffer":0,"byteLength":48,"byteOffset":10304}],"buffers":[{"byteLength":10352,"uri":"tile_3.bin"}],"cameras":[{"extensions":{"S8S_v3d_camera":{"controls":"ORBIT","enablePan":true,"moveSpeed":1,"orbitMaxDistance":10000,"orbitMaxPolarAngle":3.141592653589793,"orbitMinDistance":0,"orbitMinPolarAngle":0,"orbitTarget":[-1.5268927812576294,0.7597790360450745,-0.013377643190324306],"rotateSpeed":1,"viewportFitInitialAspect":1,"viewportFitType":"VERTICAL"}},"name":"__DEFAULT__","perspective":{"aspectRatio":1,"yfov":0.7853981633974483,"zfar":1000.0,"znear":0.009999999776482582},"type":"perspective"}],"extensions":{"S8S_v3d_materials":{"nodeGraphs":[{"edges":[{"fromNode":2,"fromOutput":2,"toInput":0,"toNode":1},{"fromNode":4,"fromOutput":0,"toInput":0,"toNode":5},{"fromNode":3,"fromOutput":0,"toInput":6,"toNode":2},{"fromNode":0,"fromOutput":2,"toInput":7,"toNode":2},{"fromNode":5,"fromOutput":0,"toInput":0,"toNode":0}],"name":"shadow","nodes":[{"blendType":"MIX","clampFactor":true,"clampResult":false,"dataType":"RGBA","factorMode":"UNIFORM","inputs":[0.5,[0.5,0.5,0.5],0.0,0.0,[0.0,0.0,0.0],[0.0,0.0,0.0],[0.19781818985939026,0.5121480226516724,0.8134249448776245,1.0],[1.0,1.0,1.0,1.0],0,0],"is_active_output":false,"name":"Mix.001","outputs":[0.0,[0.0,0.0,0.0],[0.0,0.0,0.0,0.0],0],"type":"MIX_BL"},{"inputs":[[0.0,0.0,0.0,0.0]],"is_active_output":true,"name":"Group Output","outputs":[],"type":"GROUP_OUTPUT_BL"},{"blendType":"MULTIPLY","clampFactor":true,"clampResult":false,"dataType":"RGBA","factorMode":"UNIFORM","inputs":[1.0,[0.5,0.5,0.5],0.0,0.0,[0.0,0.0,0.0],[0.0,0.0,0.0],[0.5,0.5,0.5,1.0],[0.5,0.5,0.5,1.0],0,0],"is_active_output":false,"name":"Mix","outputs":[0.0,[0.0,0.0,0.0],[0.0,0.0,0.0,0.0],0],"type":"MIX_BL"},{"inputs":[],"is_active_output":false,"name":"Group Input","outputs":[[0.5,0.5,0.5,1.0]],"type":"GROUP_INPUT_BL"},{"inputs":[[1.0,1.0,1.0,1.0],0.0,[0.0,0.0,0.0]],"is_active_output":false,"name":"Diffuse BSDF.001","outputs":[[0,0,0,0]],"type":"BSDF_DIFFUSE_BL"},{"inputs":[[0,0,0,0]],"is_active_output":false,"name":"Shader to RGB","outputs":[[0.0,0.0,0.0,0.0],0.0],"type":"SHADERTORGB_BL"}]}]}},"extensionsUsed":["KHR_texture_basisu","S8S_v3d_texture","S8S_v3d_materials","S8S_v3d_camera","S8S_v3d_mesh","S8S_v3d_node","S8S_v3d_animation","S8S_v3d_scene"],"images":[{"uri":"ice_tile_1.ktx2"},{"uri":"snow_tile_1.ktx2"}],"materials":[{"extensions":{"S8S_v3d_materials":{"gtaoVisible":true,"materialIndex":0,"nodeGraph":{"edges":[{"fromNode":1,"fromOutput":0,"toInput":0,"toNode":0},{"fromNode":4,"fromOutput":0,"toInput":0,"toNode":1},{"fromNode":3,"fromOutput":0,"toInput":0,"toNode":4},{"fromNode":2,"fromOutput":0,"toInput":0,"toNode":3}],"nodes":[{"inputs":[[0,0,0,0],[0,0,0,0],[0.0,0.0,0.0],0.0],"is_active_output":true,"name":"Material Output","outputs":[],"type":"OUTPUT_MATERIAL_BL"},{"inputs":[[0.800000011920929,0.800000011920929,0.800000011920929,1.0],0.0,[0.0,0.0,0.0]],"is_active_output":false,"name":"Diffuse BSDF","outputs":[[0,0,0,0]],"type":"BSDF_DIFFUSE_BL"},{"inputs":[],"is_active_output":false,"name":"UV Map","outputs":[[0.0,0.0,0.0]],"type":"UVMAP_BL","uvLayer":"UVMap"},{"inputs":[[0.0,0.0,0.0],[0.0,0.0,0.0],[0.0,0.0,0.0],[6.0,6.0,6.0]],"is_active_output":false,"name":"Mapping","outputs":[[0.0,0.0,0.0]],"type":"MAPPING_BL","vectorType":"POINT"},{"alphaMode":"STRAIGHT","inputs":[[0.0,0.0,0.0]],"is_active_output":false,"name":"Image Texture","outputs":[[0.0,0.0,0.0,0.0],0.0],"projection":"FLAT","projectionBlend":0.0,"texture":0,"type":"TEX_IMAGE_BL"}]},"useCastShadows":true}},"name":"ice"},{"alphaMode":"BLEND","doubleSided":true,"extensions":{"S8S_v3d_materials":{"depthWrite":false,"gtaoVisible":false,"materialIndex":0,"nodeGraph":{"edges":[{"fromNode":1,"fromOutput":0,"toInput":0,"toNode":0}],"nodes":[{"inputs":[[0,0,0,0],[0,0,0,0],[0.0,0.0,0.0],0.0],"is_active_output":true,"name":"Material Output","outputs":[],"type":"OUTPUT_MATERIAL_BL"},{"inputs":[[0.8000000715255737,0.0,0.0010861854534596205,1.0],0.0,0.5,1.4500000476837158,0.27727270126342773,[0.0,0.0,0.0],0.0,[1.0,0.20000000298023224,0.10000000149011612],0.05000000074505806,1.399999976158142,0.0,0.5,[1.0,1.0,1.0,1.0],0.0,0.0,[0.0,0.0,0.0],0.0,0.0,0.029999999329447746,1.5,[1.0,1.0,1.0,1.0],[0.0,0.0,0.0],0.0,0.5,[1.0,1.0,1.0,1.0],[0.0,0.0,0.0,1.0],1.0],"is_active_output":false,"name":"Principled BSDF","outputs":[[0,0,0,0]],"type":"BSDF_PRINCIPLED_BL"}]},"renderSide":"DOUBLE","useCastShadows":true}},"name":"Material"},{"extensions":{"S8S_v3d_materials":{"gtaoVisible":true,"materialIndex":0,"nodeGraph":{"edges":[{"fromNode":0,"fromOutput":0,"toInput":0,"toNode":1},{"fromNode":1,"fromOutput":0,"toInput":0,"toNode":10},{"fromNode":10,"fromOutput":0,"toInput":0,"toNode":9},{"fromNode":3,"fromOutput":0,"toInput":0,"toNode":5},{"fromNode":5,"fromOutput":0,"toInput":0,"toNode":6},{"fromNode":6,"fromOutput":0,"toInput":0,"toNode":7},{"fromNode":8,"fromOutput":2,"toInput":0,"toNode":2},{"fromNode":2,"fromOutput":0,"toInput":0,"toNode":4},{"fromNode":7,"fromOutput":0,"toInput":0,"toNode":8},{"fromNode":9,"fromOutput":0,"toInput":7,"toNode":8}],"nodes":[{"inputs":[],"is_active_output":false,"name":"UV Map","outputs":[[0.0,0.0,0.0]],"type":"UVMAP_BL","uvLayer":"UVMap"},{"inputs":[[0.0,0.0,0.0],[0.0,0.0,0.0],[0.0,0.0,0.0],[5.0,5.0,5.0]],"is_active_output":false,"name":"Mapping","outputs":[[0.0,0.0,0.0]],"type":"MAPPING_BL","vectorType":"POINT"},{"inputs":[[1.0,1.0,1.0,1.0],1.0],"is_active_output":false,"name":"Emission","outputs":[[0,0,0,0]],"type":"EMISSION_BL"},{"inputs":[],"is_active_output":false,"name":"Geometry","outputs":[[0.0,0.0,0.0],[0.0,0.0,0.0],[0.0,0.0,0.0],[0.0,0.0,0.0],[0.0,0.0,0.0],[0.0,0.0,0.0],0.0,0.0,0.0],"type":"NEW_GEOMETRY_BL"},{"inputs":[[0,0,0,0],[0,0,0,0],[0.0,0.0,0.0],0.0],"is_active_output":true,"name":"Material Output","outputs":[],"type":"OUTPUT_MATERIAL_BL"},{"inputs":[[0.0,0.0,0.0],[0.0,0.0,0.0],[0.0,0.0,0.0],[0.012000000104308128,0.012000000104308128,0.012000000104308128]],"is_active_output":false,"name":"Mapping.001","outputs":[[0.0,0.0,0.0]],"type":"MAPPING_BL","vectorType":"POINT"},{"gradientType":"SPHERICAL","inputs":[[0.0,0.0,0.0]],"is_active_output":false,"name":"Gradient Texture","outputs":[[0.0,0.0,0.0,0.0],0.0],"type":"TEX_GRADIENT_BL"},{"curve":{"input":[0.04999999701976776,0.386364221572876],"interpolation":"LINEAR","output":[0.0,0.0,0.0,1.0,1.0,1.0,1.0,1.0]},"inputs":[0.5],"is_active_output":false,"name":"ColorRamp","outputs":[[0.0,0.0,0.0,0.0],0.0],"type":"VALTORGB_BL"},{"blendType":"MIX","clampFactor":true,"clampResult":false,"dataType":"RGBA","factorMode":"UNIFORM","inputs":[0.5,[0.5,0.5,0.5],0.0,0.0,[0.0,0.0,0.0],[0.0,0.0,0.0],[0.5906190872192383,0.7011020183563232,0.7758224010467529,1.0],[0.5906190872192383,0.7011020183563232,0.7758224010467529,1.0],0,0],"is_active_output":false,"name":"Mix","outputs":[0.0,[0.0,0.0,0.0],[0.0,0.0,0.0,0.0],0],"type":"MIX_BL"},{"inputs":[[0.5,0.5,0.5,1.0]],"is_active_output":false,"name":"Group","nodeGraph":0,"outputs":[[0.0,0.0,0.0,0.0]],"type":"GROUP_BL"},{"alphaMode":"STRAIGHT","inputs":[[0.0,0.0,0.0]],"is_active_output":false,"name":"Image Texture","outputs":[[0.0,0.0,0.0,0.0],0.0],"projection":"FLAT","projectionBlend":0.0,"texture":1,"type":"TEX_IMAGE_BL"}]},"useCastShadows":true}},"name":"snow_ground"},{"extensions":{"S8S_v3d_materials":{"gtaoVisible":true,"materialIndex":0,"nodeGraph":{"edges":[{"fromNode":1,"fromOutput":0,"toInput":0,"toNode":0}],"nodes":[{"inputs":[[0,0,0,0],[0,0,0,0]],"is_active_output":true,"name":"World Output","outputs":[],"type":"OUTPUT_WORLD_BL"},{"inputs":[[0.05087608844041824,0.05087608844041824,0.05087608844041824,1.0],1.0],"is_active_output":false,"name":"Background","outputs":[[0,0,0,0]],"type":"BACKGROUND_BL"}]},"useCastShadows":true}},"name":"Verge3D_Environment_World"}],"meshes":[{"extensions":{"S8S_v3d_mesh":{"colorLayers":{},"uvLayers":{"UVMap":"TEXCOORD_0"}}},"name":"Plane","primitives":[{"attributes":{"NORMAL":2,"POSITION":1,"TEXCOORD_0":3},"indices":0,"material":2,"mode":4},{"attributes":{"NORMAL":6,"POSITION":5,"TEXCOORD_0":7},"indices":4,"material":0,"mode":4}]},{"extensions":{"S8S_v3d_mesh":{"colorLayers":{},"uvLayers":{"UVMap":"TEXCOORD_0"}}},"name":"Plane.001","primitives":[{"attributes":{"NORMAL":10,"POSITION":9,"TEXCOORD_0":11},"indices":8,"material":1,"mode":4}]}],"nodes":[{"extensions":{"S8S_v3d_node":{"frustumCulling":true,"groupNames":["ground_3"],"hidden":false,"hidpiCompositing":false,"objectColor":[1.0,1.0,1.0,1.0],"objectIndex":0,"renderOrder":0,"useShadows":true}},"mesh":0,"name":"tile_3_ground"},{"children":[9],"extensions":{"S8S_v3d_node":{"frustumCulling":true,"groupNames":["ground_3"],"hidden":false,"hidpiCompositing":false,"objectColor":[1.0,1.0,1.0,1.0],"objectIndex":0,"renderOrder":0}},"name":"weapon_spawn_place_3","translation":[-3.6753435134887695,1.0,0.36217769980430603]},{"children":[1],"name":"v3d_Proxy_Node_0_weapon_spawn_place_3","translation":[-0.0,-0.0,-4.76837158203125e-07]},{"children":[7,5,0,11,13,15,17,23,25,19,21,2],"extensions":{"S8S_v3d_node":{"frustumCulling":true,"groupNames":["ground_3"],"hidden":false,"hidpiCompositing":false,"objectColor":[1.0,1.0,1.0,1.0],"objectIndex":0,"renderOrder":0}},"name":"tile_3_base","translation":[0.0,0.0,4.76837158203125e-07]},{"extensions":{"S8S_v3d_node":{"frustumCulling":true,"groupNames":["ground_3"],"hidden":false,"hidpiCompositing":false,"objectColor":[1.0,1.0,1.0,1.0],"objectIndex":0,"renderOrder":0,"useShadows":true}},"mesh":1,"name":"tile_3_enemy_trigger","translation":[6.88200569152832,0.046835243701934814,-7.463842391967773]},{"children":[4],"name":"v3d_Proxy_Node_0_tile_3_enemy_trigger","translation":[-0.0,-0.0,-4.76837158203125e-07]},{"extensions":{"S8S_v3d_node":{"frustumCulling":true,"groupNames":["ground_3"],"hidden":false,"hidpiCompositing":false,"objectColor":[1.0,1.0,1.0,1.0],"objectIndex":0,"renderOrder":0}},"name":"tile_3_enemy_spawn","translation":[-2.8210597038269043,0.0,7.341695785522461]},{"children":[6],"name":"v3d_Proxy_Node_0_tile_3_enemy_spawn","translation":[-0.0,-0.0,-4.76837158203125e-07]},{"extensions":{"S8S_v3d_node":{"frustumCulling":true,"groupNames":["ground_3"],"hidden":false,"hidpiCompositing":false,"objectColor":[1.0,1.0,1.0,1.0],"objectIndex":0,"renderOrder":0}},"name":"weapon_spawn_place_3_offset","translation":[2.5931239128112793,1.0,1.1296743154525757]},{"children":[8],"name":"v3d_Proxy_Node_0_weapon_spawn_place_3_offset","translation":[-2.5931239128112793,-1.0,-0.7758328914642334]},{"extensions":{"S8S_v3d_node":{"frustumCulling":true,"groupNames":["tile_3_trees"],"hidden":false,"hidpiCompositing":false,"objectColor":[1.0,1.0,1.0,1.0],"objectIndex":0,"renderOrder":0}},"name":"tile_3_tree.000","rotation":[0.0,-0.339400053024292,-0.0,0.9406421184539795],"translation":[-7.940152168273926,0.0,-6.101260662078857]},{"children":[10],"name":"v3d_Proxy_Node_0_tile_3_tree.000","translation":[-0.0,-0.0,-4.76837158203125e-07]},{"extensions":{"S8S_v3d_node":{"frustumCulling":true,"groupNames":["tile_3_trees"],"hidden":false,"hidpiCompositing":false,"objectColor":[1.0,1.0,1.0,1.0],"objectIndex":0,"renderOrder":0}},"name":"tile_3_tree.001","rotation":[0.0,-0.339400053024292,-0.0,0.9406421184539795],"translation":[-6.170845985412598,0.15984725952148438,5.071859836578369]},{"children":[12],"name":"v3d_Proxy_Node_0_tile_3_tree.001","translation":[-0.0,-0.0,-4.76837158203125e-07]},{"extensions":{"S8S_v3d_node":{"frustumCulling":true,"groupNames":["tile_3_trees"],"hidden":false,"hidpiCompositing":false,"objectColor":[1.0,1.0,1.0,1.0],"objectIndex":0,"renderOrder":0}},"name":"tile_3_tree.002","rotation":[0.0,-0.339400053024292,-0.0,0.9406421184539795],"translation":[-7.412384033203125,0.009958267211914062,3.7392334938049316]},{"children":[14],"name":"v3d_Proxy_Node_0_tile_3_tree.002","translation":[-0.0,-0.0,-4.76837158203125e-07]},{"extensions":{"S8S_v3d_node":{"frustumCulling":true,"groupNames":["tile_3_trees"],"hidden":false,"hidpiCompositing":false,"objectColor":[1.0,1.0,1.0,1.0],"objectIndex":0,"renderOrder":0}},"name":"tile_3_tree.003","rotation":[0.0,-0.339400053024292,-0.0,0.9406421184539795],"translation":[7.964698791503906,-0.0059986114501953125,3.448056697845459]},{"children":[16],"name":"v3d_Proxy_Node_0_tile_3_tree.003","translation":[-0.0,-0.0,-4.76837158203125e-07]},{"extensions":{"S8S_v3d_node":{"frustumCulling":true,"groupNames":["tile_3_trees"],"hidden":false,"hidpiCompositing":false,"objectColor":[1.0,1.0,1.0,1.0],"objectIndex":0,"renderOrder":0}},"name":"tile_3_tree.006","rotation":[0.0,0.15106193721294403,-0.0,0.988524317741394],"translation":[2.7508621215820312,0.0,6.128015995025635]},{"children":[18],"name":"v3d_Proxy_Node_0_tile_3_tree.006","translation":[-0.0,-0.0,-4.76837158203125e-07]},{"extensions":{"S8S_v3d_node":{"frustumCulling":true,"groupNames":["tile_3_trees"],"hidden":false,"hidpiCompositing":false,"objectColor":[1.0,1.0,1.0,1.0],"objectIndex":0,"renderOrder":0}},"name":"tile_3_tree.007","rotation":[0.0,0.15106193721294403,-0.0,0.988524317741394],"translation":[-1.0354647636413574,0.6539764404296875,-1.2970385551452637]},{"children":[20],"name":"v3d_Proxy_Node_0_tile_3_tree.007","translation":[-0.0,-0.0,-4.76837158203125e-07]},{"extensions":{"S8S_v3d_node":{"frustumCulling":true,"groupNames":["tile_3_trees"],"hidden":false,"hidpiCompositing":false,"objectColor":[1.0,1.0,1.0,1.0],"objectIndex":0,"renderOrder":0}},"name":"tile_3_tree.004","rotation":[0.0,0.2349005490541458,-0.0,0.972019374370575],"translation":[8.55266284942627,9.5367431640625e-07,-0.18810796737670898]},{"children":[22],"name":"v3d_Proxy_Node_0_tile_3_tree.004","translation":[-0.0,-0.0,-4.76837158203125e-07]},{"extensions":{"S8S_v3d_node":{"frustumCulling":true,"groupNames":["tile_3_trees"],"hidden":false,"hidpiCompositing":false,"objectColor":[1.0,1.0,1.0,1.0],"objectIndex":0,"renderOrder":0}},"name":"tile_3_tree.005","rotation":[-0.0,-0.930510401725769,0.0,0.3662654757499695],"translation":[7.889223098754883,-0.014849662780761719,4.846421718597412]},{"children":[24],"name":"v3d_Proxy_Node_0_tile_3_tree.005","translation":[-0.0,-0.0,-4.76837158203125e-07]},{"camera":0,"name":"__DEFAULT_CAMERA__","rotation":[-0.08085624873638153,-0.891919732093811,-0.176604762673378,0.4083530604839325],"scale":[0.9999997615814209,0.9999996423721313,0.9999998211860657],"translation":[-10.959922790527344,5.895893573760986,-8.155744552612305]}],"samplers":[{}],"scene":0,"scenes":[{"extensions":{"S8S_v3d_scene":{"aaMethod":"AUTO","iblEnvironmentMode":"PMREM","physicallyCorrectLights":true,"pmremMaxTileSize":512,"shadowMap":{"esmDistanceScale":1.0,"renderReverseSided":false,"renderSingleSided":true,"type":"PCFPOISSON"},"toneMapping":{"type":"filmicBlender"},"worldMaterial":3}},"extras":{"animFrameRate":24,"coordSystem":"Z_UP_RIGHT"},"name":"Scene","nodes":[3,26]}],"textures":[{"extensions":{"KHR_texture_basisu":{"source":0},"S8S_v3d_texture":{"colorSpace":"srgb"}},"name":"ice_tile_1.jpg","sampler":0},{"extensions":{"KHR_texture_basisu":{"source":1},"S8S_v3d_texture":{"colorSpace":"srgb"}},"name":"snow_tile_1.jpg","sampler":0}]}
