{"accessors":[{"bufferView":0,"componentType":5121,"count":480,"max":[104],"min":[0],"type":"SCALAR"},{"bufferView":1,"componentType":5126,"count":105,"max":[10.0,0.9885603785514832,10.0],"min":[-10.0,-1.5649378299713135,-10.0],"type":"VEC3"},{"bufferView":2,"componentType":5126,"count":105,"max":[0.6481410264968872,1.0,0.45169615745544434],"min":[-0.4720121920108795,0.7559189796447754,-0.41982120275497437],"type":"VEC3"},{"bufferView":3,"componentType":5126,"count":105,"max":[1.0,1.0],"min":[0.0,0.0],"type":"VEC2"},{"bufferView":4,"componentType":5121,"count":36,"max":[23],"min":[0],"type":"SCALAR"},{"bufferView":5,"componentType":5126,"count":24,"max":[2.556044101715088,1.4003353118896484,2.303800582885742],"min":[-2.5560436248779297,-1.4003353118896484,-2.303800582885742],"type":"VEC3"},{"bufferView":6,"componentType":5126,"count":24,"max":[1.0,1.0,1.0],"min":[-1.0,-1.0,-1.0],"type":"VEC3"},{"bufferView":7,"componentType":5126,"count":24,"max":[1.0,1.0],"min":[0.0,0.0],"type":"VEC2"},{"bufferView":8,"componentType":5126,"count":3,"max":[4.125],"min":[0.0],"type":"SCALAR"},{"bufferView":9,"componentType":5126,"count":3,"max":[-0.0,0.9119249582290649,-0.0,1.0],"min":[-0.0,0.0,-0.0,-0.9999619126319885],"type":"VEC4"}],"animations":[{"channels":[{"sampler":0,"target":{"node":4,"path":"rotation"}}],"extensions":{"S8S_v3d_animation":{"auto":false,"loop":"REPEAT","offset":0.0,"repeatCount":1.0,"repeatInfinite":true}},"name":"weapon_spawn_place_1","samplers":[{"input":8,"interpolation":"LINEAR","output":9}]}],"asset":{"generator":"Verge3D for Blender v4.6.0","version":"2.0"},"bufferViews":[{"buffer":0,"byteLength":480,"byteOffset":0,"target":34963},{"buffer":0,"byteLength":1260,"byteOffset":480,"target":34962},{"buffer":0,"byteLength":1260,"byteOffset":1740,"target":34962},{"buffer":0,"byteLength":840,"byteOffset":3000,"target":34962},{"buffer":0,"byteLength":36,"byteOffset":3840,"target":34963},{"buffer":0,"byteLength":288,"byteOffset":3876,"target":34962},{"buffer":0,"byteLength":288,"byteOffset":4164,"target":34962},{"buffer":0,"byteLength":192,"byteOffset":4452,"target":34962},{"buffer":0,"byteLength":12,"byteOffset":4644},{"buffer":0,"byteLength":48,"byteOffset":4656}],"buffers":[{"byteLength":4704,"uri":"tile_1.bin"}],"cameras":[{"extensions":{"S8S_v3d_camera":{"controls":"ORBIT","enablePan":true,"moveSpeed":1,"orbitMaxDistance":10000,"orbitMaxPolarAngle":3.141592653589793,"orbitMinDistance":0,"orbitMinPolarAngle":0,"orbitTarget":[-0.8522127866744995,-0.6981873512268066,-1.2579822540283203],"rotateSpeed":1,"viewportFitInitialAspect":1,"viewportFitType":"VERTICAL"}},"name":"__DEFAULT__","perspective":{"aspectRatio":1,"yfov":0.7853981633974483,"zfar":1000.0,"znear":0.009999999776482582},"type":"perspective"}],"extensions":{"S8S_v3d_materials":{"nodeGraphs":[{"edges":[{"fromNode":2,"fromOutput":2,"toInput":0,"toNode":1},{"fromNode":4,"fromOutput":0,"toInput":0,"toNode":5},{"fromNode":3,"fromOutput":0,"toInput":6,"toNode":2},{"fromNode":0,"fromOutput":2,"toInput":7,"toNode":2},{"fromNode":5,"fromOutput":0,"toInput":0,"toNode":0}],"name":"shadow","nodes":[{"blendType":"MIX","clampFactor":true,"clampResult":false,"dataType":"RGBA","factorMode":"UNIFORM","inputs":[0.5,[0.5,0.5,0.5],0.0,0.0,[0.0,0.0,0.0],[0.0,0.0,0.0],[0.19781818985939026,0.5121480226516724,0.8134249448776245,1.0],[1.0,1.0,1.0,1.0],0,0],"is_active_output":false,"name":"Mix.001","outputs":[0.0,[0.0,0.0,0.0],[0.0,0.0,0.0,0.0],0],"type":"MIX_BL"},{"inputs":[[0.0,0.0,0.0,0.0]],"is_active_output":true,"name":"Group Output","outputs":[],"type":"GROUP_OUTPUT_BL"},{"blendType":"MULTIPLY","clampFactor":true,"clampResult":false,"dataType":"RGBA","factorMode":"UNIFORM","inputs":[1.0,[0.5,0.5,0.5],0.0,0.0,[0.0,0.0,0.0],[0.0,0.0,0.0],[0.5,0.5,0.5,1.0],[0.5,0.5,0.5,1.0],0,0],"is_active_output":false,"name":"Mix","outputs":[0.0,[0.0,0.0,0.0],[0.0,0.0,0.0,0.0],0],"type":"MIX_BL"},{"inputs":[],"is_active_output":false,"name":"Group Input","outputs":[[0.5,0.5,0.5,1.0]],"type":"GROUP_INPUT_BL"},{"inputs":[[1.0,1.0,1.0,1.0],0.0,[0.0,0.0,0.0]],"is_active_output":false,"name":"Diffuse BSDF.001","outputs":[[0,0,0,0]],"type":"BSDF_DIFFUSE_BL"},{"inputs":[[0,0,0,0]],"is_active_output":false,"name":"Shader to RGB","outputs":[[0.0,0.0,0.0,0.0],0.0],"type":"SHADERTORGB_BL"}]}]}},"extensionsUsed":["S8S_v3d_texture","S8S_v3d_materials","S8S_v3d_camera","S8S_v3d_mesh","S8S_v3d_node","S8S_v3d_animation","S8S_v3d_scene"],"images":[{"uri":"snow_tile_1.jpg"}],"materials":[{"alphaMode":"BLEND","doubleSided":true,"extensions":{"S8S_v3d_materials":{"depthWrite":false,"gtaoVisible":false,"materialIndex":0,"nodeGraph":{"edges":[{"fromNode":1,"fromOutput":0,"toInput":0,"toNode":0}],"nodes":[{"inputs":[[0,0,0,0],[0,0,0,0],[0.0,0.0,0.0],0.0],"is_active_output":true,"name":"Material Output","outputs":[],"type":"OUTPUT_MATERIAL_BL"},{"inputs":[[0.8000000715255737,0.0,0.0010861854534596205,1.0],0.0,0.5,1.4500000476837158,0.27727270126342773,[0.0,0.0,0.0],0.0,[1.0,0.20000000298023224,0.10000000149011612],0.05000000074505806,1.399999976158142,0.0,0.5,[1.0,1.0,1.0,1.0],0.0,0.0,[0.0,0.0,0.0],0.0,0.0,0.029999999329447746,1.5,[1.0,1.0,1.0,1.0],[0.0,0.0,0.0],0.0,0.5,[1.0,1.0,1.0,1.0],[0.0,0.0,0.0,1.0],1.0],"is_active_output":false,"name":"Principled BSDF","outputs":[[0,0,0,0]],"type":"BSDF_PRINCIPLED_BL"}]},"renderSide":"DOUBLE","useCastShadows":true}},"name":"Material"},{"extensions":{"S8S_v3d_materials":{"gtaoVisible":true,"materialIndex":0,"nodeGraph":{"edges":[{"fromNode":0,"fromOutput":0,"toInput":0,"toNode":1},{"fromNode":1,"fromOutput":0,"toInput":0,"toNode":10},{"fromNode":10,"fromOutput":0,"toInput":0,"toNode":9},{"fromNode":3,"fromOutput":0,"toInput":0,"toNode":5},{"fromNode":5,"fromOutput":0,"toInput":0,"toNode":6},{"fromNode":6,"fromOutput":0,"toInput":0,"toNode":7},{"fromNode":8,"fromOutput":2,"toInput":0,"toNode":2},{"fromNode":2,"fromOutput":0,"toInput":0,"toNode":4},{"fromNode":7,"fromOutput":0,"toInput":0,"toNode":8},{"fromNode":9,"fromOutput":0,"toInput":7,"toNode":8}],"nodes":[{"inputs":[],"is_active_output":false,"name":"UV Map","outputs":[[0.0,0.0,0.0]],"type":"UVMAP_BL","uvLayer":"UVMap"},{"inputs":[[0.0,0.0,0.0],[0.0,0.0,0.0],[0.0,0.0,0.0],[5.0,5.0,5.0]],"is_active_output":false,"name":"Mapping","outputs":[[0.0,0.0,0.0]],"type":"MAPPING_BL","vectorType":"POINT"},{"inputs":[[1.0,1.0,1.0,1.0],1.0],"is_active_output":false,"name":"Emission","outputs":[[0,0,0,0]],"type":"EMISSION_BL"},{"inputs":[],"is_active_output":false,"name":"Geometry","outputs":[[0.0,0.0,0.0],[0.0,0.0,0.0],[0.0,0.0,0.0],[0.0,0.0,0.0],[0.0,0.0,0.0],[0.0,0.0,0.0],0.0,0.0,0.0],"type":"NEW_GEOMETRY_BL"},{"inputs":[[0,0,0,0],[0,0,0,0],[0.0,0.0,0.0],0.0],"is_active_output":true,"name":"Material Output","outputs":[],"type":"OUTPUT_MATERIAL_BL"},{"inputs":[[0.0,0.0,0.0],[0.0,0.0,0.0],[0.0,0.0,0.0],[0.012000000104308128,0.012000000104308128,0.012000000104308128]],"is_active_output":false,"name":"Mapping.001","outputs":[[0.0,0.0,0.0]],"type":"MAPPING_BL","vectorType":"POINT"},{"gradientType":"SPHERICAL","inputs":[[0.0,0.0,0.0]],"is_active_output":false,"name":"Gradient Texture","outputs":[[0.0,0.0,0.0,0.0],0.0],"type":"TEX_GRADIENT_BL"},{"curve":{"input":[0.04999999701976776,0.386364221572876],"interpolation":"LINEAR","output":[0.0,0.0,0.0,1.0,1.0,1.0,1.0,1.0]},"inputs":[0.5],"is_active_output":false,"name":"ColorRamp","outputs":[[0.0,0.0,0.0,0.0],0.0],"type":"VALTORGB_BL"},{"blendType":"MIX","clampFactor":true,"clampResult":false,"dataType":"RGBA","factorMode":"UNIFORM","inputs":[0.5,[0.5,0.5,0.5],0.0,0.0,[0.0,0.0,0.0],[0.0,0.0,0.0],[0.5906190872192383,0.7011020183563232,0.7758224010467529,1.0],[0.5906190872192383,0.7011020183563232,0.7758224010467529,1.0],0,0],"is_active_output":false,"name":"Mix","outputs":[0.0,[0.0,0.0,0.0],[0.0,0.0,0.0,0.0],0],"type":"MIX_BL"},{"inputs":[[0.5,0.5,0.5,1.0]],"is_active_output":false,"name":"Group","nodeGraph":0,"outputs":[[0.0,0.0,0.0,0.0]],"type":"GROUP_BL"},{"alphaMode":"STRAIGHT","inputs":[[0.0,0.0,0.0]],"is_active_output":false,"name":"Image Texture","outputs":[[0.0,0.0,0.0,0.0],0.0],"projection":"FLAT","projectionBlend":0.0,"texture":0,"type":"TEX_IMAGE_BL"}]},"useCastShadows":true}},"name":"snow_ground"},{"extensions":{"S8S_v3d_materials":{"gtaoVisible":true,"materialIndex":0,"nodeGraph":{"edges":[{"fromNode":1,"fromOutput":0,"toInput":0,"toNode":0}],"nodes":[{"inputs":[[0,0,0,0],[0,0,0,0]],"is_active_output":true,"name":"World Output","outputs":[],"type":"OUTPUT_WORLD_BL"},{"inputs":[[0.05087608844041824,0.05087608844041824,0.05087608844041824,1.0],1.0],"is_active_output":false,"name":"Background","outputs":[[0,0,0,0]],"type":"BACKGROUND_BL"}]},"useCastShadows":true}},"name":"Verge3D_Environment_World"}],"meshes":[{"extensions":{"S8S_v3d_mesh":{"colorLayers":{},"uvLayers":{"UVMap":"TEXCOORD_0"}}},"name":"Plane","primitives":[{"attributes":{"NORMAL":2,"POSITION":1,"TEXCOORD_0":3},"indices":0,"material":1,"mode":4}]},{"extensions":{"S8S_v3d_mesh":{"colorLayers":{},"uvLayers":{"UVMap":"TEXCOORD_0"}}},"name":"Plane.001","primitives":[{"attributes":{"NORMAL":6,"POSITION":5,"TEXCOORD_0":7},"indices":4,"material":0,"mode":4}]}],"nodes":[{"extensions":{"S8S_v3d_node":{"frustumCulling":true,"groupNames":["ground_1"],"hidden":false,"hidpiCompositing":false,"objectColor":[1.0,1.0,1.0,1.0],"objectIndex":0,"renderOrder":0,"useShadows":true}},"mesh":0,"name":"tile_1_ground"},{"extensions":{"S8S_v3d_node":{"frustumCulling":true,"groupNames":["ground_1"],"hidden":false,"hidpiCompositing":false,"objectColor":[1.0,1.0,1.0,1.0],"objectIndex":0,"renderOrder":0}},"name":"tile_1_enemy_spawn","translation":[0.3146672248840332,0.0,8.016356468200684]},{"extensions":{"S8S_v3d_node":{"frustumCulling":true,"groupNames":["ground_1"],"hidden":false,"hidpiCompositing":false,"objectColor":[1.0,1.0,1.0,1.0],"objectIndex":0,"renderOrder":0,"useShadows":true}},"mesh":1,"name":"tile_1_enemy_trigger","translation":[6.11491060256958,1.4471704959869385,-6.193338871002197]},{"children":[1,2,0,7,8,9,10,13,14,11,12,4],"extensions":{"S8S_v3d_node":{"frustumCulling":true,"groupNames":["ground_1"],"hidden":false,"hidpiCompositing":false,"objectColor":[1.0,1.0,1.0,1.0],"objectIndex":0,"renderOrder":0}},"name":"tile_1_base"},{"children":[6],"extensions":{"S8S_v3d_node":{"frustumCulling":true,"groupNames":["ground_1"],"hidden":false,"hidpiCompositing":false,"objectColor":[1.0,1.0,1.0,1.0],"objectIndex":0,"renderOrder":0}},"name":"weapon_spawn_place_1","translation":[-2.2568936347961426,0.283499538898468,-2.113898754119873]},{"extensions":{"S8S_v3d_node":{"frustumCulling":true,"groupNames":["ground_1"],"hidden":false,"hidpiCompositing":false,"objectColor":[1.0,1.0,1.0,1.0],"objectIndex":0,"renderOrder":0}},"name":"weapon_spawn_place_1_offset","translation":[2.5931239128112793,1.0,1.1296743154525757]},{"children":[5],"name":"v3d_Proxy_Node_0_weapon_spawn_place_1_offset","translation":[-2.5931239128112793,-1.0,-0.7758328914642334]},{"extensions":{"S8S_v3d_node":{"frustumCulling":true,"groupNames":["tile_1_trees"],"hidden":false,"hidpiCompositing":false,"objectColor":[1.0,1.0,1.0,1.0],"objectIndex":0,"renderOrder":0}},"name":"tile_1_tree.000","rotation":[0.0,-0.339400053024292,-0.0,0.9406421184539795],"translation":[-7.805700302124023,0.0,-5.302785873413086]},{"extensions":{"S8S_v3d_node":{"frustumCulling":true,"groupNames":["tile_1_trees"],"hidden":false,"hidpiCompositing":false,"objectColor":[1.0,1.0,1.0,1.0],"objectIndex":0,"renderOrder":0}},"name":"tile_1_tree.001","rotation":[0.0,0.44211626052856445,-0.0,0.8969577550888062],"translation":[-4.981345176696777,-1.1344490051269531,-4.457889556884766]},{"extensions":{"S8S_v3d_node":{"frustumCulling":true,"groupNames":["tile_1_trees"],"hidden":false,"hidpiCompositing":false,"objectColor":[1.0,1.0,1.0,1.0],"objectIndex":0,"renderOrder":0}},"name":"tile_1_tree.002","rotation":[0.0,0.8573253750801086,-0.0,0.5147749185562134],"translation":[5.272662162780762,-9.5367431640625e-07,-0.29787158966064453]},{"extensions":{"S8S_v3d_node":{"frustumCulling":true,"groupNames":["tile_1_trees"],"hidden":false,"hidpiCompositing":false,"objectColor":[1.0,1.0,1.0,1.0],"objectIndex":0,"renderOrder":0}},"name":"tile_1_tree.003","rotation":[0.0,0.5780554413795471,-0.0,0.8159975409507751],"scale":[0.9999999403953552,1.0,0.9999999403953552],"translation":[7.6877851486206055,0.0,-1.2720470428466797]},{"extensions":{"S8S_v3d_node":{"frustumCulling":true,"groupNames":["tile_1_trees"],"hidden":false,"hidpiCompositing":false,"objectColor":[1.0,1.0,1.0,1.0],"objectIndex":0,"renderOrder":0}},"name":"tile_1_tree.009","rotation":[0.0,-0.4390580356121063,-0.0,0.89845871925354],"translation":[-5.769697666168213,0.0,7.513260364532471]},{"extensions":{"S8S_v3d_node":{"frustumCulling":true,"groupNames":["tile_1_trees"],"hidden":false,"hidpiCompositing":false,"objectColor":[1.0,1.0,1.0,1.0],"objectIndex":0,"renderOrder":0}},"name":"tile_1_tree.010","rotation":[0.0,0.3004586696624756,-0.0,0.9537948369979858],"translation":[-8.230323791503906,0.0,3.117804765701294]},{"extensions":{"S8S_v3d_node":{"frustumCulling":true,"groupNames":["tile_1_trees"],"hidden":false,"hidpiCompositing":false,"objectColor":[1.0,1.0,1.0,1.0],"objectIndex":0,"renderOrder":0}},"name":"tile_1_tree.004","rotation":[0.0,0.9991350769996643,-0.0,0.041582826524972916],"translation":[6.575453758239746,0.0,5.175518989562988]},{"extensions":{"S8S_v3d_node":{"frustumCulling":true,"groupNames":["tile_1_trees"],"hidden":false,"hidpiCompositing":false,"objectColor":[1.0,1.0,1.0,1.0],"objectIndex":0,"renderOrder":0}},"name":"tile_1_tree.005","rotation":[-0.0,-0.8990138173103333,0.0,0.4379202425479889],"translation":[7.179797172546387,0.0,3.2636594772338867]},{"camera":0,"name":"__DEFAULT_CAMERA__","rotation":[-0.15445609390735626,-0.6990949511528015,-0.15883052349090576,0.6798400282859802],"scale":[0.9999998211860657,0.9999997615814209,0.9999997615814209],"translation":[-8.595641136169434,3.013293981552124,-1.4742779731750488]}],"samplers":[{}],"scene":0,"scenes":[{"extensions":{"S8S_v3d_scene":{"aaMethod":"AUTO","iblEnvironmentMode":"PMREM","physicallyCorrectLights":true,"pmremMaxTileSize":512,"shadowMap":{"esmDistanceScale":1.0,"renderReverseSided":false,"renderSingleSided":true,"type":"PCFPOISSON"},"toneMapping":{"type":"filmicBlender"},"worldMaterial":2}},"extras":{"animFrameRate":24,"coordSystem":"Z_UP_RIGHT"},"name":"Scene","nodes":[3,15]}],"textures":[{"extensions":{"S8S_v3d_texture":{"colorSpace":"srgb"}},"name":"snow_tile_1.jpg","sampler":0,"source":0}]}
