{"accessors":[{"bufferView":0,"componentType":5121,"count":96,"max":[61],"min":[0],"type":"SCALAR"},{"bufferView":1,"componentType":5126,"count":62,"max":[0.024714674800634384,0.06674104183912277,-0.0008317126194015145],"min":[-0.024714671075344086,-0.07372374087572098,-0.13554371893405914],"type":"VEC3"},{"bufferView":2,"componentType":5126,"count":62,"max":[0.999535083770752,0.8768872022628784,1.0],"min":[-0.999535083770752,-0.8764030933380127,-0.9999958872795105],"type":"VEC3"},{"bufferView":3,"componentType":5126,"count":62,"max":[0.7699608206748962,1.7274343967437744],"min":[0.18757084012031555,-0.8720518350601196],"type":"VEC2"},{"bufferView":4,"componentType":5126,"count":62,"max":[0.9964126944541931,0.6941186785697937],"min":[0.5709938406944275,0.08538985252380371],"type":"VEC2"},{"bufferView":5,"componentType":5121,"count":66,"max":[27],"min":[0],"type":"SCALAR"},{"bufferView":6,"componentType":5126,"count":28,"max":[1.3309316635131836,0.0,0.3550172448158264],"min":[-1.3309316635131836,-0.18935663998126984,-0.3327329754829407],"type":"VEC3"},{"bufferView":7,"componentType":5126,"count":28,"max":[0.0,1.0,1.0],"min":[0.0,0.0,-1.0],"type":"VEC3"},{"bufferView":8,"componentType":5126,"count":28,"max":[1.0,4.008904397778679e-06,5.638239599647932e-06,1.0],"min":[1.0,-1.0439742936796392e-07,-0.0,1.0],"type":"VEC4"},{"bufferView":9,"componentType":5126,"count":28,"max":[1.499821424484253,0.8840937614440918],"min":[-0.49982142448425293,0.08678168058395386],"type":"VEC2"},{"bufferView":10,"componentType":5126,"count":28,"max":[0.5698450207710266,0.9974603652954102],"min":[0.2280796468257904,0.14033406972885132],"type":"VEC2"},{"bufferView":11,"componentType":5121,"count":6,"max":[3],"min":[0],"type":"SCALAR"},{"bufferView":12,"componentType":5126,"count":4,"max":[1.3309316635131836,0.5546565055847168,-0.33685070276260376],"min":[-1.3309316635131836,-0.0353110134601593,-0.33685070276260376],"type":"VEC3"},{"bufferView":13,"componentType":5126,"count":4,"max":[0.0,0.0,1.0],"min":[0.0,0.0,1.0],"type":"VEC3"},{"bufferView":14,"componentType":5126,"count":4,"max":[-1.0,8.94188545430552e-08,-0.0,1.0],"min":[-1.0,5.052191554000274e-08,-0.0,1.0],"type":"VEC4"},{"bufferView":15,"componentType":5126,"count":4,"max":[1.4998667240142822,0.9999334216117859],"min":[-0.4998668134212494,0.5567182302474976],"type":"VEC2"},{"bufferView":16,"componentType":5126,"count":4,"max":[0.2230411022901535,0.9974843859672546],"min":[0.0025198268704116344,0.002518951892852783],"type":"VEC2"},{"bufferView":17,"componentType":5121,"count":66,"max":[23],"min":[0],"type":"SCALAR"},{"bufferView":18,"componentType":5126,"count":24,"max":[0.007499999832361937,0.0,0.007499999832361937],"min":[-0.007499999832361937,0.0,-0.007499999832361937],"type":"VEC3"},{"bufferView":19,"componentType":5126,"count":24,"max":[0.0,1.0,-0.0],"min":[0.0,1.0,-0.0],"type":"VEC3"},{"bufferView":20,"componentType":5126,"count":24,"max":[0.9998999834060669,0.9999000430107117],"min":[9.995698928833008e-05,9.995698928833008e-05],"type":"VEC2"},{"bufferView":21,"componentType":5121,"count":66,"max":[23],"min":[0],"type":"SCALAR"},{"bufferView":22,"componentType":5126,"count":24,"max":[0.007499999832361937,0.0,0.007499999832361937],"min":[-0.007499999832361937,0.0,-0.007499999832361937],"type":"VEC3"},{"bufferView":23,"componentType":5126,"count":24,"max":[0.0,1.0,-0.0],"min":[0.0,1.0,-0.0],"type":"VEC3"},{"bufferView":24,"componentType":5126,"count":24,"max":[0.9998999834060669,0.9999000430107117],"min":[9.995698928833008e-05,9.995698928833008e-05],"type":"VEC2"},{"bufferView":25,"componentType":5121,"count":66,"max":[23],"min":[0],"type":"SCALAR"},{"bufferView":26,"componentType":5126,"count":24,"max":[0.007499999832361937,0.0,0.007499999832361937],"min":[-0.007499999832361937,0.0,-0.007499999832361937],"type":"VEC3"},{"bufferView":27,"componentType":5126,"count":24,"max":[0.0,1.0,-0.0],"min":[0.0,1.0,-0.0],"type":"VEC3"},{"bufferView":28,"componentType":5126,"count":24,"max":[0.9998999238014221,0.9999000430107117],"min":[9.994959691539407e-05,9.995698928833008e-05],"type":"VEC2"},{"bufferView":29,"componentType":5121,"count":360,"max":[191],"min":[0],"type":"SCALAR"},{"bufferView":30,"componentType":5126,"count":192,"max":[0.10499999672174454,0.10499999672174454,0.00299999606795609],"min":[-0.10499999672174454,-0.10499999672174454,-0.0029999965336173773],"type":"VEC3"},{"bufferView":31,"componentType":5126,"count":192,"max":[1.0,1.0,1.0],"min":[-1.0,-1.0,-0.9999974370002747],"type":"VEC3"},{"bufferView":32,"componentType":5126,"count":192,"max":[0.9998671412467957,0.9998672604560852],"min":[0.0001327416393905878,0.5130035877227783],"type":"VEC2"},{"bufferView":33,"componentType":5126,"count":192,"max":[0.9764035940170288,0.2567934989929199],"min":[0.22807888686656952,0.021765410900115967],"type":"VEC2"},{"bufferView":34,"componentType":5123,"count":192,"max":[2,0,0,0],"min":[1,0,0,0],"type":"VEC4"},{"bufferView":35,"componentType":5126,"count":192,"max":[1.0,0.0,0.0,0.0],"min":[1.0,0.0,0.0,0.0],"type":"VEC4"},{"bufferView":36,"componentType":5121,"count":6,"max":[3],"min":[0],"type":"SCALAR"},{"bufferView":37,"componentType":5126,"count":4,"max":[0.10250000655651093,0.10250000655651093,-0.0006767830345779657],"min":[-0.10250001400709152,-0.10250001400709152,-0.0006771670305170119],"type":"VEC3"},{"bufferView":38,"componentType":5126,"count":4,"max":[-9.999999974752427e-07,9.999999974752427e-07,-1.0],"min":[-9.999999974752427e-07,9.999999974752427e-07,-1.0],"type":"VEC3"},{"bufferView":39,"componentType":5126,"count":4,"max":[1.6914921998977661,1.6914921998977661],"min":[-0.6914921998977661,-0.6914921998977661],"type":"VEC2"},{"bufferView":40,"componentType":5126,"count":4,"max":[0.9044653177261353,0.9974846243858337],"min":[0.5748805403709412,0.6622904539108276],"type":"VEC2"},{"bufferView":41,"componentType":5123,"count":4,"max":[2,0,0,0],"min":[1,0,0,0],"type":"VEC4"},{"bufferView":42,"componentType":5126,"count":4,"max":[1.0,0.0,0.0,0.0],"min":[1.0,0.0,0.0,0.0],"type":"VEC4"},{"bufferView":43,"componentType":5121,"count":6,"max":[3],"min":[0],"type":"SCALAR"},{"bufferView":44,"componentType":5126,"count":4,"max":[0.08323207497596741,0.0832335501909256,0.0006399272242560983],"min":[-0.083232082426548,-0.083233542740345,0.0006396251847036183],"type":"VEC3"},{"bufferView":45,"componentType":5126,"count":4,"max":[9.999999974752427e-07,-9.999999974752427e-07,1.0],"min":[9.999999974752427e-07,-9.999999974752427e-07,1.0],"type":"VEC3"},{"bufferView":46,"componentType":5126,"count":4,"max":[1.0,1.0],"min":[0.0,0.0],"type":"VEC2"},{"bufferView":47,"componentType":5126,"count":4,"max":[0.8425194025039673,0.654850959777832],"min":[0.5748852491378784,0.26652592420578003],"type":"VEC2"},{"bufferView":48,"componentType":5123,"count":4,"max":[2,0,0,0],"min":[1,0,0,0],"type":"VEC4"},{"bufferView":49,"componentType":5126,"count":4,"max":[1.0,0.0,0.0,0.0],"min":[1.0,0.0,0.0,0.0],"type":"VEC4"},{"bufferView":50,"componentType":5121,"count":48,"max":[31],"min":[0],"type":"SCALAR"},{"bufferView":51,"componentType":5126,"count":32,"max":[0.10250000655651093,0.10250001400709152,0.0020926003344357014],"min":[-0.10250001400709152,-0.10250000655651093,0.0006396251847036183],"type":"VEC3"},{"bufferView":52,"componentType":5126,"count":32,"max":[0.9999935030937195,0.9999986290931702,1.0],"min":[-0.9999907612800598,-0.9999986290931702,-0.0017079993849620223],"type":"VEC3"},{"bufferView":53,"componentType":5126,"count":32,"max":[1.1377999782562256,1.0866999626159668],"min":[-0.13779999315738678,-0.0866999626159668],"type":"VEC2"},{"bufferView":54,"componentType":5126,"count":32,"max":[0.9934661984443665,0.9970644116401672],"min":[0.5748793482780457,0.018572747707366943],"type":"VEC2"},{"bufferView":55,"componentType":5123,"count":32,"max":[2,0,0,0],"min":[1,0,0,0],"type":"VEC4"},{"bufferView":56,"componentType":5126,"count":32,"max":[1.0,0.0,0.0,0.0],"min":[1.0,0.0,0.0,0.0],"type":"VEC4"},{"bufferView":57,"componentType":5126,"count":4,"max":[1.0,2.3841855067985307e-07,8.385197724109665e-21,0.0,5.989428215182509e-21,1.0,0.0,0.0,0.0,1.0,1.0,0.0,0.08323206752538681,5.8765198929222606e-08,0.0,1.0],"min":[1.0,0.0,-5.989427306414746e-22,0.0,-5.989427811285725e-22,3.4228531120561456e-08,-1.0,0.0,-2.384185791015625e-07,0.0,3.4228531120561456e-08,0.0,-0.08323206752538681,0.0,-0.18216383457183838,1.0],"type":"MAT4"},{"bufferView":58,"componentType":5126,"count":4,"max":[1.0,2.3841855067985307e-07,8.385197724109665e-21,0.0,5.989428215182509e-21,1.0,0.0,0.0,0.0,1.0,1.0,0.0,0.08323206752538681,5.8765198929222606e-08,0.0,1.0],"min":[1.0,0.0,-5.989427306414746e-22,0.0,-5.989427811285725e-22,3.4228531120561456e-08,-1.0,0.0,-2.384185791015625e-07,0.0,3.4228531120561456e-08,0.0,-0.08323206752538681,0.0,-0.18216383457183838,1.0],"type":"MAT4"},{"bufferView":59,"componentType":5126,"count":4,"max":[1.0,2.3841855067985307e-07,8.385197724109665e-21,0.0,5.989428215182509e-21,1.0,0.0,0.0,0.0,1.0,1.0,0.0,0.08323206752538681,5.8765198929222606e-08,0.0,1.0],"min":[1.0,0.0,-5.989427306414746e-22,0.0,-5.989427811285725e-22,3.4228531120561456e-08,-1.0,0.0,-2.384185791015625e-07,0.0,3.4228531120561456e-08,0.0,-0.08323206752538681,0.0,-0.18216383457183838,1.0],"type":"MAT4"},{"bufferView":60,"componentType":5126,"count":4,"max":[0.751221776008606,1.7747338176832272e-07,0.6600499749183655,0.0,0.6600499749183655,0.7512217164039612,-2.6111310447163305e-08,0.0,8.623706548860355e-08,1.000000238418579,1.0,0.0,0.08323206752538681,5.8765198929222606e-08,0.0,1.0],"min":[0.7512217164039612,-0.6600499153137207,-9.185343685658154e-08,0.0,0.6600499153137207,-4.006093590191995e-08,-0.7512218952178955,0.0,-1.7747339597917744e-07,-4.101246986465412e-08,-1.7384330419645266e-07,0.0,-0.08323206752538681,0.0,-0.18216383457183838,1.0],"type":"MAT4"}],"asset":{"generator":"Verge3D for Blender v4.9.0","version":"2.0"},"bufferViews":[{"buffer":0,"byteLength":96,"byteOffset":0,"target":34963},{"buffer":0,"byteLength":744,"byteOffset":96,"target":34962},{"buffer":0,"byteLength":744,"byteOffset":840,"target":34962},{"buffer":0,"byteLength":496,"byteOffset":1584,"target":34962},{"buffer":0,"byteLength":496,"byteOffset":2080,"target":34962},{"buffer":0,"byteLength":66,"byteOffset":2576,"target":34963},{"buffer":0,"byteLength":336,"byteOffset":2644,"target":34962},{"buffer":0,"byteLength":336,"byteOffset":2980,"target":34962},{"buffer":0,"byteLength":448,"byteOffset":3316,"target":34962},{"buffer":0,"byteLength":224,"byteOffset":3764,"target":34962},{"buffer":0,"byteLength":224,"byteOffset":3988,"target":34962},{"buffer":0,"byteLength":6,"byteOffset":4212,"target":34963},{"buffer":0,"byteLength":48,"byteOffset":4220,"target":34962},{"buffer":0,"byteLength":48,"byteOffset":4268,"target":34962},{"buffer":0,"byteLength":64,"byteOffset":4316,"target":34962},{"buffer":0,"byteLength":32,"byteOffset":4380,"target":34962},{"buffer":0,"byteLength":32,"byteOffset":4412,"target":34962},{"buffer":0,"byteLength":66,"byteOffset":4444,"target":34963},{"buffer":0,"byteLength":288,"byteOffset":4512,"target":34962},{"buffer":0,"byteLength":288,"byteOffset":4800,"target":34962},{"buffer":0,"byteLength":192,"byteOffset":5088,"target":34962},{"buffer":0,"byteLength":66,"byteOffset":5280,"target":34963},{"buffer":0,"byteLength":288,"byteOffset":5348,"target":34962},{"buffer":0,"byteLength":288,"byteOffset":5636,"target":34962},{"buffer":0,"byteLength":192,"byteOffset":5924,"target":34962},{"buffer":0,"byteLength":66,"byteOffset":6116,"target":34963},{"buffer":0,"byteLength":288,"byteOffset":6184,"target":34962},{"buffer":0,"byteLength":288,"byteOffset":6472,"target":34962},{"buffer":0,"byteLength":192,"byteOffset":6760,"target":34962},{"buffer":0,"byteLength":360,"byteOffset":6952,"target":34963},{"buffer":0,"byteLength":2304,"byteOffset":7312,"target":34962},{"buffer":0,"byteLength":2304,"byteOffset":9616,"target":34962},{"buffer":0,"byteLength":1536,"byteOffset":11920,"target":34962},{"buffer":0,"byteLength":1536,"byteOffset":13456,"target":34962},{"buffer":0,"byteLength":1536,"byteOffset":14992,"target":34962},{"buffer":0,"byteLength":3072,"byteOffset":16528,"target":34962},{"buffer":0,"byteLength":6,"byteOffset":19600,"target":34963},{"buffer":0,"byteLength":48,"byteOffset":19608,"target":34962},{"buffer":0,"byteLength":48,"byteOffset":19656,"target":34962},{"buffer":0,"byteLength":32,"byteOffset":19704,"target":34962},{"buffer":0,"byteLength":32,"byteOffset":19736,"target":34962},{"buffer":0,"byteLength":32,"byteOffset":19768,"target":34962},{"buffer":0,"byteLength":64,"byteOffset":19800,"target":34962},{"buffer":0,"byteLength":6,"byteOffset":19864,"target":34963},{"buffer":0,"byteLength":48,"byteOffset":19872,"target":34962},{"buffer":0,"byteLength":48,"byteOffset":19920,"target":34962},{"buffer":0,"byteLength":32,"byteOffset":19968,"target":34962},{"buffer":0,"byteLength":32,"byteOffset":20000,"target":34962},{"buffer":0,"byteLength":32,"byteOffset":20032,"target":34962},{"buffer":0,"byteLength":64,"byteOffset":20064,"target":34962},{"buffer":0,"byteLength":48,"byteOffset":20128,"target":34963},{"buffer":0,"byteLength":384,"byteOffset":20176,"target":34962},{"buffer":0,"byteLength":384,"byteOffset":20560,"target":34962},{"buffer":0,"byteLength":256,"byteOffset":20944,"target":34962},{"buffer":0,"byteLength":256,"byteOffset":21200,"target":34962},{"buffer":0,"byteLength":256,"byteOffset":21456,"target":34962},{"buffer":0,"byteLength":512,"byteOffset":21712,"target":34962},{"buffer":0,"byteLength":256,"byteOffset":22224},{"buffer":0,"byteLength":256,"byteOffset":22480},{"buffer":0,"byteLength":256,"byteOffset":22736},{"buffer":0,"byteLength":256,"byteOffset":22992}],"buffers":[{"byteLength":23248,"uri":"custom_image.bin"}],"cameras":[{"extensions":{"S8S_v3d_camera":{"controls":"ORBIT","enablePan":false,"moveSpeed":1.0,"orbitMaxAzimuthAngle":6.108652591705322,"orbitMaxDistance":0.6000000238418579,"orbitMaxPolarAngle":1.483529806137085,"orbitMaxZoom":100.0,"orbitMinAzimuthAngle":5.061454772949219,"orbitMinDistance":0.30000001192092896,"orbitMinPolarAngle":0.0,"orbitMinZoom":0.009999999776482582,"orbitTarget":[0.0,0.10999999940395355,-0.0],"rotateSpeed":1.0,"viewportFitInitialAspect":1.7777777910232544,"viewportFitType":"VERTICAL"}},"name":"Camera","perspective":{"aspectRatio":1.7777777910232544,"yfov":0.5033799409866333,"zfar":100.0,"znear":0.10000000149011612},"type":"perspective"}],"extensions":{"S8S_v3d_lights":{"lights":[{"color":[1.0,1.0,1.0],"intensity":5.0,"name":"Sun","profile":"blender","shadow":{"bias":-0.0018,"cameraFar":100,"cameraFov":0,"cameraNear":0.1,"csm":{"count":4,"exponent":0.800000011920929,"fade":0.10000000149011612,"lightMargin":0.0,"maxDistance":1000.0},"enabled":true,"expBias":2.5,"mapSize":1024,"radius":1.0,"slopeScaledBias":2.5},"type":"directional"}]}},"extensionsUsed":["KHR_texture_basisu","S8S_v3d_texture","S8S_v3d_materials","S8S_v3d_camera","S8S_v3d_lights","S8S_v3d_mesh","S8S_v3d_node","S8S_v3d_scene"],"images":[{"uri":"ao.ktx2"},{"uri":"cardboard_diffuse.jpg"},{"uri":"facebook.ktx2"},{"uri":"default_pattern.ktx2"},{"uri":"reddit.ktx2"},{"uri":"table_wood_normal.ktx2"},{"uri":"table_wood_basecolor.ktx2"},{"uri":"twitter.ktx2"},{"uri":"wall_normal.ktx2"},{"uri":"frame_wood_basecolor.ktx2"},{"uri":"environment.hdr.xz"}],"materials":[{"alphaMode":"OPAQUE","extensions":{"S8S_v3d_materials":{"gtaoVisible":true,"materialIndex":0,"nodeGraph":{"edges":[{"fromNode":2,"fromOutput":0,"toInput":2,"toNode":6},{"fromNode":1,"fromOutput":0,"toInput":0,"toNode":7},{"fromNode":7,"fromOutput":0,"toInput":0,"toNode":2},{"fromNode":3,"fromOutput":0,"toInput":0,"toNode":4},{"fromNode":6,"fromOutput":0,"toInput":0,"toNode":0},{"fromNode":4,"fromOutput":0,"toInput":0,"toNode":6},{"fromNode":5,"fromOutput":0,"toInput":1,"toNode":6}],"nodes":[{"inputs":[[0,0,0,0],[0,0,0,0],[0.0,0.0,0.0],0.0],"is_active_output":true,"name":"Material Output","outputs":[],"type":"OUTPUT_MATERIAL_BL"},{"inputs":[],"is_active_output":false,"name":"UV Map","outputs":[[0.0,0.0,0.0]],"type":"UVMAP_BL","uvLayer":"UVMap"},{"inputs":[[0.9921568632125854,0.9803921580314636,0.8901960849761963,1.0],1.0,[0.0,0.0,0.0]],"is_active_output":false,"name":"Diffuse BSDF","outputs":[[0,0,0,0]],"type":"BSDF_DIFFUSE_BL"},{"inputs":[],"is_active_output":false,"name":"UV Map.001","outputs":[[0.0,0.0,0.0]],"type":"UVMAP_BL","uvLayer":"ao"},{"alphaMode":"CHANNEL_PACKED","inputs":[[0.0,0.0,0.0]],"is_active_output":false,"name":"Image Texture.003","outputs":[[0.0,0.0,0.0,0.0],0.0],"projection":"FLAT","projectionBlend":0.0,"texture":0,"type":"TEX_IMAGE_BL"},{"inputs":[[0.0,0.0,0.0,1.0],1.0,[0.0,0.0,0.0]],"is_active_output":false,"name":"Diffuse BSDF.001","outputs":[[0,0,0,0]],"type":"BSDF_DIFFUSE_BL"},{"inputs":[0.5,[0,0,0,0],[0,0,0,0]],"is_active_output":false,"name":"Mix Shader","outputs":[[0,0,0,0]],"type":"MIX_SHADER_BL"},{"alphaMode":"STRAIGHT","inputs":[[0.0,0.0,0.0]],"is_active_output":false,"name":"Image Texture","outputs":[[0.0,0.0,0.0,0.0],0.0],"projection":"FLAT","projectionBlend":0.0,"texture":1,"type":"TEX_IMAGE_BL"}]}}},"name":"cardboard"},{"alphaMode":"BLEND","extensions":{"S8S_v3d_materials":{"gtaoVisible":true,"materialIndex":0,"nodeGraph":{"edges":[{"fromNode":1,"fromOutput":0,"toInput":0,"toNode":0},{"fromNode":2,"fromOutput":0,"toInput":0,"toNode":1},{"fromNode":1,"fromOutput":0,"toInput":0,"toNode":3},{"fromNode":4,"fromOutput":0,"toInput":0,"toNode":3},{"fromNode":5,"fromOutput":1,"toInput":0,"toNode":4},{"fromNode":6,"fromOutput":0,"toInput":2,"toNode":4}],"nodes":[{"inputs":[[0,0,0,0],[0,0,0,0],[0.0,0.0,0.0],0.0],"is_active_output":true,"name":"Material Output","outputs":[],"type":"OUTPUT_MATERIAL_BL"},{"inputs":[[1.0,1.0,1.0,1.0],1.0],"is_active_output":false,"name":"Emission","outputs":[[0,0,0,0]],"type":"EMISSION_BL"},{"alphaMode":"STRAIGHT","inputs":[[0.0,0.0,0.0]],"is_active_output":false,"name":"Image Texture","outputs":[[0.0,0.0,0.0,0.0],0.0],"projection":"FLAT","projectionBlend":0.0,"texture":2,"type":"TEX_IMAGE_BL"},{"inputs":[[0,0,0,0],[0,0,0,0],[0.0,0.0,0.0],0.0],"is_active_output":false,"name":"Material Output.001","outputs":[],"type":"OUTPUT_MATERIAL_BL"},{"inputs":[0.5,[0,0,0,0],[0,0,0,0]],"is_active_output":false,"name":"Mix Shader","outputs":[[0,0,0,0]],"type":"MIX_SHADER_BL"},{"inputs":[],"is_active_output":false,"name":"Light Path","outputs":[0.0,0.0,0.0,0.0,0.0,0.0,0.0,0.0,0.0,0.0,0.0,0.0,0.0],"type":"LIGHT_PATH_BL"},{"inputs":[[1.0,1.0,1.0,1.0]],"is_active_output":false,"name":"Transparent BSDF","outputs":[[0,0,0,0]],"type":"BSDF_TRANSPARENT_BL"}]}}},"name":"facebook"},{"alphaMode":"OPAQUE","extensions":{"S8S_v3d_materials":{"gtaoVisible":true,"materialIndex":0,"nodeGraph":{"edges":[{"fromNode":1,"fromOutput":0,"toInput":0,"toNode":0},{"fromNode":2,"fromOutput":0,"toInput":0,"toNode":4},{"fromNode":3,"fromOutput":2,"toInput":0,"toNode":1},{"fromNode":4,"fromOutput":0,"toInput":0,"toNode":3}],"nodes":[{"inputs":[[0,0,0,0],[0,0,0,0],[0.0,0.0,0.0],0.0],"is_active_output":true,"name":"Material Output","outputs":[],"type":"OUTPUT_MATERIAL_BL"},{"inputs":[[0.8000000715255737,0.7189911007881165,0.6581951975822449,1.0],0.0,1.0,1.4500000476837158,1.0,[0.0,0.0,0.0],0.0,[1.0,0.20000000298023224,0.10000000149011612],0.05000000074505806,1.399999976158142,0.0,0.20952381193637848,[1.0,1.0,1.0,1.0],0.0,0.0,[0.0,0.0,0.0],0.0,0.0,0.029999999329447746,1.5,[1.0,1.0,1.0,1.0],[0.0,0.0,0.0],0.0,0.5,[1.0,1.0,1.0,1.0],[0.0,0.0,0.0,1.0],1.0,0.0,1.3300000429153442],"is_active_output":false,"name":"Principled BSDF","outputs":[[0,0,0,0]],"type":"BSDF_PRINCIPLED_BL"},{"inputs":[],"is_active_output":false,"name":"UV Map.001","outputs":[[0.0,0.0,0.0]],"type":"UVMAP_BL","uvLayer":"ao"},{"blendType":"MIX","clampFactor":true,"clampResult":false,"dataType":"RGBA","factorMode":"UNIFORM","inputs":[0.5,[0.5,0.5,0.5],0.0,0.0,[0.0,0.0,0.0],[0.0,0.0,0.0],[0.0,0.0,0.0,1.0],[0.5984788537025452,0.5197241902351379,0.4516114890575409,1.0],0,0],"is_active_output":false,"name":"Mix","outputs":[0.0,[0.0,0.0,0.0],[0.0,0.0,0.0,0.0],0],"type":"MIX_BL"},{"alphaMode":"CHANNEL_PACKED","inputs":[[0.0,0.0,0.0]],"is_active_output":false,"name":"Image Texture.003","outputs":[[0.0,0.0,0.0,0.0],0.0],"projection":"FLAT","projectionBlend":0.0,"texture":0,"type":"TEX_IMAGE_BL"}]}}},"name":"paspartu"},{"alphaMode":"OPAQUE","extensions":{"S8S_v3d_materials":{"gtaoVisible":true,"materialIndex":0,"nodeGraph":{"edges":[{"fromNode":3,"fromOutput":0,"toInput":0,"toNode":0},{"fromNode":0,"fromOutput":0,"toInput":0,"toNode":2},{"fromNode":5,"fromOutput":0,"toInput":1,"toNode":2},{"fromNode":7,"fromOutput":0,"toInput":2,"toNode":2},{"fromNode":2,"fromOutput":0,"toInput":0,"toNode":1},{"fromNode":6,"fromOutput":0,"toInput":0,"toNode":7},{"fromNode":4,"fromOutput":0,"toInput":0,"toNode":6}],"nodes":[{"alphaMode":"CHANNEL_PACKED","inputs":[[0.0,0.0,0.0]],"is_active_output":false,"name":"Image Texture.004","outputs":[[0.0,0.0,0.0,0.0],0.0],"projection":"FLAT","projectionBlend":0.0,"texture":0,"type":"TEX_IMAGE_BL"},{"inputs":[[0,0,0,0],[0,0,0,0],[0.0,0.0,0.0],0.0],"is_active_output":true,"name":"Material Output","outputs":[],"type":"OUTPUT_MATERIAL_BL"},{"inputs":[0.5,[0,0,0,0],[0,0,0,0]],"is_active_output":false,"name":"Mix Shader","outputs":[[0,0,0,0]],"type":"MIX_SHADER_BL"},{"inputs":[],"is_active_output":false,"name":"UV Map.001","outputs":[[0.0,0.0,0.0]],"type":"UVMAP_BL","uvLayer":"ao"},{"inputs":[],"is_active_output":false,"name":"UV Map.002","outputs":[[0.0,0.0,0.0]],"type":"UVMAP_BL","uvLayer":"UVMap"},{"inputs":[[0.0,0.0,0.0,1.0],1.0,[0.0,0.0,0.0]],"is_active_output":false,"name":"Diffuse BSDF.001","outputs":[[0,0,0,0]],"type":"BSDF_DIFFUSE_BL"},{"alphaMode":"STRAIGHT","inputs":[[0.0,0.0,0.0]],"is_active_output":false,"name":"Image Texture","outputs":[[0.0,0.0,0.0,0.0],0.0],"projection":"FLAT","projectionBlend":0.0,"texture":5,"type":"TEX_IMAGE_BL"},{"inputs":[[0.658823549747467,0.8392156958580017,0.9647058844566345,1.0],0.0,[0.0,0.0,0.0]],"is_active_output":false,"name":"Diffuse BSDF","outputs":[[0,0,0,0]],"type":"BSDF_DIFFUSE_BL"}]}}},"name":"picture"},{"alphaMode":"BLEND","extensions":{"S8S_v3d_materials":{"gtaoVisible":true,"materialIndex":0,"nodeGraph":{"edges":[{"fromNode":1,"fromOutput":0,"toInput":0,"toNode":0},{"fromNode":2,"fromOutput":0,"toInput":0,"toNode":1},{"fromNode":1,"fromOutput":0,"toInput":0,"toNode":3},{"fromNode":4,"fromOutput":0,"toInput":0,"toNode":3},{"fromNode":5,"fromOutput":1,"toInput":0,"toNode":4},{"fromNode":6,"fromOutput":0,"toInput":2,"toNode":4}],"nodes":[{"inputs":[[0,0,0,0],[0,0,0,0],[0.0,0.0,0.0],0.0],"is_active_output":true,"name":"Material Output","outputs":[],"type":"OUTPUT_MATERIAL_BL"},{"inputs":[[1.0,1.0,1.0,1.0],1.0],"is_active_output":false,"name":"Emission","outputs":[[0,0,0,0]],"type":"EMISSION_BL"},{"alphaMode":"STRAIGHT","inputs":[[0.0,0.0,0.0]],"is_active_output":false,"name":"Image Texture","outputs":[[0.0,0.0,0.0,0.0],0.0],"projection":"FLAT","projectionBlend":0.0,"texture":6,"type":"TEX_IMAGE_BL"},{"inputs":[[0,0,0,0],[0,0,0,0],[0.0,0.0,0.0],0.0],"is_active_output":false,"name":"Material Output.001","outputs":[],"type":"OUTPUT_MATERIAL_BL"},{"inputs":[0.5,[0,0,0,0],[0,0,0,0]],"is_active_output":false,"name":"Mix Shader","outputs":[[0,0,0,0]],"type":"MIX_SHADER_BL"},{"inputs":[],"is_active_output":false,"name":"Light Path","outputs":[0.0,0.0,0.0,0.0,0.0,0.0,0.0,0.0,0.0,0.0,0.0,0.0,0.0],"type":"LIGHT_PATH_BL"},{"inputs":[[1.0,1.0,1.0,1.0]],"is_active_output":false,"name":"Transparent BSDF","outputs":[[0,0,0,0]],"type":"BSDF_TRANSPARENT_BL"}]}}},"name":"reddit"},{"alphaMode":"OPAQUE","extensions":{"S8S_v3d_materials":{"gtaoVisible":true,"materialIndex":0,"nodeGraph":{"edges":[{"fromNode":7,"fromOutput":0,"toInput":1,"toNode":8},{"fromNode":8,"fromOutput":0,"toInput":5,"toNode":0},{"fromNode":3,"fromOutput":0,"toInput":0,"toNode":12},{"fromNode":3,"fromOutput":0,"toInput":0,"toNode":7},{"fromNode":4,"fromOutput":0,"toInput":0,"toNode":3},{"fromNode":5,"fromOutput":1,"toInput":1,"toNode":6},{"fromNode":9,"fromOutput":0,"toInput":0,"toNode":11},{"fromNode":11,"fromOutput":0,"toInput":0,"toNode":2},{"fromNode":10,"fromOutput":0,"toInput":1,"toNode":2},{"fromNode":0,"fromOutput":0,"toInput":2,"toNode":2},{"fromNode":2,"fromOutput":0,"toInput":0,"toNode":1},{"fromNode":6,"fromOutput":0,"toInput":11,"toNode":0},{"fromNode":12,"fromOutput":0,"toInput":0,"toNode":0},{"fromNode":7,"fromOutput":1,"toInput":2,"toNode":0}],"nodes":[{"inputs":[[0.800000011920929,0.800000011920929,0.800000011920929,1.0],0.0,0.5,1.4500000476837158,1.0,[0.0,0.0,0.0],0.0,[1.0,0.20000000298023224,0.10000000149011612],0.05000000074505806,1.399999976158142,0.0,0.5,[1.0,1.0,1.0,1.0],0.0,0.0,[0.0,0.0,0.0],0.0,0.0,0.029999999329447746,1.5,[1.0,1.0,1.0,1.0],[0.0,0.0,0.0],0.0,0.5,[1.0,1.0,1.0,1.0],[0.0,0.0,0.0,1.0],1.0,0.0,1.3300000429153442],"is_active_output":false,"name":"Principled BSDF","outputs":[[0,0,0,0]],"type":"BSDF_PRINCIPLED_BL"},{"inputs":[[0,0,0,0],[0,0,0,0],[0.0,0.0,0.0],0.0],"is_active_output":true,"name":"Material Output","outputs":[],"type":"OUTPUT_MATERIAL_BL"},{"inputs":[0.5,[0,0,0,0],[0,0,0,0]],"is_active_output":false,"name":"Mix Shader","outputs":[[0,0,0,0]],"type":"MIX_SHADER_BL"},{"inputs":[[0.0,0.0,0.0],[0.0,0.0,0.0],[0.0,0.0,0.0],[3.0,3.0,3.0]],"is_active_output":false,"name":"Mapping","outputs":[[0.0,0.0,0.0]],"type":"MAPPING_BL","vectorType":"POINT"},{"inputs":[],"is_active_output":false,"name":"UV Map","outputs":[[0.0,0.0,0.0]],"type":"UVMAP_BL","uvLayer":"UVMap"},{"inputs":[],"is_active_output":false,"name":"Geometry","outputs":[[0.0,0.0,0.0],[0.0,0.0,0.0],[0.0,0.0,0.0],[0.0,0.0,0.0],[0.0,0.0,0.0],[0.0,0.0,0.0],0.0,0.0,0.0],"type":"NEW_GEOMETRY_BL"},{"inputs":[1.4500000476837158,[0.0,0.0,0.0]],"is_active_output":false,"name":"Fresnel","outputs":[0.0],"type":"FRESNEL_BL"},{"alphaMode":"CHANNEL_PACKED","inputs":[[0.0,0.0,0.0]],"is_active_output":false,"name":"Image Texture.001","outputs":[[0.0,0.0,0.0,0.0],0.0],"projection":"FLAT","projectionBlend":0.0,"texture":7,"type":"TEX_IMAGE_BL"},{"inputs":[1.0,[0.5,0.5,1.0,1.0]],"is_active_output":false,"name":"Normal Map","outputs":[[0.0,0.0,0.0]],"type":"NORMAL_MAP_BL","uvLayer":"UVMap"},{"inputs":[],"is_active_output":false,"name":"UV Map.001","outputs":[[0.0,0.0,0.0]],"type":"UVMAP_BL","uvLayer":"ao"},{"inputs":[[0.0,0.0,0.0,1.0],1.0,[0.0,0.0,0.0]],"is_active_output":false,"name":"Diffuse BSDF.001","outputs":[[0,0,0,0]],"type":"BSDF_DIFFUSE_BL"},{"alphaMode":"CHANNEL_PACKED","inputs":[[0.0,0.0,0.0]],"is_active_output":false,"name":"Image Texture.003","outputs":[[0.0,0.0,0.0,0.0],0.0],"projection":"FLAT","projectionBlend":0.0,"texture":0,"type":"TEX_IMAGE_BL"},{"alphaMode":"STRAIGHT","inputs":[[0.0,0.0,0.0]],"is_active_output":false,"name":"Image Texture","outputs":[[0.0,0.0,0.0,0.0],0.0],"projection":"FLAT","projectionBlend":0.0,"texture":9,"type":"TEX_IMAGE_BL"}]}}},"name":"table"},{"alphaMode":"BLEND","extensions":{"S8S_v3d_materials":{"gtaoVisible":true,"materialIndex":0,"nodeGraph":{"edges":[{"fromNode":1,"fromOutput":0,"toInput":0,"toNode":0},{"fromNode":2,"fromOutput":0,"toInput":0,"toNode":1},{"fromNode":1,"fromOutput":0,"toInput":0,"toNode":3},{"fromNode":4,"fromOutput":0,"toInput":0,"toNode":3},{"fromNode":5,"fromOutput":1,"toInput":0,"toNode":4},{"fromNode":6,"fromOutput":0,"toInput":2,"toNode":4}],"nodes":[{"inputs":[[0,0,0,0],[0,0,0,0],[0.0,0.0,0.0],0.0],"is_active_output":true,"name":"Material Output","outputs":[],"type":"OUTPUT_MATERIAL_BL"},{"inputs":[[1.0,1.0,1.0,1.0],1.0],"is_active_output":false,"name":"Emission","outputs":[[0,0,0,0]],"type":"EMISSION_BL"},{"alphaMode":"STRAIGHT","inputs":[[0.0,0.0,0.0]],"is_active_output":false,"name":"Image Texture","outputs":[[0.0,0.0,0.0,0.0],0.0],"projection":"FLAT","projectionBlend":0.0,"texture":10,"type":"TEX_IMAGE_BL"},{"inputs":[[0,0,0,0],[0,0,0,0],[0.0,0.0,0.0],0.0],"is_active_output":false,"name":"Material Output.001","outputs":[],"type":"OUTPUT_MATERIAL_BL"},{"inputs":[0.5,[0,0,0,0],[0,0,0,0]],"is_active_output":false,"name":"Mix Shader","outputs":[[0,0,0,0]],"type":"MIX_SHADER_BL"},{"inputs":[],"is_active_output":false,"name":"Light Path","outputs":[0.0,0.0,0.0,0.0,0.0,0.0,0.0,0.0,0.0,0.0,0.0,0.0,0.0],"type":"LIGHT_PATH_BL"},{"inputs":[[1.0,1.0,1.0,1.0]],"is_active_output":false,"name":"Transparent BSDF","outputs":[[0,0,0,0]],"type":"BSDF_TRANSPARENT_BL"}]}}},"name":"twitter"},{"alphaMode":"OPAQUE","extensions":{"S8S_v3d_materials":{"gtaoVisible":true,"materialIndex":0,"nodeGraph":{"edges":[{"fromNode":11,"fromOutput":0,"toInput":1,"toNode":9},{"fromNode":5,"fromOutput":0,"toInput":0,"toNode":11},{"fromNode":8,"fromOutput":0,"toInput":11,"toNode":4},{"fromNode":6,"fromOutput":1,"toInput":1,"toNode":8},{"fromNode":7,"fromOutput":0,"toInput":0,"toNode":5},{"fromNode":0,"fromOutput":0,"toInput":0,"toNode":10},{"fromNode":10,"fromOutput":0,"toInput":0,"toNode":3},{"fromNode":1,"fromOutput":0,"toInput":1,"toNode":3},{"fromNode":3,"fromOutput":0,"toInput":0,"toNode":2},{"fromNode":4,"fromOutput":0,"toInput":2,"toNode":3},{"fromNode":9,"fromOutput":0,"toInput":5,"toNode":4}],"nodes":[{"inputs":[],"is_active_output":false,"name":"UV Map.001","outputs":[[0.0,0.0,0.0]],"type":"UVMAP_BL","uvLayer":"ao"},{"inputs":[[0.0,0.0,0.0,1.0],1.0,[0.0,0.0,0.0]],"is_active_output":false,"name":"Diffuse BSDF.001","outputs":[[0,0,0,0]],"type":"BSDF_DIFFUSE_BL"},{"inputs":[[0,0,0,0],[0,0,0,0],[0.0,0.0,0.0],0.0],"is_active_output":true,"name":"Material Output","outputs":[],"type":"OUTPUT_MATERIAL_BL"},{"inputs":[0.5,[0,0,0,0],[0,0,0,0]],"is_active_output":false,"name":"Mix Shader","outputs":[[0,0,0,0]],"type":"MIX_SHADER_BL"},{"inputs":[[1.0,1.0,1.0,1.0],0.0,0.6047618985176086,1.4500000476837158,1.0,[0.0,0.0,0.0],0.0,[1.0,0.20000000298023224,0.10000000149011612],0.05000000074505806,1.399999976158142,0.0,0.5,[1.0,1.0,1.0,1.0],0.0,0.0,[0.0,0.0,0.0],0.0,0.0,0.029999999329447746,1.5,[1.0,1.0,1.0,1.0],[0.0,0.0,0.0],0.0,0.5,[1.0,1.0,1.0,1.0],[0.0,0.0,0.0,1.0],1.0,0.0,1.3300000429153442],"is_active_output":false,"name":"Principled BSDF","outputs":[[0,0,0,0]],"type":"BSDF_PRINCIPLED_BL"},{"inputs":[[0.0,0.0,0.0],[0.0,0.0,0.0],[0.0,0.0,0.0],[5.0,5.0,5.0]],"is_active_output":false,"name":"Mapping","outputs":[[0.0,0.0,0.0]],"type":"MAPPING_BL","vectorType":"POINT"},{"inputs":[],"is_active_output":false,"name":"Geometry","outputs":[[0.0,0.0,0.0],[0.0,0.0,0.0],[0.0,0.0,0.0],[0.0,0.0,0.0],[0.0,0.0,0.0],[0.0,0.0,0.0],0.0,0.0,0.0],"type":"NEW_GEOMETRY_BL"},{"inputs":[],"is_active_output":false,"name":"UV Map","outputs":[[0.0,0.0,0.0]],"type":"UVMAP_BL","uvLayer":"UVMap"},{"inputs":[1.4500000476837158,[0.0,0.0,0.0]],"is_active_output":false,"name":"Fresnel","outputs":[0.0],"type":"FRESNEL_BL"},{"inputs":[1.0,[0.5,0.5,1.0,1.0]],"is_active_output":false,"name":"Normal Map","outputs":[[0.0,0.0,0.0]],"type":"NORMAL_MAP_BL","uvLayer":"UVMap"},{"alphaMode":"CHANNEL_PACKED","inputs":[[0.0,0.0,0.0]],"is_active_output":false,"name":"Image Texture.003","outputs":[[0.0,0.0,0.0,0.0],0.0],"projection":"FLAT","projectionBlend":0.0,"texture":0,"type":"TEX_IMAGE_BL"},{"alphaMode":"CHANNEL_PACKED","inputs":[[0.0,0.0,0.0]],"is_active_output":false,"name":"Image Texture.001","outputs":[[0.0,0.0,0.0,0.0],0.0],"projection":"FLAT","projectionBlend":0.0,"texture":12,"type":"TEX_IMAGE_BL"}]}}},"name":"wall"},{"alphaMode":"OPAQUE","extensions":{"S8S_v3d_materials":{"gtaoVisible":true,"materialIndex":0,"nodeGraph":{"edges":[{"fromNode":1,"fromOutput":0,"toInput":0,"toNode":0},{"fromNode":7,"fromOutput":0,"toInput":0,"toNode":1},{"fromNode":6,"fromOutput":0,"toInput":0,"toNode":7},{"fromNode":2,"fromOutput":0,"toInput":0,"toNode":6},{"fromNode":3,"fromOutput":1,"toInput":1,"toNode":4},{"fromNode":5,"fromOutput":2,"toInput":11,"toNode":1},{"fromNode":4,"fromOutput":0,"toInput":0,"toNode":5}],"nodes":[{"inputs":[[0,0,0,0],[0,0,0,0],[0.0,0.0,0.0],0.0],"is_active_output":true,"name":"Material Output","outputs":[],"type":"OUTPUT_MATERIAL_BL"},{"inputs":[[0.800000011920929,0.800000011920929,0.800000011920929,1.0],0.0,0.39047619700431824,1.4500000476837158,1.0,[0.0,0.0,0.0],0.0,[1.0,0.20000000298023224,0.10000000149011612],0.05000000074505806,1.399999976158142,0.0,0.5,[1.0,1.0,1.0,1.0],0.0,0.0,[0.0,0.0,0.0],0.0,0.0,0.029999999329447746,1.5,[1.0,1.0,1.0,1.0],[0.0,0.0,0.0],0.0,0.5,[1.0,1.0,1.0,1.0],[0.0,0.0,0.0,1.0],1.0,0.0,1.3300000429153442],"is_active_output":false,"name":"Principled BSDF","outputs":[[0,0,0,0]],"type":"BSDF_PRINCIPLED_BL"},{"inputs":[],"is_active_output":false,"name":"UV Map","outputs":[[0.0,0.0,0.0]],"type":"UVMAP_BL","uvLayer":"UVMap"},{"inputs":[],"is_active_output":false,"name":"Geometry","outputs":[[0.0,0.0,0.0],[0.0,0.0,0.0],[0.0,0.0,0.0],[0.0,0.0,0.0],[0.0,0.0,0.0],[0.0,0.0,0.0],0.0,0.0,0.0],"type":"NEW_GEOMETRY_BL"},{"inputs":[1.4500000476837158,[0.0,0.0,0.0]],"is_active_output":false,"name":"Fresnel","outputs":[0.0],"type":"FRESNEL_BL"},{"blendType":"MIX","clampFactor":true,"clampResult":false,"dataType":"RGBA","factorMode":"UNIFORM","inputs":[0.5,[0.5,0.5,0.5],0.0,0.0,[0.0,0.0,0.0],[0.0,0.0,0.0],[0.0,0.0,0.0,1.0],[0.404378741979599,0.404378741979599,0.404378741979599,1.0],0,0],"is_active_output":false,"name":"Mix","outputs":[0.0,[0.0,0.0,0.0],[0.0,0.0,0.0,0.0],0],"type":"MIX_BL"},{"inputs":[[0.0,0.0,0.0],[0.0,0.0,0.0],[0.0,0.0,0.0],[5.0,5.0,5.0]],"is_active_output":false,"name":"Mapping","outputs":[[0.0,0.0,0.0]],"type":"MAPPING_BL","vectorType":"POINT"},{"alphaMode":"STRAIGHT","inputs":[[0.0,0.0,0.0]],"is_active_output":false,"name":"Image Texture","outputs":[[0.0,0.0,0.0,0.0],0.0],"projection":"FLAT","projectionBlend":0.0,"texture":13,"type":"TEX_IMAGE_BL"}]}}},"name":"wood"},{"alphaMode":"OPAQUE","extensions":{"S8S_v3d_materials":{"gtaoVisible":true,"materialIndex":0,"nodeGraph":{"edges":[{"fromNode":1,"fromOutput":0,"toInput":0,"toNode":0},{"fromNode":2,"fromOutput":0,"toInput":0,"toNode":1}],"nodes":[{"inputs":[[0,0,0,0],[0,0,0,0]],"is_active_output":true,"name":"World Output","outputs":[],"type":"OUTPUT_WORLD_BL"},{"inputs":[[0.05087608844041824,0.05087608844041824,0.05087608844041824,1.0],0.29999998211860657],"is_active_output":false,"name":"Background","outputs":[[0,0,0,0]],"type":"BACKGROUND_BL"},{"inputs":[[0.0,0.0,0.0]],"is_active_output":false,"name":"Environment Texture","outputs":[[0.0,0.0,0.0,0.0]],"projection":"EQUIRECTANGULAR","texture":14,"type":"TEX_ENVIRONMENT_BL"}]}}},"name":"Verge3D_Environment_World"}],"meshes":[{"extensions":{"S8S_v3d_mesh":{"colorLayers":{},"uvLayers":{"UVMap":"TEXCOORD_0","ao":"TEXCOORD_1"}}},"name":"Plane","primitives":[{"attributes":{"NORMAL":2,"POSITION":1,"TEXCOORD_0":3,"TEXCOORD_1":4},"indices":0,"material":0,"mode":4}]},{"extensions":{"S8S_v3d_mesh":{"colorLayers":{},"uvLayers":{"UVMap":"TEXCOORD_0","ao":"TEXCOORD_1"}}},"name":"Plane.001","primitives":[{"attributes":{"NORMAL":7,"POSITION":6,"TANGENT":8,"TEXCOORD_0":9,"TEXCOORD_1":10},"indices":5,"material":5,"mode":4}]},{"extensions":{"S8S_v3d_mesh":{"colorLayers":{},"uvLayers":{"UVMap":"TEXCOORD_0","ao":"TEXCOORD_1"}}},"name":"Plane.002","primitives":[{"attributes":{"NORMAL":13,"POSITION":12,"TANGENT":14,"TEXCOORD_0":15,"TEXCOORD_1":16},"indices":11,"material":7,"mode":4}]},{"extensions":{"S8S_v3d_mesh":{"colorLayers":{},"uvLayers":{"UVMap":"TEXCOORD_0"}}},"name":"Plane.003","primitives":[{"attributes":{"NORMAL":19,"POSITION":18,"TEXCOORD_0":20},"indices":17,"material":4,"mode":4}]},{"extensions":{"S8S_v3d_mesh":{"colorLayers":{},"uvLayers":{"UVMap":"TEXCOORD_0"}}},"name":"Plane.010","primitives":[{"attributes":{"NORMAL":23,"POSITION":22,"TEXCOORD_0":24},"indices":21,"material":1,"mode":4}]},{"extensions":{"S8S_v3d_mesh":{"colorLayers":{},"uvLayers":{"UVMap":"TEXCOORD_0"}}},"name":"Plane.012","primitives":[{"attributes":{"NORMAL":27,"POSITION":26,"TEXCOORD_0":28},"indices":25,"material":6,"mode":4}]},{"extensions":{"S8S_v3d_mesh":{"colorLayers":{},"uvLayers":{"UVMap":"TEXCOORD_0","ao":"TEXCOORD_1"}}},"name":"Rectangle0","primitives":[{"attributes":{"JOINTS_0":34,"NORMAL":31,"POSITION":30,"TEXCOORD_0":32,"TEXCOORD_1":33,"WEIGHTS_0":35},"indices":29,"material":8,"mode":4}]},{"extensions":{"S8S_v3d_mesh":{"colorLayers":{},"uvLayers":{"UVMap":"TEXCOORD_0","ao":"TEXCOORD_1"}}},"name":"Rectangle1","primitives":[{"attributes":{"JOINTS_0":41,"NORMAL":38,"POSITION":37,"TEXCOORD_0":39,"TEXCOORD_1":40,"WEIGHTS_0":42},"indices":36,"material":0,"mode":4},{"attributes":{"JOINTS_0":48,"NORMAL":45,"POSITION":44,"TEXCOORD_0":46,"TEXCOORD_1":47,"WEIGHTS_0":49},"indices":43,"material":3,"mode":4}]},{"extensions":{"S8S_v3d_mesh":{"colorLayers":{},"uvLayers":{"UVMap":"TEXCOORD_0","ao":"TEXCOORD_1"}}},"name":"Rectangle1.001","primitives":[{"attributes":{"JOINTS_0":55,"NORMAL":52,"POSITION":51,"TEXCOORD_0":53,"TEXCOORD_1":54,"WEIGHTS_0":56},"indices":50,"material":2,"mode":4}]}],"nodes":[{"children":[3,11,5,9,14],"extensions":{"S8S_v3d_node":{"frustumCulling":true,"groupNames":[],"hidden":false,"hidpiCompositing":false,"objectColor":[1.0,1.0,1.0,1.0],"objectIndex":0,"renderOrder":0,"useCastShadows":true}},"name":"Armature","rotation":[-0.17845667898654938,1.2610130896575127e-24,3.962534278180149e-17,0.98394775390625],"translation":[0.0,0.09935200214385986,-0.0]},{"extensions":{"S8S_v3d_node":{"frustumCulling":true,"groupNames":[],"hidden":false,"hidpiCompositing":false,"objectColor":[1.0,1.0,1.0,1.0],"objectIndex":0,"renderOrder":0,"useCastShadows":true}},"name":"center","translation":[0.0,0.10999999940395355,-0.0]},{"extensions":{"S8S_v3d_node":{"frustumCulling":true,"groupNames":[],"hidden":false,"hidpiCompositing":false,"objectColor":[1.0,1.0,1.0,1.0],"objectIndex":0,"renderOrder":0,"useCastShadows":true,"useShadows":true}},"mesh":2,"name":"Plane.002","rotation":[0.0,-0.3420201241970062,-0.0,0.9396926164627075]},{"extensions":{"S8S_v3d_node":{"frustumCulling":true,"groupNames":["Collection 1"],"hidden":false,"hidpiCompositing":false,"objectColor":[1.0,1.0,1.0,1.0],"objectIndex":0,"renderOrder":0,"useCastShadows":true,"useShadows":true}},"mesh":6,"name":"Frame","skin":0},{"extensions":{"S8S_v3d_node":{"frustumCulling":true,"groupNames":["Collection 1"],"hidden":false,"hidpiCompositing":true,"objectColor":[1.0,1.0,1.0,1.0],"objectIndex":0,"renderOrder":0,"useCastShadows":false,"useShadows":true}},"mesh":5,"name":"twitter_button"},{"extensions":{"S8S_v3d_node":{"frustumCulling":true,"groupNames":["Collection 1"],"hidden":false,"hidpiCompositing":false,"objectColor":[1.0,1.0,1.0,1.0],"objectIndex":0,"renderOrder":0,"useCastShadows":true,"useShadows":true}},"mesh":8,"name":"Picture.001","skin":2},{"children":[13,7,4],"extensions":{"S8S_v3d_node":{"constraints":[{"edgeH":"NONE","edgeV":"TOP","fitShape":"BOX","mute":false,"name":"Canvas Fit","offset":0.009999999776482582,"target":12,"type":"canvasFit"}],"frustumCulling":true,"groupNames":[],"hidden":false,"hidpiCompositing":false,"objectColor":[1.0,1.0,1.0,1.0],"objectIndex":0,"renderOrder":0,"useCastShadows":true}},"name":"social_media_buttons","rotation":[0.7071067690849304,0.0,0.0,0.7071067690849304],"scale":[1.0,1.0,1.0],"translation":[1.7157036680259807e-08,0.10279163718223572,-0.4482038915157318]},{"extensions":{"S8S_v3d_node":{"frustumCulling":true,"groupNames":["Collection 1"],"hidden":false,"hidpiCompositing":true,"objectColor":[1.0,1.0,1.0,1.0],"objectIndex":0,"renderOrder":0,"useCastShadows":false,"useShadows":true}},"mesh":3,"name":"reddit_button","translation":[0.017999999225139618,0.0,-0.0]},{"extensions":{"S8S_v3d_lights":{"light":0},"S8S_v3d_node":{"frustumCulling":true,"groupNames":[],"hidden":false,"hidpiCompositing":false,"objectColor":[1.0,1.0,1.0,1.0],"objectIndex":0,"renderOrder":0,"useCastShadows":true}},"name":"Sun","rotation":[-0.2531236708164215,0.2547948360443115,0.01995166204869747,0.9330648183822632],"scale":[0.9999999403953552,0.9999999403953552,0.9999999403953552],"translation":[0.3859620988368988,0.48283323645591736,0.6963196396827698]},{"extensions":{"S8S_v3d_node":{"frustumCulling":true,"groupNames":[],"hidden":false,"hidpiCompositing":false,"objectColor":[1.0,1.0,1.0,1.0],"objectIndex":0,"renderOrder":0,"useCastShadows":true,"useShadows":true}},"mesh":0,"name":"Plane","rotation":[1.898342924573789e-15,4.738680203786316e-08,-0.35268843173980713,0.9357407689094543]},{"extensions":{"S8S_v3d_node":{"frustumCulling":true,"groupNames":[],"hidden":false,"hidpiCompositing":false,"objectColor":[1.0,1.0,1.0,1.0],"objectIndex":0,"renderOrder":0,"useCastShadows":true,"useShadows":true}},"mesh":1,"name":"Plane.001","rotation":[0.0,-0.3420201241970062,-0.0,0.9396926164627075]},{"extensions":{"S8S_v3d_node":{"frustumCulling":true,"groupNames":["Collection 1"],"hidden":false,"hidpiCompositing":false,"objectColor":[1.0,1.0,1.0,1.0],"objectIndex":0,"renderOrder":0,"useCastShadows":true,"useShadows":true}},"mesh":7,"name":"Picture","skin":1},{"camera":0,"children":[6],"extensions":{"S8S_v3d_node":{"frustumCulling":true,"groupNames":["Collection 1"],"hidden":false,"hidpiCompositing":false,"objectColor":[0.0,0.0,0.0,0.0],"objectIndex":0,"renderOrder":0,"useCastShadows":true}},"name":"Camera","rotation":[-0.14564380049705505,-0.22584477066993713,-0.03417055308818817,0.9626080989837646],"scale":[1.0,0.9999999403953552,0.9999998211860657],"translation":[-0.2546837031841278,0.2873423099517822,0.5128870606422424]},{"extensions":{"S8S_v3d_node":{"frustumCulling":true,"groupNames":["Collection 1"],"hidden":false,"hidpiCompositing":true,"objectColor":[1.0,1.0,1.0,1.0],"objectIndex":0,"renderOrder":0,"useCastShadows":false,"useShadows":true}},"mesh":4,"name":"facebook_button","translation":[-0.017999999225139618,0.0,-0.0]},{"children":[15,16],"name":"Armature_Root","rotation":[0.7071067094802856,8.429368136830817e-08,-8.429368136830817e-08,0.7071068286895752],"scale":[1.0,0.9999999403953552,0.9999999403953552],"translation":[0.0,-0.18216383457183838,-0.0]},{"name":"Armature_Bone.R","rotation":[-1.9539925233402755e-14,2.117582368135751e-21,1.1920927533992653e-07,1.0],"translation":[-0.08323207497596741,-7.86092684279538e-08,-0.08216381818056107]},{"name":"Armature_Bone.L","rotation":[-3.552713678800501e-15,4.235165241142481e-22,1.1920927533992653e-07,1.0],"translation":[0.08323207497596741,-3.892112943049142e-08,-0.08216381818056107]}],"samplers":[{}],"scene":0,"scenes":[{"extensions":{"S8S_v3d_scene":{"aaMethod":"AUTO","iblEnvironmentMode":"PMREM","physicallyCorrectLights":true,"pmremMaxTileSize":512,"shadowMap":{"esmDistanceScale":1.0,"renderReverseSided":false,"renderSingleSided":true,"type":"PCFPOISSON"},"worldMaterial":9}},"extras":{"animFrameRate":24,"coordSystem":"Z_UP_RIGHT"},"name":"Scene","nodes":[0,10,8,1,2,12]}],"skins":[{"inverseBindMatrices":57,"joints":[14,15,16,0],"skeleton":0},{"inverseBindMatrices":58,"joints":[14,15,16,0],"skeleton":0},{"inverseBindMatrices":59,"joints":[14,15,16,0],"skeleton":0},{"inverseBindMatrices":60,"joints":[14,15,16,0],"skeleton":0}],"textures":[{"extensions":{"KHR_texture_basisu":{"source":0},"S8S_v3d_texture":{"colorSpace":"non-color"}},"name":"ao","sampler":0},{"extensions":{"S8S_v3d_texture":{"anisotropy":16,"colorSpace":"srgb"}},"name":"cardboard_diffuse.jpg","sampler":0,"source":1},{"extensions":{"KHR_texture_basisu":{"source":2},"S8S_v3d_texture":{"colorSpace":"srgb"}},"name":"facebook.png","sampler":0},{"extensions":{"KHR_texture_basisu":{"source":0},"S8S_v3d_texture":{"colorSpace":"non-color"}},"name":"ao","sampler":0},{"extensions":{"KHR_texture_basisu":{"source":0},"S8S_v3d_texture":{"colorSpace":"non-color"}},"name":"ao","sampler":0},{"extensions":{"KHR_texture_basisu":{"source":3},"S8S_v3d_texture":{"colorSpace":"srgb"}},"name":"image_to_load","sampler":0},{"extensions":{"KHR_texture_basisu":{"source":4},"S8S_v3d_texture":{"colorSpace":"srgb"}},"name":"reddit.png","sampler":0},{"extensions":{"KHR_texture_basisu":{"source":5},"S8S_v3d_texture":{"colorSpace":"non-color"}},"name":"table_wood_normal","sampler":0},{"extensions":{"KHR_texture_basisu":{"source":0},"S8S_v3d_texture":{"colorSpace":"non-color"}},"name":"ao","sampler":0},{"extensions":{"KHR_texture_basisu":{"source":6},"S8S_v3d_texture":{"colorSpace":"srgb"}},"name":"table_wood_basecolor","sampler":0},{"extensions":{"KHR_texture_basisu":{"source":7},"S8S_v3d_texture":{"colorSpace":"srgb"}},"name":"twitter.png","sampler":0},{"extensions":{"KHR_texture_basisu":{"source":0},"S8S_v3d_texture":{"colorSpace":"non-color"}},"name":"ao","sampler":0},{"extensions":{"KHR_texture_basisu":{"source":8},"S8S_v3d_texture":{"colorSpace":"non-color"}},"name":"wall_normal.png","sampler":0},{"extensions":{"KHR_texture_basisu":{"source":9},"S8S_v3d_texture":{"colorSpace":"srgb"}},"name":"frame_wood_basecolor","sampler":0},{"extensions":{"S8S_v3d_texture":{"colorSpace":"linear rec.709","source":10}},"name":"environment.hdr","sampler":0}]}
