{"accessors":[{"bufferView":0,"componentType":5121,"count":6,"max":[3],"min":[0],"type":"SCALAR"},{"bufferView":1,"componentType":5126,"count":4,"max":[0.025975897908210754,1.197177912359848e-10,0.004017062485218048],"min":[-0.025975897908210754,-1.197177912359848e-10,-0.004017062485218048],"type":"VEC3"},{"bufferView":2,"componentType":5126,"count":4,"max":[0.0,1.0,2.9802322387695312e-08],"min":[0.0,1.0,2.9802322387695312e-08],"type":"VEC3"},{"bufferView":3,"componentType":5126,"count":4,"max":[1.0,1.0],"min":[0.0,0.0],"type":"VEC2"},{"bufferView":4,"componentType":5121,"count":6,"max":[3],"min":[0],"type":"SCALAR"},{"bufferView":5,"componentType":5126,"count":4,"max":[0.012645999900996685,7.537603319285324e-10,0.012646001763641834],"min":[-0.012645999900996685,-7.537603319285324e-10,-0.012646001763641834],"type":"VEC3"},{"bufferView":6,"componentType":5126,"count":4,"max":[2.9802322387695312e-08,1.0,2.9802318834981634e-08],"min":[2.9802322387695312e-08,1.0,2.9802318834981634e-08],"type":"VEC3"},{"bufferView":7,"componentType":5126,"count":4,"max":[1.0,1.0],"min":[0.0,0.0],"type":"VEC2"},{"bufferView":8,"componentType":5121,"count":6,"max":[3],"min":[0],"type":"SCALAR"},{"bufferView":9,"componentType":5126,"count":4,"max":[0.012645999900996685,3.768801659642662e-10,0.012646001763641834],"min":[-0.012645999900996685,-3.768801659642662e-10,-0.012646001763641834],"type":"VEC3"},{"bufferView":10,"componentType":5126,"count":4,"max":[0.0,1.0,2.9802318834981634e-08],"min":[0.0,1.0,2.9802318834981634e-08],"type":"VEC3"},{"bufferView":11,"componentType":5126,"count":4,"max":[1.0,1.0],"min":[0.0,0.0],"type":"VEC2"},{"bufferView":12,"componentType":5121,"count":6,"max":[3],"min":[0],"type":"SCALAR"},{"bufferView":13,"componentType":5126,"count":4,"max":[0.10496654361486435,0.0,0.10496654361486435],"min":[-0.10496654361486435,0.0,-0.10496654361486435],"type":"VEC3"},{"bufferView":14,"componentType":5126,"count":4,"max":[0.0,1.0,0.0],"min":[0.0,1.0,0.0],"type":"VEC3"},{"bufferView":15,"componentType":5126,"count":4,"max":[1.0,1.0],"min":[0.0,0.0],"type":"VEC2"},{"bufferView":16,"componentType":5121,"count":288,"max":[99],"min":[0],"type":"SCALAR"},{"bufferView":17,"componentType":5126,"count":100,"max":[0.09641996771097183,0.0,0.09641996771097183],"min":[-0.09641996771097183,0.0,-0.09641996771097183],"type":"VEC3"},{"bufferView":18,"componentType":5126,"count":100,"max":[0.0,1.0,0.0],"min":[0.0,1.0,0.0],"type":"VEC3"},{"bufferView":19,"componentType":5126,"count":100,"max":[1.0,1.0],"min":[0.0,0.0],"type":"VEC2"},{"bufferView":20,"componentType":5121,"count":96,"max":[24],"min":[0],"type":"SCALAR"},{"bufferView":21,"componentType":5126,"count":25,"max":[0.6865323781967163,0.0,0.5899887084960938],"min":[-0.6865323781967163,0.0,-0.5899887084960938],"type":"VEC3"},{"bufferView":22,"componentType":5126,"count":25,"max":[0.0,1.0,0.0],"min":[0.0,1.0,0.0],"type":"VEC3"},{"bufferView":23,"componentType":5126,"count":25,"max":[1.0,1.0],"min":[0.0,0.0],"type":"VEC2"},{"bufferView":24,"componentType":5123,"count":11460,"max":[2693],"min":[0],"type":"SCALAR"},{"bufferView":25,"componentType":5126,"count":2694,"max":[0.10233867168426514,0.20489445328712463,0.10939173400402069],"min":[-0.10233867168426514,0.002158602699637413,-0.06211812421679497],"type":"VEC3"},{"bufferView":26,"componentType":5126,"count":2694,"max":[0.9990935325622559,0.9996472597122192,0.9996597766876221],"min":[-0.9989944696426392,-1.0,-0.9998840689659119],"type":"VEC3"},{"bufferView":27,"componentType":5123,"count":2694,"max":[20,20,18,10],"min":[1,0,0,0],"type":"VEC4"},{"bufferView":28,"componentType":5126,"count":2694,"max":[1.0,0.9515629410743713,0.75,0.21047066152095795],"min":[0.014527578838169575,0.0,0.0,0.0],"type":"VEC4"},{"bufferView":29,"componentType":5126,"count":2694,"max":[0.9481136202812195,0.9989473223686218],"min":[0.0010531359585002065,0.001079261302947998],"type":"VEC2"},{"bufferView":30,"componentType":5121,"count":132,"max":[51],"min":[0],"type":"SCALAR"},{"bufferView":31,"componentType":5126,"count":52,"max":[0.19159099459648132,0.00016700000560376793,0.1916159987449646],"min":[-0.19157299399375916,0.00016700000560376793,-0.19154900312423706],"type":"VEC3"},{"bufferView":32,"componentType":5126,"count":52,"max":[0.0,-1.0,0.0],"min":[0.0,-1.0,0.0],"type":"VEC3"},{"bufferView":33,"componentType":5126,"count":52,"max":[0.0,1.0],"min":[0.0,1.0],"type":"VEC2"},{"bufferView":34,"componentType":5121,"count":186,"max":[65],"min":[0],"type":"SCALAR"},{"bufferView":35,"componentType":5126,"count":66,"max":[0.15382400155067444,0.013863000087440014,0.14812900125980377],"min":[-0.15439000725746155,0.013863000087440014,-0.14813899993896484],"type":"VEC3"},{"bufferView":36,"componentType":5126,"count":66,"max":[0.0,-1.0,0.0],"min":[0.0,-1.0,0.0],"type":"VEC3"},{"bufferView":37,"componentType":5126,"count":66,"max":[0.0,1.0],"min":[0.0,1.0],"type":"VEC2"},{"bufferView":38,"componentType":5121,"count":39,"max":[14],"min":[0],"type":"SCALAR"},{"bufferView":39,"componentType":5126,"count":15,"max":[0.039810001850128174,0.30514800548553467,0.0],"min":[-0.039810001850128174,0.21048399806022644,0.0],"type":"VEC3"},{"bufferView":40,"componentType":5126,"count":15,"max":[0.0,0.0,-1.0],"min":[0.0,0.0,-1.0],"type":"VEC3"},{"bufferView":41,"componentType":5126,"count":15,"max":[0.0,1.0],"min":[0.0,1.0],"type":"VEC2"},{"bufferView":42,"componentType":5126,"count":29,"max":[1.0000026226043701,0.23266242444515228,0.9994666576385498,0.0,0.9909703135490417,1.0,0.9941946268081665,0.0,0.9999998807907104,0.9999818205833435,1.0,0.0,0.08876007795333862,0.01250540092587471,0.1028904914855957,1.0],"min":[-1.0000026226043701,-0.2326623648405075,-0.9994667768478394,0.0,-0.9909703135490417,-0.08452673256397247,-0.9999816417694092,0.0,-1.0,-0.9899635314941406,-0.9994559288024902,0.0,-0.08876007050275803,-0.09211014211177826,-0.04050574451684952,1.0],"type":"MAT4"},{"bufferView":43,"componentType":5126,"count":101,"max":[5.833333492279053],"min":[0.0],"type":"SCALAR"},{"bufferView":44,"componentType":5126,"count":101,"max":[-0.0017302852356806397,0.9982200860977173,0.025795552879571915,-0.05374597758054733],"min":[-0.008714488707482815,0.9879158735275269,0.023432642221450806,-0.15296076238155365],"type":"VEC4"},{"bufferView":45,"componentType":5126,"count":76,"max":[5.833333492279053],"min":[0.0],"type":"SCALAR"},{"bufferView":46,"componentType":5126,"count":76,"max":[0.15872320532798767,-0.07238265872001648,-0.9846010208129883,-0.0036358870565891266],"min":[0.053650908172130585,-0.07406182587146759,-0.9958121180534363,-0.011317478492856026],"type":"VEC4"},{"bufferView":47,"componentType":5126,"count":96,"max":[5.833333492279053],"min":[0.0],"type":"SCALAR"},{"bufferView":48,"componentType":5126,"count":96,"max":[0.07220344990491867,0.7368325591087341,0.6989139318466187,0.1159929633140564],"min":[-0.09261628985404968,-0.7003981471061707,-0.7259908318519592,-0.112427718937397],"type":"VEC4"},{"bufferView":49,"componentType":5126,"count":75,"max":[5.833333492279053],"min":[0.0],"type":"SCALAR"},{"bufferView":50,"componentType":5126,"count":75,"max":[0.1230500191450119,0.013993723317980766,1.1965676094405353e-06,0.9999998211860657],"min":[-0.004309077747166157,2.3122890269178242e-08,-0.01143457181751728,0.9922358989715576],"type":"VEC4"},{"bufferView":51,"componentType":5126,"count":101,"max":[5.833333492279053],"min":[0.0],"type":"SCALAR"},{"bufferView":52,"componentType":5126,"count":101,"max":[-0.029143663123250008,-0.06934163719415665,-0.985480546951294,0.01039089635014534],"min":[-0.079987533390522,-0.14942020177841187,-0.9971650242805481,-0.0012092781253159046],"type":"VEC4"},{"bufferView":53,"componentType":5126,"count":91,"max":[5.833333492279053],"min":[0.0],"type":"SCALAR"},{"bufferView":54,"componentType":5126,"count":91,"max":[-0.008183285593986511,0.7478486895561218,0.6673530340194702,-0.012524240650236607],"min":[-0.017716920003294945,0.7442298531532288,0.6636369824409485,-0.021164681762456894],"type":"VEC4"},{"bufferView":55,"componentType":5126,"count":100,"max":[5.833333492279053],"min":[0.0],"type":"SCALAR"},{"bufferView":56,"componentType":5126,"count":100,"max":[0.10540752112865448,0.0030836942605674267,0.013985901139676571,0.9999997019767761],"min":[-0.020357849076390266,-0.007985005155205727,-0.005466969683766365,0.9942986965179443],"type":"VEC4"},{"bufferView":57,"componentType":5126,"count":141,"max":[5.833333492279053],"min":[0.0],"type":"SCALAR"},{"bufferView":58,"componentType":5126,"count":141,"max":[0.009192912839353085,0.043441589921712875,0.048875592648983,0.9999988079071045],"min":[-0.06974613666534424,-2.1902051283717583e-09,-0.12493947148323059,0.9920036196708679],"type":"VEC4"},{"bufferView":59,"componentType":5126,"count":141,"max":[5.833333492279053],"min":[0.0],"type":"SCALAR"},{"bufferView":60,"componentType":5126,"count":141,"max":[0.0010150483576580882,0.20144714415073395,-0.9756965041160583,0.0784587413072586],"min":[-0.06821259111166,0.1455775648355484,-0.9884940981864929,-0.02542325295507908],"type":"VEC4"},{"bufferView":61,"componentType":5126,"count":139,"max":[5.833333492279053],"min":[0.0],"type":"SCALAR"},{"bufferView":62,"componentType":5126,"count":139,"max":[0.020068280398845673,0.2700636088848114,-0.9610813856124878,0.06066819280385971],"min":[-0.03258456662297249,0.184700608253479,-0.9827947616577148,1.9135720208396378e-07],"type":"VEC4"},{"bufferView":63,"componentType":5126,"count":136,"max":[5.833333492279053],"min":[0.0],"type":"SCALAR"},{"bufferView":64,"componentType":5126,"count":136,"max":[0.0046852282248437405,-0.7385047674179077,-0.07944118976593018,0.6662253141403198],"min":[-0.017147060483694077,-0.7415075898170471,-0.10370464622974396,0.666004478931427],"type":"VEC4"},{"bufferView":65,"componentType":5126,"count":141,"max":[5.833333492279053],"min":[0.0],"type":"SCALAR"},{"bufferView":66,"componentType":5126,"count":141,"max":[0.20853064954280853,0.13062851130962372,0.8247048258781433,0.6732308268547058],"min":[-0.4122425615787506,-0.3586510121822357,-0.9210938811302185,-0.4953877925872803],"type":"VEC4"},{"bufferView":67,"componentType":5126,"count":141,"max":[5.833333492279053],"min":[0.0],"type":"SCALAR"},{"bufferView":68,"componentType":5126,"count":141,"max":[0.1595790684223175,-0.17944270372390747,0.3916086256504059,0.9087594747543335],"min":[-0.04875482991337776,-0.5659259557723999,0.21787206828594208,0.7943345904350281],"type":"VEC4"},{"bufferView":69,"componentType":5126,"count":42,"max":[5.833333492279053],"min":[0.0],"type":"SCALAR"},{"bufferView":70,"componentType":5126,"count":42,"max":[0.2700593173503876,0.11545819044113159,0.059620410203933716,0.9981826543807983],"min":[0.03236896172165871,-0.055513523519039154,-0.050991956144571304,0.9604474306106567],"type":"VEC4"},{"bufferView":71,"componentType":5126,"count":141,"max":[5.833333492279053],"min":[0.0],"type":"SCALAR"},{"bufferView":72,"componentType":5126,"count":141,"max":[0.07645358145236969,0.7563117742538452,0.10212749987840652,0.6662089228630066],"min":[-0.036266520619392395,0.7408169507980347,0.015606864355504513,0.6518561244010925],"type":"VEC4"},{"bufferView":73,"componentType":5126,"count":141,"max":[5.833333492279053],"min":[0.0],"type":"SCALAR"},{"bufferView":74,"componentType":5126,"count":141,"max":[0.13952431082725525,0.5603730082511902,-0.41538920998573303,0.802320659160614],"min":[-0.0956726223230362,0.29902514815330505,-0.5397053956985474,0.6535553932189941],"type":"VEC4"},{"bufferView":75,"componentType":5126,"count":140,"max":[5.833333492279053],"min":[0.0],"type":"SCALAR"},{"bufferView":76,"componentType":5126,"count":140,"max":[0.06228432431817055,-0.01705073192715645,0.001139152212999761,0.9981825947761536],"min":[0.05777455121278763,-0.11013130843639374,-0.054871801286935806,0.990641713142395],"type":"VEC4"}],"animations":[{"channels":[{"sampler":0,"target":{"node":15,"path":"rotation"}},{"sampler":1,"target":{"node":16,"path":"rotation"}},{"sampler":2,"target":{"node":17,"path":"rotation"}},{"sampler":3,"target":{"node":18,"path":"rotation"}},{"sampler":4,"target":{"node":21,"path":"rotation"}},{"sampler":5,"target":{"node":22,"path":"rotation"}},{"sampler":6,"target":{"node":23,"path":"rotation"}},{"sampler":7,"target":{"node":25,"path":"rotation"}},{"sampler":8,"target":{"node":26,"path":"rotation"}},{"sampler":9,"target":{"node":27,"path":"rotation"}},{"sampler":10,"target":{"node":29,"path":"rotation"}},{"sampler":11,"target":{"node":30,"path":"rotation"}},{"sampler":12,"target":{"node":31,"path":"rotation"}},{"sampler":13,"target":{"node":32,"path":"rotation"}},{"sampler":14,"target":{"node":34,"path":"rotation"}},{"sampler":15,"target":{"node":36,"path":"rotation"}},{"sampler":16,"target":{"node":37,"path":"rotation"}}],"extensions":{"S8S_v3d_animation":{"auto":true,"loop":"REPEAT","offset":0.0,"repeatCount":1.0,"repeatInfinite":true}},"name":"farmer_armature","samplers":[{"input":43,"interpolation":"LINEAR","output":44},{"input":45,"interpolation":"LINEAR","output":46},{"input":47,"interpolation":"LINEAR","output":48},{"input":49,"interpolation":"LINEAR","output":50},{"input":51,"interpolation":"LINEAR","output":52},{"input":53,"interpolation":"LINEAR","output":54},{"input":55,"interpolation":"LINEAR","output":56},{"input":57,"interpolation":"LINEAR","output":58},{"input":59,"interpolation":"LINEAR","output":60},{"input":61,"interpolation":"LINEAR","output":62},{"input":63,"interpolation":"LINEAR","output":64},{"input":65,"interpolation":"LINEAR","output":66},{"input":67,"interpolation":"LINEAR","output":68},{"input":69,"interpolation":"LINEAR","output":70},{"input":71,"interpolation":"LINEAR","output":72},{"input":73,"interpolation":"LINEAR","output":74},{"input":75,"interpolation":"LINEAR","output":76}]}],"asset":{"generator":"Verge3D for 3ds Max v4.9.0","version":"2.0"},"bufferViews":[{"buffer":0,"byteLength":6,"byteOffset":0,"target":34963},{"buffer":0,"byteLength":48,"byteOffset":8,"target":34962},{"buffer":0,"byteLength":48,"byteOffset":56,"target":34962},{"buffer":0,"byteLength":32,"byteOffset":104,"target":34962},{"buffer":0,"byteLength":6,"byteOffset":136,"target":34963},{"buffer":0,"byteLength":48,"byteOffset":144,"target":34962},{"buffer":0,"byteLength":48,"byteOffset":192,"target":34962},{"buffer":0,"byteLength":32,"byteOffset":240,"target":34962},{"buffer":0,"byteLength":6,"byteOffset":272,"target":34963},{"buffer":0,"byteLength":48,"byteOffset":280,"target":34962},{"buffer":0,"byteLength":48,"byteOffset":328,"target":34962},{"buffer":0,"byteLength":32,"byteOffset":376,"target":34962},{"buffer":0,"byteLength":6,"byteOffset":408,"target":34963},{"buffer":0,"byteLength":48,"byteOffset":416,"target":34962},{"buffer":0,"byteLength":48,"byteOffset":464,"target":34962},{"buffer":0,"byteLength":32,"byteOffset":512,"target":34962},{"buffer":0,"byteLength":288,"byteOffset":544,"target":34963},{"buffer":0,"byteLength":1200,"byteOffset":832,"target":34962},{"buffer":0,"byteLength":1200,"byteOffset":2032,"target":34962},{"buffer":0,"byteLength":800,"byteOffset":3232,"target":34962},{"buffer":0,"byteLength":96,"byteOffset":4032,"target":34963},{"buffer":0,"byteLength":300,"byteOffset":4128,"target":34962},{"buffer":0,"byteLength":300,"byteOffset":4428,"target":34962},{"buffer":0,"byteLength":200,"byteOffset":4728,"target":34962},{"buffer":0,"byteLength":22920,"byteOffset":4928,"target":34963},{"buffer":0,"byteLength":32328,"byteOffset":27848,"target":34962},{"buffer":0,"byteLength":32328,"byteOffset":60176,"target":34962},{"buffer":0,"byteLength":21552,"byteOffset":92504,"target":34962},{"buffer":0,"byteLength":43104,"byteOffset":114056,"target":34962},{"buffer":0,"byteLength":21552,"byteOffset":157160,"target":34962},{"buffer":0,"byteLength":132,"byteOffset":178712,"target":34963},{"buffer":0,"byteLength":624,"byteOffset":178844,"target":34962},{"buffer":0,"byteLength":624,"byteOffset":179468,"target":34962},{"buffer":0,"byteLength":416,"byteOffset":180092,"target":34962},{"buffer":0,"byteLength":186,"byteOffset":180508,"target":34963},{"buffer":0,"byteLength":792,"byteOffset":180696,"target":34962},{"buffer":0,"byteLength":792,"byteOffset":181488,"target":34962},{"buffer":0,"byteLength":528,"byteOffset":182280,"target":34962},{"buffer":0,"byteLength":39,"byteOffset":182808,"target":34963},{"buffer":0,"byteLength":180,"byteOffset":182848,"target":34962},{"buffer":0,"byteLength":180,"byteOffset":183028,"target":34962},{"buffer":0,"byteLength":120,"byteOffset":183208,"target":34962},{"buffer":0,"byteLength":1856,"byteOffset":183328},{"buffer":0,"byteLength":404,"byteOffset":185184},{"buffer":0,"byteLength":1616,"byteOffset":185588},{"buffer":0,"byteLength":304,"byteOffset":187204},{"buffer":0,"byteLength":1216,"byteOffset":187508},{"buffer":0,"byteLength":384,"byteOffset":188724},{"buffer":0,"byteLength":1536,"byteOffset":189108},{"buffer":0,"byteLength":300,"byteOffset":190644},{"buffer":0,"byteLength":1200,"byteOffset":190944},{"buffer":0,"byteLength":404,"byteOffset":192144},{"buffer":0,"byteLength":1616,"byteOffset":192548},{"buffer":0,"byteLength":364,"byteOffset":194164},{"buffer":0,"byteLength":1456,"byteOffset":194528},{"buffer":0,"byteLength":400,"byteOffset":195984},{"buffer":0,"byteLength":1600,"byteOffset":196384},{"buffer":0,"byteLength":564,"byteOffset":197984},{"buffer":0,"byteLength":2256,"byteOffset":198548},{"buffer":0,"byteLength":564,"byteOffset":200804},{"buffer":0,"byteLength":2256,"byteOffset":201368},{"buffer":0,"byteLength":556,"byteOffset":203624},{"buffer":0,"byteLength":2224,"byteOffset":204180},{"buffer":0,"byteLength":544,"byteOffset":206404},{"buffer":0,"byteLength":2176,"byteOffset":206948},{"buffer":0,"byteLength":564,"byteOffset":209124},{"buffer":0,"byteLength":2256,"byteOffset":209688},{"buffer":0,"byteLength":564,"byteOffset":211944},{"buffer":0,"byteLength":2256,"byteOffset":212508},{"buffer":0,"byteLength":168,"byteOffset":214764},{"buffer":0,"byteLength":672,"byteOffset":214932},{"buffer":0,"byteLength":564,"byteOffset":215604},{"buffer":0,"byteLength":2256,"byteOffset":216168},{"buffer":0,"byteLength":564,"byteOffset":218424},{"buffer":0,"byteLength":2256,"byteOffset":218988},{"buffer":0,"byteLength":560,"byteOffset":221244},{"buffer":0,"byteLength":2240,"byteOffset":221804}],"buffers":[{"byteLength":224044,"uri":"augmented_reality.bin"}],"cameras":[{"extensions":{"S8S_v3d_camera":{"controls":"ORBIT","enablePan":true,"moveSpeed":0.5,"orbitMaxDistance":1.5,"orbitMaxPolarAngle":1.5707963267948966,"orbitMaxZoom":100.0,"orbitMinDistance":0.30000001192092896,"orbitMinPolarAngle":0.0,"orbitMinZoom":0.009999999776482582,"orbitTarget":4,"rotateSpeed":1.0,"viewportFitInitialAspect":1.3333333333333333,"viewportFitType":"VERTICAL"}},"name":"Camera","perspective":{"aspectRatio":1.3333333333333333,"yfov":0.7444503243774193,"zfar":50.0,"znear":0.0010000000474974513},"type":"perspective"}],"extensions":{"S8S_v3d_clipping_planes":{},"S8S_v3d_curves":{"curves":[{"alignX":"center","alignY":"topBaseline","bevelSegments":5,"bevelSize":0,"bevelThickness":0,"curveSegments":5,"font":0,"height":0.0010000000474974513,"id":2403677813584,"material":10,"name":"scale_percentage","size":0.013199999704957008,"text":"100%\n\n","type":"font"}],"fonts":[{"id":"Arial Black","name":"Arial Black","uri":"ariblk.ttf"}]},"S8S_v3d_light_probes":{},"S8S_v3d_lights":{"lights":[{"color":[1.0,1.0,1.0],"decay":2.0,"distance":2.689516375797032,"intensity":1.0471975511965976,"name":"TPhotometricLight001","profile":"max","shadow":{"bias":-0.002,"cameraFar":1.3582057697775012,"cameraFov":-1,"cameraNear":0.1,"enabled":true,"expBias":2.5,"mapSize":512,"radius":2.0,"slopeScaledBias":3.0},"target":10,"type":"point"},{"color":[0.0,0.0,0.0],"intensity":1,"profile":"max","type":"ambient"}]}},"extensionsUsed":["S8S_v3d_texture","S8S_v3d_materials","S8S_v3d_camera","S8S_v3d_lights","S8S_v3d_curves","S8S_v3d_node","S8S_v3d_light_probes","S8S_v3d_clipping_planes","S8S_v3d_animation","S8S_v3d_scene"],"images":[{"uri":"prompt_move_around.png"},{"uri":"edit_button.png"},{"uri":"ready_button.png"},{"uri":"farmer_diff.jpg"}],"materials":[{"alphaMode":"BLEND","doubleSided":false,"extensions":{"S8S_v3d_materials":{"gtaoVisible":true,"nodeGraph":{"edges":[{"fromNode":1,"fromOutput":0,"toInput":0,"toNode":0},{"fromNode":1,"fromOutput":1,"toInput":1,"toNode":0},{"fromNode":2,"fromOutput":0,"toInput":1,"toNode":1},{"fromNode":3,"fromOutput":0,"toInput":6,"toNode":1}],"nodes":[{"inputs":[[1,1,1,1]],"is_active_output":true,"name":"MaxOutput","outputs":[],"type":"OUTPUT_MX"},{"IOR":1.5,"inputFactors":[0,1.0,0,0,0,0,1.0,0,0,0,0,0],"inputs":[[0.0,0.0,0.0,1.0],[0.8,0.8,0.8,1.0],[0.8,0.8,0.8,1.0],0.5169924926757813,0.25,[0.5,0.5,0.5,1.0],1.0,[0,0,0,0],[0,0,0],[0,0,0,0],[0,0,0,0],0],"is_active_output":false,"name":"warning_move_around","outputs":[[0,0,0,0]],"selfIllumColorOn":false,"type":"MATERIAL_MX"},{"alphaAsMono":false,"alphaAsRGB":false,"alphaSource":"FILE","axis":"XY","clampToEdgeNoExtend":[false,false],"inputs":[0.0,0.0,1.0,1.0,0.0],"is_active_output":false,"mapping":"EXPLICIT_MAP_CHANNEL","name":"Map #2","outputs":[[0,0,0,0]],"texture":0,"type":"BITMAP_MX","uvIndex":0},{"alphaAsMono":true,"alphaAsRGB":true,"alphaSource":"FILE","axis":"XY","clampToEdgeNoExtend":[false,false],"inputs":[0.0,0.0,1.0,1.0,0.0],"is_active_output":false,"mapping":"EXPLICIT_MAP_CHANNEL","name":"Map #3","outputs":[[0,0,0,0]],"texture":1,"type":"BITMAP_MX","uvIndex":0}]},"profile":"max"}},"name":"warning_move_around"},{"alphaMode":"BLEND","doubleSided":false,"extensions":{"S8S_v3d_materials":{"gtaoVisible":false,"nodeGraph":{"edges":[{"fromNode":1,"fromOutput":0,"toInput":0,"toNode":0},{"fromNode":1,"fromOutput":1,"toInput":1,"toNode":0},{"fromNode":2,"fromOutput":0,"toInput":17,"toNode":1},{"fromNode":2,"fromOutput":0,"toInput":24,"toNode":1}],"nodes":[{"inputs":[[1,1,1,1]],"is_active_output":true,"name":"MaxOutput","outputs":[],"type":"OUTPUT_MX"},{"brdfCurve":5.0,"brdfHigh":1.0,"brdfLow":0.05000000074505806,"brdfMode":true,"emitLuminance":1500.0,"inputFactors":[0,0,0,0,0,0,0,0,0,0,0,0,0,0,0,0,0,1.0,0,0,0,0,0,0,1.0],"inputs":[0.0,[0.5,0.5,0.5,1.0],0.0,[1.0,1.0,1.0,1.0],1.0,0.0,1.0,0.0,0.25,0.0,[1.0,1.0,1.0,1.0],0.0,1.5199999809265137,0.0,[1.0,1.0,1.0,1.0],1.0,0.5,[0.0,0.0,0.0,1.0],0.0,[1.0,1.0,1.0,1.0],0.0,[0,0,0],[0,0,0],0,1],"is_active_output":false,"name":"edit_button_mtrl","outputs":[[0,0,0,0]],"roughnessInv":false,"thinWalled":true,"transRoughnessInv":false,"transRoughnessLock":true,"type":"PHYSICAL_MX"},{"alphaAsMono":true,"alphaAsRGB":false,"alphaSource":"FILE","axis":"XY","clampToEdgeNoExtend":[false,false],"inputs":[0.0,0.0,1.0,1.0,0.0],"is_active_output":false,"mapping":"EXPLICIT_MAP_CHANNEL","name":"Map #4","outputs":[[0,0,0,0]],"texture":2,"type":"BITMAP_MX","uvIndex":0}]},"profile":"max"}},"name":"edit_button_mtrl"},{"alphaMode":"BLEND","doubleSided":false,"extensions":{"S8S_v3d_materials":{"gtaoVisible":false,"nodeGraph":{"edges":[{"fromNode":1,"fromOutput":0,"toInput":0,"toNode":0},{"fromNode":1,"fromOutput":1,"toInput":1,"toNode":0},{"fromNode":2,"fromOutput":0,"toInput":17,"toNode":1},{"fromNode":2,"fromOutput":0,"toInput":24,"toNode":1}],"nodes":[{"inputs":[[1,1,1,1]],"is_active_output":true,"name":"MaxOutput","outputs":[],"type":"OUTPUT_MX"},{"brdfCurve":5.0,"brdfHigh":1.0,"brdfLow":0.05000000074505806,"brdfMode":true,"emitLuminance":1500.0,"inputFactors":[0,0,0,0,0,0,0,0,0,0,0,0,0,0,0,0,0,1.0,0,0,0,0,0,0,1.0],"inputs":[0.0,[0.5,0.5,0.5,1.0],0.0,[1.0,1.0,1.0,1.0],0.0,0.0,0.0,0.0,0.25,0.0,[1.0,1.0,1.0,1.0],0.0,1.5199999809265137,0.0,[1.0,1.0,1.0,1.0],1.0,0.5,[0.0,0.0,0.0,1.0],0.0,[1.0,1.0,1.0,1.0],0.0,[0,0,0],[0,0,0],0,1],"is_active_output":false,"name":"ready_button_mtrl","outputs":[[0,0,0,0]],"roughnessInv":false,"thinWalled":true,"transRoughnessInv":false,"transRoughnessLock":true,"type":"PHYSICAL_MX"},{"alphaAsMono":true,"alphaAsRGB":false,"alphaSource":"FILE","axis":"XY","clampToEdgeNoExtend":[false,false],"inputs":[0.0,0.0,1.0,1.0,0.0],"is_active_output":false,"mapping":"EXPLICIT_MAP_CHANNEL","name":"Map #5","outputs":[[0,0,0,0]],"texture":3,"type":"BITMAP_MX","uvIndex":0}]},"profile":"max"}},"name":"ready_button_mtrl"},{"alphaMode":"BLEND","doubleSided":false,"extensions":{"S8S_v3d_materials":{"gtaoVisible":true,"nodeGraph":{"edges":[{"fromNode":1,"fromOutput":0,"toInput":0,"toNode":0},{"fromNode":1,"fromOutput":1,"toInput":1,"toNode":0}],"nodes":[{"inputs":[[1,1,1,1]],"is_active_output":true,"name":"MaxOutput","outputs":[],"type":"OUTPUT_MX"},{"IOR":1.5,"inputFactors":[0,0,0,0,0,0,0,0,0,0,0,0],"inputs":[[0.0,0.0,0.0,1.0],[0.0,0.0,0.0,1.0],[0.0,0.0,0.0,1.0],0.0,0.0,[0.0,0.0,0.0,1.0],0.0,[0,0,0,0],[0,0,0],[0,0,0,0],[0,0,0,0],0],"is_active_output":false,"name":"clicker","outputs":[[0,0,0,0]],"selfIllumColorOn":true,"type":"MATERIAL_MX"}]},"profile":"max"}},"name":"clicker"},{"alphaMode":"BLEND","doubleSided":false,"extensions":{"S8S_v3d_materials":{"gtaoVisible":false,"nodeGraph":{"edges":[{"fromNode":1,"fromOutput":0,"toInput":0,"toNode":0},{"fromNode":1,"fromOutput":1,"toInput":1,"toNode":0}],"nodes":[{"inputs":[[1,1,1,1]],"is_active_output":true,"name":"MaxOutput","outputs":[],"type":"OUTPUT_MX"},{"IOR":1.5,"inputFactors":[0,0,0,0,0,0,0,0,0,0,0,0],"inputs":[[0.0,0.0,0.0,1.0],[0.8,0.8,0.8,1.0],[0.8,0.8,0.8,1.0],0.5169924926757813,0.25,[1.0,1.0,1.0,1.0],0.7999999237060547,[0,0,0,0],[0,0,0],[0,0,0,0],[0,0,0,0],0],"is_active_output":false,"name":"indicator","outputs":[[0,0,0,0]],"selfIllumColorOn":false,"type":"MATERIAL_MX"}]},"profile":"max"}},"name":"indicator"},{"doubleSided":false,"extensions":{"S8S_v3d_materials":{"gtaoVisible":true,"nodeGraph":{"edges":[{"fromNode":1,"fromOutput":0,"toInput":0,"toNode":0},{"fromNode":1,"fromOutput":1,"toInput":1,"toNode":0}],"nodes":[{"inputs":[[1,1,1,1]],"is_active_output":true,"name":"MaxOutput","outputs":[],"type":"OUTPUT_MX"},{"color":[0.5803921568627451,0.5803921568627451,0.5803921568627451],"inputs":[],"is_active_output":false,"name":"Material #24","outputs":[[0,0,0,0]],"receiveShadows":true,"shadowBrightness":0.0,"type":"MATTE_SHADOW_MX"}]},"profile":"max"}},"name":"Material #24"},{"doubleSided":false,"extensions":{"S8S_v3d_materials":{"gtaoVisible":true,"nodeGraph":{"edges":[{"fromNode":1,"fromOutput":0,"toInput":0,"toNode":0},{"fromNode":1,"fromOutput":1,"toInput":1,"toNode":0},{"fromNode":2,"fromOutput":0,"toInput":1,"toNode":1},{"fromNode":2,"fromOutput":0,"toInput":16,"toNode":1}],"nodes":[{"inputs":[[1,1,1,1]],"is_active_output":true,"name":"MaxOutput","outputs":[],"type":"OUTPUT_MX"},{"brdfCurve":5.0,"brdfHigh":1.0,"brdfLow":0.05000000074505806,"brdfMode":true,"emitLuminance":1500.0,"inputFactors":[0,1.0,0,0,0,0,0,0,0,0,0,0,0,0,0,0,1.0,0,0,0,0,0,0,0,0],"inputs":[1.0,[0.5,0.5,0.5,1.0],0.0,[1.0,1.0,1.0,1.0],1.0,0.0,0.0,0.0,0.25,0.0,[1.0,1.0,1.0,1.0],0.0,1.5199999809265137,0.0,[1.0,1.0,1.0,1.0],1.0,1.0,[0.0,0.0,0.0,1.0],0.0,[1.0,1.0,1.0,1.0],0.0,[0,0,0],[0,0,0],0,1],"is_active_output":false,"name":"farmer","outputs":[[0,0,0,0]],"roughnessInv":false,"thinWalled":false,"transRoughnessInv":false,"transRoughnessLock":true,"type":"PHYSICAL_MX"},{"alphaAsMono":false,"alphaAsRGB":false,"alphaSource":"NONE","axis":"XY","clampToEdgeNoExtend":[false,false],"inputs":[0.0,0.0,1.0,1.0,0.0],"is_active_output":false,"mapping":"EXPLICIT_MAP_CHANNEL","name":"Map #1","outputs":[[0,0,0,0]],"texture":4,"type":"BITMAP_MX","uvIndex":0}]},"profile":"max"}},"name":"farmer"},{"alphaMode":"BLEND","doubleSided":true,"extensions":{"S8S_v3d_materials":{"alphaToCoverage":true,"gtaoVisible":true,"nodeGraph":{"edges":[{"fromNode":1,"fromOutput":0,"toInput":0,"toNode":0},{"fromNode":1,"fromOutput":1,"toInput":1,"toNode":0}],"nodes":[{"inputs":[[1,1,1,1]],"is_active_output":true,"name":"MaxOutput","outputs":[],"type":"OUTPUT_MX"},{"brdfCurve":5.0,"brdfHigh":1.0,"brdfLow":0.05000000074505806,"brdfMode":true,"emitLuminance":1500.0,"inputFactors":[0,0,0,0,0,0,0,0,0,0,0,0,0,0,0,0,0,0,0,0,0,0,0,0,0],"inputs":[0.0,[0.5,0.5,0.5,1.0],0.0,[1.0,1.0,1.0,1.0],1.0,0.0,1.0,0.0,0.25,0.5,[1.0,1.0,1.0,1.0],0.0,1.5199999809265137,0.0,[1.0,1.0,1.0,1.0],1.0,0.5,[0.0,0.11999999401616115,0.35,1.0],0.0,[1.0,1.0,1.0,1.0],0.0,[0,0,0],[0,0,0],0,1],"is_active_output":false,"name":"drag_move_ind","outputs":[[0,0,0,0]],"roughnessInv":false,"thinWalled":true,"transRoughnessInv":false,"transRoughnessLock":true,"type":"PHYSICAL_MX"}]},"profile":"max"}},"name":"drag_move_ind"},{"alphaMode":"BLEND","doubleSided":true,"extensions":{"S8S_v3d_materials":{"alphaToCoverage":true,"gtaoVisible":true,"nodeGraph":{"edges":[{"fromNode":1,"fromOutput":0,"toInput":0,"toNode":0},{"fromNode":1,"fromOutput":1,"toInput":1,"toNode":0}],"nodes":[{"inputs":[[1,1,1,1]],"is_active_output":true,"name":"MaxOutput","outputs":[],"type":"OUTPUT_MX"},{"brdfCurve":5.0,"brdfHigh":1.0,"brdfLow":0.05000000074505806,"brdfMode":true,"emitLuminance":1500.0,"inputFactors":[0,0,0,0,0,0,0,0,0,0,0,0,0,0,0,0,0,0,0,0,0,0,0,0,0],"inputs":[0.0,[0.5,0.5,0.5,1.0],0.0,[1.0,1.0,1.0,1.0],1.0,0.0,1.0,0.0,0.25,0.5,[1.0,1.0,1.0,1.0],0.0,1.5199999809265137,0.0,[1.0,1.0,1.0,1.0],1.0,0.5,[0.23000000598383885,0.0,0.009999999813005036,1.0],0.0,[1.0,1.0,1.0,1.0],0.0,[0,0,0],[0,0,0],0,1],"is_active_output":false,"name":"drag_rotate_ind","outputs":[[0,0,0,0]],"roughnessInv":false,"thinWalled":true,"transRoughnessInv":false,"transRoughnessLock":true,"type":"PHYSICAL_MX"}]},"profile":"max"}},"name":"drag_rotate_ind"},{"alphaMode":"BLEND","doubleSided":true,"extensions":{"S8S_v3d_materials":{"alphaToCoverage":true,"gtaoVisible":true,"nodeGraph":{"edges":[{"fromNode":1,"fromOutput":0,"toInput":0,"toNode":0},{"fromNode":1,"fromOutput":1,"toInput":1,"toNode":0}],"nodes":[{"inputs":[[1,1,1,1]],"is_active_output":true,"name":"MaxOutput","outputs":[],"type":"OUTPUT_MX"},{"brdfCurve":5.0,"brdfHigh":1.0,"brdfLow":0.05000000074505806,"brdfMode":true,"emitLuminance":1500.0,"inputFactors":[0,0,0,0,0,0,0,0,0,0,0,0,0,0,0,0,0,0,0,0,0,0,0,0,0],"inputs":[0.0,[0.5,0.5,0.5,1.0],0.0,[1.0,1.0,1.0,1.0],1.0,0.0,1.0,0.0,0.25,0.5,[1.0,1.0,1.0,1.0],0.0,1.5199999809265137,0.0,[1.0,1.0,1.0,1.0],1.0,0.5,[0.0,0.5,0.01999999962601007,1.0],0.0,[1.0,1.0,1.0,1.0],0.0,[0,0,0],[0,0,0],0,1],"is_active_output":false,"name":"drag_scale_ind","outputs":[[0,0,0,0]],"roughnessInv":false,"thinWalled":true,"transRoughnessInv":false,"transRoughnessLock":true,"type":"PHYSICAL_MX"}]},"profile":"max"}},"name":"drag_scale_ind"},{"doubleSided":false,"extensions":{"S8S_v3d_materials":{"gtaoVisible":true,"nodeGraph":{"edges":[{"fromNode":1,"fromOutput":0,"toInput":0,"toNode":0},{"fromNode":1,"fromOutput":1,"toInput":1,"toNode":0}],"nodes":[{"inputs":[[1,1,1,1]],"is_active_output":true,"name":"MaxOutput","outputs":[],"type":"OUTPUT_MX"},{"brdfCurve":5.0,"brdfHigh":1.0,"brdfLow":0.05000000074505806,"brdfMode":true,"emitLuminance":1500.0,"inputFactors":[0,0,0,0,0,0,0,0,0,0,0,0,0,0,0,0,0,0,0,0,0,0,0,0,0],"inputs":[0.0,[0.5,0.5,0.5,1.0],0.0,[1.0,1.0,1.0,1.0],0.0,0.0,0.0,0.0,0.25,0.0,[1.0,1.0,1.0,1.0],0.0,1.5199999809265137,0.0,[1.0,1.0,1.0,1.0],1.0,1.0,[1.0,1.0,1.0,1.0],0.0,[1.0,1.0,1.0,1.0],0.0,[0,0,0],[0,0,0],0,1],"is_active_output":false,"name":"scale_percentage_ind","outputs":[[0,0,0,0]],"roughnessInv":false,"thinWalled":false,"transRoughnessInv":false,"transRoughnessLock":true,"type":"PHYSICAL_MX"}]},"profile":"max"}},"name":"scale_percentage_ind"},{"extensions":{"S8S_v3d_materials":{"nodeGraph":{"edges":[],"nodes":[{"inputs":[[1.0,1.0,1.0,1]],"is_active_output":true,"name":"World Output","outputs":[],"type":"OUTPUT_MX"}]},"profile":"max"}},"name":"Verge3D_Environment"}],"meshes":[{"name":"prompt_move_around","primitives":[{"attributes":{"NORMAL":2,"POSITION":1,"TEXCOORD_0":3},"indices":0,"material":0,"mode":4}]},{"name":"edit_button","primitives":[{"attributes":{"NORMAL":6,"POSITION":5,"TEXCOORD_0":7},"indices":4,"material":1,"mode":4}]},{"name":"ready_button","primitives":[{"attributes":{"NORMAL":10,"POSITION":9,"TEXCOORD_0":11},"indices":8,"material":2,"mode":4}]},{"name":"indicator_invis_plane","primitives":[{"attributes":{"NORMAL":14,"POSITION":13,"TEXCOORD_0":15},"indices":12,"material":3,"mode":4}]},{"name":"indicator_mesh","primitives":[{"attributes":{"NORMAL":18,"POSITION":17,"TEXCOORD_0":19},"indices":16,"material":4,"mode":4}]},{"name":"Plane001","primitives":[{"attributes":{"NORMAL":22,"POSITION":21,"TEXCOORD_0":23},"indices":20,"material":5,"mode":4}]},{"name":"farmer_mesh","primitives":[{"attributes":{"JOINTS_0":27,"NORMAL":26,"POSITION":25,"TEXCOORD_0":29,"WEIGHTS_0":28},"indices":24,"material":6,"mode":4}]},{"name":"drag_move","primitives":[{"attributes":{"NORMAL":32,"POSITION":31,"TEXCOORD_0":33},"indices":30,"material":7,"mode":4}]},{"name":"drag_rotate","primitives":[{"attributes":{"NORMAL":36,"POSITION":35,"TEXCOORD_0":37},"indices":34,"material":8,"mode":4}]},{"name":"drag_scale","primitives":[{"attributes":{"NORMAL":40,"POSITION":39,"TEXCOORD_0":41},"indices":38,"material":9,"mode":4}]}],"nodes":[{"camera":0,"children":[1,2,3],"extensions":{"S8S_v3d_node":{"hidden":false,"hidpiCompositing":false}},"name":"Camera","rotation":[-0.2193872332572937,0.24844402074813843,0.0578799732029438,0.9416977763175964],"scale":[1.0,1.0000001192092896,1.0],"translation":[0.27968594431877136,0.3658199906349182,0.4878309369087219]},{"extensions":{"S8S_v3d_node":{"frustumCulling":true,"hidden":true,"hidpiCompositing":false,"renderOrder":0,"useCastShadows":true,"useShadows":true}},"extras":{"customProps":{"MapChannel:1":"UVMap"}},"mesh":0,"name":"prompt_move_around","rotation":[0.7117129564285278,0.0019559799693524837,0.0042516859248280525,0.7024548053741455],"scale":[0.9483060836791992,0.9483059644699097,0.948306143283844],"translation":[0.00010980665683746338,0.0012635660823434591,-0.16409683227539062]},{"extensions":{"S8S_v3d_node":{"constraints":[{"edgeH":"NONE","edgeV":"BOTTOM","fitShape":"BOX","mute":false,"name":"Canvas Fit","offset":0.014999999664723873,"target":0,"type":"canvasFit"}],"frustumCulling":true,"hidden":true,"hidpiCompositing":false,"renderOrder":0,"useCastShadows":true,"useShadows":true}},"mesh":1,"name":"edit_button","rotation":[0.7071068286895752,3.7095260196906565e-09,5.7981588419409036e-09,0.7071067690849304],"scale":[1.0,1.0,1.0],"translation":[2.9802322387695312e-08,-0.07082609832286835,-0.2623737156391144]},{"extensions":{"S8S_v3d_node":{"constraints":[{"edgeH":"NONE","edgeV":"BOTTOM","fitShape":"BOX","mute":false,"name":"Canvas Fit","offset":0.014999999664723873,"target":0,"type":"canvasFit"}],"frustumCulling":true,"hidden":true,"hidpiCompositing":false,"renderOrder":0,"useCastShadows":true,"useShadows":true}},"mesh":2,"name":"ready_button","rotation":[0.7071068286895752,1.0552455798062965e-08,4.632149872008107e-11,0.7071067690849304],"scale":[1.0,1.0,1.0],"translation":[2.9802322387695312e-08,-0.07082609832286835,-0.2623737156391144]},{"extensions":{"S8S_v3d_node":{"hidden":false,"hidpiCompositing":false}},"name":"Camera.Target","translation":[0.002805915893986821,0.08929615467786789,-0.0003856750554405153]},{"children":[6],"extensions":{"S8S_v3d_node":{"hidden":false,"hidpiCompositing":false}},"name":"indicator_group","translation":[0.0,-0.00012389448238536716,-0.0]},{"children":[7],"extensions":{"S8S_v3d_node":{"frustumCulling":false,"groupNames":["indicator_group"],"hidden":false,"hidpiCompositing":false,"renderOrder":0,"useCastShadows":true,"useShadows":true}},"extras":{"customProps":{"MapChannel:1":"UVMap"}},"mesh":3,"name":"indicator_invis_plane","rotation":[-0.0,4.371138828673793e-08,0.0,1.0],"translation":[0.0,0.00012389448238536716,-0.0]},{"extensions":{"S8S_v3d_node":{"frustumCulling":false,"groupNames":["indicator_group"],"hidden":false,"hidpiCompositing":false,"renderOrder":0,"useCastShadows":true,"useShadows":true}},"extras":{"customProps":{"MapChannel:1":"UVMap"}},"mesh":4,"name":"indicator_mesh","translation":[1.760307965527919e-18,-0.0002477889647707343,-2.0135575498625435e-11]},{"extensions":{"S8S_v3d_node":{"frustumCulling":true,"hidden":false,"hidpiCompositing":false,"renderOrder":0,"useCastShadows":true,"useShadows":true}},"mesh":5,"name":"Plane001","scale":[0.31726139783859253,0.6526882648468018,0.3797145187854767],"translation":[0.07233540713787079,0.0,-0.10526831448078156]},{"extensions":{"S8S_v3d_lights":{"light":0},"S8S_v3d_node":{"hidden":false,"hidpiCompositing":false}},"name":"TPhotometricLight001","rotation":[-0.4679003059864044,-0.006007744465023279,0.5301597714424133,0.7070812582969666],"scale":[1.0,1.0000001192092896,1.0],"translation":[-0.46217086911201477,0.726237416267395,0.5159612894058228]},{"extensions":{"S8S_v3d_node":{"hidden":false,"hidpiCompositing":false}},"name":"TPhotometricLight001.Target","translation":[-0.0071830847300589085,0.1353742778301239,0.00917690061032772]},{"children":[12],"extensions":{"S8S_v3d_node":{"hidden":false,"hidpiCompositing":false}},"name":"farmer_group"},{"children":[13,53,54,55,56,57],"extensions":{"S8S_v3d_node":{"groupNames":["farmer_group"],"hidden":false,"hidpiCompositing":false}},"name":"farmer_armature"},{"children":[14,39,46],"extensions":{"S8S_v3d_node":{"groupNames":["farmer_group"],"hidden":false,"hidpiCompositing":false}},"name":"root","rotation":[-0.0,1.4897790176854006e-16,0.0,1.0],"scale":[1.0000001192092896,1.0000001192092896,1.0000001192092896]},{"children":[15,20,25],"extensions":{"S8S_v3d_node":{"groupNames":["farmer_group"],"hidden":false,"hidpiCompositing":false}},"name":"spine","rotation":[0.686172604560852,-8.179816290976305e-08,8.671749185396038e-08,0.727438747882843],"scale":[1.0000001192092896,1.0000001192092896,1.0000001192092896],"translation":[1.294347407104601e-19,0.04072462022304535,-0.00020997600222472101]},{"children":[16],"extensions":{"S8S_v3d_node":{"groupNames":["farmer_group"],"hidden":false,"hidpiCompositing":false}},"name":"thigh.L","rotation":[-0.0017355676973238587,0.9982198476791382,0.025795552879571915,-0.053745996206998825],"scale":[1.0043141841888428,1.0044537782669067,0.9912199378013611],"translation":[0.021078910678625107,-1.665716990828514e-05,-5.4702162742614746e-05]},{"children":[17],"extensions":{"S8S_v3d_node":{"groupNames":["farmer_group"],"hidden":false,"hidpiCompositing":false}},"name":"shin.L","rotation":[0.053650908172130585,-0.07406182587146759,-0.9958027601242065,-0.003642633557319641],"scale":[0.9941710233688354,0.9965479373931885,1.0084328651428223],"translation":[0.0,1.4551915228366852e-11,-0.01831025630235672]},{"children":[18],"extensions":{"S8S_v3d_node":{"groupNames":["farmer_group"],"hidden":false,"hidpiCompositing":false}},"name":"foot.L","rotation":[-0.09261628985404968,0.7368325591087341,0.6604700088500977,-0.11081261932849884],"scale":[1.000020146369934,0.9953476190567017,1.0050363540649414],"translation":[1.862645149230957e-09,-2.3283064365386963e-10,-0.01721927896142006]},{"children":[19],"extensions":{"S8S_v3d_node":{"groupNames":["farmer_group"],"hidden":false,"hidpiCompositing":false}},"name":"toe.L","rotation":[-0.004309077747166157,4.665395536562755e-08,1.194881519950286e-06,0.999990701675415],"scale":[0.9999980926513672,0.9988370537757874,1.0006790161132812],"translation":[-1.862645149230957e-09,-4.656612873077393e-10,-0.015318145975470543]},{"extensions":{"S8S_v3d_node":{"groupNames":["farmer_group"],"hidden":false,"hidpiCompositing":false}},"name":"toe.L_end","rotation":[2.485472806725088e-18,-9.050381777342409e-09,-8.076314061966627e-10,1.0],"scale":[1.0,0.9999998211860657,1.0],"translation":[0.0,4.656612873077393e-10,-0.012148411944508553]},{"children":[21],"extensions":{"S8S_v3d_node":{"groupNames":["farmer_group"],"hidden":false,"hidpiCompositing":false}},"name":"thigh.R","rotation":[0.001739764236845076,0.9982183575630188,0.025854073464870453,0.053745560348033905],"scale":[0.9982801079750061,0.9984278678894043,1.0030686855316162],"translation":[-0.021078910678625107,-1.6647158190608025e-05,-5.4702162742614746e-05]},{"children":[22],"extensions":{"S8S_v3d_node":{"groupNames":["farmer_group"],"hidden":false,"hidpiCompositing":false}},"name":"shin.R","rotation":[-0.05365018919110298,-0.07406095415353775,-0.9958028793334961,0.0036424128338694572],"scale":[0.9975976943969727,0.9969359040260315,1.0057190656661987],"translation":[0.0,-1.4551915228366852e-11,-0.018310241401195526]},{"children":[23],"extensions":{"S8S_v3d_node":{"groupNames":["farmer_group"],"hidden":false,"hidpiCompositing":false}},"name":"foot.R","rotation":[-0.017716920003294945,0.7442298531532288,0.6673530340194702,-0.021164681762456894],"scale":[1.0000306367874146,1.0006011724472046,0.9994447231292725],"translation":[0.0,2.3283064365386963e-10,-0.01721927523612976]},{"children":[24],"extensions":{"S8S_v3d_node":{"groupNames":["farmer_group"],"hidden":false,"hidpiCompositing":false}},"name":"toe.R","rotation":[-0.004309086129069328,-3.5910737494759815e-08,-1.1709532827808289e-06,0.999990701675415],"scale":[0.9999999403953552,0.999946117401123,0.999935507774353],"translation":[-5.587935447692871e-09,-4.656612873077393e-10,-0.015318098478019238]},{"extensions":{"S8S_v3d_node":{"groupNames":["farmer_group"],"hidden":false,"hidpiCompositing":false}},"name":"toe.R_end","rotation":[-6.039079569892291e-20,1.323769538430497e-09,-4.3655745685100555e-11,1.0],"scale":[0.9999999403953552,1.0000001192092896,1.0000001192092896],"translation":[0.0,0.0,-0.012148416601121426]},{"children":[26,29,34],"extensions":{"S8S_v3d_node":{"groupNames":["farmer_group"],"hidden":false,"hidpiCompositing":false}},"name":"spine.001","rotation":[0.009186381474137306,-2.1902051283717583e-09,-2.8267644301693817e-14,0.999957799911499],"scale":[1.0000001192092896,0.9999999403953552,1.0],"translation":[0.0,0.0,-0.015809044241905212]},{"children":[27],"extensions":{"S8S_v3d_node":{"groupNames":["farmer_group"],"hidden":false,"hidpiCompositing":false}},"name":"neck","rotation":[1.0035321906798345e-08,0.20137324929237366,-0.9795145988464355,-1.967161580296306e-07],"scale":[1.0000001192092896,1.0000001192092896,1.0000003576278687],"translation":[5.551115123125783e-17,1.1641532182693481e-10,-0.03311465308070183]},{"children":[28],"extensions":{"S8S_v3d_node":{"groupNames":["farmer_group"],"hidden":false,"hidpiCompositing":false}},"name":"head","rotation":[-3.5962596456329265e-08,0.18470093607902527,-0.9827947616577148,1.9135720208396378e-07],"scale":[1.0000001192092896,1.0,1.000000238418579],"translation":[0.0,0.0,-0.01185181736946106]},{"extensions":{"S8S_v3d_node":{"groupNames":["farmer_group"],"hidden":false,"hidpiCompositing":false}},"name":"head_end","rotation":[6.162975822039155e-30,1.7763568394002505e-15,-3.899658373995862e-15,1.0],"translation":[-8.881784197001252e-16,-2.3283064365386963e-10,-0.09937970340251923]},{"children":[30],"extensions":{"S8S_v3d_node":{"groupNames":["farmer_group"],"hidden":false,"hidpiCompositing":false}},"name":"shoulder.L","rotation":[0.0046852282248437405,-0.7415036559104919,-0.07947374880313873,0.6662089228630066],"scale":[0.9999998807907104,1.000000238418579,0.9999999403953552],"translation":[0.015970943495631218,-0.004366264678537846,-0.029705580323934555]},{"children":[31],"extensions":{"S8S_v3d_node":{"groupNames":["farmer_group"],"hidden":false,"hidpiCompositing":false}},"name":"upper_arm.L","rotation":[-0.3813275992870331,-0.35852718353271484,0.536294162273407,0.6621451377868652],"scale":[1.0000003576278687,1.0000003576278687,1.0000003576278687],"translation":[7.450580596923828e-09,9.313225746154785e-10,-0.01982540637254715]},{"children":[32],"extensions":{"S8S_v3d_node":{"groupNames":["farmer_group"],"hidden":false,"hidpiCompositing":false}},"name":"forearm.L","rotation":[0.034542590379714966,-0.5659259557723999,0.21809889376163483,0.7943346500396729],"scale":[1.0,1.0,0.9999998807907104],"translation":[-3.725290298461914e-09,3.725290298461914e-09,-0.02044481784105301]},{"children":[33],"extensions":{"S8S_v3d_node":{"groupNames":["farmer_group"],"hidden":false,"hidpiCompositing":false}},"name":"hand.L","rotation":[0.0577874593436718,0.017050832509994507,-0.0011380696669220924,0.9981825947761536],"scale":[1.000000238418579,0.9999998211860657,0.9999999403953552],"translation":[0.0,-3.725290298461914e-09,-0.018513720482587814]},{"extensions":{"S8S_v3d_node":{"groupNames":["farmer_group"],"hidden":false,"hidpiCompositing":false}},"name":"hand.L_end","rotation":[-7.450581485102248e-09,-1.4901162970204496e-08,-5.551116446614763e-17,1.0],"scale":[0.9999998807907104,0.9999999403953552,0.9999998807907104],"translation":[0.0,0.0,-0.027735671028494835]},{"children":[35],"extensions":{"S8S_v3d_node":{"groupNames":["farmer_group"],"hidden":false,"hidpiCompositing":false}},"name":"shoulder.R","rotation":[0.004685421008616686,0.7415036559104919,0.07947361469268799,0.6662089228630066],"scale":[0.9999999403953552,1.0,1.0000001192092896],"translation":[-0.015970947220921516,-0.004366549197584391,-0.029698286205530167]},{"children":[36],"extensions":{"S8S_v3d_node":{"groupNames":["farmer_group"],"hidden":false,"hidpiCompositing":false}},"name":"upper_arm.R","rotation":[-0.3238683044910431,0.3929271101951599,-0.6052311658859253,0.611892819404602],"scale":[1.000000238418579,1.0000003576278687,1.0000001192092896],"translation":[0.0,9.313225746154785e-10,-0.0198254082351923]},{"children":[37],"extensions":{"S8S_v3d_node":{"groupNames":["farmer_group"],"hidden":false,"hidpiCompositing":false}},"name":"forearm.R","rotation":[-0.09541787207126617,0.559974730014801,-0.44339486956596375,0.6933431625366211],"scale":[0.9999998211860657,0.9999998807907104,0.9999998807907104],"translation":[-1.862645149230957e-09,0.0,-0.02044481784105301]},{"children":[38],"extensions":{"S8S_v3d_node":{"groupNames":["farmer_group"],"hidden":false,"hidpiCompositing":false}},"name":"hand.R","rotation":[0.05778748169541359,-0.01705080457031727,0.0011380654759705067,0.9981825947761536],"scale":[1.000000238418579,1.0,0.9999999403953552],"translation":[7.450580596923828e-09,1.862645149230957e-09,-0.018513722345232964]},{"extensions":{"S8S_v3d_node":{"groupNames":["farmer_group"],"hidden":false,"hidpiCompositing":false}},"name":"hand.R_end","rotation":[1.8626448161640496e-09,-1.4901159417490817e-08,7.4505797087454084e-09,1.0],"scale":[1.0000001192092896,1.000000238418579,1.0000001192092896],"translation":[0.0,3.725290298461914e-09,-0.02773568220436573]},{"children":[40,42,44],"extensions":{"S8S_v3d_node":{"groupNames":["farmer_group"],"hidden":false,"hidpiCompositing":false}},"name":"foot_controll_1.L","rotation":[0.18563209474086761,2.7147575366089777e-15,2.3759475340808097e-15,0.9826193451881409],"scale":[1.0000001192092896,1.000000238418579,0.9999997615814209],"translation":[0.023045247420668602,0.000266429444309324,0.024906501173973083]},{"children":[41],"extensions":{"S8S_v3d_node":{"groupNames":["farmer_group"],"hidden":false,"hidpiCompositing":false}},"name":"toe_IK.L","rotation":[0.5635551810264587,-1.1695736967969793e-16,8.164720646918142e-17,0.8260784149169922],"scale":[1.0000001192092896,1.0,1.0],"translation":[1.862645149230957e-09,0.003957269713282585,-0.0015505142509937286]},{"extensions":{"S8S_v3d_node":{"groupNames":["farmer_group"],"hidden":false,"hidpiCompositing":false}},"name":"toe_IK.L_end","rotation":[7.105428204633949e-15,-1.1807613497030128e-36,1.5549622266933112e-22,1.0],"scale":[1.0,0.9999999403953552,0.9999998807907104],"translation":[0.0,-1.862645149230957e-09,-0.004920903593301773]},{"children":[43],"extensions":{"S8S_v3d_node":{"groupNames":["farmer_group"],"hidden":false,"hidpiCompositing":false}},"name":"foot_IK.L","rotation":[0.5635551810264587,-1.1458693474191697e-16,7.817277658121779e-17,0.8260784149169922],"scale":[1.0000001192092896,1.0,1.0000001192092896],"translation":[1.862645149230957e-09,0.0,-0.013036329299211502]},{"extensions":{"S8S_v3d_node":{"groupNames":["farmer_group"],"hidden":false,"hidpiCompositing":false}},"name":"foot_IK.L_end","rotation":[-0.0,-0.0,1.5549622266933112e-22,1.0],"translation":[0.0,0.0,-0.0050966483540833]},{"children":[45],"extensions":{"S8S_v3d_node":{"groupNames":["farmer_group"],"hidden":false,"hidpiCompositing":false}},"name":"foot_heel_IK.L","rotation":[-0.0029017822816967964,-1.38519533029232e-16,-1.7247876409527615e-19,0.999995768070221],"scale":[1.0000001192092896,1.0000001192092896,0.9999999403953552],"translation":[1.862645149230957e-09,-0.005114440806210041,-0.027475448325276375]},{"extensions":{"S8S_v3d_node":{"groupNames":["farmer_group"],"hidden":false,"hidpiCompositing":false}},"name":"foot_heel_IK.L_end","rotation":[2.9802322387695312e-08,6.310887241768095e-30,1.0587911840678754e-22,1.0],"scale":[1.0,0.9999999403953552,0.9999999403953552],"translation":[0.0,4.656612873077393e-10,-0.017622273415327072]},{"children":[47,49,51],"extensions":{"S8S_v3d_node":{"groupNames":["farmer_group"],"hidden":false,"hidpiCompositing":false}},"name":"foot_controll_1.R","rotation":[0.18563209474086761,-2.73493619075318e-15,-2.2691390087726474e-15,0.9826193451881409],"scale":[1.0000001192092896,1.000000238418579,0.9999997615814209],"translation":[-0.023045247420668602,0.000266429444309324,0.024906501173973083]},{"children":[48],"extensions":{"S8S_v3d_node":{"groupNames":["farmer_group"],"hidden":false,"hidpiCompositing":false}},"name":"toe_IK.R","rotation":[0.5635551810264587,-1.1221455427533529e-16,7.469487915212633e-17,0.8260784149169922],"scale":[1.0000001192092896,1.0,1.0],"translation":[-1.862645149230957e-09,0.003957269713282585,-0.0015505142509937286]},{"extensions":{"S8S_v3d_node":{"groupNames":["farmer_group"],"hidden":false,"hidpiCompositing":false}},"name":"toe_IK.R_end","rotation":[7.105428204633949e-15,1.1807615290692162e-36,-1.5549622266933112e-22,1.0],"scale":[1.0,0.9999999403953552,0.9999998807907104],"translation":[0.0,-1.862645149230957e-09,-0.004920903593301773]},{"children":[50],"extensions":{"S8S_v3d_node":{"groupNames":["farmer_group"],"hidden":false,"hidpiCompositing":false}},"name":"foot_IK.R","rotation":[0.5635551810264587,-1.1458472451532023e-16,7.816938844942877e-17,0.8260784149169922],"scale":[1.0000001192092896,1.0,1.0000001192092896],"translation":[-1.862645149230957e-09,0.0,-0.013036329299211502]},{"extensions":{"S8S_v3d_node":{"groupNames":["farmer_group"],"hidden":false,"hidpiCompositing":false}},"name":"foot_IK.R_end","rotation":[-0.0,-0.0,-1.5549622266933112e-22,1.0],"translation":[0.0,0.0,-0.0050966483540833]},{"children":[52],"extensions":{"S8S_v3d_node":{"groupNames":["farmer_group"],"hidden":false,"hidpiCompositing":false}},"name":"foot_heel_IK.R","rotation":[-0.0029017822816967964,-1.3882144733536896e-16,-1.4865494398761975e-18,0.999995768070221],"scale":[1.0000001192092896,1.0000001192092896,0.9999999403953552],"translation":[-1.862645149230957e-09,-0.00511438213288784,-0.027475506067276]},{"extensions":{"S8S_v3d_node":{"groupNames":["farmer_group"],"hidden":false,"hidpiCompositing":false}},"name":"foot_heel_IK.R_end","rotation":[2.9802322387695312e-08,5.293955920339377e-23,1.5777219985211197e-30,1.0],"scale":[1.0,0.9999999403953552,0.9999999403953552],"translation":[0.0,-4.656612873077393e-10,-0.017622271552681923]},{"extensions":{"S8S_v3d_node":{"frustumCulling":true,"groupNames":["farmer_group"],"hidden":false,"hidpiCompositing":false,"renderOrder":0,"useCastShadows":true,"useShadows":true}},"extras":{"customProps":{"MapChannel:1":"UVMap"}},"mesh":6,"name":"farmer_mesh","rotation":[-0.0,4.371138828673793e-08,0.0,1.0],"skin":0,"translation":[0.0,-0.002239339053630829,-0.0]},{"extensions":{"S8S_v3d_node":{"frustumCulling":true,"groupNames":["farmer_group"],"hidden":false,"hidpiCompositing":false,"renderOrder":0,"useCastShadows":false,"useShadows":false}},"mesh":7,"name":"drag_move"},{"extensions":{"S8S_v3d_node":{"frustumCulling":true,"groupNames":["farmer_group"],"hidden":false,"hidpiCompositing":false,"renderOrder":0,"useCastShadows":false,"useShadows":false}},"mesh":8,"name":"drag_rotate","translation":[0.0,-0.0016131699085235596,-0.0]},{"extensions":{"S8S_v3d_node":{"frustumCulling":true,"groupNames":["farmer_group"],"hidden":false,"hidpiCompositing":false,"renderOrder":0,"useCastShadows":false,"useShadows":false}},"mesh":9,"name":"drag_scale"},{"extensions":{"S8S_v3d_curves":{"curve":0},"S8S_v3d_node":{"frustumCulling":true,"groupNames":["farmer_group"],"hidden":false,"hidpiCompositing":false,"renderOrder":0,"useCastShadows":false,"useShadows":false}},"name":"scale_percentage","rotation":[3.774895418473534e-08,-0.0,-0.0,1.0],"scale":[1.0,0.9999999403953552,0.9999999403953552],"translation":[-0.00043254176853224635,0.25014811754226685,-0.0004593005869537592]},{"extensions":{"S8S_v3d_lights":{"light":1}},"rotation":[-0.7071068286895752,-0.0,-0.0,0.7071067690849304],"scale":[1.0,1.0,1.0],"translation":[0.0,0.0,0.0]}],"samplers":[{}],"scene":0,"scenes":[{"extensions":{"S8S_v3d_scene":{"aaMethod":"AUTO","iblEnvironmentMode":"PROBE","physicallyCorrectLights":true,"pmremMaxTileSize":256,"shadowMap":{"esmDistanceScale":0.30000001192092896,"renderReverseSided":false,"renderSingleSided":true,"type":"PCFPOISSON"},"unitsScaleFactor":1.0,"worldMaterial":11}},"extras":{"animFrameRate":24,"coordSystem":"Z_UP_RIGHT"},"name":"Scene","nodes":[0,4,5,8,9,10,11,58]}],"skins":[{"inverseBindMatrices":42,"joints":[13,14,15,16,17,18,20,21,22,23,25,26,27,29,30,31,32,34,35,36,37,39,40,42,44,46,47,49,51]}],"textures":[{"extensions":{"S8S_v3d_texture":{"anisotropy":1,"colorSpace":"srgb"}},"name":"Map #2","sampler":0,"source":0},{"extensions":{"S8S_v3d_texture":{"anisotropy":1,"colorSpace":"srgb"}},"name":"Map #3","sampler":0,"source":0},{"extensions":{"S8S_v3d_texture":{"anisotropy":1,"colorSpace":"srgb"}},"name":"Map #4","sampler":0,"source":1},{"extensions":{"S8S_v3d_texture":{"anisotropy":1,"colorSpace":"srgb"}},"name":"Map #5","sampler":0,"source":2},{"extensions":{"S8S_v3d_texture":{"anisotropy":1,"colorSpace":"srgb"}},"name":"Map #1","sampler":0,"source":3}]}
