{"accessors":[{"bufferView":0,"componentType":5121,"count":30,"max":[19],"min":[0],"type":"SCALAR"},{"bufferView":1,"componentType":5126,"count":20,"max":[2.0,4.0,2.0],"min":[-2.0,0.0,-2.0],"type":"VEC3"},{"bufferView":2,"componentType":5126,"count":20,"max":[1.0,0.0,1.0],"min":[-1.0,-1.0,-1.0],"type":"VEC3"},{"bufferView":3,"componentType":5126,"count":20,"max":[0.875,1.0],"min":[0.375,0.0],"type":"VEC2"},{"bufferView":4,"componentType":5121,"count":6,"max":[3],"min":[0],"type":"SCALAR"},{"bufferView":5,"componentType":5126,"count":4,"max":[2.0,0.0,2.0],"min":[-2.0,0.0,-2.0],"type":"VEC3"},{"bufferView":6,"componentType":5126,"count":4,"max":[0.0,1.0,0.0],"min":[0.0,1.0,0.0],"type":"VEC3"},{"bufferView":7,"componentType":5126,"count":4,"max":[0.375,0.5],"min":[0.125,0.25],"type":"VEC2"},{"bufferView":8,"componentType":5121,"count":228,"max":[151],"min":[0],"type":"SCALAR"},{"bufferView":9,"componentType":5126,"count":152,"max":[0.44999998807907104,0.7699999809265137,0.8999999761581421],"min":[-0.44999998807907104,-7.114110464173922e-23,-0.8999999761581421],"type":"VEC3"},{"bufferView":10,"componentType":5126,"count":152,"max":[1.0,1.0,1.0],"min":[-1.0,-1.0,-1.0],"type":"VEC3"},{"bufferView":11,"componentType":5126,"count":152,"max":[0.9984913468360901,0.9985008835792542],"min":[0.0014963491121307015,0.0017668604850769043],"type":"VEC2"},{"bufferView":12,"componentType":5126,"count":152,"max":[0.986794650554657,0.9985094666481018],"min":[0.0014880895614624023,0.035993337631225586],"type":"VEC2"},{"bufferView":13,"componentType":5123,"count":9726,"max":[2047],"min":[0],"type":"SCALAR"},{"bufferView":14,"componentType":5126,"count":2048,"max":[0.1448579579591751,0.17567330598831177,0.14485789835453033],"min":[-0.16800425946712494,-0.01742771826684475,-0.14604397118091583],"type":"VEC3"},{"bufferView":15,"componentType":5126,"count":2048,"max":[1.0,1.0,1.0],"min":[-1.0,-1.0,-1.0],"type":"VEC3"},{"bufferView":16,"componentType":5126,"count":2048,"max":[0.9806743264198303,0.9982947111129761],"min":[0.001708388444967568,0.018092870712280273],"type":"VEC2"},{"bufferView":17,"componentType":5126,"count":2048,"max":[0.9966269135475159,1.0],"min":[0.0,0.0025085806846618652],"type":"VEC2"},{"bufferView":18,"componentType":5123,"count":4728,"max":[1045],"min":[0],"type":"SCALAR"},{"bufferView":19,"componentType":5126,"count":1046,"max":[0.32305222749710083,0.9234952330589294,0.2945323884487152],"min":[-0.3205452859401703,-2.942373976111412e-05,-0.2945323884487152],"type":"VEC3"},{"bufferView":20,"componentType":5126,"count":1046,"max":[0.9973068833351135,0.9972643852233887,1.0],"min":[-0.9973140954971313,-1.0,-1.0],"type":"VEC3"},{"bufferView":21,"componentType":5126,"count":1046,"max":[0.9544684290885925,1.0],"min":[0.0,0.00016862154006958008],"type":"VEC2"},{"bufferView":22,"componentType":5126,"count":1046,"max":[0.9976375699043274,0.9010822176933289],"min":[0.09521925449371338,0.0536152720451355],"type":"VEC2"},{"bufferView":23,"componentType":5126,"count":1046,"max":[1.0,1.0],"min":[0.2705882489681244,0.0],"type":"VEC2"},{"bufferView":24,"componentType":5126,"count":1046,"max":[1.0,1.0],"min":[1.0,1.0],"type":"VEC2"},{"bufferView":25,"componentType":5123,"count":4728,"max":[1045],"min":[0],"type":"SCALAR"},{"bufferView":26,"componentType":5126,"count":1046,"max":[0.32305222749710083,0.9234952330589294,0.2945323884487152],"min":[-0.3205452859401703,-2.942373976111412e-05,-0.2945323884487152],"type":"VEC3"},{"bufferView":27,"componentType":5126,"count":1046,"max":[0.9973068833351135,0.9972643852233887,1.0],"min":[-0.9973140954971313,-1.0,-1.0],"type":"VEC3"},{"bufferView":28,"componentType":5126,"count":1046,"max":[0.9544684290885925,1.0],"min":[0.0,0.00016862154006958008],"type":"VEC2"},{"bufferView":29,"componentType":5126,"count":1046,"max":[0.9976375699043274,0.9010822176933289],"min":[0.09521925449371338,0.0536152720451355],"type":"VEC2"},{"bufferView":30,"componentType":5126,"count":1046,"max":[1.0,1.0],"min":[0.2705882489681244,0.0],"type":"VEC2"},{"bufferView":31,"componentType":5126,"count":1046,"max":[1.0,1.0],"min":[1.0,1.0],"type":"VEC2"},{"bufferView":32,"componentType":5123,"count":4728,"max":[1045],"min":[0],"type":"SCALAR"},{"bufferView":33,"componentType":5126,"count":1046,"max":[0.32305219769477844,0.9234952330589294,0.2945323586463928],"min":[-0.3205452561378479,-2.942373976111412e-05,-0.2945323586463928],"type":"VEC3"},{"bufferView":34,"componentType":5126,"count":1046,"max":[0.9973068833351135,0.9972643852233887,1.0],"min":[-0.9973140954971313,-1.0,-1.0],"type":"VEC3"},{"bufferView":35,"componentType":5126,"count":1046,"max":[0.9544684290885925,1.0],"min":[0.0,0.00016862154006958008],"type":"VEC2"},{"bufferView":36,"componentType":5126,"count":1046,"max":[0.9976375699043274,0.9010822176933289],"min":[0.09521925449371338,0.0536152720451355],"type":"VEC2"},{"bufferView":37,"componentType":5126,"count":1046,"max":[1.0,1.0],"min":[0.2705882489681244,0.0],"type":"VEC2"},{"bufferView":38,"componentType":5126,"count":1046,"max":[1.0,1.0],"min":[1.0,1.0],"type":"VEC2"},{"bufferView":39,"componentType":5123,"count":4728,"max":[1045],"min":[0],"type":"SCALAR"},{"bufferView":40,"componentType":5126,"count":1046,"max":[0.32305219769477844,0.9234952330589294,0.2945323586463928],"min":[-0.3205452561378479,-2.942373976111412e-05,-0.2945323586463928],"type":"VEC3"},{"bufferView":41,"componentType":5126,"count":1046,"max":[0.9973068833351135,0.9972643852233887,1.0],"min":[-0.9973140954971313,-1.0,-1.0],"type":"VEC3"},{"bufferView":42,"componentType":5126,"count":1046,"max":[0.9544684290885925,1.0],"min":[0.0,0.00016862154006958008],"type":"VEC2"},{"bufferView":43,"componentType":5126,"count":1046,"max":[0.9976375699043274,0.9010822176933289],"min":[0.09521925449371338,0.0536152720451355],"type":"VEC2"},{"bufferView":44,"componentType":5126,"count":1046,"max":[1.0,1.0],"min":[0.2705882489681244,0.0],"type":"VEC2"},{"bufferView":45,"componentType":5126,"count":1046,"max":[1.0,1.0],"min":[1.0,1.0],"type":"VEC2"},{"bufferView":46,"componentType":5123,"count":34254,"max":[6715],"min":[0],"type":"SCALAR"},{"bufferView":47,"componentType":5126,"count":6716,"max":[0.415932297706604,0.8989973664283752,0.40865132212638855],"min":[-0.415932297706604,2.4706125259399414e-05,-0.322958767414093],"type":"VEC3"},{"bufferView":48,"componentType":5126,"count":6716,"max":[1.0,0.9998281598091125,1.0],"min":[-1.0,-1.0,-1.0],"type":"VEC3"},{"bufferView":49,"componentType":5126,"count":6716,"max":[0.978423535823822,1.0],"min":[8.704776701051742e-05,0.001996755599975586],"type":"VEC2"},{"bufferView":50,"componentType":5123,"count":1338,"max":[363],"min":[0],"type":"SCALAR"},{"bufferView":51,"componentType":5126,"count":364,"max":[0.044552549719810486,0.04348751902580261,0.04455246031284332],"min":[-0.04455234110355377,7.450580596923828e-09,-0.044552430510520935],"type":"VEC3"},{"bufferView":52,"componentType":5126,"count":364,"max":[1.0,1.0,1.0],"min":[-1.0,-1.0,-1.0],"type":"VEC3"},{"bufferView":53,"componentType":5126,"count":364,"max":[0.9969707131385803,0.9969687461853027],"min":[0.00302522792480886,0.13927459716796875],"type":"VEC2"},{"bufferView":54,"componentType":5126,"count":364,"max":[0.9173773527145386,0.9132035374641418],"min":[0.0032999617978930473,0.05964773893356323],"type":"VEC2"},{"bufferView":55,"componentType":5123,"count":1338,"max":[363],"min":[0],"type":"SCALAR"},{"bufferView":56,"componentType":5126,"count":364,"max":[0.044552549719810486,0.04348751902580261,0.04455246031284332],"min":[-0.04455234110355377,7.450580596923828e-09,-0.044552430510520935],"type":"VEC3"},{"bufferView":57,"componentType":5126,"count":364,"max":[1.0,1.0,1.0],"min":[-1.0,-1.0,-1.0],"type":"VEC3"},{"bufferView":58,"componentType":5126,"count":364,"max":[0.9969707131385803,0.9969687461853027],"min":[0.00302522792480886,0.13927459716796875],"type":"VEC2"},{"bufferView":59,"componentType":5126,"count":364,"max":[0.9173773527145386,0.9132035374641418],"min":[0.0032999617978930473,0.05964773893356323],"type":"VEC2"},{"bufferView":60,"componentType":5123,"count":1338,"max":[363],"min":[0],"type":"SCALAR"},{"bufferView":61,"componentType":5126,"count":364,"max":[0.044552549719810486,0.04348751902580261,0.04455246031284332],"min":[-0.04455234110355377,7.450580596923828e-09,-0.044552430510520935],"type":"VEC3"},{"bufferView":62,"componentType":5126,"count":364,"max":[1.0,1.0,1.0],"min":[-1.0,-1.0,-1.0],"type":"VEC3"},{"bufferView":63,"componentType":5126,"count":364,"max":[0.9969707131385803,0.9969687461853027],"min":[0.00302522792480886,0.13927459716796875],"type":"VEC2"},{"bufferView":64,"componentType":5126,"count":364,"max":[0.9173773527145386,0.9132035374641418],"min":[0.0032999617978930473,0.05964773893356323],"type":"VEC2"},{"bufferView":65,"componentType":5123,"count":13908,"max":[4495],"min":[0],"type":"SCALAR"},{"bufferView":66,"componentType":5126,"count":4496,"max":[0.11129678785800934,1.7157031297683716,0.3869425058364868],"min":[-0.10961581021547318,-0.21006059646606445,-0.3625321388244629],"type":"VEC3"},{"bufferView":67,"componentType":5126,"count":4496,"max":[1.0,1.0,1.0],"min":[-1.0,-1.0,-1.0],"type":"VEC3"},{"bufferView":68,"componentType":5126,"count":4496,"max":[0.2034713476896286,1.0],"min":[0.0,6.842613220214844e-05],"type":"VEC2"},{"bufferView":69,"componentType":5126,"count":4496,"max":[0.9985089302062988,0.9984146356582642],"min":[0.001495111733675003,0.01697385311126709],"type":"VEC2"},{"bufferView":70,"componentType":5126,"count":4496,"max":[1.0,1.0],"min":[0.0,0.0],"type":"VEC2"},{"bufferView":71,"componentType":5126,"count":4496,"max":[1.0,1.0],"min":[0.0,0.0],"type":"VEC2"},{"bufferView":72,"componentType":5123,"count":11274,"max":[3291],"min":[0],"type":"SCALAR"},{"bufferView":73,"componentType":5126,"count":3292,"max":[0.19487538933753967,1.6151905059814453,0.14526920020580292],"min":[-0.19487528502941132,-4.681141135528047e-15,-1.5128326416015625],"type":"VEC3"},{"bufferView":74,"componentType":5126,"count":3292,"max":[1.0,1.0,1.0],"min":[-1.0,-1.0,-1.0],"type":"VEC3"},{"bufferView":75,"componentType":5126,"count":3292,"max":[0.997477650642395,0.9982955455780029],"min":[0.001703384448774159,0.002305269241333008],"type":"VEC2"},{"bufferView":76,"componentType":5126,"count":3292,"max":[1.0,1.0],"min":[0.0,0.0],"type":"VEC2"},{"bufferView":77,"componentType":5126,"count":3292,"max":[1.0,1.0],"min":[0.0,0.0],"type":"VEC2"},{"bufferView":78,"componentType":5123,"count":14535,"max":[3453],"min":[0],"type":"SCALAR"},{"bufferView":79,"componentType":5126,"count":3454,"max":[0.33103203773498535,0.4716276228427887,0.2690049409866333],"min":[-0.32920342683792114,-1.4901161193847656e-08,-0.27497199177742004],"type":"VEC3"},{"bufferView":80,"componentType":5126,"count":3454,"max":[1.0,1.0,1.0],"min":[-1.0,-1.0,-1.0],"type":"VEC3"},{"bufferView":81,"componentType":5126,"count":3454,"max":[0.9960348010063171,0.9980354309082031],"min":[0.0018294634064659476,0.0016313791275024414],"type":"VEC2"},{"bufferView":82,"componentType":5123,"count":4638,"max":[1024],"min":[0],"type":"SCALAR"},{"bufferView":83,"componentType":5126,"count":1025,"max":[0.10121095180511475,0.17449705302715302,0.07462999224662781],"min":[-0.11285565793514252,-1.7586129814629306e-16,-0.07462999224662781],"type":"VEC3"},{"bufferView":84,"componentType":5126,"count":1025,"max":[0.9999837875366211,0.9968598484992981,1.0],"min":[-0.9999995231628418,-1.0,-1.0],"type":"VEC3"},{"bufferView":85,"componentType":5126,"count":1025,"max":[0.9919788837432861,0.9969646334648132],"min":[0.001432392280548811,0.024266362190246582],"type":"VEC2"},{"bufferView":86,"componentType":5126,"count":1025,"max":[0.8541772365570068,0.9857197999954224],"min":[0.21088112890720367,0.06500035524368286],"type":"VEC2"},{"bufferView":87,"componentType":5123,"count":17280,"max":[4292],"min":[0],"type":"SCALAR"},{"bufferView":88,"componentType":5126,"count":4293,"max":[0.17155571281909943,1.0315438508987427,0.8388330340385437],"min":[-0.1806780844926834,0.0,-0.8388612270355225],"type":"VEC3"},{"bufferView":89,"componentType":5126,"count":4293,"max":[1.0,1.0,1.0],"min":[-1.0,-1.0,-1.0],"type":"VEC3"},{"bufferView":90,"componentType":5126,"count":4293,"max":[0.9964570999145508,0.9965015053749084],"min":[0.0035086979623883963,0.007995426654815674],"type":"VEC2"},{"bufferView":91,"componentType":5126,"count":189,"max":[36.66666793823242],"min":[0.0],"type":"SCALAR"},{"bufferView":92,"componentType":5126,"count":189,"max":[0.8939999938011169,0.0,0.7706289887428284],"min":[-0.6620000004768372,0.0,-0.7009999752044678],"type":"VEC3"},{"bufferView":93,"componentType":5126,"count":170,"max":[36.66666793823242],"min":[0.0],"type":"SCALAR"},{"bufferView":94,"componentType":5126,"count":170,"max":[-1.5454308055495858e-08,-6.691376056993016e-25,3.0616168005906746e-17,1.0],"min":[-2.1855694143368964e-08,-0.7071067690849304,-1.5454309831852697e-08,0.7071067690849304],"type":"VEC4"},{"bufferView":95,"componentType":5126,"count":463,"max":[36.66666793823242],"min":[0.0],"type":"SCALAR"},{"bufferView":96,"componentType":5126,"count":463,"max":[0.9309999942779541,1.1679819822311401,0.7595100998878479],"min":[-0.6570000052452087,0.7870000004768372,-0.6959999799728394],"type":"VEC3"},{"bufferView":97,"componentType":5126,"count":416,"max":[36.66666793823242],"min":[0.0],"type":"SCALAR"},{"bufferView":98,"componentType":5126,"count":416,"max":[1.6510000228881836,0.0,1.6069999933242798],"min":[-1.5980000495910645,0.0,-1.590000033378601],"type":"VEC3"},{"bufferView":99,"componentType":5126,"count":325,"max":[36.66666793823242],"min":[0.0],"type":"SCALAR"},{"bufferView":100,"componentType":5126,"count":325,"max":[9.735353501127975e-08,1.0,6.882100933580659e-08,0.9999994039535522],"min":[-8.429325570880053e-10,-0.7069180011749268,-9.735359185469861e-08,-0.008658464066684246],"type":"VEC4"},{"bufferView":101,"componentType":5126,"count":277,"max":[36.66666793823242],"min":[0.0],"type":"SCALAR"},{"bufferView":102,"componentType":5126,"count":277,"max":[1.5709999799728394,0.0,1.6169999837875366],"min":[-1.592000126838684,0.0,-1.5740000009536743],"type":"VEC3"},{"bufferView":103,"componentType":5126,"count":220,"max":[36.66666793823242],"min":[0.0],"type":"SCALAR"},{"bufferView":104,"componentType":5126,"count":220,"max":[9.310321615885186e-07,0.9999619126319885,7.843310072530585e-07,0.9991560578346252],"min":[-4.486603017994639e-07,-0.8417207598686218,-9.317831199950888e-07,-0.4814888834953308],"type":"VEC4"},{"bufferView":105,"componentType":5126,"count":298,"max":[36.66666793823242],"min":[0.0],"type":"SCALAR"},{"bufferView":106,"componentType":5126,"count":298,"max":[0.7109999656677246,0.0,1.1419999599456787],"min":[-0.9979999661445618,0.0,-1.4730000495910645],"type":"VEC3"},{"bufferView":107,"componentType":5126,"count":306,"max":[36.66666793823242],"min":[0.0],"type":"SCALAR"},{"bufferView":108,"componentType":5126,"count":306,"max":[1.8676944080198155e-07,1.0,1.320659492876075e-07,1.0],"min":[-2.2761481588418064e-08,-0.7071068286895752,-1.8676944080198155e-07,-0.12186941504478455],"type":"VEC4"},{"bufferView":109,"componentType":5126,"count":281,"max":[36.66666793823242],"min":[0.0],"type":"SCALAR"},{"bufferView":110,"componentType":5126,"count":281,"max":[1.0899665355682373,0.0,0.7640000581741333],"min":[-1.1419999599456787,0.0,-1.4299999475479126],"type":"VEC3"},{"bufferView":111,"componentType":5126,"count":279,"max":[36.66666793823242],"min":[0.0],"type":"SCALAR"},{"bufferView":112,"componentType":5126,"count":279,"max":[5.145818704477279e-07,1.0,4.3444089214972337e-07,0.999991774559021],"min":[-2.5221311261702795e-07,-0.8442530632019043,-5.145861337041424e-07,-0.49012812972068787],"type":"VEC4"},{"bufferView":113,"componentType":5126,"count":161,"max":[36.66666793823242],"min":[0.0],"type":"SCALAR"},{"bufferView":114,"componentType":5126,"count":161,"max":[1.6119998693466187,0.0,1.6209999322891235],"min":[-1.5199999809265137,0.0,-1.594041347503662],"type":"VEC3"},{"bufferView":115,"componentType":5126,"count":191,"max":[36.66666793823242],"min":[0.0],"type":"SCALAR"},{"bufferView":116,"componentType":5126,"count":191,"max":[9.123463229343542e-08,0.9999843835830688,7.248721800579006e-08,0.9998858571052551],"min":[-5.355711252263973e-08,-0.8635715842247009,-9.123861843818304e-08,-0.4822148084640503],"type":"VEC4"},{"bufferView":117,"componentType":5126,"count":444,"max":[36.66666793823242],"min":[0.0],"type":"SCALAR"},{"bufferView":118,"componentType":5126,"count":444,"max":[1.2359998226165771,1.1817848682403564,0.48727500438690186],"min":[-0.9909999966621399,0.7699999809265137,-1.0299999713897705],"type":"VEC3"},{"bufferView":119,"componentType":5126,"count":432,"max":[36.66666793823242],"min":[0.0],"type":"SCALAR"},{"bufferView":120,"componentType":5126,"count":432,"max":[0.7709999680519104,1.2407113313674927,0.5035439729690552],"min":[-0.9900000095367432,0.7699999809265137,-1.027999997138977],"type":"VEC3"},{"bufferView":121,"componentType":5126,"count":472,"max":[36.66666793823242],"min":[0.0],"type":"SCALAR"},{"bufferView":122,"componentType":5126,"count":472,"max":[0.9309999942779541,1.195604681968689,1.2450000047683716],"min":[-0.43299996852874756,0.7699999809265137,-0.45399999618530273],"type":"VEC3"},{"bufferView":123,"componentType":5126,"count":261,"max":[36.66666793823242],"min":[0.0],"type":"SCALAR"},{"bufferView":124,"componentType":5126,"count":261,"max":[0.921999990940094,2.283581495285034,0.7530779838562012],"min":[-0.6420000195503235,2.283581495285034,-0.6809999942779541],"type":"VEC3"},{"bufferView":125,"componentType":5126,"count":345,"max":[36.66666793823242],"min":[0.0],"type":"SCALAR"},{"bufferView":126,"componentType":5126,"count":345,"max":[1.0827954532999229e-08,1.0,2.1855694143368964e-08,0.7071067690849304],"min":[-1.5454309831852697e-08,-0.8639929890632629,-1.8883165253669176e-08,-0.4954293966293335],"type":"VEC4"},{"bufferView":127,"componentType":5126,"count":274,"max":[36.66666793823242],"min":[0.0],"type":"SCALAR"},{"bufferView":128,"componentType":5126,"count":274,"max":[1.6929999589920044,0.0,1.6899999380111694],"min":[-1.75,0.0,-1.7531859874725342],"type":"VEC3"},{"bufferView":129,"componentType":5126,"count":276,"max":[36.66666793823242],"min":[0.0],"type":"SCALAR"},{"bufferView":130,"componentType":5126,"count":276,"max":[1.5695347599375964e-07,0.9681476354598999,1.3555066402659577e-07,0.9999696612358093],"min":[-7.842448468409202e-08,-0.863609790802002,-1.5195874425444345e-07,-0.4996519386768341],"type":"VEC4"},{"bufferView":131,"componentType":5126,"count":284,"max":[36.66666793823242],"min":[0.0],"type":"SCALAR"},{"bufferView":132,"componentType":5126,"count":284,"max":[1.2918239831924438,0.0,1.6169999837875366],"min":[-1.5440000295639038,0.0,-1.49399995803833],"type":"VEC3"},{"bufferView":133,"componentType":5126,"count":210,"max":[36.66666793823242],"min":[0.0],"type":"SCALAR"},{"bufferView":134,"componentType":5126,"count":210,"max":[1.4572545836699646e-08,0.9999191761016846,2.1259289439967688e-08,0.9996517896652222],"min":[-2.125164222377407e-08,-0.7897694110870361,-1.3314309654788303e-08,-0.49824607372283936],"type":"VEC4"},{"bufferView":135,"componentType":5126,"count":441,"max":[36.66666793823242],"min":[0.0],"type":"SCALAR"},{"bufferView":136,"componentType":5126,"count":441,"max":[0.8230000138282776,1.1163157224655151,1.1019999980926514],"min":[-0.684999942779541,0.7699999809265137,-0.7230000495910645],"type":"VEC3"},{"bufferView":137,"componentType":5126,"count":286,"max":[36.66666793823242],"min":[0.0],"type":"SCALAR"},{"bufferView":138,"componentType":5126,"count":286,"max":[1.812000036239624,0.0,1.8140000104904175],"min":[-1.8170349597930908,0.0,-1.2929999828338623],"type":"VEC3"},{"bufferView":139,"componentType":5126,"count":262,"max":[36.66666793823242],"min":[0.0],"type":"SCALAR"},{"bufferView":140,"componentType":5126,"count":262,"max":[3.560744398173419e-15,1.0,8.146034247147327e-08,1.0],"min":[-8.146033536604591e-08,0.0,-0.0,-4.371138828673793e-08],"type":"VEC4"}],"animations":[{"channels":[{"sampler":0,"target":{"node":1,"path":"translation"}},{"sampler":1,"target":{"node":1,"path":"rotation"}}],"extensions":{"S8S_v3d_animation":{"auto":true,"loop":"REPEAT","offset":0.0,"repeatCount":1.0,"repeatInfinite":true}},"name":"big_table","samplers":[{"input":91,"interpolation":"LINEAR","output":92},{"input":93,"interpolation":"LINEAR","output":94}]},{"channels":[{"sampler":0,"target":{"node":2,"path":"translation"}}],"extensions":{"S8S_v3d_animation":{"auto":true,"loop":"REPEAT","offset":0.0,"repeatCount":1.0,"repeatInfinite":true}},"name":"bowl","samplers":[{"input":95,"interpolation":"LINEAR","output":96}]},{"channels":[{"sampler":0,"target":{"node":3,"path":"translation"}},{"sampler":1,"target":{"node":3,"path":"rotation"}}],"extensions":{"S8S_v3d_animation":{"auto":true,"loop":"REPEAT","offset":0.0,"repeatCount":1.0,"repeatInfinite":true}},"name":"chair","samplers":[{"input":97,"interpolation":"LINEAR","output":98},{"input":99,"interpolation":"LINEAR","output":100}]},{"channels":[{"sampler":0,"target":{"node":4,"path":"translation"}},{"sampler":1,"target":{"node":4,"path":"rotation"}}],"extensions":{"S8S_v3d_animation":{"auto":true,"loop":"REPEAT","offset":0.0,"repeatCount":1.0,"repeatInfinite":true}},"name":"chair.001","samplers":[{"input":101,"interpolation":"LINEAR","output":102},{"input":103,"interpolation":"LINEAR","output":104}]},{"channels":[{"sampler":0,"target":{"node":5,"path":"translation"}},{"sampler":1,"target":{"node":5,"path":"rotation"}}],"extensions":{"S8S_v3d_animation":{"auto":true,"loop":"REPEAT","offset":0.0,"repeatCount":1.0,"repeatInfinite":true}},"name":"chair.002","samplers":[{"input":105,"interpolation":"LINEAR","output":106},{"input":107,"interpolation":"LINEAR","output":108}]},{"channels":[{"sampler":0,"target":{"node":6,"path":"translation"}},{"sampler":1,"target":{"node":6,"path":"rotation"}}],"extensions":{"S8S_v3d_animation":{"auto":true,"loop":"REPEAT","offset":0.0,"repeatCount":1.0,"repeatInfinite":true}},"name":"chair.003","samplers":[{"input":109,"interpolation":"LINEAR","output":110},{"input":111,"interpolation":"LINEAR","output":112}]},{"channels":[{"sampler":0,"target":{"node":7,"path":"translation"}},{"sampler":1,"target":{"node":7,"path":"rotation"}}],"extensions":{"S8S_v3d_animation":{"auto":true,"loop":"REPEAT","offset":0.0,"repeatCount":1.0,"repeatInfinite":true}},"name":"chair_1","samplers":[{"input":113,"interpolation":"LINEAR","output":114},{"input":115,"interpolation":"LINEAR","output":116}]},{"channels":[{"sampler":0,"target":{"node":8,"path":"translation"}}],"extensions":{"S8S_v3d_animation":{"auto":true,"loop":"REPEAT","offset":0.0,"repeatCount":1.0,"repeatInfinite":true}},"name":"cup","samplers":[{"input":117,"interpolation":"LINEAR","output":118}]},{"channels":[{"sampler":0,"target":{"node":9,"path":"translation"}}],"extensions":{"S8S_v3d_animation":{"auto":true,"loop":"REPEAT","offset":0.0,"repeatCount":1.0,"repeatInfinite":true}},"name":"cup.001","samplers":[{"input":119,"interpolation":"LINEAR","output":120}]},{"channels":[{"sampler":0,"target":{"node":10,"path":"translation"}}],"extensions":{"S8S_v3d_animation":{"auto":true,"loop":"REPEAT","offset":0.0,"repeatCount":1.0,"repeatInfinite":true}},"name":"cup.002","samplers":[{"input":121,"interpolation":"LINEAR","output":122}]},{"channels":[{"sampler":0,"target":{"node":11,"path":"translation"}},{"sampler":1,"target":{"node":11,"path":"rotation"}}],"extensions":{"S8S_v3d_animation":{"auto":true,"loop":"REPEAT","offset":0.0,"repeatCount":1.0,"repeatInfinite":true}},"name":"dinner_zone_light_wood","samplers":[{"input":123,"interpolation":"LINEAR","output":124},{"input":125,"interpolation":"LINEAR","output":126}]},{"channels":[{"sampler":0,"target":{"node":12,"path":"translation"}},{"sampler":1,"target":{"node":12,"path":"rotation"}}],"extensions":{"S8S_v3d_animation":{"auto":true,"loop":"REPEAT","offset":0.0,"repeatCount":1.0,"repeatInfinite":true}},"name":"lightstand","samplers":[{"input":127,"interpolation":"LINEAR","output":128},{"input":129,"interpolation":"LINEAR","output":130}]},{"channels":[{"sampler":0,"target":{"node":13,"path":"translation"}},{"sampler":1,"target":{"node":13,"path":"rotation"}}],"extensions":{"S8S_v3d_animation":{"auto":true,"loop":"REPEAT","offset":0.0,"repeatCount":1.0,"repeatInfinite":true}},"name":"puff_1","samplers":[{"input":131,"interpolation":"LINEAR","output":132},{"input":133,"interpolation":"LINEAR","output":134}]},{"channels":[{"sampler":0,"target":{"node":14,"path":"translation"}}],"extensions":{"S8S_v3d_animation":{"auto":true,"loop":"REPEAT","offset":0.0,"repeatCount":1.0,"repeatInfinite":true}},"name":"teapot","samplers":[{"input":135,"interpolation":"LINEAR","output":136}]},{"channels":[{"sampler":0,"target":{"node":15,"path":"translation"}},{"sampler":1,"target":{"node":15,"path":"rotation"}}],"extensions":{"S8S_v3d_animation":{"auto":true,"loop":"REPEAT","offset":0.0,"repeatCount":1.0,"repeatInfinite":true}},"name":"tv_stand_3","samplers":[{"input":137,"interpolation":"LINEAR","output":138},{"input":139,"interpolation":"LINEAR","output":140}]}],"asset":{"generator":"Verge3D for 3ds Max v4.9.0","version":"2.0"},"bufferViews":[{"buffer":0,"byteLength":30,"byteOffset":0,"target":34963},{"buffer":0,"byteLength":240,"byteOffset":32,"target":34962},{"buffer":0,"byteLength":240,"byteOffset":272,"target":34962},{"buffer":0,"byteLength":160,"byteOffset":512,"target":34962},{"buffer":0,"byteLength":6,"byteOffset":672,"target":34963},{"buffer":0,"byteLength":48,"byteOffset":680,"target":34962},{"buffer":0,"byteLength":48,"byteOffset":728,"target":34962},{"buffer":0,"byteLength":32,"byteOffset":776,"target":34962},{"buffer":0,"byteLength":228,"byteOffset":808,"target":34963},{"buffer":0,"byteLength":1824,"byteOffset":1036,"target":34962},{"buffer":0,"byteLength":1824,"byteOffset":2860,"target":34962},{"buffer":0,"byteLength":1216,"byteOffset":4684,"target":34962},{"buffer":0,"byteLength":1216,"byteOffset":5900,"target":34962},{"buffer":0,"byteLength":19452,"byteOffset":7116,"target":34963},{"buffer":0,"byteLength":24576,"byteOffset":26568,"target":34962},{"buffer":0,"byteLength":24576,"byteOffset":51144,"target":34962},{"buffer":0,"byteLength":16384,"byteOffset":75720,"target":34962},{"buffer":0,"byteLength":16384,"byteOffset":92104,"target":34962},{"buffer":0,"byteLength":9456,"byteOffset":108488,"target":34963},{"buffer":0,"byteLength":12552,"byteOffset":117944,"target":34962},{"buffer":0,"byteLength":12552,"byteOffset":130496,"target":34962},{"buffer":0,"byteLength":8368,"byteOffset":143048,"target":34962},{"buffer":0,"byteLength":8368,"byteOffset":151416,"target":34962},{"buffer":0,"byteLength":8368,"byteOffset":159784,"target":34962},{"buffer":0,"byteLength":8368,"byteOffset":168152,"target":34962},{"buffer":0,"byteLength":9456,"byteOffset":176520,"target":34963},{"buffer":0,"byteLength":12552,"byteOffset":185976,"target":34962},{"buffer":0,"byteLength":12552,"byteOffset":198528,"target":34962},{"buffer":0,"byteLength":8368,"byteOffset":211080,"target":34962},{"buffer":0,"byteLength":8368,"byteOffset":219448,"target":34962},{"buffer":0,"byteLength":8368,"byteOffset":227816,"target":34962},{"buffer":0,"byteLength":8368,"byteOffset":236184,"target":34962},{"buffer":0,"byteLength":9456,"byteOffset":244552,"target":34963},{"buffer":0,"byteLength":12552,"byteOffset":254008,"target":34962},{"buffer":0,"byteLength":12552,"byteOffset":266560,"target":34962},{"buffer":0,"byteLength":8368,"byteOffset":279112,"target":34962},{"buffer":0,"byteLength":8368,"byteOffset":287480,"target":34962},{"buffer":0,"byteLength":8368,"byteOffset":295848,"target":34962},{"buffer":0,"byteLength":8368,"byteOffset":304216,"target":34962},{"buffer":0,"byteLength":9456,"byteOffset":312584,"target":34963},{"buffer":0,"byteLength":12552,"byteOffset":322040,"target":34962},{"buffer":0,"byteLength":12552,"byteOffset":334592,"target":34962},{"buffer":0,"byteLength":8368,"byteOffset":347144,"target":34962},{"buffer":0,"byteLength":8368,"byteOffset":355512,"target":34962},{"buffer":0,"byteLength":8368,"byteOffset":363880,"target":34962},{"buffer":0,"byteLength":8368,"byteOffset":372248,"target":34962},{"buffer":0,"byteLength":68508,"byteOffset":380616,"target":34963},{"buffer":0,"byteLength":80592,"byteOffset":449124,"target":34962},{"buffer":0,"byteLength":80592,"byteOffset":529716,"target":34962},{"buffer":0,"byteLength":53728,"byteOffset":610308,"target":34962},{"buffer":0,"byteLength":2676,"byteOffset":664036,"target":34963},{"buffer":0,"byteLength":4368,"byteOffset":666712,"target":34962},{"buffer":0,"byteLength":4368,"byteOffset":671080,"target":34962},{"buffer":0,"byteLength":2912,"byteOffset":675448,"target":34962},{"buffer":0,"byteLength":2912,"byteOffset":678360,"target":34962},{"buffer":0,"byteLength":2676,"byteOffset":681272,"target":34963},{"buffer":0,"byteLength":4368,"byteOffset":683948,"target":34962},{"buffer":0,"byteLength":4368,"byteOffset":688316,"target":34962},{"buffer":0,"byteLength":2912,"byteOffset":692684,"target":34962},{"buffer":0,"byteLength":2912,"byteOffset":695596,"target":34962},{"buffer":0,"byteLength":2676,"byteOffset":698508,"target":34963},{"buffer":0,"byteLength":4368,"byteOffset":701184,"target":34962},{"buffer":0,"byteLength":4368,"byteOffset":705552,"target":34962},{"buffer":0,"byteLength":2912,"byteOffset":709920,"target":34962},{"buffer":0,"byteLength":2912,"byteOffset":712832,"target":34962},{"buffer":0,"byteLength":27816,"byteOffset":715744,"target":34963},{"buffer":0,"byteLength":53952,"byteOffset":743560,"target":34962},{"buffer":0,"byteLength":53952,"byteOffset":797512,"target":34962},{"buffer":0,"byteLength":35968,"byteOffset":851464,"target":34962},{"buffer":0,"byteLength":35968,"byteOffset":887432,"target":34962},{"buffer":0,"byteLength":35968,"byteOffset":923400,"target":34962},{"buffer":0,"byteLength":35968,"byteOffset":959368,"target":34962},{"buffer":0,"byteLength":22548,"byteOffset":995336,"target":34963},{"buffer":0,"byteLength":39504,"byteOffset":1017884,"target":34962},{"buffer":0,"byteLength":39504,"byteOffset":1057388,"target":34962},{"buffer":0,"byteLength":26336,"byteOffset":1096892,"target":34962},{"buffer":0,"byteLength":26336,"byteOffset":1123228,"target":34962},{"buffer":0,"byteLength":26336,"byteOffset":1149564,"target":34962},{"buffer":0,"byteLength":29070,"byteOffset":1175900,"target":34963},{"buffer":0,"byteLength":41448,"byteOffset":1204972,"target":34962},{"buffer":0,"byteLength":41448,"byteOffset":1246420,"target":34962},{"buffer":0,"byteLength":27632,"byteOffset":1287868,"target":34962},{"buffer":0,"byteLength":9276,"byteOffset":1315500,"target":34963},{"buffer":0,"byteLength":12300,"byteOffset":1324776,"target":34962},{"buffer":0,"byteLength":12300,"byteOffset":1337076,"target":34962},{"buffer":0,"byteLength":8200,"byteOffset":1349376,"target":34962},{"buffer":0,"byteLength":8200,"byteOffset":1357576,"target":34962},{"buffer":0,"byteLength":34560,"byteOffset":1365776,"target":34963},{"buffer":0,"byteLength":51516,"byteOffset":1400336,"target":34962},{"buffer":0,"byteLength":51516,"byteOffset":1451852,"target":34962},{"buffer":0,"byteLength":34344,"byteOffset":1503368,"target":34962},{"buffer":0,"byteLength":756,"byteOffset":1537712},{"buffer":0,"byteLength":2268,"byteOffset":1538468},{"buffer":0,"byteLength":680,"byteOffset":1540736},{"buffer":0,"byteLength":2720,"byteOffset":1541416},{"buffer":0,"byteLength":1852,"byteOffset":1544136},{"buffer":0,"byteLength":5556,"byteOffset":1545988},{"buffer":0,"byteLength":1664,"byteOffset":1551544},{"buffer":0,"byteLength":4992,"byteOffset":1553208},{"buffer":0,"byteLength":1300,"byteOffset":1558200},{"buffer":0,"byteLength":5200,"byteOffset":1559500},{"buffer":0,"byteLength":1108,"byteOffset":1564700},{"buffer":0,"byteLength":3324,"byteOffset":1565808},{"buffer":0,"byteLength":880,"byteOffset":1569132},{"buffer":0,"byteLength":3520,"byteOffset":1570012},{"buffer":0,"byteLength":1192,"byteOffset":1573532},{"buffer":0,"byteLength":3576,"byteOffset":1574724},{"buffer":0,"byteLength":1224,"byteOffset":1578300},{"buffer":0,"byteLength":4896,"byteOffset":1579524},{"buffer":0,"byteLength":1124,"byteOffset":1584420},{"buffer":0,"byteLength":3372,"byteOffset":1585544},{"buffer":0,"byteLength":1116,"byteOffset":1588916},{"buffer":0,"byteLength":4464,"byteOffset":1590032},{"buffer":0,"byteLength":644,"byteOffset":1594496},{"buffer":0,"byteLength":1932,"byteOffset":1595140},{"buffer":0,"byteLength":764,"byteOffset":1597072},{"buffer":0,"byteLength":3056,"byteOffset":1597836},{"buffer":0,"byteLength":1776,"byteOffset":1600892},{"buffer":0,"byteLength":5328,"byteOffset":1602668},{"buffer":0,"byteLength":1728,"byteOffset":1607996},{"buffer":0,"byteLength":5184,"byteOffset":1609724},{"buffer":0,"byteLength":1888,"byteOffset":1614908},{"buffer":0,"byteLength":5664,"byteOffset":1616796},{"buffer":0,"byteLength":1044,"byteOffset":1622460},{"buffer":0,"byteLength":3132,"byteOffset":1623504},{"buffer":0,"byteLength":1380,"byteOffset":1626636},{"buffer":0,"byteLength":5520,"byteOffset":1628016},{"buffer":0,"byteLength":1096,"byteOffset":1633536},{"buffer":0,"byteLength":3288,"byteOffset":1634632},{"buffer":0,"byteLength":1104,"byteOffset":1637920},{"buffer":0,"byteLength":4416,"byteOffset":1639024},{"buffer":0,"byteLength":1136,"byteOffset":1643440},{"buffer":0,"byteLength":3408,"byteOffset":1644576},{"buffer":0,"byteLength":840,"byteOffset":1647984},{"buffer":0,"byteLength":3360,"byteOffset":1648824},{"buffer":0,"byteLength":1764,"byteOffset":1652184},{"buffer":0,"byteLength":5292,"byteOffset":1653948},{"buffer":0,"byteLength":1144,"byteOffset":1659240},{"buffer":0,"byteLength":3432,"byteOffset":1660384},{"buffer":0,"byteLength":1048,"byteOffset":1663816},{"buffer":0,"byteLength":4192,"byteOffset":1664864}],"buffers":[{"byteLength":1669056,"uri":"ambient_occlusion.bin"}],"cameras":[{"extensions":{"S8S_v3d_camera":{"controls":"ORBIT","enablePan":false,"moveSpeed":1.0,"orbitMaxDistance":4.699999809265137,"orbitMaxPolarAngle":1.4835298641951802,"orbitMaxZoom":100.0,"orbitMinDistance":4.699999809265137,"orbitMinPolarAngle":0.4363323129985824,"orbitMinZoom":0.009999999776482582,"orbitTarget":17,"rotateSpeed":1.0,"viewportFitInitialAspect":1.7777777777777777,"viewportFitType":"VERTICAL"}},"name":"Camera","perspective":{"aspectRatio":1.7777777777777777,"yfov":0.37731601986381136,"zfar":10.000000953674316,"znear":0.0010000000474974513},"type":"perspective"}],"extensions":{"S8S_v3d_clipping_planes":{},"S8S_v3d_curves":{},"S8S_v3d_light_probes":{},"S8S_v3d_lights":{"lights":[{"color":[0.0,0.0,0.0],"intensity":1,"profile":"max","type":"ambient"}]}},"extensionsUsed":["S8S_v3d_texture","S8S_v3d_materials","S8S_v3d_camera","S8S_v3d_lights","S8S_v3d_node","S8S_v3d_light_probes","S8S_v3d_clipping_planes","S8S_v3d_curves","S8S_v3d_animation","S8S_v3d_scene"],"images":[{"uri":"environment.hdr"}],"materials":[{"doubleSided":false,"extensions":{"S8S_v3d_materials":{"gtaoVisible":true,"nodeGraph":{"edges":[{"fromNode":1,"fromOutput":0,"toInput":0,"toNode":0},{"fromNode":1,"fromOutput":1,"toInput":1,"toNode":0}],"nodes":[{"inputs":[[1,1,1,1]],"is_active_output":true,"name":"MaxOutput","outputs":[],"type":"OUTPUT_MX"},{"brdfCurve":5.0,"brdfHigh":1.0,"brdfLow":0.05000000074505806,"brdfMode":true,"emitLuminance":1500.0,"inputFactors":[0,0,0,0,0,0,0,0,0,0,0,0,0,0,0,0,0,0,0,0,0,0,0,0,0],"inputs":[1.0,[0.8006552901922488,0.8006552901922488,0.8006552901922488,1.0],0.25,[0.8006552901922488,0.8006552901922488,0.8006552901922488,1.0],1.0,0.0,0.0,0.0,0.25,0.0,[0.0,0.0,0.0,1.0],0.0,1.5199999809265137,0.0,[1.0,1.0,1.0,1.0],1.0,1.0,[0.0,0.0,0.0,1.0],0.0,[1.0,1.0,1.0,1.0],0.0,[0,0,0],[0,0,0],0,1],"is_active_output":false,"name":"walls","outputs":[[0,0,0,0]],"roughnessInv":false,"thinWalled":false,"transRoughnessInv":false,"transRoughnessLock":true,"type":"PHYSICAL_MX"}]},"profile":"max"}},"name":"walls"},{"doubleSided":false,"extensions":{"S8S_v3d_materials":{"gtaoVisible":true,"nodeGraph":{"edges":[{"fromNode":1,"fromOutput":0,"toInput":0,"toNode":0},{"fromNode":1,"fromOutput":1,"toInput":1,"toNode":0}],"nodes":[{"inputs":[[1,1,1,1]],"is_active_output":true,"name":"MaxOutput","outputs":[],"type":"OUTPUT_MX"},{"brdfCurve":5.0,"brdfHigh":1.0,"brdfLow":0.05000000074505806,"brdfMode":true,"emitLuminance":1500.0,"inputFactors":[0,0,0,0,0,0,0,0,0,0,0,0,0,0,0,0,0,0,0,0,0,0,0,0,0],"inputs":[1.0,[0.4385434618183211,0.4385434618183211,0.4385434618183211,1.0],0.25,[0.4385434618183211,0.4385434618183211,0.4385434618183211,1.0],1.0,0.0,0.0,0.0,0.25,0.0,[0.0,0.0,0.0,1.0],0.0,1.5199999809265137,0.0,[1.0,1.0,1.0,1.0],1.0,1.0,[0.0,0.0,0.0,1.0],0.0,[1.0,1.0,1.0,1.0],0.0,[0,0,0],[0,0,0],0,1],"is_active_output":false,"name":"floor","outputs":[[0,0,0,0]],"roughnessInv":false,"thinWalled":false,"transRoughnessInv":false,"transRoughnessLock":true,"type":"PHYSICAL_MX"}]},"profile":"max"}},"name":"floor"},{"doubleSided":false,"extensions":{"S8S_v3d_materials":{"gtaoVisible":true,"nodeGraph":{"edges":[{"fromNode":1,"fromOutput":0,"toInput":0,"toNode":0},{"fromNode":1,"fromOutput":1,"toInput":1,"toNode":0}],"nodes":[{"inputs":[[1,1,1,1]],"is_active_output":true,"name":"MaxOutput","outputs":[],"type":"OUTPUT_MX"},{"brdfCurve":5.0,"brdfHigh":1.0,"brdfLow":0.05000000074505806,"brdfMode":true,"emitLuminance":1500.0,"inputFactors":[0,0,0,0,0,0,0,0,0,0,0,0,0,0,0,0,0,0,0,0,0,0,0,0,0],"inputs":[1.0,[1.0,1.0,1.0,1.0],0.25,[1.0,1.0,1.0,1.0],0.5356143712997437,0.0,0.0,0.0,0.25,0.0,[0.0,0.0,0.0,1.0],0.0,1.5199999809265137,0.0,[1.0,1.0,1.0,1.0],1.0,1.0,[0.0,0.0,0.0,1.0],0.0,[1.0,1.0,1.0,1.0],0.0,[0,0,0],[0,0,0],0,1],"is_active_output":false,"name":"objects","outputs":[[0,0,0,0]],"roughnessInv":false,"thinWalled":false,"transRoughnessInv":false,"transRoughnessLock":true,"type":"PHYSICAL_MX"}]},"profile":"max"}},"name":"objects"},{"extensions":{"S8S_v3d_materials":{"nodeGraph":{"edges":[{"fromNode":1,"fromOutput":0,"toInput":0,"toNode":0},{"fromNode":1,"fromOutput":1,"toInput":1,"toNode":0}],"nodes":[{"inputs":[[1,1,1,1]],"is_active_output":true,"name":"MaxOutput","outputs":[],"type":"OUTPUT_MX"},{"alphaAsMono":false,"alphaAsRGB":false,"alphaSource":"FILE","axis":"XY","clampToEdgeNoExtend":[false,false],"inputs":[0.0,0.0,1.0,1.0,0.0],"is_active_output":false,"mapping":"SPHERICAL_ENVIRONMENT","name":"Map #1","outputs":[[0,0,0,0]],"texture":0,"type":"BITMAP_ENV_MX","uvIndex":0}]},"profile":"max"}},"name":"Verge3D_Environment"}],"meshes":[{"name":"walls","primitives":[{"attributes":{"NORMAL":2,"POSITION":1,"TEXCOORD_0":3},"indices":0,"material":0,"mode":4},{"attributes":{"NORMAL":6,"POSITION":5,"TEXCOORD_0":7},"indices":4,"material":1,"mode":4}]},{"name":"big_table","primitives":[{"attributes":{"NORMAL":10,"POSITION":9,"TEXCOORD_0":11,"TEXCOORD_1":12},"indices":8,"material":2,"mode":4}]},{"name":"bowl","primitives":[{"attributes":{"NORMAL":15,"POSITION":14,"TEXCOORD_0":16,"TEXCOORD_1":17},"indices":13,"material":2,"mode":4}]},{"name":"chair","primitives":[{"attributes":{"NORMAL":20,"POSITION":19,"TEXCOORD_0":21,"TEXCOORD_1":22,"TEXCOORD_2":23,"TEXCOORD_3":24},"indices":18,"material":2,"mode":4}]},{"name":"chair.001","primitives":[{"attributes":{"NORMAL":27,"POSITION":26,"TEXCOORD_0":28,"TEXCOORD_1":29,"TEXCOORD_2":30,"TEXCOORD_3":31},"indices":25,"material":2,"mode":4}]},{"name":"chair.002","primitives":[{"attributes":{"NORMAL":34,"POSITION":33,"TEXCOORD_0":35,"TEXCOORD_1":36,"TEXCOORD_2":37,"TEXCOORD_3":38},"indices":32,"material":2,"mode":4}]},{"name":"chair.003","primitives":[{"attributes":{"NORMAL":41,"POSITION":40,"TEXCOORD_0":42,"TEXCOORD_1":43,"TEXCOORD_2":44,"TEXCOORD_3":45},"indices":39,"material":2,"mode":4}]},{"name":"chair_1","primitives":[{"attributes":{"NORMAL":48,"POSITION":47,"TEXCOORD_0":49},"indices":46,"material":2,"mode":4}]},{"name":"cup","primitives":[{"attributes":{"NORMAL":52,"POSITION":51,"TEXCOORD_0":53,"TEXCOORD_1":54},"indices":50,"material":2,"mode":4}]},{"name":"cup.001","primitives":[{"attributes":{"NORMAL":57,"POSITION":56,"TEXCOORD_0":58,"TEXCOORD_1":59},"indices":55,"material":2,"mode":4}]},{"name":"cup.002","primitives":[{"attributes":{"NORMAL":62,"POSITION":61,"TEXCOORD_0":63,"TEXCOORD_1":64},"indices":60,"material":2,"mode":4}]},{"name":"dinner_zone_light_wood","primitives":[{"attributes":{"NORMAL":67,"POSITION":66,"TEXCOORD_0":68,"TEXCOORD_1":69,"TEXCOORD_2":70,"TEXCOORD_3":71},"indices":65,"material":2,"mode":4}]},{"name":"lightstand","primitives":[{"attributes":{"NORMAL":74,"POSITION":73,"TEXCOORD_0":75,"TEXCOORD_1":76,"TEXCOORD_2":77},"indices":72,"material":2,"mode":4}]},{"name":"puff_1","primitives":[{"attributes":{"NORMAL":80,"POSITION":79,"TEXCOORD_0":81},"indices":78,"material":2,"mode":4}]},{"name":"teapot","primitives":[{"attributes":{"NORMAL":84,"POSITION":83,"TEXCOORD_0":85,"TEXCOORD_1":86},"indices":82,"material":2,"mode":4}]},{"name":"tv_stand_3","primitives":[{"attributes":{"NORMAL":89,"POSITION":88,"TEXCOORD_0":90},"indices":87,"material":2,"mode":4}]}],"nodes":[{"extensions":{"S8S_v3d_node":{"frustumCulling":true,"hidden":false,"hidpiCompositing":false,"renderOrder":0,"useCastShadows":true,"useShadows":true}},"extras":{"customProps":{"MapChannel:1":"UVMap"}},"mesh":0,"name":"walls"},{"extensions":{"S8S_v3d_node":{"frustumCulling":true,"hidden":false,"hidpiCompositing":false,"renderOrder":0,"useCastShadows":true,"useShadows":true}},"extras":{"customProps":{"MapChannel:1":"UVMap","MapChannel:2":"ao"}},"mesh":1,"name":"big_table","rotation":[-1.5454308055495858e-08,-0.7071067690849304,-1.5454309831852697e-08,0.7071067690849304],"translation":[-0.07534316182136536,0.0,0.7706287503242493]},{"extensions":{"S8S_v3d_node":{"frustumCulling":true,"hidden":false,"hidpiCompositing":false,"renderOrder":0,"useCastShadows":true,"useShadows":true}},"extras":{"customProps":{"MapChannel:1":"ao","MapChannel:2":"UVMap"}},"mesh":2,"name":"bowl","rotation":[-8.146033536604591e-08,-0.0,0.0,1.0],"translation":[-0.11087676882743835,0.7889932990074158,0.7595100998878479]},{"extensions":{"S8S_v3d_node":{"frustumCulling":true,"hidden":false,"hidpiCompositing":false,"renderOrder":0,"useCastShadows":true,"useShadows":true}},"extras":{"customProps":{"MapChannel:1":"UVMap","MapChannel:2":"ao"}},"mesh":3,"name":"chair","rotation":[7.073676755453562e-08,-0.6870646476745605,6.688821230227404e-08,0.7265962958335876],"scale":[0.9999999403953552,1.0,0.9999999403953552],"translation":[0.3820980191230774,0.0,1.2774019241333008]},{"extensions":{"S8S_v3d_node":{"frustumCulling":true,"hidden":false,"hidpiCompositing":false,"renderOrder":0,"useCastShadows":true,"useShadows":true}},"extras":{"customProps":{"MapChannel:1":"UVMap","MapChannel:2":"ao"}},"mesh":4,"name":"chair.001","rotation":[6.436951025534654e-07,-0.7230512499809265,6.737525950484269e-07,0.6907944679260254],"translation":[-0.5013914108276367,0.0,1.2280700206756592]},{"extensions":{"S8S_v3d_node":{"frustumCulling":true,"hidden":false,"hidpiCompositing":false,"renderOrder":0,"useCastShadows":true,"useShadows":true}},"extras":{"customProps":{"MapChannel:1":"UVMap","MapChannel:2":"ao"}},"mesh":5,"name":"chair.002","rotation":[1.2962365758539818e-07,0.7199457287788391,-1.3446386049054126e-07,0.6940303444862366],"translation":[-0.4789677560329437,0.0,0.12931430339813232]},{"extensions":{"S8S_v3d_node":{"frustumCulling":true,"hidden":false,"hidpiCompositing":false,"renderOrder":0,"useCastShadows":true,"useShadows":true}},"extras":{"customProps":{"MapChannel:1":"UVMap","MapChannel:2":"ao"}},"mesh":6,"name":"chair.003","rotation":[3.6443535122998583e-07,0.7060012221336365,-3.632983975876414e-07,0.7082105875015259],"translation":[0.3686438798904419,0.0,0.14276844263076782]},{"extensions":{"S8S_v3d_node":{"frustumCulling":true,"hidden":false,"hidpiCompositing":false,"renderOrder":0,"useCastShadows":true,"useShadows":true}},"extras":{"customProps":{"MapChannel:1":"UVMap"}},"mesh":7,"name":"chair_1","rotation":[9.025149694252832e-08,-0.2681009769439697,1.3386990183050784e-08,0.9633908271789551],"translation":[1.5406490564346313,0.0,-1.594041347503662]},{"extensions":{"S8S_v3d_node":{"frustumCulling":true,"hidden":false,"hidpiCompositing":false,"renderOrder":0,"useCastShadows":true,"useShadows":true}},"extras":{"customProps":{"MapChannel:1":"material","MapChannel:2":"scene"}},"mesh":8,"name":"cup","rotation":[-8.146033536604591e-08,-0.0,0.0,1.0],"translation":[-0.42772406339645386,0.7704020142555237,0.4872746169567108]},{"extensions":{"S8S_v3d_node":{"frustumCulling":true,"hidden":false,"hidpiCompositing":false,"renderOrder":0,"useCastShadows":true,"useShadows":true}},"extras":{"customProps":{"MapChannel:1":"material","MapChannel:2":"scene"}},"mesh":9,"name":"cup.001","rotation":[-8.146033536604591e-08,-0.0,0.0,1.0],"translation":[0.397927850484848,0.7704020142555237,0.5035436749458313]},{"extensions":{"S8S_v3d_node":{"frustumCulling":true,"hidden":false,"hidpiCompositing":false,"renderOrder":0,"useCastShadows":true,"useShadows":true}},"extras":{"customProps":{"MapChannel:1":"material","MapChannel:2":"scene"}},"mesh":10,"name":"cup.002","rotation":[-8.146033536604591e-08,-0.0,0.0,1.0],"translation":[0.34159642457962036,0.7704020142555237,0.967820405960083]},{"extensions":{"S8S_v3d_node":{"frustumCulling":true,"hidden":false,"hidpiCompositing":false,"renderOrder":0,"useCastShadows":true,"useShadows":true}},"extras":{"customProps":{"MapChannel:1":"UVMap","MapChannel:2":"ao"}},"mesh":11,"name":"dinner_zone_light_wood","rotation":[-1.5454308055495858e-08,-0.7071067690849304,-1.5454309831852697e-08,0.7071067690849304],"translation":[-1.6673677993850333e-09,2.283581495285034,0.7530776858329773]},{"extensions":{"S8S_v3d_node":{"frustumCulling":true,"hidden":false,"hidpiCompositing":false,"renderOrder":0,"useCastShadows":true,"useShadows":true}},"extras":{"customProps":{"MapChannel:1":"ao"}},"mesh":12,"name":"lightstand","rotation":[-7.818354674782313e-08,0.8671098947525024,-1.3610005566988548e-07,-0.4981168806552887],"translation":[0.2910146713256836,0.0,-1.7531859874725342]},{"extensions":{"S8S_v3d_node":{"frustumCulling":true,"hidden":false,"hidpiCompositing":false,"renderOrder":0,"useCastShadows":true,"useShadows":true}},"extras":{"customProps":{"MapChannel:1":"UVMap"}},"mesh":13,"name":"puff_1","rotation":[2.4733024517331614e-09,0.9931561946868896,2.1115079462674657e-08,0.11679357290267944],"scale":[0.9999999403953552,1.0,0.9999999403953552],"translation":[1.2918236255645752,0.0,-0.788707435131073]},{"extensions":{"S8S_v3d_node":{"frustumCulling":true,"hidden":false,"hidpiCompositing":false,"renderOrder":0,"useCastShadows":true,"useShadows":true}},"extras":{"customProps":{"MapChannel:1":"material","MapChannel:2":"scene"}},"mesh":14,"name":"teapot","rotation":[-7.685298442083877e-08,-0.2283852994441986,-8.141546992135318e-09,0.9735708236694336],"translation":[0.21352022886276245,0.7704021334648132,0.8167667388916016]},{"extensions":{"S8S_v3d_node":{"frustumCulling":true,"hidden":false,"hidpiCompositing":false,"renderOrder":0,"useCastShadows":true,"useShadows":true}},"extras":{"customProps":{"MapChannel:1":"UVMap"}},"mesh":15,"name":"tv_stand_3","rotation":[-8.146033536604591e-08,-0.0,0.0,1.0],"translation":[-1.8170347213745117,0.0,-0.7858293652534485]},{"camera":0,"extensions":{"S8S_v3d_node":{"hidden":false,"hidpiCompositing":false}},"name":"Camera","rotation":[-0.18170809745788574,0.38548925518989563,0.07771728187799454,0.9012991786003113],"scale":[1.0,0.9999999403953552,1.0],"translation":[3.2300000190734863,2.8499999046325684,3.0999999046325684]},{"extensions":{"S8S_v3d_node":{"hidden":false,"hidpiCompositing":false}},"name":"Camera.Target","rotation":[0.5121448636054993,0.32546356320381165,-0.21807469427585602,0.7643458247184753],"scale":[0.9999999403953552,0.9999998807907104,0.9999998807907104],"translation":[-0.033612728118896484,0.9531158208847046,-0.017340103164315224]},{"extensions":{"S8S_v3d_lights":{"light":0}},"rotation":[-0.7071068286895752,-0.0,-0.0,0.7071067690849304],"scale":[1.0,1.0,1.0],"translation":[0.0,0.0,0.0]}],"samplers":[{}],"scene":0,"scenes":[{"extensions":{"S8S_v3d_scene":{"aaMethod":"AUTO","iblEnvironmentMode":"PMREM","physicallyCorrectLights":true,"pmremMaxTileSize":256,"postprocessing":[{"bentNormals":true,"bounceApprox":false,"distance":0.5,"factor":0.4000000059604645,"precision":0.25,"type":"gtao"}],"shadowMap":{"esmDistanceScale":0.30000001192092896,"renderReverseSided":false,"renderSingleSided":true,"type":"PCFPOISSON"},"unitsScaleFactor":1.0,"worldMaterial":3}},"extras":{"animFrameRate":24,"coordSystem":"Z_UP_RIGHT"},"name":"Scene","nodes":[0,1,2,3,4,5,6,7,8,9,10,11,12,13,14,15,16,17,18]}],"textures":[{"extensions":{"S8S_v3d_texture":{"colorSpace":"linear","source":0}},"name":"Map #1","sampler":0}]}
