{"accessors":[{"bufferView":0,"componentType":5123,"count":4224,"max":[3519],"min":[0],"type":"SCALAR"},{"bufferView":1,"componentType":5126,"count":3520,"max":[0.017329057678580284,0.0288864579051733,0.0012568847741931677],"min":[-0.037392787635326385,0.008624443784356117,-0.0012568787205964327],"type":"VEC3"},{"bufferView":2,"componentType":5126,"count":3520,"max":[0.9998691082000732,0.9987578988075256,0.9783322811126709],"min":[-0.9998664259910583,-0.9990631341934204,-0.9783324599266052],"type":"VEC3"},{"bufferView":3,"componentType":5123,"count":4224,"max":[3519],"min":[0],"type":"SCALAR"},{"bufferView":4,"componentType":5126,"count":3520,"max":[0.017253033816814423,0.02888854406774044,0.0012568847741931677],"min":[-0.037276074290275574,0.008666874840855598,-0.0012568788370117545],"type":"VEC3"},{"bufferView":5,"componentType":5126,"count":3520,"max":[0.9998970031738281,0.9990620613098145,0.9785819053649902],"min":[-0.9998629093170166,-0.9991222023963928,-0.9785819053649902],"type":"VEC3"},{"bufferView":6,"componentType":5123,"count":4224,"max":[3519],"min":[0],"type":"SCALAR"},{"bufferView":7,"componentType":5126,"count":3520,"max":[0.0173493679612875,0.028888501226902008,0.0012568847741931677],"min":[-0.03737248480319977,0.008595888502895832,-0.0012568788370117545],"type":"VEC3"},{"bufferView":8,"componentType":5126,"count":3520,"max":[0.9998851418495178,0.9989829063415527,0.9785844087600708],"min":[-0.9998493790626526,-0.9990707635879517,-0.9785847663879395],"type":"VEC3"},{"bufferView":9,"componentType":5123,"count":4224,"max":[3519],"min":[0],"type":"SCALAR"},{"bufferView":10,"componentType":5126,"count":3520,"max":[0.017351003363728523,0.028959667310118675,0.001256866380572319],"min":[-0.03744015842676163,0.008596586994826794,-0.0012568933889269829],"type":"VEC3"},{"bufferView":11,"componentType":5126,"count":3520,"max":[0.9999252557754517,0.9997610449790955,0.9782188534736633],"min":[-0.9997752904891968,-0.9991011619567871,-0.9782190322875977],"type":"VEC3"},{"bufferView":12,"componentType":5123,"count":4224,"max":[3519],"min":[0],"type":"SCALAR"},{"bufferView":13,"componentType":5126,"count":3520,"max":[0.01719648763537407,0.029051154851913452,0.0012568848906084895],"min":[-0.0376991331577301,0.008818493224680424,-0.0012568786041811109],"type":"VEC3"},{"bufferView":14,"componentType":5126,"count":3520,"max":[0.9998774528503418,0.9997439980506897,0.9780398607254028],"min":[-0.9998160004615784,-0.9990919828414917,-0.9780400991439819],"type":"VEC3"},{"bufferView":15,"componentType":5123,"count":4092,"max":[3167],"min":[0],"type":"SCALAR"},{"bufferView":16,"componentType":5126,"count":3168,"max":[0.0173493679612875,0.028888501226902008,0.0012568847741931677],"min":[-0.03737248480319977,0.008595888502895832,-0.0012568788370117545],"type":"VEC3"},{"bufferView":17,"componentType":5126,"count":3168,"max":[0.9998493790626526,0.9981269836425781,0.9785847663879395],"min":[-0.9998851418495178,-0.9989829063415527,-0.9785844087600708],"type":"VEC3"},{"bufferView":18,"componentType":5123,"count":4092,"max":[3167],"min":[0],"type":"SCALAR"},{"bufferView":19,"componentType":5126,"count":3168,"max":[0.01719648763537407,0.029051154851913452,0.0012568848906084895],"min":[-0.0376991331577301,0.008818493224680424,-0.0012568786041811109],"type":"VEC3"},{"bufferView":20,"componentType":5126,"count":3168,"max":[0.9998160004615784,0.9981657862663269,0.9780400991439819],"min":[-0.9998774528503418,-0.9997439980506897,-0.9780398607254028],"type":"VEC3"},{"bufferView":21,"componentType":5123,"count":4092,"max":[3167],"min":[0],"type":"SCALAR"},{"bufferView":22,"componentType":5126,"count":3168,"max":[0.017329057678580284,0.0288864579051733,0.0012568847741931677],"min":[-0.037392787635326385,0.008624443784356117,-0.0012568787205964327],"type":"VEC3"},{"bufferView":23,"componentType":5126,"count":3168,"max":[0.9998664259910583,0.9981162548065186,0.9783324599266052],"min":[-0.9998691082000732,-0.9987578988075256,-0.9783322811126709],"type":"VEC3"},{"bufferView":24,"componentType":5123,"count":4092,"max":[3167],"min":[0],"type":"SCALAR"},{"bufferView":25,"componentType":5126,"count":3168,"max":[0.017351003363728523,0.028959667310118675,0.001256866380572319],"min":[-0.03744015842676163,0.008596586994826794,-0.0012568933889269829],"type":"VEC3"},{"bufferView":26,"componentType":5126,"count":3168,"max":[0.9997752904891968,0.9981769919395447,0.9782190322875977],"min":[-0.9999252557754517,-0.9997610449790955,-0.9782188534736633],"type":"VEC3"},{"bufferView":27,"componentType":5123,"count":4092,"max":[3167],"min":[0],"type":"SCALAR"},{"bufferView":28,"componentType":5126,"count":3168,"max":[0.017253033816814423,0.02888854406774044,0.0012568847741931677],"min":[-0.037276074290275574,0.008666874840855598,-0.0012568788370117545],"type":"VEC3"},{"bufferView":29,"componentType":5126,"count":3168,"max":[0.9998629093170166,0.9982093572616577,0.9785819053649902],"min":[-0.9998970031738281,-0.9990620613098145,-0.9785819053649902],"type":"VEC3"},{"bufferView":30,"componentType":5123,"count":55296,"max":[9327],"min":[0],"type":"SCALAR"},{"bufferView":31,"componentType":5126,"count":9328,"max":[0.02888188324868679,0.028549043461680412,0.008497673086822033],"min":[-0.02888188324868679,-0.08634945750236511,-0.003669177880510688],"type":"VEC3"},{"bufferView":32,"componentType":5126,"count":9328,"max":[1.0,1.0,1.0],"min":[-1.0,-1.0,-1.0],"type":"VEC3"},{"bufferView":33,"componentType":5126,"count":9328,"max":[1.0,0.5200342535972595,0.012361573055386543,1.0],"min":[0.854145348072052,-0.5200334787368774,-0.012363217771053314,-1.0],"type":"VEC4"},{"bufferView":34,"componentType":5126,"count":9328,"max":[0.9999033212661743,1.0],"min":[9.67166997725144e-05,0.041840314865112305],"type":"VEC2"},{"bufferView":35,"componentType":5126,"count":9328,"max":[1.0,1.0,1.0,1.0],"min":[0.0,0.0,0.0,1.0],"type":"VEC4"},{"bufferView":36,"componentType":5123,"count":55296,"max":[9327],"min":[0],"type":"SCALAR"},{"bufferView":37,"componentType":5126,"count":9328,"max":[0.028881872072815895,0.028881872072815895,0.003669177880510688],"min":[-0.028881875798106194,-0.0866822898387909,-0.003669177880510688],"type":"VEC3"},{"bufferView":38,"componentType":5126,"count":9328,"max":[1.0,1.0,1.0],"min":[-1.0,-1.0,-1.0],"type":"VEC3"},{"bufferView":39,"componentType":5126,"count":9328,"max":[1.0,0.5141022801399231,0.011523923836648464,1.0],"min":[0.8577279448509216,-0.5141022801399231,-0.008008385077118874,-1.0],"type":"VEC4"},{"bufferView":40,"componentType":5126,"count":9328,"max":[0.9994839429855347,0.9982694983482361],"min":[0.0005381107330322266,0.01635158061981201],"type":"VEC2"},{"bufferView":41,"componentType":5126,"count":9328,"max":[1.0,1.0,1.0,1.0],"min":[0.0,0.0,0.0,1.0],"type":"VEC4"},{"bufferView":42,"componentType":5123,"count":60588,"max":[10209],"min":[0],"type":"SCALAR"},{"bufferView":43,"componentType":5126,"count":10210,"max":[0.028924673795700073,0.028756076470017433,0.003669177880510688],"min":[-0.028924675658345222,-0.08668649196624756,-0.003669177880510688],"type":"VEC3"},{"bufferView":44,"componentType":5126,"count":10210,"max":[1.0,1.0,1.0],"min":[-1.0,-1.0,-1.0],"type":"VEC3"},{"bufferView":45,"componentType":5126,"count":10210,"max":[1.0,0.5141035318374634,0.009438883513212204,1.0],"min":[0.8577279448509216,-0.5141023397445679,-0.007571626454591751,-1.0],"type":"VEC4"},{"bufferView":46,"componentType":5126,"count":10210,"max":[0.9994841814041138,1.0],"min":[0.0005159658030606806,0.037463486194610596],"type":"VEC2"},{"bufferView":47,"componentType":5126,"count":10210,"max":[1.0,1.0,1.0,1.0],"min":[0.0,0.0,0.0,1.0],"type":"VEC4"},{"bufferView":48,"componentType":5123,"count":55296,"max":[9327],"min":[0],"type":"SCALAR"},{"bufferView":49,"componentType":5126,"count":9328,"max":[0.02888188324868679,0.02888188324868679,0.008884916082024574],"min":[-0.02888188324868679,-0.08668229728937149,-0.003669177880510688],"type":"VEC3"},{"bufferView":50,"componentType":5126,"count":9328,"max":[1.0,1.0,1.0],"min":[-1.0,-1.0,-1.0],"type":"VEC3"},{"bufferView":51,"componentType":5126,"count":9328,"max":[1.0,0.5141026973724365,0.011805304326117039,1.0],"min":[0.8577286005020142,-0.5141026377677917,-0.011807834729552269,-1.0],"type":"VEC4"},{"bufferView":52,"componentType":5126,"count":9328,"max":[0.9999033212661743,1.0],"min":[9.669302380643785e-05,0.03560984134674072],"type":"VEC2"},{"bufferView":53,"componentType":5126,"count":9328,"max":[1.0,1.0,1.0,1.0],"min":[0.0,0.0,0.0,1.0],"type":"VEC4"},{"bufferView":54,"componentType":5123,"count":55296,"max":[9327],"min":[0],"type":"SCALAR"},{"bufferView":55,"componentType":5126,"count":9328,"max":[0.028881898149847984,0.028706682845950127,0.003669177880510688],"min":[-0.028881898149847984,-0.08650709688663483,-0.003669177880510688],"type":"VEC3"},{"bufferView":56,"componentType":5126,"count":9328,"max":[1.0,1.0,1.0],"min":[-1.0,-1.0,-1.0],"type":"VEC3"},{"bufferView":57,"componentType":5126,"count":9328,"max":[1.0,0.5141013860702515,0.011803572066128254,1.0],"min":[0.8577293157577515,-0.5141014456748962,-0.011805013753473759,-1.0],"type":"VEC4"},{"bufferView":58,"componentType":5126,"count":9328,"max":[0.9999033212661743,1.001843810081482],"min":[9.66787338256836e-05,0.03547251224517822],"type":"VEC2"},{"bufferView":59,"componentType":5126,"count":9328,"max":[1.0,1.0,1.0,1.0],"min":[0.0,0.0,0.0,1.0],"type":"VEC4"},{"bufferView":60,"componentType":5123,"count":55296,"max":[9327],"min":[0],"type":"SCALAR"},{"bufferView":61,"componentType":5126,"count":9328,"max":[0.028881898149847984,0.028881898149847984,0.006496727000921965],"min":[-0.028881898149847984,-0.08668231219053268,-0.003669177880510688],"type":"VEC3"},{"bufferView":62,"componentType":5126,"count":9328,"max":[1.0,1.0,1.0],"min":[-1.0,-1.0,-1.0],"type":"VEC3"},{"bufferView":63,"componentType":5126,"count":9328,"max":[1.0,0.5141026973724365,0.011805304326117039,1.0],"min":[0.8577286005020142,-0.5141026377677917,-0.011807834729552269,-1.0],"type":"VEC4"},{"bufferView":64,"componentType":5126,"count":9328,"max":[0.9999033212661743,1.0],"min":[9.669302380643785e-05,0.03797614574432373],"type":"VEC2"},{"bufferView":65,"componentType":5126,"count":9328,"max":[1.0,1.0,1.0,1.0],"min":[0.0,0.0,0.0,1.0],"type":"VEC4"},{"bufferView":66,"componentType":5123,"count":43008,"max":[7279],"min":[0],"type":"SCALAR"},{"bufferView":67,"componentType":5126,"count":7280,"max":[0.029105544090270996,0.029105544090270996,0.0033666309900581837],"min":[-0.029105544090270996,-0.08737596124410629,-0.0033666309900581837],"type":"VEC3"},{"bufferView":68,"componentType":5126,"count":7280,"max":[1.0,1.0,0.9999988675117493],"min":[-1.0,-1.0,-0.9999987483024597],"type":"VEC3"},{"bufferView":69,"componentType":5126,"count":7280,"max":[1.0,0.5141015648841858,0.02219115011394024,1.0],"min":[0.8577278852462769,-0.5141025185585022,-0.024146197363734245,-1.0],"type":"VEC4"},{"bufferView":70,"componentType":5126,"count":7280,"max":[0.9999093413352966,1.0],"min":[9.059906005859375e-05,0.09988319873809814],"type":"VEC2"},{"bufferView":71,"componentType":5126,"count":7280,"max":[1.0,1.0,1.0,1.0],"min":[0.0,0.0,0.0,1.0],"type":"VEC4"},{"bufferView":72,"componentType":5123,"count":55056,"max":[9783],"min":[0],"type":"SCALAR"},{"bufferView":73,"componentType":5126,"count":9784,"max":[0.029105544090270996,0.028809433802962303,0.0033666309900581837],"min":[-0.029105544090270996,-0.08707985281944275,-0.0033666309900581837],"type":"VEC3"},{"bufferView":74,"componentType":5126,"count":9784,"max":[1.0,1.0,0.9999987483024597],"min":[-1.0,-1.0,-0.9999987483024597],"type":"VEC3"},{"bufferView":75,"componentType":5126,"count":9784,"max":[1.0,0.514102578163147,0.019099688157439232,1.0],"min":[0.8577278256416321,-0.5141025185585022,-0.017722351476550102,-1.0],"type":"VEC4"},{"bufferView":76,"componentType":5126,"count":9784,"max":[0.9999096393585205,1.0017001628875732],"min":[9.042024612426758e-05,0.10292547941207886],"type":"VEC2"},{"bufferView":77,"componentType":5126,"count":9784,"max":[1.0,1.0,1.0,1.0],"min":[0.0,0.0,0.0,1.0],"type":"VEC4"},{"bufferView":78,"componentType":5123,"count":43008,"max":[7279],"min":[0],"type":"SCALAR"},{"bufferView":79,"componentType":5126,"count":7280,"max":[0.029105551540851593,0.029105551540851593,0.00858236849308014],"min":[-0.029105551540851593,-0.08737596869468689,-0.0033666309900581837],"type":"VEC3"},{"bufferView":80,"componentType":5126,"count":7280,"max":[1.0,1.0,0.9999987483024597],"min":[-1.0,-1.0,-0.9999996423721313],"type":"VEC3"},{"bufferView":81,"componentType":5126,"count":7280,"max":[1.0,0.5141015648841858,0.02219151146709919,1.0],"min":[0.8577278852462769,-0.5141025185585022,-0.024146534502506256,-1.0],"type":"VEC4"},{"bufferView":82,"componentType":5126,"count":7280,"max":[0.9999093413352966,1.0],"min":[9.059906005859375e-05,0.09809529781341553],"type":"VEC2"},{"bufferView":83,"componentType":5126,"count":7280,"max":[1.0,1.0,1.0,1.0],"min":[0.0,0.0,0.0,1.0],"type":"VEC4"},{"bufferView":84,"componentType":5123,"count":43008,"max":[7279],"min":[0],"type":"SCALAR"},{"bufferView":85,"componentType":5126,"count":7280,"max":[0.029105568304657936,0.02895910106599331,0.0033666309900581837],"min":[-0.029105568304657936,-0.08722952008247375,-0.0033666309900581837],"type":"VEC3"},{"bufferView":86,"componentType":5126,"count":7280,"max":[1.0,1.0,0.9999996423721313],"min":[-1.0,-1.0,-0.9999996423721313],"type":"VEC3"},{"bufferView":87,"componentType":5126,"count":7280,"max":[1.0,0.5141012072563171,0.02217651903629303,1.0],"min":[0.8577286601066589,-0.5141012668609619,-0.02412988431751728,-1.0],"type":"VEC4"},{"bufferView":88,"componentType":5126,"count":7280,"max":[0.9999092817306519,1.0017001628875732],"min":[9.065504855243489e-05,0.10031437873840332],"type":"VEC2"},{"bufferView":89,"componentType":5126,"count":7280,"max":[1.0,1.0,1.0,1.0],"min":[0.0,0.0,0.0,1.0],"type":"VEC4"},{"bufferView":90,"componentType":5123,"count":46080,"max":[7787],"min":[0],"type":"SCALAR"},{"bufferView":91,"componentType":5126,"count":7788,"max":[0.029105551540851593,0.028769373893737793,0.008195126429200172],"min":[-0.029105551540851593,-0.08703979104757309,-0.0033666309900581837],"type":"VEC3"},{"bufferView":92,"componentType":5126,"count":7788,"max":[1.0,1.0,0.9999995231628418],"min":[-1.0,-1.0,-0.9999998807907104],"type":"VEC3"},{"bufferView":93,"componentType":5126,"count":7788,"max":[1.0,0.5200954675674438,0.01790681853890419,1.0],"min":[0.8540987372398376,-0.5200954079627991,-0.01697572134435177,-1.0],"type":"VEC4"},{"bufferView":94,"componentType":5126,"count":7788,"max":[0.9999157190322876,1.0],"min":[8.428096771240234e-05,0.15744400024414062],"type":"VEC2"},{"bufferView":95,"componentType":5126,"count":7788,"max":[1.0,1.0,1.0,1.0],"min":[0.0,0.0,0.0,1.0],"type":"VEC4"},{"bufferView":96,"componentType":5123,"count":22272,"max":[3765],"min":[0],"type":"SCALAR"},{"bufferView":97,"componentType":5126,"count":3766,"max":[0.029105568304657936,0.029105568304657936,0.006194181274622679],"min":[-0.029105568304657936,-0.029105568304657936,-0.0033666309900581837],"type":"VEC3"},{"bufferView":98,"componentType":5126,"count":3766,"max":[1.0,0.9999979734420776,0.9999987483024597],"min":[-1.0,-1.0,-0.9999993443489075],"type":"VEC3"},{"bufferView":99,"componentType":5126,"count":3766,"max":[1.0,0.5139463543891907,0.017013104632496834,1.0],"min":[0.857816219329834,-0.513946533203125,-0.015963595360517502,-1.0],"type":"VEC4"},{"bufferView":100,"componentType":5126,"count":3766,"max":[0.9999158382415771,1.0],"min":[8.421086386078969e-05,0.16174912452697754],"type":"VEC2"},{"bufferView":101,"componentType":5126,"count":3766,"max":[1.0,1.0,1.0,1.0],"min":[0.0,0.0,0.0,1.0],"type":"VEC4"},{"bufferView":102,"componentType":5123,"count":61440,"max":[10351],"min":[0],"type":"SCALAR"},{"bufferView":103,"componentType":5126,"count":10352,"max":[0.028951125219464302,0.028951125219464302,0.003669177880510688],"min":[-0.02895112708210945,-0.08688154071569443,-0.003669177880510688],"type":"VEC3"},{"bufferView":104,"componentType":5126,"count":10352,"max":[1.0,1.0,1.0],"min":[-1.0,-1.0,-1.0],"type":"VEC3"},{"bufferView":105,"componentType":5126,"count":10352,"max":[1.0,0.5141032934188843,0.014761454425752163,1.0],"min":[0.8577281832695007,-0.5141034126281738,-0.013947540894150734,-1.0],"type":"VEC4"},{"bufferView":106,"componentType":5126,"count":10352,"max":[0.9999033808708191,1.0],"min":[9.679794311523438e-05,0.03149998188018799],"type":"VEC2"},{"bufferView":107,"componentType":5126,"count":10352,"max":[1.0,1.0,1.0,1.0],"min":[0.0,0.0,0.0,1.0],"type":"VEC4"},{"bufferView":108,"componentType":5123,"count":69528,"max":[12211],"min":[0],"type":"SCALAR"},{"bufferView":109,"componentType":5126,"count":12212,"max":[0.02895112708210945,0.02866823598742485,0.003669177880510688],"min":[-0.02895112708210945,-0.0864686518907547,-0.003669177880510688],"type":"VEC3"},{"bufferView":110,"componentType":5126,"count":12212,"max":[1.0,1.0,1.0],"min":[-1.0,-1.0,-1.0],"type":"VEC3"},{"bufferView":111,"componentType":5126,"count":12212,"max":[1.0,0.5141032338142395,0.015279560349881649,1.0],"min":[0.8577278256416321,-0.5141032338142395,-0.015275170095264912,-1.0],"type":"VEC4"},{"bufferView":112,"componentType":5126,"count":12212,"max":[0.9999033808708191,1.001843810081482],"min":[9.679794311523438e-05,0.030781328678131104],"type":"VEC2"},{"bufferView":113,"componentType":5126,"count":12212,"max":[1.0,1.0,1.0,1.0],"min":[0.0,0.0,0.0,1.0],"type":"VEC4"},{"bufferView":114,"componentType":5123,"count":62976,"max":[10607],"min":[0],"type":"SCALAR"},{"bufferView":115,"componentType":5126,"count":10608,"max":[0.028951134532690048,0.028951134532690048,0.008884916082024574],"min":[-0.028951134532690048,-0.08688154816627502,-0.003669177880510688],"type":"VEC3"},{"bufferView":116,"componentType":5126,"count":10608,"max":[1.0,1.0,1.0],"min":[-1.0,-1.0,-1.0],"type":"VEC3"},{"bufferView":117,"componentType":5126,"count":10608,"max":[1.0,0.5141028761863708,0.01343755703419447,1.0],"min":[0.8577273488044739,-0.5141029357910156,-0.013438037596642971,-1.0],"type":"VEC4"},{"bufferView":118,"componentType":5126,"count":10608,"max":[0.9999133348464966,1.0],"min":[8.666515350341797e-05,0.13728749752044678],"type":"VEC2"},{"bufferView":119,"componentType":5126,"count":10608,"max":[1.0,1.0,1.0,1.0],"min":[0.0,0.0,0.0,1.0],"type":"VEC4"},{"bufferView":120,"componentType":5123,"count":58368,"max":[9847],"min":[0],"type":"SCALAR"},{"bufferView":121,"componentType":5126,"count":9848,"max":[0.028947418555617332,0.02882406860589981,0.003669177880510688],"min":[-0.028947418555617332,-0.08675448596477509,-0.003669177880510688],"type":"VEC3"},{"bufferView":122,"componentType":5126,"count":9848,"max":[1.0,1.0,1.0],"min":[-1.0,-1.0,-1.0],"type":"VEC3"},{"bufferView":123,"componentType":5126,"count":9848,"max":[1.0,0.5141016244888306,0.02169666439294815,1.0],"min":[0.8577280044555664,-0.5141016244888306,-0.0216986071318388,-1.0],"type":"VEC4"},{"bufferView":124,"componentType":5126,"count":9848,"max":[0.9999001026153564,1.0017833709716797],"min":[9.993845014832914e-05,0.0009312033653259277],"type":"VEC2"},{"bufferView":125,"componentType":5126,"count":9848,"max":[1.0,1.0,1.0,1.0],"min":[0.0,0.0,0.0,1.0],"type":"VEC4"},{"bufferView":126,"componentType":5123,"count":64512,"max":[10871],"min":[0],"type":"SCALAR"},{"bufferView":127,"componentType":5126,"count":10872,"max":[0.028951134532690048,0.028617259114980698,0.008497674018144608],"min":[-0.028951134532690048,-0.08654767274856567,-0.003669177880510688],"type":"VEC3"},{"bufferView":128,"componentType":5126,"count":10872,"max":[1.0,1.0,1.0],"min":[-1.0,-1.0,-1.0],"type":"VEC3"},{"bufferView":129,"componentType":5126,"count":10872,"max":[1.0,0.5199310779571533,0.016768556088209152,1.0],"min":[0.8542075157165527,-0.5199304223060608,-0.015889683738350868,-1.0],"type":"VEC4"},{"bufferView":130,"componentType":5126,"count":10872,"max":[0.9999032020568848,1.0],"min":[9.681261872174218e-05,0.039737701416015625],"type":"VEC2"},{"bufferView":131,"componentType":5126,"count":10872,"max":[1.0,1.0,1.0,1.0],"min":[0.0,0.0,0.0,1.0],"type":"VEC4"},{"bufferView":132,"componentType":5123,"count":31488,"max":[5306],"min":[0],"type":"SCALAR"},{"bufferView":133,"componentType":5126,"count":5307,"max":[0.028951149433851242,0.028951149433851242,0.006496727000921965],"min":[-0.028951149433851242,-0.028951149433851242,-0.003669177880510688],"type":"VEC3"},{"bufferView":134,"componentType":5126,"count":5307,"max":[1.0,0.999999463558197,1.0],"min":[-1.0,-1.0,-1.0],"type":"VEC3"},{"bufferView":135,"componentType":5126,"count":5307,"max":[1.0,0.5140137076377869,0.01647370494902134,1.0],"min":[0.8577773571014404,-0.5140156149864197,-0.015523506328463554,-1.0],"type":"VEC4"},{"bufferView":136,"componentType":5126,"count":5307,"max":[0.9999032020568848,1.0],"min":[9.678926289780065e-05,0.03499722480773926],"type":"VEC2"},{"bufferView":137,"componentType":5126,"count":5307,"max":[1.0,1.0,1.0,1.0],"min":[0.0,0.0,0.0,1.0],"type":"VEC4"},{"bufferView":138,"componentType":5123,"count":55296,"max":[9319],"min":[0],"type":"SCALAR"},{"bufferView":139,"componentType":5126,"count":9320,"max":[0.028899718075990677,0.028899718075990677,0.004972136579453945],"min":[-0.028899718075990677,-0.08673013746738434,-0.004972136579453945],"type":"VEC3"},{"bufferView":140,"componentType":5126,"count":9320,"max":[1.0,1.0,1.0],"min":[-1.0,-1.0,-1.0],"type":"VEC3"},{"bufferView":141,"componentType":5126,"count":9320,"max":[1.0,0.5141034126281738,0.0010794431436806917,1.0],"min":[0.8577282428741455,-0.514102578163147,-0.0010812579421326518,-1.0],"type":"VEC4"},{"bufferView":142,"componentType":5126,"count":9320,"max":[0.999904990196228,1.0],"min":[9.499591396888718e-05,0.06209230422973633],"type":"VEC2"},{"bufferView":143,"componentType":5126,"count":9320,"max":[1.0,1.0,1.0,1.0],"min":[0.0,0.0,0.0,1.0],"type":"VEC4"},{"bufferView":144,"componentType":5123,"count":67128,"max":[11787],"min":[0],"type":"SCALAR"},{"bufferView":145,"componentType":5126,"count":11788,"max":[0.028899718075990677,0.028885502368211746,0.004972136579453945],"min":[-0.028899718075990677,-0.08671592175960541,-0.004972136579453945],"type":"VEC3"},{"bufferView":146,"componentType":5126,"count":11788,"max":[1.0,1.0,1.0],"min":[-1.0,-1.0,-1.0],"type":"VEC3"},{"bufferView":147,"componentType":5126,"count":11788,"max":[1.0,0.5141037106513977,0.0010787049541249871,1.0],"min":[0.8577280640602112,-0.5141037702560425,-0.0010784559417515993,-1.0],"type":"VEC4"},{"bufferView":148,"componentType":5126,"count":11788,"max":[0.999904990196228,1.002495288848877],"min":[9.499591396888718e-05,0.05458557605743408],"type":"VEC2"},{"bufferView":149,"componentType":5126,"count":11788,"max":[1.0,1.0,1.0,1.0],"min":[0.0,0.0,0.0,1.0],"type":"VEC4"},{"bufferView":150,"componentType":5123,"count":55296,"max":[9319],"min":[0],"type":"SCALAR"},{"bufferView":151,"componentType":5126,"count":9320,"max":[0.028899725526571274,0.028899725526571274,0.010189808905124664],"min":[-0.028899725526571274,-0.08673013746738434,-0.004972136579453945],"type":"VEC3"},{"bufferView":152,"componentType":5126,"count":9320,"max":[1.0,1.0,1.0],"min":[-1.0,-1.0,-1.0],"type":"VEC3"},{"bufferView":153,"componentType":5126,"count":9320,"max":[1.0,0.5141034126281738,0.0010798476869240403,1.0],"min":[0.8577282428741455,-0.514102578163147,-0.001080093439668417,-1.0],"type":"VEC4"},{"bufferView":154,"componentType":5126,"count":9320,"max":[0.999904990196228,1.0],"min":[9.499590669292957e-05,0.058098435401916504],"type":"VEC2"},{"bufferView":155,"componentType":5126,"count":9320,"max":[1.0,1.0,1.0,1.0],"min":[0.0,0.0,0.0,1.0],"type":"VEC4"},{"bufferView":156,"componentType":5123,"count":55296,"max":[9319],"min":[0],"type":"SCALAR"},{"bufferView":157,"componentType":5126,"count":9320,"max":[0.02889973856508732,0.02881644293665886,0.004972136579453945],"min":[-0.02889973856508732,-0.08664685487747192,-0.004972136579453945],"type":"VEC3"},{"bufferView":158,"componentType":5126,"count":9320,"max":[1.0,1.0,1.0],"min":[-1.0,-1.0,-1.0],"type":"VEC3"},{"bufferView":159,"componentType":5126,"count":9320,"max":[1.0,0.5141018629074097,0.0010757186682894826,1.0],"min":[0.8577291965484619,-0.5141018629074097,-0.001080552814528346,-1.0],"type":"VEC4"},{"bufferView":160,"componentType":5126,"count":9320,"max":[0.999904990196228,1.002495288848877],"min":[9.49959212448448e-05,0.05200904607772827],"type":"VEC2"},{"bufferView":161,"componentType":5126,"count":9320,"max":[1.0,1.0,1.0,1.0],"min":[0.0,0.0,0.0,1.0],"type":"VEC4"},{"bufferView":162,"componentType":5123,"count":73728,"max":[12407],"min":[0],"type":"SCALAR"},{"bufferView":163,"componentType":5126,"count":12408,"max":[0.028899725526571274,0.0285666324198246,0.009800633415579796],"min":[-0.028899725526571274,-0.08639705181121826,-0.004972136579453945],"type":"VEC3"},{"bufferView":164,"componentType":5126,"count":12408,"max":[1.0,1.0,1.0],"min":[-1.0,-1.0,-1.0],"type":"VEC3"},{"bufferView":165,"componentType":5126,"count":12408,"max":[1.0,0.5200724601745605,0.001154111116193235,1.0],"min":[0.8541220426559448,-0.520071268081665,-0.0011521043488755822,-1.0],"type":"VEC4"},{"bufferView":166,"componentType":5126,"count":12408,"max":[0.9999048709869385,1.0],"min":[9.506940841674805e-05,0.04944765567779541],"type":"VEC2"},{"bufferView":167,"componentType":5126,"count":12408,"max":[1.0,1.0,1.0,1.0],"min":[0.0,0.0,0.0,1.0],"type":"VEC4"},{"bufferView":168,"componentType":5123,"count":27648,"max":[4659],"min":[0],"type":"SCALAR"},{"bufferView":169,"componentType":5126,"count":4660,"max":[0.02889973856508732,0.02889973856508732,0.007799685467034578],"min":[-0.02889973856508732,-0.02889973856508732,-0.004972136579453945],"type":"VEC3"},{"bufferView":170,"componentType":5126,"count":4660,"max":[1.0,1.0,1.0],"min":[-1.0,-1.0,-1.0],"type":"VEC3"},{"bufferView":171,"componentType":5126,"count":4660,"max":[1.0,0.514101505279541,0.0010798476869240403,1.0],"min":[0.8577287197113037,-0.514102578163147,-0.0010800790041685104,-1.0],"type":"VEC4"},{"bufferView":172,"componentType":5126,"count":4660,"max":[0.999904990196228,1.0],"min":[9.499590669292957e-05,0.055622637271881104],"type":"VEC2"},{"bufferView":173,"componentType":5126,"count":4660,"max":[1.0,1.0,1.0,1.0],"min":[0.0,0.0,0.0,1.0],"type":"VEC4"},{"bufferView":174,"componentType":5123,"count":49152,"max":[8303],"min":[0],"type":"SCALAR"},{"bufferView":175,"componentType":5126,"count":8304,"max":[0.02939237840473652,0.02939237840473652,0.0027002207934856415],"min":[-0.02939237840473652,-0.08819279819726944,-0.0027002207934856415],"type":"VEC3"},{"bufferView":176,"componentType":5126,"count":8304,"max":[1.0,1.0,0.9999992251396179],"min":[-1.0,-1.0,-0.9999992251396179],"type":"VEC3"},{"bufferView":177,"componentType":5126,"count":8304,"max":[1.0,0.5141130685806274,0.02615484595298767,1.0],"min":[0.8577185273170471,-0.5141128301620483,-0.026146678254008293,-1.0],"type":"VEC4"},{"bufferView":178,"componentType":5126,"count":8304,"max":[0.9988413453102112,1.0],"min":[0.0011588840279728174,0.1630992889404297],"type":"VEC2"},{"bufferView":179,"componentType":5126,"count":8304,"max":[1.0,1.0,1.0,1.0],"min":[0.0,0.0,0.0,1.0],"type":"VEC4"},{"bufferView":180,"componentType":5123,"count":54528,"max":[10911],"min":[0],"type":"SCALAR"},{"bufferView":181,"componentType":5126,"count":10912,"max":[0.02939237840473652,0.028703363612294197,0.0027002207934856415],"min":[-0.02939237840473652,-0.08750378340482712,-0.0027002207934856415],"type":"VEC3"},{"bufferView":182,"componentType":5126,"count":10912,"max":[1.0,1.0,0.9999992251396179],"min":[-1.0,-1.0,-0.9999992251396179],"type":"VEC3"},{"bufferView":183,"componentType":5126,"count":10912,"max":[1.0,0.9998780488967896,0.022974073886871338,1.0],"min":[-0.9998780488967896,-0.9998781085014343,-0.019444787874817848,-1.0],"type":"VEC4"},{"bufferView":184,"componentType":5126,"count":10912,"max":[1.0000001192092896,1.0027343034744263],"min":[0.0,0.18245625495910645],"type":"VEC2"},{"bufferView":185,"componentType":5126,"count":10912,"max":[1.0,1.0,1.0,1.0],"min":[0.0,0.0,0.0,1.0],"type":"VEC4"},{"bufferView":186,"componentType":5123,"count":52224,"max":[8815],"min":[0],"type":"SCALAR"},{"bufferView":187,"componentType":5126,"count":8816,"max":[0.029392385855317116,0.029392385855317116,0.007915958762168884],"min":[-0.029392385855317116,-0.08819280564785004,-0.0027002207934856415],"type":"VEC3"},{"bufferView":188,"componentType":5126,"count":8816,"max":[1.0,1.0,0.9999992251396179],"min":[-1.0,-1.0,-0.9999997615814209],"type":"VEC3"},{"bufferView":189,"componentType":5126,"count":8816,"max":[1.0,0.5140905380249023,0.02286873385310173,1.0],"min":[0.8577318787574768,-0.5140905380249023,-0.022885726764798164,-1.0],"type":"VEC4"},{"bufferView":190,"componentType":5126,"count":8816,"max":[0.9999237060546875,1.0],"min":[7.621796248713508e-05,0.21550405025482178],"type":"VEC2"},{"bufferView":191,"componentType":5126,"count":8816,"max":[1.0,1.0,1.0,1.0],"min":[0.0,0.0,0.0,1.0],"type":"VEC4"},{"bufferView":192,"componentType":5123,"count":49152,"max":[8303],"min":[0],"type":"SCALAR"},{"bufferView":193,"componentType":5126,"count":8304,"max":[0.02939240261912346,0.029204288497567177,0.0027002207934856415],"min":[-0.02939240261912346,-0.0880047082901001,-0.0027002207934856415],"type":"VEC3"},{"bufferView":194,"componentType":5126,"count":8304,"max":[1.0,1.0,0.9999997615814209],"min":[-1.0,-1.0,-0.9999997615814209],"type":"VEC3"},{"bufferView":195,"componentType":5126,"count":8304,"max":[1.0,0.514102041721344,0.023313244804739952,1.0],"min":[0.8577262759208679,-0.5141021013259888,-0.026513131335377693,-1.0],"type":"VEC4"},{"bufferView":196,"componentType":5126,"count":8304,"max":[0.9999173879623413,1.001252293586731],"min":[8.258588059106842e-05,0.16969847679138184],"type":"VEC2"},{"bufferView":197,"componentType":5126,"count":8304,"max":[1.0,1.0,1.0,1.0],"min":[0.0,0.0,0.0,1.0],"type":"VEC4"},{"bufferView":198,"componentType":5123,"count":49152,"max":[8303],"min":[0],"type":"SCALAR"},{"bufferView":199,"componentType":5126,"count":8304,"max":[0.029392385855317116,0.029051976278424263,0.0075287166982889175],"min":[-0.029392385855317116,-0.08785239607095718,-0.0027002207934856415],"type":"VEC3"},{"bufferView":200,"componentType":5126,"count":8304,"max":[1.0,1.0,0.9999997615814209],"min":[-1.0,-1.0,-0.9999998807907104],"type":"VEC3"},{"bufferView":201,"componentType":5126,"count":8304,"max":[1.0,0.5203683972358704,0.029544614255428314,1.0],"min":[0.8539263606071472,-0.5203683972358704,-0.029543917626142502,-1.0],"type":"VEC4"},{"bufferView":202,"componentType":5126,"count":8304,"max":[0.9999172687530518,1.0],"min":[8.264058124041185e-05,0.1796395182609558],"type":"VEC2"},{"bufferView":203,"componentType":5126,"count":8304,"max":[1.0,1.0,1.0,1.0],"min":[0.0,0.0,0.0,1.0],"type":"VEC4"},{"bufferView":204,"componentType":5123,"count":44544,"max":[7535],"min":[0],"type":"SCALAR"},{"bufferView":205,"componentType":5126,"count":7536,"max":[0.02939240261912346,0.02939240261912346,0.005527771543711424],"min":[-0.02939240261912346,-0.08819282054901123,-0.0027002207934856415],"type":"VEC3"},{"bufferView":206,"componentType":5126,"count":7536,"max":[1.0,1.0,0.9999992251396179],"min":[-1.0,-1.0,-0.9999996423721313],"type":"VEC3"},{"bufferView":207,"componentType":5126,"count":7536,"max":[1.0,0.5139616131782532,0.012242198921740055,1.0],"min":[0.8578103184700012,-0.5139625668525696,-0.01224192138761282,-1.0],"type":"VEC4"},{"bufferView":208,"componentType":5126,"count":7536,"max":[0.9999092221260071,1.0],"min":[9.068926010513678e-05,0.0980764627456665],"type":"VEC2"},{"bufferView":209,"componentType":5126,"count":7536,"max":[1.0,1.0,1.0,1.0],"min":[0.0,0.0,0.0,1.0],"type":"VEC4"}],"asset":{"generator":"Verge3D for Blender v4.6.0","version":"2.0"},"bufferViews":[{"buffer":0,"byteLength":8448,"byteOffset":0,"target":34963},{"buffer":0,"byteLength":42240,"byteOffset":8448,"target":34962},{"buffer":0,"byteLength":42240,"byteOffset":50688,"target":34962},{"buffer":0,"byteLength":8448,"byteOffset":92928,"target":34963},{"buffer":0,"byteLength":42240,"byteOffset":101376,"target":34962},{"buffer":0,"byteLength":42240,"byteOffset":143616,"target":34962},{"buffer":0,"byteLength":8448,"byteOffset":185856,"target":34963},{"buffer":0,"byteLength":42240,"byteOffset":194304,"target":34962},{"buffer":0,"byteLength":42240,"byteOffset":236544,"target":34962},{"buffer":0,"byteLength":8448,"byteOffset":278784,"target":34963},{"buffer":0,"byteLength":42240,"byteOffset":287232,"target":34962},{"buffer":0,"byteLength":42240,"byteOffset":329472,"target":34962},{"buffer":0,"byteLength":8448,"byteOffset":371712,"target":34963},{"buffer":0,"byteLength":42240,"byteOffset":380160,"target":34962},{"buffer":0,"byteLength":42240,"byteOffset":422400,"target":34962},{"buffer":0,"byteLength":8184,"byteOffset":464640,"target":34963},{"buffer":0,"byteLength":38016,"byteOffset":472824,"target":34962},{"buffer":0,"byteLength":38016,"byteOffset":510840,"target":34962},{"buffer":0,"byteLength":8184,"byteOffset":548856,"target":34963},{"buffer":0,"byteLength":38016,"byteOffset":557040,"target":34962},{"buffer":0,"byteLength":38016,"byteOffset":595056,"target":34962},{"buffer":0,"byteLength":8184,"byteOffset":633072,"target":34963},{"buffer":0,"byteLength":38016,"byteOffset":641256,"target":34962},{"buffer":0,"byteLength":38016,"byteOffset":679272,"target":34962},{"buffer":0,"byteLength":8184,"byteOffset":717288,"target":34963},{"buffer":0,"byteLength":38016,"byteOffset":725472,"target":34962},{"buffer":0,"byteLength":38016,"byteOffset":763488,"target":34962},{"buffer":0,"byteLength":8184,"byteOffset":801504,"target":34963},{"buffer":0,"byteLength":38016,"byteOffset":809688,"target":34962},{"buffer":0,"byteLength":38016,"byteOffset":847704,"target":34962},{"buffer":0,"byteLength":110592,"byteOffset":885720,"target":34963},{"buffer":0,"byteLength":111936,"byteOffset":996312,"target":34962},{"buffer":0,"byteLength":111936,"byteOffset":1108248,"target":34962},{"buffer":0,"byteLength":149248,"byteOffset":1220184,"target":34962},{"buffer":0,"byteLength":74624,"byteOffset":1369432,"target":34962},{"buffer":0,"byteLength":149248,"byteOffset":1444056,"target":34962},{"buffer":0,"byteLength":110592,"byteOffset":1593304,"target":34963},{"buffer":0,"byteLength":111936,"byteOffset":1703896,"target":34962},{"buffer":0,"byteLength":111936,"byteOffset":1815832,"target":34962},{"buffer":0,"byteLength":149248,"byteOffset":1927768,"target":34962},{"buffer":0,"byteLength":74624,"byteOffset":2077016,"target":34962},{"buffer":0,"byteLength":149248,"byteOffset":2151640,"target":34962},{"buffer":0,"byteLength":121176,"byteOffset":2300888,"target":34963},{"buffer":0,"byteLength":122520,"byteOffset":2422064,"target":34962},{"buffer":0,"byteLength":122520,"byteOffset":2544584,"target":34962},{"buffer":0,"byteLength":163360,"byteOffset":2667104,"target":34962},{"buffer":0,"byteLength":81680,"byteOffset":2830464,"target":34962},{"buffer":0,"byteLength":163360,"byteOffset":2912144,"target":34962},{"buffer":0,"byteLength":110592,"byteOffset":3075504,"target":34963},{"buffer":0,"byteLength":111936,"byteOffset":3186096,"target":34962},{"buffer":0,"byteLength":111936,"byteOffset":3298032,"target":34962},{"buffer":0,"byteLength":149248,"byteOffset":3409968,"target":34962},{"buffer":0,"byteLength":74624,"byteOffset":3559216,"target":34962},{"buffer":0,"byteLength":149248,"byteOffset":3633840,"target":34962},{"buffer":0,"byteLength":110592,"byteOffset":3783088,"target":34963},{"buffer":0,"byteLength":111936,"byteOffset":3893680,"target":34962},{"buffer":0,"byteLength":111936,"byteOffset":4005616,"target":34962},{"buffer":0,"byteLength":149248,"byteOffset":4117552,"target":34962},{"buffer":0,"byteLength":74624,"byteOffset":4266800,"target":34962},{"buffer":0,"byteLength":149248,"byteOffset":4341424,"target":34962},{"buffer":0,"byteLength":110592,"byteOffset":4490672,"target":34963},{"buffer":0,"byteLength":111936,"byteOffset":4601264,"target":34962},{"buffer":0,"byteLength":111936,"byteOffset":4713200,"target":34962},{"buffer":0,"byteLength":149248,"byteOffset":4825136,"target":34962},{"buffer":0,"byteLength":74624,"byteOffset":4974384,"target":34962},{"buffer":0,"byteLength":149248,"byteOffset":5049008,"target":34962},{"buffer":0,"byteLength":86016,"byteOffset":5198256,"target":34963},{"buffer":0,"byteLength":87360,"byteOffset":5284272,"target":34962},{"buffer":0,"byteLength":87360,"byteOffset":5371632,"target":34962},{"buffer":0,"byteLength":116480,"byteOffset":5458992,"target":34962},{"buffer":0,"byteLength":58240,"byteOffset":5575472,"target":34962},{"buffer":0,"byteLength":116480,"byteOffset":5633712,"target":34962},{"buffer":0,"byteLength":110112,"byteOffset":5750192,"target":34963},{"buffer":0,"byteLength":117408,"byteOffset":5860304,"target":34962},{"buffer":0,"byteLength":117408,"byteOffset":5977712,"target":34962},{"buffer":0,"byteLength":156544,"byteOffset":6095120,"target":34962},{"buffer":0,"byteLength":78272,"byteOffset":6251664,"target":34962},{"buffer":0,"byteLength":156544,"byteOffset":6329936,"target":34962},{"buffer":0,"byteLength":86016,"byteOffset":6486480,"target":34963},{"buffer":0,"byteLength":87360,"byteOffset":6572496,"target":34962},{"buffer":0,"byteLength":87360,"byteOffset":6659856,"target":34962},{"buffer":0,"byteLength":116480,"byteOffset":6747216,"target":34962},{"buffer":0,"byteLength":58240,"byteOffset":6863696,"target":34962},{"buffer":0,"byteLength":116480,"byteOffset":6921936,"target":34962},{"buffer":0,"byteLength":86016,"byteOffset":7038416,"target":34963},{"buffer":0,"byteLength":87360,"byteOffset":7124432,"target":34962},{"buffer":0,"byteLength":87360,"byteOffset":7211792,"target":34962},{"buffer":0,"byteLength":116480,"byteOffset":7299152,"target":34962},{"buffer":0,"byteLength":58240,"byteOffset":7415632,"target":34962},{"buffer":0,"byteLength":116480,"byteOffset":7473872,"target":34962},{"buffer":0,"byteLength":92160,"byteOffset":7590352,"target":34963},{"buffer":0,"byteLength":93456,"byteOffset":7682512,"target":34962},{"buffer":0,"byteLength":93456,"byteOffset":7775968,"target":34962},{"buffer":0,"byteLength":124608,"byteOffset":7869424,"target":34962},{"buffer":0,"byteLength":62304,"byteOffset":7994032,"target":34962},{"buffer":0,"byteLength":124608,"byteOffset":8056336,"target":34962},{"buffer":0,"byteLength":44544,"byteOffset":8180944,"target":34963},{"buffer":0,"byteLength":45192,"byteOffset":8225488,"target":34962},{"buffer":0,"byteLength":45192,"byteOffset":8270680,"target":34962},{"buffer":0,"byteLength":60256,"byteOffset":8315872,"target":34962},{"buffer":0,"byteLength":30128,"byteOffset":8376128,"target":34962},{"buffer":0,"byteLength":60256,"byteOffset":8406256,"target":34962},{"buffer":0,"byteLength":122880,"byteOffset":8466512,"target":34963},{"buffer":0,"byteLength":124224,"byteOffset":8589392,"target":34962},{"buffer":0,"byteLength":124224,"byteOffset":8713616,"target":34962},{"buffer":0,"byteLength":165632,"byteOffset":8837840,"target":34962},{"buffer":0,"byteLength":82816,"byteOffset":9003472,"target":34962},{"buffer":0,"byteLength":165632,"byteOffset":9086288,"target":34962},{"buffer":0,"byteLength":139056,"byteOffset":9251920,"target":34963},{"buffer":0,"byteLength":146544,"byteOffset":9390976,"target":34962},{"buffer":0,"byteLength":146544,"byteOffset":9537520,"target":34962},{"buffer":0,"byteLength":195392,"byteOffset":9684064,"target":34962},{"buffer":0,"byteLength":97696,"byteOffset":9879456,"target":34962},{"buffer":0,"byteLength":195392,"byteOffset":9977152,"target":34962},{"buffer":0,"byteLength":125952,"byteOffset":10172544,"target":34963},{"buffer":0,"byteLength":127296,"byteOffset":10298496,"target":34962},{"buffer":0,"byteLength":127296,"byteOffset":10425792,"target":34962},{"buffer":0,"byteLength":169728,"byteOffset":10553088,"target":34962},{"buffer":0,"byteLength":84864,"byteOffset":10722816,"target":34962},{"buffer":0,"byteLength":169728,"byteOffset":10807680,"target":34962},{"buffer":0,"byteLength":116736,"byteOffset":10977408,"target":34963},{"buffer":0,"byteLength":118176,"byteOffset":11094144,"target":34962},{"buffer":0,"byteLength":118176,"byteOffset":11212320,"target":34962},{"buffer":0,"byteLength":157568,"byteOffset":11330496,"target":34962},{"buffer":0,"byteLength":78784,"byteOffset":11488064,"target":34962},{"buffer":0,"byteLength":157568,"byteOffset":11566848,"target":34962},{"buffer":0,"byteLength":129024,"byteOffset":11724416,"target":34963},{"buffer":0,"byteLength":130464,"byteOffset":11853440,"target":34962},{"buffer":0,"byteLength":130464,"byteOffset":11983904,"target":34962},{"buffer":0,"byteLength":173952,"byteOffset":12114368,"target":34962},{"buffer":0,"byteLength":86976,"byteOffset":12288320,"target":34962},{"buffer":0,"byteLength":173952,"byteOffset":12375296,"target":34962},{"buffer":0,"byteLength":62976,"byteOffset":12549248,"target":34963},{"buffer":0,"byteLength":63684,"byteOffset":12612224,"target":34962},{"buffer":0,"byteLength":63684,"byteOffset":12675908,"target":34962},{"buffer":0,"byteLength":84912,"byteOffset":12739592,"target":34962},{"buffer":0,"byteLength":42456,"byteOffset":12824504,"target":34962},{"buffer":0,"byteLength":84912,"byteOffset":12866960,"target":34962},{"buffer":0,"byteLength":110592,"byteOffset":12951872,"target":34963},{"buffer":0,"byteLength":111840,"byteOffset":13062464,"target":34962},{"buffer":0,"byteLength":111840,"byteOffset":13174304,"target":34962},{"buffer":0,"byteLength":149120,"byteOffset":13286144,"target":34962},{"buffer":0,"byteLength":74560,"byteOffset":13435264,"target":34962},{"buffer":0,"byteLength":149120,"byteOffset":13509824,"target":34962},{"buffer":0,"byteLength":134256,"byteOffset":13658944,"target":34963},{"buffer":0,"byteLength":141456,"byteOffset":13793200,"target":34962},{"buffer":0,"byteLength":141456,"byteOffset":13934656,"target":34962},{"buffer":0,"byteLength":188608,"byteOffset":14076112,"target":34962},{"buffer":0,"byteLength":94304,"byteOffset":14264720,"target":34962},{"buffer":0,"byteLength":188608,"byteOffset":14359024,"target":34962},{"buffer":0,"byteLength":110592,"byteOffset":14547632,"target":34963},{"buffer":0,"byteLength":111840,"byteOffset":14658224,"target":34962},{"buffer":0,"byteLength":111840,"byteOffset":14770064,"target":34962},{"buffer":0,"byteLength":149120,"byteOffset":14881904,"target":34962},{"buffer":0,"byteLength":74560,"byteOffset":15031024,"target":34962},{"buffer":0,"byteLength":149120,"byteOffset":15105584,"target":34962},{"buffer":0,"byteLength":110592,"byteOffset":15254704,"target":34963},{"buffer":0,"byteLength":111840,"byteOffset":15365296,"target":34962},{"buffer":0,"byteLength":111840,"byteOffset":15477136,"target":34962},{"buffer":0,"byteLength":149120,"byteOffset":15588976,"target":34962},{"buffer":0,"byteLength":74560,"byteOffset":15738096,"target":34962},{"buffer":0,"byteLength":149120,"byteOffset":15812656,"target":34962},{"buffer":0,"byteLength":147456,"byteOffset":15961776,"target":34963},{"buffer":0,"byteLength":148896,"byteOffset":16109232,"target":34962},{"buffer":0,"byteLength":148896,"byteOffset":16258128,"target":34962},{"buffer":0,"byteLength":198528,"byteOffset":16407024,"target":34962},{"buffer":0,"byteLength":99264,"byteOffset":16605552,"target":34962},{"buffer":0,"byteLength":198528,"byteOffset":16704816,"target":34962},{"buffer":0,"byteLength":55296,"byteOffset":16903344,"target":34963},{"buffer":0,"byteLength":55920,"byteOffset":16958640,"target":34962},{"buffer":0,"byteLength":55920,"byteOffset":17014560,"target":34962},{"buffer":0,"byteLength":74560,"byteOffset":17070480,"target":34962},{"buffer":0,"byteLength":37280,"byteOffset":17145040,"target":34962},{"buffer":0,"byteLength":74560,"byteOffset":17182320,"target":34962},{"buffer":0,"byteLength":98304,"byteOffset":17256880,"target":34963},{"buffer":0,"byteLength":99648,"byteOffset":17355184,"target":34962},{"buffer":0,"byteLength":99648,"byteOffset":17454832,"target":34962},{"buffer":0,"byteLength":132864,"byteOffset":17554480,"target":34962},{"buffer":0,"byteLength":66432,"byteOffset":17687344,"target":34962},{"buffer":0,"byteLength":132864,"byteOffset":17753776,"target":34962},{"buffer":0,"byteLength":109056,"byteOffset":17886640,"target":34963},{"buffer":0,"byteLength":130944,"byteOffset":17995696,"target":34962},{"buffer":0,"byteLength":130944,"byteOffset":18126640,"target":34962},{"buffer":0,"byteLength":174592,"byteOffset":18257584,"target":34962},{"buffer":0,"byteLength":87296,"byteOffset":18432176,"target":34962},{"buffer":0,"byteLength":174592,"byteOffset":18519472,"target":34962},{"buffer":0,"byteLength":104448,"byteOffset":18694064,"target":34963},{"buffer":0,"byteLength":105792,"byteOffset":18798512,"target":34962},{"buffer":0,"byteLength":105792,"byteOffset":18904304,"target":34962},{"buffer":0,"byteLength":141056,"byteOffset":19010096,"target":34962},{"buffer":0,"byteLength":70528,"byteOffset":19151152,"target":34962},{"buffer":0,"byteLength":141056,"byteOffset":19221680,"target":34962},{"buffer":0,"byteLength":98304,"byteOffset":19362736,"target":34963},{"buffer":0,"byteLength":99648,"byteOffset":19461040,"target":34962},{"buffer":0,"byteLength":99648,"byteOffset":19560688,"target":34962},{"buffer":0,"byteLength":132864,"byteOffset":19660336,"target":34962},{"buffer":0,"byteLength":66432,"byteOffset":19793200,"target":34962},{"buffer":0,"byteLength":132864,"byteOffset":19859632,"target":34962},{"buffer":0,"byteLength":98304,"byteOffset":19992496,"target":34963},{"buffer":0,"byteLength":99648,"byteOffset":20090800,"target":34962},{"buffer":0,"byteLength":99648,"byteOffset":20190448,"target":34962},{"buffer":0,"byteLength":132864,"byteOffset":20290096,"target":34962},{"buffer":0,"byteLength":66432,"byteOffset":20422960,"target":34962},{"buffer":0,"byteLength":132864,"byteOffset":20489392,"target":34962},{"buffer":0,"byteLength":89088,"byteOffset":20622256,"target":34963},{"buffer":0,"byteLength":90432,"byteOffset":20711344,"target":34962},{"buffer":0,"byteLength":90432,"byteOffset":20801776,"target":34962},{"buffer":0,"byteLength":120576,"byteOffset":20892208,"target":34962},{"buffer":0,"byteLength":60288,"byteOffset":21012784,"target":34962},{"buffer":0,"byteLength":120576,"byteOffset":21073072,"target":34962}],"buffers":[{"byteLength":21193648,"uri":"gem_0.bin"}],"cameras":[{"extensions":{"S8S_v3d_camera":{"controls":"ORBIT","enablePan":true,"moveSpeed":1,"orbitMaxDistance":10000,"orbitMaxPolarAngle":3.141592653589793,"orbitMinDistance":0,"orbitMinPolarAngle":0,"orbitTarget":[0.01121834572404623,-0.014409012161195278,-0.008922758512198925],"rotateSpeed":1,"viewportFitInitialAspect":1,"viewportFitType":"VERTICAL"}},"name":"__DEFAULT__","perspective":{"aspectRatio":1,"yfov":0.7853981633974483,"zfar":5.0,"znear":0.0010000000474974513},"type":"perspective"}],"extensions":{"S8S_v3d_materials":{"nodeGraphs":[{"edges":[{"fromNode":4,"fromOutput":0,"toInput":0,"toNode":8},{"fromNode":4,"fromOutput":0,"toInput":0,"toNode":9},{"fromNode":4,"fromOutput":0,"toInput":0,"toNode":0},{"fromNode":2,"fromOutput":0,"toInput":1,"toNode":0},{"fromNode":3,"fromOutput":0,"toInput":1,"toNode":8},{"fromNode":1,"fromOutput":0,"toInput":1,"toNode":9},{"fromNode":13,"fromOutput":0,"toInput":0,"toNode":2},{"fromNode":13,"fromOutput":0,"toInput":2,"toNode":1},{"fromNode":13,"fromOutput":0,"toInput":1,"toNode":3},{"fromNode":14,"fromOutput":1,"toInput":0,"toNode":4},{"fromNode":0,"fromOutput":0,"toInput":4,"toNode":6},{"fromNode":8,"fromOutput":0,"toInput":4,"toNode":7},{"fromNode":9,"fromOutput":0,"toInput":4,"toNode":11},{"fromNode":6,"fromOutput":0,"toInput":0,"toNode":10},{"fromNode":7,"fromOutput":0,"toInput":1,"toNode":10},{"fromNode":10,"fromOutput":0,"toInput":0,"toNode":12},{"fromNode":11,"fromOutput":0,"toInput":1,"toNode":12},{"fromNode":12,"fromOutput":0,"toInput":0,"toNode":5}],"name":"inner_gem_material","nodes":[{"inputs":[[0.5,0.5,0.5],[0.5,0.5,0.5],[0.0,0.0,0.0],1.0],"is_active_output":false,"name":"Vector Math.003","operation":"ADD","outputs":[[0.0,0.0,0.0],0.0],"type":"VECT_MATH_BL"},{"inputs":[0.0,0.0,0.09999999403953552],"is_active_output":false,"name":"Combine XYZ.002","outputs":[[0.0,0.0,0.0]],"type":"COMBXYZ_BL"},{"inputs":[0.09999999403953552,0.0,0.0],"is_active_output":false,"name":"Combine XYZ","outputs":[[0.0,0.0,0.0]],"type":"COMBXYZ_BL"},{"inputs":[0.0,0.09999999403953552,0.0],"is_active_output":false,"name":"Combine XYZ.001","outputs":[[0.0,0.0,0.0]],"type":"COMBXYZ_BL"},{"inputs":[[0.0,0.0,0.0]],"is_active_output":false,"name":"Reroute.001","outputs":[[0.0,0.0,0.0]],"type":"REROUTE_BL"},{"inputs":[[0,0,0,0]],"is_active_output":true,"name":"Group Output","outputs":[],"type":"GROUP_OUTPUT_BL"},{"inputs":[[1.0,0.0,0.0,1.0],0.10000000149011612,0.0,0.0,[0.0,0.0,0.0],[0.0,0.0,0.0]],"is_active_output":false,"name":"Glossy BSDF","outputs":[[0,0,0,0]],"type":"BSDF_GLOSSY_BL"},{"inputs":[[0.0,1.0,0.0,1.0],0.10000000149011612,0.0,0.0,[0.0,0.0,0.0],[0.0,0.0,0.0]],"is_active_output":false,"name":"Glossy BSDF.001","outputs":[[0,0,0,0]],"type":"BSDF_GLOSSY_BL"},{"inputs":[[0.5,0.5,0.5],[0.5,0.5,0.5],[0.0,0.0,0.0],1.0],"is_active_output":false,"name":"Vector Math.001","operation":"ADD","outputs":[[0.0,0.0,0.0],0.0],"type":"VECT_MATH_BL"},{"inputs":[[0.5,0.5,0.5],[0.5,0.5,0.5],[0.0,0.0,0.0],1.0],"is_active_output":false,"name":"Vector Math.002","operation":"ADD","outputs":[[0.0,0.0,0.0],0.0],"type":"VECT_MATH_BL"},{"inputs":[[0,0,0,0],[0,0,0,0]],"is_active_output":false,"name":"Add Shader","outputs":[[0,0,0,0]],"type":"ADD_SHADER_BL"},{"inputs":[[0.0,0.0,1.0,1.0],0.10000000149011612,0.0,0.0,[0.0,0.0,0.0],[0.0,0.0,0.0]],"is_active_output":false,"name":"Glossy BSDF.002","outputs":[[0,0,0,0]],"type":"BSDF_GLOSSY_BL"},{"inputs":[[0,0,0,0],[0,0,0,0]],"is_active_output":false,"name":"Add Shader.001","outputs":[[0,0,0,0]],"type":"ADD_SHADER_BL"},{"inputs":[],"is_active_output":false,"name":"Group Input","outputs":[0.0],"type":"GROUP_INPUT_BL"},{"inputs":[],"is_active_output":false,"name":"Geometry.001","outputs":[[0.0,0.0,0.0],[0.0,0.0,0.0],[0.0,0.0,0.0],[0.0,0.0,0.0],[0.0,0.0,0.0],[0.0,0.0,0.0],0.0,0.0,0.0],"type":"NEW_GEOMETRY_BL"}]},{"edges":[{"fromNode":18,"fromOutput":0,"toInput":0,"toNode":23},{"fromNode":13,"fromOutput":0,"toInput":1,"toNode":6},{"fromNode":22,"fromOutput":2,"toInput":0,"toNode":6},{"fromNode":23,"fromOutput":0,"toInput":0,"toNode":22},{"fromNode":10,"fromOutput":2,"toInput":0,"toNode":9},{"fromNode":9,"fromOutput":0,"toInput":0,"toNode":8},{"fromNode":12,"fromOutput":0,"toInput":1,"toNode":14},{"fromNode":11,"fromOutput":0,"toInput":0,"toNode":10},{"fromNode":8,"fromOutput":0,"toInput":0,"toNode":14},{"fromNode":18,"fromOutput":0,"toInput":0,"toNode":17},{"fromNode":17,"fromOutput":0,"toInput":1,"toNode":19},{"fromNode":7,"fromOutput":0,"toInput":2,"toNode":6},{"fromNode":20,"fromOutput":2,"toInput":4,"toNode":7},{"fromNode":16,"fromOutput":0,"toInput":0,"toNode":20},{"fromNode":21,"fromOutput":1,"toInput":6,"toNode":20},{"fromNode":19,"fromOutput":0,"toInput":7,"toNode":20},{"fromNode":6,"fromOutput":0,"toInput":2,"toNode":14},{"fromNode":14,"fromOutput":0,"toInput":0,"toNode":24},{"fromNode":15,"fromOutput":2,"toInput":1,"toNode":7},{"fromNode":3,"fromOutput":2,"toInput":0,"toNode":7},{"fromNode":20,"fromOutput":2,"toInput":1,"toNode":2},{"fromNode":2,"fromOutput":0,"toInput":0,"toNode":3},{"fromNode":20,"fromOutput":2,"toInput":1,"toNode":4},{"fromNode":5,"fromOutput":2,"toInput":6,"toNode":3},{"fromNode":4,"fromOutput":1,"toInput":0,"toNode":5},{"fromNode":15,"fromOutput":0,"toInput":6,"toNode":5},{"fromNode":15,"fromOutput":1,"toInput":7,"toNode":5}],"name":"metall_material","nodes":[{"inputs":[],"is_active_output":false,"name":"Frame","outputs":[],"type":"FRAME_BL"},{"inputs":[],"is_active_output":false,"name":"Frame.001","outputs":[],"type":"FRAME_BL"},{"inputs":[1.4500000476837158,[0.0,0.0,0.0]],"is_active_output":false,"name":"Fresnel","outputs":[0.0],"type":"FRESNEL_BL"},{"blendType":"MIX","clampFactor":true,"clampResult":false,"dataType":"RGBA","factorMode":"UNIFORM","inputs":[0.5,[0.5,0.5,0.5],0.0,0.0,[0.0,0.0,0.0],[0.0,0.0,0.0],[0.5,0.5,0.5,1.0],[0.6795570850372314,0.6795570850372314,0.6795570850372314,1.0],0,0],"is_active_output":false,"name":"Mix.002","outputs":[0.0,[0.0,0.0,0.0],[0.0,0.0,0.0,0.0],0],"type":"MIX_BL"},{"inputs":[0.5,[0.0,0.0,0.0]],"is_active_output":false,"name":"Layer Weight","outputs":[0.0,0.0],"type":"LAYER_WEIGHT_BL"},{"blendType":"MIX","clampFactor":true,"clampResult":false,"dataType":"RGBA","factorMode":"UNIFORM","inputs":[0.5,[0.5,0.5,0.5],0.0,0.0,[0.0,0.0,0.0],[0.0,0.0,0.0],[0.5,0.5,0.5,1.0],[0.5,0.5,0.5,1.0],0,0],"is_active_output":false,"name":"Mix.003","outputs":[0.0,[0.0,0.0,0.0],[0.0,0.0,0.0,0.0],0],"type":"MIX_BL"},{"inputs":[0.5,[0,0,0,0],[0,0,0,0]],"is_active_output":false,"name":"Mix Shader","outputs":[[0,0,0,0]],"type":"MIX_SHADER_BL"},{"inputs":[[0.6266327500343323,0.6266327500343323,0.6266327500343323,1.0],0.0,0.0,0.0,[0.0,0.0,0.0],[0.0,0.0,0.0]],"is_active_output":false,"name":"Glossy BSDF","outputs":[[0,0,0,0]],"type":"BSDF_GLOSSY_BL"},{"inputs":[0.5,23.39999771118164,0.5],"is_active_output":false,"name":"Math.001","operation":"MULTIPLY","outputs":[0.0],"type":"MATH_BL","useClamp":true},{"inputs":[0.5,0.07000000029802322,0.5],"is_active_output":false,"name":"Math","operation":"ADD","outputs":[0.0],"type":"MATH_BL","useClamp":false},{"inputs":[[0.800000011920929,0.800000011920929,0.800000011920929,1.0]],"is_active_output":false,"mode":"RGB","name":"Separate RGB","outputs":[0.0,0.0,0.0],"type":"SEPARATE_COLOR_BL"},{"inputs":[],"is_active_output":false,"name":"Geometry","outputs":[[0.0,0.0,0.0],[0.0,0.0,0.0],[0.0,0.0,0.0],[0.0,0.0,0.0],[0.0,0.0,0.0],[0.0,0.0,0.0],0.0,0.0,0.0],"type":"NEW_GEOMETRY_BL"},{"inputs":[[1.0,1.0,1.0,1.0],1.0],"is_active_output":false,"name":"Emission.001","outputs":[[0,0,0,0]],"type":"EMISSION_BL"},{"inputs":[[0.0,0.0,0.0,1.0],0.0,[0.0,0.0,0.0]],"is_active_output":false,"name":"Diffuse BSDF","outputs":[[0,0,0,0]],"type":"BSDF_DIFFUSE_BL"},{"inputs":[0.5,[0,0,0,0],[0,0,0,0]],"is_active_output":false,"name":"Mix Shader.001","outputs":[[0,0,0,0]],"type":"MIX_SHADER_BL"},{"inputs":[],"is_active_output":false,"name":"Group Input","outputs":[[0.0,0.0,0.0,1.0],[0.0,0.0,0.0,1.0],0.0],"type":"GROUP_INPUT_BL"},{"colorLayer":"engrave_mask","inputs":[],"is_active_output":false,"name":"Attribute","outputs":[[0.0,0.0,0.0,0.0],[0.0,0.0,0.0],0.0,0.0],"type":"ATTRIBUTE_BL"},{"alphaMode":"STRAIGHT","inputs":[[0.0,0.0,0.0]],"is_active_output":false,"name":"Image Texture.001","outputs":[[0.0,0.0,0.0,0.0],0.0],"projection":"FLAT","projectionBlend":0.0,"texture":1,"type":"TEX_IMAGE_BL"},{"inputs":[],"is_active_output":false,"name":"UV Map","outputs":[[0.0,0.0,0.0]],"type":"UVMAP_BL","uvLayer":"engrave"},{"inputs":[1.0,[0.5,0.5,1.0,1.0]],"is_active_output":false,"name":"Normal Map","outputs":[[0.0,0.0,0.0]],"type":"NORMAL_MAP_BL","uvLayer":"engrave"},{"blendType":"MIX","clampFactor":true,"clampResult":false,"dataType":"RGBA","factorMode":"UNIFORM","inputs":[0.5,[0.5,0.5,0.5],0.0,0.0,[0.0,0.0,0.0],[0.0,0.0,0.0],[0.5,0.5,0.5,1.0],[0.5,0.5,0.5,1.0],0,0],"is_active_output":false,"name":"Mix.001","outputs":[0.0,[0.0,0.0,0.0],[0.0,0.0,0.0,0.0],0],"type":"MIX_BL"},{"inputs":[],"is_active_output":false,"name":"Geometry.001","outputs":[[0.0,0.0,0.0],[0.0,0.0,0.0],[0.0,0.0,0.0],[0.0,0.0,0.0],[0.0,0.0,0.0],[0.0,0.0,0.0],0.0,0.0,0.0],"type":"NEW_GEOMETRY_BL"},{"blendType":"MIX","clampFactor":true,"clampResult":false,"dataType":"RGBA","factorMode":"UNIFORM","inputs":[0.5,[0.5,0.5,0.5],0.0,0.0,[0.0,0.0,0.0],[0.0,0.0,0.0],[0.7743505835533142,0.7743505835533142,0.7743505835533142,1.0],[1.0,1.0,1.0,1.0],0,0],"is_active_output":false,"name":"Mix","outputs":[0.0,[0.0,0.0,0.0],[0.0,0.0,0.0,0.0],0],"type":"MIX_BL"},{"alphaMode":"STRAIGHT","inputs":[[0.0,0.0,0.0]],"is_active_output":false,"name":"Image Texture","outputs":[[0.0,0.0,0.0,0.0],0.0],"projection":"FLAT","projectionBlend":0.0,"texture":2,"type":"TEX_IMAGE_BL"},{"inputs":[[0,0,0,0]],"is_active_output":true,"name":"Group Output","outputs":[],"type":"GROUP_OUTPUT_BL"}]},{"edges":[{"fromNode":1,"fromOutput":1,"toInput":1,"toNode":11},{"fromNode":7,"fromOutput":0,"toInput":0,"toNode":8},{"fromNode":8,"fromOutput":0,"toInput":0,"toNode":0},{"fromNode":1,"fromOutput":1,"toInput":1,"toNode":8},{"fromNode":0,"fromOutput":0,"toInput":0,"toNode":2},{"fromNode":4,"fromOutput":0,"toInput":1,"toNode":9},{"fromNode":9,"fromOutput":0,"toInput":0,"toNode":13},{"fromNode":10,"fromOutput":0,"toInput":2,"toNode":9},{"fromNode":11,"fromOutput":0,"toInput":0,"toNode":9},{"fromNode":2,"fromOutput":0,"toInput":6,"toNode":3},{"fromNode":3,"fromOutput":2,"toInput":6,"toNode":5},{"fromNode":12,"fromOutput":0,"toInput":7,"toNode":3},{"fromNode":5,"fromOutput":2,"toInput":0,"toNode":4},{"fromNode":12,"fromOutput":0,"toInput":0,"toNode":6},{"fromNode":6,"fromOutput":2,"toInput":7,"toNode":5}],"name":"outer_gem_material","nodes":[{"dispersionFactor":1.0,"falloffFactor":0.0,"inputs":[[0.0,0.0,0.0],0.0,1.8000000715255737,0.8999999761581421,0.5,2.0,0.0],"is_active_output":false,"name":"Noise Texture.001","outputs":[0.0,[0.0,0.0,0.0,0.0]],"type":"TEX_NOISE_BL"},{"inputs":[],"is_active_output":false,"name":"Geometry","outputs":[[0.0,0.0,0.0],[0.0,0.0,0.0],[0.0,0.0,0.0],[0.0,0.0,0.0],[0.0,0.0,0.0],[0.0,0.0,0.0],0.0,0.0,0.0],"type":"NEW_GEOMETRY_BL"},{"curve":{"input":[0.0,0.6272729635238647],"interpolation":"LINEAR","output":[0.28444889187812805,0.28444889187812805,0.28444889187812805,1.0,1.0,1.0,1.0,1.0]},"inputs":[0.5],"is_active_output":false,"name":"ColorRamp.001","outputs":[[0.0,0.0,0.0,0.0],0.0],"type":"VALTORGB_BL"},{"blendType":"COLOR","clampFactor":true,"clampResult":false,"dataType":"RGBA","factorMode":"UNIFORM","inputs":[1.0,[0.5,0.5,0.5],0.0,0.0,[0.0,0.0,0.0],[0.0,0.0,0.0],[0.5,0.5,0.5,1.0],[0.23454074561595917,0.49895036220550537,1.0,1.0],0,0],"is_active_output":false,"name":"Mix","outputs":[0.0,[0.0,0.0,0.0],[0.0,0.0,0.0,0.0],0],"type":"MIX_BL"},{"distribution":"BECKMANN","inputs":[[0.09989873319864273,0.004391442518681288,0.0,1.0],0.0,3.5,[0.0,0.0,0.0]],"is_active_output":false,"name":"Refraction BSDF","outputs":[[0,0,0,0]],"type":"BSDF_REFRACTION_BL"},{"blendType":"MULTIPLY","clampFactor":true,"clampResult":false,"dataType":"RGBA","factorMode":"UNIFORM","inputs":[1.0,[0.5,0.5,0.5],0.0,0.0,[0.0,0.0,0.0],[0.0,0.0,0.0],[0.5,0.5,0.5,1.0],[0.5,0.5,0.5,1.0],0,0],"is_active_output":false,"name":"Mix.001","outputs":[0.0,[0.0,0.0,0.0],[0.0,0.0,0.0,0.0],0],"type":"MIX_BL"},{"inputs":[[0.800000011920929,0.800000011920929,0.800000011920929,1.0]],"is_active_output":false,"mode":"HSV","name":"Separate HSV","outputs":[0.0,0.0,0.0],"type":"SEPARATE_COLOR_BL"},{"inputs":[],"is_active_output":false,"name":"Texture Coordinate","object":-1,"outputs":[[0.0,0.0,0.0],[0.0,0.0,0.0],[0.0,0.0,0.0],[0.0,0.0,0.0],[0.0,0.0,0.0],[0.0,0.0,0.0],[0.0,0.0,0.0]],"type":"TEX_COORD_BL"},{"inputs":[[0.5,0.5,0.5],[0.5,0.5,0.5],[0.0,0.0,0.0],1.0],"is_active_output":false,"name":"Vector Math","operation":"ADD","outputs":[[0.0,0.0,0.0],0.0],"type":"VECT_MATH_BL"},{"inputs":[0.5,[0,0,0,0],[0,0,0,0]],"is_active_output":false,"name":"Mix Shader","outputs":[[0,0,0,0]],"type":"MIX_SHADER_BL"},{"inputs":[[0.800000011920929,0.800000011920929,0.800000011920929,1.0],0.0,0.0,0.0,[0.0,0.0,0.0],[0.0,0.0,0.0]],"is_active_output":false,"name":"Glossy BSDF","outputs":[[0,0,0,0]],"type":"BSDF_GLOSSY_BL"},{"inputs":[2.499999523162842,[0.0,0.0,0.0]],"is_active_output":false,"name":"Fresnel","outputs":[0.0],"type":"FRESNEL_BL"},{"inputs":[],"is_active_output":false,"name":"Group Input","outputs":[[0.0,0.0,0.0,1.0]],"type":"GROUP_INPUT_BL"},{"inputs":[[0,0,0,0]],"is_active_output":true,"name":"Group Output","outputs":[],"type":"GROUP_OUTPUT_BL"}]}]}},"extensionsUsed":["S8S_v3d_texture","S8S_v3d_materials","S8S_v3d_camera","S8S_v3d_mesh","S8S_v3d_node","S8S_v3d_scene"],"images":[{"uri":"environment.hdr"},{"uri":"engrave_normal.jpg"},{"uri":"engrave_ao.jpg"}],"materials":[{"extensions":{"S8S_v3d_materials":{"gtaoVisible":true,"materialIndex":0,"nodeGraph":{"edges":[{"fromNode":2,"fromOutput":0,"toInput":0,"toNode":1},{"fromNode":0,"fromOutput":0,"toInput":0,"toNode":2}],"nodes":[{"inputs":[],"is_active_output":false,"name":"Value","outputs":[0.009999999776482582],"type":"VALUE_BL"},{"inputs":[[0,0,0,0],[0,0,0,0],[0.0,0.0,0.0],0.0],"is_active_output":true,"name":"Material Output","outputs":[],"type":"OUTPUT_MATERIAL_BL"},{"inputs":[0.0],"is_active_output":false,"name":"Group","nodeGraph":0,"outputs":[[0,0,0,0]],"type":"GROUP_BL"}]},"useCastShadows":true}},"name":"gem_inner"},{"extensions":{"S8S_v3d_materials":{"gtaoVisible":true,"materialIndex":0,"nodeGraph":{"edges":[{"fromNode":0,"fromOutput":0,"toInput":0,"toNode":2},{"fromNode":1,"fromOutput":0,"toInput":0,"toNode":0}],"nodes":[{"inputs":[[0.0,0.0,0.0,1.0]],"is_active_output":false,"name":"Group","nodeGraph":2,"outputs":[[0,0,0,0]],"type":"GROUP_BL"},{"inputs":[],"is_active_output":false,"name":"gem_color","outputs":[[0.800000011920929,0.800000011920929,0.800000011920929,1.0]],"type":"RGB_BL"},{"inputs":[[0,0,0,0],[0,0,0,0],[0.0,0.0,0.0],0.0],"is_active_output":true,"name":"Material Output","outputs":[],"type":"OUTPUT_MATERIAL_BL"}]},"useCastShadows":true}},"name":"gem_outer"},{"extensions":{"S8S_v3d_materials":{"gtaoVisible":true,"materialIndex":0,"nodeGraph":{"edges":[{"fromNode":4,"fromOutput":0,"toInput":0,"toNode":3},{"fromNode":1,"fromOutput":0,"toInput":1,"toNode":4},{"fromNode":0,"fromOutput":0,"toInput":0,"toNode":4},{"fromNode":2,"fromOutput":0,"toInput":2,"toNode":4}],"nodes":[{"inputs":[],"is_active_output":false,"name":"metall_color_1","outputs":[[0.7293471693992615,0.7293471693992615,0.7293471693992615,1.0]],"type":"RGB_BL"},{"inputs":[],"is_active_output":false,"name":"metall_color_2","outputs":[[0.5382355451583862,0.5382355451583862,0.5382355451583862,1.0]],"type":"RGB_BL"},{"inputs":[],"is_active_output":false,"name":"metall_roughness","outputs":[0.0],"type":"VALUE_BL"},{"inputs":[[0,0,0,0],[0,0,0,0],[0.0,0.0,0.0],0.0],"is_active_output":true,"name":"Material Output","outputs":[],"type":"OUTPUT_MATERIAL_BL"},{"inputs":[[0.0,0.0,0.0,1.0],[0.0,0.0,0.0,1.0],0.0],"is_active_output":false,"name":"Group","nodeGraph":1,"outputs":[[0,0,0,0]],"type":"GROUP_BL"}]},"useCastShadows":true}},"name":"metall"},{"extensions":{"S8S_v3d_materials":{"gtaoVisible":true,"materialIndex":0,"nodeGraph":{"edges":[{"fromNode":2,"fromOutput":0,"toInput":0,"toNode":0},{"fromNode":4,"fromOutput":0,"toInput":6,"toNode":3},{"fromNode":1,"fromOutput":0,"toInput":0,"toNode":3},{"fromNode":3,"fromOutput":2,"toInput":0,"toNode":2}],"nodes":[{"inputs":[[0,0,0,0],[0,0,0,0]],"is_active_output":true,"name":"World Output","outputs":[],"type":"OUTPUT_WORLD_BL"},{"inputs":[],"is_active_output":false,"name":"Light Path","outputs":[0.0,0.0,0.0,0.0,0.0,0.0,0.0,0.0,0.0,0.0,0.0,0.0,0.0],"type":"LIGHT_PATH_BL"},{"inputs":[[1.0,1.0,1.0,1.0],1.0000001192092896],"is_active_output":false,"name":"Background","outputs":[[0,0,0,0]],"type":"BACKGROUND_BL"},{"blendType":"MIX","clampFactor":true,"clampResult":false,"dataType":"RGBA","factorMode":"UNIFORM","inputs":[0.5,[0.5,0.5,0.5],0.0,0.0,[0.0,0.0,0.0],[0.0,0.0,0.0],[0.5,0.5,0.5,1.0],[1.0,1.0,1.0,1.0],0,0],"is_active_output":false,"name":"Mix","outputs":[0.0,[0.0,0.0,0.0],[0.0,0.0,0.0,0.0],0],"type":"MIX_BL"},{"inputs":[[0.0,0.0,0.0]],"is_active_output":false,"name":"Environment Texture","outputs":[[0.0,0.0,0.0,0.0]],"projection":"EQUIRECTANGULAR","texture":0,"type":"TEX_ENVIRONMENT_BL"}]},"useCastShadows":true}},"name":"Verge3D_Environment_World"}],"meshes":[{"extensions":{"S8S_v3d_mesh":{"colorLayers":{},"uvLayers":{}}},"name":"gem_1_line_1_inside","primitives":[{"attributes":{"NORMAL":2,"POSITION":1},"indices":0,"material":0,"mode":4}]},{"extensions":{"S8S_v3d_mesh":{"colorLayers":{},"uvLayers":{}}},"name":"gem_1_line_1_inside.001","primitives":[{"attributes":{"NORMAL":5,"POSITION":4},"indices":3,"material":0,"mode":4}]},{"extensions":{"S8S_v3d_mesh":{"colorLayers":{},"uvLayers":{}}},"name":"gem_1_line_1_inside.002","primitives":[{"attributes":{"NORMAL":8,"POSITION":7},"indices":6,"material":0,"mode":4}]},{"extensions":{"S8S_v3d_mesh":{"colorLayers":{},"uvLayers":{}}},"name":"gem_1_line_1_inside.003","primitives":[{"attributes":{"NORMAL":11,"POSITION":10},"indices":9,"material":0,"mode":4}]},{"extensions":{"S8S_v3d_mesh":{"colorLayers":{},"uvLayers":{}}},"name":"gem_1_line_1_inside.004","primitives":[{"attributes":{"NORMAL":14,"POSITION":13},"indices":12,"material":0,"mode":4}]},{"extensions":{"S8S_v3d_mesh":{"colorLayers":{},"uvLayers":{}}},"name":"gem_1_line_1_outside","primitives":[{"attributes":{"NORMAL":17,"POSITION":16},"indices":15,"material":1,"mode":4}]},{"extensions":{"S8S_v3d_mesh":{"colorLayers":{},"uvLayers":{}}},"name":"gem_1_line_1_outside.001","primitives":[{"attributes":{"NORMAL":20,"POSITION":19},"indices":18,"material":1,"mode":4}]},{"extensions":{"S8S_v3d_mesh":{"colorLayers":{},"uvLayers":{}}},"name":"gem_1_line_1_outside.002","primitives":[{"attributes":{"NORMAL":23,"POSITION":22},"indices":21,"material":1,"mode":4}]},{"extensions":{"S8S_v3d_mesh":{"colorLayers":{},"uvLayers":{}}},"name":"gem_1_line_1_outside.003","primitives":[{"attributes":{"NORMAL":26,"POSITION":25},"indices":24,"material":1,"mode":4}]},{"extensions":{"S8S_v3d_mesh":{"colorLayers":{},"uvLayers":{}}},"name":"gem_1_line_1_outside.004","primitives":[{"attributes":{"NORMAL":29,"POSITION":28},"indices":27,"material":1,"mode":4}]},{"extensions":{"S8S_v3d_mesh":{"colorLayers":{"engrave_mask":"COLOR_0"},"uvLayers":{"engrave":"TEXCOORD_0"}}},"name":"ring_type_1_gem_0_curve3_line_0","primitives":[{"attributes":{"COLOR_0":35,"NORMAL":32,"POSITION":31,"TANGENT":33,"TEXCOORD_0":34},"indices":30,"material":2,"mode":4}]},{"extensions":{"S8S_v3d_mesh":{"colorLayers":{"engrave_mask":"COLOR_0"},"uvLayers":{"engrave":"TEXCOORD_0"}}},"name":"ring_type_1_gem_0_curve_0_line_0","primitives":[{"attributes":{"COLOR_0":41,"NORMAL":38,"POSITION":37,"TANGENT":39,"TEXCOORD_0":40},"indices":36,"material":2,"mode":4}]},{"extensions":{"S8S_v3d_mesh":{"colorLayers":{"engrave_mask":"COLOR_0"},"uvLayers":{"engrave":"TEXCOORD_0"}}},"name":"ring_type_1_gem_0_curve_0_line_1","primitives":[{"attributes":{"COLOR_0":47,"NORMAL":44,"POSITION":43,"TANGENT":45,"TEXCOORD_0":46},"indices":42,"material":2,"mode":4}]},{"extensions":{"S8S_v3d_mesh":{"colorLayers":{"engrave_mask":"COLOR_0"},"uvLayers":{"engrave":"TEXCOORD_0"}}},"name":"ring_type_1_gem_0_curve_1_line_0","primitives":[{"attributes":{"COLOR_0":53,"NORMAL":50,"POSITION":49,"TANGENT":51,"TEXCOORD_0":52},"indices":48,"material":2,"mode":4}]},{"extensions":{"S8S_v3d_mesh":{"colorLayers":{"engrave_mask":"COLOR_0"},"uvLayers":{"engrave":"TEXCOORD_0"}}},"name":"ring_type_1_gem_0_curve_2_line_0","primitives":[{"attributes":{"COLOR_0":59,"NORMAL":56,"POSITION":55,"TANGENT":57,"TEXCOORD_0":58},"indices":54,"material":2,"mode":4}]},{"extensions":{"S8S_v3d_mesh":{"colorLayers":{"engrave_mask":"COLOR_0"},"uvLayers":{"engrave":"TEXCOORD_0"}}},"name":"ring_type_1_gem_0_curve_4_line_0","primitives":[{"attributes":{"COLOR_0":65,"NORMAL":62,"POSITION":61,"TANGENT":63,"TEXCOORD_0":64},"indices":60,"material":2,"mode":4}]},{"extensions":{"S8S_v3d_mesh":{"colorLayers":{"engrave_mask":"COLOR_0"},"uvLayers":{"engrave":"TEXCOORD_0"}}},"name":"ring_type_2_gem_0_curve_0_line_0","primitives":[{"attributes":{"COLOR_0":71,"NORMAL":68,"POSITION":67,"TANGENT":69,"TEXCOORD_0":70},"indices":66,"material":2,"mode":4}]},{"extensions":{"S8S_v3d_mesh":{"colorLayers":{"engrave_mask":"COLOR_0"},"uvLayers":{"engrave":"TEXCOORD_0"}}},"name":"ring_type_2_gem_0_curve_0_line_1","primitives":[{"attributes":{"COLOR_0":77,"NORMAL":74,"POSITION":73,"TANGENT":75,"TEXCOORD_0":76},"indices":72,"material":2,"mode":4}]},{"extensions":{"S8S_v3d_mesh":{"colorLayers":{"engrave_mask":"COLOR_0"},"uvLayers":{"engrave":"TEXCOORD_0"}}},"name":"ring_type_2_gem_0_curve_1_line_0","primitives":[{"attributes":{"COLOR_0":83,"NORMAL":80,"POSITION":79,"TANGENT":81,"TEXCOORD_0":82},"indices":78,"material":2,"mode":4}]},{"extensions":{"S8S_v3d_mesh":{"colorLayers":{"engrave_mask":"COLOR_0"},"uvLayers":{"engrave":"TEXCOORD_0"}}},"name":"ring_type_2_gem_0_curve_2_line_0","primitives":[{"attributes":{"COLOR_0":89,"NORMAL":86,"POSITION":85,"TANGENT":87,"TEXCOORD_0":88},"indices":84,"material":2,"mode":4}]},{"extensions":{"S8S_v3d_mesh":{"colorLayers":{"engrave_mask":"COLOR_0"},"uvLayers":{"engrave":"TEXCOORD_0"}}},"name":"ring_type_2_gem_0_curve_3_line_0","primitives":[{"attributes":{"COLOR_0":95,"NORMAL":92,"POSITION":91,"TANGENT":93,"TEXCOORD_0":94},"indices":90,"material":2,"mode":4}]},{"extensions":{"S8S_v3d_mesh":{"colorLayers":{"engrave_mask":"COLOR_0"},"uvLayers":{"engrave":"TEXCOORD_0"}}},"name":"ring_type_2_gem_0_curve_4_line_0","primitives":[{"attributes":{"COLOR_0":101,"NORMAL":98,"POSITION":97,"TANGENT":99,"TEXCOORD_0":100},"indices":96,"material":2,"mode":4}]},{"extensions":{"S8S_v3d_mesh":{"colorLayers":{"engrave_mask":"COLOR_0"},"uvLayers":{"UVMap":"TEXCOORD_0"}}},"name":"ring_type_3_gem_0_curve_0_line_0","primitives":[{"attributes":{"COLOR_0":107,"NORMAL":104,"POSITION":103,"TANGENT":105,"TEXCOORD_0":106},"indices":102,"material":2,"mode":4}]},{"extensions":{"S8S_v3d_mesh":{"colorLayers":{"engrave_mask":"COLOR_0"},"uvLayers":{"engrave":"TEXCOORD_0"}}},"name":"ring_type_3_gem_0_curve_0_line_1","primitives":[{"attributes":{"COLOR_0":113,"NORMAL":110,"POSITION":109,"TANGENT":111,"TEXCOORD_0":112},"indices":108,"material":2,"mode":4}]},{"extensions":{"S8S_v3d_mesh":{"colorLayers":{"engrave_mask":"COLOR_0"},"uvLayers":{"engrave":"TEXCOORD_0"}}},"name":"ring_type_3_gem_0_curve_1_line_0","primitives":[{"attributes":{"COLOR_0":119,"NORMAL":116,"POSITION":115,"TANGENT":117,"TEXCOORD_0":118},"indices":114,"material":2,"mode":4}]},{"extensions":{"S8S_v3d_mesh":{"colorLayers":{"engrave_mask":"COLOR_0"},"uvLayers":{"engrave":"TEXCOORD_0"}}},"name":"ring_type_3_gem_0_curve_2_line_0","primitives":[{"attributes":{"COLOR_0":125,"NORMAL":122,"POSITION":121,"TANGENT":123,"TEXCOORD_0":124},"indices":120,"material":2,"mode":4}]},{"extensions":{"S8S_v3d_mesh":{"colorLayers":{"engrave_mask":"COLOR_0"},"uvLayers":{"engrave":"TEXCOORD_0"}}},"name":"ring_type_3_gem_0_curve_3_line_0","primitives":[{"attributes":{"COLOR_0":131,"NORMAL":128,"POSITION":127,"TANGENT":129,"TEXCOORD_0":130},"indices":126,"material":2,"mode":4}]},{"extensions":{"S8S_v3d_mesh":{"colorLayers":{"engrave_mask":"COLOR_0"},"uvLayers":{"engrave":"TEXCOORD_0"}}},"name":"ring_type_3_gem_0_curve_4_line_0","primitives":[{"attributes":{"COLOR_0":137,"NORMAL":134,"POSITION":133,"TANGENT":135,"TEXCOORD_0":136},"indices":132,"material":2,"mode":4}]},{"extensions":{"S8S_v3d_mesh":{"colorLayers":{"engrave_mask":"COLOR_0"},"uvLayers":{"engrave":"TEXCOORD_0"}}},"name":"ring_type_4_gem_0_curve_0_line_0","primitives":[{"attributes":{"COLOR_0":143,"NORMAL":140,"POSITION":139,"TANGENT":141,"TEXCOORD_0":142},"indices":138,"material":2,"mode":4}]},{"extensions":{"S8S_v3d_mesh":{"colorLayers":{"engrave_mask":"COLOR_0"},"uvLayers":{"engrave":"TEXCOORD_0"}}},"name":"ring_type_4_gem_0_curve_0_line_1","primitives":[{"attributes":{"COLOR_0":149,"NORMAL":146,"POSITION":145,"TANGENT":147,"TEXCOORD_0":148},"indices":144,"material":2,"mode":4}]},{"extensions":{"S8S_v3d_mesh":{"colorLayers":{"engrave_mask":"COLOR_0"},"uvLayers":{"engrave":"TEXCOORD_0"}}},"name":"ring_type_4_gem_0_curve_1_line_0","primitives":[{"attributes":{"COLOR_0":155,"NORMAL":152,"POSITION":151,"TANGENT":153,"TEXCOORD_0":154},"indices":150,"material":2,"mode":4}]},{"extensions":{"S8S_v3d_mesh":{"colorLayers":{"engrave_mask":"COLOR_0"},"uvLayers":{"engrave":"TEXCOORD_0"}}},"name":"ring_type_4_gem_0_curve_2_line_0","primitives":[{"attributes":{"COLOR_0":161,"NORMAL":158,"POSITION":157,"TANGENT":159,"TEXCOORD_0":160},"indices":156,"material":2,"mode":4}]},{"extensions":{"S8S_v3d_mesh":{"colorLayers":{"engrave_mask":"COLOR_0"},"uvLayers":{"engrave":"TEXCOORD_0"}}},"name":"ring_type_4_gem_0_curve_3_line_0","primitives":[{"attributes":{"COLOR_0":167,"NORMAL":164,"POSITION":163,"TANGENT":165,"TEXCOORD_0":166},"indices":162,"material":2,"mode":4}]},{"extensions":{"S8S_v3d_mesh":{"colorLayers":{"engrave_mask":"COLOR_0"},"uvLayers":{"engrave":"TEXCOORD_0"}}},"name":"ring_type_4_gem_0_curve_4_line_0","primitives":[{"attributes":{"COLOR_0":173,"NORMAL":170,"POSITION":169,"TANGENT":171,"TEXCOORD_0":172},"indices":168,"material":2,"mode":4}]},{"extensions":{"S8S_v3d_mesh":{"colorLayers":{"engrave_mask":"COLOR_0"},"uvLayers":{"UVMap":"TEXCOORD_0"}}},"name":"ring_type_5_gem_0_curve_0_line_0","primitives":[{"attributes":{"COLOR_0":179,"NORMAL":176,"POSITION":175,"TANGENT":177,"TEXCOORD_0":178},"indices":174,"material":2,"mode":4}]},{"extensions":{"S8S_v3d_mesh":{"colorLayers":{"engrave_mask":"COLOR_0"},"uvLayers":{"engrave":"TEXCOORD_0"}}},"name":"ring_type_5_gem_0_curve_0_line_1","primitives":[{"attributes":{"COLOR_0":185,"NORMAL":182,"POSITION":181,"TANGENT":183,"TEXCOORD_0":184},"indices":180,"material":2,"mode":4}]},{"extensions":{"S8S_v3d_mesh":{"colorLayers":{"engrave_mask":"COLOR_0"},"uvLayers":{"engrave":"TEXCOORD_0"}}},"name":"ring_type_5_gem_0_curve_1_line_0","primitives":[{"attributes":{"COLOR_0":191,"NORMAL":188,"POSITION":187,"TANGENT":189,"TEXCOORD_0":190},"indices":186,"material":2,"mode":4}]},{"extensions":{"S8S_v3d_mesh":{"colorLayers":{"engrave_mask":"COLOR_0"},"uvLayers":{"engrave":"TEXCOORD_0"}}},"name":"ring_type_5_gem_0_curve_2_line_0","primitives":[{"attributes":{"COLOR_0":197,"NORMAL":194,"POSITION":193,"TANGENT":195,"TEXCOORD_0":196},"indices":192,"material":2,"mode":4}]},{"extensions":{"S8S_v3d_mesh":{"colorLayers":{"engrave_mask":"COLOR_0"},"uvLayers":{"engrave":"TEXCOORD_0"}}},"name":"ring_type_5_gem_0_curve_3_line_0","primitives":[{"attributes":{"COLOR_0":203,"NORMAL":200,"POSITION":199,"TANGENT":201,"TEXCOORD_0":202},"indices":198,"material":2,"mode":4}]},{"extensions":{"S8S_v3d_mesh":{"colorLayers":{"engrave_mask":"COLOR_0"},"uvLayers":{"engrave":"TEXCOORD_0"}}},"name":"ring_type_5_gem_0_curve_4_line_0","primitives":[{"attributes":{"COLOR_0":209,"NORMAL":206,"POSITION":205,"TANGENT":207,"TEXCOORD_0":208},"indices":204,"material":2,"mode":4}]}],"nodes":[{"extensions":{"S8S_v3d_node":{"frustumCulling":true,"groupNames":["gem_0_curve_0_line_0"],"hidden":true,"hidpiCompositing":false,"objectColor":[1.0,1.0,1.0,1.0],"objectIndex":0,"renderOrder":0,"useShadows":true}},"mesh":11,"name":"ring_type_1_gem_0_curve_0_line_0","translation":[0.0,1.4999999621068127e-05,-0.0]},{"extensions":{"S8S_v3d_node":{"frustumCulling":true,"groupNames":["gem_0_curve_1_line_0"],"hidden":true,"hidpiCompositing":false,"objectColor":[1.0,1.0,1.0,1.0],"objectIndex":0,"renderOrder":0,"useShadows":true}},"mesh":31,"name":"ring_type_4_gem_0_curve_1_line_0","translation":[0.0,2.9999999242136255e-05,-0.0]},{"extensions":{"S8S_v3d_node":{"frustumCulling":true,"groupNames":["gem_0_curve_3_line_0"],"hidden":true,"hidpiCompositing":false,"objectColor":[1.0,1.0,1.0,1.0],"objectIndex":0,"renderOrder":0,"useShadows":true}},"mesh":21,"name":"ring_type_2_gem_0_curve_3_line_0","translation":[0.0,0.0002500000118743628,-0.0]},{"extensions":{"S8S_v3d_node":{"frustumCulling":true,"groupNames":["gem_0_curve_2_line_0"],"hidden":true,"hidpiCompositing":false,"objectColor":[1.0,1.0,1.0,1.0],"objectIndex":0,"renderOrder":0,"useShadows":true}},"mesh":38,"name":"ring_type_5_gem_0_curve_2_line_0","translation":[0.0,0.0005150000215508044,-0.0]},{"extensions":{"S8S_v3d_node":{"frustumCulling":true,"groupNames":["gem_0_curve_4_line_0"],"hidden":true,"hidpiCompositing":false,"objectColor":[1.0,1.0,1.0,1.0],"objectIndex":0,"renderOrder":0,"useShadows":true}},"mesh":24,"name":"ring_type_3_gem_0_curve_4_line_0","translation":[0.0,7.999999797903001e-05,-0.0]},{"children":[26,17],"extensions":{"S8S_v3d_node":{"frustumCulling":true,"groupNames":["gem_0_curve_0_line_1"],"hidden":true,"hidpiCompositing":false,"objectColor":[1.0,1.0,1.0,1.0],"objectIndex":0,"renderOrder":0,"useShadows":true}},"mesh":35,"name":"ring_type_5_gem_0_curve_0_line_1","translation":[0.0,0.0005150000215508044,-0.0]},{"children":[19,8],"extensions":{"S8S_v3d_node":{"frustumCulling":true,"groupNames":["gem_0_curve_0_line_1"],"hidden":true,"hidpiCompositing":false,"objectColor":[1.0,1.0,1.0,1.0],"objectIndex":0,"renderOrder":0,"useShadows":true}},"mesh":12,"name":"ring_type_3_gem_0_curve_0_line_1","translation":[0.0,7.999999797903001e-05,-0.0]},{"children":[9,27],"extensions":{"S8S_v3d_node":{"frustumCulling":true,"groupNames":["gem_0_curve_0_line_1"],"hidden":true,"hidpiCompositing":false,"objectColor":[1.0,1.0,1.0,1.0],"objectIndex":0,"renderOrder":0,"useShadows":true}},"mesh":17,"name":"ring_type_2_gem_0_curve_0_line_1","translation":[0.0,0.0002500000118743628,-0.0]},{"extensions":{"S8S_v3d_node":{"frustumCulling":true,"groupNames":["gem_0_curve_0_line_1"],"hidden":true,"hidpiCompositing":false,"objectColor":[1.0,1.0,1.0,1.0],"objectIndex":0,"renderOrder":0,"useShadows":true}},"mesh":7,"name":"gem_type_3_gem_0_curve_0_line_1_outside","translation":[0.010031066834926605,0.0,-0.0]},{"extensions":{"S8S_v3d_node":{"frustumCulling":true,"groupNames":["gem_0_curve_0_line_1"],"hidden":true,"hidpiCompositing":false,"objectColor":[1.0,1.0,1.0,1.0],"objectIndex":0,"renderOrder":0,"useShadows":true}},"mesh":4,"name":"gem_type_2_gem_0_curve_0_line_1_inside","translation":[0.010234139859676361,0.0,-0.0]},{"extensions":{"S8S_v3d_node":{"frustumCulling":true,"groupNames":["gem_0_curve_0_line_0"],"hidden":true,"hidpiCompositing":false,"objectColor":[1.0,1.0,1.0,1.0],"objectIndex":0,"renderOrder":0,"useShadows":true}},"mesh":22,"name":"ring_type_3_gem_0_curve_0_line_0","translation":[0.0,7.999999797903001e-05,-0.0]},{"extensions":{"S8S_v3d_node":{"frustumCulling":true,"groupNames":["gem_0_curve_0_line_0"],"hidden":true,"hidpiCompositing":false,"objectColor":[1.0,1.0,1.0,1.0],"objectIndex":0,"renderOrder":0,"useShadows":true}},"mesh":16,"name":"ring_type_2_gem_0_curve_0_line_0","translation":[0.0,0.0002500000118743628,-0.0]},{"extensions":{"S8S_v3d_node":{"frustumCulling":true,"groupNames":["gem_0_curve_2_line_0"],"hidden":true,"hidpiCompositing":false,"objectColor":[1.0,1.0,1.0,1.0],"objectIndex":0,"renderOrder":0,"useShadows":true}},"mesh":20,"name":"ring_type_2_gem_0_curve_2_line_0","translation":[0.0,0.0002500000118743628,-0.0]},{"extensions":{"S8S_v3d_node":{"frustumCulling":true,"groupNames":["gem_0_curve_2_line_0"],"hidden":true,"hidpiCompositing":false,"objectColor":[1.0,1.0,1.0,1.0],"objectIndex":0,"renderOrder":0,"useShadows":true}},"mesh":10,"name":"ring_type_1_gem_0_curve_2_line_0","translation":[0.0,1.4999999621068127e-05,-0.0]},{"extensions":{"S8S_v3d_node":{"frustumCulling":true,"groupNames":["gem_0_curve_3_line_0"],"hidden":true,"hidpiCompositing":false,"objectColor":[1.0,1.0,1.0,1.0],"objectIndex":0,"renderOrder":0,"useShadows":true}},"mesh":27,"name":"ring_type_3_gem_0_curve_3_line_0","translation":[0.0,7.999999797903001e-05,-0.0]},{"extensions":{"S8S_v3d_node":{"frustumCulling":true,"groupNames":["gem_0_curve_4_line_0"],"hidden":true,"hidpiCompositing":false,"objectColor":[1.0,1.0,1.0,1.0],"objectIndex":0,"renderOrder":0,"useShadows":true}},"mesh":30,"name":"ring_type_4_gem_0_curve_4_line_0","translation":[0.0,2.9999999242136255e-05,-0.0]},{"children":[38,40],"extensions":{"S8S_v3d_node":{"frustumCulling":true,"groupNames":["gem_0_curve_0_line_1"],"hidden":true,"hidpiCompositing":false,"objectColor":[1.0,1.0,1.0,1.0],"objectIndex":0,"renderOrder":0,"useShadows":true}},"mesh":29,"name":"ring_type_4_gem_0_curve_0_line_1","translation":[0.0,2.9999999242136255e-05,-0.0]},{"extensions":{"S8S_v3d_node":{"frustumCulling":true,"groupNames":["gem_0_curve_0_line_1"],"hidden":true,"hidpiCompositing":false,"objectColor":[1.0,1.0,1.0,1.0],"objectIndex":0,"renderOrder":0,"useShadows":true}},"mesh":8,"name":"gem_type_5_gem_0_curve_0_line_1_outside","translation":[0.010000906884670258,0.0,-0.0]},{"extensions":{"S8S_v3d_node":{"frustumCulling":true,"groupNames":["gem_0_curve_0_line_1"],"hidden":true,"hidpiCompositing":false,"objectColor":[1.0,1.0,1.0,1.0],"objectIndex":0,"renderOrder":0,"useShadows":true}},"mesh":9,"name":"gem_type_1_gem_0_curve_0_line_1_outside","translation":[0.010000906884670258,-0.00010170042514801025,-0.0]},{"extensions":{"S8S_v3d_node":{"frustumCulling":true,"groupNames":["gem_0_curve_0_line_1"],"hidden":true,"hidpiCompositing":false,"objectColor":[1.0,1.0,1.0,1.0],"objectIndex":0,"renderOrder":0,"useShadows":true}},"mesh":0,"name":"gem_type_3_gem_0_curve_0_line_1_inside","translation":[0.010031066834926605,0.0,-0.0]},{"extensions":{"S8S_v3d_node":{"frustumCulling":true,"groupNames":["gem_0_curve_0_line_0"],"hidden":true,"hidpiCompositing":false,"objectColor":[1.0,1.0,1.0,1.0],"objectIndex":0,"renderOrder":0,"useShadows":true}},"mesh":28,"name":"ring_type_4_gem_0_curve_0_line_0","translation":[0.0,2.9999999242136255e-05,-0.0]},{"extensions":{"S8S_v3d_node":{"frustumCulling":true,"groupNames":["gem_0_curve_1_line_0"],"hidden":true,"hidpiCompositing":false,"objectColor":[1.0,1.0,1.0,1.0],"objectIndex":0,"renderOrder":0,"useShadows":true}},"mesh":14,"name":"ring_type_1_gem_0_curve_1_line_0","translation":[0.0,1.4999999621068127e-05,-0.0]},{"extensions":{"S8S_v3d_node":{"frustumCulling":true,"groupNames":["gem_0_curve_2_line_0"],"hidden":true,"hidpiCompositing":false,"objectColor":[1.0,1.0,1.0,1.0],"objectIndex":0,"renderOrder":0,"useShadows":true}},"mesh":26,"name":"ring_type_3_gem_0_curve_2_line_0","translation":[0.0,7.999999797903001e-05,-0.0]},{"extensions":{"S8S_v3d_node":{"frustumCulling":true,"groupNames":["gem_0_curve_3_line_0"],"hidden":true,"hidpiCompositing":false,"objectColor":[1.0,1.0,1.0,1.0],"objectIndex":0,"renderOrder":0,"useShadows":true}},"mesh":33,"name":"ring_type_4_gem_0_curve_3_line_0","translation":[0.0,2.9999999242136255e-05,-0.0]},{"extensions":{"S8S_v3d_node":{"frustumCulling":true,"groupNames":["gem_0_curve_4_line_0"],"hidden":true,"hidpiCompositing":false,"objectColor":[1.0,1.0,1.0,1.0],"objectIndex":0,"renderOrder":0,"useShadows":true}},"mesh":13,"name":"ring_type_1_gem_0_curve_4_line_0","translation":[0.0,1.4999999621068127e-05,-0.0]},{"extensions":{"S8S_v3d_node":{"frustumCulling":true,"groupNames":["gem_0_curve_0_line_1"],"hidden":true,"hidpiCompositing":false,"objectColor":[1.0,1.0,1.0,1.0],"objectIndex":0,"renderOrder":0,"useShadows":true}},"mesh":1,"name":"gem_type_1_gem_0_curve_0_line_1_inside","translation":[0.010000906884670258,-0.00010170042514801025,-0.0]},{"extensions":{"S8S_v3d_node":{"frustumCulling":true,"groupNames":["gem_0_curve_0_line_1"],"hidden":true,"hidpiCompositing":false,"objectColor":[1.0,1.0,1.0,1.0],"objectIndex":0,"renderOrder":0,"useShadows":true}},"mesh":3,"name":"gem_type_5_gem_0_curve_0_line_1_inside","translation":[0.010000906884670258,0.0,-0.0]},{"extensions":{"S8S_v3d_node":{"frustumCulling":true,"groupNames":["gem_0_curve_0_line_1"],"hidden":true,"hidpiCompositing":false,"objectColor":[1.0,1.0,1.0,1.0],"objectIndex":0,"renderOrder":0,"useShadows":true}},"mesh":6,"name":"gem_type_2_gem_0_curve_0_line_1_outside","translation":[0.010234139859676361,0.0,-0.0]},{"extensions":{"S8S_v3d_node":{"frustumCulling":true,"groupNames":[],"hidden":false,"hidpiCompositing":false,"objectColor":[1.0,1.0,1.0,1.0],"objectIndex":0,"renderOrder":0}},"name":"Empty","translation":[0.0,-0.028885208070278168,-0.0]},{"extensions":{"S8S_v3d_node":{"frustumCulling":true,"groupNames":["gem_0_curve_0_line_0"],"hidden":true,"hidpiCompositing":false,"objectColor":[1.0,1.0,1.0,1.0],"objectIndex":0,"renderOrder":0,"useShadows":true}},"mesh":34,"name":"ring_type_5_gem_0_curve_0_line_0","translation":[0.0,0.0005150000215508044,-0.0]},{"extensions":{"S8S_v3d_node":{"frustumCulling":true,"groupNames":["gem_0_curve_1_line_0"],"hidden":true,"hidpiCompositing":false,"objectColor":[1.0,1.0,1.0,1.0],"objectIndex":0,"renderOrder":0,"useShadows":true}},"mesh":25,"name":"ring_type_3_gem_0_curve_1_line_0","translation":[0.0,7.999999797903001e-05,-0.0]},{"extensions":{"S8S_v3d_node":{"frustumCulling":true,"groupNames":["gem_0_curve_1_line_0"],"hidden":true,"hidpiCompositing":false,"objectColor":[1.0,1.0,1.0,1.0],"objectIndex":0,"renderOrder":0,"useShadows":true}},"mesh":19,"name":"ring_type_2_gem_0_curve_1_line_0","translation":[0.0,0.0002500000118743628,-0.0]},{"extensions":{"S8S_v3d_node":{"frustumCulling":true,"groupNames":["gem_0_curve_2_line_0"],"hidden":true,"hidpiCompositing":false,"objectColor":[1.0,1.0,1.0,1.0],"objectIndex":0,"renderOrder":0,"useShadows":true}},"mesh":32,"name":"ring_type_4_gem_0_curve_2_line_0","translation":[0.0,2.9999999242136255e-05,-0.0]},{"extensions":{"S8S_v3d_node":{"frustumCulling":true,"groupNames":["gem_0_curve_1_line_0"],"hidden":true,"hidpiCompositing":false,"objectColor":[1.0,1.0,1.0,1.0],"objectIndex":0,"renderOrder":0,"useShadows":true}},"mesh":37,"name":"ring_type_5_gem_0_curve_1_line_0","translation":[0.0,0.0005150000215508044,-0.0]},{"extensions":{"S8S_v3d_node":{"frustumCulling":true,"groupNames":["gem_0_curve_3_line_0"],"hidden":true,"hidpiCompositing":false,"objectColor":[1.0,1.0,1.0,1.0],"objectIndex":0,"renderOrder":0,"useShadows":true}},"mesh":15,"name":"ring_type_1_gem_0_curve_3_line_0","translation":[0.0,1.4999999621068127e-05,-0.0]},{"extensions":{"S8S_v3d_node":{"frustumCulling":true,"groupNames":["gem_0_curve_3_line_0"],"hidden":true,"hidpiCompositing":false,"objectColor":[1.0,1.0,1.0,1.0],"objectIndex":0,"renderOrder":0,"useShadows":true}},"mesh":39,"name":"ring_type_5_gem_0_curve_3_line_0","translation":[0.0,0.0005150000215508044,-0.0]},{"extensions":{"S8S_v3d_node":{"frustumCulling":true,"groupNames":["gem_0_curve_4_line_0"],"hidden":true,"hidpiCompositing":false,"objectColor":[1.0,1.0,1.0,1.0],"objectIndex":0,"renderOrder":0,"useShadows":true}},"mesh":18,"name":"ring_type_2_gem_0_curve_4_line_0","translation":[0.0,0.0002500000118743628,-0.0]},{"extensions":{"S8S_v3d_node":{"frustumCulling":true,"groupNames":["gem_0_curve_4_line_0"],"hidden":true,"hidpiCompositing":false,"objectColor":[1.0,1.0,1.0,1.0],"objectIndex":0,"renderOrder":0,"useShadows":true}},"mesh":36,"name":"ring_type_5_gem_0_curve_4_line_0","translation":[0.0,0.0005150000215508044,-0.0]},{"extensions":{"S8S_v3d_node":{"frustumCulling":true,"groupNames":["gem_0_curve_0_line_1"],"hidden":true,"hidpiCompositing":false,"objectColor":[1.0,1.0,1.0,1.0],"objectIndex":0,"renderOrder":0,"useShadows":true}},"mesh":2,"name":"gem_type_4_gem_0_curve_0_line_1_inside","translation":[0.010000906884670258,0.0,-0.0]},{"children":[25,18],"extensions":{"S8S_v3d_node":{"frustumCulling":true,"groupNames":["gem_0_curve_0_line_1"],"hidden":true,"hidpiCompositing":false,"objectColor":[1.0,1.0,1.0,1.0],"objectIndex":0,"renderOrder":0,"useShadows":true}},"mesh":23,"name":"ring_type_1_gem_0_curve_0_line_1","translation":[0.0,1.4999999621068127e-05,-0.0]},{"extensions":{"S8S_v3d_node":{"frustumCulling":true,"groupNames":["gem_0_curve_0_line_1"],"hidden":true,"hidpiCompositing":false,"objectColor":[1.0,1.0,1.0,1.0],"objectIndex":0,"renderOrder":0,"useShadows":true}},"mesh":5,"name":"gem_type_4_gem_0_curve_0_line_1_outside","translation":[0.010000906884670258,0.0,-0.0]},{"camera":0,"name":"__DEFAULT_CAMERA__","rotation":[-0.3453395664691925,-0.327840119600296,-0.13018390536308289,0.8696629405021667],"scale":[1.0,0.9999998807907104,0.9999999403953552],"translation":[-0.03079153038561344,0.045593418180942535,0.038878824561834335]}],"samplers":[{}],"scene":0,"scenes":[{"extensions":{"S8S_v3d_scene":{"aaMethod":"AUTO","iblEnvironmentMode":"PMREM","physicallyCorrectLights":true,"pmremMaxTileSize":512,"shadowMap":{"esmDistanceScale":1.0,"renderReverseSided":false,"renderSingleSided":true,"type":"PCFPOISSON"},"useHDR":true,"worldMaterial":3}},"extras":{"animFrameRate":24,"coordSystem":"Z_UP_RIGHT"},"name":"Scene","nodes":[28,10,11,0,20,29,30,31,21,1,33,22,12,13,32,3,14,2,34,23,35,4,36,24,15,37,5,6,7,39,16,41]}],"textures":[{"extensions":{"S8S_v3d_texture":{"colorSpace":"linear rec.709","source":0}},"name":"environment.hdr","sampler":0},{"extensions":{"S8S_v3d_texture":{"anisotropy":16,"colorSpace":"non-color"}},"name":"engrave_normal","sampler":0,"source":1},{"extensions":{"S8S_v3d_texture":{"anisotropy":16,"colorSpace":"srgb"}},"name":"engrave_ao","sampler":0,"source":2}]}
