{"accessors":[{"bufferView":0,"componentType":5123,"count":684,"max":[419],"min":[0],"type":"SCALAR"},{"bufferView":1,"componentType":5126,"count":420,"max":[0.0010868118843063712,0.00043446128256618977,0.0010868118843063712],"min":[-0.0010868118843063712,-0.0006074949051253498,-0.0010868118843063712],"type":"VEC3"},{"bufferView":2,"componentType":5126,"count":420,"max":[0.997859001159668,0.8728891611099243,0.997859001159668],"min":[-0.997859001159668,-0.9595610499382019,-0.997859001159668],"type":"VEC3"},{"bufferView":3,"componentType":5123,"count":4992,"max":[4159],"min":[0],"type":"SCALAR"},{"bufferView":4,"componentType":5126,"count":4160,"max":[0.027981791645288467,-0.007392363157123327,0.0008801886579021811],"min":[-0.02798180654644966,-0.028362207114696503,-0.000880202220287174],"type":"VEC3"},{"bufferView":5,"componentType":5126,"count":4160,"max":[0.9999449849128723,0.9999958872795105,0.9760647416114807],"min":[-0.9999449849128723,-0.9996437430381775,-0.9760637879371643],"type":"VEC3"},{"bufferView":6,"componentType":5123,"count":4992,"max":[4159],"min":[0],"type":"SCALAR"},{"bufferView":7,"componentType":5126,"count":4160,"max":[0.02783229947090149,-0.006850896868854761,0.0008801885996945202],"min":[-0.027832282707095146,-0.02801697701215744,-0.000880202220287174],"type":"VEC3"},{"bufferView":8,"componentType":5126,"count":4160,"max":[0.9999964237213135,0.9999697804450989,0.97602778673172],"min":[-0.9999964237213135,-0.9989373683929443,-0.9760279059410095],"type":"VEC3"},{"bufferView":9,"componentType":5123,"count":4992,"max":[4159],"min":[0],"type":"SCALAR"},{"bufferView":10,"componentType":5126,"count":4160,"max":[0.028043266385793686,-0.0071967532858252525,0.0008801884250715375],"min":[-0.02804328128695488,-0.028254399076104164,-0.0008802022784948349],"type":"VEC3"},{"bufferView":11,"componentType":5126,"count":4160,"max":[0.9999967813491821,0.999983549118042,0.9758655428886414],"min":[-0.9999967813491821,-0.9991970062255859,-0.97586590051651],"type":"VEC3"},{"bufferView":12,"componentType":5123,"count":4992,"max":[4159],"min":[0],"type":"SCALAR"},{"bufferView":13,"componentType":5126,"count":4160,"max":[0.027870047837495804,-0.006891209632158279,0.0008801904623396695],"min":[-0.027870047837495804,-0.028020519763231277,-0.000880200183019042],"type":"VEC3"},{"bufferView":14,"componentType":5126,"count":4160,"max":[0.9999905824661255,0.9997992515563965,0.9758194088935852],"min":[-0.9999905824661255,-0.9995614290237427,-0.9758190512657166],"type":"VEC3"},{"bufferView":15,"componentType":5123,"count":4992,"max":[4159],"min":[0],"type":"SCALAR"},{"bufferView":16,"componentType":5126,"count":4160,"max":[0.027858953922986984,-0.007085285149514675,0.0008801885414868593],"min":[-0.02785893902182579,-0.028162412345409393,-0.0008802021620795131],"type":"VEC3"},{"bufferView":17,"componentType":5126,"count":4160,"max":[0.9999626278877258,0.999997615814209,0.9761896133422852],"min":[-0.9999626278877258,-0.9992073774337769,-0.9761899709701538],"type":"VEC3"},{"bufferView":18,"componentType":5123,"count":1356,"max":[815],"min":[0],"type":"SCALAR"},{"bufferView":19,"componentType":5126,"count":816,"max":[0.009890228509902954,-0.0005556862452067435,0.0012387025635689497],"min":[-0.00989022757858038,-0.0018861807184293866,-0.0012387025635689497],"type":"VEC3"},{"bufferView":20,"componentType":5126,"count":816,"max":[0.9476779103279114,0.9817734360694885,0.997859001159668],"min":[-0.947681188583374,-0.9876421093940735,-0.997859001159668],"type":"VEC3"},{"bufferView":21,"componentType":5123,"count":678,"max":[407],"min":[0],"type":"SCALAR"},{"bufferView":22,"componentType":5126,"count":408,"max":[0.0010868118843063712,0.00043446128256618977,0.0010868118843063712],"min":[-0.0010868118843063712,-0.0006074949051253498,-0.0010868118843063712],"type":"VEC3"},{"bufferView":23,"componentType":5126,"count":408,"max":[0.997859001159668,1.0,0.997859001159668],"min":[-0.997859001159668,-0.8728891611099243,-0.997859001159668],"type":"VEC3"},{"bufferView":24,"componentType":5123,"count":678,"max":[407],"min":[0],"type":"SCALAR"},{"bufferView":25,"componentType":5126,"count":408,"max":[0.0010868118843063712,0.00043446128256618977,0.0010868118843063712],"min":[-0.0010868118843063712,-0.0006074949051253498,-0.0010868118843063712],"type":"VEC3"},{"bufferView":26,"componentType":5126,"count":408,"max":[0.997859001159668,1.0,0.997859001159668],"min":[-0.997859001159668,-0.8728891611099243,-0.997859001159668],"type":"VEC3"},{"bufferView":27,"componentType":5123,"count":4836,"max":[3743],"min":[0],"type":"SCALAR"},{"bufferView":28,"componentType":5126,"count":3744,"max":[0.027981791645288467,-0.007392363157123327,0.0008801886579021811],"min":[-0.02798180654644966,-0.028362207114696503,-0.000880202220287174],"type":"VEC3"},{"bufferView":29,"componentType":5126,"count":3744,"max":[0.9999449849128723,0.9996437430381775,0.9760637879371643],"min":[-0.9999449849128723,-0.9999958872795105,-0.9760647416114807],"type":"VEC3"},{"bufferView":30,"componentType":5123,"count":4836,"max":[3743],"min":[0],"type":"SCALAR"},{"bufferView":31,"componentType":5126,"count":3744,"max":[0.02783229947090149,-0.006850896868854761,0.0008801885996945202],"min":[-0.027832282707095146,-0.02801697701215744,-0.000880202220287174],"type":"VEC3"},{"bufferView":32,"componentType":5126,"count":3744,"max":[0.9999964237213135,0.9989373683929443,0.9760279059410095],"min":[-0.9999964237213135,-0.9999697804450989,-0.97602778673172],"type":"VEC3"},{"bufferView":33,"componentType":5123,"count":4836,"max":[3743],"min":[0],"type":"SCALAR"},{"bufferView":34,"componentType":5126,"count":3744,"max":[0.028043266385793686,-0.0071967532858252525,0.0008801884250715375],"min":[-0.02804328128695488,-0.028254399076104164,-0.0008802022784948349],"type":"VEC3"},{"bufferView":35,"componentType":5126,"count":3744,"max":[0.9999967813491821,0.9991970062255859,0.97586590051651],"min":[-0.9999967813491821,-0.999983549118042,-0.9758655428886414],"type":"VEC3"},{"bufferView":36,"componentType":5123,"count":4836,"max":[3743],"min":[0],"type":"SCALAR"},{"bufferView":37,"componentType":5126,"count":3744,"max":[0.027870047837495804,-0.006891209632158279,0.0008801904623396695],"min":[-0.027870047837495804,-0.028020519763231277,-0.000880200183019042],"type":"VEC3"},{"bufferView":38,"componentType":5126,"count":3744,"max":[0.9999905824661255,0.9995614290237427,0.9758190512657166],"min":[-0.9999905824661255,-0.9997992515563965,-0.9758194088935852],"type":"VEC3"},{"bufferView":39,"componentType":5123,"count":4836,"max":[3743],"min":[0],"type":"SCALAR"},{"bufferView":40,"componentType":5126,"count":3744,"max":[0.027858953922986984,-0.007085285149514675,0.0008801885414868593],"min":[-0.02785893902182579,-0.028162412345409393,-0.0008802021620795131],"type":"VEC3"},{"bufferView":41,"componentType":5126,"count":3744,"max":[0.9999626278877258,0.9992073774337769,0.9761899709701538],"min":[-0.9999626278877258,-0.999997615814209,-0.9761896133422852],"type":"VEC3"},{"bufferView":42,"componentType":5123,"count":1356,"max":[815],"min":[0],"type":"SCALAR"},{"bufferView":43,"componentType":5126,"count":816,"max":[0.009890228509902954,-0.0005556862452067435,0.0012387025635689497],"min":[-0.00989022757858038,-0.0018861807184293866,-0.0012387025635689497],"type":"VEC3"},{"bufferView":44,"componentType":5126,"count":816,"max":[0.947681188583374,0.9876421093940735,0.997859001159668],"min":[-0.9476779103279114,-0.9817734360694885,-0.997859001159668],"type":"VEC3"},{"bufferView":45,"componentType":5123,"count":73500,"max":[13121],"min":[0],"type":"SCALAR"},{"bufferView":46,"componentType":5126,"count":13122,"max":[0.028881875798106194,0.02881980687379837,0.005615340080112219],"min":[-0.028881875798106194,-0.08662022650241852,-0.005615340545773506],"type":"VEC3"},{"bufferView":47,"componentType":5126,"count":13122,"max":[1.0,1.0,1.0],"min":[-1.0,-1.0,-1.0],"type":"VEC3"},{"bufferView":48,"componentType":5126,"count":13122,"max":[1.0,0.5140405297279358,0.011686074547469616,1.0],"min":[0.8577631711959839,-0.514040470123291,-0.011686899699270725,-1.0],"type":"VEC4"},{"bufferView":49,"componentType":5126,"count":13122,"max":[0.9999034404754639,1.001843810081482],"min":[9.663145465310663e-05,0.035769879817962646],"type":"VEC2"},{"bufferView":50,"componentType":5126,"count":13122,"max":[1.0,1.0,1.0,1.0],"min":[0.0,0.0,0.0,1.0],"type":"VEC4"},{"bufferView":51,"componentType":5123,"count":77796,"max":[14463],"min":[0],"type":"SCALAR"},{"bufferView":52,"componentType":5126,"count":14464,"max":[0.028881875798106194,0.02881980687379837,0.005615340080112219],"min":[-0.028881875798106194,-0.08662022650241852,-0.005615340545773506],"type":"VEC3"},{"bufferView":53,"componentType":5126,"count":14464,"max":[1.0,1.0,1.0],"min":[-1.0,-1.0,-1.0],"type":"VEC3"},{"bufferView":54,"componentType":5126,"count":14464,"max":[1.0,0.5140381455421448,0.012202505953609943,1.0],"min":[0.8577643036842346,-0.5140382051467896,-0.011752034537494183,-1.0],"type":"VEC4"},{"bufferView":55,"componentType":5126,"count":14464,"max":[0.9999035000801086,0.985992968082428],"min":[9.66787338256836e-05,0.03493952751159668],"type":"VEC2"},{"bufferView":56,"componentType":5126,"count":14464,"max":[1.0,1.0,1.0,1.0],"min":[0.0,0.0,0.0,1.0],"type":"VEC4"},{"bufferView":57,"componentType":5123,"count":74148,"max":[13325],"min":[0],"type":"SCALAR"},{"bufferView":58,"componentType":5126,"count":13326,"max":[0.028881875798106194,0.02881980687379837,0.005615340080112219],"min":[-0.028881875798106194,-0.08662022650241852,-0.005615340545773506],"type":"VEC3"},{"bufferView":59,"componentType":5126,"count":13326,"max":[1.0,1.0,1.0],"min":[-1.0,-1.0,-1.0],"type":"VEC3"},{"bufferView":60,"componentType":5126,"count":13326,"max":[1.0,0.5140348672866821,0.011541809886693954,1.0],"min":[0.8577660322189331,-0.5140349864959717,-0.011167261749505997,-1.0],"type":"VEC4"},{"bufferView":61,"componentType":5126,"count":13326,"max":[0.9999035000801086,1.001843810081482],"min":[9.66787338256836e-05,0.037978529930114746],"type":"VEC2"},{"bufferView":62,"componentType":5126,"count":13326,"max":[1.0,1.0,1.0,1.0],"min":[0.0,0.0,0.0,1.0],"type":"VEC4"},{"bufferView":63,"componentType":5123,"count":55908,"max":[10185],"min":[0],"type":"SCALAR"},{"bufferView":64,"componentType":5126,"count":10186,"max":[0.029105544090270996,0.029070792719721794,0.005839711055159569],"min":[-0.029105544090270996,-0.08734121173620224,-0.005839711055159569],"type":"VEC3"},{"bufferView":65,"componentType":5126,"count":10186,"max":[1.0,1.0,1.0],"min":[-1.0,-1.0,-1.0],"type":"VEC3"},{"bufferView":66,"componentType":5126,"count":10186,"max":[1.0,0.5141010284423828,0.025492070242762566,1.0],"min":[0.8577251434326172,-0.514100968837738,-0.025492647662758827,-1.0],"type":"VEC4"},{"bufferView":67,"componentType":5126,"count":10186,"max":[0.9999092817306519,1.0017001628875732],"min":[9.071826934814453e-05,0.09662580490112305],"type":"VEC2"},{"bufferView":68,"componentType":5126,"count":10186,"max":[1.0,1.0,1.0,1.0],"min":[0.0,0.0,0.0,1.0],"type":"VEC4"},{"bufferView":69,"componentType":5123,"count":62196,"max":[11711],"min":[0],"type":"SCALAR"},{"bufferView":70,"componentType":5126,"count":11712,"max":[0.029105544090270996,0.029070792719721794,0.005839711055159569],"min":[-0.029105544090270996,-0.08734121173620224,-0.005839711055159569],"type":"VEC3"},{"bufferView":71,"componentType":5126,"count":11712,"max":[1.0,1.0,1.0],"min":[-1.0,-1.0,-1.0],"type":"VEC3"},{"bufferView":72,"componentType":5126,"count":11712,"max":[1.0,0.5141031742095947,0.025485271587967873,1.0],"min":[0.857728123664856,-0.5141032338142395,-0.025483975186944008,-1.0],"type":"VEC4"},{"bufferView":73,"componentType":5126,"count":11712,"max":[0.9999092817306519,0.9819790124893188],"min":[9.069858788279817e-05,0.09579920768737793],"type":"VEC2"},{"bufferView":74,"componentType":5126,"count":11712,"max":[1.0,1.0,1.0,1.0],"min":[0.0,0.0,0.0,1.0],"type":"VEC4"},{"bufferView":75,"componentType":5123,"count":56652,"max":[10405],"min":[0],"type":"SCALAR"},{"bufferView":76,"componentType":5126,"count":10406,"max":[0.029105544090270996,0.029070792719721794,0.005839711055159569],"min":[-0.029105544090270996,-0.08734121173620224,-0.005839711055159569],"type":"VEC3"},{"bufferView":77,"componentType":5126,"count":10406,"max":[1.0,1.0,1.0],"min":[-1.0,-1.0,-1.0],"type":"VEC3"},{"bufferView":78,"componentType":5126,"count":10406,"max":[1.0,0.51410311460495,0.025330567732453346,1.0],"min":[0.8577234745025635,-0.514102578163147,-0.023401645943522453,-1.0],"type":"VEC4"},{"bufferView":79,"componentType":5126,"count":10406,"max":[0.9999093413352966,1.0017001628875732],"min":[9.059906005859375e-05,0.08973181247711182],"type":"VEC2"},{"bufferView":80,"componentType":5126,"count":10406,"max":[1.0,1.0,1.0,1.0],"min":[0.0,0.0,0.0,1.0],"type":"VEC4"},{"bufferView":81,"componentType":5123,"count":81420,"max":[14577],"min":[0],"type":"SCALAR"},{"bufferView":82,"componentType":5126,"count":14578,"max":[0.02895291894674301,0.028900733217597008,0.005675564054399729],"min":[-0.02895291894674301,-0.08683115243911743,-0.0056755635887384415],"type":"VEC3"},{"bufferView":83,"componentType":5126,"count":14578,"max":[1.0,1.0,1.0],"min":[-1.0,-1.0,-1.0],"type":"VEC3"},{"bufferView":84,"componentType":5126,"count":14578,"max":[1.0,0.5141035914421082,0.01466871052980423,1.0],"min":[0.8577278256416321,-0.5141034722328186,-0.014666694216430187,-1.0],"type":"VEC4"},{"bufferView":85,"componentType":5126,"count":14578,"max":[0.9999032020568848,1.001845359802246],"min":[9.669544670032337e-05,0.037608981132507324],"type":"VEC2"},{"bufferView":86,"componentType":5126,"count":14578,"max":[1.0,1.0,1.0,1.0],"min":[0.0,0.0,0.0,1.0],"type":"VEC4"},{"bufferView":87,"componentType":5123,"count":86508,"max":[15937],"min":[0],"type":"SCALAR"},{"bufferView":88,"componentType":5126,"count":15938,"max":[0.02895291894674301,0.028900733217597008,0.005675564054399729],"min":[-0.02895291894674301,-0.08683115243911743,-0.0056755635887384415],"type":"VEC3"},{"bufferView":89,"componentType":5126,"count":15938,"max":[1.0,1.0,1.0],"min":[-1.0,-1.0,-1.0],"type":"VEC3"},{"bufferView":90,"componentType":5126,"count":15938,"max":[1.0,0.514102578163147,0.014668702147901058,1.0],"min":[0.8577286005020142,-0.514102578163147,-0.014666663482785225,-1.0],"type":"VEC4"},{"bufferView":91,"componentType":5126,"count":15938,"max":[0.9999032020568848,1.0014903545379639],"min":[9.669544670032337e-05,0.037608981132507324],"type":"VEC2"},{"bufferView":92,"componentType":5126,"count":15938,"max":[1.0,1.0,1.0,1.0],"min":[0.0,0.0,0.0,1.0],"type":"VEC4"},{"bufferView":93,"componentType":5123,"count":82452,"max":[14909],"min":[0],"type":"SCALAR"},{"bufferView":94,"componentType":5126,"count":14910,"max":[0.02895291894674301,0.028900733217597008,0.005675564054399729],"min":[-0.02895291894674301,-0.08683115243911743,-0.0056755635887384415],"type":"VEC3"},{"bufferView":95,"componentType":5126,"count":14910,"max":[1.0,1.0,1.0],"min":[-1.0,-1.0,-1.0],"type":"VEC3"},{"bufferView":96,"componentType":5126,"count":14910,"max":[1.0,0.5141035914421082,0.014668836258351803,1.0],"min":[0.8577278256416321,-0.5141035318374634,-0.014666815288364887,-1.0],"type":"VEC4"},{"bufferView":97,"componentType":5126,"count":14910,"max":[0.9999032020568848,1.0007134675979614],"min":[9.669544670032337e-05,0.037584543228149414],"type":"VEC2"},{"bufferView":98,"componentType":5126,"count":14910,"max":[1.0,1.0,1.0,1.0],"min":[0.0,0.0,0.0,1.0],"type":"VEC4"},{"bufferView":99,"componentType":5123,"count":71448,"max":[14131],"min":[0],"type":"SCALAR"},{"bufferView":100,"componentType":5126,"count":14132,"max":[0.028899718075990677,0.02887873351573944,0.005879390053451061],"min":[-0.028899718075990677,-0.0867091491818428,-0.005879390984773636],"type":"VEC3"},{"bufferView":101,"componentType":5126,"count":14132,"max":[1.0,1.0,1.0],"min":[-1.0,-1.0,-1.0],"type":"VEC3"},{"bufferView":102,"componentType":5126,"count":14132,"max":[1.0,0.8806472420692444,0.998945951461792,1.0],"min":[-0.9729641675949097,-0.8806473016738892,-0.998945951461792,-1.0],"type":"VEC4"},{"bufferView":103,"componentType":5126,"count":14132,"max":[0.999904990196228,0.9953944087028503],"min":[9.501064050709829e-05,0.05829918384552002],"type":"VEC2"},{"bufferView":104,"componentType":5126,"count":14132,"max":[1.0,1.0,1.0,1.0],"min":[0.0,0.0,0.0,1.0],"type":"VEC4"},{"bufferView":105,"componentType":5123,"count":66000,"max":[11951],"min":[0],"type":"SCALAR"},{"bufferView":106,"componentType":5126,"count":11952,"max":[0.028899718075990677,0.02887873351573944,0.005879390053451061],"min":[-0.028899718075990677,-0.0867091491818428,-0.005879390984773636],"type":"VEC3"},{"bufferView":107,"componentType":5126,"count":11952,"max":[1.0,1.0,1.0],"min":[-1.0,-1.0,-1.0],"type":"VEC3"},{"bufferView":108,"componentType":5126,"count":11952,"max":[1.0,0.5141036510467529,0.0011877138167619705,1.0],"min":[0.8577280640602112,-0.5141036510467529,-0.0011896841460838914,-1.0],"type":"VEC4"},{"bufferView":109,"componentType":5126,"count":11952,"max":[0.999904990196228,0.9978700876235962],"min":[9.501064050709829e-05,0.046149611473083496],"type":"VEC2"},{"bufferView":110,"componentType":5126,"count":11952,"max":[1.0,1.0,1.0,1.0],"min":[0.0,0.0,0.0,1.0],"type":"VEC4"},{"bufferView":111,"componentType":5123,"count":65136,"max":[11711],"min":[0],"type":"SCALAR"},{"bufferView":112,"componentType":5126,"count":11712,"max":[0.028899718075990677,0.02887873351573944,0.005879390053451061],"min":[-0.028899718075990677,-0.0867091491818428,-0.005879390984773636],"type":"VEC3"},{"bufferView":113,"componentType":5126,"count":11712,"max":[1.0,1.0,1.0],"min":[-1.0,-1.0,-1.0],"type":"VEC3"},{"bufferView":114,"componentType":5126,"count":11712,"max":[1.0,0.514103353023529,0.0011090722400695086,1.0],"min":[0.8577282428741455,-0.514103353023529,-0.001110777142457664,-1.0],"type":"VEC4"},{"bufferView":115,"componentType":5126,"count":11712,"max":[0.999904990196228,1.0024887323379517],"min":[9.501064050709829e-05,0.04280632734298706],"type":"VEC2"},{"bufferView":116,"componentType":5126,"count":11712,"max":[1.0,1.0,1.0,1.0],"min":[0.0,0.0,0.0,1.0],"type":"VEC4"},{"bufferView":117,"componentType":5123,"count":72324,"max":[13045],"min":[0],"type":"SCALAR"},{"bufferView":118,"componentType":5126,"count":13046,"max":[0.029363788664340973,0.02931986190378666,0.005931791849434376],"min":[-0.029363788664340973,-0.08715027570724487,-0.005931791849434376],"type":"VEC3"},{"bufferView":119,"componentType":5126,"count":13046,"max":[1.0,1.0,1.0],"min":[-1.0,-1.0,-1.0],"type":"VEC3"},{"bufferView":120,"componentType":5126,"count":13046,"max":[1.0,0.5141036510467529,0.027019670233130455,1.0],"min":[0.857726514339447,-0.5141036510467529,-0.027020256966352463,-1.0],"type":"VEC4"},{"bufferView":121,"componentType":5126,"count":13046,"max":[0.9999176263809204,1.0013011693954468],"min":[8.234990673372522e-05,0.17059993743896484],"type":"VEC2"},{"bufferView":122,"componentType":5126,"count":13046,"max":[1.0,1.0,1.0,1.0],"min":[0.0,0.0,0.0,1.0],"type":"VEC4"},{"bufferView":123,"componentType":5123,"count":74220,"max":[13923],"min":[0],"type":"SCALAR"},{"bufferView":124,"componentType":5126,"count":13924,"max":[0.029363788664340973,0.02931986190378666,0.005931791849434376],"min":[-0.029363788664340973,-0.08715027570724487,-0.005931791849434376],"type":"VEC3"},{"bufferView":125,"componentType":5126,"count":13924,"max":[1.0,1.0,1.0],"min":[-1.0,-1.0,-1.0],"type":"VEC3"},{"bufferView":126,"componentType":5126,"count":13924,"max":[1.0,0.5141036510467529,0.027019670233130455,1.0],"min":[0.857726514339447,-0.5141036510467529,-0.027020256966352463,-1.0],"type":"VEC4"},{"bufferView":127,"componentType":5126,"count":13924,"max":[0.9999176263809204,0.9977015256881714],"min":[8.234990673372522e-05,0.16955292224884033],"type":"VEC2"},{"bufferView":128,"componentType":5126,"count":13924,"max":[1.0,1.0,1.0,1.0],"min":[0.0,0.0,0.0,1.0],"type":"VEC4"},{"bufferView":129,"componentType":5123,"count":73572,"max":[13445],"min":[0],"type":"SCALAR"},{"bufferView":130,"componentType":5126,"count":13446,"max":[0.029363788664340973,0.02931986190378666,0.005931791849434376],"min":[-0.029363788664340973,-0.08715027570724487,-0.005931791849434376],"type":"VEC3"},{"bufferView":131,"componentType":5126,"count":13446,"max":[1.0,1.0,1.0],"min":[-1.0,-1.0,-1.0],"type":"VEC3"},{"bufferView":132,"componentType":5126,"count":13446,"max":[1.0,0.5141036510467529,0.027019670233130455,1.0],"min":[0.857726514339447,-0.5141036510467529,-0.027020256966352463,-1.0],"type":"VEC4"},{"bufferView":133,"componentType":5126,"count":13446,"max":[0.9999176263809204,1.0013011693954468],"min":[8.234990673372522e-05,0.16181087493896484],"type":"VEC2"},{"bufferView":134,"componentType":5126,"count":13446,"max":[1.0,1.0,1.0,1.0],"min":[0.0,0.0,0.0,1.0],"type":"VEC4"}],"asset":{"generator":"Verge3D for Blender v4.6.0","version":"2.0"},"bufferViews":[{"buffer":0,"byteLength":1368,"byteOffset":0,"target":34963},{"buffer":0,"byteLength":5040,"byteOffset":1368,"target":34962},{"buffer":0,"byteLength":5040,"byteOffset":6408,"target":34962},{"buffer":0,"byteLength":9984,"byteOffset":11448,"target":34963},{"buffer":0,"byteLength":49920,"byteOffset":21432,"target":34962},{"buffer":0,"byteLength":49920,"byteOffset":71352,"target":34962},{"buffer":0,"byteLength":9984,"byteOffset":121272,"target":34963},{"buffer":0,"byteLength":49920,"byteOffset":131256,"target":34962},{"buffer":0,"byteLength":49920,"byteOffset":181176,"target":34962},{"buffer":0,"byteLength":9984,"byteOffset":231096,"target":34963},{"buffer":0,"byteLength":49920,"byteOffset":241080,"target":34962},{"buffer":0,"byteLength":49920,"byteOffset":291000,"target":34962},{"buffer":0,"byteLength":9984,"byteOffset":340920,"target":34963},{"buffer":0,"byteLength":49920,"byteOffset":350904,"target":34962},{"buffer":0,"byteLength":49920,"byteOffset":400824,"target":34962},{"buffer":0,"byteLength":9984,"byteOffset":450744,"target":34963},{"buffer":0,"byteLength":49920,"byteOffset":460728,"target":34962},{"buffer":0,"byteLength":49920,"byteOffset":510648,"target":34962},{"buffer":0,"byteLength":2712,"byteOffset":560568,"target":34963},{"buffer":0,"byteLength":9792,"byteOffset":563280,"target":34962},{"buffer":0,"byteLength":9792,"byteOffset":573072,"target":34962},{"buffer":0,"byteLength":1356,"byteOffset":582864,"target":34963},{"buffer":0,"byteLength":4896,"byteOffset":584220,"target":34962},{"buffer":0,"byteLength":4896,"byteOffset":589116,"target":34962},{"buffer":0,"byteLength":1356,"byteOffset":594012,"target":34963},{"buffer":0,"byteLength":4896,"byteOffset":595368,"target":34962},{"buffer":0,"byteLength":4896,"byteOffset":600264,"target":34962},{"buffer":0,"byteLength":9672,"byteOffset":605160,"target":34963},{"buffer":0,"byteLength":44928,"byteOffset":614832,"target":34962},{"buffer":0,"byteLength":44928,"byteOffset":659760,"target":34962},{"buffer":0,"byteLength":9672,"byteOffset":704688,"target":34963},{"buffer":0,"byteLength":44928,"byteOffset":714360,"target":34962},{"buffer":0,"byteLength":44928,"byteOffset":759288,"target":34962},{"buffer":0,"byteLength":9672,"byteOffset":804216,"target":34963},{"buffer":0,"byteLength":44928,"byteOffset":813888,"target":34962},{"buffer":0,"byteLength":44928,"byteOffset":858816,"target":34962},{"buffer":0,"byteLength":9672,"byteOffset":903744,"target":34963},{"buffer":0,"byteLength":44928,"byteOffset":913416,"target":34962},{"buffer":0,"byteLength":44928,"byteOffset":958344,"target":34962},{"buffer":0,"byteLength":9672,"byteOffset":1003272,"target":34963},{"buffer":0,"byteLength":44928,"byteOffset":1012944,"target":34962},{"buffer":0,"byteLength":44928,"byteOffset":1057872,"target":34962},{"buffer":0,"byteLength":2712,"byteOffset":1102800,"target":34963},{"buffer":0,"byteLength":9792,"byteOffset":1105512,"target":34962},{"buffer":0,"byteLength":9792,"byteOffset":1115304,"target":34962},{"buffer":0,"byteLength":147000,"byteOffset":1125096,"target":34963},{"buffer":0,"byteLength":157464,"byteOffset":1272096,"target":34962},{"buffer":0,"byteLength":157464,"byteOffset":1429560,"target":34962},{"buffer":0,"byteLength":209952,"byteOffset":1587024,"target":34962},{"buffer":0,"byteLength":104976,"byteOffset":1796976,"target":34962},{"buffer":0,"byteLength":209952,"byteOffset":1901952,"target":34962},{"buffer":0,"byteLength":155592,"byteOffset":2111904,"target":34963},{"buffer":0,"byteLength":173568,"byteOffset":2267496,"target":34962},{"buffer":0,"byteLength":173568,"byteOffset":2441064,"target":34962},{"buffer":0,"byteLength":231424,"byteOffset":2614632,"target":34962},{"buffer":0,"byteLength":115712,"byteOffset":2846056,"target":34962},{"buffer":0,"byteLength":231424,"byteOffset":2961768,"target":34962},{"buffer":0,"byteLength":148296,"byteOffset":3193192,"target":34963},{"buffer":0,"byteLength":159912,"byteOffset":3341488,"target":34962},{"buffer":0,"byteLength":159912,"byteOffset":3501400,"target":34962},{"buffer":0,"byteLength":213216,"byteOffset":3661312,"target":34962},{"buffer":0,"byteLength":106608,"byteOffset":3874528,"target":34962},{"buffer":0,"byteLength":213216,"byteOffset":3981136,"target":34962},{"buffer":0,"byteLength":111816,"byteOffset":4194352,"target":34963},{"buffer":0,"byteLength":122232,"byteOffset":4306168,"target":34962},{"buffer":0,"byteLength":122232,"byteOffset":4428400,"target":34962},{"buffer":0,"byteLength":162976,"byteOffset":4550632,"target":34962},{"buffer":0,"byteLength":81488,"byteOffset":4713608,"target":34962},{"buffer":0,"byteLength":162976,"byteOffset":4795096,"target":34962},{"buffer":0,"byteLength":124392,"byteOffset":4958072,"target":34963},{"buffer":0,"byteLength":140544,"byteOffset":5082464,"target":34962},{"buffer":0,"byteLength":140544,"byteOffset":5223008,"target":34962},{"buffer":0,"byteLength":187392,"byteOffset":5363552,"target":34962},{"buffer":0,"byteLength":93696,"byteOffset":5550944,"target":34962},{"buffer":0,"byteLength":187392,"byteOffset":5644640,"target":34962},{"buffer":0,"byteLength":113304,"byteOffset":5832032,"target":34963},{"buffer":0,"byteLength":124872,"byteOffset":5945336,"target":34962},{"buffer":0,"byteLength":124872,"byteOffset":6070208,"target":34962},{"buffer":0,"byteLength":166496,"byteOffset":6195080,"target":34962},{"buffer":0,"byteLength":83248,"byteOffset":6361576,"target":34962},{"buffer":0,"byteLength":166496,"byteOffset":6444824,"target":34962},{"buffer":0,"byteLength":162840,"byteOffset":6611320,"target":34963},{"buffer":0,"byteLength":174936,"byteOffset":6774160,"target":34962},{"buffer":0,"byteLength":174936,"byteOffset":6949096,"target":34962},{"buffer":0,"byteLength":233248,"byteOffset":7124032,"target":34962},{"buffer":0,"byteLength":116624,"byteOffset":7357280,"target":34962},{"buffer":0,"byteLength":233248,"byteOffset":7473904,"target":34962},{"buffer":0,"byteLength":173016,"byteOffset":7707152,"target":34963},{"buffer":0,"byteLength":191256,"byteOffset":7880168,"target":34962},{"buffer":0,"byteLength":191256,"byteOffset":8071424,"target":34962},{"buffer":0,"byteLength":255008,"byteOffset":8262680,"target":34962},{"buffer":0,"byteLength":127504,"byteOffset":8517688,"target":34962},{"buffer":0,"byteLength":255008,"byteOffset":8645192,"target":34962},{"buffer":0,"byteLength":164904,"byteOffset":8900200,"target":34963},{"buffer":0,"byteLength":178920,"byteOffset":9065104,"target":34962},{"buffer":0,"byteLength":178920,"byteOffset":9244024,"target":34962},{"buffer":0,"byteLength":238560,"byteOffset":9422944,"target":34962},{"buffer":0,"byteLength":119280,"byteOffset":9661504,"target":34962},{"buffer":0,"byteLength":238560,"byteOffset":9780784,"target":34962},{"buffer":0,"byteLength":142896,"byteOffset":10019344,"target":34963},{"buffer":0,"byteLength":169584,"byteOffset":10162240,"target":34962},{"buffer":0,"byteLength":169584,"byteOffset":10331824,"target":34962},{"buffer":0,"byteLength":226112,"byteOffset":10501408,"target":34962},{"buffer":0,"byteLength":113056,"byteOffset":10727520,"target":34962},{"buffer":0,"byteLength":226112,"byteOffset":10840576,"target":34962},{"buffer":0,"byteLength":132000,"byteOffset":11066688,"target":34963},{"buffer":0,"byteLength":143424,"byteOffset":11198688,"target":34962},{"buffer":0,"byteLength":143424,"byteOffset":11342112,"target":34962},{"buffer":0,"byteLength":191232,"byteOffset":11485536,"target":34962},{"buffer":0,"byteLength":95616,"byteOffset":11676768,"target":34962},{"buffer":0,"byteLength":191232,"byteOffset":11772384,"target":34962},{"buffer":0,"byteLength":130272,"byteOffset":11963616,"target":34963},{"buffer":0,"byteLength":140544,"byteOffset":12093888,"target":34962},{"buffer":0,"byteLength":140544,"byteOffset":12234432,"target":34962},{"buffer":0,"byteLength":187392,"byteOffset":12374976,"target":34962},{"buffer":0,"byteLength":93696,"byteOffset":12562368,"target":34962},{"buffer":0,"byteLength":187392,"byteOffset":12656064,"target":34962},{"buffer":0,"byteLength":144648,"byteOffset":12843456,"target":34963},{"buffer":0,"byteLength":156552,"byteOffset":12988104,"target":34962},{"buffer":0,"byteLength":156552,"byteOffset":13144656,"target":34962},{"buffer":0,"byteLength":208736,"byteOffset":13301208,"target":34962},{"buffer":0,"byteLength":104368,"byteOffset":13509944,"target":34962},{"buffer":0,"byteLength":208736,"byteOffset":13614312,"target":34962},{"buffer":0,"byteLength":148440,"byteOffset":13823048,"target":34963},{"buffer":0,"byteLength":167088,"byteOffset":13971488,"target":34962},{"buffer":0,"byteLength":167088,"byteOffset":14138576,"target":34962},{"buffer":0,"byteLength":222784,"byteOffset":14305664,"target":34962},{"buffer":0,"byteLength":111392,"byteOffset":14528448,"target":34962},{"buffer":0,"byteLength":222784,"byteOffset":14639840,"target":34962},{"buffer":0,"byteLength":147144,"byteOffset":14862624,"target":34963},{"buffer":0,"byteLength":161352,"byteOffset":15009768,"target":34962},{"buffer":0,"byteLength":161352,"byteOffset":15171120,"target":34962},{"buffer":0,"byteLength":215136,"byteOffset":15332472,"target":34962},{"buffer":0,"byteLength":107568,"byteOffset":15547608,"target":34962},{"buffer":0,"byteLength":215136,"byteOffset":15655176,"target":34962}],"buffers":[{"byteLength":15870312,"uri":"gem_9.bin"}],"cameras":[{"extensions":{"S8S_v3d_camera":{"controls":"ORBIT","enablePan":true,"moveSpeed":1,"orbitMaxDistance":10000,"orbitMaxPolarAngle":3.141592653589793,"orbitMinDistance":0,"orbitMinPolarAngle":0,"orbitTarget":[-0.0035216701216995716,0.01733217015862465,0.006714681629091501],"rotateSpeed":1,"viewportFitInitialAspect":1,"viewportFitType":"VERTICAL"}},"name":"__DEFAULT__","perspective":{"aspectRatio":1,"yfov":0.7853981633974483,"zfar":5.0,"znear":0.0010000000474974513},"type":"perspective"}],"extensions":{"S8S_v3d_materials":{"nodeGraphs":[{"edges":[{"fromNode":4,"fromOutput":0,"toInput":0,"toNode":8},{"fromNode":4,"fromOutput":0,"toInput":0,"toNode":9},{"fromNode":4,"fromOutput":0,"toInput":0,"toNode":0},{"fromNode":2,"fromOutput":0,"toInput":1,"toNode":0},{"fromNode":3,"fromOutput":0,"toInput":1,"toNode":8},{"fromNode":1,"fromOutput":0,"toInput":1,"toNode":9},{"fromNode":13,"fromOutput":0,"toInput":0,"toNode":2},{"fromNode":13,"fromOutput":0,"toInput":2,"toNode":1},{"fromNode":13,"fromOutput":0,"toInput":1,"toNode":3},{"fromNode":14,"fromOutput":1,"toInput":0,"toNode":4},{"fromNode":0,"fromOutput":0,"toInput":4,"toNode":6},{"fromNode":8,"fromOutput":0,"toInput":4,"toNode":7},{"fromNode":9,"fromOutput":0,"toInput":4,"toNode":11},{"fromNode":6,"fromOutput":0,"toInput":0,"toNode":10},{"fromNode":7,"fromOutput":0,"toInput":1,"toNode":10},{"fromNode":10,"fromOutput":0,"toInput":0,"toNode":12},{"fromNode":11,"fromOutput":0,"toInput":1,"toNode":12},{"fromNode":12,"fromOutput":0,"toInput":0,"toNode":5}],"name":"inner_gem_material","nodes":[{"inputs":[[0.5,0.5,0.5],[0.5,0.5,0.5],[0.0,0.0,0.0],1.0],"is_active_output":false,"name":"Vector Math.003","operation":"ADD","outputs":[[0.0,0.0,0.0],0.0],"type":"VECT_MATH_BL"},{"inputs":[0.0,0.0,0.09999999403953552],"is_active_output":false,"name":"Combine XYZ.002","outputs":[[0.0,0.0,0.0]],"type":"COMBXYZ_BL"},{"inputs":[0.09999999403953552,0.0,0.0],"is_active_output":false,"name":"Combine XYZ","outputs":[[0.0,0.0,0.0]],"type":"COMBXYZ_BL"},{"inputs":[0.0,0.09999999403953552,0.0],"is_active_output":false,"name":"Combine XYZ.001","outputs":[[0.0,0.0,0.0]],"type":"COMBXYZ_BL"},{"inputs":[[0.0,0.0,0.0]],"is_active_output":false,"name":"Reroute.001","outputs":[[0.0,0.0,0.0]],"type":"REROUTE_BL"},{"inputs":[[0,0,0,0]],"is_active_output":true,"name":"Group Output","outputs":[],"type":"GROUP_OUTPUT_BL"},{"inputs":[[1.0,0.0,0.0,1.0],0.10000000149011612,0.0,0.0,[0.0,0.0,0.0],[0.0,0.0,0.0]],"is_active_output":false,"name":"Glossy BSDF","outputs":[[0,0,0,0]],"type":"BSDF_GLOSSY_BL"},{"inputs":[[0.0,1.0,0.0,1.0],0.10000000149011612,0.0,0.0,[0.0,0.0,0.0],[0.0,0.0,0.0]],"is_active_output":false,"name":"Glossy BSDF.001","outputs":[[0,0,0,0]],"type":"BSDF_GLOSSY_BL"},{"inputs":[[0.5,0.5,0.5],[0.5,0.5,0.5],[0.0,0.0,0.0],1.0],"is_active_output":false,"name":"Vector Math.001","operation":"ADD","outputs":[[0.0,0.0,0.0],0.0],"type":"VECT_MATH_BL"},{"inputs":[[0.5,0.5,0.5],[0.5,0.5,0.5],[0.0,0.0,0.0],1.0],"is_active_output":false,"name":"Vector Math.002","operation":"ADD","outputs":[[0.0,0.0,0.0],0.0],"type":"VECT_MATH_BL"},{"inputs":[[0,0,0,0],[0,0,0,0]],"is_active_output":false,"name":"Add Shader","outputs":[[0,0,0,0]],"type":"ADD_SHADER_BL"},{"inputs":[[0.0,0.0,1.0,1.0],0.10000000149011612,0.0,0.0,[0.0,0.0,0.0],[0.0,0.0,0.0]],"is_active_output":false,"name":"Glossy BSDF.002","outputs":[[0,0,0,0]],"type":"BSDF_GLOSSY_BL"},{"inputs":[[0,0,0,0],[0,0,0,0]],"is_active_output":false,"name":"Add Shader.001","outputs":[[0,0,0,0]],"type":"ADD_SHADER_BL"},{"inputs":[],"is_active_output":false,"name":"Group Input","outputs":[0.0],"type":"GROUP_INPUT_BL"},{"inputs":[],"is_active_output":false,"name":"Geometry.001","outputs":[[0.0,0.0,0.0],[0.0,0.0,0.0],[0.0,0.0,0.0],[0.0,0.0,0.0],[0.0,0.0,0.0],[0.0,0.0,0.0],0.0,0.0,0.0],"type":"NEW_GEOMETRY_BL"}]},{"edges":[{"fromNode":18,"fromOutput":0,"toInput":0,"toNode":23},{"fromNode":13,"fromOutput":0,"toInput":1,"toNode":6},{"fromNode":22,"fromOutput":2,"toInput":0,"toNode":6},{"fromNode":23,"fromOutput":0,"toInput":0,"toNode":22},{"fromNode":10,"fromOutput":2,"toInput":0,"toNode":9},{"fromNode":9,"fromOutput":0,"toInput":0,"toNode":8},{"fromNode":12,"fromOutput":0,"toInput":1,"toNode":14},{"fromNode":11,"fromOutput":0,"toInput":0,"toNode":10},{"fromNode":8,"fromOutput":0,"toInput":0,"toNode":14},{"fromNode":18,"fromOutput":0,"toInput":0,"toNode":17},{"fromNode":17,"fromOutput":0,"toInput":1,"toNode":19},{"fromNode":7,"fromOutput":0,"toInput":2,"toNode":6},{"fromNode":20,"fromOutput":2,"toInput":4,"toNode":7},{"fromNode":16,"fromOutput":0,"toInput":0,"toNode":20},{"fromNode":21,"fromOutput":1,"toInput":6,"toNode":20},{"fromNode":19,"fromOutput":0,"toInput":7,"toNode":20},{"fromNode":6,"fromOutput":0,"toInput":2,"toNode":14},{"fromNode":14,"fromOutput":0,"toInput":0,"toNode":24},{"fromNode":15,"fromOutput":2,"toInput":1,"toNode":7},{"fromNode":3,"fromOutput":2,"toInput":0,"toNode":7},{"fromNode":20,"fromOutput":2,"toInput":1,"toNode":2},{"fromNode":2,"fromOutput":0,"toInput":0,"toNode":3},{"fromNode":20,"fromOutput":2,"toInput":1,"toNode":4},{"fromNode":5,"fromOutput":2,"toInput":6,"toNode":3},{"fromNode":4,"fromOutput":1,"toInput":0,"toNode":5},{"fromNode":15,"fromOutput":0,"toInput":6,"toNode":5},{"fromNode":15,"fromOutput":1,"toInput":7,"toNode":5}],"name":"metall_material","nodes":[{"inputs":[],"is_active_output":false,"name":"Frame","outputs":[],"type":"FRAME_BL"},{"inputs":[],"is_active_output":false,"name":"Frame.001","outputs":[],"type":"FRAME_BL"},{"inputs":[1.4500000476837158,[0.0,0.0,0.0]],"is_active_output":false,"name":"Fresnel","outputs":[0.0],"type":"FRESNEL_BL"},{"blendType":"MIX","clampFactor":true,"clampResult":false,"dataType":"RGBA","factorMode":"UNIFORM","inputs":[0.5,[0.5,0.5,0.5],0.0,0.0,[0.0,0.0,0.0],[0.0,0.0,0.0],[0.5,0.5,0.5,1.0],[0.6795570850372314,0.6795570850372314,0.6795570850372314,1.0],0,0],"is_active_output":false,"name":"Mix.002","outputs":[0.0,[0.0,0.0,0.0],[0.0,0.0,0.0,0.0],0],"type":"MIX_BL"},{"inputs":[0.5,[0.0,0.0,0.0]],"is_active_output":false,"name":"Layer Weight","outputs":[0.0,0.0],"type":"LAYER_WEIGHT_BL"},{"blendType":"MIX","clampFactor":true,"clampResult":false,"dataType":"RGBA","factorMode":"UNIFORM","inputs":[0.5,[0.5,0.5,0.5],0.0,0.0,[0.0,0.0,0.0],[0.0,0.0,0.0],[0.5,0.5,0.5,1.0],[0.5,0.5,0.5,1.0],0,0],"is_active_output":false,"name":"Mix.003","outputs":[0.0,[0.0,0.0,0.0],[0.0,0.0,0.0,0.0],0],"type":"MIX_BL"},{"inputs":[0.5,[0,0,0,0],[0,0,0,0]],"is_active_output":false,"name":"Mix Shader","outputs":[[0,0,0,0]],"type":"MIX_SHADER_BL"},{"inputs":[[0.6266327500343323,0.6266327500343323,0.6266327500343323,1.0],0.0,0.0,0.0,[0.0,0.0,0.0],[0.0,0.0,0.0]],"is_active_output":false,"name":"Glossy BSDF","outputs":[[0,0,0,0]],"type":"BSDF_GLOSSY_BL"},{"inputs":[0.5,23.39999771118164,0.5],"is_active_output":false,"name":"Math.001","operation":"MULTIPLY","outputs":[0.0],"type":"MATH_BL","useClamp":true},{"inputs":[0.5,0.07000000029802322,0.5],"is_active_output":false,"name":"Math","operation":"ADD","outputs":[0.0],"type":"MATH_BL","useClamp":false},{"inputs":[[0.800000011920929,0.800000011920929,0.800000011920929,1.0]],"is_active_output":false,"mode":"RGB","name":"Separate RGB","outputs":[0.0,0.0,0.0],"type":"SEPARATE_COLOR_BL"},{"inputs":[],"is_active_output":false,"name":"Geometry","outputs":[[0.0,0.0,0.0],[0.0,0.0,0.0],[0.0,0.0,0.0],[0.0,0.0,0.0],[0.0,0.0,0.0],[0.0,0.0,0.0],0.0,0.0,0.0],"type":"NEW_GEOMETRY_BL"},{"inputs":[[1.0,1.0,1.0,1.0],1.0],"is_active_output":false,"name":"Emission.001","outputs":[[0,0,0,0]],"type":"EMISSION_BL"},{"inputs":[[0.0,0.0,0.0,1.0],0.0,[0.0,0.0,0.0]],"is_active_output":false,"name":"Diffuse BSDF","outputs":[[0,0,0,0]],"type":"BSDF_DIFFUSE_BL"},{"inputs":[0.5,[0,0,0,0],[0,0,0,0]],"is_active_output":false,"name":"Mix Shader.001","outputs":[[0,0,0,0]],"type":"MIX_SHADER_BL"},{"inputs":[],"is_active_output":false,"name":"Group Input","outputs":[[0.0,0.0,0.0,1.0],[0.0,0.0,0.0,1.0],0.0],"type":"GROUP_INPUT_BL"},{"colorLayer":"engrave_mask","inputs":[],"is_active_output":false,"name":"Attribute","outputs":[[0.0,0.0,0.0,0.0],[0.0,0.0,0.0],0.0,0.0],"type":"ATTRIBUTE_BL"},{"alphaMode":"STRAIGHT","inputs":[[0.0,0.0,0.0]],"is_active_output":false,"name":"Image Texture.001","outputs":[[0.0,0.0,0.0,0.0],0.0],"projection":"FLAT","projectionBlend":0.0,"texture":1,"type":"TEX_IMAGE_BL"},{"inputs":[],"is_active_output":false,"name":"UV Map","outputs":[[0.0,0.0,0.0]],"type":"UVMAP_BL","uvLayer":"engrave"},{"inputs":[1.0,[0.5,0.5,1.0,1.0]],"is_active_output":false,"name":"Normal Map","outputs":[[0.0,0.0,0.0]],"type":"NORMAL_MAP_BL","uvLayer":"engrave"},{"blendType":"MIX","clampFactor":true,"clampResult":false,"dataType":"RGBA","factorMode":"UNIFORM","inputs":[0.5,[0.5,0.5,0.5],0.0,0.0,[0.0,0.0,0.0],[0.0,0.0,0.0],[0.5,0.5,0.5,1.0],[0.5,0.5,0.5,1.0],0,0],"is_active_output":false,"name":"Mix.001","outputs":[0.0,[0.0,0.0,0.0],[0.0,0.0,0.0,0.0],0],"type":"MIX_BL"},{"inputs":[],"is_active_output":false,"name":"Geometry.001","outputs":[[0.0,0.0,0.0],[0.0,0.0,0.0],[0.0,0.0,0.0],[0.0,0.0,0.0],[0.0,0.0,0.0],[0.0,0.0,0.0],0.0,0.0,0.0],"type":"NEW_GEOMETRY_BL"},{"blendType":"MIX","clampFactor":true,"clampResult":false,"dataType":"RGBA","factorMode":"UNIFORM","inputs":[0.5,[0.5,0.5,0.5],0.0,0.0,[0.0,0.0,0.0],[0.0,0.0,0.0],[0.7743505835533142,0.7743505835533142,0.7743505835533142,1.0],[1.0,1.0,1.0,1.0],0,0],"is_active_output":false,"name":"Mix","outputs":[0.0,[0.0,0.0,0.0],[0.0,0.0,0.0,0.0],0],"type":"MIX_BL"},{"alphaMode":"STRAIGHT","inputs":[[0.0,0.0,0.0]],"is_active_output":false,"name":"Image Texture","outputs":[[0.0,0.0,0.0,0.0],0.0],"projection":"FLAT","projectionBlend":0.0,"texture":2,"type":"TEX_IMAGE_BL"},{"inputs":[[0,0,0,0]],"is_active_output":true,"name":"Group Output","outputs":[],"type":"GROUP_OUTPUT_BL"}]},{"edges":[{"fromNode":1,"fromOutput":1,"toInput":1,"toNode":11},{"fromNode":7,"fromOutput":0,"toInput":0,"toNode":8},{"fromNode":8,"fromOutput":0,"toInput":0,"toNode":0},{"fromNode":1,"fromOutput":1,"toInput":1,"toNode":8},{"fromNode":0,"fromOutput":0,"toInput":0,"toNode":2},{"fromNode":4,"fromOutput":0,"toInput":1,"toNode":9},{"fromNode":9,"fromOutput":0,"toInput":0,"toNode":13},{"fromNode":10,"fromOutput":0,"toInput":2,"toNode":9},{"fromNode":11,"fromOutput":0,"toInput":0,"toNode":9},{"fromNode":2,"fromOutput":0,"toInput":6,"toNode":3},{"fromNode":3,"fromOutput":2,"toInput":6,"toNode":5},{"fromNode":12,"fromOutput":0,"toInput":7,"toNode":3},{"fromNode":5,"fromOutput":2,"toInput":0,"toNode":4},{"fromNode":12,"fromOutput":0,"toInput":0,"toNode":6},{"fromNode":6,"fromOutput":2,"toInput":7,"toNode":5}],"name":"outer_gem_material","nodes":[{"dispersionFactor":1.0,"falloffFactor":0.0,"inputs":[[0.0,0.0,0.0],0.0,1.8000000715255737,0.8999999761581421,0.5,2.0,0.0],"is_active_output":false,"name":"Noise Texture.001","outputs":[0.0,[0.0,0.0,0.0,0.0]],"type":"TEX_NOISE_BL"},{"inputs":[],"is_active_output":false,"name":"Geometry","outputs":[[0.0,0.0,0.0],[0.0,0.0,0.0],[0.0,0.0,0.0],[0.0,0.0,0.0],[0.0,0.0,0.0],[0.0,0.0,0.0],0.0,0.0,0.0],"type":"NEW_GEOMETRY_BL"},{"curve":{"input":[0.0,0.6272729635238647],"interpolation":"LINEAR","output":[0.28444889187812805,0.28444889187812805,0.28444889187812805,1.0,1.0,1.0,1.0,1.0]},"inputs":[0.5],"is_active_output":false,"name":"ColorRamp.001","outputs":[[0.0,0.0,0.0,0.0],0.0],"type":"VALTORGB_BL"},{"blendType":"COLOR","clampFactor":true,"clampResult":false,"dataType":"RGBA","factorMode":"UNIFORM","inputs":[1.0,[0.5,0.5,0.5],0.0,0.0,[0.0,0.0,0.0],[0.0,0.0,0.0],[0.5,0.5,0.5,1.0],[0.23454074561595917,0.49895036220550537,1.0,1.0],0,0],"is_active_output":false,"name":"Mix","outputs":[0.0,[0.0,0.0,0.0],[0.0,0.0,0.0,0.0],0],"type":"MIX_BL"},{"distribution":"BECKMANN","inputs":[[0.09989873319864273,0.004391442518681288,0.0,1.0],0.0,3.5,[0.0,0.0,0.0]],"is_active_output":false,"name":"Refraction BSDF","outputs":[[0,0,0,0]],"type":"BSDF_REFRACTION_BL"},{"blendType":"MULTIPLY","clampFactor":true,"clampResult":false,"dataType":"RGBA","factorMode":"UNIFORM","inputs":[1.0,[0.5,0.5,0.5],0.0,0.0,[0.0,0.0,0.0],[0.0,0.0,0.0],[0.5,0.5,0.5,1.0],[0.5,0.5,0.5,1.0],0,0],"is_active_output":false,"name":"Mix.001","outputs":[0.0,[0.0,0.0,0.0],[0.0,0.0,0.0,0.0],0],"type":"MIX_BL"},{"inputs":[[0.800000011920929,0.800000011920929,0.800000011920929,1.0]],"is_active_output":false,"mode":"HSV","name":"Separate HSV","outputs":[0.0,0.0,0.0],"type":"SEPARATE_COLOR_BL"},{"inputs":[],"is_active_output":false,"name":"Texture Coordinate","object":-1,"outputs":[[0.0,0.0,0.0],[0.0,0.0,0.0],[0.0,0.0,0.0],[0.0,0.0,0.0],[0.0,0.0,0.0],[0.0,0.0,0.0],[0.0,0.0,0.0]],"type":"TEX_COORD_BL"},{"inputs":[[0.5,0.5,0.5],[0.5,0.5,0.5],[0.0,0.0,0.0],1.0],"is_active_output":false,"name":"Vector Math","operation":"ADD","outputs":[[0.0,0.0,0.0],0.0],"type":"VECT_MATH_BL"},{"inputs":[0.5,[0,0,0,0],[0,0,0,0]],"is_active_output":false,"name":"Mix Shader","outputs":[[0,0,0,0]],"type":"MIX_SHADER_BL"},{"inputs":[[0.800000011920929,0.800000011920929,0.800000011920929,1.0],0.0,0.0,0.0,[0.0,0.0,0.0],[0.0,0.0,0.0]],"is_active_output":false,"name":"Glossy BSDF","outputs":[[0,0,0,0]],"type":"BSDF_GLOSSY_BL"},{"inputs":[2.499999523162842,[0.0,0.0,0.0]],"is_active_output":false,"name":"Fresnel","outputs":[0.0],"type":"FRESNEL_BL"},{"inputs":[],"is_active_output":false,"name":"Group Input","outputs":[[0.0,0.0,0.0,1.0]],"type":"GROUP_INPUT_BL"},{"inputs":[[0,0,0,0]],"is_active_output":true,"name":"Group Output","outputs":[],"type":"GROUP_OUTPUT_BL"}]}]}},"extensionsUsed":["S8S_v3d_texture","S8S_v3d_materials","S8S_v3d_camera","S8S_v3d_mesh","S8S_v3d_node","S8S_v3d_scene"],"images":[{"uri":"environment.hdr"},{"uri":"engrave_normal.jpg"},{"uri":"engrave_ao.jpg"}],"materials":[{"extensions":{"S8S_v3d_materials":{"gtaoVisible":true,"materialIndex":0,"nodeGraph":{"edges":[{"fromNode":2,"fromOutput":0,"toInput":0,"toNode":1},{"fromNode":0,"fromOutput":0,"toInput":0,"toNode":2}],"nodes":[{"inputs":[],"is_active_output":false,"name":"Value","outputs":[0.009999999776482582],"type":"VALUE_BL"},{"inputs":[[0,0,0,0],[0,0,0,0],[0.0,0.0,0.0],0.0],"is_active_output":true,"name":"Material Output","outputs":[],"type":"OUTPUT_MATERIAL_BL"},{"inputs":[0.0],"is_active_output":false,"name":"Group","nodeGraph":0,"outputs":[[0,0,0,0]],"type":"GROUP_BL"}]},"useCastShadows":true}},"name":"gem_inner"},{"extensions":{"S8S_v3d_materials":{"gtaoVisible":true,"materialIndex":0,"nodeGraph":{"edges":[{"fromNode":0,"fromOutput":0,"toInput":0,"toNode":2},{"fromNode":1,"fromOutput":0,"toInput":0,"toNode":0}],"nodes":[{"inputs":[[0.0,0.0,0.0,1.0]],"is_active_output":false,"name":"Group","nodeGraph":2,"outputs":[[0,0,0,0]],"type":"GROUP_BL"},{"inputs":[],"is_active_output":false,"name":"gem_color","outputs":[[0.800000011920929,0.800000011920929,0.800000011920929,1.0]],"type":"RGB_BL"},{"inputs":[[0,0,0,0],[0,0,0,0],[0.0,0.0,0.0],0.0],"is_active_output":true,"name":"Material Output","outputs":[],"type":"OUTPUT_MATERIAL_BL"}]},"useCastShadows":true}},"name":"gem_outer"},{"extensions":{"S8S_v3d_materials":{"gtaoVisible":true,"materialIndex":0,"nodeGraph":{"edges":[{"fromNode":4,"fromOutput":0,"toInput":0,"toNode":3},{"fromNode":1,"fromOutput":0,"toInput":1,"toNode":4},{"fromNode":0,"fromOutput":0,"toInput":0,"toNode":4},{"fromNode":2,"fromOutput":0,"toInput":2,"toNode":4}],"nodes":[{"inputs":[],"is_active_output":false,"name":"metall_color_1","outputs":[[0.7293471693992615,0.7293471693992615,0.7293471693992615,1.0]],"type":"RGB_BL"},{"inputs":[],"is_active_output":false,"name":"metall_color_2","outputs":[[0.5382355451583862,0.5382355451583862,0.5382355451583862,1.0]],"type":"RGB_BL"},{"inputs":[],"is_active_output":false,"name":"metall_roughness","outputs":[0.0],"type":"VALUE_BL"},{"inputs":[[0,0,0,0],[0,0,0,0],[0.0,0.0,0.0],0.0],"is_active_output":true,"name":"Material Output","outputs":[],"type":"OUTPUT_MATERIAL_BL"},{"inputs":[[0.0,0.0,0.0,1.0],[0.0,0.0,0.0,1.0],0.0],"is_active_output":false,"name":"Group","nodeGraph":1,"outputs":[[0,0,0,0]],"type":"GROUP_BL"}]},"useCastShadows":true}},"name":"metall"},{"extensions":{"S8S_v3d_materials":{"gtaoVisible":true,"materialIndex":0,"nodeGraph":{"edges":[{"fromNode":2,"fromOutput":0,"toInput":0,"toNode":0},{"fromNode":4,"fromOutput":0,"toInput":6,"toNode":3},{"fromNode":1,"fromOutput":0,"toInput":0,"toNode":3},{"fromNode":3,"fromOutput":2,"toInput":0,"toNode":2}],"nodes":[{"inputs":[[0,0,0,0],[0,0,0,0]],"is_active_output":true,"name":"World Output","outputs":[],"type":"OUTPUT_WORLD_BL"},{"inputs":[],"is_active_output":false,"name":"Light Path","outputs":[0.0,0.0,0.0,0.0,0.0,0.0,0.0,0.0,0.0,0.0,0.0,0.0,0.0],"type":"LIGHT_PATH_BL"},{"inputs":[[1.0,1.0,1.0,1.0],1.0000001192092896],"is_active_output":false,"name":"Background","outputs":[[0,0,0,0]],"type":"BACKGROUND_BL"},{"blendType":"MIX","clampFactor":true,"clampResult":false,"dataType":"RGBA","factorMode":"UNIFORM","inputs":[0.5,[0.5,0.5,0.5],0.0,0.0,[0.0,0.0,0.0],[0.0,0.0,0.0],[0.5,0.5,0.5,1.0],[1.0,1.0,1.0,1.0],0,0],"is_active_output":false,"name":"Mix","outputs":[0.0,[0.0,0.0,0.0],[0.0,0.0,0.0,0.0],0],"type":"MIX_BL"},{"inputs":[[0.0,0.0,0.0]],"is_active_output":false,"name":"Environment Texture","outputs":[[0.0,0.0,0.0,0.0]],"projection":"EQUIRECTANGULAR","texture":0,"type":"TEX_ENVIRONMENT_BL"}]},"useCastShadows":true}},"name":"Verge3D_Environment_World"}],"meshes":[{"extensions":{"S8S_v3d_mesh":{"colorLayers":{},"uvLayers":{}}},"name":"gem_9_inside","primitives":[{"attributes":{"NORMAL":2,"POSITION":1},"indices":0,"material":0,"mode":4}]},{"extensions":{"S8S_v3d_mesh":{"colorLayers":{},"uvLayers":{}}},"name":"gem_9_inside_1","primitives":[{"attributes":{"NORMAL":5,"POSITION":4},"indices":3,"material":0,"mode":4}]},{"extensions":{"S8S_v3d_mesh":{"colorLayers":{},"uvLayers":{}}},"name":"gem_9_inside_1.001","primitives":[{"attributes":{"NORMAL":8,"POSITION":7},"indices":6,"material":0,"mode":4}]},{"extensions":{"S8S_v3d_mesh":{"colorLayers":{},"uvLayers":{}}},"name":"gem_9_inside_1.002","primitives":[{"attributes":{"NORMAL":11,"POSITION":10},"indices":9,"material":0,"mode":4}]},{"extensions":{"S8S_v3d_mesh":{"colorLayers":{},"uvLayers":{}}},"name":"gem_9_inside_1.003","primitives":[{"attributes":{"NORMAL":14,"POSITION":13},"indices":12,"material":0,"mode":4}]},{"extensions":{"S8S_v3d_mesh":{"colorLayers":{},"uvLayers":{}}},"name":"gem_9_inside_1.004","primitives":[{"attributes":{"NORMAL":17,"POSITION":16},"indices":15,"material":0,"mode":4}]},{"extensions":{"S8S_v3d_mesh":{"colorLayers":{},"uvLayers":{}}},"name":"gem_9_inside_2","primitives":[{"attributes":{"NORMAL":20,"POSITION":19},"indices":18,"material":0,"mode":4}]},{"extensions":{"S8S_v3d_mesh":{"colorLayers":{},"uvLayers":{}}},"name":"gem_9_outside","primitives":[{"attributes":{"NORMAL":23,"POSITION":22},"indices":21,"material":1,"mode":4}]},{"extensions":{"S8S_v3d_mesh":{"colorLayers":{},"uvLayers":{}}},"name":"gem_9_outside.001","primitives":[{"attributes":{"NORMAL":26,"POSITION":25},"indices":24,"material":1,"mode":4}]},{"extensions":{"S8S_v3d_mesh":{"colorLayers":{},"uvLayers":{}}},"name":"gem_9_outside_1","primitives":[{"attributes":{"NORMAL":29,"POSITION":28},"indices":27,"material":1,"mode":4}]},{"extensions":{"S8S_v3d_mesh":{"colorLayers":{},"uvLayers":{}}},"name":"gem_9_outside_1.001","primitives":[{"attributes":{"NORMAL":32,"POSITION":31},"indices":30,"material":1,"mode":4}]},{"extensions":{"S8S_v3d_mesh":{"colorLayers":{},"uvLayers":{}}},"name":"gem_9_outside_1.002","primitives":[{"attributes":{"NORMAL":35,"POSITION":34},"indices":33,"material":1,"mode":4}]},{"extensions":{"S8S_v3d_mesh":{"colorLayers":{},"uvLayers":{}}},"name":"gem_9_outside_1.003","primitives":[{"attributes":{"NORMAL":38,"POSITION":37},"indices":36,"material":1,"mode":4}]},{"extensions":{"S8S_v3d_mesh":{"colorLayers":{},"uvLayers":{}}},"name":"gem_9_outside_1.004","primitives":[{"attributes":{"NORMAL":41,"POSITION":40},"indices":39,"material":1,"mode":4}]},{"extensions":{"S8S_v3d_mesh":{"colorLayers":{},"uvLayers":{}}},"name":"gem_9_outside_2","primitives":[{"attributes":{"NORMAL":44,"POSITION":43},"indices":42,"material":1,"mode":4}]},{"extensions":{"S8S_v3d_mesh":{"colorLayers":{"engrave_mask":"COLOR_0"},"uvLayers":{"engrave":"TEXCOORD_0"}}},"name":"ring_type_1_v3d_gem.001","primitives":[{"attributes":{"COLOR_0":50,"NORMAL":47,"POSITION":46,"TANGENT":48,"TEXCOORD_0":49},"indices":45,"material":2,"mode":4}]},{"extensions":{"S8S_v3d_mesh":{"colorLayers":{"engrave_mask":"COLOR_0"},"uvLayers":{"engrave":"TEXCOORD_0"}}},"name":"ring_type_1_v3d_gem.003","primitives":[{"attributes":{"COLOR_0":56,"NORMAL":53,"POSITION":52,"TANGENT":54,"TEXCOORD_0":55},"indices":51,"material":2,"mode":4}]},{"extensions":{"S8S_v3d_mesh":{"colorLayers":{"engrave_mask":"COLOR_0"},"uvLayers":{"engrave":"TEXCOORD_0"}}},"name":"ring_type_1_v3d_gem.004","primitives":[{"attributes":{"COLOR_0":62,"NORMAL":59,"POSITION":58,"TANGENT":60,"TEXCOORD_0":61},"indices":57,"material":2,"mode":4}]},{"extensions":{"S8S_v3d_mesh":{"colorLayers":{"engrave_mask":"COLOR_0"},"uvLayers":{"engrave":"TEXCOORD_0"}}},"name":"ring_type_2_v3d_gem.001","primitives":[{"attributes":{"COLOR_0":68,"NORMAL":65,"POSITION":64,"TANGENT":66,"TEXCOORD_0":67},"indices":63,"material":2,"mode":4}]},{"extensions":{"S8S_v3d_mesh":{"colorLayers":{"engrave_mask":"COLOR_0"},"uvLayers":{"engrave":"TEXCOORD_0"}}},"name":"ring_type_2_v3d_gem.002","primitives":[{"attributes":{"COLOR_0":74,"NORMAL":71,"POSITION":70,"TANGENT":72,"TEXCOORD_0":73},"indices":69,"material":2,"mode":4}]},{"extensions":{"S8S_v3d_mesh":{"colorLayers":{"engrave_mask":"COLOR_0"},"uvLayers":{"engrave":"TEXCOORD_0"}}},"name":"ring_type_2_v3d_gem.003","primitives":[{"attributes":{"COLOR_0":80,"NORMAL":77,"POSITION":76,"TANGENT":78,"TEXCOORD_0":79},"indices":75,"material":2,"mode":4}]},{"extensions":{"S8S_v3d_mesh":{"colorLayers":{"engrave_mask":"COLOR_0"},"uvLayers":{"engrave":"TEXCOORD_0"}}},"name":"ring_type_3_v3d_gem.001","primitives":[{"attributes":{"COLOR_0":86,"NORMAL":83,"POSITION":82,"TANGENT":84,"TEXCOORD_0":85},"indices":81,"material":2,"mode":4}]},{"extensions":{"S8S_v3d_mesh":{"colorLayers":{"engrave_mask":"COLOR_0"},"uvLayers":{"engrave":"TEXCOORD_0"}}},"name":"ring_type_3_v3d_gem.002","primitives":[{"attributes":{"COLOR_0":92,"NORMAL":89,"POSITION":88,"TANGENT":90,"TEXCOORD_0":91},"indices":87,"material":2,"mode":4}]},{"extensions":{"S8S_v3d_mesh":{"colorLayers":{"engrave_mask":"COLOR_0"},"uvLayers":{"engrave":"TEXCOORD_0"}}},"name":"ring_type_3_v3d_gem.003","primitives":[{"attributes":{"COLOR_0":98,"NORMAL":95,"POSITION":94,"TANGENT":96,"TEXCOORD_0":97},"indices":93,"material":2,"mode":4}]},{"extensions":{"S8S_v3d_mesh":{"colorLayers":{"engrave_mask":"COLOR_0"},"uvLayers":{"engrave":"TEXCOORD_0"}}},"name":"ring_type_4_big_gem.000","primitives":[{"attributes":{"COLOR_0":104,"NORMAL":101,"POSITION":100,"TANGENT":102,"TEXCOORD_0":103},"indices":99,"material":2,"mode":4}]},{"extensions":{"S8S_v3d_mesh":{"colorLayers":{"engrave_mask":"COLOR_0"},"uvLayers":{"engrave":"TEXCOORD_0"}}},"name":"ring_type_4_big_gem.002","primitives":[{"attributes":{"COLOR_0":110,"NORMAL":107,"POSITION":106,"TANGENT":108,"TEXCOORD_0":109},"indices":105,"material":2,"mode":4}]},{"extensions":{"S8S_v3d_mesh":{"colorLayers":{"engrave_mask":"COLOR_0"},"uvLayers":{"engrave":"TEXCOORD_0"}}},"name":"ring_type_4_big_gem.003","primitives":[{"attributes":{"COLOR_0":116,"NORMAL":113,"POSITION":112,"TANGENT":114,"TEXCOORD_0":115},"indices":111,"material":2,"mode":4}]},{"extensions":{"S8S_v3d_mesh":{"colorLayers":{"engrave_mask":"COLOR_0"},"uvLayers":{"engrave":"TEXCOORD_0"}}},"name":"ring_type_5_v3d_gem.001","primitives":[{"attributes":{"COLOR_0":122,"NORMAL":119,"POSITION":118,"TANGENT":120,"TEXCOORD_0":121},"indices":117,"material":2,"mode":4}]},{"extensions":{"S8S_v3d_mesh":{"colorLayers":{"engrave_mask":"COLOR_0"},"uvLayers":{"engrave":"TEXCOORD_0"}}},"name":"ring_type_5_v3d_gem.002","primitives":[{"attributes":{"COLOR_0":128,"NORMAL":125,"POSITION":124,"TANGENT":126,"TEXCOORD_0":127},"indices":123,"material":2,"mode":4}]},{"extensions":{"S8S_v3d_mesh":{"colorLayers":{"engrave_mask":"COLOR_0"},"uvLayers":{"engrave":"TEXCOORD_0"}}},"name":"ring_type_5_v3d_gem.003","primitives":[{"attributes":{"COLOR_0":134,"NORMAL":131,"POSITION":130,"TANGENT":132,"TEXCOORD_0":133},"indices":129,"material":2,"mode":4}]}],"nodes":[{"children":[3,89],"extensions":{"S8S_v3d_node":{"frustumCulling":true,"groupNames":["gem_9_line_0"],"hidden":true,"hidpiCompositing":false,"objectColor":[1.0,1.0,1.0,1.0],"objectIndex":0,"renderOrder":0,"useShadows":true}},"mesh":21,"name":"ring_type_3_gem_9_curve_0_line_0","translation":[0.0,7.999999797903001e-05,-0.0]},{"extensions":{"S8S_v3d_node":{"frustumCulling":true,"groupNames":["gem_9_line_0"],"hidden":true,"hidpiCompositing":false,"objectColor":[1.0,1.0,1.0,1.0],"objectIndex":0,"renderOrder":0,"useShadows":true}},"mesh":8,"name":"gem_type_1_gem_9_curve_0_line_0_outside","translation":[0.0,0.028785886242985725,-0.10000000149011612]},{"children":[1],"name":"v3d_Proxy_Node_0_gem_type_1_gem_9_curve_0_line_0_outside","translation":[-0.0,-0.0,0.10000000149011612]},{"extensions":{"S8S_v3d_node":{"frustumCulling":true,"groupNames":["gem_9_line_0"],"hidden":true,"hidpiCompositing":false,"objectColor":[1.0,1.0,1.0,1.0],"objectIndex":0,"renderOrder":0,"useShadows":true}},"mesh":0,"name":"gem_type_3_gem_9_curve_0_line_0_inside","translation":[0.0,0.02881079725921154,-0.0]},{"extensions":{"S8S_v3d_node":{"frustumCulling":true,"groupNames":["gem_9_line_1"],"hidden":true,"hidpiCompositing":false,"objectColor":[1.0,1.0,1.0,1.0],"objectIndex":0,"renderOrder":0,"useShadows":true}},"mesh":10,"name":"gem_type_1_gem_9_curve_0_line_1_outside_1","rotation":[1.9470718370939721e-07,1.6292068494294654e-07,-1.0,1.7478846739112444e-14],"translation":[0.10000000894069672,-3.554383180739539e-16,-0.10000000149011612]},{"children":[4],"name":"v3d_Proxy_Node_0_gem_type_1_gem_9_curve_0_line_1_outside_1","translation":[-0.10000000149011612,-0.0,0.10000000149011612]},{"extensions":{"S8S_v3d_node":{"frustumCulling":true,"groupNames":["gem_9_line_0"],"hidden":true,"hidpiCompositing":false,"objectColor":[1.0,1.0,1.0,1.0],"objectIndex":0,"renderOrder":0,"useShadows":true}},"mesh":0,"name":"gem_type_5_gem_9_curve_0_line_0_inside","translation":[0.0,0.029130730777978897,0.10000000149011612]},{"children":[6],"name":"v3d_Proxy_Node_0_gem_type_5_gem_9_curve_0_line_0_inside","translation":[-0.0,-0.0,-0.10000000149011612]},{"extensions":{"S8S_v3d_node":{"frustumCulling":true,"groupNames":["gem_9_line_1"],"hidden":true,"hidpiCompositing":false,"objectColor":[1.0,1.0,1.0,1.0],"objectIndex":0,"renderOrder":0,"useShadows":true}},"mesh":7,"name":"gem_type_3_gem_9_curve_0_line_1_outside","translation":[0.10000000149011612,0.028810223564505577,-0.0]},{"children":[8],"name":"v3d_Proxy_Node_0_gem_type_3_gem_9_curve_0_line_1_outside","translation":[-0.10000000149011612,-0.0,-0.0]},{"children":[16,104,73,44],"extensions":{"S8S_v3d_node":{"frustumCulling":true,"groupNames":["gem_9_line_1"],"hidden":true,"hidpiCompositing":false,"objectColor":[1.0,1.0,1.0,1.0],"objectIndex":0,"renderOrder":0,"useShadows":true}},"mesh":24,"name":"ring_type_4_gem_9_curve_0_line_1","translation":[0.0,2.9999999242136255e-05,-0.0]},{"extensions":{"S8S_v3d_node":{"frustumCulling":true,"groupNames":["gem_9_line_1"],"hidden":true,"hidpiCompositing":false,"objectColor":[1.0,1.0,1.0,1.0],"objectIndex":0,"renderOrder":0,"useShadows":true}},"mesh":7,"name":"gem_type_5_gem_9_curve_0_line_1_outside","translation":[0.10000000149011612,0.029134932905435562,0.10000000149011612]},{"children":[11],"name":"v3d_Proxy_Node_0_gem_type_5_gem_9_curve_0_line_1_outside","translation":[-0.10000000149011612,-0.0,-0.10000000149011612]},{"extensions":{"S8S_v3d_node":{"frustumCulling":true,"groupNames":["gem_9_line_1"],"hidden":true,"hidpiCompositing":false,"objectColor":[1.0,1.0,1.0,1.0],"objectIndex":0,"renderOrder":0,"useShadows":true}},"mesh":0,"name":"gem_type_2_gem_9_curve_0_line_1_inside","translation":[0.10000000149011612,0.028986426070332527,-0.05000000074505806]},{"children":[13],"name":"v3d_Proxy_Node_0_gem_type_2_gem_9_curve_0_line_1_inside","translation":[-0.10000000149011612,-0.0,0.05000000074505806]},{"extensions":{"S8S_v3d_node":{"frustumCulling":true,"groupNames":["gem_9_line_1"],"hidden":true,"hidpiCompositing":false,"objectColor":[1.0,1.0,1.0,1.0],"objectIndex":0,"renderOrder":0,"useShadows":true}},"mesh":0,"name":"gem_type_4_gem_9_curve_0_line_1_inside","translation":[0.10000000149011612,0.02881855145096779,0.05000000074505806]},{"children":[15],"name":"v3d_Proxy_Node_0_gem_type_4_gem_9_curve_0_line_1_inside","translation":[-0.10000000149011612,-0.0,-0.05000000074505806]},{"extensions":{"S8S_v3d_node":{"frustumCulling":true,"groupNames":["gem_9_line_1"],"hidden":true,"hidpiCompositing":false,"objectColor":[1.0,1.0,1.0,1.0],"objectIndex":0,"renderOrder":0,"useShadows":true}},"mesh":1,"name":"gem_type_5_gem_9_curve_0_line_1_inside_1","rotation":[1.9470718370939721e-07,1.6292068494294654e-07,-1.0,1.7478846739112444e-14],"translation":[0.09999999403953552,0.0,0.10000000149011612]},{"children":[17],"name":"v3d_Proxy_Node_0_gem_type_5_gem_9_curve_0_line_1_inside_1","translation":[-0.10000000149011612,-0.0,-0.10000000149011612]},{"extensions":{"S8S_v3d_node":{"frustumCulling":true,"groupNames":["gem_9_line_2"],"hidden":true,"hidpiCompositing":false,"objectColor":[1.0,1.0,1.0,1.0],"objectIndex":0,"renderOrder":0,"useShadows":true}},"mesh":14,"name":"gem_type_1_gem_9_curve_0_line_2_outside_1","translation":[-0.10000000149011612,0.0286856759339571,-0.10000000149011612]},{"children":[19],"name":"v3d_Proxy_Node_0_gem_type_1_gem_9_curve_0_line_2_outside_1","translation":[0.10000000149011612,-0.0,0.10000000149011612]},{"children":[87,57,30,111],"extensions":{"S8S_v3d_node":{"frustumCulling":true,"groupNames":["gem_9_line_2"],"hidden":true,"hidpiCompositing":false,"objectColor":[1.0,1.0,1.0,1.0],"objectIndex":0,"renderOrder":0,"useShadows":true}},"mesh":25,"name":"ring_type_4_gem_9_curve_0_line_2","translation":[0.0,2.9999999242136255e-05,-0.0]},{"extensions":{"S8S_v3d_node":{"frustumCulling":true,"groupNames":["gem_9_line_2"],"hidden":true,"hidpiCompositing":false,"objectColor":[1.0,1.0,1.0,1.0],"objectIndex":0,"renderOrder":0,"useShadows":true}},"mesh":7,"name":"gem_type_5_gem_9_curve_0_line_2_outside","translation":[-0.10000000149011612,0.029130730777978897,0.10000000149011612]},{"children":[22],"name":"v3d_Proxy_Node_0_gem_type_5_gem_9_curve_0_line_2_outside","translation":[0.10000000149011612,-0.0,-0.10000000149011612]},{"extensions":{"S8S_v3d_node":{"frustumCulling":true,"groupNames":["gem_9_line_2"],"hidden":true,"hidpiCompositing":false,"objectColor":[1.0,1.0,1.0,1.0],"objectIndex":0,"renderOrder":0,"useShadows":true}},"mesh":6,"name":"gem_type_2_gem_9_curve_0_line_2_inside_1","translation":[-0.10000000149011612,0.028884556144475937,-0.05000000074505806]},{"children":[24],"name":"v3d_Proxy_Node_0_gem_type_2_gem_9_curve_0_line_2_inside_1","translation":[0.10000000149011612,-0.0,0.05000000074505806]},{"extensions":{"S8S_v3d_node":{"frustumCulling":true,"groupNames":["gem_9_line_2"],"hidden":true,"hidpiCompositing":false,"objectColor":[1.0,1.0,1.0,1.0],"objectIndex":0,"renderOrder":0,"useShadows":true}},"mesh":6,"name":"gem_type_5_gem_9_curve_0_line_2_inside_1","translation":[-0.10000000149011612,0.029001789167523384,0.10000000149011612]},{"children":[26],"name":"v3d_Proxy_Node_0_gem_type_5_gem_9_curve_0_line_2_inside_1","translation":[0.10000000149011612,-0.0,-0.10000000149011612]},{"children":[113,81,49,20],"extensions":{"S8S_v3d_node":{"frustumCulling":true,"groupNames":["gem_9_line_2"],"hidden":true,"hidpiCompositing":false,"objectColor":[1.0,1.0,1.0,1.0],"objectIndex":0,"renderOrder":0,"useShadows":true}},"mesh":17,"name":"ring_type_1_gem_9_curve_0_line_2","translation":[0.0,1.4999999621068127e-05,-0.0]},{"extensions":{"S8S_v3d_node":{"frustumCulling":true,"groupNames":["gem_9_line_2"],"hidden":true,"hidpiCompositing":false,"objectColor":[1.0,1.0,1.0,1.0],"objectIndex":0,"renderOrder":0,"useShadows":true}},"mesh":7,"name":"gem_type_4_gem_9_curve_0_line_2_outside","translation":[-0.10000000149011612,0.02881855145096779,0.05000000074505806]},{"children":[29],"name":"v3d_Proxy_Node_0_gem_type_4_gem_9_curve_0_line_2_outside","translation":[0.10000000149011612,-0.0,-0.05000000074505806]},{"children":[68,35],"extensions":{"S8S_v3d_node":{"frustumCulling":true,"groupNames":["gem_9_line_0"],"hidden":true,"hidpiCompositing":false,"objectColor":[1.0,1.0,1.0,1.0],"objectIndex":0,"renderOrder":0,"useShadows":true}},"mesh":26,"name":"ring_type_4_gem_9_curve_0_line_0","translation":[0.0,2.9999999242136255e-05,-0.0]},{"extensions":{"S8S_v3d_node":{"frustumCulling":true,"groupNames":["gem_9_line_0"],"hidden":true,"hidpiCompositing":false,"objectColor":[1.0,1.0,1.0,1.0],"objectIndex":0,"renderOrder":0,"useShadows":true}},"mesh":7,"name":"gem_type_2_gem_9_curve_0_line_0_outside","translation":[0.0,0.028986426070332527,-0.05000000074505806]},{"children":[32],"name":"v3d_Proxy_Node_0_gem_type_2_gem_9_curve_0_line_0_outside","translation":[-0.0,-0.0,0.05000000074505806]},{"extensions":{"S8S_v3d_node":{"frustumCulling":true,"groupNames":["gem_9_line_0"],"hidden":true,"hidpiCompositing":false,"objectColor":[1.0,1.0,1.0,1.0],"objectIndex":0,"renderOrder":0,"useShadows":true}},"mesh":7,"name":"gem_type_4_gem_9_curve_0_line_0_outside","translation":[0.0,0.02881855145096779,0.05000000074505806]},{"children":[34],"name":"v3d_Proxy_Node_0_gem_type_4_gem_9_curve_0_line_0_outside","translation":[-0.0,-0.0,-0.05000000074505806]},{"extensions":{"S8S_v3d_node":{"frustumCulling":true,"groupNames":["gem_9_line_1"],"hidden":true,"hidpiCompositing":false,"objectColor":[1.0,1.0,1.0,1.0],"objectIndex":0,"renderOrder":0,"useShadows":true}},"mesh":7,"name":"gem_type_1_gem_9_curve_0_line_1_outside","translation":[0.10000000149011612,0.028785886242985725,-0.10000000149011612]},{"children":[36],"name":"v3d_Proxy_Node_0_gem_type_1_gem_9_curve_0_line_1_outside","translation":[-0.10000000149011612,-0.0,0.10000000149011612]},{"extensions":{"S8S_v3d_node":{"frustumCulling":true,"groupNames":["gem_9_line_0"],"hidden":true,"hidpiCompositing":false,"objectColor":[1.0,1.0,1.0,1.0],"objectIndex":0,"renderOrder":0,"useShadows":true}},"mesh":0,"name":"gem_type_1_gem_9_curve_0_line_0_inside","translation":[0.0,0.028785886242985725,-0.10000000149011612]},{"children":[38],"name":"v3d_Proxy_Node_0_gem_type_1_gem_9_curve_0_line_0_inside","translation":[-0.0,-0.0,0.10000000149011612]},{"children":[98,100,37,5],"extensions":{"S8S_v3d_node":{"frustumCulling":true,"groupNames":["gem_9_line_1"],"hidden":true,"hidpiCompositing":false,"objectColor":[1.0,1.0,1.0,1.0],"objectIndex":0,"renderOrder":0,"useShadows":true}},"mesh":16,"name":"ring_type_1_gem_9_curve_0_line_1","translation":[0.0,1.4999999621068127e-05,-0.0]},{"extensions":{"S8S_v3d_node":{"frustumCulling":true,"groupNames":["gem_9_line_1"],"hidden":true,"hidpiCompositing":false,"objectColor":[1.0,1.0,1.0,1.0],"objectIndex":0,"renderOrder":0,"useShadows":true}},"mesh":11,"name":"gem_type_2_gem_9_curve_0_line_1_outside_1","rotation":[1.9470718370939721e-07,1.6292068494294654e-07,-1.0,1.7478846739112444e-14],"translation":[0.09999999403953552,-2.1317947339577308e-15,-0.04999999701976776]},{"children":[41],"name":"v3d_Proxy_Node_0_gem_type_2_gem_9_curve_0_line_1_outside_1","translation":[-0.10000000149011612,-0.0,0.05000000074505806]},{"extensions":{"S8S_v3d_node":{"frustumCulling":true,"groupNames":["gem_9_line_1"],"hidden":true,"hidpiCompositing":false,"objectColor":[1.0,1.0,1.0,1.0],"objectIndex":0,"renderOrder":0,"useShadows":true}},"mesh":13,"name":"gem_type_4_gem_9_curve_0_line_1_outside_1","rotation":[1.9470718370939721e-07,1.6292068494294654e-07,-1.0,1.7478846739112444e-14],"translation":[0.10000000894069672,0.0,0.05000000447034836]},{"children":[43],"name":"v3d_Proxy_Node_0_gem_type_4_gem_9_curve_0_line_1_outside_1","translation":[-0.10000000149011612,-0.0,-0.05000000074505806]},{"children":[77,18,12,96],"extensions":{"S8S_v3d_node":{"frustumCulling":true,"groupNames":["gem_9_line_1"],"hidden":true,"hidpiCompositing":false,"objectColor":[1.0,1.0,1.0,1.0],"objectIndex":0,"renderOrder":0,"useShadows":true}},"mesh":28,"name":"ring_type_5_gem_9_curve_0_line_1","translation":[0.0,2.9999999242136255e-05,-0.0]},{"extensions":{"S8S_v3d_node":{"frustumCulling":true,"groupNames":["gem_9_line_1"],"hidden":true,"hidpiCompositing":false,"objectColor":[1.0,1.0,1.0,1.0],"objectIndex":0,"renderOrder":0,"useShadows":true}},"mesh":4,"name":"gem_type_3_gem_9_curve_0_line_1_inside_1","rotation":[1.9470718370939721e-07,1.6292068494294654e-07,-1.0,1.7478846739112444e-14],"translation":[0.10000000149011612,0.0,8.881794784913093e-16]},{"children":[46],"name":"v3d_Proxy_Node_0_gem_type_3_gem_9_curve_0_line_1_inside_1","translation":[-0.10000000149011612,-0.0,-0.0]},{"extensions":{"S8S_v3d_node":{"frustumCulling":true,"groupNames":["gem_9_line_2"],"hidden":true,"hidpiCompositing":false,"objectColor":[1.0,1.0,1.0,1.0],"objectIndex":0,"renderOrder":0,"useShadows":true}},"mesh":7,"name":"gem_type_1_gem_9_curve_0_line_2_outside","translation":[-0.10000000149011612,0.028785886242985725,-0.10000000149011612]},{"children":[48],"name":"v3d_Proxy_Node_0_gem_type_1_gem_9_curve_0_line_2_outside","translation":[0.10000000149011612,-0.0,0.10000000149011612]},{"extensions":{"S8S_v3d_node":{"frustumCulling":true,"groupNames":["gem_9_line_2"],"hidden":true,"hidpiCompositing":false,"objectColor":[1.0,1.0,1.0,1.0],"objectIndex":0,"renderOrder":0,"useShadows":true}},"mesh":0,"name":"gem_type_2_gem_9_curve_0_line_2_inside","translation":[-0.10000000149011612,0.028986426070332527,-0.05000000074505806]},{"children":[50],"name":"v3d_Proxy_Node_0_gem_type_2_gem_9_curve_0_line_2_inside","translation":[0.10000000149011612,-0.0,0.05000000074505806]},{"extensions":{"S8S_v3d_node":{"frustumCulling":true,"groupNames":["gem_9_line_2"],"hidden":true,"hidpiCompositing":false,"objectColor":[1.0,1.0,1.0,1.0],"objectIndex":0,"renderOrder":0,"useShadows":true}},"mesh":14,"name":"gem_type_3_gem_9_curve_0_line_2_outside_1","translation":[-0.10000000149011612,0.028642164543271065,-0.0]},{"children":[52],"name":"v3d_Proxy_Node_0_gem_type_3_gem_9_curve_0_line_2_outside_1","translation":[0.10000000149011612,-0.0,-0.0]},{"extensions":{"S8S_v3d_node":{"frustumCulling":true,"groupNames":["gem_9_line_2"],"hidden":true,"hidpiCompositing":false,"objectColor":[1.0,1.0,1.0,1.0],"objectIndex":0,"renderOrder":0,"useShadows":true}},"mesh":6,"name":"gem_type_3_gem_9_curve_0_line_2_inside_1","translation":[-0.10000000149011612,0.028642164543271065,-0.0]},{"children":[54],"name":"v3d_Proxy_Node_0_gem_type_3_gem_9_curve_0_line_2_inside_1","translation":[0.10000000149011612,-0.0,-0.0]},{"extensions":{"S8S_v3d_node":{"frustumCulling":true,"groupNames":["gem_9_line_2"],"hidden":true,"hidpiCompositing":false,"objectColor":[1.0,1.0,1.0,1.0],"objectIndex":0,"renderOrder":0,"useShadows":true}},"mesh":6,"name":"gem_type_4_gem_9_curve_0_line_2_inside_1","translation":[-0.10000000149011612,0.02873675711452961,0.05000000074505806]},{"children":[56],"name":"v3d_Proxy_Node_0_gem_type_4_gem_9_curve_0_line_2_inside_1","translation":[0.10000000149011612,-0.0,-0.05000000074505806]},{"children":[61,27,23,106],"extensions":{"S8S_v3d_node":{"frustumCulling":true,"groupNames":["gem_9_line_2"],"hidden":true,"hidpiCompositing":false,"objectColor":[1.0,1.0,1.0,1.0],"objectIndex":0,"renderOrder":0,"useShadows":true}},"mesh":29,"name":"ring_type_5_gem_9_curve_0_line_2","translation":[0.0,2.9999999242136255e-05,-0.0]},{"children":[51,25,109,85],"extensions":{"S8S_v3d_node":{"frustumCulling":true,"groupNames":["gem_9_line_2"],"hidden":true,"hidpiCompositing":false,"objectColor":[1.0,1.0,1.0,1.0],"objectIndex":0,"renderOrder":0,"useShadows":true}},"mesh":20,"name":"ring_type_2_gem_9_curve_0_line_2","translation":[0.0,0.0002500000118743628,-0.0]},{"extensions":{"S8S_v3d_node":{"frustumCulling":true,"groupNames":["gem_9_line_2"],"hidden":true,"hidpiCompositing":false,"objectColor":[1.0,1.0,1.0,1.0],"objectIndex":0,"renderOrder":0,"useShadows":true}},"mesh":0,"name":"gem_type_5_gem_9_curve_0_line_2_inside","translation":[-0.10000000149011612,0.029130730777978897,0.10000000149011612]},{"children":[60],"name":"v3d_Proxy_Node_0_gem_type_5_gem_9_curve_0_line_2_inside","translation":[0.10000000149011612,-0.0,-0.10000000149011612]},{"extensions":{"S8S_v3d_node":{"frustumCulling":true,"groupNames":[],"hidden":true,"hidpiCompositing":false,"objectColor":[1.0,1.0,1.0,1.0],"objectIndex":0,"renderOrder":0}},"name":"Empty","translation":[0.0,-0.028885208070278168,-0.0]},{"children":[7,91],"extensions":{"S8S_v3d_node":{"frustumCulling":true,"groupNames":["gem_9_line_0"],"hidden":true,"hidpiCompositing":false,"objectColor":[1.0,1.0,1.0,1.0],"objectIndex":0,"renderOrder":0,"useShadows":true}},"mesh":27,"name":"ring_type_5_gem_9_curve_0_line_0","translation":[0.0,2.9999999242136255e-05,-0.0]},{"children":[39,2],"extensions":{"S8S_v3d_node":{"frustumCulling":true,"groupNames":["gem_9_line_0"],"hidden":true,"hidpiCompositing":false,"objectColor":[1.0,1.0,1.0,1.0],"objectIndex":0,"renderOrder":0,"useShadows":true}},"mesh":15,"name":"ring_type_1_gem_9_curve_0_line_0","translation":[0.0,1.4999999621068127e-05,-0.0]},{"extensions":{"S8S_v3d_node":{"frustumCulling":true,"groupNames":["gem_9_line_0"],"hidden":true,"hidpiCompositing":false,"objectColor":[1.0,1.0,1.0,1.0],"objectIndex":0,"renderOrder":0,"useShadows":true}},"mesh":0,"name":"gem_type_2_gem_9_curve_0_line_0_inside","translation":[0.0,0.028986426070332527,-0.05000000074505806]},{"children":[65],"name":"v3d_Proxy_Node_0_gem_type_2_gem_9_curve_0_line_0_inside","translation":[-0.0,-0.0,0.05000000074505806]},{"extensions":{"S8S_v3d_node":{"frustumCulling":true,"groupNames":["gem_9_line_0"],"hidden":true,"hidpiCompositing":false,"objectColor":[1.0,1.0,1.0,1.0],"objectIndex":0,"renderOrder":0,"useShadows":true}},"mesh":0,"name":"gem_type_4_gem_9_curve_0_line_0_inside","translation":[0.0,0.02881855145096779,0.05000000074505806]},{"children":[67],"name":"v3d_Proxy_Node_0_gem_type_4_gem_9_curve_0_line_0_inside","translation":[-0.0,-0.0,-0.05000000074505806]},{"children":[14,102,71,42],"extensions":{"S8S_v3d_node":{"frustumCulling":true,"groupNames":["gem_9_line_1"],"hidden":true,"hidpiCompositing":false,"objectColor":[1.0,1.0,1.0,1.0],"objectIndex":0,"renderOrder":0,"useShadows":true}},"mesh":19,"name":"ring_type_2_gem_9_curve_0_line_1","translation":[0.0,0.0002500000118743628,-0.0]},{"extensions":{"S8S_v3d_node":{"frustumCulling":true,"groupNames":["gem_9_line_1"],"hidden":true,"hidpiCompositing":false,"objectColor":[1.0,1.0,1.0,1.0],"objectIndex":0,"renderOrder":0,"useShadows":true}},"mesh":7,"name":"gem_type_2_gem_9_curve_0_line_1_outside","translation":[0.10000000149011612,0.028986426070332527,-0.05000000074505806]},{"children":[70],"name":"v3d_Proxy_Node_0_gem_type_2_gem_9_curve_0_line_1_outside","translation":[-0.10000000149011612,-0.0,0.05000000074505806]},{"extensions":{"S8S_v3d_node":{"frustumCulling":true,"groupNames":["gem_9_line_1"],"hidden":true,"hidpiCompositing":false,"objectColor":[1.0,1.0,1.0,1.0],"objectIndex":0,"renderOrder":0,"useShadows":true}},"mesh":7,"name":"gem_type_4_gem_9_curve_0_line_1_outside","translation":[0.10000000149011612,0.02881855145096779,0.05000000074505806]},{"children":[72],"name":"v3d_Proxy_Node_0_gem_type_4_gem_9_curve_0_line_1_outside","translation":[-0.10000000149011612,-0.0,-0.05000000074505806]},{"extensions":{"S8S_v3d_node":{"frustumCulling":true,"groupNames":["gem_9_line_1"],"hidden":true,"hidpiCompositing":false,"objectColor":[1.0,1.0,1.0,1.0],"objectIndex":0,"renderOrder":0,"useShadows":true}},"mesh":0,"name":"gem_type_3_gem_9_curve_0_line_1_inside","translation":[0.10000000149011612,0.028810223564505577,-0.0]},{"children":[74],"name":"v3d_Proxy_Node_0_gem_type_3_gem_9_curve_0_line_1_inside","translation":[-0.10000000149011612,-0.0,-0.0]},{"extensions":{"S8S_v3d_node":{"frustumCulling":true,"groupNames":["gem_9_line_1"],"hidden":true,"hidpiCompositing":false,"objectColor":[1.0,1.0,1.0,1.0],"objectIndex":0,"renderOrder":0,"useShadows":true}},"mesh":0,"name":"gem_type_5_gem_9_curve_0_line_1_inside","translation":[0.10000000149011612,0.029134932905435562,0.10000000149011612]},{"children":[76],"name":"v3d_Proxy_Node_0_gem_type_5_gem_9_curve_0_line_1_inside","translation":[-0.10000000149011612,-0.0,-0.10000000149011612]},{"extensions":{"S8S_v3d_node":{"frustumCulling":true,"groupNames":["gem_9_line_2"],"hidden":true,"hidpiCompositing":false,"objectColor":[1.0,1.0,1.0,1.0],"objectIndex":0,"renderOrder":0,"useShadows":true}},"mesh":7,"name":"gem_type_3_gem_9_curve_0_line_2_outside","translation":[-0.10000000149011612,0.02881079725921154,-0.0]},{"children":[78],"name":"v3d_Proxy_Node_0_gem_type_3_gem_9_curve_0_line_2_outside","translation":[0.10000000149011612,-0.0,-0.0]},{"extensions":{"S8S_v3d_node":{"frustumCulling":true,"groupNames":["gem_9_line_2"],"hidden":true,"hidpiCompositing":false,"objectColor":[1.0,1.0,1.0,1.0],"objectIndex":0,"renderOrder":0,"useShadows":true}},"mesh":6,"name":"gem_type_1_gem_9_curve_0_line_2_inside_1","translation":[-0.10000000149011612,0.0286856759339571,-0.10000000149011612]},{"children":[80],"name":"v3d_Proxy_Node_0_gem_type_1_gem_9_curve_0_line_2_inside_1","translation":[0.10000000149011612,-0.0,0.10000000149011612]},{"extensions":{"S8S_v3d_node":{"frustumCulling":true,"groupNames":["gem_9_line_2"],"hidden":true,"hidpiCompositing":false,"objectColor":[1.0,1.0,1.0,1.0],"objectIndex":0,"renderOrder":0,"useShadows":true}},"mesh":0,"name":"gem_type_3_gem_9_curve_0_line_2_inside","translation":[-0.10000000149011612,0.02881079725921154,-0.0]},{"children":[82],"name":"v3d_Proxy_Node_0_gem_type_3_gem_9_curve_0_line_2_inside","translation":[0.10000000149011612,-0.0,-0.0]},{"extensions":{"S8S_v3d_node":{"frustumCulling":true,"groupNames":["gem_9_line_2"],"hidden":true,"hidpiCompositing":false,"objectColor":[1.0,1.0,1.0,1.0],"objectIndex":0,"renderOrder":0,"useShadows":true}},"mesh":14,"name":"gem_type_2_gem_9_curve_0_line_2_outside_1","translation":[-0.10000000149011612,0.028884556144475937,-0.05000000074505806]},{"children":[84],"name":"v3d_Proxy_Node_0_gem_type_2_gem_9_curve_0_line_2_outside_1","translation":[0.10000000149011612,-0.0,0.05000000074505806]},{"extensions":{"S8S_v3d_node":{"frustumCulling":true,"groupNames":["gem_9_line_2"],"hidden":true,"hidpiCompositing":false,"objectColor":[1.0,1.0,1.0,1.0],"objectIndex":0,"renderOrder":0,"useShadows":true}},"mesh":0,"name":"gem_type_4_gem_9_curve_0_line_2_inside","translation":[-0.10000000149011612,0.02881855145096779,0.05000000074505806]},{"children":[86],"name":"v3d_Proxy_Node_0_gem_type_4_gem_9_curve_0_line_2_inside","translation":[0.10000000149011612,-0.0,-0.05000000074505806]},{"children":[66,33],"extensions":{"S8S_v3d_node":{"frustumCulling":true,"groupNames":["gem_9_line_0"],"hidden":true,"hidpiCompositing":false,"objectColor":[1.0,1.0,1.0,1.0],"objectIndex":0,"renderOrder":0,"useShadows":true}},"mesh":18,"name":"ring_type_2_gem_9_curve_0_line_0","translation":[0.0,0.0002500000118743628,-0.0]},{"extensions":{"S8S_v3d_node":{"frustumCulling":true,"groupNames":["gem_9_line_0"],"hidden":true,"hidpiCompositing":false,"objectColor":[1.0,1.0,1.0,1.0],"objectIndex":0,"renderOrder":0,"useShadows":true}},"mesh":7,"name":"gem_type_3_gem_9_curve_0_line_0_outside","translation":[0.0,0.02881079725921154,-0.0]},{"extensions":{"S8S_v3d_node":{"frustumCulling":true,"groupNames":["gem_9_line_0"],"hidden":true,"hidpiCompositing":false,"objectColor":[1.0,1.0,1.0,1.0],"objectIndex":0,"renderOrder":0,"useShadows":true}},"mesh":7,"name":"gem_type_5_gem_9_curve_0_line_0_outside","translation":[0.0,0.029130730777978897,0.10000000149011612]},{"children":[90],"name":"v3d_Proxy_Node_0_gem_type_5_gem_9_curve_0_line_0_outside","translation":[-0.0,-0.0,-0.10000000149011612]},{"children":[75,47,9,94],"extensions":{"S8S_v3d_node":{"frustumCulling":true,"groupNames":["gem_9_line_1"],"hidden":true,"hidpiCompositing":false,"objectColor":[1.0,1.0,1.0,1.0],"objectIndex":0,"renderOrder":0,"useShadows":true}},"mesh":22,"name":"ring_type_3_gem_9_curve_0_line_1","translation":[0.0,7.999999797903001e-05,-0.0]},{"extensions":{"S8S_v3d_node":{"frustumCulling":true,"groupNames":["gem_9_line_1"],"hidden":true,"hidpiCompositing":false,"objectColor":[1.0,1.0,1.0,1.0],"objectIndex":0,"renderOrder":0,"useShadows":true}},"mesh":12,"name":"gem_type_3_gem_9_curve_0_line_1_outside_1","rotation":[1.9470718370939721e-07,1.6292068494294654e-07,-1.0,1.7478846739112444e-14],"translation":[0.10000000149011612,0.0,8.881794784913093e-16]},{"children":[93],"name":"v3d_Proxy_Node_0_gem_type_3_gem_9_curve_0_line_1_outside_1","translation":[-0.10000000149011612,-0.0,-0.0]},{"extensions":{"S8S_v3d_node":{"frustumCulling":true,"groupNames":["gem_9_line_1"],"hidden":true,"hidpiCompositing":false,"objectColor":[1.0,1.0,1.0,1.0],"objectIndex":0,"renderOrder":0,"useShadows":true}},"mesh":9,"name":"gem_type_5_gem_9_curve_0_line_1_outside_1","rotation":[1.9470718370939721e-07,1.6292068494294654e-07,-1.0,1.7478846739112444e-14],"translation":[0.09999999403953552,0.0,0.10000000149011612]},{"children":[95],"name":"v3d_Proxy_Node_0_gem_type_5_gem_9_curve_0_line_1_outside_1","translation":[-0.10000000149011612,-0.0,-0.10000000149011612]},{"extensions":{"S8S_v3d_node":{"frustumCulling":true,"groupNames":["gem_9_line_1"],"hidden":true,"hidpiCompositing":false,"objectColor":[1.0,1.0,1.0,1.0],"objectIndex":0,"renderOrder":0,"useShadows":true}},"mesh":0,"name":"gem_type_1_gem_9_curve_0_line_1_inside","translation":[0.10000000149011612,0.028785886242985725,-0.10000000149011612]},{"children":[97],"name":"v3d_Proxy_Node_0_gem_type_1_gem_9_curve_0_line_1_inside","translation":[-0.10000000149011612,-0.0,0.10000000149011612]},{"extensions":{"S8S_v3d_node":{"frustumCulling":true,"groupNames":["gem_9_line_1"],"hidden":true,"hidpiCompositing":false,"objectColor":[1.0,1.0,1.0,1.0],"objectIndex":0,"renderOrder":0,"useShadows":true}},"mesh":2,"name":"gem_type_1_gem_9_curve_0_line_1_inside_1","rotation":[1.9470718370939721e-07,1.6292068494294654e-07,-1.0,1.7478846739112444e-14],"translation":[0.10000000894069672,-3.554383180739539e-16,-0.10000000149011612]},{"children":[99],"name":"v3d_Proxy_Node_0_gem_type_1_gem_9_curve_0_line_1_inside_1","translation":[-0.10000000149011612,-0.0,0.10000000149011612]},{"extensions":{"S8S_v3d_node":{"frustumCulling":true,"groupNames":["gem_9_line_1"],"hidden":true,"hidpiCompositing":false,"objectColor":[1.0,1.0,1.0,1.0],"objectIndex":0,"renderOrder":0,"useShadows":true}},"mesh":3,"name":"gem_type_2_gem_9_curve_0_line_1_inside_1","rotation":[1.9470718370939721e-07,1.6292068494294654e-07,-1.0,1.7478846739112444e-14],"translation":[0.09999999403953552,-2.1317947339577308e-15,-0.04999999701976776]},{"children":[101],"name":"v3d_Proxy_Node_0_gem_type_2_gem_9_curve_0_line_1_inside_1","translation":[-0.10000000149011612,-0.0,0.05000000074505806]},{"extensions":{"S8S_v3d_node":{"frustumCulling":true,"groupNames":["gem_9_line_1"],"hidden":true,"hidpiCompositing":false,"objectColor":[1.0,1.0,1.0,1.0],"objectIndex":0,"renderOrder":0,"useShadows":true}},"mesh":5,"name":"gem_type_4_gem_9_curve_0_line_1_inside_1","rotation":[1.9470718370939721e-07,1.6292068494294654e-07,-1.0,1.7478846739112444e-14],"translation":[0.10000000894069672,0.0,0.05000000447034836]},{"children":[103],"name":"v3d_Proxy_Node_0_gem_type_4_gem_9_curve_0_line_1_inside_1","translation":[-0.10000000149011612,-0.0,-0.05000000074505806]},{"extensions":{"S8S_v3d_node":{"frustumCulling":true,"groupNames":["gem_9_line_2"],"hidden":true,"hidpiCompositing":false,"objectColor":[1.0,1.0,1.0,1.0],"objectIndex":0,"renderOrder":0,"useShadows":true}},"mesh":14,"name":"gem_type_5_gem_9_curve_0_line_2_outside_1","translation":[-0.10000000149011612,0.029001789167523384,0.10000000149011612]},{"children":[105],"name":"v3d_Proxy_Node_0_gem_type_5_gem_9_curve_0_line_2_outside_1","translation":[0.10000000149011612,-0.0,-0.10000000149011612]},{"children":[83,55,79,53],"extensions":{"S8S_v3d_node":{"frustumCulling":true,"groupNames":["gem_9_line_2"],"hidden":true,"hidpiCompositing":false,"objectColor":[1.0,1.0,1.0,1.0],"objectIndex":0,"renderOrder":0,"useShadows":true}},"mesh":23,"name":"ring_type_3_gem_9_curve_0_line_2","translation":[0.0,7.999999797903001e-05,-0.0]},{"extensions":{"S8S_v3d_node":{"frustumCulling":true,"groupNames":["gem_9_line_2"],"hidden":true,"hidpiCompositing":false,"objectColor":[1.0,1.0,1.0,1.0],"objectIndex":0,"renderOrder":0,"useShadows":true}},"mesh":7,"name":"gem_type_2_gem_9_curve_0_line_2_outside","translation":[-0.10000000149011612,0.028986426070332527,-0.05000000074505806]},{"children":[108],"name":"v3d_Proxy_Node_0_gem_type_2_gem_9_curve_0_line_2_outside","translation":[0.10000000149011612,-0.0,0.05000000074505806]},{"extensions":{"S8S_v3d_node":{"frustumCulling":true,"groupNames":["gem_9_line_2"],"hidden":true,"hidpiCompositing":false,"objectColor":[1.0,1.0,1.0,1.0],"objectIndex":0,"renderOrder":0,"useShadows":true}},"mesh":14,"name":"gem_type_4_gem_9_curve_0_line_2_outside_1","translation":[-0.10000000149011612,0.02873675711452961,0.05000000074505806]},{"children":[110],"name":"v3d_Proxy_Node_0_gem_type_4_gem_9_curve_0_line_2_outside_1","translation":[0.10000000149011612,-0.0,-0.05000000074505806]},{"extensions":{"S8S_v3d_node":{"frustumCulling":true,"groupNames":["gem_9_line_2"],"hidden":true,"hidpiCompositing":false,"objectColor":[1.0,1.0,1.0,1.0],"objectIndex":0,"renderOrder":0,"useShadows":true}},"mesh":0,"name":"gem_type_1_gem_9_curve_0_line_2_inside","translation":[-0.10000000149011612,0.028785886242985725,-0.10000000149011612]},{"children":[112],"name":"v3d_Proxy_Node_0_gem_type_1_gem_9_curve_0_line_2_inside","translation":[0.10000000149011612,-0.0,0.10000000149011612]},{"camera":0,"name":"__DEFAULT_CAMERA__","rotation":[-0.37533608078956604,-0.2726173400878906,-0.11651475727558136,0.8781952857971191],"scale":[0.9999998807907104,0.9999998211860657,0.9999997615814209],"translation":[-0.019999686628580093,0.04776396229863167,0.030697744339704514]}],"samplers":[{}],"scene":0,"scenes":[{"extensions":{"S8S_v3d_scene":{"aaMethod":"AUTO","iblEnvironmentMode":"PMREM","physicallyCorrectLights":true,"pmremMaxTileSize":512,"shadowMap":{"esmDistanceScale":1.0,"renderReverseSided":false,"renderSingleSided":true,"type":"PCFPOISSON"},"useHDR":true,"worldMaterial":3}},"extras":{"animFrameRate":24,"coordSystem":"Z_UP_RIGHT"},"name":"Scene","nodes":[62,0,88,31,63,64,40,69,92,10,45,107,59,21,58,28,114]}],"textures":[{"extensions":{"S8S_v3d_texture":{"colorSpace":"linear rec.709","source":0}},"name":"environment.hdr","sampler":0},{"extensions":{"S8S_v3d_texture":{"anisotropy":16,"colorSpace":"non-color"}},"name":"engrave_normal","sampler":0,"source":1},{"extensions":{"S8S_v3d_texture":{"anisotropy":16,"colorSpace":"srgb"}},"name":"engrave_ao","sampler":0,"source":2}]}
