{"accessors":[{"bufferView":0,"componentType":5123,"count":105402,"max":[17568],"min":[0],"type":"SCALAR"},{"bufferView":1,"componentType":5126,"count":17569,"max":[0.07169445604085922,0.15173032879829407,0.047092996537685394],"min":[-0.08323134481906891,-0.0005408785073086619,-0.07054989039897919],"type":"VEC3"},{"bufferView":2,"componentType":5126,"count":17569,"max":[0.9999474287033081,0.9999627470970154,0.9999907612800598],"min":[-0.9999472498893738,-0.9999961853027344,-0.9999993443489075],"type":"VEC3"},{"bufferView":3,"componentType":5123,"count":105402,"max":[17568],"min":[0],"type":"SCALAR"},{"bufferView":4,"componentType":5126,"count":17569,"max":[0.07169445604085922,0.15173032879829407,0.047092996537685394],"min":[-0.08323134481906891,-0.0005408785073086619,-0.07054989039897919],"type":"VEC3"},{"bufferView":5,"componentType":5126,"count":17569,"max":[0.9999474287033081,0.9999627470970154,0.9999907612800598],"min":[-0.9999472498893738,-0.9999961853027344,-0.9999993443489075],"type":"VEC3"},{"bufferView":6,"componentType":5123,"count":105402,"max":[19932],"min":[0],"type":"SCALAR"},{"bufferView":7,"componentType":5126,"count":19933,"max":[0.07169445604085922,0.15173032879829407,0.047092996537685394],"min":[-0.08323134481906891,-0.0005408785073086619,-0.07054989039897919],"type":"VEC3"},{"bufferView":8,"componentType":5126,"count":19933,"max":[0.9999474287033081,0.9999627470970154,0.9999907612800598],"min":[-0.9999472498893738,-0.9999961853027344,-0.9999993443489075],"type":"VEC3"},{"bufferView":9,"componentType":5126,"count":19933,"max":[0.981528639793396,1.0],"min":[0.0,0.0],"type":"VEC2"},{"bufferView":10,"componentType":5123,"count":105402,"max":[17568],"min":[0],"type":"SCALAR"},{"bufferView":11,"componentType":5126,"count":17569,"max":[0.07169445604085922,0.15173032879829407,0.047092996537685394],"min":[-0.08323134481906891,-0.0005408785073086619,-0.07054989039897919],"type":"VEC3"},{"bufferView":12,"componentType":5126,"count":17569,"max":[0.9999474287033081,0.9999627470970154,0.9999907612800598],"min":[-0.9999472498893738,-0.9999961853027344,-0.9999993443489075],"type":"VEC3"},{"bufferView":13,"componentType":5123,"count":105402,"max":[17568],"min":[0],"type":"SCALAR"},{"bufferView":14,"componentType":5126,"count":17569,"max":[0.07169445604085922,0.15173032879829407,0.047092996537685394],"min":[-0.08323134481906891,-0.0005408785073086619,-0.07054989039897919],"type":"VEC3"},{"bufferView":15,"componentType":5126,"count":17569,"max":[0.9999474287033081,0.9999627470970154,0.9999907612800598],"min":[-0.9999472498893738,-0.9999961853027344,-0.9999993443489075],"type":"VEC3"},{"bufferView":16,"componentType":5121,"count":6,"max":[3],"min":[0],"type":"SCALAR"},{"bufferView":17,"componentType":5126,"count":4,"max":[0.6593353152275085,0.0,0.6593353152275085],"min":[-0.6593353152275085,0.0,-0.6593353152275085],"type":"VEC3"},{"bufferView":18,"componentType":5126,"count":4,"max":[0.0,1.0,-0.0],"min":[0.0,1.0,-0.0],"type":"VEC3"},{"bufferView":19,"componentType":5126,"count":4,"max":[1.0,1.0],"min":[0.0,0.0],"type":"VEC2"},{"bufferView":20,"componentType":5123,"count":12210,"max":[3009],"min":[0],"type":"SCALAR"},{"bufferView":21,"componentType":5126,"count":3010,"max":[0.39863497018814087,0.029112795367836952,0.3990921080112457],"min":[-0.39954936504364014,-0.5406447052955627,-0.3990922272205353],"type":"VEC3"},{"bufferView":22,"componentType":5126,"count":3010,"max":[1.0,1.0,1.0],"min":[-1.0,-1.0,-1.0],"type":"VEC3"},{"bufferView":23,"componentType":5126,"count":3010,"max":[0.9999999403953552,0.7891331315040588,1.0,1.0],"min":[-1.0,-1.0,-1.0,-1.0],"type":"VEC4"},{"bufferView":24,"componentType":5126,"count":3010,"max":[1.0,1.0],"min":[0.0,0.2824494242668152],"type":"VEC2"},{"bufferView":25,"componentType":5126,"count":3010,"max":[0.9978446960449219,0.9978475570678711],"min":[0.0021527826320379972,0.0038066506385803223],"type":"VEC2"},{"bufferView":26,"componentType":5121,"count":150,"max":[99],"min":[0],"type":"SCALAR"},{"bufferView":27,"componentType":5126,"count":100,"max":[0.29055097699165344,0.02644677273929119,0.2863357365131378],"min":[-0.28370875120162964,0.012895505875349045,-0.2762003242969513],"type":"VEC3"},{"bufferView":28,"componentType":5126,"count":100,"max":[0.9997077584266663,0.7707762718200684,0.9689560532569885],"min":[-0.9997074604034424,-0.7707738280296326,-0.9689556360244751],"type":"VEC3"},{"bufferView":29,"componentType":5126,"count":100,"max":[1.0,0.6371375322341919,0.9528205394744873,1.0],"min":[-0.8702896237373352,-1.234200652788786e-07,-0.9689553380012512,-1.0],"type":"VEC4"},{"bufferView":30,"componentType":5126,"count":100,"max":[1.240083932876587,0.9903908967971802],"min":[-0.20565223693847656,0.01096653938293457],"type":"VEC2"},{"bufferView":31,"componentType":5126,"count":100,"max":[0.4252568185329437,0.9978457093238831],"min":[0.002158939838409424,0.9225258231163025],"type":"VEC2"}],"asset":{"generator":"Verge3D for Blender v4.7.0","version":"2.0"},"bufferViews":[{"buffer":0,"byteLength":210804,"byteOffset":0,"target":34963},{"buffer":0,"byteLength":210828,"byteOffset":210804,"target":34962},{"buffer":0,"byteLength":210828,"byteOffset":421632,"target":34962},{"buffer":0,"byteLength":210804,"byteOffset":632460,"target":34963},{"buffer":0,"byteLength":210828,"byteOffset":843264,"target":34962},{"buffer":0,"byteLength":210828,"byteOffset":1054092,"target":34962},{"buffer":0,"byteLength":210804,"byteOffset":1264920,"target":34963},{"buffer":0,"byteLength":239196,"byteOffset":1475724,"target":34962},{"buffer":0,"byteLength":239196,"byteOffset":1714920,"target":34962},{"buffer":0,"byteLength":159464,"byteOffset":1954116,"target":34962},{"buffer":0,"byteLength":210804,"byteOffset":2113580,"target":34963},{"buffer":0,"byteLength":210828,"byteOffset":2324384,"target":34962},{"buffer":0,"byteLength":210828,"byteOffset":2535212,"target":34962},{"buffer":0,"byteLength":210804,"byteOffset":2746040,"target":34963},{"buffer":0,"byteLength":210828,"byteOffset":2956844,"target":34962},{"buffer":0,"byteLength":210828,"byteOffset":3167672,"target":34962},{"buffer":0,"byteLength":6,"byteOffset":3378500,"target":34963},{"buffer":0,"byteLength":48,"byteOffset":3378508,"target":34962},{"buffer":0,"byteLength":48,"byteOffset":3378556,"target":34962},{"buffer":0,"byteLength":32,"byteOffset":3378604,"target":34962},{"buffer":0,"byteLength":24420,"byteOffset":3378636,"target":34963},{"buffer":0,"byteLength":36120,"byteOffset":3403056,"target":34962},{"buffer":0,"byteLength":36120,"byteOffset":3439176,"target":34962},{"buffer":0,"byteLength":48160,"byteOffset":3475296,"target":34962},{"buffer":0,"byteLength":24080,"byteOffset":3523456,"target":34962},{"buffer":0,"byteLength":24080,"byteOffset":3547536,"target":34962},{"buffer":0,"byteLength":150,"byteOffset":3571616,"target":34963},{"buffer":0,"byteLength":1200,"byteOffset":3571768,"target":34962},{"buffer":0,"byteLength":1200,"byteOffset":3572968,"target":34962},{"buffer":0,"byteLength":1600,"byteOffset":3574168,"target":34962},{"buffer":0,"byteLength":800,"byteOffset":3575768,"target":34962},{"buffer":0,"byteLength":800,"byteOffset":3576568,"target":34962}],"buffers":[{"byteLength":3577368,"uri":"transparency.bin"}],"cameras":[{"extensions":{"S8S_v3d_camera":{"controls":"ORBIT","enablePan":false,"moveSpeed":1.0,"orbitMaxDistance":1.0,"orbitMaxPolarAngle":1.483529806137085,"orbitMaxZoom":100.0,"orbitMinDistance":0.6000000238418579,"orbitMinPolarAngle":0.4363323152065277,"orbitMinZoom":0.009999999776482582,"orbitTarget":[0.0,0.05000000074505806,-0.0],"rotateSpeed":1.0,"viewportFitInitialAspect":1.7777777777777777,"viewportFitType":"AUTO"}},"name":"Camera","perspective":{"aspectRatio":1.7777777777777777,"yfov":0.5631968779732008,"zfar":100.0,"znear":0.10000000149011612},"type":"perspective"}],"extensionsUsed":["KHR_texture_basisu","S8S_v3d_texture","S8S_v3d_materials","S8S_v3d_camera","S8S_v3d_mesh","S8S_v3d_node","S8S_v3d_scene"],"images":[{"uri":"mask.ktx2"},{"uri":"floor_ao.ktx2"},{"uri":"signs_normal.ktx2"},{"uri":"table_ao.ktx2"},{"uri":"wood.ktx2"},{"uri":"old_hall_2k.hdr.xz"}],"materials":[{"alphaMode":"BLEND","doubleSided":true,"extensions":{"S8S_v3d_materials":{"depthPrepass":true,"gtaoVisible":false,"materialIndex":0,"nodeGraph":{"edges":[{"fromNode":1,"fromOutput":0,"toInput":0,"toNode":0},{"fromNode":2,"fromOutput":0,"toInput":4,"toNode":1}],"nodes":[{"inputs":[[0,0,0,0],[0,0,0,0],[0.0,0.0,0.0],0.0],"is_active_output":true,"name":"Material Output","outputs":[],"type":"OUTPUT_MATERIAL_BL"},{"inputs":[[0.800000011920929,0.800000011920929,0.800000011920929,1.0],0.0,0.0,1.4500000476837158,0.5,[0.0,0.0,0.0],0.0,[1.0,0.20000000298023224,0.10000000149011612],0.05000000074505806,1.399999976158142,0.0,1.0,[1.0,1.0,1.0,1.0],0.0,0.0,[0.0,0.0,0.0],0.0,0.0,0.029999999329447746,1.5,[1.0,1.0,1.0,1.0],[0.0,0.0,0.0],0.0,0.5,[1.0,1.0,1.0,1.0],[0.0,0.0,0.0,1.0],1.0,0.0,1.3300000429153442],"is_active_output":false,"name":"Principled BSDF","outputs":[[0,0,0,0]],"type":"BSDF_PRINCIPLED_BL"},{"inputs":[1.4500000476837158,[0.0,0.0,0.0]],"is_active_output":false,"name":"Fresnel","outputs":[0.0],"type":"FRESNEL_BL"}]},"renderSide":"DOUBLE"}},"name":"alpha_blend"},{"alphaCutoff":0.05041446367502213,"alphaMode":"MASK","doubleSided":true,"extensions":{"S8S_v3d_materials":{"gtaoVisible":true,"materialIndex":0,"nodeGraph":{"edges":[{"fromNode":1,"fromOutput":0,"toInput":0,"toNode":2},{"fromNode":2,"fromOutput":0,"toInput":0,"toNode":4},{"fromNode":4,"fromOutput":0,"toInput":4,"toNode":3},{"fromNode":3,"fromOutput":0,"toInput":0,"toNode":0}],"nodes":[{"inputs":[[0,0,0,0],[0,0,0,0],[0.0,0.0,0.0],0.0],"is_active_output":true,"name":"Material Output","outputs":[],"type":"OUTPUT_MATERIAL_BL"},{"inputs":[],"is_active_output":false,"name":"Texture Coordinate","object":-1,"outputs":[[0.0,0.0,0.0],[0.0,0.0,0.0],[0.0,0.0,0.0],[0.0,0.0,0.0],[0.0,0.0,0.0],[0.0,0.0,0.0],[0.0,0.0,0.0]],"type":"TEX_COORD_BL"},{"inputs":[[0.0,0.0,0.0],[0.0,0.0,0.0],[0.0,0.0,0.0],[10.0,10.0,10.0]],"is_active_output":false,"name":"Mapping","outputs":[[0.0,0.0,0.0]],"type":"MAPPING_BL","vectorType":"POINT"},{"inputs":[[0.0413254015147686,0.09081964939832687,0.8000000715255737,1.0],0.0,0.0,1.4500000476837158,0.5,[0.0,0.0,0.0],0.0,[1.0,0.20000000298023224,0.10000000149011612],0.05000000074505806,1.399999976158142,0.0,1.0,[1.0,1.0,1.0,1.0],0.0,0.0,[0.0,0.0,0.0],0.0,0.0,0.029999999329447746,1.5,[1.0,1.0,1.0,1.0],[0.0,0.0,0.0],0.0,0.5,[1.0,1.0,1.0,1.0],[0.0,0.0,0.0,1.0],1.0,0.0,1.3300000429153442],"is_active_output":false,"name":"Principled BSDF","outputs":[[0,0,0,0]],"type":"BSDF_PRINCIPLED_BL"},{"alphaMode":"STRAIGHT","inputs":[[0.0,0.0,0.0]],"is_active_output":false,"name":"Image Texture","outputs":[[0.0,0.0,0.0,0.0],0.0],"projection":"BOX","projectionBlend":0.0,"texture":0,"type":"TEX_IMAGE_BL"}]},"renderSide":"DOUBLE"}},"name":"alpha_clip"},{"alphaMode":"BLEND","extensions":{"S8S_v3d_materials":{"alphaToCoverage":true,"gtaoVisible":true,"materialIndex":0,"nodeGraph":{"edges":[{"fromNode":1,"fromOutput":0,"toInput":0,"toNode":0}],"nodes":[{"inputs":[[0,0,0,0],[0,0,0,0],[0.0,0.0,0.0],0.0],"is_active_output":true,"name":"Material Output","outputs":[],"type":"OUTPUT_MATERIAL_BL"},{"inputs":[[0.8000000715255737,0.3572494089603424,0.10040856152772903,1.0],0.0,0.0,1.4500000476837158,0.5,[0.0,0.0,0.0],0.0,[1.0,0.20000000298023224,0.10000000149011612],0.05000000074505806,1.399999976158142,0.0,1.0,[1.0,1.0,1.0,1.0],0.0,0.0,[0.0,0.0,0.0],0.0,0.0,0.029999999329447746,1.5,[1.0,1.0,1.0,1.0],[0.0,0.0,0.0],0.0,0.5,[1.0,1.0,1.0,1.0],[0.0,0.0,0.0,1.0],1.0,0.0,1.3300000429153442],"is_active_output":false,"name":"Principled BSDF","outputs":[[0,0,0,0]],"type":"BSDF_PRINCIPLED_BL"}]}}},"name":"alpha_hashed"},{"alphaMode":"OPAQUE","extensions":{"S8S_v3d_materials":{"gtaoVisible":true,"materialIndex":0,"nodeGraph":{"edges":[{"fromNode":1,"fromOutput":0,"toInput":0,"toNode":0}],"nodes":[{"inputs":[[0,0,0,0],[0,0,0,0],[0.0,0.0,0.0],0.0],"is_active_output":true,"name":"Material Output","outputs":[],"type":"OUTPUT_MATERIAL_BL"},{"inputs":[[0.800000011920929,0.800000011920929,0.800000011920929,1.0],0.0,0.0,1.4500000476837158,1.0,[0.0,0.0,0.0],0.0,[1.0,0.20000000298023224,0.10000000149011612],0.05000000074505806,1.399999976158142,0.0,0.5,[1.0,1.0,1.0,1.0],0.0,0.0,[0.0,0.0,0.0],1.0,0.0,0.029999999329447746,1.5,[1.0,1.0,1.0,1.0],[0.0,0.0,0.0],0.0,0.5,[1.0,1.0,1.0,1.0],[0.0,0.0,0.0,1.0],1.0,0.0,1.3300000429153442],"is_active_output":false,"name":"Principled BSDF","outputs":[[0,0,0,0]],"type":"BSDF_PRINCIPLED_BL"}]}}},"name":"environment_refraction"},{"alphaMode":"BLEND","extensions":{"S8S_v3d_materials":{"gtaoVisible":true,"materialIndex":0,"nodeGraph":{"edges":[{"fromNode":5,"fromOutput":0,"toInput":0,"toNode":3},{"fromNode":1,"fromOutput":0,"toInput":1,"toNode":3},{"fromNode":2,"fromOutput":0,"toInput":2,"toNode":3},{"fromNode":3,"fromOutput":0,"toInput":0,"toNode":0},{"fromNode":4,"fromOutput":0,"toInput":0,"toNode":5}],"nodes":[{"inputs":[[0,0,0,0],[0,0,0,0],[0.0,0.0,0.0],0.0],"is_active_output":true,"name":"Material Output","outputs":[],"type":"OUTPUT_MATERIAL_BL"},{"inputs":[[0.0,0.0,0.0,1.0],0.0,[0.0,0.0,0.0]],"is_active_output":false,"name":"Diffuse BSDF","outputs":[[0,0,0,0]],"type":"BSDF_DIFFUSE_BL"},{"inputs":[[1.0,1.0,1.0,1.0]],"is_active_output":false,"name":"Transparent BSDF","outputs":[[0,0,0,0]],"type":"BSDF_TRANSPARENT_BL"},{"inputs":[0.5,[0,0,0,0],[0,0,0,0]],"is_active_output":false,"name":"Mix Shader","outputs":[[0,0,0,0]],"type":"MIX_SHADER_BL"},{"inputs":[],"is_active_output":false,"name":"UV Map","outputs":[[0.0,0.0,0.0]],"type":"UVMAP_BL","uvLayer":"UVMap"},{"alphaMode":"STRAIGHT","inputs":[[0.0,0.0,0.0]],"is_active_output":false,"name":"Image Texture","outputs":[[0.0,0.0,0.0,0.0],0.0],"projection":"FLAT","projectionBlend":0.0,"texture":1,"type":"TEX_IMAGE_BL"}]}}},"name":"shadow"},{"alphaMode":"OPAQUE","extensions":{"S8S_v3d_materials":{"gtaoVisible":true,"materialIndex":0,"nodeGraph":{"edges":[{"fromNode":6,"fromOutput":0,"toInput":1,"toNode":2},{"fromNode":1,"fromOutput":0,"toInput":0,"toNode":0},{"fromNode":2,"fromOutput":0,"toInput":4,"toNode":3},{"fromNode":6,"fromOutput":1,"toInput":6,"toNode":5},{"fromNode":4,"fromOutput":0,"toInput":1,"toNode":1},{"fromNode":3,"fromOutput":0,"toInput":2,"toNode":1},{"fromNode":5,"fromOutput":2,"toInput":0,"toNode":1},{"fromNode":9,"fromOutput":0,"toInput":7,"toNode":5},{"fromNode":7,"fromOutput":0,"toInput":0,"toNode":9},{"fromNode":8,"fromOutput":0,"toInput":0,"toNode":6}],"nodes":[{"inputs":[[0,0,0,0],[0,0,0,0],[0.0,0.0,0.0],0.0],"is_active_output":true,"name":"Material Output","outputs":[],"type":"OUTPUT_MATERIAL_BL"},{"inputs":[0.5,[0,0,0,0],[0,0,0,0]],"is_active_output":false,"name":"Mix Shader","outputs":[[0,0,0,0]],"type":"MIX_SHADER_BL"},{"inputs":[1.0,[0.5,0.5,1.0,1.0]],"is_active_output":false,"name":"Normal Map","outputs":[[0.0,0.0,0.0]],"type":"NORMAL_MAP_BL","uvLayer":""},{"inputs":[[0.8000000715255737,0.6166917681694031,0.40746158361434937,1.0],0.30000001192092896,0.0,0.0,[0.0,0.0,0.0],[0.0,0.0,0.0]],"is_active_output":false,"name":"Glossy BSDF","outputs":[[0,0,0,0]],"type":"BSDF_GLOSSY_BL"},{"inputs":[[0.0,0.0,0.0,1.0],0.0,[0.0,0.0,0.0]],"is_active_output":false,"name":"Diffuse BSDF","outputs":[[0,0,0,0]],"type":"BSDF_DIFFUSE_BL"},{"blendType":"MULTIPLY","clampFactor":true,"clampResult":true,"dataType":"RGBA","factorMode":"UNIFORM","inputs":[1.0,[0.5,0.5,0.5],0.0,0.0,[0.0,0.0,0.0],[0.0,0.0,0.0],[0.5,0.5,0.5,1.0],[0.5,0.5,0.5,1.0],0,0],"is_active_output":false,"name":"Mix","outputs":[0.0,[0.0,0.0,0.0],[0.0,0.0,0.0,0.0],0],"type":"MIX_BL"},{"alphaMode":"CHANNEL_PACKED","inputs":[[0.0,0.0,0.0]],"is_active_output":false,"name":"Image Texture","outputs":[[0.0,0.0,0.0,0.0],0.0],"projection":"FLAT","projectionBlend":0.0,"texture":2,"type":"TEX_IMAGE_BL"},{"inputs":[],"is_active_output":false,"name":"UV Map","outputs":[[0.0,0.0,0.0]],"type":"UVMAP_BL","uvLayer":"ao"},{"inputs":[],"is_active_output":false,"name":"UV Map.001","outputs":[[0.0,0.0,0.0]],"type":"UVMAP_BL","uvLayer":"tile"},{"alphaMode":"CHANNEL_PACKED","inputs":[[0.0,0.0,0.0]],"is_active_output":false,"name":"Image Texture.001","outputs":[[0.0,0.0,0.0,0.0],0.0],"projection":"FLAT","projectionBlend":0.0,"texture":3,"type":"TEX_IMAGE_BL"}]}}},"name":"sign_gold"},{"alphaMode":"BLEND","extensions":{"S8S_v3d_materials":{"gtaoVisible":true,"materialIndex":0,"nodeGraph":{"edges":[{"fromNode":1,"fromOutput":0,"toInput":0,"toNode":0},{"fromNode":2,"fromOutput":0,"toInput":3,"toNode":0}],"nodes":[{"inputs":[[0,0,0,0],[0,0,0,0],[0.0,0.0,0.0],0.0],"is_active_output":true,"name":"Material Output","outputs":[],"type":"OUTPUT_MATERIAL_BL"},{"inputs":[[0.800000011920929,0.800000011920929,0.800000011920929,1.0],0.0,0.0,1.4500000476837158,1.0,[0.0,0.0,0.0],0.0,[1.0,0.20000000298023224,0.10000000149011612],0.05000000074505806,1.399999976158142,0.0,0.5,[1.0,1.0,1.0,1.0],0.0,0.0,[0.0,0.0,0.0],1.0,0.0,0.029999999329447746,1.5,[1.0,1.0,1.0,1.0],[0.0,0.0,0.0],0.0,0.5,[1.0,1.0,1.0,1.0],[0.0,0.0,0.0,1.0],1.0,0.0,1.3300000429153442],"is_active_output":false,"name":"Principled BSDF","outputs":[[0,0,0,0]],"type":"BSDF_PRINCIPLED_BL"},{"inputs":[],"is_active_output":false,"name":"Value","outputs":[0.0],"type":"VALUE_BL"}]}}},"name":"SSR_refraction"},{"alphaMode":"OPAQUE","extensions":{"S8S_v3d_materials":{"gtaoVisible":true,"materialIndex":0,"nodeGraph":{"edges":[{"fromNode":8,"fromOutput":0,"toInput":0,"toNode":0},{"fromNode":1,"fromOutput":0,"toInput":0,"toNode":2},{"fromNode":2,"fromOutput":0,"toInput":0,"toNode":8},{"fromNode":3,"fromOutput":0,"toInput":11,"toNode":0},{"fromNode":4,"fromOutput":0,"toInput":0,"toNode":9},{"fromNode":6,"fromOutput":0,"toInput":0,"toNode":7},{"fromNode":5,"fromOutput":0,"toInput":1,"toNode":6},{"fromNode":9,"fromOutput":0,"toInput":0,"toNode":6},{"fromNode":0,"fromOutput":0,"toInput":2,"toNode":6}],"nodes":[{"inputs":[[0.800000011920929,0.800000011920929,0.800000011920929,1.0],0.0,0.27272725105285645,1.4500000476837158,1.0,[0.0,0.0,0.0],0.0,[1.0,0.20000000298023224,0.10000000149011612],0.05000000074505806,1.399999976158142,0.0,0.12727272510528564,[1.0,1.0,1.0,1.0],0.0,0.0,[0.0,0.0,0.0],0.0,0.0,0.029999999329447746,1.5,[1.0,1.0,1.0,1.0],[0.0,0.0,0.0],0.0,0.5,[1.0,1.0,1.0,1.0],[0.0,0.0,0.0,1.0],1.0,0.0,1.3300000429153442],"is_active_output":false,"name":"Principled BSDF","outputs":[[0,0,0,0]],"type":"BSDF_PRINCIPLED_BL"},{"inputs":[],"is_active_output":false,"name":"UV Map","outputs":[[0.0,0.0,0.0]],"type":"UVMAP_BL","uvLayer":"tile"},{"inputs":[[0.0,0.0,0.0],[0.0,0.0,0.0],[0.0,0.0,0.0],[8.0,8.0,8.0]],"is_active_output":false,"name":"Mapping","outputs":[[0.0,0.0,0.0]],"type":"MAPPING_BL","vectorType":"POINT"},{"inputs":[1.4500000476837158,[0.0,0.0,0.0]],"is_active_output":false,"name":"Fresnel","outputs":[0.0],"type":"FRESNEL_BL"},{"inputs":[],"is_active_output":false,"name":"UV Map.001","outputs":[[0.0,0.0,0.0]],"type":"UVMAP_BL","uvLayer":"ao"},{"inputs":[[0.0,0.0,0.0,1.0],0.0,[0.0,0.0,0.0]],"is_active_output":false,"name":"Diffuse BSDF","outputs":[[0,0,0,0]],"type":"BSDF_DIFFUSE_BL"},{"inputs":[0.5,[0,0,0,0],[0,0,0,0]],"is_active_output":false,"name":"Mix Shader","outputs":[[0,0,0,0]],"type":"MIX_SHADER_BL"},{"inputs":[[0,0,0,0],[0,0,0,0],[0.0,0.0,0.0],0.0],"is_active_output":true,"name":"Material Output","outputs":[],"type":"OUTPUT_MATERIAL_BL"},{"alphaMode":"STRAIGHT","inputs":[[0.0,0.0,0.0]],"is_active_output":false,"name":"Image Texture","outputs":[[0.0,0.0,0.0,0.0],0.0],"projection":"FLAT","projectionBlend":0.0,"texture":4,"type":"TEX_IMAGE_BL"},{"alphaMode":"CHANNEL_PACKED","inputs":[[0.0,0.0,0.0]],"is_active_output":false,"name":"Image Texture.001","outputs":[[0.0,0.0,0.0,0.0],0.0],"projection":"FLAT","projectionBlend":0.0,"texture":3,"type":"TEX_IMAGE_BL"}]}}},"name":"table_wood"},{"alphaMode":"OPAQUE","extensions":{"S8S_v3d_materials":{"gtaoVisible":true,"materialIndex":0,"nodeGraph":{"edges":[{"fromNode":1,"fromOutput":0,"toInput":0,"toNode":0},{"fromNode":2,"fromOutput":0,"toInput":0,"toNode":1},{"fromNode":3,"fromOutput":0,"toInput":0,"toNode":2}],"nodes":[{"inputs":[[0,0,0,0],[0,0,0,0]],"is_active_output":true,"name":"World Output","outputs":[],"type":"OUTPUT_WORLD_BL"},{"inputs":[[0.4968985319137573,0.4968985319137573,0.4968985319137573,1.0],2.5],"is_active_output":false,"name":"Background","outputs":[[0,0,0,0]],"type":"BACKGROUND_BL"},{"inputs":[[0.0,0.0,0.0]],"is_active_output":false,"name":"Environment Texture","outputs":[[0.0,0.0,0.0,0.0]],"projection":"EQUIRECTANGULAR","texture":6,"type":"TEX_ENVIRONMENT_BL"},{"inputs":[],"is_active_output":false,"name":"Texture Coordinate","object":-1,"outputs":[[0.0,0.0,0.0],[0.0,0.0,0.0],[0.0,0.0,0.0],[0.0,0.0,0.0],[0.0,0.0,0.0],[0.0,0.0,0.0],[0.0,0.0,0.0]],"type":"TEX_COORD_BL"}]}}},"name":"Verge3D_Environment_World"}],"meshes":[{"extensions":{"S8S_v3d_mesh":{"colorLayers":{},"uvLayers":{}}},"name":"bun_zipper_res2","primitives":[{"attributes":{"NORMAL":2,"POSITION":1},"indices":0,"material":0,"mode":4}]},{"extensions":{"S8S_v3d_mesh":{"colorLayers":{},"uvLayers":{}}},"name":"bun_zipper_res2.001","primitives":[{"attributes":{"NORMAL":5,"POSITION":4},"indices":3,"material":3,"mode":4}]},{"extensions":{"S8S_v3d_mesh":{"colorLayers":{},"uvLayers":{"UVMap":"TEXCOORD_0"}}},"name":"bun_zipper_res2.003","primitives":[{"attributes":{"NORMAL":8,"POSITION":7,"TEXCOORD_0":9},"indices":6,"material":1,"mode":4}]},{"extensions":{"S8S_v3d_mesh":{"colorLayers":{},"uvLayers":{}}},"name":"bun_zipper_res2.004","primitives":[{"attributes":{"NORMAL":12,"POSITION":11},"indices":10,"material":2,"mode":4}]},{"extensions":{"S8S_v3d_mesh":{"colorLayers":{},"uvLayers":{}}},"name":"bun_zipper_res2.005","primitives":[{"attributes":{"NORMAL":15,"POSITION":14},"indices":13,"material":6,"mode":4}]},{"extensions":{"S8S_v3d_mesh":{"colorLayers":{},"uvLayers":{"UVMap":"TEXCOORD_0"}}},"name":"Plane","primitives":[{"attributes":{"NORMAL":18,"POSITION":17,"TEXCOORD_0":19},"indices":16,"material":4,"mode":4}]},{"extensions":{"S8S_v3d_mesh":{"colorLayers":{},"uvLayers":{"ao":"TEXCOORD_1","tile":"TEXCOORD_0"}}},"name":"table","primitives":[{"attributes":{"NORMAL":22,"POSITION":21,"TANGENT":23,"TEXCOORD_0":24,"TEXCOORD_1":25},"indices":20,"material":7,"mode":4},{"attributes":{"NORMAL":28,"POSITION":27,"TANGENT":29,"TEXCOORD_0":30,"TEXCOORD_1":31},"indices":26,"material":5,"mode":4}]}],"nodes":[{"extensions":{"S8S_v3d_node":{"frustumCulling":true,"groupNames":["environment"],"hidden":false,"hidpiCompositing":false,"objectColor":[1.0,1.0,1.0,1.0],"objectIndex":0,"renderOrder":0,"useCastShadows":true}},"mesh":5,"name":"Plane","translation":[0.0,-0.553907573223114,-0.0]},{"extensions":{"S8S_v3d_node":{"frustumCulling":true,"groupNames":["rabbits"],"hidden":false,"hidpiCompositing":false,"objectColor":[1.0,1.0,1.0,1.0],"objectIndex":0,"renderOrder":0,"useCastShadows":true}},"mesh":0,"name":"alpha_blend","rotation":[0.0,-0.42529550194740295,-0.0,0.9050545692443848],"translation":[-0.10687270760536194,0.00230704084970057,-0.11084970086812973]},{"extensions":{"S8S_v3d_node":{"frustumCulling":true,"groupNames":["rabbits"],"hidden":false,"hidpiCompositing":false,"objectColor":[1.0,1.0,1.0,1.0],"objectIndex":0,"renderOrder":0,"useCastShadows":true}},"mesh":2,"name":"alpha_clip","rotation":[0.0,0.9884209036827087,-0.0,0.1517370641231537],"translation":[0.14457376301288605,0.00230704084970057,0.03180878609418869]},{"extensions":{"S8S_v3d_node":{"frustumCulling":true,"groupNames":["environment"],"hidden":false,"hidpiCompositing":false,"objectColor":[1.0,1.0,1.0,1.0],"objectIndex":0,"renderOrder":0,"useCastShadows":true}},"mesh":6,"name":"table"},{"extensions":{"S8S_v3d_node":{"frustumCulling":true,"groupNames":["rabbits"],"hidden":false,"hidpiCompositing":false,"objectColor":[1.0,1.0,1.0,1.0],"objectIndex":0,"renderOrder":0,"useCastShadows":true}},"mesh":1,"name":"env_refraction","rotation":[0.0,0.19471552968025208,-0.0,0.9808597564697266],"translation":[-0.147120863199234,0.00230704084970057,0.047071173787117004]},{"camera":0,"extensions":{"S8S_v3d_node":{"frustumCulling":true,"groupNames":["environment"],"hidden":false,"hidpiCompositing":false,"objectColor":[0.0,0.0,0.0,0.0],"objectIndex":0,"renderOrder":0,"useCastShadows":true}},"name":"Camera","rotation":[-0.17370423674583435,0.39375951886177063,0.07604453712701797,0.8994429111480713],"scale":[0.9999999403953552,0.9999998807907104,0.9999998807907104],"translation":[0.5586937665939331,0.3550778031349182,0.5158035755157471]},{"extensions":{"S8S_v3d_node":{"frustumCulling":true,"groupNames":["rabbits"],"hidden":false,"hidpiCompositing":false,"objectColor":[1.0,1.0,1.0,1.0],"objectIndex":0,"renderOrder":0,"useCastShadows":true}},"mesh":4,"name":"SSR_refraction","rotation":[0.0,0.7018013596534729,-0.0,0.7123726606369019],"translation":[0.0026839065831154585,0.00230704084970057,0.15176285803318024]},{"extensions":{"S8S_v3d_node":{"frustumCulling":true,"groupNames":["rabbits"],"hidden":false,"hidpiCompositing":false,"objectColor":[1.0,1.0,1.0,1.0],"objectIndex":0,"renderOrder":0,"useCastShadows":true}},"mesh":3,"name":"alpha_hashed","rotation":[-0.0,-0.7765704989433289,0.0,0.6300303339958191],"translation":[0.06961986422538757,0.00230704084970057,-0.13688728213310242]}],"samplers":[{},{"magFilter":9729,"minFilter":9987,"wrapS":33071,"wrapT":33071}],"scene":0,"scenes":[{"extensions":{"S8S_v3d_scene":{"aaMethod":"AUTO","iblEnvironmentMode":"PMREM","physicallyCorrectLights":true,"pmremMaxTileSize":512,"toneMapping":{"type":"filmicBlender"},"useHDR":true,"useOIT":true,"worldMaterial":8}},"extras":{"animFrameRate":24,"coordSystem":"Z_UP_RIGHT"},"name":"Scene","nodes":[5,3,0,6,4,1,7,2]}],"textures":[{"extensions":{"KHR_texture_basisu":{"source":0},"S8S_v3d_texture":{"colorSpace":"srgb"}},"name":"mask.png","sampler":0},{"extensions":{"KHR_texture_basisu":{"source":1},"S8S_v3d_texture":{"colorSpace":"srgb"}},"name":"floor_ao","sampler":0},{"extensions":{"KHR_texture_basisu":{"source":2},"S8S_v3d_texture":{"colorSpace":"non-color"}},"name":"signs_normal.png","sampler":1},{"extensions":{"KHR_texture_basisu":{"source":3},"S8S_v3d_texture":{"colorSpace":"non-color"}},"name":"table_ao","sampler":0},{"extensions":{"KHR_texture_basisu":{"source":4},"S8S_v3d_texture":{"colorSpace":"srgb"}},"name":"wood.jpg","sampler":0},{"extensions":{"KHR_texture_basisu":{"source":3},"S8S_v3d_texture":{"colorSpace":"non-color"}},"name":"table_ao","sampler":0},{"extensions":{"S8S_v3d_texture":{"colorSpace":"linear rec.709","source":5}},"name":"old_hall_2k.hdr","sampler":0}]}
