{"accessors":[{"bufferView":0,"componentType":5121,"count":324,"max":[101],"min":[0],"type":"SCALAR"},{"bufferView":1,"componentType":5126,"count":102,"max":[0.4789835214614868,0.4789835214614868,0.4789835214614868],"min":[-0.4789835214614868,-0.4789835214614868,-0.4789835214614868],"type":"VEC3"},{"bufferView":2,"componentType":5126,"count":102,"max":[1.0,1.0,1.0],"min":[-1.0,-1.0,-1.0],"type":"VEC3"},{"bufferView":3,"componentType":5126,"count":102,"max":[0.875,1.0],"min":[0.125,0.0],"type":"VEC2"},{"bufferView":4,"componentType":5121,"count":324,"max":[101],"min":[0],"type":"SCALAR"},{"bufferView":5,"componentType":5126,"count":102,"max":[0.4789835214614868,0.4789835214614868,0.4789835214614868],"min":[-0.4789835214614868,-0.4789835214614868,-0.4789835214614868],"type":"VEC3"},{"bufferView":6,"componentType":5126,"count":102,"max":[1.0,1.0,1.0],"min":[-1.0,-1.0,-1.0],"type":"VEC3"},{"bufferView":7,"componentType":5126,"count":102,"max":[0.875,1.0],"min":[0.125,0.0],"type":"VEC2"},{"bufferView":8,"componentType":5121,"count":324,"max":[101],"min":[0],"type":"SCALAR"},{"bufferView":9,"componentType":5126,"count":102,"max":[0.4789835214614868,0.4789835214614868,0.4789835214614868],"min":[-0.4789835214614868,-0.4789835214614868,-0.4789835214614868],"type":"VEC3"},{"bufferView":10,"componentType":5126,"count":102,"max":[1.0,1.0,1.0],"min":[-1.0,-1.0,-1.0],"type":"VEC3"},{"bufferView":11,"componentType":5126,"count":102,"max":[0.875,1.0],"min":[0.125,0.0],"type":"VEC2"},{"bufferView":12,"componentType":5121,"count":324,"max":[101],"min":[0],"type":"SCALAR"},{"bufferView":13,"componentType":5126,"count":102,"max":[0.4789835214614868,0.4789835214614868,0.4789835214614868],"min":[-0.4789835214614868,-0.4789835214614868,-0.4789835214614868],"type":"VEC3"},{"bufferView":14,"componentType":5126,"count":102,"max":[1.0,1.0,1.0],"min":[-1.0,-1.0,-1.0],"type":"VEC3"},{"bufferView":15,"componentType":5126,"count":102,"max":[0.875,1.0],"min":[0.125,0.0],"type":"VEC2"},{"bufferView":16,"componentType":5121,"count":324,"max":[101],"min":[0],"type":"SCALAR"},{"bufferView":17,"componentType":5126,"count":102,"max":[0.4789835214614868,0.4789835214614868,0.4789835214614868],"min":[-0.4789835214614868,-0.4789835214614868,-0.4789835214614868],"type":"VEC3"},{"bufferView":18,"componentType":5126,"count":102,"max":[1.0,1.0,1.0],"min":[-1.0,-1.0,-1.0],"type":"VEC3"},{"bufferView":19,"componentType":5126,"count":102,"max":[0.875,1.0],"min":[0.125,0.0],"type":"VEC2"},{"bufferView":20,"componentType":5121,"count":324,"max":[101],"min":[0],"type":"SCALAR"},{"bufferView":21,"componentType":5126,"count":102,"max":[0.4789835214614868,0.4789835214614868,0.4789835214614868],"min":[-0.4789835214614868,-0.4789835214614868,-0.4789835214614868],"type":"VEC3"},{"bufferView":22,"componentType":5126,"count":102,"max":[1.0,1.0,1.0],"min":[-1.0,-1.0,-1.0],"type":"VEC3"},{"bufferView":23,"componentType":5126,"count":102,"max":[0.875,1.0],"min":[0.125,0.0],"type":"VEC2"},{"bufferView":24,"componentType":5121,"count":324,"max":[101],"min":[0],"type":"SCALAR"},{"bufferView":25,"componentType":5126,"count":102,"max":[0.4789835214614868,0.4789835214614868,0.4789835214614868],"min":[-0.4789835214614868,-0.4789835214614868,-0.4789835214614868],"type":"VEC3"},{"bufferView":26,"componentType":5126,"count":102,"max":[1.0,1.0,1.0],"min":[-1.0,-1.0,-1.0],"type":"VEC3"},{"bufferView":27,"componentType":5126,"count":102,"max":[0.875,1.0],"min":[0.125,0.0],"type":"VEC2"},{"bufferView":28,"componentType":5121,"count":324,"max":[101],"min":[0],"type":"SCALAR"},{"bufferView":29,"componentType":5126,"count":102,"max":[0.4789835214614868,0.4789835214614868,0.4789835214614868],"min":[-0.4789835214614868,-0.4789835214614868,-0.4789835214614868],"type":"VEC3"},{"bufferView":30,"componentType":5126,"count":102,"max":[1.0,1.0,1.0],"min":[-1.0,-1.0,-1.0],"type":"VEC3"},{"bufferView":31,"componentType":5126,"count":102,"max":[0.875,1.0],"min":[0.125,0.0],"type":"VEC2"},{"bufferView":32,"componentType":5121,"count":324,"max":[101],"min":[0],"type":"SCALAR"},{"bufferView":33,"componentType":5126,"count":102,"max":[0.4789835214614868,0.4789835214614868,0.4789835214614868],"min":[-0.4789835214614868,-0.4789835214614868,-0.4789835214614868],"type":"VEC3"},{"bufferView":34,"componentType":5126,"count":102,"max":[1.0,1.0,1.0],"min":[-1.0,-1.0,-1.0],"type":"VEC3"},{"bufferView":35,"componentType":5126,"count":102,"max":[0.875,1.0],"min":[0.125,0.0],"type":"VEC2"},{"bufferView":36,"componentType":5121,"count":324,"max":[101],"min":[0],"type":"SCALAR"},{"bufferView":37,"componentType":5126,"count":102,"max":[0.4789835214614868,0.4789835214614868,0.4789835214614868],"min":[-0.4789835214614868,-0.4789835214614868,-0.4789835214614868],"type":"VEC3"},{"bufferView":38,"componentType":5126,"count":102,"max":[1.0,1.0,1.0],"min":[-1.0,-1.0,-1.0],"type":"VEC3"},{"bufferView":39,"componentType":5126,"count":102,"max":[0.875,1.0],"min":[0.125,0.0],"type":"VEC2"},{"bufferView":40,"componentType":5121,"count":324,"max":[101],"min":[0],"type":"SCALAR"},{"bufferView":41,"componentType":5126,"count":102,"max":[0.4789835214614868,0.4789835214614868,0.4789835214614868],"min":[-0.4789835214614868,-0.4789835214614868,-0.4789835214614868],"type":"VEC3"},{"bufferView":42,"componentType":5126,"count":102,"max":[1.0,1.0,1.0],"min":[-1.0,-1.0,-1.0],"type":"VEC3"},{"bufferView":43,"componentType":5126,"count":102,"max":[0.875,1.0],"min":[0.125,0.0],"type":"VEC2"},{"bufferView":44,"componentType":5121,"count":324,"max":[101],"min":[0],"type":"SCALAR"},{"bufferView":45,"componentType":5126,"count":102,"max":[0.4789835214614868,0.4789835214614868,0.4789835214614868],"min":[-0.4789835214614868,-0.4789835214614868,-0.4789835214614868],"type":"VEC3"},{"bufferView":46,"componentType":5126,"count":102,"max":[1.0,1.0,1.0],"min":[-1.0,-1.0,-1.0],"type":"VEC3"},{"bufferView":47,"componentType":5126,"count":102,"max":[0.875,1.0],"min":[0.125,0.0],"type":"VEC2"},{"bufferView":48,"componentType":5121,"count":324,"max":[101],"min":[0],"type":"SCALAR"},{"bufferView":49,"componentType":5126,"count":102,"max":[0.4789835214614868,0.4789835214614868,0.4789835214614868],"min":[-0.4789835214614868,-0.4789835214614868,-0.4789835214614868],"type":"VEC3"},{"bufferView":50,"componentType":5126,"count":102,"max":[1.0,1.0,1.0],"min":[-1.0,-1.0,-1.0],"type":"VEC3"},{"bufferView":51,"componentType":5126,"count":102,"max":[0.875,1.0],"min":[0.125,0.0],"type":"VEC2"},{"bufferView":52,"componentType":5121,"count":324,"max":[101],"min":[0],"type":"SCALAR"},{"bufferView":53,"componentType":5126,"count":102,"max":[0.4789835214614868,0.4789835214614868,0.4789835214614868],"min":[-0.4789835214614868,-0.4789835214614868,-0.4789835214614868],"type":"VEC3"},{"bufferView":54,"componentType":5126,"count":102,"max":[1.0,1.0,1.0],"min":[-1.0,-1.0,-1.0],"type":"VEC3"},{"bufferView":55,"componentType":5126,"count":102,"max":[0.875,1.0],"min":[0.125,0.0],"type":"VEC2"},{"bufferView":56,"componentType":5121,"count":324,"max":[101],"min":[0],"type":"SCALAR"},{"bufferView":57,"componentType":5126,"count":102,"max":[0.4789835214614868,0.4789835214614868,0.4789835214614868],"min":[-0.4789835214614868,-0.4789835214614868,-0.4789835214614868],"type":"VEC3"},{"bufferView":58,"componentType":5126,"count":102,"max":[1.0,1.0,1.0],"min":[-1.0,-1.0,-1.0],"type":"VEC3"},{"bufferView":59,"componentType":5126,"count":102,"max":[0.875,1.0],"min":[0.125,0.0],"type":"VEC2"},{"bufferView":60,"componentType":5121,"count":324,"max":[101],"min":[0],"type":"SCALAR"},{"bufferView":61,"componentType":5126,"count":102,"max":[0.4789835214614868,0.4789835214614868,0.4789835214614868],"min":[-0.4789835214614868,-0.4789835214614868,-0.4789835214614868],"type":"VEC3"},{"bufferView":62,"componentType":5126,"count":102,"max":[1.0,1.0,1.0],"min":[-1.0,-1.0,-1.0],"type":"VEC3"},{"bufferView":63,"componentType":5126,"count":102,"max":[0.875,1.0],"min":[0.125,0.0],"type":"VEC2"},{"bufferView":64,"componentType":5123,"count":17496,"max":[11663],"min":[0],"type":"SCALAR"},{"bufferView":65,"componentType":5126,"count":11664,"max":[15.0,0.0,15.0],"min":[-3.0,0.0,-3.0],"type":"VEC3"},{"bufferView":66,"componentType":5126,"count":11664,"max":[0.0,1.0,-0.0],"min":[0.0,1.0,-0.0],"type":"VEC3"},{"bufferView":67,"componentType":5126,"count":11664,"max":[0.9705618619918823,1.9711111783981323],"min":[-0.9756287336349487,0.02492058277130127],"type":"VEC2"},{"bufferView":68,"componentType":5126,"count":11664,"max":[1.0000001192092896,0.9999995231628418,0.9999997615814209,1.0],"min":[-1.3292617495608283e-06,-5.5789024600017e-07,4.916559959156075e-08,1.0],"type":"VEC4"},{"bufferView":69,"componentType":5126,"count":24,"max":[16.25],"min":[0.0],"type":"SCALAR"},{"bufferView":70,"componentType":5126,"count":24,"max":[1.5,0.0,-0.5],"min":[-1.5,0.0,-2.5],"type":"VEC3"},{"bufferView":71,"componentType":5126,"count":10,"max":[7.5],"min":[0.8333333134651184],"type":"SCALAR"},{"bufferView":72,"componentType":5126,"count":10,"max":[0.0,0.0,-0.0,1.0],"min":[0.0,0.0,-0.0,1.0],"type":"VEC4"},{"bufferView":73,"componentType":5126,"count":10,"max":[7.5],"min":[0.8333333134651184],"type":"SCALAR"},{"bufferView":74,"componentType":5126,"count":10,"max":[1.0,1.0,1.0],"min":[1.0,1.0,1.0],"type":"VEC3"},{"bufferView":75,"componentType":5126,"count":70,"max":[16.25],"min":[0.0],"type":"SCALAR"},{"bufferView":76,"componentType":5126,"count":70,"max":[2.5,0.0,2.5],"min":[-1.5,0.0,-2.5],"type":"VEC3"},{"bufferView":77,"componentType":5126,"count":22,"max":[15.416666984558105],"min":[1.25],"type":"SCALAR"},{"bufferView":78,"componentType":5126,"count":22,"max":[0.0,0.0,-0.0,1.0],"min":[0.0,0.0,-0.0,1.0],"type":"VEC4"},{"bufferView":79,"componentType":5126,"count":22,"max":[15.416666984558105],"min":[1.25],"type":"SCALAR"},{"bufferView":80,"componentType":5126,"count":22,"max":[1.0,1.0,1.0],"min":[1.0,1.0,1.0],"type":"VEC3"},{"bufferView":81,"componentType":5126,"count":35,"max":[16.25],"min":[0.0],"type":"SCALAR"},{"bufferView":82,"componentType":5126,"count":35,"max":[2.5,0.0,2.5],"min":[-2.5,0.0,-1.5],"type":"VEC3"},{"bufferView":83,"componentType":5126,"count":25,"max":[13.75],"min":[1.25],"type":"SCALAR"},{"bufferView":84,"componentType":5126,"count":25,"max":[0.0,0.0,-0.0,1.0],"min":[0.0,0.0,-0.0,1.0],"type":"VEC4"},{"bufferView":85,"componentType":5126,"count":25,"max":[13.75],"min":[1.25],"type":"SCALAR"},{"bufferView":86,"componentType":5126,"count":25,"max":[1.0,1.0,1.0],"min":[1.0,1.0,1.0],"type":"VEC3"},{"bufferView":87,"componentType":5126,"count":30,"max":[16.25],"min":[0.0],"type":"SCALAR"},{"bufferView":88,"componentType":5126,"count":30,"max":[1.5,0.0,2.5],"min":[-2.5,0.0,-0.5],"type":"VEC3"},{"bufferView":89,"componentType":5126,"count":17,"max":[12.916666984558105],"min":[1.6666666269302368],"type":"SCALAR"},{"bufferView":90,"componentType":5126,"count":17,"max":[0.0,0.0,-0.0,1.0],"min":[0.0,0.0,-0.0,1.0],"type":"VEC4"},{"bufferView":91,"componentType":5126,"count":17,"max":[12.916666984558105],"min":[1.6666666269302368],"type":"SCALAR"},{"bufferView":92,"componentType":5126,"count":17,"max":[1.0,1.0,1.0],"min":[1.0,1.0,1.0],"type":"VEC3"},{"bufferView":93,"componentType":5126,"count":62,"max":[16.25],"min":[0.0],"type":"SCALAR"},{"bufferView":94,"componentType":5126,"count":62,"max":[-1.5,0.0,-0.5],"min":[-2.5,0.0,-2.5],"type":"VEC3"},{"bufferView":95,"componentType":5126,"count":8,"max":[7.083333492279053],"min":[1.25],"type":"SCALAR"},{"bufferView":96,"componentType":5126,"count":8,"max":[0.0,0.0,-0.0,1.0],"min":[0.0,0.0,-0.0,1.0],"type":"VEC4"},{"bufferView":97,"componentType":5126,"count":8,"max":[7.083333492279053],"min":[1.25],"type":"SCALAR"},{"bufferView":98,"componentType":5126,"count":8,"max":[1.0,1.0,1.0],"min":[1.0,1.0,1.0],"type":"VEC3"},{"bufferView":99,"componentType":5126,"count":29,"max":[16.25],"min":[0.0],"type":"SCALAR"},{"bufferView":100,"componentType":5126,"count":29,"max":[2.5,0.0,2.5],"min":[-2.5,0.0,0.5],"type":"VEC3"},{"bufferView":101,"componentType":5126,"count":19,"max":[10.416666984558105],"min":[0.4166666567325592],"type":"SCALAR"},{"bufferView":102,"componentType":5126,"count":19,"max":[0.0,0.0,-0.0,1.0],"min":[0.0,0.0,-0.0,1.0],"type":"VEC4"},{"bufferView":103,"componentType":5126,"count":19,"max":[10.416666984558105],"min":[0.4166666567325592],"type":"SCALAR"},{"bufferView":104,"componentType":5126,"count":19,"max":[1.0,1.0,1.0],"min":[1.0,1.0,1.0],"type":"VEC3"},{"bufferView":105,"componentType":5126,"count":34,"max":[16.25],"min":[0.0],"type":"SCALAR"},{"bufferView":106,"componentType":5126,"count":34,"max":[2.5,0.0,2.5],"min":[-0.5,0.0,-0.5],"type":"VEC3"},{"bufferView":107,"componentType":5126,"count":26,"max":[16.25],"min":[0.4166666567325592],"type":"SCALAR"},{"bufferView":108,"componentType":5126,"count":26,"max":[0.0,0.0,-0.0,1.0],"min":[0.0,0.0,-0.0,1.0],"type":"VEC4"},{"bufferView":109,"componentType":5126,"count":26,"max":[16.25],"min":[0.4166666567325592],"type":"SCALAR"},{"bufferView":110,"componentType":5126,"count":26,"max":[1.0,1.0,1.0],"min":[1.0,1.0,1.0],"type":"VEC3"},{"bufferView":111,"componentType":5126,"count":24,"max":[16.25],"min":[0.0],"type":"SCALAR"},{"bufferView":112,"componentType":5126,"count":24,"max":[2.5,0.0,1.5],"min":[0.5,0.0,-0.5],"type":"VEC3"},{"bufferView":113,"componentType":5126,"count":10,"max":[15.833333015441895],"min":[1.6666666269302368],"type":"SCALAR"},{"bufferView":114,"componentType":5126,"count":10,"max":[0.0,0.0,-0.0,1.0],"min":[0.0,0.0,-0.0,1.0],"type":"VEC4"},{"bufferView":115,"componentType":5126,"count":10,"max":[15.833333015441895],"min":[1.6666666269302368],"type":"SCALAR"},{"bufferView":116,"componentType":5126,"count":10,"max":[1.0,1.0,1.0],"min":[1.0,1.0,1.0],"type":"VEC3"},{"bufferView":117,"componentType":5126,"count":24,"max":[16.25],"min":[0.0],"type":"SCALAR"},{"bufferView":118,"componentType":5126,"count":24,"max":[2.5,0.0,-0.5],"min":[-0.5,0.0,-2.5],"type":"VEC3"},{"bufferView":119,"componentType":5126,"count":12,"max":[7.916666507720947],"min":[0.8333333134651184],"type":"SCALAR"},{"bufferView":120,"componentType":5126,"count":12,"max":[0.0,0.0,-0.0,1.0],"min":[0.0,0.0,-0.0,1.0],"type":"VEC4"},{"bufferView":121,"componentType":5126,"count":12,"max":[7.916666507720947],"min":[0.8333333134651184],"type":"SCALAR"},{"bufferView":122,"componentType":5126,"count":12,"max":[1.0,1.0,1.0],"min":[1.0,1.0,1.0],"type":"VEC3"},{"bufferView":123,"componentType":5126,"count":24,"max":[16.25],"min":[0.0],"type":"SCALAR"},{"bufferView":124,"componentType":5126,"count":24,"max":[0.5,0.0,0.5],"min":[-2.5,0.0,-2.5],"type":"VEC3"},{"bufferView":125,"componentType":5126,"count":12,"max":[7.5],"min":[0.4166666567325592],"type":"SCALAR"},{"bufferView":126,"componentType":5126,"count":12,"max":[0.0,0.0,-0.0,1.0],"min":[0.0,0.0,-0.0,1.0],"type":"VEC4"},{"bufferView":127,"componentType":5126,"count":12,"max":[7.5],"min":[0.4166666567325592],"type":"SCALAR"},{"bufferView":128,"componentType":5126,"count":12,"max":[1.0,1.0,1.0],"min":[1.0,1.0,1.0],"type":"VEC3"},{"bufferView":129,"componentType":5126,"count":24,"max":[16.25],"min":[0.0],"type":"SCALAR"},{"bufferView":130,"componentType":5126,"count":24,"max":[0.5,0.0,2.5],"min":[-0.5,0.0,-0.5],"type":"VEC3"},{"bufferView":131,"componentType":5126,"count":9,"max":[6.25],"min":[0.8333333134651184],"type":"SCALAR"},{"bufferView":132,"componentType":5126,"count":9,"max":[0.0,0.0,-0.0,1.0],"min":[0.0,0.0,-0.0,1.0],"type":"VEC4"},{"bufferView":133,"componentType":5126,"count":9,"max":[6.25],"min":[0.8333333134651184],"type":"SCALAR"},{"bufferView":134,"componentType":5126,"count":9,"max":[1.0,1.0,1.0],"min":[1.0,1.0,1.0],"type":"VEC3"},{"bufferView":135,"componentType":5126,"count":26,"max":[16.25],"min":[0.0],"type":"SCALAR"},{"bufferView":136,"componentType":5126,"count":26,"max":[1.5,0.0,1.5],"min":[-1.5,0.0,-1.5],"type":"VEC3"},{"bufferView":137,"componentType":5126,"count":14,"max":[9.583333015441895],"min":[0.8333333134651184],"type":"SCALAR"},{"bufferView":138,"componentType":5126,"count":14,"max":[0.0,0.0,-0.0,1.0],"min":[0.0,0.0,-0.0,1.0],"type":"VEC4"},{"bufferView":139,"componentType":5126,"count":14,"max":[9.583333015441895],"min":[0.8333333134651184],"type":"SCALAR"},{"bufferView":140,"componentType":5126,"count":14,"max":[1.0,1.0,1.0],"min":[1.0,1.0,1.0],"type":"VEC3"},{"bufferView":141,"componentType":5126,"count":113,"max":[16.25],"min":[0.0],"type":"SCALAR"},{"bufferView":142,"componentType":5126,"count":113,"max":[2.5,0.0,2.5],"min":[-1.5,0.0,0.5],"type":"VEC3"},{"bufferView":143,"componentType":5126,"count":26,"max":[14.583333015441895],"min":[0.8333333134651184],"type":"SCALAR"},{"bufferView":144,"componentType":5126,"count":26,"max":[0.0,0.0,-0.0,1.0],"min":[0.0,0.0,-0.0,1.0],"type":"VEC4"},{"bufferView":145,"componentType":5126,"count":26,"max":[14.583333015441895],"min":[0.8333333134651184],"type":"SCALAR"},{"bufferView":146,"componentType":5126,"count":26,"max":[1.0,1.0,1.0],"min":[1.0,1.0,1.0],"type":"VEC3"},{"bufferView":147,"componentType":5126,"count":62,"max":[16.25],"min":[0.0],"type":"SCALAR"},{"bufferView":148,"componentType":5126,"count":62,"max":[1.5,0.0,-1.5],"min":[-1.5,0.0,-2.5],"type":"VEC3"},{"bufferView":149,"componentType":5126,"count":10,"max":[7.083333492279053],"min":[0.8333333134651184],"type":"SCALAR"},{"bufferView":150,"componentType":5126,"count":10,"max":[0.0,0.0,-0.0,1.0],"min":[0.0,0.0,-0.0,1.0],"type":"VEC4"},{"bufferView":151,"componentType":5126,"count":10,"max":[7.083333492279053],"min":[0.8333333134651184],"type":"SCALAR"},{"bufferView":152,"componentType":5126,"count":10,"max":[1.0,1.0,1.0],"min":[1.0,1.0,1.0],"type":"VEC3"},{"bufferView":153,"componentType":5126,"count":26,"max":[16.25],"min":[0.0],"type":"SCALAR"},{"bufferView":154,"componentType":5126,"count":26,"max":[2.5,0.0,2.5],"min":[1.5,0.0,-1.5],"type":"VEC3"},{"bufferView":155,"componentType":5126,"count":15,"max":[9.166666984558105],"min":[1.25],"type":"SCALAR"},{"bufferView":156,"componentType":5126,"count":15,"max":[0.0,0.0,-0.0,1.0],"min":[0.0,0.0,-0.0,1.0],"type":"VEC4"},{"bufferView":157,"componentType":5126,"count":15,"max":[9.166666984558105],"min":[1.25],"type":"SCALAR"},{"bufferView":158,"componentType":5126,"count":15,"max":[1.0,1.0,1.0],"min":[1.0,1.0,1.0],"type":"VEC3"},{"bufferView":159,"componentType":5126,"count":35,"max":[16.25],"min":[0.0],"type":"SCALAR"},{"bufferView":160,"componentType":5126,"count":35,"max":[2.5,0.0,2.5],"min":[-1.5,0.0,-0.5],"type":"VEC3"},{"bufferView":161,"componentType":5126,"count":23,"max":[14.166666984558105],"min":[0.4166666567325592],"type":"SCALAR"},{"bufferView":162,"componentType":5126,"count":23,"max":[0.0,0.0,-0.0,1.0],"min":[0.0,0.0,-0.0,1.0],"type":"VEC4"},{"bufferView":163,"componentType":5126,"count":22,"max":[14.166666984558105],"min":[0.4166666567325592],"type":"SCALAR"},{"bufferView":164,"componentType":5126,"count":22,"max":[1.0,1.0,1.0],"min":[1.0,1.0,1.0],"type":"VEC3"},{"bufferView":165,"componentType":5126,"count":320,"max":[16.25],"min":[0.0],"type":"SCALAR"},{"bufferView":166,"componentType":5126,"count":320,"max":[5.0],"min":[0.0],"type":"SCALAR"}],"animations":[{"channels":[{"sampler":0,"target":{"node":0,"path":"translation"}},{"sampler":1,"target":{"node":0,"path":"rotation"}},{"sampler":2,"target":{"node":0,"path":"scale"}}],"extensions":{"S8S_v3d_animation":{"auto":true,"loop":"REPEAT","offset":0.0,"repeatCount":1.0,"repeatInfinite":true}},"name":"Cube","samplers":[{"input":69,"interpolation":"LINEAR","output":70},{"input":71,"interpolation":"LINEAR","output":72},{"input":73,"interpolation":"LINEAR","output":74}]},{"channels":[{"sampler":0,"target":{"node":1,"path":"translation"}},{"sampler":1,"target":{"node":1,"path":"rotation"}},{"sampler":2,"target":{"node":1,"path":"scale"}}],"extensions":{"S8S_v3d_animation":{"auto":true,"loop":"REPEAT","offset":0.0,"repeatCount":1.0,"repeatInfinite":true}},"name":"Cube.002","samplers":[{"input":75,"interpolation":"LINEAR","output":76},{"input":77,"interpolation":"LINEAR","output":78},{"input":79,"interpolation":"LINEAR","output":80}]},{"channels":[{"sampler":0,"target":{"node":2,"path":"translation"}},{"sampler":1,"target":{"node":2,"path":"rotation"}},{"sampler":2,"target":{"node":2,"path":"scale"}}],"extensions":{"S8S_v3d_animation":{"auto":true,"loop":"REPEAT","offset":0.0,"repeatCount":1.0,"repeatInfinite":true}},"name":"Cube.003","samplers":[{"input":81,"interpolation":"LINEAR","output":82},{"input":83,"interpolation":"LINEAR","output":84},{"input":85,"interpolation":"LINEAR","output":86}]},{"channels":[{"sampler":0,"target":{"node":3,"path":"translation"}},{"sampler":1,"target":{"node":3,"path":"rotation"}},{"sampler":2,"target":{"node":3,"path":"scale"}}],"extensions":{"S8S_v3d_animation":{"auto":true,"loop":"REPEAT","offset":0.0,"repeatCount":1.0,"repeatInfinite":true}},"name":"Cube.001","samplers":[{"input":87,"interpolation":"LINEAR","output":88},{"input":89,"interpolation":"LINEAR","output":90},{"input":91,"interpolation":"LINEAR","output":92}]},{"channels":[{"sampler":0,"target":{"node":4,"path":"translation"}},{"sampler":1,"target":{"node":4,"path":"rotation"}},{"sampler":2,"target":{"node":4,"path":"scale"}}],"extensions":{"S8S_v3d_animation":{"auto":true,"loop":"REPEAT","offset":0.0,"repeatCount":1.0,"repeatInfinite":true}},"name":"Cube.004","samplers":[{"input":93,"interpolation":"LINEAR","output":94},{"input":95,"interpolation":"LINEAR","output":96},{"input":97,"interpolation":"LINEAR","output":98}]},{"channels":[{"sampler":0,"target":{"node":5,"path":"translation"}},{"sampler":1,"target":{"node":5,"path":"rotation"}},{"sampler":2,"target":{"node":5,"path":"scale"}}],"extensions":{"S8S_v3d_animation":{"auto":true,"loop":"REPEAT","offset":0.0,"repeatCount":1.0,"repeatInfinite":true}},"name":"Cube.005","samplers":[{"input":99,"interpolation":"LINEAR","output":100},{"input":101,"interpolation":"LINEAR","output":102},{"input":103,"interpolation":"LINEAR","output":104}]},{"channels":[{"sampler":0,"target":{"node":6,"path":"translation"}},{"sampler":1,"target":{"node":6,"path":"rotation"}},{"sampler":2,"target":{"node":6,"path":"scale"}}],"extensions":{"S8S_v3d_animation":{"auto":true,"loop":"REPEAT","offset":0.0,"repeatCount":1.0,"repeatInfinite":true}},"name":"Cube.006","samplers":[{"input":105,"interpolation":"LINEAR","output":106},{"input":107,"interpolation":"LINEAR","output":108},{"input":109,"interpolation":"LINEAR","output":110}]},{"channels":[{"sampler":0,"target":{"node":7,"path":"translation"}},{"sampler":1,"target":{"node":7,"path":"rotation"}},{"sampler":2,"target":{"node":7,"path":"scale"}}],"extensions":{"S8S_v3d_animation":{"auto":true,"loop":"REPEAT","offset":0.0,"repeatCount":1.0,"repeatInfinite":true}},"name":"Cube.007","samplers":[{"input":111,"interpolation":"LINEAR","output":112},{"input":113,"interpolation":"LINEAR","output":114},{"input":115,"interpolation":"LINEAR","output":116}]},{"channels":[{"sampler":0,"target":{"node":8,"path":"translation"}},{"sampler":1,"target":{"node":8,"path":"rotation"}},{"sampler":2,"target":{"node":8,"path":"scale"}}],"extensions":{"S8S_v3d_animation":{"auto":true,"loop":"REPEAT","offset":0.0,"repeatCount":1.0,"repeatInfinite":true}},"name":"Cube.008","samplers":[{"input":117,"interpolation":"LINEAR","output":118},{"input":119,"interpolation":"LINEAR","output":120},{"input":121,"interpolation":"LINEAR","output":122}]},{"channels":[{"sampler":0,"target":{"node":9,"path":"translation"}},{"sampler":1,"target":{"node":9,"path":"rotation"}},{"sampler":2,"target":{"node":9,"path":"scale"}}],"extensions":{"S8S_v3d_animation":{"auto":true,"loop":"REPEAT","offset":0.0,"repeatCount":1.0,"repeatInfinite":true}},"name":"Cube.009","samplers":[{"input":123,"interpolation":"LINEAR","output":124},{"input":125,"interpolation":"LINEAR","output":126},{"input":127,"interpolation":"LINEAR","output":128}]},{"channels":[{"sampler":0,"target":{"node":10,"path":"translation"}},{"sampler":1,"target":{"node":10,"path":"rotation"}},{"sampler":2,"target":{"node":10,"path":"scale"}}],"extensions":{"S8S_v3d_animation":{"auto":true,"loop":"REPEAT","offset":0.0,"repeatCount":1.0,"repeatInfinite":true}},"name":"Cube.013","samplers":[{"input":129,"interpolation":"LINEAR","output":130},{"input":131,"interpolation":"LINEAR","output":132},{"input":133,"interpolation":"LINEAR","output":134}]},{"channels":[{"sampler":0,"target":{"node":11,"path":"translation"}},{"sampler":1,"target":{"node":11,"path":"rotation"}},{"sampler":2,"target":{"node":11,"path":"scale"}}],"extensions":{"S8S_v3d_animation":{"auto":true,"loop":"REPEAT","offset":0.0,"repeatCount":1.0,"repeatInfinite":true}},"name":"Cube.014","samplers":[{"input":135,"interpolation":"LINEAR","output":136},{"input":137,"interpolation":"LINEAR","output":138},{"input":139,"interpolation":"LINEAR","output":140}]},{"channels":[{"sampler":0,"target":{"node":12,"path":"translation"}},{"sampler":1,"target":{"node":12,"path":"rotation"}},{"sampler":2,"target":{"node":12,"path":"scale"}}],"extensions":{"S8S_v3d_animation":{"auto":true,"loop":"REPEAT","offset":0.0,"repeatCount":1.0,"repeatInfinite":true}},"name":"Cube.015","samplers":[{"input":141,"interpolation":"LINEAR","output":142},{"input":143,"interpolation":"LINEAR","output":144},{"input":145,"interpolation":"LINEAR","output":146}]},{"channels":[{"sampler":0,"target":{"node":15,"path":"translation"}},{"sampler":1,"target":{"node":15,"path":"rotation"}},{"sampler":2,"target":{"node":15,"path":"scale"}}],"extensions":{"S8S_v3d_animation":{"auto":true,"loop":"REPEAT","offset":0.0,"repeatCount":1.0,"repeatInfinite":true}},"name":"Cube.010","samplers":[{"input":147,"interpolation":"LINEAR","output":148},{"input":149,"interpolation":"LINEAR","output":150},{"input":151,"interpolation":"LINEAR","output":152}]},{"channels":[{"sampler":0,"target":{"node":16,"path":"translation"}},{"sampler":1,"target":{"node":16,"path":"rotation"}},{"sampler":2,"target":{"node":16,"path":"scale"}}],"extensions":{"S8S_v3d_animation":{"auto":true,"loop":"REPEAT","offset":0.0,"repeatCount":1.0,"repeatInfinite":true}},"name":"Cube.011","samplers":[{"input":153,"interpolation":"LINEAR","output":154},{"input":155,"interpolation":"LINEAR","output":156},{"input":157,"interpolation":"LINEAR","output":158}]},{"channels":[{"sampler":0,"target":{"node":17,"path":"translation"}},{"sampler":1,"target":{"node":17,"path":"rotation"}},{"sampler":2,"target":{"node":17,"path":"scale"}}],"extensions":{"S8S_v3d_animation":{"auto":true,"loop":"REPEAT","offset":0.0,"repeatCount":1.0,"repeatInfinite":true}},"name":"Cube.012","samplers":[{"input":159,"interpolation":"LINEAR","output":160},{"input":161,"interpolation":"LINEAR","output":162},{"input":163,"interpolation":"LINEAR","output":164}]},{"channels":[{"sampler":0,"target":{"extras":{"material":0},"node":13,"path":"material.nodeValue[\"Value\"]"}}],"extensions":{"S8S_v3d_animation":{"auto":true,"loop":"REPEAT","offset":0.0,"repeatCount":1.0,"repeatInfinite":true}},"name":"floor","samplers":[{"input":165,"interpolation":"LINEAR","output":166}]}],"asset":{"generator":"Verge3D for Blender v4.6.0","version":"2.0"},"bufferViews":[{"buffer":0,"byteLength":324,"byteOffset":0,"target":34963},{"buffer":0,"byteLength":1224,"byteOffset":324,"target":34962},{"buffer":0,"byteLength":1224,"byteOffset":1548,"target":34962},{"buffer":0,"byteLength":816,"byteOffset":2772,"target":34962},{"buffer":0,"byteLength":324,"byteOffset":3588,"target":34963},{"buffer":0,"byteLength":1224,"byteOffset":3912,"target":34962},{"buffer":0,"byteLength":1224,"byteOffset":5136,"target":34962},{"buffer":0,"byteLength":816,"byteOffset":6360,"target":34962},{"buffer":0,"byteLength":324,"byteOffset":7176,"target":34963},{"buffer":0,"byteLength":1224,"byteOffset":7500,"target":34962},{"buffer":0,"byteLength":1224,"byteOffset":8724,"target":34962},{"buffer":0,"byteLength":816,"byteOffset":9948,"target":34962},{"buffer":0,"byteLength":324,"byteOffset":10764,"target":34963},{"buffer":0,"byteLength":1224,"byteOffset":11088,"target":34962},{"buffer":0,"byteLength":1224,"byteOffset":12312,"target":34962},{"buffer":0,"byteLength":816,"byteOffset":13536,"target":34962},{"buffer":0,"byteLength":324,"byteOffset":14352,"target":34963},{"buffer":0,"byteLength":1224,"byteOffset":14676,"target":34962},{"buffer":0,"byteLength":1224,"byteOffset":15900,"target":34962},{"buffer":0,"byteLength":816,"byteOffset":17124,"target":34962},{"buffer":0,"byteLength":324,"byteOffset":17940,"target":34963},{"buffer":0,"byteLength":1224,"byteOffset":18264,"target":34962},{"buffer":0,"byteLength":1224,"byteOffset":19488,"target":34962},{"buffer":0,"byteLength":816,"byteOffset":20712,"target":34962},{"buffer":0,"byteLength":324,"byteOffset":21528,"target":34963},{"buffer":0,"byteLength":1224,"byteOffset":21852,"target":34962},{"buffer":0,"byteLength":1224,"byteOffset":23076,"target":34962},{"buffer":0,"byteLength":816,"byteOffset":24300,"target":34962},{"buffer":0,"byteLength":324,"byteOffset":25116,"target":34963},{"buffer":0,"byteLength":1224,"byteOffset":25440,"target":34962},{"buffer":0,"byteLength":1224,"byteOffset":26664,"target":34962},{"buffer":0,"byteLength":816,"byteOffset":27888,"target":34962},{"buffer":0,"byteLength":324,"byteOffset":28704,"target":34963},{"buffer":0,"byteLength":1224,"byteOffset":29028,"target":34962},{"buffer":0,"byteLength":1224,"byteOffset":30252,"target":34962},{"buffer":0,"byteLength":816,"byteOffset":31476,"target":34962},{"buffer":0,"byteLength":324,"byteOffset":32292,"target":34963},{"buffer":0,"byteLength":1224,"byteOffset":32616,"target":34962},{"buffer":0,"byteLength":1224,"byteOffset":33840,"target":34962},{"buffer":0,"byteLength":816,"byteOffset":35064,"target":34962},{"buffer":0,"byteLength":324,"byteOffset":35880,"target":34963},{"buffer":0,"byteLength":1224,"byteOffset":36204,"target":34962},{"buffer":0,"byteLength":1224,"byteOffset":37428,"target":34962},{"buffer":0,"byteLength":816,"byteOffset":38652,"target":34962},{"buffer":0,"byteLength":324,"byteOffset":39468,"target":34963},{"buffer":0,"byteLength":1224,"byteOffset":39792,"target":34962},{"buffer":0,"byteLength":1224,"byteOffset":41016,"target":34962},{"buffer":0,"byteLength":816,"byteOffset":42240,"target":34962},{"buffer":0,"byteLength":324,"byteOffset":43056,"target":34963},{"buffer":0,"byteLength":1224,"byteOffset":43380,"target":34962},{"buffer":0,"byteLength":1224,"byteOffset":44604,"target":34962},{"buffer":0,"byteLength":816,"byteOffset":45828,"target":34962},{"buffer":0,"byteLength":324,"byteOffset":46644,"target":34963},{"buffer":0,"byteLength":1224,"byteOffset":46968,"target":34962},{"buffer":0,"byteLength":1224,"byteOffset":48192,"target":34962},{"buffer":0,"byteLength":816,"byteOffset":49416,"target":34962},{"buffer":0,"byteLength":324,"byteOffset":50232,"target":34963},{"buffer":0,"byteLength":1224,"byteOffset":50556,"target":34962},{"buffer":0,"byteLength":1224,"byteOffset":51780,"target":34962},{"buffer":0,"byteLength":816,"byteOffset":53004,"target":34962},{"buffer":0,"byteLength":324,"byteOffset":53820,"target":34963},{"buffer":0,"byteLength":1224,"byteOffset":54144,"target":34962},{"buffer":0,"byteLength":1224,"byteOffset":55368,"target":34962},{"buffer":0,"byteLength":816,"byteOffset":56592,"target":34962},{"buffer":0,"byteLength":34992,"byteOffset":57408,"target":34963},{"buffer":0,"byteLength":139968,"byteOffset":92400,"target":34962},{"buffer":0,"byteLength":139968,"byteOffset":232368,"target":34962},{"buffer":0,"byteLength":93312,"byteOffset":372336,"target":34962},{"buffer":0,"byteLength":186624,"byteOffset":465648,"target":34962},{"buffer":0,"byteLength":96,"byteOffset":652272},{"buffer":0,"byteLength":288,"byteOffset":652368},{"buffer":0,"byteLength":40,"byteOffset":652656},{"buffer":0,"byteLength":160,"byteOffset":652696},{"buffer":0,"byteLength":40,"byteOffset":652856},{"buffer":0,"byteLength":120,"byteOffset":652896},{"buffer":0,"byteLength":280,"byteOffset":653016},{"buffer":0,"byteLength":840,"byteOffset":653296},{"buffer":0,"byteLength":88,"byteOffset":654136},{"buffer":0,"byteLength":352,"byteOffset":654224},{"buffer":0,"byteLength":88,"byteOffset":654576},{"buffer":0,"byteLength":264,"byteOffset":654664},{"buffer":0,"byteLength":140,"byteOffset":654928},{"buffer":0,"byteLength":420,"byteOffset":655068},{"buffer":0,"byteLength":100,"byteOffset":655488},{"buffer":0,"byteLength":400,"byteOffset":655588},{"buffer":0,"byteLength":100,"byteOffset":655988},{"buffer":0,"byteLength":300,"byteOffset":656088},{"buffer":0,"byteLength":120,"byteOffset":656388},{"buffer":0,"byteLength":360,"byteOffset":656508},{"buffer":0,"byteLength":68,"byteOffset":656868},{"buffer":0,"byteLength":272,"byteOffset":656936},{"buffer":0,"byteLength":68,"byteOffset":657208},{"buffer":0,"byteLength":204,"byteOffset":657276},{"buffer":0,"byteLength":248,"byteOffset":657480},{"buffer":0,"byteLength":744,"byteOffset":657728},{"buffer":0,"byteLength":32,"byteOffset":658472},{"buffer":0,"byteLength":128,"byteOffset":658504},{"buffer":0,"byteLength":32,"byteOffset":658632},{"buffer":0,"byteLength":96,"byteOffset":658664},{"buffer":0,"byteLength":116,"byteOffset":658760},{"buffer":0,"byteLength":348,"byteOffset":658876},{"buffer":0,"byteLength":76,"byteOffset":659224},{"buffer":0,"byteLength":304,"byteOffset":659300},{"buffer":0,"byteLength":76,"byteOffset":659604},{"buffer":0,"byteLength":228,"byteOffset":659680},{"buffer":0,"byteLength":136,"byteOffset":659908},{"buffer":0,"byteLength":408,"byteOffset":660044},{"buffer":0,"byteLength":104,"byteOffset":660452},{"buffer":0,"byteLength":416,"byteOffset":660556},{"buffer":0,"byteLength":104,"byteOffset":660972},{"buffer":0,"byteLength":312,"byteOffset":661076},{"buffer":0,"byteLength":96,"byteOffset":661388},{"buffer":0,"byteLength":288,"byteOffset":661484},{"buffer":0,"byteLength":40,"byteOffset":661772},{"buffer":0,"byteLength":160,"byteOffset":661812},{"buffer":0,"byteLength":40,"byteOffset":661972},{"buffer":0,"byteLength":120,"byteOffset":662012},{"buffer":0,"byteLength":96,"byteOffset":662132},{"buffer":0,"byteLength":288,"byteOffset":662228},{"buffer":0,"byteLength":48,"byteOffset":662516},{"buffer":0,"byteLength":192,"byteOffset":662564},{"buffer":0,"byteLength":48,"byteOffset":662756},{"buffer":0,"byteLength":144,"byteOffset":662804},{"buffer":0,"byteLength":96,"byteOffset":662948},{"buffer":0,"byteLength":288,"byteOffset":663044},{"buffer":0,"byteLength":48,"byteOffset":663332},{"buffer":0,"byteLength":192,"byteOffset":663380},{"buffer":0,"byteLength":48,"byteOffset":663572},{"buffer":0,"byteLength":144,"byteOffset":663620},{"buffer":0,"byteLength":96,"byteOffset":663764},{"buffer":0,"byteLength":288,"byteOffset":663860},{"buffer":0,"byteLength":36,"byteOffset":664148},{"buffer":0,"byteLength":144,"byteOffset":664184},{"buffer":0,"byteLength":36,"byteOffset":664328},{"buffer":0,"byteLength":108,"byteOffset":664364},{"buffer":0,"byteLength":104,"byteOffset":664472},{"buffer":0,"byteLength":312,"byteOffset":664576},{"buffer":0,"byteLength":56,"byteOffset":664888},{"buffer":0,"byteLength":224,"byteOffset":664944},{"buffer":0,"byteLength":56,"byteOffset":665168},{"buffer":0,"byteLength":168,"byteOffset":665224},{"buffer":0,"byteLength":452,"byteOffset":665392},{"buffer":0,"byteLength":1356,"byteOffset":665844},{"buffer":0,"byteLength":104,"byteOffset":667200},{"buffer":0,"byteLength":416,"byteOffset":667304},{"buffer":0,"byteLength":104,"byteOffset":667720},{"buffer":0,"byteLength":312,"byteOffset":667824},{"buffer":0,"byteLength":248,"byteOffset":668136},{"buffer":0,"byteLength":744,"byteOffset":668384},{"buffer":0,"byteLength":40,"byteOffset":669128},{"buffer":0,"byteLength":160,"byteOffset":669168},{"buffer":0,"byteLength":40,"byteOffset":669328},{"buffer":0,"byteLength":120,"byteOffset":669368},{"buffer":0,"byteLength":104,"byteOffset":669488},{"buffer":0,"byteLength":312,"byteOffset":669592},{"buffer":0,"byteLength":60,"byteOffset":669904},{"buffer":0,"byteLength":240,"byteOffset":669964},{"buffer":0,"byteLength":60,"byteOffset":670204},{"buffer":0,"byteLength":180,"byteOffset":670264},{"buffer":0,"byteLength":140,"byteOffset":670444},{"buffer":0,"byteLength":420,"byteOffset":670584},{"buffer":0,"byteLength":92,"byteOffset":671004},{"buffer":0,"byteLength":368,"byteOffset":671096},{"buffer":0,"byteLength":88,"byteOffset":671464},{"buffer":0,"byteLength":264,"byteOffset":671552},{"buffer":0,"byteLength":1280,"byteOffset":671816},{"buffer":0,"byteLength":1280,"byteOffset":673096}],"buffers":[{"byteLength":674376,"uri":"postprocessing.bin"}],"cameras":[{"extensions":{"S8S_v3d_camera":{"controls":"ORBIT","enablePan":false,"moveSpeed":1.0,"orbitMaxDistance":15.0,"orbitMaxPolarAngle":1.2217304706573486,"orbitMaxZoom":100.0,"orbitMinDistance":5.0,"orbitMinPolarAngle":0.0,"orbitMinZoom":0.009999999776482582,"orbitTarget":[0.0,0.0,-0.0],"rotateSpeed":1.0,"viewportFitInitialAspect":1.7777777777777777,"viewportFitType":"AUTO"}},"name":"Camera","perspective":{"aspectRatio":1.7777777777777777,"yfov":0.5033799372418416,"zfar":100.0,"znear":0.10000000149011612},"type":"perspective"}],"extensionsUsed":["S8S_v3d_texture","S8S_v3d_materials","S8S_v3d_camera","S8S_v3d_mesh","S8S_v3d_node","S8S_v3d_animation","S8S_v3d_scene"],"images":[{"uri":"environment.hdr"}],"materials":[{"extensions":{"S8S_v3d_materials":{"gtaoVisible":true,"materialIndex":0,"nodeGraph":{"edges":[{"fromNode":0,"fromOutput":0,"toInput":4,"toNode":8},{"fromNode":1,"fromOutput":0,"toInput":0,"toNode":8},{"fromNode":8,"fromOutput":0,"toInput":0,"toNode":7},{"fromNode":3,"fromOutput":0,"toInput":1,"toNode":6},{"fromNode":5,"fromOutput":1,"toInput":0,"toNode":6},{"fromNode":4,"fromOutput":0,"toInput":0,"toNode":5},{"fromNode":6,"fromOutput":0,"toInput":0,"toNode":2},{"fromNode":7,"fromOutput":0,"toInput":2,"toNode":6},{"fromNode":8,"fromOutput":0,"toInput":25,"toNode":7}],"nodes":[{"colorLayer":"Color","inputs":[],"is_active_output":false,"name":"Color Attribute","outputs":[[0.0,0.0,0.0,0.0],0.0],"type":"VERTEX_COLOR_BL"},{"inputs":[],"is_active_output":false,"name":"Value","outputs":[0.0],"type":"VALUE_BL"},{"inputs":[[0,0,0,0],[0,0,0,0],[0.0,0.0,0.0],0.0],"is_active_output":true,"name":"Material Output","outputs":[],"type":"OUTPUT_MATERIAL_BL"},{"inputs":[[0.0,0.0,0.0,1.0],0.0,[0.0,0.0,0.0]],"is_active_output":false,"name":"Diffuse BSDF","outputs":[[0,0,0,0]],"type":"BSDF_DIFFUSE_BL"},{"inputs":[],"is_active_output":false,"name":"UV Map","outputs":[[0.0,0.0,0.0]],"type":"UVMAP_BL","uvLayer":"UVMap"},{"gradientType":"QUADRATIC_SPHERE","inputs":[[0.0,0.0,0.0]],"is_active_output":false,"name":"Gradient Texture","outputs":[[0.0,0.0,0.0,0.0],0.0],"type":"TEX_GRADIENT_BL"},{"inputs":[0.5,[0,0,0,0],[0,0,0,0]],"is_active_output":false,"name":"Mix Shader","outputs":[[0,0,0,0]],"type":"MIX_SHADER_BL"},{"inputs":[[0.800000011920929,0.800000011920929,0.800000011920929,1.0],0.0,0.3954545557498932,1.4500000476837158,1.0,[0.0,0.0,0.0],0.0,[1.0,0.20000000298023224,0.10000000149011612],0.05000000074505806,1.399999976158142,0.0,0.5,[1.0,1.0,1.0,1.0],0.0,0.0,[0.0,0.0,0.0],0.0,0.0,0.029999999329447746,1.5,[1.0,1.0,1.0,1.0],[0.0,0.0,0.0],0.0,0.5,[1.0,1.0,1.0,1.0],[0.0,0.0,0.0,1.0],2.0],"is_active_output":false,"name":"Principled BSDF","outputs":[[0,0,0,0]],"type":"BSDF_PRINCIPLED_BL"},{"inputs":[0.0,1.0,1.0,1.0,[0.800000011920929,0.800000011920929,0.800000011920929,1.0]],"is_active_output":false,"name":"Hue Saturation Value","outputs":[[0.0,0.0,0.0,0.0]],"type":"HUE_SAT_BL"}]},"useCastShadows":true}},"name":"floor"},{"extensions":{"S8S_v3d_materials":{"gtaoVisible":true,"materialIndex":0,"nodeGraph":{"edges":[{"fromNode":0,"fromOutput":0,"toInput":0,"toNode":1}],"nodes":[{"inputs":[[0.8000000715255737,0.2564379572868347,0.03063000924885273,1.0],0.0,0.5,1.4500000476837158,1.0,[0.0,0.0,0.0],0.0,[1.0,0.20000000298023224,0.10000000149011612],0.05000000074505806,1.399999976158142,0.0,0.5,[1.0,1.0,1.0,1.0],0.0,0.0,[0.0,0.0,0.0],0.0,0.0,0.029999999329447746,1.5,[1.0,1.0,1.0,1.0],[0.0,0.0,0.0],0.0,0.5,[1.0,1.0,1.0,1.0],[0.7991029620170593,0.25818291306495667,0.03071345016360283,1.0],3.0],"is_active_output":false,"name":"Principled BSDF","outputs":[[0,0,0,0]],"type":"BSDF_PRINCIPLED_BL"},{"inputs":[[0,0,0,0],[0,0,0,0],[0.0,0.0,0.0],0.0],"is_active_output":true,"name":"Material Output","outputs":[],"type":"OUTPUT_MATERIAL_BL"}]},"useCastShadows":true}},"name":"Material"},{"extensions":{"S8S_v3d_materials":{"gtaoVisible":true,"materialIndex":0,"nodeGraph":{"edges":[{"fromNode":0,"fromOutput":0,"toInput":0,"toNode":1}],"nodes":[{"inputs":[[0.8000000715255737,0.11059247702360153,0.35210487246513367,1.0],0.0,0.5,1.4500000476837158,1.0,[0.0,0.0,0.0],0.0,[1.0,0.20000000298023224,0.10000000149011612],0.05000000074505806,1.399999976158142,0.0,0.5,[1.0,1.0,1.0,1.0],0.0,0.0,[0.0,0.0,0.0],0.0,0.0,0.029999999329447746,1.5,[1.0,1.0,1.0,1.0],[0.0,0.0,0.0],0.0,0.5,[1.0,1.0,1.0,1.0],[0.0,0.0,0.0,1.0],1.0],"is_active_output":false,"name":"Principled BSDF","outputs":[[0,0,0,0]],"type":"BSDF_PRINCIPLED_BL"},{"inputs":[[0,0,0,0],[0,0,0,0],[0.0,0.0,0.0],0.0],"is_active_output":true,"name":"Material Output","outputs":[],"type":"OUTPUT_MATERIAL_BL"}]},"useCastShadows":true}},"name":"Material.001"},{"extensions":{"S8S_v3d_materials":{"gtaoVisible":true,"materialIndex":0,"nodeGraph":{"edges":[{"fromNode":0,"fromOutput":0,"toInput":0,"toNode":1}],"nodes":[{"inputs":[[0.2572365403175354,0.8000000715255737,0.05232777073979378,1.0],0.0,0.5,1.4500000476837158,1.0,[0.0,0.0,0.0],0.0,[1.0,0.20000000298023224,0.10000000149011612],0.05000000074505806,1.399999976158142,0.0,0.5,[1.0,1.0,1.0,1.0],0.0,0.0,[0.0,0.0,0.0],0.0,0.0,0.029999999329447746,1.5,[1.0,1.0,1.0,1.0],[0.0,0.0,0.0],0.0,0.5,[1.0,1.0,1.0,1.0],[0.0,0.0,0.0,1.0],1.0],"is_active_output":false,"name":"Principled BSDF","outputs":[[0,0,0,0]],"type":"BSDF_PRINCIPLED_BL"},{"inputs":[[0,0,0,0],[0,0,0,0],[0.0,0.0,0.0],0.0],"is_active_output":true,"name":"Material Output","outputs":[],"type":"OUTPUT_MATERIAL_BL"}]},"useCastShadows":true}},"name":"Material.002"},{"extensions":{"S8S_v3d_materials":{"gtaoVisible":true,"materialIndex":0,"nodeGraph":{"edges":[{"fromNode":0,"fromOutput":0,"toInput":0,"toNode":1}],"nodes":[{"inputs":[[0.12383470684289932,0.24985277652740479,0.8000000715255737,1.0],0.0,0.5,1.4500000476837158,1.0,[0.0,0.0,0.0],0.0,[1.0,0.20000000298023224,0.10000000149011612],0.05000000074505806,1.399999976158142,0.0,0.5,[1.0,1.0,1.0,1.0],0.0,0.0,[0.0,0.0,0.0],0.0,0.0,0.029999999329447746,1.5,[1.0,1.0,1.0,1.0],[0.0,0.0,0.0],0.0,0.5,[1.0,1.0,1.0,1.0],[0.0,0.0,0.0,1.0],1.0],"is_active_output":false,"name":"Principled BSDF","outputs":[[0,0,0,0]],"type":"BSDF_PRINCIPLED_BL"},{"inputs":[[0,0,0,0],[0,0,0,0],[0.0,0.0,0.0],0.0],"is_active_output":true,"name":"Material Output","outputs":[],"type":"OUTPUT_MATERIAL_BL"}]},"useCastShadows":true}},"name":"Material.003"},{"extensions":{"S8S_v3d_materials":{"gtaoVisible":true,"materialIndex":0,"nodeGraph":{"edges":[{"fromNode":0,"fromOutput":0,"toInput":0,"toNode":1}],"nodes":[{"inputs":[[0.12529562413692474,0.7577974200248718,0.8000000715255737,1.0],0.0,0.5,1.4500000476837158,1.0,[0.0,0.0,0.0],0.0,[1.0,0.20000000298023224,0.10000000149011612],0.05000000074505806,1.399999976158142,0.0,0.5,[1.0,1.0,1.0,1.0],0.0,0.0,[0.0,0.0,0.0],0.0,0.0,0.029999999329447746,1.5,[1.0,1.0,1.0,1.0],[0.0,0.0,0.0],0.0,0.5,[1.0,1.0,1.0,1.0],[0.1247718334197998,0.7605247497558594,0.7991029620170593,1.0],4.0],"is_active_output":false,"name":"Principled BSDF","outputs":[[0,0,0,0]],"type":"BSDF_PRINCIPLED_BL"},{"inputs":[[0,0,0,0],[0,0,0,0],[0.0,0.0,0.0],0.0],"is_active_output":true,"name":"Material Output","outputs":[],"type":"OUTPUT_MATERIAL_BL"}]},"useCastShadows":true}},"name":"Material.004"},{"extensions":{"S8S_v3d_materials":{"gtaoVisible":true,"materialIndex":0,"nodeGraph":{"edges":[{"fromNode":0,"fromOutput":0,"toInput":0,"toNode":1}],"nodes":[{"inputs":[[0.8000000715255737,0.6278716325759888,0.03716554492712021,1.0],0.0,0.5,1.4500000476837158,1.0,[0.0,0.0,0.0],0.0,[1.0,0.20000000298023224,0.10000000149011612],0.05000000074505806,1.399999976158142,0.0,0.5,[1.0,1.0,1.0,1.0],0.0,0.0,[0.0,0.0,0.0],0.0,0.0,0.029999999329447746,1.5,[1.0,1.0,1.0,1.0],[0.0,0.0,0.0],0.0,0.5,[1.0,1.0,1.0,1.0],[0.0,0.0,0.0,1.0],1.0],"is_active_output":false,"name":"Principled BSDF","outputs":[[0,0,0,0]],"type":"BSDF_PRINCIPLED_BL"},{"inputs":[[0,0,0,0],[0,0,0,0],[0.0,0.0,0.0],0.0],"is_active_output":true,"name":"Material Output","outputs":[],"type":"OUTPUT_MATERIAL_BL"}]},"useCastShadows":true}},"name":"Material.005"},{"extensions":{"S8S_v3d_materials":{"gtaoVisible":true,"materialIndex":0,"nodeGraph":{"edges":[{"fromNode":0,"fromOutput":0,"toInput":0,"toNode":1}],"nodes":[{"inputs":[[0.1421559751033783,0.8000000715255737,0.3919336199760437,1.0],0.0,0.5,1.4500000476837158,1.0,[0.0,0.0,0.0],0.0,[1.0,0.20000000298023224,0.10000000149011612],0.05000000074505806,1.399999976158142,0.0,0.5,[1.0,1.0,1.0,1.0],0.0,0.0,[0.0,0.0,0.0],0.0,0.0,0.029999999329447746,1.5,[1.0,1.0,1.0,1.0],[0.0,0.0,0.0],0.0,0.5,[1.0,1.0,1.0,1.0],[0.0,0.0,0.0,1.0],1.0],"is_active_output":false,"name":"Principled BSDF","outputs":[[0,0,0,0]],"type":"BSDF_PRINCIPLED_BL"},{"inputs":[[0,0,0,0],[0,0,0,0],[0.0,0.0,0.0],0.0],"is_active_output":true,"name":"Material Output","outputs":[],"type":"OUTPUT_MATERIAL_BL"}]},"useCastShadows":true}},"name":"Material.006"},{"extensions":{"S8S_v3d_materials":{"gtaoVisible":true,"materialIndex":0,"nodeGraph":{"edges":[{"fromNode":0,"fromOutput":0,"toInput":0,"toNode":1}],"nodes":[{"inputs":[[0.4207339882850647,0.08658703416585922,0.8000000715255737,1.0],0.0,0.5,1.4500000476837158,1.0,[0.0,0.0,0.0],0.0,[1.0,0.20000000298023224,0.10000000149011612],0.05000000074505806,1.399999976158142,0.0,0.5,[1.0,1.0,1.0,1.0],0.0,0.0,[0.0,0.0,0.0],0.0,0.0,0.029999999329447746,1.5,[1.0,1.0,1.0,1.0],[0.0,0.0,0.0],0.0,0.5,[1.0,1.0,1.0,1.0],[0.0,0.0,0.0,1.0],1.0],"is_active_output":false,"name":"Principled BSDF","outputs":[[0,0,0,0]],"type":"BSDF_PRINCIPLED_BL"},{"inputs":[[0,0,0,0],[0,0,0,0],[0.0,0.0,0.0],0.0],"is_active_output":true,"name":"Material Output","outputs":[],"type":"OUTPUT_MATERIAL_BL"}]},"useCastShadows":true}},"name":"Material.007"},{"extensions":{"S8S_v3d_materials":{"gtaoVisible":true,"materialIndex":0,"nodeGraph":{"edges":[{"fromNode":0,"fromOutput":0,"toInput":0,"toNode":1}],"nodes":[{"inputs":[[0.4489203691482544,0.46427780389785767,0.8000000715255737,1.0],0.0,0.5,1.4500000476837158,1.0,[0.0,0.0,0.0],0.0,[1.0,0.20000000298023224,0.10000000149011612],0.05000000074505806,1.399999976158142,0.0,0.5,[1.0,1.0,1.0,1.0],0.0,0.0,[0.0,0.0,0.0],0.0,0.0,0.029999999329447746,1.5,[1.0,1.0,1.0,1.0],[0.0,0.0,0.0],0.0,0.5,[1.0,1.0,1.0,1.0],[0.0,0.0,0.0,1.0],1.0],"is_active_output":false,"name":"Principled BSDF","outputs":[[0,0,0,0]],"type":"BSDF_PRINCIPLED_BL"},{"inputs":[[0,0,0,0],[0,0,0,0],[0.0,0.0,0.0],0.0],"is_active_output":true,"name":"Material Output","outputs":[],"type":"OUTPUT_MATERIAL_BL"}]},"useCastShadows":true}},"name":"Material.008"},{"extensions":{"S8S_v3d_materials":{"gtaoVisible":true,"materialIndex":0,"nodeGraph":{"edges":[{"fromNode":0,"fromOutput":0,"toInput":0,"toNode":1}],"nodes":[{"inputs":[[0.8000000715255737,0.025015531107783318,0.023164477199316025,1.0],0.0,0.5,1.4500000476837158,1.0,[0.0,0.0,0.0],0.0,[1.0,0.20000000298023224,0.10000000149011612],0.05000000074505806,1.399999976158142,0.0,0.5,[1.0,1.0,1.0,1.0],0.0,0.0,[0.0,0.0,0.0],0.0,0.0,0.029999999329447746,1.5,[1.0,1.0,1.0,1.0],[0.0,0.0,0.0],0.0,0.5,[1.0,1.0,1.0,1.0],[0.0,0.0,0.0,1.0],1.0],"is_active_output":false,"name":"Principled BSDF","outputs":[[0,0,0,0]],"type":"BSDF_PRINCIPLED_BL"},{"inputs":[[0,0,0,0],[0,0,0,0],[0.0,0.0,0.0],0.0],"is_active_output":true,"name":"Material Output","outputs":[],"type":"OUTPUT_MATERIAL_BL"}]},"useCastShadows":true}},"name":"Material.009"},{"extensions":{"S8S_v3d_materials":{"gtaoVisible":true,"materialIndex":0,"nodeGraph":{"edges":[{"fromNode":0,"fromOutput":0,"toInput":0,"toNode":1}],"nodes":[{"inputs":[[0.018033228814601898,0.10912763327360153,0.8000000715255737,1.0],0.0,0.5,1.4500000476837158,1.0,[0.0,0.0,0.0],0.0,[1.0,0.20000000298023224,0.10000000149011612],0.05000000074505806,1.399999976158142,0.0,0.5,[1.0,1.0,1.0,1.0],0.0,0.0,[0.0,0.0,0.0],0.0,0.0,0.029999999329447746,1.5,[1.0,1.0,1.0,1.0],[0.0,0.0,0.0],0.0,0.5,[1.0,1.0,1.0,1.0],[0.0,0.0,0.0,1.0],1.0],"is_active_output":false,"name":"Principled BSDF","outputs":[[0,0,0,0]],"type":"BSDF_PRINCIPLED_BL"},{"inputs":[[0,0,0,0],[0,0,0,0],[0.0,0.0,0.0],0.0],"is_active_output":true,"name":"Material Output","outputs":[],"type":"OUTPUT_MATERIAL_BL"}]},"useCastShadows":true}},"name":"Material.010"},{"extensions":{"S8S_v3d_materials":{"gtaoVisible":true,"materialIndex":0,"nodeGraph":{"edges":[{"fromNode":0,"fromOutput":0,"toInput":0,"toNode":1}],"nodes":[{"inputs":[[0.025329764932394028,0.3230690062046051,0.001675661071203649,1.0],0.0,0.5,1.4500000476837158,1.0,[0.0,0.0,0.0],0.0,[1.0,0.20000000298023224,0.10000000149011612],0.05000000074505806,1.399999976158142,0.0,0.5,[1.0,1.0,1.0,1.0],0.0,0.0,[0.0,0.0,0.0],0.0,0.0,0.029999999329447746,1.5,[1.0,1.0,1.0,1.0],[0.0,0.0,0.0],0.0,0.5,[1.0,1.0,1.0,1.0],[0.0,0.0,0.0,1.0],1.0],"is_active_output":false,"name":"Principled BSDF","outputs":[[0,0,0,0]],"type":"BSDF_PRINCIPLED_BL"},{"inputs":[[0,0,0,0],[0,0,0,0],[0.0,0.0,0.0],0.0],"is_active_output":true,"name":"Material Output","outputs":[],"type":"OUTPUT_MATERIAL_BL"}]},"useCastShadows":true}},"name":"Material.011"},{"extensions":{"S8S_v3d_materials":{"gtaoVisible":true,"materialIndex":0,"nodeGraph":{"edges":[{"fromNode":0,"fromOutput":0,"toInput":0,"toNode":1}],"nodes":[{"inputs":[[0.3634589910507202,0.1664828509092331,0.02801104448735714,1.0],0.0,0.5,1.4500000476837158,1.0,[0.0,0.0,0.0],0.0,[1.0,0.20000000298023224,0.10000000149011612],0.05000000074505806,1.399999976158142,0.0,0.5,[1.0,1.0,1.0,1.0],0.0,0.0,[0.0,0.0,0.0],0.0,0.0,0.029999999329447746,1.5,[1.0,1.0,1.0,1.0],[0.0,0.0,0.0],0.0,0.5,[1.0,1.0,1.0,1.0],[0.0,0.0,0.0,1.0],1.0],"is_active_output":false,"name":"Principled BSDF","outputs":[[0,0,0,0]],"type":"BSDF_PRINCIPLED_BL"},{"inputs":[[0,0,0,0],[0,0,0,0],[0.0,0.0,0.0],0.0],"is_active_output":true,"name":"Material Output","outputs":[],"type":"OUTPUT_MATERIAL_BL"}]},"useCastShadows":true}},"name":"Material.012"},{"extensions":{"S8S_v3d_materials":{"gtaoVisible":true,"materialIndex":0,"nodeGraph":{"edges":[{"fromNode":0,"fromOutput":0,"toInput":0,"toNode":1}],"nodes":[{"inputs":[[0.02835591696202755,0.15472421050071716,0.1420394331216812,1.0],0.0,0.5,1.4500000476837158,1.0,[0.0,0.0,0.0],0.0,[1.0,0.20000000298023224,0.10000000149011612],0.05000000074505806,1.399999976158142,0.0,0.5,[1.0,1.0,1.0,1.0],0.0,0.0,[0.0,0.0,0.0],0.0,0.0,0.029999999329447746,1.5,[1.0,1.0,1.0,1.0],[0.0,0.0,0.0],0.0,0.5,[1.0,1.0,1.0,1.0],[0.0,0.0,0.0,1.0],1.0],"is_active_output":false,"name":"Principled BSDF","outputs":[[0,0,0,0]],"type":"BSDF_PRINCIPLED_BL"},{"inputs":[[0,0,0,0],[0,0,0,0],[0.0,0.0,0.0],0.0],"is_active_output":true,"name":"Material Output","outputs":[],"type":"OUTPUT_MATERIAL_BL"}]},"useCastShadows":true}},"name":"Material.013"},{"extensions":{"S8S_v3d_materials":{"gtaoVisible":true,"materialIndex":0,"nodeGraph":{"edges":[{"fromNode":0,"fromOutput":0,"toInput":0,"toNode":1}],"nodes":[{"inputs":[[0.26761728525161743,0.028097767382860184,0.029352063313126564,1.0],0.0,0.5,1.4500000476837158,1.0,[0.0,0.0,0.0],0.0,[1.0,0.20000000298023224,0.10000000149011612],0.05000000074505806,1.399999976158142,0.0,0.5,[1.0,1.0,1.0,1.0],0.0,0.0,[0.0,0.0,0.0],0.0,0.0,0.029999999329447746,1.5,[1.0,1.0,1.0,1.0],[0.0,0.0,0.0],0.0,0.5,[1.0,1.0,1.0,1.0],[0.0,0.0,0.0,1.0],1.0],"is_active_output":false,"name":"Principled BSDF","outputs":[[0,0,0,0]],"type":"BSDF_PRINCIPLED_BL"},{"inputs":[[0,0,0,0],[0,0,0,0],[0.0,0.0,0.0],0.0],"is_active_output":true,"name":"Material Output","outputs":[],"type":"OUTPUT_MATERIAL_BL"}]},"useCastShadows":true}},"name":"Material.014"},{"extensions":{"S8S_v3d_materials":{"gtaoVisible":true,"materialIndex":0,"nodeGraph":{"edges":[{"fromNode":0,"fromOutput":0,"toInput":0,"toNode":1}],"nodes":[{"inputs":[[1.0,1.0,1.0,1.0],0.0,0.5,1.4500000476837158,1.0,[0.0,0.0,0.0],0.0,[1.0,0.20000000298023224,0.10000000149011612],0.05000000074505806,1.399999976158142,0.0,0.5,[1.0,1.0,1.0,1.0],0.0,0.0,[0.0,0.0,0.0],0.0,0.0,0.029999999329447746,1.5,[1.0,1.0,1.0,1.0],[0.0,0.0,0.0],0.0,0.5,[1.0,1.0,1.0,1.0],[1.0,1.0,1.0,1.0],5.0],"is_active_output":false,"name":"Principled BSDF","outputs":[[0,0,0,0]],"type":"BSDF_PRINCIPLED_BL"},{"inputs":[[0,0,0,0],[0,0,0,0],[0.0,0.0,0.0],0.0],"is_active_output":true,"name":"Material Output","outputs":[],"type":"OUTPUT_MATERIAL_BL"}]},"useCastShadows":true}},"name":"Material.015"},{"extensions":{"S8S_v3d_materials":{"gtaoVisible":true,"materialIndex":0,"nodeGraph":{"edges":[{"fromNode":1,"fromOutput":0,"toInput":0,"toNode":0},{"fromNode":3,"fromOutput":2,"toInput":0,"toNode":1},{"fromNode":2,"fromOutput":0,"toInput":0,"toNode":3},{"fromNode":4,"fromOutput":0,"toInput":6,"toNode":3}],"nodes":[{"inputs":[[0,0,0,0],[0,0,0,0]],"is_active_output":true,"name":"World Output","outputs":[],"type":"OUTPUT_WORLD_BL"},{"inputs":[[0.05087608844041824,0.05087608844041824,0.05087608844041824,1.0],1.0],"is_active_output":false,"name":"Background","outputs":[[0,0,0,0]],"type":"BACKGROUND_BL"},{"inputs":[],"is_active_output":false,"name":"Light Path","outputs":[0.0,0.0,0.0,0.0,0.0,0.0,0.0,0.0,0.0,0.0,0.0,0.0,0.0],"type":"LIGHT_PATH_BL"},{"blendType":"MIX","clampFactor":true,"clampResult":false,"dataType":"RGBA","factorMode":"UNIFORM","inputs":[0.5,[0.5,0.5,0.5],0.0,0.0,[0.0,0.0,0.0],[0.0,0.0,0.0],[0.0,0.0,0.0,1.0],[0.0,0.0,0.0,1.0],0,0],"is_active_output":false,"name":"Mix","outputs":[0.0,[0.0,0.0,0.0],[0.0,0.0,0.0,0.0],0],"type":"MIX_BL"},{"inputs":[[0.0,0.0,0.0]],"is_active_output":false,"name":"Environment Texture","outputs":[[0.0,0.0,0.0,0.0]],"projection":"EQUIRECTANGULAR","texture":0,"type":"TEX_ENVIRONMENT_BL"}]},"useCastShadows":true}},"name":"Verge3D_Environment_World"}],"meshes":[{"extensions":{"S8S_v3d_mesh":{"colorLayers":{},"uvLayers":{"UVMap":"TEXCOORD_0"}}},"name":"Cube.001","primitives":[{"attributes":{"NORMAL":2,"POSITION":1,"TEXCOORD_0":3},"indices":0,"material":1,"mode":4}]},{"extensions":{"S8S_v3d_mesh":{"colorLayers":{},"uvLayers":{"UVMap":"TEXCOORD_0"}}},"name":"Cube.002","primitives":[{"attributes":{"NORMAL":6,"POSITION":5,"TEXCOORD_0":7},"indices":4,"material":2,"mode":4}]},{"extensions":{"S8S_v3d_mesh":{"colorLayers":{},"uvLayers":{"UVMap":"TEXCOORD_0"}}},"name":"Cube.003","primitives":[{"attributes":{"NORMAL":10,"POSITION":9,"TEXCOORD_0":11},"indices":8,"material":3,"mode":4}]},{"extensions":{"S8S_v3d_mesh":{"colorLayers":{},"uvLayers":{"UVMap":"TEXCOORD_0"}}},"name":"Cube.004","primitives":[{"attributes":{"NORMAL":14,"POSITION":13,"TEXCOORD_0":15},"indices":12,"material":4,"mode":4}]},{"extensions":{"S8S_v3d_mesh":{"colorLayers":{},"uvLayers":{"UVMap":"TEXCOORD_0"}}},"name":"Cube.005","primitives":[{"attributes":{"NORMAL":18,"POSITION":17,"TEXCOORD_0":19},"indices":16,"material":5,"mode":4}]},{"extensions":{"S8S_v3d_mesh":{"colorLayers":{},"uvLayers":{"UVMap":"TEXCOORD_0"}}},"name":"Cube.006","primitives":[{"attributes":{"NORMAL":22,"POSITION":21,"TEXCOORD_0":23},"indices":20,"material":6,"mode":4}]},{"extensions":{"S8S_v3d_mesh":{"colorLayers":{},"uvLayers":{"UVMap":"TEXCOORD_0"}}},"name":"Cube.007","primitives":[{"attributes":{"NORMAL":26,"POSITION":25,"TEXCOORD_0":27},"indices":24,"material":7,"mode":4}]},{"extensions":{"S8S_v3d_mesh":{"colorLayers":{},"uvLayers":{"UVMap":"TEXCOORD_0"}}},"name":"Cube.008","primitives":[{"attributes":{"NORMAL":30,"POSITION":29,"TEXCOORD_0":31},"indices":28,"material":8,"mode":4}]},{"extensions":{"S8S_v3d_mesh":{"colorLayers":{},"uvLayers":{"UVMap":"TEXCOORD_0"}}},"name":"Cube.009","primitives":[{"attributes":{"NORMAL":34,"POSITION":33,"TEXCOORD_0":35},"indices":32,"material":9,"mode":4}]},{"extensions":{"S8S_v3d_mesh":{"colorLayers":{},"uvLayers":{"UVMap":"TEXCOORD_0"}}},"name":"Cube.010","primitives":[{"attributes":{"NORMAL":38,"POSITION":37,"TEXCOORD_0":39},"indices":36,"material":10,"mode":4}]},{"extensions":{"S8S_v3d_mesh":{"colorLayers":{},"uvLayers":{"UVMap":"TEXCOORD_0"}}},"name":"Cube.011","primitives":[{"attributes":{"NORMAL":42,"POSITION":41,"TEXCOORD_0":43},"indices":40,"material":11,"mode":4}]},{"extensions":{"S8S_v3d_mesh":{"colorLayers":{},"uvLayers":{"UVMap":"TEXCOORD_0"}}},"name":"Cube.012","primitives":[{"attributes":{"NORMAL":46,"POSITION":45,"TEXCOORD_0":47},"indices":44,"material":12,"mode":4}]},{"extensions":{"S8S_v3d_mesh":{"colorLayers":{},"uvLayers":{"UVMap":"TEXCOORD_0"}}},"name":"Cube.013","primitives":[{"attributes":{"NORMAL":50,"POSITION":49,"TEXCOORD_0":51},"indices":48,"material":13,"mode":4}]},{"extensions":{"S8S_v3d_mesh":{"colorLayers":{},"uvLayers":{"UVMap":"TEXCOORD_0"}}},"name":"Cube.014","primitives":[{"attributes":{"NORMAL":54,"POSITION":53,"TEXCOORD_0":55},"indices":52,"material":14,"mode":4}]},{"extensions":{"S8S_v3d_mesh":{"colorLayers":{},"uvLayers":{"UVMap":"TEXCOORD_0"}}},"name":"Cube.015","primitives":[{"attributes":{"NORMAL":58,"POSITION":57,"TEXCOORD_0":59},"indices":56,"material":15,"mode":4}]},{"extensions":{"S8S_v3d_mesh":{"colorLayers":{},"uvLayers":{"UVMap":"TEXCOORD_0"}}},"name":"Cube.016","primitives":[{"attributes":{"NORMAL":62,"POSITION":61,"TEXCOORD_0":63},"indices":60,"material":16,"mode":4}]},{"extensions":{"S8S_v3d_mesh":{"colorLayers":{"Color":"COLOR_0"},"uvLayers":{"UVMap":"TEXCOORD_0"}}},"name":"Plane.012","primitives":[{"attributes":{"COLOR_0":68,"NORMAL":66,"POSITION":65,"TEXCOORD_0":67},"indices":64,"material":0,"mode":4}]}],"nodes":[{"extensions":{"S8S_v3d_node":{"frustumCulling":true,"groupNames":[],"hidden":false,"hidpiCompositing":false,"objectColor":[1.0,1.0,1.0,1.0],"objectIndex":0,"renderOrder":0,"useShadows":true}},"mesh":0,"name":"Cube","translation":[0.5,0.0,-0.5]},{"extensions":{"S8S_v3d_node":{"frustumCulling":true,"groupNames":[],"hidden":false,"hidpiCompositing":false,"objectColor":[1.0,1.0,1.0,1.0],"objectIndex":0,"renderOrder":0,"useShadows":true}},"mesh":2,"name":"Cube.002","translation":[0.5,0.0,0.5]},{"extensions":{"S8S_v3d_node":{"frustumCulling":true,"groupNames":[],"hidden":false,"hidpiCompositing":false,"objectColor":[1.0,1.0,1.0,1.0],"objectIndex":0,"renderOrder":0,"useShadows":true}},"mesh":3,"name":"Cube.003","translation":[-0.5,0.0,0.5]},{"extensions":{"S8S_v3d_node":{"frustumCulling":true,"groupNames":[],"hidden":false,"hidpiCompositing":false,"objectColor":[1.0,1.0,1.0,1.0],"objectIndex":0,"renderOrder":0,"useShadows":true}},"mesh":1,"name":"Cube.001","translation":[-0.5,0.0,-0.5]},{"extensions":{"S8S_v3d_node":{"frustumCulling":true,"groupNames":[],"hidden":false,"hidpiCompositing":false,"objectColor":[1.0,1.0,1.0,1.0],"objectIndex":0,"renderOrder":0,"useShadows":true}},"mesh":4,"name":"Cube.004","translation":[-1.5,0.0,-0.5]},{"extensions":{"S8S_v3d_node":{"frustumCulling":true,"groupNames":[],"hidden":false,"hidpiCompositing":false,"objectColor":[1.0,1.0,1.0,1.0],"objectIndex":0,"renderOrder":0,"useShadows":true}},"mesh":5,"name":"Cube.005","translation":[-1.5,0.0,0.5]},{"extensions":{"S8S_v3d_node":{"frustumCulling":true,"groupNames":[],"hidden":false,"hidpiCompositing":false,"objectColor":[1.0,1.0,1.0,1.0],"objectIndex":0,"renderOrder":0,"useShadows":true}},"mesh":6,"name":"Cube.006","translation":[1.5,0.0,-0.5]},{"extensions":{"S8S_v3d_node":{"frustumCulling":true,"groupNames":[],"hidden":false,"hidpiCompositing":false,"objectColor":[1.0,1.0,1.0,1.0],"objectIndex":0,"renderOrder":0,"useShadows":true}},"mesh":7,"name":"Cube.007","translation":[1.5,0.0,0.5]},{"extensions":{"S8S_v3d_node":{"frustumCulling":true,"groupNames":[],"hidden":false,"hidpiCompositing":false,"objectColor":[1.0,1.0,1.0,1.0],"objectIndex":0,"renderOrder":0,"useShadows":true}},"mesh":8,"name":"Cube.008","translation":[0.5,0.0,-1.5]},{"extensions":{"S8S_v3d_node":{"frustumCulling":true,"groupNames":[],"hidden":false,"hidpiCompositing":false,"objectColor":[1.0,1.0,1.0,1.0],"objectIndex":0,"renderOrder":0,"useShadows":true}},"mesh":9,"name":"Cube.009","translation":[-0.5,0.0,-1.5]},{"extensions":{"S8S_v3d_node":{"frustumCulling":true,"groupNames":[],"hidden":false,"hidpiCompositing":false,"objectColor":[1.0,1.0,1.0,1.0],"objectIndex":0,"renderOrder":0,"useShadows":true}},"mesh":13,"name":"Cube.013","translation":[-0.5,0.0,1.5]},{"extensions":{"S8S_v3d_node":{"frustumCulling":true,"groupNames":[],"hidden":false,"hidpiCompositing":false,"objectColor":[1.0,1.0,1.0,1.0],"objectIndex":0,"renderOrder":0,"useShadows":true}},"mesh":14,"name":"Cube.014","translation":[-1.5,0.0,1.5]},{"extensions":{"S8S_v3d_node":{"frustumCulling":true,"groupNames":[],"hidden":false,"hidpiCompositing":false,"objectColor":[1.0,1.0,1.0,1.0],"objectIndex":0,"renderOrder":0,"useShadows":true}},"mesh":15,"name":"Cube.015","translation":[1.5,0.0,1.5]},{"extensions":{"S8S_v3d_node":{"frustumCulling":true,"groupNames":[],"hidden":false,"hidpiCompositing":false,"objectColor":[1.0,1.0,1.0,1.0],"objectIndex":0,"renderOrder":0,"useShadows":true}},"mesh":16,"name":"floor","scale":[3.0,4.0,3.0],"translation":[-18.0,-0.5,-18.0]},{"camera":0,"extensions":{"S8S_v3d_node":{"frustumCulling":true,"groupNames":["Collection 1"],"hidden":false,"hidpiCompositing":false,"objectColor":[0.0,0.0,0.0,0.0],"objectIndex":0,"renderOrder":0}},"name":"Camera","rotation":[-0.21492888033390045,0.3809299170970917,0.09151817113161087,0.894607424736023],"scale":[1.0,0.9999998807907104,0.9999997615814209],"translation":[7.226052284240723,5.1113457679748535,6.946681022644043]},{"extensions":{"S8S_v3d_node":{"frustumCulling":true,"groupNames":[],"hidden":false,"hidpiCompositing":false,"objectColor":[1.0,1.0,1.0,1.0],"objectIndex":0,"renderOrder":0,"useShadows":true}},"mesh":10,"name":"Cube.010","translation":[-1.5,0.0,-1.5]},{"extensions":{"S8S_v3d_node":{"frustumCulling":true,"groupNames":[],"hidden":false,"hidpiCompositing":false,"objectColor":[1.0,1.0,1.0,1.0],"objectIndex":0,"renderOrder":0,"useShadows":true}},"mesh":11,"name":"Cube.011","translation":[1.5,0.0,-1.5]},{"extensions":{"S8S_v3d_node":{"frustumCulling":true,"groupNames":[],"hidden":false,"hidpiCompositing":false,"objectColor":[1.0,1.0,1.0,1.0],"objectIndex":0,"renderOrder":0,"useShadows":true}},"mesh":12,"name":"Cube.012","translation":[0.5,0.0,1.5]}],"samplers":[{}],"scene":0,"scenes":[{"extensions":{"S8S_v3d_scene":{"aaMethod":"AUTO","iblEnvironmentMode":"PMREM","physicallyCorrectLights":true,"pmremMaxTileSize":512,"postprocessing":[{"edgeGlow":0.0,"edgeStrength":3.0,"edgeThickness":1.0,"hiddenEdgeColor":[0.10000000149011612,0.10000000149011612,0.10000000149011612,1.0],"pulsePeriod":0.0,"renderHiddenEdge":true,"type":"outline","visibleEdgeColor":[1.0,1.0,1.0,1.0]}],"shadowMap":{"esmDistanceScale":1.0,"renderReverseSided":false,"renderSingleSided":true,"type":"PCFPOISSON"},"useHDR":true,"worldMaterial":17}},"extras":{"animFrameRate":24,"coordSystem":"Z_UP_RIGHT"},"name":"Scene","nodes":[0,3,1,2,4,5,6,7,8,9,15,16,17,10,11,12,13,14]}],"textures":[{"extensions":{"S8S_v3d_texture":{"colorSpace":"linear rec.709","source":0}},"name":"environment.hdr","sampler":0}]}
