{"accessors":[{"bufferView":0,"componentType":5123,"count":7272,"max":[1739],"min":[0],"type":"SCALAR"},{"bufferView":1,"componentType":5126,"count":1740,"max":[6.55532693862915,0.42613133788108826,1.1861236095428467],"min":[-0.4261314570903778,-3.2835001945495605,-3.358924150466919],"type":"VEC3"},{"bufferView":2,"componentType":5126,"count":1740,"max":[1.0,1.0,1.0],"min":[-1.0,-1.0,-1.0],"type":"VEC3"},{"bufferView":3,"componentType":5126,"count":1740,"max":[0.0,1.0],"min":[0.0,1.0],"type":"VEC2"},{"bufferView":4,"componentType":5123,"count":4992,"max":[1087],"min":[0],"type":"SCALAR"},{"bufferView":5,"componentType":5126,"count":1088,"max":[0.38678795099258423,0.3867877125740051,-0.25506943464279175],"min":[-0.3867878019809723,-0.3867880702018738,-3.193033218383789],"type":"VEC3"},{"bufferView":6,"componentType":5126,"count":1088,"max":[1.0,1.0,1.0],"min":[-1.0,-1.0,-1.0],"type":"VEC3"},{"bufferView":7,"componentType":5126,"count":1088,"max":[0.0,1.0],"min":[0.0,1.0],"type":"VEC2"},{"bufferView":8,"componentType":5123,"count":7134,"max":[2560],"min":[0],"type":"SCALAR"},{"bufferView":9,"componentType":5126,"count":2561,"max":[0.7743569016456604,0.7732067108154297,2.2625045776367188],"min":[-0.761214554309845,-0.7623647451400757,-1.8940794467926025],"type":"VEC3"},{"bufferView":10,"componentType":5126,"count":2561,"max":[1.0,1.0,1.0],"min":[-1.0,-1.0,-1.0],"type":"VEC3"},{"bufferView":11,"componentType":5126,"count":2561,"max":[3.997297525405884,1.4033830165863037],"min":[0.0,0.1440035104751587],"type":"VEC2"},{"bufferView":12,"componentType":5123,"count":792,"max":[319],"min":[0],"type":"SCALAR"},{"bufferView":13,"componentType":5126,"count":320,"max":[0.8032321333885193,0.8032321929931641,0.09448422491550446],"min":[-0.8032320737838745,-0.8032321333885193,-0.08385758101940155],"type":"VEC3"},{"bufferView":14,"componentType":5126,"count":320,"max":[1.0,1.0,1.0],"min":[-1.0,-1.0,-1.0],"type":"VEC3"},{"bufferView":15,"componentType":5126,"count":320,"max":[1.0,1.0],"min":[0.0,0.0],"type":"VEC2"},{"bufferView":16,"componentType":5121,"count":15,"max":[6],"min":[0],"type":"SCALAR"},{"bufferView":17,"componentType":5126,"count":7,"max":[4.865926742553711,2.2928949795146363e-14,1.6134812831878662],"min":[0.0,-2.2928949795146363e-14,-1.6134812831878662],"type":"VEC3"},{"bufferView":18,"componentType":5126,"count":7,"max":[0.0,1.0,-1.4210854715202004e-14],"min":[0.0,1.0,-1.4210854715202004e-14],"type":"VEC3"},{"bufferView":19,"componentType":5126,"count":7,"max":[1.0,1.0],"min":[0.0,0.0],"type":"VEC2"},{"bufferView":20,"componentType":5121,"count":15,"max":[6],"min":[0],"type":"SCALAR"},{"bufferView":21,"componentType":5126,"count":7,"max":[4.865926742553711,1.1464474897573181e-14,1.6134812831878662],"min":[0.0,-1.1464474897573181e-14,-1.6134812831878662],"type":"VEC3"},{"bufferView":22,"componentType":5126,"count":7,"max":[0.0,1.0,7.105427357601002e-15],"min":[0.0,1.0,7.105427357601002e-15],"type":"VEC3"},{"bufferView":23,"componentType":5126,"count":7,"max":[1.0,1.0],"min":[0.0,0.0],"type":"VEC2"},{"bufferView":24,"componentType":5123,"count":15534,"max":[4219],"min":[0],"type":"SCALAR"},{"bufferView":25,"componentType":5126,"count":4220,"max":[1.1635085344314575,2.140868663787842,2.893397331237793],"min":[-1.165079951286316,-5.210748672485352,-1.929335355758667],"type":"VEC3"},{"bufferView":26,"componentType":5126,"count":4220,"max":[1.0,1.0,1.0],"min":[-1.0,-1.0,-1.0],"type":"VEC3"},{"bufferView":27,"componentType":5126,"count":4220,"max":[1.402580976486206,1.0],"min":[0.0,-0.40258097648620605],"type":"VEC2"},{"bufferView":28,"componentType":5123,"count":22488,"max":[9895],"min":[0],"type":"SCALAR"},{"bufferView":29,"componentType":5126,"count":9896,"max":[0.9881998300552368,0.03215641528367996,0.9892448782920837],"min":[-0.9910776019096375,-0.03215671703219414,-0.9900324940681458],"type":"VEC3"},{"bufferView":30,"componentType":5126,"count":9896,"max":[1.0,1.0,1.0],"min":[-1.0,-1.0,-1.0],"type":"VEC3"},{"bufferView":31,"componentType":5126,"count":9896,"max":[0.0,1.0],"min":[0.0,1.0],"type":"VEC2"},{"bufferView":32,"componentType":5123,"count":2154,"max":[417],"min":[0],"type":"SCALAR"},{"bufferView":33,"componentType":5126,"count":418,"max":[0.4545818567276001,0.27363353967666626,0.6698160171508789],"min":[-0.4545818567276001,-2.721212148666382,-0.8066977262496948],"type":"VEC3"},{"bufferView":34,"componentType":5126,"count":418,"max":[0.9999999403953552,1.0,0.9999870657920837],"min":[-0.9999999403953552,-0.999991238117218,-0.9999839663505554],"type":"VEC3"},{"bufferView":35,"componentType":5123,"count":3456,"max":[1151],"min":[0],"type":"SCALAR"},{"bufferView":36,"componentType":5126,"count":1152,"max":[1.1642943620681763,1.164293885231018,0.10529898852109909],"min":[-1.1642941236495972,-1.1642946004867554,-0.14375260472297668],"type":"VEC3"},{"bufferView":37,"componentType":5126,"count":1152,"max":[1.0,1.0,1.0],"min":[-1.0,-1.0,-1.0],"type":"VEC3"},{"bufferView":38,"componentType":5126,"count":1152,"max":[0.0,1.0],"min":[0.0,1.0],"type":"VEC2"},{"bufferView":39,"componentType":5123,"count":936,"max":[307],"min":[0],"type":"SCALAR"},{"bufferView":40,"componentType":5126,"count":308,"max":[1.0578713417053223,0.24310803413391113,0.404909610748291],"min":[-1.0578718185424805,-0.1347428560256958,-0.40586090087890625],"type":"VEC3"},{"bufferView":41,"componentType":5126,"count":308,"max":[1.0,0.9998706579208374,1.0],"min":[-1.0,-0.9998629093170166,-1.0],"type":"VEC3"},{"bufferView":42,"componentType":5126,"count":308,"max":[1.0,1.0],"min":[0.9999999403953552,0.0],"type":"VEC2"},{"bufferView":43,"componentType":5121,"count":36,"max":[19],"min":[0],"type":"SCALAR"},{"bufferView":44,"componentType":5126,"count":20,"max":[70.37340545654297,97.57846069335938,70.37340545654297],"min":[-70.37340545654297,0.0,-70.37340545654297],"type":"VEC3"},{"bufferView":45,"componentType":5126,"count":20,"max":[0.5773502588272095,0.5773503184318542,0.5773502588272095],"min":[-0.5773502588272095,-0.5773503184318542,-0.5773502588272095],"type":"VEC3"},{"bufferView":46,"componentType":5126,"count":20,"max":[1.0,1.0],"min":[0.0,0.0],"type":"VEC2"},{"bufferView":47,"componentType":5126,"count":124,"max":[4.099999904632568],"min":[0.0],"type":"SCALAR"},{"bufferView":48,"componentType":5126,"count":124,"max":[3.221860112034847e-08,6.657898410367125e-08,0.8625850677490234,1.0],"min":[-6.657902673623539e-08,-5.7430071365160984e-08,-0.9999992847442627,-0.48391515016555786],"type":"VEC4"}],"animations":[{"channels":[{"sampler":0,"target":{"node":0,"path":"rotation"}}],"extensions":{"S8S_v3d_animation":{"auto":true,"loop":"REPEAT","offset":0.0,"repeatCount":1.0,"repeatInfinite":true}},"name":"Circle.002","samplers":[{"input":47,"interpolation":"LINEAR","output":48}]}],"asset":{"generator":"Verge3D for 3ds Max v4.9.0","version":"2.0"},"bufferViews":[{"buffer":0,"byteLength":14544,"byteOffset":0,"target":34963},{"buffer":0,"byteLength":20880,"byteOffset":14544,"target":34962},{"buffer":0,"byteLength":20880,"byteOffset":35424,"target":34962},{"buffer":0,"byteLength":13920,"byteOffset":56304,"target":34962},{"buffer":0,"byteLength":9984,"byteOffset":70224,"target":34963},{"buffer":0,"byteLength":13056,"byteOffset":80208,"target":34962},{"buffer":0,"byteLength":13056,"byteOffset":93264,"target":34962},{"buffer":0,"byteLength":8704,"byteOffset":106320,"target":34962},{"buffer":0,"byteLength":14268,"byteOffset":115024,"target":34963},{"buffer":0,"byteLength":30732,"byteOffset":129292,"target":34962},{"buffer":0,"byteLength":30732,"byteOffset":160024,"target":34962},{"buffer":0,"byteLength":20488,"byteOffset":190756,"target":34962},{"buffer":0,"byteLength":1584,"byteOffset":211244,"target":34963},{"buffer":0,"byteLength":3840,"byteOffset":212828,"target":34962},{"buffer":0,"byteLength":3840,"byteOffset":216668,"target":34962},{"buffer":0,"byteLength":2560,"byteOffset":220508,"target":34962},{"buffer":0,"byteLength":15,"byteOffset":223068,"target":34963},{"buffer":0,"byteLength":84,"byteOffset":223084,"target":34962},{"buffer":0,"byteLength":84,"byteOffset":223168,"target":34962},{"buffer":0,"byteLength":56,"byteOffset":223252,"target":34962},{"buffer":0,"byteLength":15,"byteOffset":223308,"target":34963},{"buffer":0,"byteLength":84,"byteOffset":223324,"target":34962},{"buffer":0,"byteLength":84,"byteOffset":223408,"target":34962},{"buffer":0,"byteLength":56,"byteOffset":223492,"target":34962},{"buffer":0,"byteLength":31068,"byteOffset":223548,"target":34963},{"buffer":0,"byteLength":50640,"byteOffset":254616,"target":34962},{"buffer":0,"byteLength":50640,"byteOffset":305256,"target":34962},{"buffer":0,"byteLength":33760,"byteOffset":355896,"target":34962},{"buffer":0,"byteLength":44976,"byteOffset":389656,"target":34963},{"buffer":0,"byteLength":118752,"byteOffset":434632,"target":34962},{"buffer":0,"byteLength":118752,"byteOffset":553384,"target":34962},{"buffer":0,"byteLength":79168,"byteOffset":672136,"target":34962},{"buffer":0,"byteLength":4308,"byteOffset":751304,"target":34963},{"buffer":0,"byteLength":5016,"byteOffset":755612,"target":34962},{"buffer":0,"byteLength":5016,"byteOffset":760628,"target":34962},{"buffer":0,"byteLength":6912,"byteOffset":765644,"target":34963},{"buffer":0,"byteLength":13824,"byteOffset":772556,"target":34962},{"buffer":0,"byteLength":13824,"byteOffset":786380,"target":34962},{"buffer":0,"byteLength":9216,"byteOffset":800204,"target":34962},{"buffer":0,"byteLength":1872,"byteOffset":809420,"target":34963},{"buffer":0,"byteLength":3696,"byteOffset":811292,"target":34962},{"buffer":0,"byteLength":3696,"byteOffset":814988,"target":34962},{"buffer":0,"byteLength":2464,"byteOffset":818684,"target":34962},{"buffer":0,"byteLength":36,"byteOffset":821148,"target":34963},{"buffer":0,"byteLength":240,"byteOffset":821184,"target":34962},{"buffer":0,"byteLength":240,"byteOffset":821424,"target":34962},{"buffer":0,"byteLength":160,"byteOffset":821664,"target":34962},{"buffer":0,"byteLength":496,"byteOffset":821824},{"buffer":0,"byteLength":1984,"byteOffset":822320}],"buffers":[{"byteLength":824304,"uri":"clipping_planes.bin"}],"cameras":[{"extensions":{"S8S_v3d_camera":{"controls":"ORBIT","enablePan":false,"moveSpeed":1.0,"orbitMaxDistance":4.0,"orbitMaxPolarAngle":3.141592653589793,"orbitMaxZoom":2.0,"orbitMinDistance":3.0,"orbitMinPolarAngle":0.0,"orbitMinZoom":0.4000000059604645,"orbitTarget":7,"rotateSpeed":1.0,"viewportFitInitialAspect":1.3333333333333333,"viewportFitType":"VERTICAL"}},"name":"Camera001","orthographic":{"xmag":4.931304491970618,"ymag":3.6984783689779634,"zfar":200.0,"znear":0.10000000149011612},"type":"orthographic"}],"extensions":{"S8S_v3d_clipping_planes":{"clippingPlanes":[{"clipIntersection":false,"clipShadows":false,"clippingGroup":"body","color":[0.7019608020782471,0.0,0.0],"crossSection":true,"name":"V3DClippingPlane001","negated":false,"opacity":1.0,"renderSide":"FRONT","size":1000.0}]},"S8S_v3d_curves":{},"S8S_v3d_light_probes":{},"S8S_v3d_lights":{"lights":[{"color":[0,0,0],"intensity":1,"profile":"max","type":"ambient"}]}},"extensionsUsed":["S8S_v3d_texture","S8S_v3d_materials","S8S_v3d_camera","S8S_v3d_lights","S8S_v3d_clipping_planes","S8S_v3d_node","S8S_v3d_light_probes","S8S_v3d_curves","S8S_v3d_animation","S8S_v3d_scene"],"images":[{"uri":"environment.hdr"}],"materials":[{"doubleSided":false,"extensions":{"S8S_v3d_materials":{"gtaoVisible":true,"nodeGraph":{"edges":[{"fromNode":1,"fromOutput":0,"toInput":0,"toNode":0},{"fromNode":1,"fromOutput":1,"toInput":1,"toNode":0}],"nodes":[{"inputs":[[1,1,1,1]],"is_active_output":true,"name":"MaxOutput","outputs":[],"type":"OUTPUT_MX"},{"brdfCurve":5.0,"brdfHigh":1.0,"brdfLow":0.05000000074505806,"brdfMode":true,"emitLuminance":1500.0,"inputFactors":[0,0,0,0,0,0,0,0,0,0,0,0,0,0,0,0,0,0,0,0,0,0,0,0,0],"inputs":[1.0,[0.5,0.5,0.5,1.0],1.0,[1.0,1.0,1.0,1.0],0.15000000596046448,1.0,0.0,0.0,0.25,0.0,[1.0,1.0,1.0,1.0],0.0,1.5199999809265137,0.0,[1.0,1.0,1.0,1.0],1.0,0.0,[1.0,1.0,1.0,1.0],0.0,[1.0,1.0,1.0,1.0],0.0,[0,0,0],[0,0,0],0,1],"is_active_output":false,"name":"chrome","outputs":[[0,0,0,0]],"roughnessInv":false,"thinWalled":false,"transRoughnessInv":false,"transRoughnessLock":true,"type":"PHYSICAL_MX"}]},"profile":"max"}},"name":"chrome"},{"doubleSided":false,"extensions":{"S8S_v3d_materials":{"gtaoVisible":true,"nodeGraph":{"edges":[{"fromNode":1,"fromOutput":0,"toInput":0,"toNode":0},{"fromNode":1,"fromOutput":1,"toInput":1,"toNode":0}],"nodes":[{"inputs":[[1,1,1,1]],"is_active_output":true,"name":"MaxOutput","outputs":[],"type":"OUTPUT_MX"},{"brdfCurve":5.0,"brdfHigh":1.0,"brdfLow":0.05000000074505806,"brdfMode":true,"emitLuminance":1500.0,"inputFactors":[0,0,0,0,0,0,0,0,0,0,0,0,0,0,0,0,0,0,0,0,0,0,0,0,0],"inputs":[1.0,[0.2014388589298024,0.11415320003733916,0.06811240701114431,1.0],1.0,[1.0,1.0,1.0,1.0],0.699999988079071,0.0,0.0,0.0,0.25,0.0,[1.0,1.0,1.0,1.0],0.0,1.5199999809265137,0.0,[1.0,1.0,1.0,1.0],1.0,0.0,[1.0,1.0,1.0,1.0],0.0,[1.0,1.0,1.0,1.0],0.0,[0,0,0],[0,0,0],0,1],"is_active_output":false,"name":"wood","outputs":[[0,0,0,0]],"roughnessInv":false,"thinWalled":false,"transRoughnessInv":false,"transRoughnessLock":true,"type":"PHYSICAL_MX"}]},"profile":"max"}},"name":"wood"},{"doubleSided":false,"extensions":{"S8S_v3d_materials":{"gtaoVisible":true,"nodeGraph":{"edges":[{"fromNode":1,"fromOutput":0,"toInput":0,"toNode":0},{"fromNode":1,"fromOutput":1,"toInput":1,"toNode":0}],"nodes":[{"inputs":[[1,1,1,1]],"is_active_output":true,"name":"MaxOutput","outputs":[],"type":"OUTPUT_MX"},{"brdfCurve":5.0,"brdfHigh":1.0,"brdfLow":0.05000000074505806,"brdfMode":true,"emitLuminance":1500.0,"inputFactors":[0,0,0,0,0,0,0,0,0,0,0,0,0,0,0,0,0,0,0,0,0,0,0,0,0],"inputs":[1.0,[0.20392156862745098,0.20392156862745098,0.20392156862745098,1.0],1.0,[1.0,1.0,1.0,1.0],0.30000001192092896,1.0,0.0,0.0,0.25,0.0,[1.0,1.0,1.0,1.0],0.0,1.5199999809265137,0.0,[1.0,1.0,1.0,1.0],1.0,0.0,[1.0,1.0,1.0,1.0],0.0,[1.0,1.0,1.0,1.0],0.0,[0,0,0],[0,0,0],0,1],"is_active_output":false,"name":"steel","outputs":[[0,0,0,0]],"roughnessInv":false,"thinWalled":false,"transRoughnessInv":false,"transRoughnessLock":true,"type":"PHYSICAL_MX"}]},"profile":"max"}},"name":"steel"},{"doubleSided":false,"extensions":{"S8S_v3d_materials":{"gtaoVisible":true,"nodeGraph":{"edges":[{"fromNode":1,"fromOutput":0,"toInput":0,"toNode":0},{"fromNode":1,"fromOutput":1,"toInput":1,"toNode":0}],"nodes":[{"inputs":[[1,1,1,1]],"is_active_output":true,"name":"MaxOutput","outputs":[],"type":"OUTPUT_MX"},{"brdfCurve":5.0,"brdfHigh":1.0,"brdfLow":0.05000000074505806,"brdfMode":true,"emitLuminance":1500.0,"inputFactors":[0,0,0,0,0,0,0,0,0,0,0,0,0,0,0,0,0,0,0,0,0,0,0,0,0],"inputs":[0.0,[0.06666666666666667,0.24705882352941178,0.9294117647058824,1.0],0.0,[1.0,1.0,1.0,1.0],0.0,0.0,0.0,0.0,0.25,0.0,[1.0,1.0,1.0,1.0],0.0,1.5199999809265137,0.0,[1.0,1.0,1.0,1.0],1.0,0.5,[0.06666666666666667,0.24705882352941178,0.9294117647058824,1.0],0.0,[1.0,1.0,1.0,1.0],0.0,[0,0,0],[0,0,0],0,1],"is_active_output":false,"name":"manipulators","outputs":[[0,0,0,0]],"roughnessInv":false,"thinWalled":false,"transRoughnessInv":false,"transRoughnessLock":true,"type":"PHYSICAL_MX"}]},"profile":"max"}},"name":"manipulators"},{"doubleSided":false,"extensions":{"S8S_v3d_materials":{"gtaoVisible":true,"nodeGraph":{"edges":[{"fromNode":1,"fromOutput":0,"toInput":0,"toNode":0},{"fromNode":1,"fromOutput":1,"toInput":1,"toNode":0}],"nodes":[{"inputs":[[1,1,1,1]],"is_active_output":true,"name":"MaxOutput","outputs":[],"type":"OUTPUT_MX"},{"brdfCurve":5.0,"brdfHigh":1.0,"brdfLow":0.05000000074505806,"brdfMode":true,"emitLuminance":1500.0,"inputFactors":[0,0,0,0,0,0,0,0,0,0,0,0,0,0,0,0,0,0,0,0,0,0,0,0,0],"inputs":[1.0,[0.6627450980392157,0.6627450980392157,0.6627450980392157,1.0],1.0,[1.0,1.0,1.0,1.0],0.20000000298023224,0.0,0.0,0.0,0.25,0.0,[1.0,1.0,1.0,1.0],0.0,1.5199999809265137,0.0,[1.0,1.0,1.0,1.0],1.0,0.0,[1.0,1.0,1.0,1.0],0.0,[1.0,1.0,1.0,1.0],0.0,[0,0,0],[0,0,0],0,1],"is_active_output":false,"name":"plastic","outputs":[[0,0,0,0]],"roughnessInv":false,"thinWalled":false,"transRoughnessInv":false,"transRoughnessLock":true,"type":"PHYSICAL_MX"}]},"profile":"max"}},"name":"plastic"},{"doubleSided":false,"extensions":{"S8S_v3d_materials":{"gtaoVisible":true,"nodeGraph":{"edges":[{"fromNode":1,"fromOutput":0,"toInput":0,"toNode":0},{"fromNode":1,"fromOutput":1,"toInput":1,"toNode":0}],"nodes":[{"inputs":[[1,1,1,1]],"is_active_output":true,"name":"MaxOutput","outputs":[],"type":"OUTPUT_MX"},{"brdfCurve":5.0,"brdfHigh":1.0,"brdfLow":0.05000000074505806,"brdfMode":true,"emitLuminance":1500.0,"inputFactors":[0,0,0,0,0,0,0,0,0,0,0,0,0,0,0,0,0,0,0,0,0,0,0,0,0],"inputs":[1.0,[0.009782102996227789,0.01114044843935499,0.021582734351064645,1.0],0.0,[1.0,1.0,1.0,1.0],0.0,0.0,0.0,0.0,0.25,0.0,[1.0,1.0,1.0,1.0],0.0,1.5199999809265137,0.0,[1.0,1.0,1.0,1.0],1.0,0.0,[1.0,1.0,1.0,1.0],0.0,[1.0,1.0,1.0,1.0],0.0,[0,0,0],[0,0,0],0,1],"is_active_output":false,"name":"environment","outputs":[[0,0,0,0]],"roughnessInv":false,"thinWalled":false,"transRoughnessInv":false,"transRoughnessLock":true,"type":"PHYSICAL_MX"}]},"profile":"max"}},"name":"environment"},{"extensions":{"S8S_v3d_materials":{"nodeGraph":{"edges":[{"fromNode":1,"fromOutput":0,"toInput":0,"toNode":0},{"fromNode":1,"fromOutput":1,"toInput":1,"toNode":0}],"nodes":[{"inputs":[[1,1,1,1]],"is_active_output":true,"name":"MaxOutput","outputs":[],"type":"OUTPUT_MX"},{"alphaAsMono":false,"alphaAsRGB":false,"alphaSource":"FILE","axis":"XY","clampToEdgeNoExtend":[false,false],"inputs":[0.0,0.0,1.0,1.0,0.0],"is_active_output":false,"mapping":"SPHERICAL_ENVIRONMENT","name":"Map #3","outputs":[[0,0,0,0]],"texture":0,"type":"BITMAP_ENV_MX","uvIndex":0}]},"profile":"max"}},"name":"Verge3D_Environment"}],"meshes":[{"name":"Circle.002","primitives":[{"attributes":{"NORMAL":2,"POSITION":1,"TEXCOORD_0":3},"indices":0,"material":0,"mode":4}]},{"name":"Circle.009","primitives":[{"attributes":{"NORMAL":6,"POSITION":5,"TEXCOORD_0":7},"indices":4,"material":1,"mode":4}]},{"name":"screw","primitives":[{"attributes":{"NORMAL":10,"POSITION":9,"TEXCOORD_0":11},"indices":8,"material":2,"mode":4}]},{"name":"razors","primitives":[{"attributes":{"NORMAL":14,"POSITION":13,"TEXCOORD_0":15},"indices":12,"material":2,"mode":4}]},{"name":"plus","primitives":[{"attributes":{"NORMAL":18,"POSITION":17,"TEXCOORD_0":19},"indices":16,"material":3,"mode":4}]},{"name":"minus","primitives":[{"attributes":{"NORMAL":22,"POSITION":21,"TEXCOORD_0":23},"indices":20,"material":3,"mode":4}]},{"name":"body","primitives":[{"attributes":{"NORMAL":26,"POSITION":25,"TEXCOORD_0":27},"indices":24,"material":0,"mode":4}]},{"name":"sieve","primitives":[{"attributes":{"NORMAL":30,"POSITION":29,"TEXCOORD_0":31},"indices":28,"material":2,"mode":4}]},{"name":"clamp","primitives":[{"attributes":{"NORMAL":34,"POSITION":33},"indices":32,"material":2,"mode":4}]},{"name":"Circle.005","primitives":[{"attributes":{"NORMAL":37,"POSITION":36,"TEXCOORD_0":38},"indices":35,"material":0,"mode":4}]},{"name":"caps","primitives":[{"attributes":{"NORMAL":41,"POSITION":40,"TEXCOORD_0":42},"indices":39,"material":4,"mode":4}]},{"name":"Box001","primitives":[{"attributes":{"NORMAL":45,"POSITION":44,"TEXCOORD_0":46},"indices":43,"material":5,"mode":4}]}],"nodes":[{"children":[1,2,3],"extensions":{"S8S_v3d_node":{"frustumCulling":true,"hidden":false,"hidpiCompositing":false,"renderOrder":0,"useCastShadows":true,"useShadows":true}},"extras":{"customProps":{"MapChannel:1":"UVMap"}},"mesh":0,"name":"Circle.002","rotation":[-6.657902673623539e-08,-0.0,0.0,1.0],"translation":[-1.117233026093345e-07,3.0174851417541504e-07,-1.4864003658294678]},{"extensions":{"S8S_v3d_node":{"frustumCulling":true,"hidden":false,"hidpiCompositing":false,"renderOrder":0,"useCastShadows":true,"useShadows":true}},"extras":{"customProps":{"MapChannel:1":"UVMap"}},"mesh":1,"name":"Circle.009","translation":[6.25233268737793,-2.98050594329834,-0.11066234111785889]},{"extensions":{"S8S_v3d_node":{"frustumCulling":true,"groupNames":["body"],"hidden":false,"hidpiCompositing":false,"renderOrder":0,"useCastShadows":true,"useShadows":true}},"extras":{"customProps":{"MapChannel:1":"UVMap"}},"mesh":2,"name":"screw","rotation":[6.657902673623539e-08,-0.0,0.0,1.0],"translation":[-0.006571057718247175,-0.0054213181138038635,2.491290807723999]},{"extensions":{"S8S_v3d_node":{"frustumCulling":true,"groupNames":["body"],"hidden":false,"hidpiCompositing":false,"renderOrder":0,"useCastShadows":true,"useShadows":true}},"extras":{"customProps":{"MapChannel:1":"UVMap"}},"mesh":3,"name":"razors","rotation":[6.657902673623539e-08,-0.0,0.0,1.0],"translation":[-1.3864131176433148e-08,-1.7660431694821455e-07,4.431662559509277]},{"extensions":{"S8S_v3d_node":{"frustumCulling":true,"hidden":false,"hidpiCompositing":false,"renderOrder":0,"useCastShadows":true,"useShadows":true}},"extras":{"customProps":{"MapChannel:1":"UVMap"}},"mesh":4,"name":"plus","rotation":[-8.146033536604591e-08,-0.0,0.0,1.0],"scale":[0.3278249502182007,0.3278249502182007,0.3278249502182007],"translation":[2.5,0.0,0.9936715960502625]},{"extensions":{"S8S_v3d_node":{"frustumCulling":true,"hidden":false,"hidpiCompositing":false,"renderOrder":0,"useCastShadows":true,"useShadows":true}},"extras":{"customProps":{"MapChannel:1":"UVMap"}},"mesh":5,"name":"minus","rotation":[-7.349992027494683e-15,1.0,-3.774895063202166e-08,-1.9470718370939721e-07],"scale":[0.3278249502182007,0.3278249502182007,0.3278249502182007],"translation":[-2.5,0.0,0.9936714172363281]},{"camera":0,"extensions":{"S8S_v3d_node":{"hidden":false,"hidpiCompositing":false}},"name":"Camera001","rotation":[-0.2151806503534317,-0.3567611873149872,-0.08481629937887192,0.9051104784011841],"scale":[0.9999998807907104,1.0,1.0000001192092896],"translation":[-25.03931427001953,17.494152069091797,26.827835083007812]},{"extensions":{"S8S_v3d_node":{"hidden":false,"hidpiCompositing":false}},"name":"Camera001.Target","translation":[0.0,-1.0,-0.0]},{"extensions":{"S8S_v3d_clipping_planes":{"clippingPlane":0},"S8S_v3d_node":{"hidden":false,"hidpiCompositing":false}},"name":"V3DClippingPlane001","rotation":[0.5000000596046448,0.4999999701976776,-0.5,0.5]},{"extensions":{"S8S_v3d_node":{"frustumCulling":true,"groupNames":["body"],"hidden":false,"hidpiCompositing":false,"renderOrder":0,"useCastShadows":true,"useShadows":true}},"extras":{"customProps":{"MapChannel:1":"UVMap"}},"mesh":6,"name":"body","translation":[0.0007857522577978671,0.25284910202026367,0.3443467617034912]},{"extensions":{"S8S_v3d_node":{"frustumCulling":true,"groupNames":["body"],"hidden":false,"hidpiCompositing":false,"renderOrder":0,"useCastShadows":true,"useShadows":true}},"extras":{"customProps":{"MapChannel:1":"UVMap"}},"mesh":7,"name":"sieve","rotation":[0.7071068286895752,-0.0,0.0,0.7071067094802856],"translation":[0.0014389880234375596,-0.00039386749267578125,3.2030606269836426]},{"extensions":{"S8S_v3d_node":{"frustumCulling":true,"groupNames":["body"],"hidden":false,"hidpiCompositing":false,"renderOrder":0,"useCastShadows":true,"useShadows":true}},"mesh":8,"name":"clamp","translation":[2.3469328880310059e-07,-4.161620140075684,0.07994788885116577]},{"extensions":{"S8S_v3d_node":{"frustumCulling":true,"groupNames":["body"],"hidden":false,"hidpiCompositing":false,"renderOrder":0,"useCastShadows":true,"useShadows":true}},"extras":{"customProps":{"MapChannel:1":"UVMap"}},"mesh":9,"name":"Circle.005","translation":[-7.82310962677002e-08,2.384185791015625e-07,3.1992850303649902]},{"extensions":{"S8S_v3d_node":{"frustumCulling":true,"groupNames":["body"],"hidden":false,"hidpiCompositing":false,"renderOrder":0,"useCastShadows":true,"useShadows":true}},"extras":{"customProps":{"MapChannel:1":"UVMap"}},"mesh":10,"name":"caps","translation":[2.5667250724836776e-07,-2.7234787940979004,0.0004755854606628418]},{"extensions":{"S8S_v3d_node":{"frustumCulling":true,"hidden":false,"hidpiCompositing":false,"renderOrder":0,"useCastShadows":true,"useShadows":true}},"mesh":11,"name":"Box001","scale":[1.0,1.436479091644287,1.0],"translation":[0.20392227172851562,-65.92489624023438,-0.38471511006355286]},{"extensions":{"S8S_v3d_lights":{"light":0}},"rotation":[-0.7071068286895752,-0.0,-0.0,0.7071067690849304],"scale":[1.0,1.0,1.0],"translation":[0.0,0.0,0.0]}],"samplers":[{}],"scene":0,"scenes":[{"extensions":{"S8S_v3d_scene":{"aaMethod":"FXAA","iblEnvironmentMode":"PMREM","physicallyCorrectLights":true,"pmremMaxTileSize":256,"shadowMap":{"esmDistanceScale":0.30000001192092896,"renderReverseSided":false,"renderSingleSided":true,"type":"PCFPOISSON"},"toneMapping":{"aperture":8,"highlights":0.25,"iso":100000.0,"midTones":1.0,"physicalScale":1500.0,"physicalScaleMode":true,"processBG":true,"saturation":1.0,"shadows":0.20000000298023224,"shutter":0.001,"type":"physicalMax","vignetting":0,"whiteBalance":[1.0,0.9999999401616115,1.000000119676777]},"unitsScaleFactor":1.0,"worldMaterial":6}},"extras":{"animFrameRate":30,"coordSystem":"Z_UP_RIGHT"},"name":"Scene","nodes":[0,4,5,6,7,8,9,10,11,12,13,14,15]}],"textures":[{"extensions":{"S8S_v3d_texture":{"colorSpace":"linear","source":0}},"name":"Map #3","sampler":0}]}
