{"accessors":[{"bufferView":0,"componentType":5123,"count":1500,"max":[817],"min":[0],"type":"SCALAR"},{"bufferView":1,"componentType":5126,"count":818,"max":[0.030558956786990166,0.11779367923736572,0.030508344992995262],"min":[-0.02948707342147827,0.008162684738636017,-0.029500138014554977],"type":"VEC3"},{"bufferView":2,"componentType":5126,"count":818,"max":[0.9992913007736206,0.9861445426940918,0.9996384382247925],"min":[-0.9992921352386475,-0.0,-0.9996390342712402],"type":"VEC3"},{"bufferView":3,"componentType":5126,"count":818,"max":[1.7516900300979614,1.0],"min":[-1.7516900300979614,-8.496899604797363],"type":"VEC2"},{"bufferView":4,"componentType":5123,"count":7134,"max":[3333],"min":[0],"type":"SCALAR"},{"bufferView":5,"componentType":5126,"count":3334,"max":[0.0071677109226584435,0.1197725161910057,0.007062485441565514],"min":[-0.015555515885353088,0.11872377246618271,-0.01298397034406662],"type":"VEC3"},{"bufferView":6,"componentType":5126,"count":3334,"max":[0.9999905228614807,1.0,0.9987290501594543],"min":[-0.9999912977218628,-1.0,-0.9999868869781494],"type":"VEC3"},{"bufferView":7,"componentType":5126,"count":3334,"max":[1.3381400108337402,2.6311399936676025],"min":[-2.8378400802612305,-1.9825999736785889],"type":"VEC2"},{"bufferView":8,"componentType":5123,"count":25722,"max":[14483],"min":[0],"type":"SCALAR"},{"bufferView":9,"componentType":5126,"count":14484,"max":[0.030558956786990166,0.12074818462133408,0.030508344992995262],"min":[-0.02948707342147827,0.001170530915260315,-0.029500138014554977],"type":"VEC3"},{"bufferView":10,"componentType":5126,"count":14484,"max":[0.9999906420707703,1.0,0.9999815225601196],"min":[-0.9999916553497314,-1.0,-0.9999785423278809],"type":"VEC3"},{"bufferView":11,"componentType":5126,"count":14484,"max":[21.5,19.70170021057129],"min":[-21.5,-48.311100006103516],"type":"VEC2"},{"bufferView":12,"componentType":5121,"count":6,"max":[3],"min":[0],"type":"SCALAR"},{"bufferView":13,"componentType":5126,"count":4,"max":[1.0,0.0,1.0],"min":[-1.0,0.0,-1.0],"type":"VEC3"},{"bufferView":14,"componentType":5126,"count":4,"max":[0.0,1.0,-0.0],"min":[0.0,1.0,-0.0],"type":"VEC3"},{"bufferView":15,"componentType":5126,"count":4,"max":[1.0,1.0],"min":[0.0,0.0],"type":"VEC2"},{"bufferView":16,"componentType":5121,"count":6,"max":[3],"min":[0],"type":"SCALAR"},{"bufferView":17,"componentType":5126,"count":4,"max":[1.0,0.0,1.0],"min":[-1.0,0.0,-1.0],"type":"VEC3"},{"bufferView":18,"componentType":5126,"count":4,"max":[0.0,1.0,-0.0],"min":[0.0,1.0,-0.0],"type":"VEC3"},{"bufferView":19,"componentType":5126,"count":4,"max":[1.0,1.0],"min":[0.0,0.0],"type":"VEC2"},{"bufferView":20,"componentType":5121,"count":6,"max":[3],"min":[0],"type":"SCALAR"},{"bufferView":21,"componentType":5126,"count":4,"max":[1.0,0.0,1.0],"min":[-1.0,0.0,-1.0],"type":"VEC3"},{"bufferView":22,"componentType":5126,"count":4,"max":[0.0,1.0,-0.0],"min":[0.0,1.0,-0.0],"type":"VEC3"},{"bufferView":23,"componentType":5126,"count":4,"max":[1.0,1.0],"min":[0.0,0.0],"type":"VEC2"},{"bufferView":24,"componentType":5123,"count":2130,"max":[477],"min":[0],"type":"SCALAR"},{"bufferView":25,"componentType":5126,"count":478,"max":[3.5658068656921387,3.6046159267425537,3.5658071041107178],"min":[-3.5658061504364014,0.0,-3.565807342529297],"type":"VEC3"},{"bufferView":26,"componentType":5126,"count":478,"max":[0.9993591904640198,1.0,0.9993591904640198],"min":[-0.9993592500686646,-1.0,-0.9993591904640198],"type":"VEC3"},{"bufferView":27,"componentType":5126,"count":478,"max":[0.9999000430107117,0.9999000430107117],"min":[9.998001041822135e-05,9.995698928833008e-05],"type":"VEC2"}],"asset":{"generator":"Verge3D for Blender v4.6.0","version":"2.0"},"bufferViews":[{"buffer":0,"byteLength":3000,"byteOffset":0,"target":34963},{"buffer":0,"byteLength":9816,"byteOffset":3000,"target":34962},{"buffer":0,"byteLength":9816,"byteOffset":12816,"target":34962},{"buffer":0,"byteLength":6544,"byteOffset":22632,"target":34962},{"buffer":0,"byteLength":14268,"byteOffset":29176,"target":34963},{"buffer":0,"byteLength":40008,"byteOffset":43444,"target":34962},{"buffer":0,"byteLength":40008,"byteOffset":83452,"target":34962},{"buffer":0,"byteLength":26672,"byteOffset":123460,"target":34962},{"buffer":0,"byteLength":51444,"byteOffset":150132,"target":34963},{"buffer":0,"byteLength":173808,"byteOffset":201576,"target":34962},{"buffer":0,"byteLength":173808,"byteOffset":375384,"target":34962},{"buffer":0,"byteLength":115872,"byteOffset":549192,"target":34962},{"buffer":0,"byteLength":6,"byteOffset":665064,"target":34963},{"buffer":0,"byteLength":48,"byteOffset":665072,"target":34962},{"buffer":0,"byteLength":48,"byteOffset":665120,"target":34962},{"buffer":0,"byteLength":32,"byteOffset":665168,"target":34962},{"buffer":0,"byteLength":6,"byteOffset":665200,"target":34963},{"buffer":0,"byteLength":48,"byteOffset":665208,"target":34962},{"buffer":0,"byteLength":48,"byteOffset":665256,"target":34962},{"buffer":0,"byteLength":32,"byteOffset":665304,"target":34962},{"buffer":0,"byteLength":6,"byteOffset":665336,"target":34963},{"buffer":0,"byteLength":48,"byteOffset":665344,"target":34962},{"buffer":0,"byteLength":48,"byteOffset":665392,"target":34962},{"buffer":0,"byteLength":32,"byteOffset":665440,"target":34962},{"buffer":0,"byteLength":4260,"byteOffset":665472,"target":34963},{"buffer":0,"byteLength":5736,"byteOffset":669732,"target":34962},{"buffer":0,"byteLength":5736,"byteOffset":675468,"target":34962},{"buffer":0,"byteLength":3824,"byteOffset":681204,"target":34962}],"buffers":[{"byteLength":685028,"uri":"drink_shop.bin"}],"cameras":[{"extensions":{"S8S_v3d_camera":{"controls":"ORBIT","enablePan":true,"moveSpeed":1.0,"orbitMaxDistance":100.0,"orbitMaxPolarAngle":1.5707963705062866,"orbitMaxZoom":100.0,"orbitMinDistance":0.0,"orbitMinPolarAngle":0.0,"orbitMinZoom":0.009999999776482582,"orbitTarget":[0.0,0.059999994933605194,-0.0],"rotateSpeed":1.0,"viewportFitInitialAspect":1.7777777910232544,"viewportFitType":"VERTICAL"}},"name":"Camera.001","perspective":{"aspectRatio":1.7777777910232544,"yfov":0.4710899591445923,"zfar":1000.0,"znear":0.10000000149011612},"type":"perspective"}],"extensions":{"S8S_v3d_lights":{"lights":[{"angle":0.7749261856079102,"color":[1.0,1.0,1.0],"decay":2,"distance":2.2561027878891275,"intensity":5.089999675750732,"name":"Sun","penumbra":0.15000000596046448,"power":5.089999675750732,"profile":"blender","shadow":{"bias":-0.0018,"cameraFar":2.2561027878891275,"cameraFov":1.5498523712158203,"cameraNear":0.05000000074505806,"enabled":true,"expBias":2.5,"mapSize":512,"radius":1.0,"slopeScaledBias":2.5},"type":"spot"}]}},"extensionsUsed":["S8S_v3d_texture","S8S_v3d_materials","S8S_v3d_camera","S8S_v3d_lights","S8S_v3d_mesh","S8S_v3d_node","S8S_v3d_scene"],"images":[{"uri":"coke_texture.jpg"},{"uri":"ground_mask.jpg"},{"uri":"fanta_texture.jpg"},{"uri":"sprite_texture.jpg"},{"uri":"environment.hdr"}],"materials":[{"doubleSided":true,"extensions":{"S8S_v3d_materials":{"gtaoVisible":true,"materialIndex":0,"nodeGraph":{"edges":[{"fromNode":1,"fromOutput":0,"toInput":0,"toNode":0}],"nodes":[{"inputs":[[0,0,0,0],[0,0,0,0],[0.0,0.0,0.0],0.0],"is_active_output":true,"name":"Material Output","outputs":[],"type":"OUTPUT_MATERIAL_BL"},{"inputs":[[0.800000011920929,0.800000011920929,0.800000011920929,1.0],0.44147157669067383,0.0,1.4500000476837158,1.0,[0.0,0.0,0.0],0.0,[1.0,1.0,1.0],0.05000000074505806,1.399999976158142,0.0,0.5,[1.0,1.0,1.0,1.0],0.0,0.0,[0.0,0.0,0.0],0.0,0.0,0.029999999329447746,1.5,[1.0,1.0,1.0,1.0],[0.0,0.0,0.0],0.0,0.5,[1.0,1.0,1.0,1.0],[0.0,0.0,0.0,1.0],1.0],"is_active_output":false,"name":"Principled BSDF","outputs":[[0,0,0,0]],"type":"BSDF_PRINCIPLED_BL"}]},"renderSide":"DOUBLE","useCastShadows":true}},"name":"Aluminum"},{"doubleSided":true,"extensions":{"S8S_v3d_materials":{"gtaoVisible":true,"materialIndex":0,"nodeGraph":{"edges":[{"fromNode":1,"fromOutput":0,"toInput":0,"toNode":0},{"fromNode":2,"fromOutput":0,"toInput":0,"toNode":1}],"nodes":[{"inputs":[[0,0,0,0],[0,0,0,0],[0.0,0.0,0.0],0.0],"is_active_output":true,"name":"Material Output","outputs":[],"type":"OUTPUT_MATERIAL_BL"},{"inputs":[[0.8000000715255737,0.008021428249776363,0.0,1.0],0.0,0.5,1.4500000476837158,1.0,[0.0,0.0,0.0],0.0,[1.0,0.20000000298023224,0.10000000149011612],0.05000000074505806,1.399999976158142,0.0,0.5,[1.0,1.0,1.0,1.0],0.0,0.0,[0.0,0.0,0.0],0.0,0.0,0.029999999329447746,1.5,[1.0,1.0,1.0,1.0],[0.0,0.0,0.0],0.0,0.5,[1.0,1.0,1.0,1.0],[0.0,0.0,0.0,1.0],1.0],"is_active_output":false,"name":"Principled BSDF","outputs":[[0,0,0,0]],"type":"BSDF_PRINCIPLED_BL"},{"alphaMode":"STRAIGHT","inputs":[[0.0,0.0,0.0]],"is_active_output":false,"name":"Image Texture","outputs":[[0.0,0.0,0.0,0.0],0.0],"projection":"FLAT","projectionBlend":0.0,"texture":0,"type":"TEX_IMAGE_BL"}]},"renderSide":"DOUBLE","useCastShadows":true}},"name":"Cola"},{"extensions":{"S8S_v3d_materials":{"gtaoVisible":true,"materialIndex":0,"nodeGraph":{"edges":[{"fromNode":0,"fromOutput":0,"toInput":0,"toNode":4},{"fromNode":4,"fromOutput":0,"toInput":0,"toNode":1},{"fromNode":2,"fromOutput":0,"toInput":2,"toNode":1},{"fromNode":5,"fromOutput":0,"toInput":1,"toNode":1},{"fromNode":1,"fromOutput":0,"toInput":0,"toNode":3}],"nodes":[{"inputs":[],"is_active_output":false,"name":"UV Map","outputs":[[0.0,0.0,0.0]],"type":"UVMAP_BL","uvLayer":"UVMap"},{"inputs":[0.5,[0,0,0,0],[0,0,0,0]],"is_active_output":false,"name":"Mix Shader","outputs":[[0,0,0,0]],"type":"MIX_SHADER_BL"},{"inputs":[[1.0,1.0,1.0,1.0],0.5],"is_active_output":false,"name":"Emission","outputs":[[0,0,0,0]],"type":"EMISSION_BL"},{"inputs":[[0,0,0,0],[0,0,0,0],[0.0,0.0,0.0],0.0],"is_active_output":true,"name":"Material Output","outputs":[],"type":"OUTPUT_MATERIAL_BL"},{"alphaMode":"STRAIGHT","inputs":[[0.0,0.0,0.0]],"is_active_output":false,"name":"Image Texture","outputs":[[0.0,0.0,0.0,0.0],0.0],"projection":"FLAT","projectionBlend":0.0,"texture":1,"type":"TEX_IMAGE_BL"},{"inputs":[[0.800000011920929,0.800000011920929,0.800000011920929,1.0],0.0,[0.0,0.0,0.0]],"is_active_output":false,"name":"Diffuse BSDF","outputs":[[0,0,0,0]],"type":"BSDF_DIFFUSE_BL"}]},"useCastShadows":true}},"name":"environment"},{"extensions":{"S8S_v3d_materials":{"gtaoVisible":true,"materialIndex":0,"nodeGraph":{"edges":[{"fromNode":1,"fromOutput":0,"toInput":0,"toNode":0},{"fromNode":2,"fromOutput":0,"toInput":0,"toNode":1}],"nodes":[{"inputs":[[0,0,0,0],[0,0,0,0],[0.0,0.0,0.0],0.0],"is_active_output":true,"name":"Material Output","outputs":[],"type":"OUTPUT_MATERIAL_BL"},{"inputs":[[0.8000000715255737,0.32221412658691406,0.0,1.0],0.0,0.5,1.4500000476837158,1.0,[0.0,0.0,0.0],0.0,[1.0,0.20000000298023224,0.10000000149011612],0.05000000074505806,1.399999976158142,0.0,0.5,[1.0,1.0,1.0,1.0],0.0,0.0,[0.0,0.0,0.0],0.0,0.0,0.029999999329447746,1.5,[1.0,1.0,1.0,1.0],[0.0,0.0,0.0],0.0,0.5,[1.0,1.0,1.0,1.0],[0.0,0.0,0.0,1.0],1.0],"is_active_output":false,"name":"Principled BSDF","outputs":[[0,0,0,0]],"type":"BSDF_PRINCIPLED_BL"},{"alphaMode":"STRAIGHT","inputs":[[0.0,0.0,0.0]],"is_active_output":false,"name":"Image Texture","outputs":[[0.0,0.0,0.0,0.0],0.0],"projection":"FLAT","projectionBlend":0.0,"texture":2,"type":"TEX_IMAGE_BL"}]},"useCastShadows":true}},"name":"Fanta"},{"extensions":{"S8S_v3d_materials":{"gtaoVisible":true,"materialIndex":0,"nodeGraph":{"edges":[{"fromNode":1,"fromOutput":0,"toInput":0,"toNode":0}],"nodes":[{"inputs":[[0,0,0,0],[0,0,0,0],[0.0,0.0,0.0],0.0],"is_active_output":true,"name":"Material Output","outputs":[],"type":"OUTPUT_MATERIAL_BL"},{"inputs":[[0.7874124050140381,0.7874124050140381,0.7874124050140381,1.0],0.20066890120506287,0.0,1.4500000476837158,1.0,[0.0,0.0,0.0],0.0,[1.0,1.0,1.0],0.05000000074505806,1.399999976158142,0.0,0.5,[1.0,1.0,1.0,1.0],0.0,0.0,[0.0,0.0,0.0],0.0,0.0,0.029999999329447746,1.5,[1.0,1.0,1.0,1.0],[0.0,0.0,0.0],0.0,0.5,[1.0,1.0,1.0,1.0],[0.0,0.0,0.0,1.0],1.0],"is_active_output":false,"name":"Principled BSDF","outputs":[[0,0,0,0]],"type":"BSDF_PRINCIPLED_BL"}]},"useCastShadows":true}},"name":"Pull Tab"},{"extensions":{"S8S_v3d_materials":{"gtaoVisible":true,"materialIndex":0,"nodeGraph":{"edges":[{"fromNode":4,"fromOutput":0,"toInput":0,"toNode":3},{"fromNode":2,"fromOutput":0,"toInput":0,"toNode":4},{"fromNode":1,"fromOutput":0,"toInput":0,"toNode":2},{"fromNode":0,"fromOutput":0,"toInput":0,"toNode":1}],"nodes":[{"inputs":[],"is_active_output":false,"name":"UV Map","outputs":[[0.0,0.0,0.0]],"type":"UVMAP_BL","uvLayer":""},{"inputs":[[0.0,0.0,0.0],[0.19999998807907104,0.0,0.0],[0.0,0.0,0.0],[1.0,1.0,1.0]],"is_active_output":false,"name":"Mapping","outputs":[[0.0,0.0,0.0]],"type":"MAPPING_BL","vectorType":"POINT"},{"alphaMode":"STRAIGHT","inputs":[[0.0,0.0,0.0]],"is_active_output":false,"name":"Image Texture","outputs":[[0.0,0.0,0.0,0.0],0.0],"projection":"FLAT","projectionBlend":0.0,"texture":3,"type":"TEX_IMAGE_BL"},{"inputs":[[0,0,0,0],[0,0,0,0],[0.0,0.0,0.0],0.0],"is_active_output":true,"name":"Material Output","outputs":[],"type":"OUTPUT_MATERIAL_BL"},{"inputs":[[0.022684484720230103,0.8000000715255737,0.0,1.0],0.0,0.5,1.4500000476837158,1.0,[0.0,0.0,0.0],0.0,[1.0,0.20000000298023224,0.10000000149011612],0.05000000074505806,1.399999976158142,0.0,0.5,[1.0,1.0,1.0,1.0],0.0,0.0,[0.0,0.0,0.0],0.0,0.0,0.029999999329447746,1.5,[1.0,1.0,1.0,1.0],[0.0,0.0,0.0],0.0,0.5,[1.0,1.0,1.0,1.0],[0.0,0.0,0.0,1.0],1.0],"is_active_output":false,"name":"Principled BSDF","outputs":[[0,0,0,0]],"type":"BSDF_PRINCIPLED_BL"}]},"useCastShadows":true}},"name":"Sprite"},{"extensions":{"S8S_v3d_materials":{"gtaoVisible":true,"materialIndex":0,"nodeGraph":{"edges":[{"fromNode":2,"fromOutput":0,"toInput":0,"toNode":0},{"fromNode":1,"fromOutput":0,"toInput":0,"toNode":2}],"nodes":[{"inputs":[[0,0,0,0],[0,0,0,0]],"is_active_output":true,"name":"World Output","outputs":[],"type":"OUTPUT_WORLD_BL"},{"inputs":[[0.0,0.0,0.0]],"is_active_output":false,"name":"Environment Texture","outputs":[[0.0,0.0,0.0,0.0]],"projection":"EQUIRECTANGULAR","texture":4,"type":"TEX_ENVIRONMENT_BL"},{"inputs":[[0.31080999970436096,0.31080999970436096,0.31080999970436096,1.0],1.0],"is_active_output":false,"name":"Background","outputs":[[0,0,0,0]],"type":"BACKGROUND_BL"}]},"useCastShadows":true}},"name":"Verge3D_Environment_World"}],"meshes":[{"extensions":{"S8S_v3d_mesh":{"colorLayers":{},"uvLayers":{"UVMap":"TEXCOORD_0"}}},"name":"Mesh1 Group1 Model","primitives":[{"attributes":{"NORMAL":2,"POSITION":1,"TEXCOORD_0":3},"indices":0,"material":5,"mode":4},{"attributes":{"NORMAL":6,"POSITION":5,"TEXCOORD_0":7},"indices":4,"material":4,"mode":4},{"attributes":{"NORMAL":10,"POSITION":9,"TEXCOORD_0":11},"indices":8,"material":0,"mode":4}]},{"extensions":{"S8S_v3d_mesh":{"colorLayers":{},"uvLayers":{"UVMap":"TEXCOORD_0"}}},"name":"Plane","primitives":[{"attributes":{"NORMAL":14,"POSITION":13,"TEXCOORD_0":15},"indices":12,"material":1,"mode":4}]},{"extensions":{"S8S_v3d_mesh":{"colorLayers":{},"uvLayers":{"UVMap":"TEXCOORD_0"}}},"name":"Plane.001","primitives":[{"attributes":{"NORMAL":18,"POSITION":17,"TEXCOORD_0":19},"indices":16,"material":5,"mode":4}]},{"extensions":{"S8S_v3d_mesh":{"colorLayers":{},"uvLayers":{"UVMap":"TEXCOORD_0"}}},"name":"Plane.002","primitives":[{"attributes":{"NORMAL":22,"POSITION":21,"TEXCOORD_0":23},"indices":20,"material":3,"mode":4}]},{"extensions":{"S8S_v3d_mesh":{"colorLayers":{},"uvLayers":{"UVMap":"TEXCOORD_0"}}},"name":"Sphere.001","primitives":[{"attributes":{"NORMAL":26,"POSITION":25,"TEXCOORD_0":27},"indices":24,"material":2,"mode":4}]}],"nodes":[{"extensions":{"S8S_v3d_node":{"frustumCulling":true,"groupNames":[],"hidden":false,"hidpiCompositing":false,"objectColor":[1.0,1.0,1.0,1.0],"objectIndex":0,"renderOrder":0,"useShadows":true}},"mesh":1,"name":"Plane","scale":[-0.05929279327392578,-0.05929279327392578,-0.05929279327392578],"translation":[-0.4050767421722412,-0.166617751121521,0.08480542153120041]},{"extensions":{"S8S_v3d_node":{"frustumCulling":true,"groupNames":[],"hidden":false,"hidpiCompositing":false,"objectColor":[1.0,1.0,1.0,1.0],"objectIndex":0,"renderOrder":0,"useShadows":true}},"mesh":4,"name":"Sphere"},{"extensions":{"S8S_v3d_node":{"frustumCulling":true,"groupNames":[],"hidden":false,"hidpiCompositing":false,"objectColor":[1.0,1.0,1.0,1.0],"objectIndex":0,"renderOrder":0,"useShadows":true}},"mesh":2,"name":"Plane.001","scale":[-0.05929279327392578,-0.05929279327392578,-0.05929279327392578],"translation":[-0.2733134627342224,-0.166617751121521,0.08480542153120041]},{"extensions":{"S8S_v3d_node":{"frustumCulling":true,"groupNames":[],"hidden":false,"hidpiCompositing":false,"objectColor":[1.0,1.0,1.0,1.0],"objectIndex":0,"renderOrder":0,"useShadows":true}},"mesh":3,"name":"Plane.002","scale":[-0.05929279327392578,-0.05929279327392578,-0.05929279327392578],"translation":[-0.14312414824962616,-0.166617751121521,0.08480542153120041]},{"extensions":{"S8S_v3d_lights":{"light":0},"S8S_v3d_node":{"frustumCulling":true,"groupNames":[],"hidden":false,"hidpiCompositing":false,"objectColor":[1.0,1.0,1.0,1.0],"objectIndex":0,"renderOrder":0}},"name":"Sun","rotation":[-0.49919337034225464,-0.04522881656885147,-0.6095476150512695,0.6141758561134338],"scale":[1.0,0.9999998807907104,0.9999999403953552],"translation":[0.215280681848526,0.4183325469493866,0.14925159513950348]},{"extensions":{"S8S_v3d_node":{"frustumCulling":true,"groupNames":["Collection 1"],"hidden":false,"hidpiCompositing":false,"objectColor":[1.0,1.0,1.0,1.0],"objectIndex":0,"renderOrder":0,"useShadows":true}},"mesh":0,"name":"Can"},{"camera":0,"extensions":{"S8S_v3d_node":{"frustumCulling":true,"groupNames":["Collection 1"],"hidden":false,"hidpiCompositing":false,"objectColor":[1.0,1.0,1.0,1.0],"objectIndex":0,"renderOrder":0}},"name":"Camera","rotation":[-0.08318664133548737,-2.5248043101378924e-16,-2.1076062390761163e-17,0.996533989906311],"scale":[1.0,0.9999999403953552,0.9999999403953552],"translation":[-2.2074864451573223e-16,0.13324207067489624,0.43564465641975403]}],"samplers":[{}],"scene":0,"scenes":[{"extensions":{"S8S_v3d_scene":{"aaMethod":"AUTO","iblEnvironmentMode":"PMREM","physicallyCorrectLights":true,"pmremMaxTileSize":512,"shadowMap":{"esmDistanceScale":1.0,"renderReverseSided":false,"renderSingleSided":false,"type":"PCFPOISSON"},"worldMaterial":6}},"extras":{"animFrameRate":24,"coordSystem":"Z_UP_RIGHT"},"name":"Scene","nodes":[0,2,3,1,4,5,6]}],"textures":[{"extensions":{"S8S_v3d_texture":{"colorSpace":"srgb"}},"name":"coke_texture.jpg","sampler":0,"source":0},{"extensions":{"S8S_v3d_texture":{"colorSpace":"srgb"}},"name":"ground_mask.jpg.001","sampler":0,"source":1},{"extensions":{"S8S_v3d_texture":{"colorSpace":"srgb"}},"name":"fanta_texture.jpg","sampler":0,"source":2},{"extensions":{"S8S_v3d_texture":{"colorSpace":"srgb"}},"name":"sprite_texture.jpg","sampler":0,"source":3},{"extensions":{"S8S_v3d_texture":{"colorSpace":"linear rec.709","source":4}},"name":"environment.hdr","sampler":0}]}
