{"accessors":[{"bufferView":0,"componentType":5121,"count":6,"max":[3],"min":[0],"type":"SCALAR"},{"bufferView":1,"componentType":5126,"count":4,"max":[-1.1666666269302368,1.2999999523162842,2.3333332538604736],"min":[-1.1666666269302368,-1.2999999523162842,-1.1666666269302368],"type":"VEC3"},{"bufferView":2,"componentType":5126,"count":4,"max":[1.0,0.0,-0.0],"min":[1.0,0.0,-0.0],"type":"VEC3"},{"bufferView":3,"componentType":5126,"count":4,"max":[0.0,1.0,9.14345946512185e-07,1.0],"min":[0.0,1.0,-0.0,1.0],"type":"VEC4"},{"bufferView":4,"componentType":5126,"count":4,"max":[0.9939699769020081,0.9391922950744629],"min":[0.6680285334587097,0.06165766716003418],"type":"VEC2"},{"bufferView":5,"componentType":5121,"count":6,"max":[3],"min":[0],"type":"SCALAR"},{"bufferView":6,"componentType":5126,"count":4,"max":[2.3333332538604736,1.2999999523162842,-1.1666666269302368],"min":[-1.1666666269302368,-1.2999999523162842,-1.1666666269302368],"type":"VEC3"},{"bufferView":7,"componentType":5126,"count":4,"max":[0.0,0.0,1.0],"min":[0.0,0.0,1.0],"type":"VEC3"},{"bufferView":8,"componentType":5126,"count":4,"max":[1.8286927172539436e-07,-1.0,-0.0,1.0],"min":[0.0,-1.0,-0.0,1.0],"type":"VEC4"},{"bufferView":9,"componentType":5126,"count":4,"max":[0.6614220142364502,0.943248987197876],"min":[0.33548057079315186,0.06571471691131592],"type":"VEC2"},{"bufferView":10,"componentType":5121,"count":6,"max":[3],"min":[0],"type":"SCALAR"},{"bufferView":11,"componentType":5126,"count":4,"max":[1.0,0.0,1.0],"min":[-1.0,0.0,-1.0],"type":"VEC3"},{"bufferView":12,"componentType":5126,"count":4,"max":[0.0,1.0,-0.0],"min":[0.0,1.0,-0.0],"type":"VEC3"},{"bufferView":13,"componentType":5126,"count":4,"max":[1.0,1.0],"min":[0.0,0.0],"type":"VEC2"},{"bufferView":14,"componentType":5121,"count":6,"max":[3],"min":[0],"type":"SCALAR"},{"bufferView":15,"componentType":5126,"count":4,"max":[1.75,0.0,1.75],"min":[-1.75,0.0,-1.75],"type":"VEC3"},{"bufferView":16,"componentType":5126,"count":4,"max":[0.0,1.0,-0.0],"min":[0.0,1.0,-0.0],"type":"VEC3"},{"bufferView":17,"componentType":5126,"count":4,"max":[-1.0,0.0,3.673155504202441e-07,1.0],"min":[-1.0,0.0,2.0989462257148261e-07,1.0],"type":"VEC4"},{"bufferView":18,"componentType":5126,"count":4,"max":[0.33191338181495667,0.8305755853652954],"min":[0.007371574640274048,0.1814916729927063],"type":"VEC2"}],"asset":{"generator":"Verge3D for Blender v4.6.0","version":"2.0"},"bufferViews":[{"buffer":0,"byteLength":6,"byteOffset":0,"target":34963},{"buffer":0,"byteLength":48,"byteOffset":8,"target":34962},{"buffer":0,"byteLength":48,"byteOffset":56,"target":34962},{"buffer":0,"byteLength":64,"byteOffset":104,"target":34962},{"buffer":0,"byteLength":32,"byteOffset":168,"target":34962},{"buffer":0,"byteLength":6,"byteOffset":200,"target":34963},{"buffer":0,"byteLength":48,"byteOffset":208,"target":34962},{"buffer":0,"byteLength":48,"byteOffset":256,"target":34962},{"buffer":0,"byteLength":64,"byteOffset":304,"target":34962},{"buffer":0,"byteLength":32,"byteOffset":368,"target":34962},{"buffer":0,"byteLength":6,"byteOffset":400,"target":34963},{"buffer":0,"byteLength":48,"byteOffset":408,"target":34962},{"buffer":0,"byteLength":48,"byteOffset":456,"target":34962},{"buffer":0,"byteLength":32,"byteOffset":504,"target":34962},{"buffer":0,"byteLength":6,"byteOffset":536,"target":34963},{"buffer":0,"byteLength":48,"byteOffset":544,"target":34962},{"buffer":0,"byteLength":48,"byteOffset":592,"target":34962},{"buffer":0,"byteLength":64,"byteOffset":640,"target":34962},{"buffer":0,"byteLength":32,"byteOffset":704,"target":34962}],"buffers":[{"byteLength":736,"uri":"load_unload.bin"}],"cameras":[{"extensions":{"S8S_v3d_camera":{"controls":"ORBIT","enablePan":false,"moveSpeed":1.0,"orbitMaxAzimuthAngle":1.3962633609771729,"orbitMaxDistance":3.5,"orbitMaxPolarAngle":1.483529806137085,"orbitMaxZoom":100.0,"orbitMinAzimuthAngle":0.1745329201221466,"orbitMinDistance":1.5,"orbitMinPolarAngle":0.0,"orbitMinZoom":0.009999999776482582,"orbitTarget":[-0.029999999329447746,0.6000000238418579,0.029999995604157448],"rotateSpeed":1.0,"viewportFitInitialAspect":1.7777777777777777,"viewportFitType":"AUTO"}},"name":"Camera","perspective":{"aspectRatio":1.7777777777777777,"yfov":0.5033799372418416,"zfar":100.0,"znear":0.10000000149011612},"type":"perspective"}],"extensions":{"S8S_v3d_light_probes":{"lightProbes":[{"clipStart":0.0010000000474974513,"falloff":0.5,"influenceDistance":0.10000000149011612,"name":"ReflectionPlane","type":"PLANAR","visibilityGroup":null,"visibilityGroupInv":false}]},"S8S_v3d_lights":{"lights":[{"color":[1.0,1.0,1.0],"intensity":3.0,"name":"Lamp","profile":"blender","shadow":{"bias":-3.6000004001834894e-09,"cameraFar":100,"cameraFov":0,"cameraNear":0.1,"csm":{"count":1,"exponent":0.800000011920929,"fade":0.10000000149011612,"lightMargin":0.0,"maxDistance":5.80000114440918},"enabled":true,"expBias":2.5,"mapSize":2048,"radius":1.5,"slopeScaledBias":2.5},"type":"directional"}]},"S8S_v3d_materials":{"nodeGraphs":[{"edges":[{"fromNode":4,"fromOutput":0,"toInput":0,"toNode":0},{"fromNode":2,"fromOutput":0,"toInput":2,"toNode":0},{"fromNode":1,"fromOutput":0,"toInput":1,"toNode":0},{"fromNode":0,"fromOutput":0,"toInput":0,"toNode":3},{"fromNode":5,"fromOutput":0,"toInput":0,"toNode":4}],"name":"Walls AO","nodes":[{"inputs":[0.5,[0,0,0,0],[0,0,0,0]],"is_active_output":false,"name":"Mix Shader","outputs":[[0,0,0,0]],"type":"MIX_SHADER_BL"},{"inputs":[[0.0,0.0,0.0,1.0],0.0,[0.0,0.0,0.0]],"is_active_output":false,"name":"Diffuse BSDF","outputs":[[0,0,0,0]],"type":"BSDF_DIFFUSE_BL"},{"inputs":[],"is_active_output":false,"name":"Group Input","outputs":[[0,0,0,0]],"type":"GROUP_INPUT_BL"},{"inputs":[[0,0,0,0]],"is_active_output":true,"name":"Group Output","outputs":[],"type":"GROUP_OUTPUT_BL"},{"alphaMode":"STRAIGHT","inputs":[[0.0,0.0,0.0]],"is_active_output":false,"name":"Image Texture.004","outputs":[[0.0,0.0,0.0,0.0],0.0],"projection":"FLAT","projectionBlend":0.0,"texture":7,"type":"TEX_IMAGE_BL"},{"inputs":[],"is_active_output":false,"name":"UV Map.001","outputs":[[0.0,0.0,0.0]],"type":"UVMAP_BL","uvLayer":"UVMap"}]}]}},"extensionsUsed":["KHR_texture_basisu","S8S_v3d_texture","S8S_v3d_materials","S8S_v3d_camera","S8S_v3d_lights","S8S_v3d_light_probes","S8S_v3d_mesh","S8S_v3d_node","S8S_v3d_scene"],"images":[{"uri":"Parquet_normal.ktx2"},{"uri":"Parquet_basecolor.ktx2"},{"uri":"wall_1_normal.ktx2"},{"uri":"wall_1_basecolor.ktx2"},{"uri":"wall_2_basecolor.ktx2"},{"uri":"wall_2_normal.ktx2"},{"uri":"environment.hdr.xz"},{"uri":"walls_ao.jpg"}],"materials":[{"extensions":{"S8S_v3d_materials":{"gtaoVisible":true,"materialIndex":0,"nodeGraph":{"edges":[{"fromNode":1,"fromOutput":0,"toInput":0,"toNode":10},{"fromNode":1,"fromOutput":0,"toInput":0,"toNode":9},{"fromNode":0,"fromOutput":0,"toInput":0,"toNode":1},{"fromNode":10,"fromOutput":0,"toInput":0,"toNode":4},{"fromNode":9,"fromOutput":0,"toInput":1,"toNode":2},{"fromNode":2,"fromOutput":0,"toInput":5,"toNode":4},{"fromNode":2,"fromOutput":0,"toInput":1,"toNode":7},{"fromNode":10,"fromOutput":0,"toInput":0,"toNode":3},{"fromNode":5,"fromOutput":0,"toInput":0,"toNode":6},{"fromNode":4,"fromOutput":0,"toInput":0,"toNode":5},{"fromNode":8,"fromOutput":2,"toInput":11,"toNode":4},{"fromNode":7,"fromOutput":0,"toInput":0,"toNode":8}],"nodes":[{"inputs":[],"is_active_output":false,"name":"UV Map","outputs":[[0.0,0.0,0.0]],"type":"UVMAP_BL","uvLayer":"UVMap"},{"inputs":[[0.0,0.0,0.0],[0.0,0.0,0.0],[0.0,0.0,0.0],[16.0,8.0,1.0]],"is_active_output":false,"name":"Mapping","outputs":[[0.0,0.0,0.0]],"type":"MAPPING_BL","vectorType":"POINT"},{"inputs":[1.0,[0.5,0.5,1.0,1.0]],"is_active_output":false,"name":"Normal Map","outputs":[[0.0,0.0,0.0]],"type":"NORMAL_MAP_BL","uvLayer":""},{"inputs":[[0.5,0.5,0.5,1.0]],"is_active_output":false,"name":"RGB to BW","outputs":[0.0],"type":"RGBTOBW_BL"},{"inputs":[[0.800000011920929,0.800000011920929,0.800000011920929,1.0],0.0,0.0,1.4500000476837158,1.0,[0.0,0.0,0.0],0.0,[1.0,0.20000000298023224,0.10000000149011612],0.05000000074505806,1.399999976158142,0.0,0.5,[1.0,1.0,1.0,1.0],0.0,0.0,[0.0,0.0,0.0],0.0,0.0,0.029999999329447746,1.5,[1.0,1.0,1.0,1.0],[0.0,0.0,0.0],0.0,0.5,[1.0,1.0,1.0,1.0],[0.0,0.0,0.0,1.0],1.0],"is_active_output":false,"name":"Principled BSDF","outputs":[[0,0,0,0]],"type":"BSDF_PRINCIPLED_BL"},{"inputs":[[0,0,0,0]],"is_active_output":false,"name":"Group","nodeGraph":0,"outputs":[[0,0,0,0]],"type":"GROUP_BL"},{"inputs":[[0,0,0,0],[0,0,0,0],[0.0,0.0,0.0],0.0],"is_active_output":true,"name":"Material Output","outputs":[],"type":"OUTPUT_MATERIAL_BL"},{"inputs":[1.4500000476837158,[0.0,0.0,0.0]],"is_active_output":false,"name":"Fresnel","outputs":[0.0],"type":"FRESNEL_BL"},{"blendType":"MIX","clampFactor":true,"clampResult":false,"dataType":"RGBA","factorMode":"UNIFORM","inputs":[0.5,[0.5,0.5,0.5],0.0,0.0,[0.0,0.0,0.0],[0.0,0.0,0.0],[0.03076494298875332,0.03076494298875332,0.03076494298875332,1.0],[1.0,1.0,1.0,1.0],0,0],"is_active_output":false,"name":"Mix.001","outputs":[0.0,[0.0,0.0,0.0],[0.0,0.0,0.0,0.0],0],"type":"MIX_BL"},{"alphaMode":"STRAIGHT","inputs":[[0.0,0.0,0.0]],"is_active_output":false,"name":"Image Texture.001","outputs":[[0.0,0.0,0.0,0.0],0.0],"projection":"FLAT","projectionBlend":0.0,"texture":0,"type":"TEX_IMAGE_BL"},{"alphaMode":"STRAIGHT","inputs":[[0.0,0.0,0.0]],"is_active_output":false,"name":"Image Texture","outputs":[[0.0,0.0,0.0,0.0],0.0],"projection":"FLAT","projectionBlend":0.0,"texture":1,"type":"TEX_IMAGE_BL"}]},"useCastShadows":true}},"name":"floor"},{"extensions":{"S8S_v3d_materials":{"gtaoVisible":true,"materialIndex":0,"nodeGraph":{"edges":[{"fromNode":1,"fromOutput":0,"toInput":0,"toNode":11},{"fromNode":1,"fromOutput":0,"toInput":0,"toNode":10},{"fromNode":0,"fromOutput":0,"toInput":0,"toNode":2},{"fromNode":2,"fromOutput":0,"toInput":0,"toNode":1},{"fromNode":11,"fromOutput":0,"toInput":6,"toNode":8},{"fromNode":10,"fromOutput":0,"toInput":1,"toNode":9},{"fromNode":9,"fromOutput":0,"toInput":5,"toNode":3},{"fromNode":9,"fromOutput":0,"toInput":1,"toNode":5},{"fromNode":5,"fromOutput":0,"toInput":11,"toNode":3},{"fromNode":4,"fromOutput":2,"toInput":2,"toNode":3},{"fromNode":3,"fromOutput":0,"toInput":0,"toNode":6},{"fromNode":6,"fromOutput":0,"toInput":0,"toNode":7},{"fromNode":11,"fromOutput":0,"toInput":0,"toNode":4},{"fromNode":8,"fromOutput":2,"toInput":0,"toNode":3}],"nodes":[{"inputs":[],"is_active_output":false,"name":"UV Map","outputs":[[0.0,0.0,0.0]],"type":"UVMAP_BL","uvLayer":"UVMap"},{"inputs":[[0.0,0.0,0.0]],"is_active_output":false,"name":"Reroute","outputs":[[0.0,0.0,0.0]],"type":"REROUTE_BL"},{"inputs":[[0.0,0.0,0.0],[0.0,0.0,0.0],[0.0,0.0,0.0],[6.0,3.0,3.0]],"is_active_output":false,"name":"Mapping","outputs":[[0.0,0.0,0.0]],"type":"MAPPING_BL","vectorType":"POINT"},{"inputs":[[0.800000011920929,0.800000011920929,0.800000011920929,1.0],0.0,0.5,1.4500000476837158,1.0,[0.0,0.0,0.0],0.0,[1.0,0.20000000298023224,0.10000000149011612],0.05000000074505806,1.399999976158142,0.0,0.5,[1.0,1.0,1.0,1.0],0.0,0.0,[0.0,0.0,0.0],0.0,0.0,0.029999999329447746,1.5,[1.0,1.0,1.0,1.0],[0.0,0.0,0.0],0.0,0.5,[1.0,1.0,1.0,1.0],[0.0,0.0,0.0,1.0],1.0],"is_active_output":false,"name":"Principled BSDF","outputs":[[0,0,0,0]],"type":"BSDF_PRINCIPLED_BL"},{"blendType":"MIX","clampFactor":true,"clampResult":false,"dataType":"RGBA","factorMode":"UNIFORM","inputs":[0.5,[0.5,0.5,0.5],0.0,0.0,[0.0,0.0,0.0],[0.0,0.0,0.0],[0.46032392978668213,0.46032392978668213,0.46032392978668213,1.0],[0.06546533852815628,0.06546533852815628,0.06546533852815628,1.0],0,0],"is_active_output":false,"name":"Mix","outputs":[0.0,[0.0,0.0,0.0],[0.0,0.0,0.0,0.0],0],"type":"MIX_BL"},{"inputs":[1.4500000476837158,[0.0,0.0,0.0]],"is_active_output":false,"name":"Fresnel","outputs":[0.0],"type":"FRESNEL_BL"},{"inputs":[[0,0,0,0]],"is_active_output":false,"name":"Group","nodeGraph":0,"outputs":[[0,0,0,0]],"type":"GROUP_BL"},{"inputs":[[0,0,0,0],[0,0,0,0],[0.0,0.0,0.0],0.0],"is_active_output":true,"name":"Material Output","outputs":[],"type":"OUTPUT_MATERIAL_BL"},{"blendType":"MULTIPLY","clampFactor":true,"clampResult":false,"dataType":"RGBA","factorMode":"UNIFORM","inputs":[1.0,[0.5,0.5,0.5],0.0,0.0,[0.0,0.0,0.0],[0.0,0.0,0.0],[0.5,0.5,0.5,1.0],[0.8576307892799377,0.8920303583145142,1.0,1.0],0,0],"is_active_output":false,"name":"Mix.001","outputs":[0.0,[0.0,0.0,0.0],[0.0,0.0,0.0,0.0],0],"type":"MIX_BL"},{"inputs":[1.0,[0.5,0.5,1.0,1.0]],"is_active_output":false,"name":"Normal Map","outputs":[[0.0,0.0,0.0]],"type":"NORMAL_MAP_BL","uvLayer":""},{"alphaMode":"STRAIGHT","inputs":[[0.0,0.0,0.0]],"is_active_output":false,"name":"Image Texture.001","outputs":[[0.0,0.0,0.0,0.0],0.0],"projection":"FLAT","projectionBlend":0.0,"texture":2,"type":"TEX_IMAGE_BL"},{"alphaMode":"STRAIGHT","inputs":[[0.0,0.0,0.0]],"is_active_output":false,"name":"Image Texture","outputs":[[0.0,0.0,0.0,0.0],0.0],"projection":"FLAT","projectionBlend":0.0,"texture":3,"type":"TEX_IMAGE_BL"}]},"useCastShadows":true}},"name":"wall_1"},{"extensions":{"S8S_v3d_materials":{"gtaoVisible":true,"materialIndex":0,"nodeGraph":{"edges":[{"fromNode":1,"fromOutput":0,"toInput":0,"toNode":8},{"fromNode":1,"fromOutput":0,"toInput":0,"toNode":9},{"fromNode":0,"fromOutput":0,"toInput":0,"toNode":2},{"fromNode":2,"fromOutput":0,"toInput":0,"toNode":1},{"fromNode":8,"fromOutput":0,"toInput":0,"toNode":5},{"fromNode":9,"fromOutput":0,"toInput":1,"toNode":4},{"fromNode":4,"fromOutput":0,"toInput":5,"toNode":5},{"fromNode":4,"fromOutput":0,"toInput":1,"toNode":3},{"fromNode":3,"fromOutput":0,"toInput":11,"toNode":5},{"fromNode":5,"fromOutput":0,"toInput":0,"toNode":7},{"fromNode":7,"fromOutput":0,"toInput":0,"toNode":6}],"nodes":[{"inputs":[],"is_active_output":false,"name":"UV Map","outputs":[[0.0,0.0,0.0]],"type":"UVMAP_BL","uvLayer":"UVMap"},{"inputs":[[0.0,0.0,0.0]],"is_active_output":false,"name":"Reroute","outputs":[[0.0,0.0,0.0]],"type":"REROUTE_BL"},{"inputs":[[0.0,0.0,0.0],[0.0,0.0,0.0],[0.0,0.0,0.0],[8.0,4.0,4.0]],"is_active_output":false,"name":"Mapping","outputs":[[0.0,0.0,0.0]],"type":"MAPPING_BL","vectorType":"POINT"},{"inputs":[1.4500000476837158,[0.0,0.0,0.0]],"is_active_output":false,"name":"Fresnel","outputs":[0.0],"type":"FRESNEL_BL"},{"inputs":[1.0,[0.5,0.5,1.0,1.0]],"is_active_output":false,"name":"Normal Map","outputs":[[0.0,0.0,0.0]],"type":"NORMAL_MAP_BL","uvLayer":""},{"inputs":[[0.800000011920929,0.800000011920929,0.800000011920929,1.0],0.0,0.30000001192092896,1.4500000476837158,1.0,[0.0,0.0,0.0],0.0,[1.0,0.20000000298023224,0.10000000149011612],0.05000000074505806,1.399999976158142,0.0,0.5,[1.0,1.0,1.0,1.0],0.0,0.0,[0.0,0.0,0.0],0.0,0.0,0.029999999329447746,1.5,[1.0,1.0,1.0,1.0],[0.0,0.0,0.0],0.0,0.5,[1.0,1.0,1.0,1.0],[0.0,0.0,0.0,1.0],1.0],"is_active_output":false,"name":"Principled BSDF","outputs":[[0,0,0,0]],"type":"BSDF_PRINCIPLED_BL"},{"inputs":[[0,0,0,0],[0,0,0,0],[0.0,0.0,0.0],0.0],"is_active_output":true,"name":"Material Output","outputs":[],"type":"OUTPUT_MATERIAL_BL"},{"inputs":[[0,0,0,0]],"is_active_output":false,"name":"Group","nodeGraph":0,"outputs":[[0,0,0,0]],"type":"GROUP_BL"},{"alphaMode":"STRAIGHT","inputs":[[0.0,0.0,0.0]],"is_active_output":false,"name":"Image Texture","outputs":[[0.0,0.0,0.0,0.0],0.0],"projection":"FLAT","projectionBlend":0.0,"texture":4,"type":"TEX_IMAGE_BL"},{"alphaMode":"STRAIGHT","inputs":[[0.0,0.0,0.0]],"is_active_output":false,"name":"Image Texture.001","outputs":[[0.0,0.0,0.0,0.0],0.0],"projection":"FLAT","projectionBlend":0.0,"texture":5,"type":"TEX_IMAGE_BL"}]},"useCastShadows":true}},"name":"wall_2"},{"extensions":{"S8S_v3d_materials":{"gtaoVisible":true,"materialIndex":0,"nodeGraph":{"edges":[{"fromNode":0,"fromOutput":0,"toInput":0,"toNode":1},{"fromNode":4,"fromOutput":0,"toInput":6,"toNode":3},{"fromNode":2,"fromOutput":0,"toInput":0,"toNode":3},{"fromNode":3,"fromOutput":2,"toInput":0,"toNode":0}],"nodes":[{"inputs":[[0.05087608844041824,0.05087608844041824,0.05087608844041824,1.0],0.6999999284744263],"is_active_output":false,"name":"Background","outputs":[[0,0,0,0]],"type":"BACKGROUND_BL"},{"inputs":[[0,0,0,0],[0,0,0,0]],"is_active_output":true,"name":"World Output","outputs":[],"type":"OUTPUT_WORLD_BL"},{"inputs":[],"is_active_output":false,"name":"Light Path","outputs":[0.0,0.0,0.0,0.0,0.0,0.0,0.0,0.0,0.0,0.0,0.0,0.0,0.0],"type":"LIGHT_PATH_BL"},{"blendType":"MIX","clampFactor":true,"clampResult":false,"dataType":"RGBA","factorMode":"UNIFORM","inputs":[0.5,[0.5,0.5,0.5],0.0,0.0,[0.0,0.0,0.0],[0.0,0.0,0.0],[0.5,0.5,0.5,1.0],[0.05126946419477463,0.05126946419477463,0.05126946419477463,1.0],0,0],"is_active_output":false,"name":"Mix","outputs":[0.0,[0.0,0.0,0.0],[0.0,0.0,0.0,0.0],0],"type":"MIX_BL"},{"inputs":[[0.0,0.0,0.0]],"is_active_output":false,"name":"Environment Texture","outputs":[[0.0,0.0,0.0,0.0]],"projection":"EQUIRECTANGULAR","texture":6,"type":"TEX_ENVIRONMENT_BL"}]},"useCastShadows":true}},"name":"Verge3D_Environment_World"},{"extensions":{"S8S_v3d_materials":{"nodeGraph":{"edges":[{"fromNode":1,"fromOutput":0,"toInput":0,"toNode":0}],"nodes":[{"inputs":[[0,0,0,0],[0,0,0,0],[0,0,0]],"is_active_output":true,"name":"Material Output","outputs":[],"type":"OUTPUT_MATERIAL_BL"},{"inputs":[[0.800000011920929,0.800000011920929,0.800000011920929,1.0],0.0,[0.0,0.0,0.0]],"is_active_output":false,"name":"Diffuse BSDF","outputs":[[0,0,0,0]],"type":"BSDF_DIFFUSE_BL"}]},"useCastShadows":true,"useShadows":true}},"name":"v3d_default_material"}],"meshes":[{"extensions":{"S8S_v3d_mesh":{"colorLayers":{},"uvLayers":{"UVMap":"TEXCOORD_0"}}},"name":"Plane","primitives":[{"attributes":{"NORMAL":2,"POSITION":1,"TANGENT":3,"TEXCOORD_0":4},"indices":0,"material":1,"mode":4},{"attributes":{"NORMAL":7,"POSITION":6,"TANGENT":8,"TEXCOORD_0":9},"indices":5,"material":2,"mode":4}]},{"extensions":{"S8S_v3d_mesh":{"colorLayers":{},"uvLayers":{}}},"name":"Plane.001","primitives":[{"attributes":{"NORMAL":12,"POSITION":11,"TEXCOORD_0":13},"indices":10,"material":4,"mode":4}]},{"extensions":{"S8S_v3d_mesh":{"colorLayers":{},"uvLayers":{"UVMap":"TEXCOORD_0"}}},"name":"Plane.002","primitives":[{"attributes":{"NORMAL":16,"POSITION":15,"TANGENT":17,"TEXCOORD_0":18},"indices":14,"material":0,"mode":4}]}],"nodes":[{"extensions":{"S8S_v3d_lights":{"light":0},"S8S_v3d_node":{"frustumCulling":true,"groupNames":["main_scene"],"hidden":false,"hidpiCompositing":false,"objectColor":[0.0,0.0,0.0,0.0],"objectIndex":0,"renderOrder":0}},"name":"Lamp","rotation":[-0.29923322796821594,0.4307006597518921,0.08848793059587479,0.8468331098556519],"scale":[1.0,0.9999999403953552,0.9999999403953552],"translation":[4.421052932739258,3.7651591300964355,2.939319133758545]},{"extensions":{"S8S_v3d_node":{"frustumCulling":true,"groupNames":["main_scene"],"hidden":false,"hidpiCompositing":false,"objectColor":[1.0,1.0,1.0,1.0],"objectIndex":0,"renderOrder":0,"useShadows":true}},"mesh":0,"name":"Plane","translation":[0.1666666716337204,1.2999999523162842,0.1666666716337204]},{"extensions":{"S8S_v3d_node":{"frustumCulling":true,"groupNames":["main_scene"],"hidden":false,"hidpiCompositing":false,"objectColor":[1.0,1.0,1.0,1.0],"objectIndex":0,"renderOrder":0,"useShadows":true}},"mesh":2,"name":"Plane.002","translation":[0.75,0.0,0.75]},{"camera":0,"extensions":{"S8S_v3d_node":{"frustumCulling":true,"groupNames":["main_scene"],"hidden":false,"hidpiCompositing":false,"objectColor":[0.0,0.0,0.0,0.0],"objectIndex":0,"renderOrder":0}},"name":"Camera","rotation":[-0.07222391664981842,0.3666877746582031,0.028566209599375725,0.927096426486969],"scale":[1.0,0.9999999403953552,0.9999998807907104],"translation":[1.7317053079605103,1.0037239789962769,1.9086613655090332]},{"extensions":{"S8S_v3d_node":{"frustumCulling":true,"groupNames":["places"],"hidden":false,"hidpiCompositing":false,"objectColor":[1.0,1.0,1.0,1.0],"objectIndex":0,"renderOrder":0}},"name":"chair_place","rotation":[0.0,0.14407974481582642,-0.0,0.9895660877227783],"translation":[0.019037529826164246,0.0,-0.5781539082527161]},{"extensions":{"S8S_v3d_node":{"frustumCulling":true,"groupNames":["places"],"hidden":false,"hidpiCompositing":false,"objectColor":[1.0,1.0,1.0,1.0],"objectIndex":0,"renderOrder":0}},"name":"puff_place","rotation":[0.0,0.14650706946849823,-0.0,0.9892095923423767],"translation":[0.32004544138908386,0.0,0.3392183482646942]},{"extensions":{"S8S_v3d_node":{"frustumCulling":true,"groupNames":["places"],"hidden":false,"hidpiCompositing":false,"objectColor":[1.0,1.0,1.0,1.0],"objectIndex":0,"renderOrder":0}},"name":"table_place","rotation":[0.0,0.2992922067642212,-0.0,0.954161524772644],"translation":[0.8243318796157837,0.0,-0.35231122374534607]},{"extensions":{"S8S_v3d_node":{"frustumCulling":true,"groupNames":["places"],"hidden":false,"hidpiCompositing":false,"objectColor":[1.0,1.0,1.0,1.0],"objectIndex":0,"renderOrder":0}},"name":"tv_stand_place","translation":[-0.8026980757713318,0.0,0.619199275970459]},{"extensions":{"S8S_v3d_node":{"frustumCulling":true,"groupNames":["places"],"hidden":false,"hidpiCompositing":false,"objectColor":[1.0,1.0,1.0,1.0],"objectIndex":0,"renderOrder":0}},"name":"nightlight_place","translation":[-0.6011135578155518,0.0,-0.43252110481262207]},{"extensions":{"S8S_v3d_node":{"frustumCulling":true,"groupNames":["places"],"hidden":false,"hidpiCompositing":false,"objectColor":[1.0,1.0,1.0,1.0],"objectIndex":0,"renderOrder":0,"useShadows":true}},"mesh":1,"name":"Plane.001","scale":[2.153986692428589,2.153986692428589,2.153986692428589],"translation":[0.833321213722229,-0.04218614101409912,0.897354245185852]},{"extensions":{"S8S_v3d_light_probes":{"lightProbe":0},"S8S_v3d_node":{"frustumCulling":true,"groupNames":["places"],"hidden":false,"hidpiCompositing":false,"objectColor":[1.0,1.0,1.0,1.0],"objectIndex":0,"renderOrder":0}},"name":"ReflectionPlane","scale":[1.8841062784194946,1.8841062784194946,1.8841062784194946],"translation":[0.8939061164855957,0.006297659128904343,0.8948895335197449]}],"samplers":[{}],"scene":0,"scenes":[{"extensions":{"S8S_v3d_scene":{"aaMethod":"AUTO","iblEnvironmentMode":"PMREM","physicallyCorrectLights":true,"pmremMaxTileSize":512,"shadowMap":{"esmDistanceScale":1.0,"renderReverseSided":false,"renderSingleSided":true,"type":"PCFPOISSON"},"worldMaterial":3}},"extras":{"animFrameRate":24,"coordSystem":"Z_UP_RIGHT"},"name":"Scene","nodes":[0,3,1,2,4,5,6,7,8,9,10]}],"textures":[{"extensions":{"KHR_texture_basisu":{"source":0},"S8S_v3d_texture":{"colorSpace":"non-color"}},"name":"Parquet_normal.png","sampler":0},{"extensions":{"KHR_texture_basisu":{"source":1},"S8S_v3d_texture":{"colorSpace":"srgb"}},"name":"Parquet_basecolor","sampler":0},{"extensions":{"KHR_texture_basisu":{"source":2},"S8S_v3d_texture":{"colorSpace":"non-color"}},"name":"wall_1_normal.png","sampler":0},{"extensions":{"KHR_texture_basisu":{"source":3},"S8S_v3d_texture":{"colorSpace":"srgb"}},"name":"wall_1_basecolor.jpg","sampler":0},{"extensions":{"KHR_texture_basisu":{"source":4},"S8S_v3d_texture":{"colorSpace":"srgb"}},"name":"wall_2_basecolor","sampler":0},{"extensions":{"KHR_texture_basisu":{"source":5},"S8S_v3d_texture":{"colorSpace":"non-color"}},"name":"wall_2_normal","sampler":0},{"extensions":{"S8S_v3d_texture":{"colorSpace":"linear rec.709","source":6}},"name":"environment.hdr","sampler":0},{"extensions":{"S8S_v3d_texture":{"colorSpace":"srgb"}},"name":"walls_ao","sampler":0,"source":7}]}
