{"accessors":[{"bufferView":0,"componentType":5123,"count":5946,"max":[1152],"min":[0],"type":"SCALAR"},{"bufferView":1,"componentType":5126,"count":1153,"max":[0.09672512114048004,0.3851719796657562,0.09672514349222183],"min":[-0.09672514349222183,-1.1822943690731336e-07,-0.09672514349222183],"type":"VEC3"},{"bufferView":2,"componentType":5126,"count":1153,"max":[0.9996775388717651,0.9999995231628418,0.9996775388717651],"min":[-0.9996775388717651,-1.0,-0.9996775388717651],"type":"VEC3"},{"bufferView":3,"componentType":5126,"count":1153,"max":[0.9243007302284241,0.6950821280479431],"min":[0.4759623408317566,0.03905487060546875],"type":"VEC2"},{"bufferView":4,"componentType":5123,"count":5004,"max":[1239],"min":[0],"type":"SCALAR"},{"bufferView":5,"componentType":5126,"count":1240,"max":[0.17155571281909943,0.3427436053752899,0.6720591187477112],"min":[0.15797601640224457,0.19181440770626068,-0.6722231507301331],"type":"VEC3"},{"bufferView":6,"componentType":5126,"count":1240,"max":[0.9999908804893494,0.9999938607215881,0.9999908804893494],"min":[-0.7266018390655518,-1.0,-0.9999908804893494],"type":"VEC3"},{"bufferView":7,"componentType":5126,"count":1240,"max":[0.9334947466850281,0.2533107399940491],"min":[0.2973651885986328,0.007995426654815674],"type":"VEC2"},{"bufferView":8,"componentType":5121,"count":126,"max":[83],"min":[0],"type":"SCALAR"},{"bufferView":9,"componentType":5126,"count":84,"max":[0.22703994810581207,6.014652664809716e-10,0.324726402759552],"min":[-0.22703994810581207,-0.010855012573301792,-0.324726402759552],"type":"VEC3"},{"bufferView":10,"componentType":5126,"count":84,"max":[1.0,1.0,1.0],"min":[-1.0,-1.0,-1.0],"type":"VEC3"},{"bufferView":11,"componentType":5126,"count":84,"max":[1.0,1.0,1.0,1.0],"min":[-1.0,-0.9999997615814209,-1.0,-1.0],"type":"VEC4"},{"bufferView":12,"componentType":5126,"count":84,"max":[0.96891188621521,0.9964995384216309],"min":[0.3354632556438446,0.48051631450653076],"type":"VEC2"},{"bufferView":13,"componentType":5121,"count":6,"max":[3],"min":[0],"type":"SCALAR"},{"bufferView":14,"componentType":5126,"count":4,"max":[0.1970268189907074,-0.004152798559516668,0.29555970430374146],"min":[-0.1970268189907074,-0.004152799490839243,-0.29555970430374146],"type":"VEC3"},{"bufferView":15,"componentType":5126,"count":4,"max":[0.0,1.0,-0.0],"min":[0.0,1.0,-0.0],"type":"VEC3"},{"bufferView":16,"componentType":5126,"count":4,"max":[1.0,0.0,-0.0,1.0],"min":[1.0,0.0,-0.0,1.0],"type":"VEC4"},{"bufferView":17,"componentType":5126,"count":4,"max":[0.8871768712997437,0.4847930073738098],"min":[0.6933717131614685,0.19406616687774658],"type":"VEC2"},{"bufferView":18,"componentType":5123,"count":1218,"max":[439],"min":[0],"type":"SCALAR"},{"bufferView":19,"componentType":5126,"count":440,"max":[0.15797589719295502,0.4188580811023712,0.8388330340385437],"min":[-0.17155542969703674,0.11570003628730774,-0.8388612270355225],"type":"VEC3"},{"bufferView":20,"componentType":5126,"count":440,"max":[1.0,1.0,1.0],"min":[-1.0,-1.0,-1.0],"type":"VEC3"},{"bufferView":21,"componentType":5126,"count":440,"max":[0.9964570999145508,0.9965015053749084],"min":[0.0035086979623883963,0.0105629563331604],"type":"VEC2"},{"bufferView":22,"componentType":5123,"count":2124,"max":[551],"min":[0],"type":"SCALAR"},{"bufferView":23,"componentType":5126,"count":552,"max":[0.15797527134418488,0.40983518958091736,0.8295665979385376],"min":[0.14603547751903534,0.12472201883792877,-0.8297765254974365],"type":"VEC3"},{"bufferView":24,"componentType":5126,"count":552,"max":[1.0,0.9951425790786743,0.9951338768005371],"min":[-7.00000191500294e-06,-0.9951396584510803,-0.9951367378234863],"type":"VEC3"},{"bufferView":25,"componentType":5126,"count":552,"max":[0.9777418971061707,0.9957026839256287],"min":[0.0035086979623883963,0.009273231029510498],"type":"VEC2"},{"bufferView":26,"componentType":5123,"count":2856,"max":[799],"min":[0],"type":"SCALAR"},{"bufferView":27,"componentType":5126,"count":800,"max":[0.15267567336559296,0.11570007354021072,0.7894437909126282],"min":[-0.15267567336559296,0.0,-0.7879801988601685],"type":"VEC3"},{"bufferView":28,"componentType":5126,"count":800,"max":[1.0,0.0002229999954579398,1.0],"min":[-1.0,-1.0,-1.0],"type":"VEC3"},{"bufferView":29,"componentType":5126,"count":800,"max":[1.0,0.5135676264762878,1.0,1.0],"min":[-1.0,-0.5184195041656494,-1.0,-1.0],"type":"VEC4"},{"bufferView":30,"componentType":5126,"count":800,"max":[0.8563805222511292,0.8352645039558411],"min":[0.6932756900787354,0.7029039859771729],"type":"VEC2"}],"asset":{"generator":"Verge3D for Blender v4.6.0","version":"2.0"},"bufferViews":[{"buffer":0,"byteLength":11892,"byteOffset":0,"target":34963},{"buffer":0,"byteLength":13836,"byteOffset":11892,"target":34962},{"buffer":0,"byteLength":13836,"byteOffset":25728,"target":34962},{"buffer":0,"byteLength":9224,"byteOffset":39564,"target":34962},{"buffer":0,"byteLength":10008,"byteOffset":48788,"target":34963},{"buffer":0,"byteLength":14880,"byteOffset":58796,"target":34962},{"buffer":0,"byteLength":14880,"byteOffset":73676,"target":34962},{"buffer":0,"byteLength":9920,"byteOffset":88556,"target":34962},{"buffer":0,"byteLength":126,"byteOffset":98476,"target":34963},{"buffer":0,"byteLength":1008,"byteOffset":98604,"target":34962},{"buffer":0,"byteLength":1008,"byteOffset":99612,"target":34962},{"buffer":0,"byteLength":1344,"byteOffset":100620,"target":34962},{"buffer":0,"byteLength":672,"byteOffset":101964,"target":34962},{"buffer":0,"byteLength":6,"byteOffset":102636,"target":34963},{"buffer":0,"byteLength":48,"byteOffset":102644,"target":34962},{"buffer":0,"byteLength":48,"byteOffset":102692,"target":34962},{"buffer":0,"byteLength":64,"byteOffset":102740,"target":34962},{"buffer":0,"byteLength":32,"byteOffset":102804,"target":34962},{"buffer":0,"byteLength":2436,"byteOffset":102836,"target":34963},{"buffer":0,"byteLength":5280,"byteOffset":105272,"target":34962},{"buffer":0,"byteLength":5280,"byteOffset":110552,"target":34962},{"buffer":0,"byteLength":3520,"byteOffset":115832,"target":34962},{"buffer":0,"byteLength":4248,"byteOffset":119352,"target":34963},{"buffer":0,"byteLength":6624,"byteOffset":123600,"target":34962},{"buffer":0,"byteLength":6624,"byteOffset":130224,"target":34962},{"buffer":0,"byteLength":4416,"byteOffset":136848,"target":34962},{"buffer":0,"byteLength":5712,"byteOffset":141264,"target":34963},{"buffer":0,"byteLength":9600,"byteOffset":146976,"target":34962},{"buffer":0,"byteLength":9600,"byteOffset":156576,"target":34962},{"buffer":0,"byteLength":12800,"byteOffset":166176,"target":34962},{"buffer":0,"byteLength":6400,"byteOffset":178976,"target":34962}],"buffers":[{"byteLength":185376,"uri":"tv_stand.bin"}],"cameras":[{"extensions":{"S8S_v3d_camera":{"controls":"ORBIT","enablePan":true,"moveSpeed":1,"orbitMaxDistance":10000,"orbitMaxPolarAngle":3.141592653589793,"orbitMinDistance":0,"orbitMinPolarAngle":0,"orbitTarget":[0.09020384401082993,0.506780743598938,0.13965614140033722],"rotateSpeed":1,"viewportFitInitialAspect":1,"viewportFitType":"VERTICAL"}},"name":"__DEFAULT__","perspective":{"aspectRatio":1,"yfov":0.7853981633974483,"zfar":1000.0,"znear":0.009999999776482582},"type":"perspective"}],"extensions":{"S8S_v3d_materials":{"nodeGraphs":[{"edges":[{"fromNode":0,"fromOutput":0,"toInput":2,"toNode":3},{"fromNode":1,"fromOutput":0,"toInput":1,"toNode":3},{"fromNode":3,"fromOutput":0,"toInput":0,"toNode":2},{"fromNode":5,"fromOutput":0,"toInput":0,"toNode":6},{"fromNode":4,"fromOutput":2,"toInput":0,"toNode":3},{"fromNode":6,"fromOutput":0,"toInput":0,"toNode":4}],"name":"TV_Stand AO","nodes":[{"inputs":[],"is_active_output":false,"name":"Group Input","outputs":[[0,0,0,0]],"type":"GROUP_INPUT_BL"},{"inputs":[[0.0,0.0,0.0,1.0],0.0,[0.0,0.0,0.0]],"is_active_output":false,"name":"Diffuse BSDF","outputs":[[0,0,0,0]],"type":"BSDF_DIFFUSE_BL"},{"inputs":[[0,0,0,0]],"is_active_output":true,"name":"Group Output","outputs":[],"type":"GROUP_OUTPUT_BL"},{"inputs":[0.5,[0,0,0,0],[0,0,0,0]],"is_active_output":false,"name":"Mix Shader","outputs":[[0,0,0,0]],"type":"MIX_SHADER_BL"},{"blendType":"MIX","clampFactor":true,"clampResult":false,"dataType":"RGBA","factorMode":"UNIFORM","inputs":[0.5,[0.5,0.5,0.5],0.0,0.0,[0.0,0.0,0.0],[0.0,0.0,0.0],[0.03768346831202507,0.03768346831202507,0.03768346831202507,1.0],[1.0,1.0,1.0,1.0],0,0],"is_active_output":false,"name":"Mix","outputs":[0.0,[0.0,0.0,0.0],[0.0,0.0,0.0,0.0],0],"type":"MIX_BL"},{"inputs":[],"is_active_output":false,"name":"UV Map.001","outputs":[[0.0,0.0,0.0]],"type":"UVMAP_BL","uvLayer":"UVMap"},{"alphaMode":"STRAIGHT","inputs":[[0.0,0.0,0.0]],"is_active_output":false,"name":"Image Texture","outputs":[[0.0,0.0,0.0,0.0],0.0],"projection":"FLAT","projectionBlend":0.0,"texture":5,"type":"TEX_IMAGE_BL"}]}]}},"extensionsUsed":["KHR_texture_basisu","S8S_v3d_texture","S8S_v3d_materials","S8S_v3d_camera","S8S_v3d_mesh","S8S_v3d_node","S8S_v3d_scene"],"images":[{"uri":"painting_normal.ktx2"},{"uri":"painting_basecolor.ktx2"},{"uri":"Chair_wood_normal.ktx2"},{"uri":"Chair_wood_basecolor.ktx2"},{"uri":"environment.hdr.xz"},{"uri":"tv_stand_ao.jpg"}],"materials":[{"extensions":{"S8S_v3d_materials":{"gtaoVisible":true,"materialIndex":0,"nodeGraph":{"edges":[{"fromNode":1,"fromOutput":0,"toInput":0,"toNode":5},{"fromNode":7,"fromOutput":0,"toInput":1,"toNode":0},{"fromNode":0,"fromOutput":0,"toInput":5,"toNode":1},{"fromNode":6,"fromOutput":0,"toInput":0,"toNode":3},{"fromNode":3,"fromOutput":0,"toInput":0,"toNode":7},{"fromNode":0,"fromOutput":0,"toInput":1,"toNode":2},{"fromNode":2,"fromOutput":0,"toInput":11,"toNode":1},{"fromNode":3,"fromOutput":0,"toInput":0,"toNode":8},{"fromNode":8,"fromOutput":0,"toInput":0,"toNode":1},{"fromNode":5,"fromOutput":0,"toInput":0,"toNode":4}],"nodes":[{"inputs":[1.0,[0.5,0.5,1.0,1.0]],"is_active_output":false,"name":"Normal Map","outputs":[[0.0,0.0,0.0]],"type":"NORMAL_MAP_BL","uvLayer":""},{"inputs":[[0.6815623641014099,0.07521463185548782,0.0,1.0],0.0,0.4000000059604645,1.4500000476837158,1.0,[0.0,0.0,0.0],0.0,[1.0,0.20000000298023224,0.10000000149011612],0.05000000074505806,1.399999976158142,0.0,1.0,[1.0,1.0,1.0,1.0],0.0,0.0,[0.0,0.0,0.0],0.0,0.0,0.029999999329447746,1.5,[1.0,1.0,1.0,1.0],[0.0,0.0,0.0],0.0,0.5,[1.0,1.0,1.0,1.0],[0.0,0.0,0.0,1.0],1.0],"is_active_output":false,"name":"Principled BSDF","outputs":[[0,0,0,0]],"type":"BSDF_PRINCIPLED_BL"},{"inputs":[1.4500000476837158,[0.0,0.0,0.0]],"is_active_output":false,"name":"Fresnel","outputs":[0.0],"type":"FRESNEL_BL"},{"inputs":[[0.0,0.0,0.0],[0.0,0.0,0.0],[0.0,0.0,0.6457718014717102],[8.0,8.0,8.0]],"is_active_output":false,"name":"Mapping","outputs":[[0.0,0.0,0.0]],"type":"MAPPING_BL","vectorType":"POINT"},{"inputs":[[0,0,0,0],[0,0,0,0],[0.0,0.0,0.0],0.0],"is_active_output":true,"name":"Material Output","outputs":[],"type":"OUTPUT_MATERIAL_BL"},{"inputs":[[0,0,0,0]],"is_active_output":false,"name":"Group.001","nodeGraph":0,"outputs":[[0,0,0,0]],"type":"GROUP_BL"},{"inputs":[],"is_active_output":false,"name":"UV Map","outputs":[[0.0,0.0,0.0]],"type":"UVMAP_BL","uvLayer":"UVMap"},{"alphaMode":"STRAIGHT","inputs":[[0.0,0.0,0.0]],"is_active_output":false,"name":"Image Texture","outputs":[[0.0,0.0,0.0,0.0],0.0],"projection":"FLAT","projectionBlend":0.0,"texture":0,"type":"TEX_IMAGE_BL"},{"alphaMode":"STRAIGHT","inputs":[[0.0,0.0,0.0]],"is_active_output":false,"name":"Image Texture.001","outputs":[[0.0,0.0,0.0,0.0],0.0],"projection":"FLAT","projectionBlend":0.0,"texture":1,"type":"TEX_IMAGE_BL"}]},"useCastShadows":true}},"name":"panno"},{"extensions":{"S8S_v3d_materials":{"gtaoVisible":true,"materialIndex":0,"nodeGraph":{"edges":[{"fromNode":0,"fromOutput":0,"toInput":0,"toNode":4},{"fromNode":3,"fromOutput":0,"toInput":11,"toNode":0},{"fromNode":2,"fromOutput":1,"toInput":1,"toNode":3},{"fromNode":4,"fromOutput":0,"toInput":0,"toNode":1}],"nodes":[{"inputs":[[0.5444135069847107,0.5444135069847107,0.5444135069847107,1.0],0.581818163394928,0.30000001192092896,1.4500000476837158,1.0,[0.0,0.0,0.0],0.0,[1.0,0.20000000298023224,0.10000000149011612],0.05000000074505806,1.399999976158142,0.0,0.5,[1.0,1.0,1.0,1.0],0.0,0.0,[0.0,0.0,0.0],0.0,0.0,0.029999999329447746,1.5,[1.0,1.0,1.0,1.0],[0.0,0.0,0.0],0.0,0.5,[1.0,1.0,1.0,1.0],[0.0,0.0,0.0,1.0],1.0],"is_active_output":false,"name":"Principled BSDF","outputs":[[0,0,0,0]],"type":"BSDF_PRINCIPLED_BL"},{"inputs":[[0,0,0,0],[0,0,0,0],[0.0,0.0,0.0],0.0],"is_active_output":true,"name":"Material Output","outputs":[],"type":"OUTPUT_MATERIAL_BL"},{"inputs":[],"is_active_output":false,"name":"Geometry","outputs":[[0.0,0.0,0.0],[0.0,0.0,0.0],[0.0,0.0,0.0],[0.0,0.0,0.0],[0.0,0.0,0.0],[0.0,0.0,0.0],0.0,0.0,0.0],"type":"NEW_GEOMETRY_BL"},{"inputs":[1.4500000476837158,[0.0,0.0,0.0]],"is_active_output":false,"name":"Fresnel","outputs":[0.0],"type":"FRESNEL_BL"},{"inputs":[[0,0,0,0]],"is_active_output":false,"name":"Group.001","nodeGraph":0,"outputs":[[0,0,0,0]],"type":"GROUP_BL"}]},"useCastShadows":true}},"name":"tv_stand_chrome"},{"extensions":{"S8S_v3d_materials":{"gtaoVisible":true,"materialIndex":0,"nodeGraph":{"edges":[{"fromNode":0,"fromOutput":0,"toInput":0,"toNode":7},{"fromNode":2,"fromOutput":0,"toInput":11,"toNode":0},{"fromNode":1,"fromOutput":1,"toInput":1,"toNode":2},{"fromNode":4,"fromOutput":0,"toInput":2,"toNode":3},{"fromNode":3,"fromOutput":0,"toInput":5,"toNode":0},{"fromNode":5,"fromOutput":3,"toInput":0,"toNode":4},{"fromNode":7,"fromOutput":0,"toInput":0,"toNode":6}],"nodes":[{"inputs":[[0.617948591709137,0.617948591709137,0.617948591709137,1.0],0.0,0.10000000149011612,1.4500000476837158,1.0,[0.0,0.0,0.0],0.0,[1.0,0.20000000298023224,0.10000000149011612],0.05000000074505806,1.399999976158142,0.0,0.5,[1.0,1.0,1.0,1.0],0.0,0.0,[0.0,0.0,0.0],0.0,0.0,0.029999999329447746,1.5,[1.0,1.0,1.0,1.0],[0.0,0.0,0.0],0.0,0.5,[1.0,1.0,1.0,1.0],[0.0,0.0,0.0,1.0],1.0],"is_active_output":false,"name":"Principled BSDF","outputs":[[0,0,0,0]],"type":"BSDF_PRINCIPLED_BL"},{"inputs":[],"is_active_output":false,"name":"Geometry","outputs":[[0.0,0.0,0.0],[0.0,0.0,0.0],[0.0,0.0,0.0],[0.0,0.0,0.0],[0.0,0.0,0.0],[0.0,0.0,0.0],0.0,0.0,0.0],"type":"NEW_GEOMETRY_BL"},{"inputs":[1.4500000476837158,[0.0,0.0,0.0]],"is_active_output":false,"name":"Fresnel","outputs":[0.0],"type":"FRESNEL_BL"},{"inputs":[0.0010000000474974513,1.0,1.0,[0.0,0.0,0.0]],"invert":false,"is_active_output":false,"name":"Bump","outputs":[[0.0,0.0,0.0]],"type":"BUMP_BL"},{"dispersionFactor":1.0,"falloffFactor":0.0,"inputs":[[0.0,0.0,0.0],0.0,30.0,0.0,0.5,2.0,0.0],"is_active_output":false,"name":"Noise Texture","outputs":[0.0,[0.0,0.0,0.0,0.0]],"type":"TEX_NOISE_BL"},{"inputs":[],"is_active_output":false,"name":"Texture Coordinate","object":-1,"outputs":[[0.0,0.0,0.0],[0.0,0.0,0.0],[0.0,0.0,0.0],[0.0,0.0,0.0],[0.0,0.0,0.0],[0.0,0.0,0.0],[0.0,0.0,0.0]],"type":"TEX_COORD_BL"},{"inputs":[[0,0,0,0],[0,0,0,0],[0.0,0.0,0.0],0.0],"is_active_output":true,"name":"Material Output","outputs":[],"type":"OUTPUT_MATERIAL_BL"},{"inputs":[[0,0,0,0]],"is_active_output":false,"name":"Group.001","nodeGraph":0,"outputs":[[0,0,0,0]],"type":"GROUP_BL"}]},"useCastShadows":true}},"name":"tv_stand_paint"},{"extensions":{"S8S_v3d_materials":{"gtaoVisible":true,"materialIndex":0,"nodeGraph":{"edges":[{"fromNode":8,"fromOutput":0,"toInput":5,"toNode":1},{"fromNode":1,"fromOutput":0,"toInput":0,"toNode":11},{"fromNode":8,"fromOutput":0,"toInput":1,"toNode":2},{"fromNode":0,"fromOutput":0,"toInput":0,"toNode":13},{"fromNode":13,"fromOutput":0,"toInput":0,"toNode":1},{"fromNode":0,"fromOutput":0,"toInput":0,"toNode":12},{"fromNode":3,"fromOutput":0,"toInput":0,"toNode":0},{"fromNode":10,"fromOutput":2,"toInput":11,"toNode":1},{"fromNode":2,"fromOutput":0,"toInput":0,"toNode":10},{"fromNode":7,"fromOutput":2,"toInput":0,"toNode":3},{"fromNode":4,"fromOutput":0,"toInput":0,"toNode":7},{"fromNode":5,"fromOutput":0,"toInput":0,"toNode":6},{"fromNode":6,"fromOutput":0,"toInput":6,"toNode":7},{"fromNode":5,"fromOutput":0,"toInput":7,"toNode":7},{"fromNode":12,"fromOutput":0,"toInput":1,"toNode":8},{"fromNode":11,"fromOutput":0,"toInput":0,"toNode":9}],"nodes":[{"inputs":[[0.0,0.0,0.0]],"is_active_output":false,"name":"Reroute","outputs":[[0.0,0.0,0.0]],"type":"REROUTE_BL"},{"inputs":[[1.0,1.0,1.0,1.0],0.0,0.25,1.4500000476837158,1.0,[0.0,0.0,0.0],0.0,[1.0,0.20000000298023224,0.10000000149011612],0.05000000074505806,1.399999976158142,0.0,0.5,[1.0,1.0,1.0,1.0],0.0,0.0,[0.0,0.0,0.0],0.0,0.0,0.029999999329447746,1.5,[1.0,1.0,1.0,1.0],[0.0,0.0,0.0],0.0,0.5,[1.0,1.0,1.0,1.0],[0.0,0.0,0.0,1.0],1.0],"is_active_output":false,"name":"Principled BSDF","outputs":[[0,0,0,0]],"type":"BSDF_PRINCIPLED_BL"},{"inputs":[1.4500000476837158,[0.0,0.0,0.0]],"is_active_output":false,"name":"Fresnel","outputs":[0.0],"type":"FRESNEL_BL"},{"inputs":[[0.0,0.0,0.0],[0.0,0.0,0.0],[0.0,0.0,0.0],[12.0,12.0,12.0]],"is_active_output":false,"name":"Mapping","outputs":[[0.0,0.0,0.0]],"type":"MAPPING_BL","vectorType":"POINT"},{"colorLayer":"mask","inputs":[],"is_active_output":false,"name":"Attribute","outputs":[[0.0,0.0,0.0,0.0],[0.0,0.0,0.0],0.0,0.0],"type":"ATTRIBUTE_BL"},{"inputs":[],"is_active_output":false,"name":"UV Map","outputs":[[0.0,0.0,0.0]],"type":"UVMAP_BL","uvLayer":"UVMap"},{"inputs":[[0.0,0.0,0.0],[0.0,0.0,0.0],[0.0,0.0,1.5707963705062866],[1.0,1.0,1.0]],"is_active_output":false,"name":"Mapping.001","outputs":[[0.0,0.0,0.0]],"type":"MAPPING_BL","vectorType":"POINT"},{"blendType":"MIX","clampFactor":true,"clampResult":false,"dataType":"RGBA","factorMode":"UNIFORM","inputs":[0.5,[0.5,0.5,0.5],0.0,0.0,[0.0,0.0,0.0],[0.0,0.0,0.0],[0.5,0.5,0.5,1.0],[0.5,0.5,0.5,1.0],0,0],"is_active_output":false,"name":"Mix.001","outputs":[0.0,[0.0,0.0,0.0],[0.0,0.0,0.0,0.0],0],"type":"MIX_BL"},{"inputs":[1.0,[0.5,0.5,1.0,1.0]],"is_active_output":false,"name":"Normal Map","outputs":[[0.0,0.0,0.0]],"type":"NORMAL_MAP_BL","uvLayer":"UVMap"},{"inputs":[[0,0,0,0],[0,0,0,0],[0.0,0.0,0.0],0.0],"is_active_output":true,"name":"Material Output","outputs":[],"type":"OUTPUT_MATERIAL_BL"},{"blendType":"MIX","clampFactor":true,"clampResult":false,"dataType":"RGBA","factorMode":"UNIFORM","inputs":[1.0,[0.5,0.5,0.5],0.0,0.0,[0.0,0.0,0.0],[0.0,0.0,0.0],[0.0,0.0,0.0,1.0],[0.6499999761581421,0.6499999761581421,0.6499999761581421,1.0],0,0],"is_active_output":false,"name":"Mix","outputs":[0.0,[0.0,0.0,0.0],[0.0,0.0,0.0,0.0],0],"type":"MIX_BL"},{"inputs":[[0,0,0,0]],"is_active_output":false,"name":"Group.001","nodeGraph":0,"outputs":[[0,0,0,0]],"type":"GROUP_BL"},{"alphaMode":"STRAIGHT","inputs":[[0.0,0.0,0.0]],"is_active_output":false,"name":"Image Texture.002","outputs":[[0.0,0.0,0.0,0.0],0.0],"projection":"FLAT","projectionBlend":0.0,"texture":2,"type":"TEX_IMAGE_BL"},{"alphaMode":"STRAIGHT","inputs":[[0.0,0.0,0.0]],"is_active_output":false,"name":"Image Texture","outputs":[[0.0,0.0,0.0,0.0],0.0],"projection":"FLAT","projectionBlend":0.0,"texture":3,"type":"TEX_IMAGE_BL"}]},"useCastShadows":true}},"name":"tv_stand_wood"},{"extensions":{"S8S_v3d_materials":{"gtaoVisible":true,"materialIndex":0,"nodeGraph":{"edges":[{"fromNode":0,"fromOutput":0,"toInput":0,"toNode":2},{"fromNode":4,"fromOutput":1,"toInput":1,"toNode":3},{"fromNode":2,"fromOutput":0,"toInput":0,"toNode":1},{"fromNode":5,"fromOutput":2,"toInput":11,"toNode":0},{"fromNode":3,"fromOutput":0,"toInput":0,"toNode":5}],"nodes":[{"inputs":[[0.0,0.0006505486671812832,0.005947257857769728,1.0],0.0,0.0,1.4500000476837158,1.0,[0.0,0.0,0.0],0.0,[1.0,0.20000000298023224,0.10000000149011612],0.05000000074505806,1.399999976158142,0.0,1.0,[1.0,1.0,1.0,1.0],0.0,0.0,[0.0,0.0,0.0],0.0,0.0,0.029999999329447746,1.5,[1.0,1.0,1.0,1.0],[0.0,0.0,0.0],0.0,0.5,[1.0,1.0,1.0,1.0],[0.0,0.0,0.0,1.0],1.0],"is_active_output":false,"name":"Principled BSDF","outputs":[[0,0,0,0]],"type":"BSDF_PRINCIPLED_BL"},{"inputs":[[0,0,0,0],[0,0,0,0],[0.0,0.0,0.0],0.0],"is_active_output":true,"name":"Material Output","outputs":[],"type":"OUTPUT_MATERIAL_BL"},{"inputs":[[0,0,0,0]],"is_active_output":false,"name":"Group.001","nodeGraph":0,"outputs":[[0,0,0,0]],"type":"GROUP_BL"},{"inputs":[1.4500000476837158,[0.0,0.0,0.0]],"is_active_output":false,"name":"Fresnel","outputs":[0.0],"type":"FRESNEL_BL"},{"inputs":[],"is_active_output":false,"name":"Geometry","outputs":[[0.0,0.0,0.0],[0.0,0.0,0.0],[0.0,0.0,0.0],[0.0,0.0,0.0],[0.0,0.0,0.0],[0.0,0.0,0.0],0.0,0.0,0.0],"type":"NEW_GEOMETRY_BL"},{"blendType":"MIX","clampFactor":true,"clampResult":false,"dataType":"RGBA","factorMode":"UNIFORM","inputs":[0.5,[0.5,0.5,0.5],0.0,0.0,[0.0,0.0,0.0],[0.0,0.0,0.0],[0.05087608844041824,0.05087608844041824,0.05087608844041824,1.0],[1.0,1.0,1.0,1.0],0,0],"is_active_output":false,"name":"Mix","outputs":[0.0,[0.0,0.0,0.0],[0.0,0.0,0.0,0.0],0],"type":"MIX_BL"}]},"useCastShadows":true}},"name":"vase"},{"extensions":{"S8S_v3d_materials":{"gtaoVisible":true,"materialIndex":0,"nodeGraph":{"edges":[{"fromNode":0,"fromOutput":0,"toInput":0,"toNode":1},{"fromNode":4,"fromOutput":0,"toInput":6,"toNode":3},{"fromNode":2,"fromOutput":0,"toInput":0,"toNode":3},{"fromNode":3,"fromOutput":2,"toInput":0,"toNode":0}],"nodes":[{"inputs":[[0.05087608844041824,0.05087608844041824,0.05087608844041824,1.0],1.0],"is_active_output":false,"name":"Background","outputs":[[0,0,0,0]],"type":"BACKGROUND_BL"},{"inputs":[[0,0,0,0],[0,0,0,0]],"is_active_output":true,"name":"World Output","outputs":[],"type":"OUTPUT_WORLD_BL"},{"inputs":[],"is_active_output":false,"name":"Light Path","outputs":[0.0,0.0,0.0,0.0,0.0,0.0,0.0,0.0,0.0,0.0,0.0,0.0,0.0],"type":"LIGHT_PATH_BL"},{"blendType":"MIX","clampFactor":true,"clampResult":false,"dataType":"RGBA","factorMode":"UNIFORM","inputs":[0.5,[0.5,0.5,0.5],0.0,0.0,[0.0,0.0,0.0],[0.0,0.0,0.0],[0.5,0.5,0.5,1.0],[0.05126946419477463,0.05126946419477463,0.05126946419477463,1.0],0,0],"is_active_output":false,"name":"Mix","outputs":[0.0,[0.0,0.0,0.0],[0.0,0.0,0.0,0.0],0],"type":"MIX_BL"},{"inputs":[[0.0,0.0,0.0]],"is_active_output":false,"name":"Environment Texture","outputs":[[0.0,0.0,0.0,0.0]],"projection":"EQUIRECTANGULAR","texture":4,"type":"TEX_ENVIRONMENT_BL"}]},"useCastShadows":true}},"name":"Verge3D_Environment_World"}],"meshes":[{"extensions":{"S8S_v3d_mesh":{"colorLayers":{},"uvLayers":{"UVMap":"TEXCOORD_0"}}},"name":"Circle.001","primitives":[{"attributes":{"NORMAL":2,"POSITION":1,"TEXCOORD_0":3},"indices":0,"material":4,"mode":4}]},{"extensions":{"S8S_v3d_mesh":{"colorLayers":{},"uvLayers":{"UVMap":"TEXCOORD_0"}}},"name":"g_EU12S_0_0_G21","primitives":[{"attributes":{"NORMAL":6,"POSITION":5,"TEXCOORD_0":7},"indices":4,"material":1,"mode":4}]},{"extensions":{"S8S_v3d_mesh":{"colorLayers":{},"uvLayers":{"UVMap":"TEXCOORD_0"}}},"name":"Plane","primitives":[{"attributes":{"NORMAL":10,"POSITION":9,"TANGENT":11,"TEXCOORD_0":12},"indices":8,"material":3,"mode":4},{"attributes":{"NORMAL":15,"POSITION":14,"TANGENT":16,"TEXCOORD_0":17},"indices":13,"material":0,"mode":4}]},{"extensions":{"S8S_v3d_mesh":{"colorLayers":{},"uvLayers":{"UVMap":"TEXCOORD_0"}}},"name":"tv_stand","primitives":[{"attributes":{"NORMAL":20,"POSITION":19,"TEXCOORD_0":21},"indices":18,"material":2,"mode":4}]},{"extensions":{"S8S_v3d_mesh":{"colorLayers":{},"uvLayers":{"UVMap":"TEXCOORD_0"}}},"name":"tv_stand_doors","primitives":[{"attributes":{"NORMAL":24,"POSITION":23,"TEXCOORD_0":25},"indices":22,"material":2,"mode":4}]},{"extensions":{"S8S_v3d_mesh":{"colorLayers":{},"uvLayers":{"UVMap":"TEXCOORD_0"}}},"name":"tv_stand_legs","primitives":[{"attributes":{"NORMAL":28,"POSITION":27,"TANGENT":29,"TEXCOORD_0":30},"indices":26,"material":3,"mode":4}]}],"nodes":[{"extensions":{"S8S_v3d_node":{"frustumCulling":true,"groupNames":["tv_stand"],"hidden":false,"hidpiCompositing":false,"objectColor":[1.0,1.0,1.0,1.0],"objectIndex":0,"renderOrder":0,"useShadows":true}},"mesh":4,"name":"tv_stand_3"},{"extensions":{"S8S_v3d_node":{"frustumCulling":true,"groupNames":["tv_stand"],"hidden":false,"hidpiCompositing":false,"objectColor":[1.0,1.0,1.0,1.0],"objectIndex":0,"renderOrder":0,"useShadows":true}},"mesh":3,"name":"tv_stand_2"},{"extensions":{"S8S_v3d_node":{"frustumCulling":true,"groupNames":["tv_stand"],"hidden":false,"hidpiCompositing":false,"objectColor":[1.0,1.0,1.0,1.0],"objectIndex":0,"renderOrder":0,"useShadows":true}},"mesh":5,"name":"tv_stand_1"},{"extensions":{"S8S_v3d_node":{"frustumCulling":true,"groupNames":["tv_stand"],"hidden":false,"hidpiCompositing":false,"objectColor":[1.0,1.0,1.0,1.0],"objectIndex":0,"renderOrder":0,"useShadows":true}},"mesh":1,"name":"tv_stand_4"},{"children":[6,1,0,3,2,5],"extensions":{"S8S_v3d_node":{"frustumCulling":true,"groupNames":["tv_stand"],"hidden":false,"hidpiCompositing":false,"objectColor":[1.0,1.0,1.0,1.0],"objectIndex":0,"renderOrder":0}},"name":"tv_stand_base"},{"extensions":{"S8S_v3d_node":{"frustumCulling":true,"groupNames":["tv_stand"],"hidden":false,"hidpiCompositing":false,"objectColor":[1.0,1.0,1.0,1.0],"objectIndex":0,"renderOrder":0,"useShadows":true}},"mesh":0,"name":"Vase","rotation":[0.0,0.4088783264160156,-0.0,0.912588894367218],"translation":[1.2352697045349208e-16,0.4188581705093384,0.21472977101802826]},{"extensions":{"S8S_v3d_node":{"frustumCulling":true,"groupNames":["tv_stand"],"hidden":false,"hidpiCompositing":false,"objectColor":[1.0,1.0,1.0,1.0],"objectIndex":0,"renderOrder":0,"useShadows":true}},"mesh":2,"name":"frame","rotation":[0.40382230281829834,0.5804545283317566,-0.4038223624229431,0.5804545879364014],"translation":[-0.0493847019970417,0.7270796298980713,-0.3183383345603943]},{"camera":0,"name":"__DEFAULT_CAMERA__","rotation":[-0.2114281803369522,0.5355851054191589,0.13229186832904816,0.806812047958374],"scale":[0.9999998807907104,0.9999998807907104,0.9999997615814209],"translation":[1.551406979560852,1.3797016143798828,0.7486805319786072]}],"samplers":[{}],"scene":0,"scenes":[{"extensions":{"S8S_v3d_scene":{"aaMethod":"AUTO","iblEnvironmentMode":"PMREM","physicallyCorrectLights":true,"pmremMaxTileSize":512,"shadowMap":{"esmDistanceScale":1.0,"renderReverseSided":false,"renderSingleSided":true,"type":"PCFPOISSON"},"worldMaterial":5}},"extras":{"animFrameRate":24,"coordSystem":"Z_UP_RIGHT"},"name":"Scene","nodes":[4,7]}],"textures":[{"extensions":{"KHR_texture_basisu":{"source":0},"S8S_v3d_texture":{"colorSpace":"non-color"}},"name":"painting_normal.png","sampler":0},{"extensions":{"KHR_texture_basisu":{"source":1},"S8S_v3d_texture":{"colorSpace":"srgb"}},"name":"painting_basecolor.jpg","sampler":0},{"extensions":{"KHR_texture_basisu":{"source":2},"S8S_v3d_texture":{"colorSpace":"non-color"}},"name":"Chair_wood_normal.png","sampler":0},{"extensions":{"KHR_texture_basisu":{"source":3},"S8S_v3d_texture":{"colorSpace":"srgb"}},"name":"Chair_wood_basecolor.jpg","sampler":0},{"extensions":{"S8S_v3d_texture":{"colorSpace":"linear rec.709","source":4}},"name":"environment.hdr","sampler":0},{"extensions":{"S8S_v3d_texture":{"anisotropy":8,"colorSpace":"non-color"}},"name":"tv_stand_ao.jpg","sampler":0,"source":5}]}
