<?xml version="1.0" encoding="UTF-8" standalone="no"?>
<svg
   width="62"
   height="62"
   viewBox="0 0 16.404167 16.404167"
   version="1.1"
   id="svg2719"
   sodipodi:docname="help.svg"
   inkscape:version="1.2.2 (b0a8486541, 2022-12-01)"
   xmlns:inkscape="http://www.inkscape.org/namespaces/inkscape"
   xmlns:sodipodi="http://sodipodi.sourceforge.net/DTD/sodipodi-0.dtd"
   xmlns:xlink="http://www.w3.org/1999/xlink"
   xmlns="http://www.w3.org/2000/svg"
   xmlns:svg="http://www.w3.org/2000/svg"
   xmlns:rdf="http://www.w3.org/1999/02/22-rdf-syntax-ns#"
   xmlns:cc="http://creativecommons.org/ns#"
   xmlns:dc="http://purl.org/dc/elements/1.1/">
  <sodipodi:namedview
     id="namedview20"
     pagecolor="#505050"
     bordercolor="#eeeeee"
     borderopacity="1"
     inkscape:showpageshadow="0"
     inkscape:pageopacity="0"
     inkscape:pagecheckerboard="0"
     inkscape:deskcolor="#505050"
     showgrid="false"
     inkscape:zoom="7.6129032"
     inkscape:cx="49.455509"
     inkscape:cy="17.601695"
     inkscape:window-width="1920"
     inkscape:window-height="1177"
     inkscape:window-x="1912"
     inkscape:window-y="-8"
     inkscape:window-maximized="1"
     inkscape:current-layer="svg2719" />
  <defs
     id="defs2713">
    <linearGradient
       id="linearGradient1123">
      <stop
         style="stop-color:#414141;stop-opacity:1"
         offset="0"
         id="stop1119" />
      <stop
         style="stop-color:#767676;stop-opacity:1"
         offset="1"
         id="stop1121" />
    </linearGradient>
    <linearGradient
       gradientTransform="translate(-493.24109,-653.06985)"
       xlink:href="#linearGradient2768"
       id="linearGradient2673"
       x1="501.88306"
       y1="942.95502"
       x2="508.08038"
       y2="935.61182"
       gradientUnits="userSpaceOnUse" />
    <linearGradient
       id="linearGradient2768">
      <stop
         style="stop-color:#414141;stop-opacity:1"
         offset="0"
         id="stop2764" />
      <stop
         style="stop-color:#767676;stop-opacity:1"
         offset="1"
         id="stop2766" />
    </linearGradient>
    <linearGradient
       gradientTransform="translate(-493.24109,-653.06985)"
       xlink:href="#linearGradient2648"
       id="linearGradient2665"
       x1="495.62714"
       y1="948.00964"
       x2="508.85629"
       y2="934.78046"
       gradientUnits="userSpaceOnUse" />
    <linearGradient
       id="linearGradient2648">
      <stop
         style="stop-color:#ebebeb;stop-opacity:1"
         offset="0"
         id="stop2644" />
      <stop
         style="stop-color:#ffffff;stop-opacity:1"
         offset="1"
         id="stop2646" />
    </linearGradient>
    <filter
       style="color-interpolation-filters:sRGB"
       id="filter2688"
       x="-0.12"
       width="1.24"
       y="-0.12"
       height="1.24">
      <feGaussianBlur
         stdDeviation="0.66145835"
         id="feGaussianBlur2690" />
    </filter>
    <linearGradient
       inkscape:collect="always"
       xlink:href="#linearGradient1123"
       id="linearGradient993"
       x1="5.8030567"
       y1="12.285226"
       x2="10.467241"
       y2="4.8143625"
       gradientUnits="userSpaceOnUse"
       gradientTransform="matrix(1.0563414,0,0,1.0563414,-1.1169082,-0.8350001)" />
    <linearGradient
       inkscape:collect="always"
       xlink:href="#linearGradient1123"
       id="linearGradient1202"
       gradientUnits="userSpaceOnUse"
       gradientTransform="matrix(1.0563414,0,0,1.0563414,-1.1169082,-0.8350001)"
       x1="5.8030567"
       y1="12.285226"
       x2="10.467241"
       y2="4.8143625" />
  </defs>
  <metadata
     id="metadata2716">
    <rdf:RDF>
      <cc:Work
         rdf:about="">
        <dc:format>image/svg+xml</dc:format>
        <dc:type
           rdf:resource="http://purl.org/dc/dcmitype/StillImage" />
      </cc:Work>
    </rdf:RDF>
  </metadata>
  <g
     id="layer1"
     transform="translate(0,-280.59582)">
    <g
       id="g2754"
       transform="translate(-0.79853618,0.47271794)">
      <rect
         rx="0"
         ry="1.376092"
         y="281.7106"
         x="2.3860359"
         height="13.229167"
         width="13.229167"
         id="rect2614"
         style="display:inline;opacity:1;fill:#000000;fill-opacity:0.53005461;fill-rule:nonzero;stroke:none;stroke-width:0.71784258;stroke-linecap:round;stroke-linejoin:round;stroke-miterlimit:4;stroke-dasharray:none;stroke-dashoffset:0;stroke-opacity:1;paint-order:markers stroke fill;filter:url(#filter2688)" />
      <path
         id="rect2603"
         d="M 3.7621171,281.7106 H 14.2391 c 0.762355,0 1.376092,0.61374 1.376092,1.37609 v 10.47699 c 0,0.76235 -0.613737,1.37609 -1.376092,1.37609 H 3.7621171 c -0.7623549,0 -1.3760919,-0.61374 -1.3760919,-1.37609 v -10.47699 c 0,-0.76235 0.613737,-1.37609 1.3760919,-1.37609 z"
         style="display:inline;opacity:1;fill:url(#linearGradient2665);fill-opacity:1;fill-rule:nonzero;stroke:none;stroke-width:0.71784258;stroke-linecap:round;stroke-linejoin:round;stroke-miterlimit:4;stroke-dasharray:none;stroke-dashoffset:0;stroke-opacity:1;paint-order:markers stroke fill" />
    </g>
  </g>
  <g
     aria-label="?"
     id="text322"
     style="font-weight:bold;font-size:11.1796px;line-height:1.25;-inkscape-font-specification:'sans-serif Bold';fill:url(#linearGradient993);stroke-width:0.27949"
     transform="matrix(1.2666642,0,0,1.2666642,-2.1872017,-2.1872017)">
    <path
       d="m 7.4917488,9.8007661 q -0.089437,0 -0.1565144,-0.055898 -0.067078,-0.067078 -0.067078,-0.1565144 0,-0.067078 0,-0.1341552 0,-0.067078 0,-0.1229756 Q 7.3352344,8.9399369 7.5252876,8.6269081 7.7265203,8.3026997 7.9836511,8.0343893 8.2519615,7.7660789 8.4979127,7.5313073 8.7438639,7.2965357 8.9115579,7.0729437 9.0904315,6.8381721 9.1016111,6.6034005 9.1239703,6.3574493 9.0009947,6.1897553 8.8891987,6.0220613 8.6767863,5.9326245 8.4755535,5.8431878 8.2407819,5.8431878 q -0.447184,0 -0.7043147,0.2124123 -0.2571308,0.2124124 -0.3689268,0.6260576 -0.033539,0.1229756 -0.111796,0.2012328 -0.078257,0.067078 -0.2347716,0.067078 H 5.4570616 q -0.111796,0 -0.1900532,-0.078257 -0.078257,-0.089437 -0.078257,-0.223592 0.01118,-0.447184 0.2124124,-0.8720087 Q 5.613576,5.3512854 6.004862,5.0047178 6.4073276,4.6469706 6.9998464,4.4457378 7.5923652,4.2333254 8.3749371,4.2333254 q 0.83847,0 1.3862704,0.2012328 0.5589795,0.2012328 0.8720085,0.5254412 0.324209,0.3242084 0.458364,0.6931352 0.134155,0.3577471 0.122975,0.6707759 -0.02236,0.4024656 -0.167694,0.726674 -0.145334,0.3242084 -0.368926,0.6036984 -0.212413,0.2683104 -0.458364,0.5254412 -0.2347715,0.2459512 -0.4360043,0.503082 -0.2012328,0.2459512 -0.3018492,0.5254412 -0.022359,0.078257 -0.044718,0.1565144 -0.022359,0.067078 -0.033539,0.1453348 -0.067078,0.1453348 -0.1453348,0.223592 -0.067078,0.067078 -0.2012328,0.067078 z m 0.022359,2.3700749 q -0.1229756,0 -0.2012328,-0.07826 -0.078257,-0.08944 -0.078257,-0.201233 v -1.274474 q 0,-0.111796 0.078257,-0.190053 0.078257,-0.08944 0.2012328,-0.08944 h 1.4309887 q 0.1229756,0 0.2012328,0.08944 0.089437,0.07826 0.089437,0.190053 v 1.274474 q 0,0.111796 -0.089437,0.201233 -0.078257,0.07826 -0.2012328,0.07826 z"
       style="font-family:Rubik;-inkscape-font-specification:'Rubik Bold';fill:url(#linearGradient1202)"
       id="path1175" />
  </g>
</svg>
