{"accessors":[{"bufferView":0,"componentType":5123,"count":2052,"max":[530],"min":[0],"type":"SCALAR"},{"bufferView":1,"componentType":5126,"count":531,"max":[2.694276809692383,0.25414377450942993,2.6944446563720703],"min":[-2.7057228088378906,-0.24585624039173126,-2.705554962158203],"type":"VEC3"},{"bufferView":2,"componentType":5126,"count":531,"max":[1.0,1.0,1.0],"min":[-1.0,-1.0,-1.0],"type":"VEC3"},{"bufferView":3,"componentType":5126,"count":531,"max":[1.0,0.8333333730697632],"min":[8.881784197001252e-16,0.08333313465118408],"type":"VEC2"},{"bufferView":4,"componentType":5121,"count":1056,"max":[191],"min":[0],"type":"SCALAR"},{"bufferView":5,"componentType":5126,"count":192,"max":[1.4640271663665771,0.781521737575531,1.5323165655136108],"min":[-1.3756039142608643,-0.31047332286834717,-1.3808867931365967],"type":"VEC3"},{"bufferView":6,"componentType":5126,"count":192,"max":[0.9999737739562988,0.9999300241470337,0.9999756217002869],"min":[-0.999980628490448,-0.9999029040336609,-0.9999756217002869],"type":"VEC3"},{"bufferView":7,"componentType":5126,"count":192,"max":[0.0,1.0],"min":[0.0,1.0],"type":"VEC2"},{"bufferView":8,"componentType":5123,"count":1908,"max":[557],"min":[0],"type":"SCALAR"},{"bufferView":9,"componentType":5126,"count":558,"max":[14.73119831085205,29.4623966217041,14.73119831085205],"min":[-14.73119831085205,0.0,-14.73119831085205],"type":"VEC3"},{"bufferView":10,"componentType":5126,"count":558,"max":[1.0,0.9986535310745239,1.0],"min":[-1.0,-1.0,-1.0],"type":"VEC3"},{"bufferView":11,"componentType":5126,"count":558,"max":[1.0,0.9900000095367432],"min":[0.0,0.0],"type":"VEC2"},{"bufferView":12,"componentType":5121,"count":408,"max":[100],"min":[0],"type":"SCALAR"},{"bufferView":13,"componentType":5126,"count":101,"max":[1.1314955949783325,0.1210213452577591,1.3357508182525635],"min":[-1.1314955949783325,-0.911727786064148,-0.4858987629413605],"type":"VEC3"},{"bufferView":14,"componentType":5126,"count":101,"max":[0.9947603940963745,0.9973679780960083,0.9426363706588745],"min":[-0.9947603940963745,-0.22123493254184723,-0.9999416470527649],"type":"VEC3"},{"bufferView":15,"componentType":5126,"count":101,"max":[0.5000000596046448,1.0],"min":[0.0,-1.1920928955078125e-07],"type":"VEC2"},{"bufferView":16,"componentType":5123,"count":37464,"max":[6259],"min":[0],"type":"SCALAR"},{"bufferView":17,"componentType":5126,"count":6260,"max":[2.4471044540405273,6.061453342437744,6.289902210235596],"min":[-5.881644248962402,-4.962717056274414,-6.699705123901367],"type":"VEC3"},{"bufferView":18,"componentType":5126,"count":6260,"max":[1.0,0.9991877675056458,0.9999128580093384],"min":[-1.0,-0.999717652797699,-0.9995076656341553],"type":"VEC3"}],"asset":{"generator":"Verge3D for Blender v4.6.0","version":"2.0"},"bufferViews":[{"buffer":0,"byteLength":4104,"byteOffset":0,"target":34963},{"buffer":0,"byteLength":6372,"byteOffset":4104,"target":34962},{"buffer":0,"byteLength":6372,"byteOffset":10476,"target":34962},{"buffer":0,"byteLength":4248,"byteOffset":16848,"target":34962},{"buffer":0,"byteLength":1056,"byteOffset":21096,"target":34963},{"buffer":0,"byteLength":2304,"byteOffset":22152,"target":34962},{"buffer":0,"byteLength":2304,"byteOffset":24456,"target":34962},{"buffer":0,"byteLength":1536,"byteOffset":26760,"target":34962},{"buffer":0,"byteLength":3816,"byteOffset":28296,"target":34963},{"buffer":0,"byteLength":6696,"byteOffset":32112,"target":34962},{"buffer":0,"byteLength":6696,"byteOffset":38808,"target":34962},{"buffer":0,"byteLength":4464,"byteOffset":45504,"target":34962},{"buffer":0,"byteLength":408,"byteOffset":49968,"target":34963},{"buffer":0,"byteLength":1212,"byteOffset":50376,"target":34962},{"buffer":0,"byteLength":1212,"byteOffset":51588,"target":34962},{"buffer":0,"byteLength":808,"byteOffset":52800,"target":34962},{"buffer":0,"byteLength":74928,"byteOffset":53608,"target":34963},{"buffer":0,"byteLength":75120,"byteOffset":128536,"target":34962},{"buffer":0,"byteLength":75120,"byteOffset":203656,"target":34962}],"buffers":[{"byteLength":278776,"uri":"metaballs.bin"}],"cameras":[{"extensions":{"S8S_v3d_camera":{"controls":"ORBIT","enablePan":false,"moveSpeed":1.0,"orbitMaxDistance":30.0,"orbitMaxPolarAngle":1.3089969158172607,"orbitMaxZoom":100.0,"orbitMinDistance":15.0,"orbitMinPolarAngle":0.0,"orbitMinZoom":0.009999999776482582,"orbitTarget":[0.0,2.5,-0.0],"rotateSpeed":1.0,"viewportFitInitialAspect":1.6478872603070451,"viewportFitType":"AUTO"}},"name":"Camera","perspective":{"aspectRatio":1.6478872603070451,"yfov":0.4301648352482678,"zfar":60.0,"znear":0.09999993443489075},"type":"perspective"}],"extensions":{"S8S_v3d_lights":{"lights":[{"color":[1.0,0.8877628445625305,0.43051856756210327],"decay":2,"distance":31.622776955095866,"intensity":1000.0,"name":"Point","power":1000.0,"profile":"blender","shadow":{"bias":-0.0018,"cameraFar":31.622776955095866,"cameraFov":0,"cameraNear":0.05000000074505806,"enabled":true,"expBias":2.5,"mapSize":512,"radius":2.0,"slopeScaledBias":2.5},"type":"point"},{"color":[1.0,0.3550094664096832,0.5841289758682251],"decay":2,"distance":9.705668005056712,"intensity":94.19998931884766,"name":"Point.001","power":94.19998931884766,"profile":"blender","shadow":{"bias":-0.0018,"cameraFar":9.705668005056712,"cameraFov":0,"cameraNear":0.05000000074505806,"enabled":false,"expBias":2.5,"mapSize":512,"radius":1.0,"slopeScaledBias":2.5},"type":"point"},{"color":[0.25084051489830017,0.3963630199432373,1.0],"decay":2,"distance":20.64461093598488,"intensity":426.199951171875,"name":"Point.002","power":426.199951171875,"profile":"blender","shadow":{"bias":-0.0018,"cameraFar":20.64461093598488,"cameraFov":0,"cameraNear":0.05000000074505806,"enabled":true,"expBias":2.5,"mapSize":512,"radius":2.0,"slopeScaledBias":2.5},"type":"point"}]}},"extensionsUsed":["S8S_v3d_texture","S8S_v3d_materials","S8S_v3d_camera","S8S_v3d_lights","S8S_v3d_mesh","S8S_v3d_node","S8S_v3d_scene"],"images":[{"uri":"environment.hdr"}],"materials":[{"extensions":{"S8S_v3d_materials":{"gtaoVisible":true,"materialIndex":0,"nodeGraph":{"edges":[{"fromNode":0,"fromOutput":0,"toInput":0,"toNode":1}],"nodes":[{"inputs":[[0.03276548907160759,0.02885008230805397,0.02885008230805397,1.0],0.0,0.7863636016845703,1.4500000476837158,1.0,[0.0,0.0,0.0],0.0,[1.0,0.20000000298023224,0.10000000149011612],0.05000000074505806,1.399999976158142,0.0,0.5,[1.0,1.0,1.0,1.0],0.0,0.0,[0.0,0.0,0.0],0.0,0.0,0.029999999329447746,1.5,[1.0,1.0,1.0,1.0],[0.0,0.0,0.0],0.0,0.5,[1.0,1.0,1.0,1.0],[0.0,0.0,0.0,1.0],1.0],"is_active_output":false,"name":"Principled BSDF","outputs":[[0,0,0,0]],"type":"BSDF_PRINCIPLED_BL"},{"inputs":[[0,0,0,0],[0,0,0,0],[0.0,0.0,0.0],0.0],"is_active_output":true,"name":"Material Output","outputs":[],"type":"OUTPUT_MATERIAL_BL"}]},"useCastShadows":true}},"name":"background"},{"extensions":{"S8S_v3d_materials":{"gtaoVisible":true,"materialIndex":0,"nodeGraph":{"edges":[{"fromNode":6,"fromOutput":1,"toInput":0,"toNode":7},{"fromNode":12,"fromOutput":0,"toInput":0,"toNode":2},{"fromNode":2,"fromOutput":0,"toInput":0,"toNode":3},{"fromNode":1,"fromOutput":2,"toInput":2,"toNode":11},{"fromNode":5,"fromOutput":0,"toInput":7,"toNode":1},{"fromNode":3,"fromOutput":0,"toInput":6,"toNode":1},{"fromNode":7,"fromOutput":2,"toInput":6,"toNode":8},{"fromNode":4,"fromOutput":0,"toInput":0,"toNode":6},{"fromNode":4,"fromOutput":0,"toInput":0,"toNode":12},{"fromNode":4,"fromOutput":0,"toInput":0,"toNode":5},{"fromNode":8,"fromOutput":2,"toInput":0,"toNode":10},{"fromNode":10,"fromOutput":0,"toInput":0,"toNode":0},{"fromNode":9,"fromOutput":1,"toInput":7,"toNode":8},{"fromNode":11,"fromOutput":0,"toInput":5,"toNode":10}],"nodes":[{"inputs":[[0,0,0,0],[0,0,0,0],[0.0,0.0,0.0],0.0],"is_active_output":true,"name":"Material Output","outputs":[],"type":"OUTPUT_MATERIAL_BL"},{"blendType":"OVERLAY","clampFactor":true,"clampResult":false,"dataType":"RGBA","factorMode":"UNIFORM","inputs":[1.0,[0.5,0.5,0.5],0.0,0.0,[0.0,0.0,0.0],[0.0,0.0,0.0],[0.5,0.5,0.5,1.0],[0.5,0.5,0.5,1.0],0,0],"is_active_output":false,"name":"Mix.001","outputs":[0.0,[0.0,0.0,0.0],[0.0,0.0,0.0,0.0],0],"type":"MIX_BL"},{"inputs":[0.5,2.6999998092651367,0.0],"is_active_output":false,"name":"Math","operation":"MULTIPLY","outputs":[0.0],"type":"MATH_BL","useClamp":false},{"inputs":[0.5,0.19999992847442627,0.0],"is_active_output":false,"name":"Math.001","operation":"ADD","outputs":[0.0],"type":"MATH_BL","useClamp":false},{"inputs":[],"is_active_output":false,"name":"Geometry","outputs":[[0.0,0.0,0.0],[0.0,0.0,0.0],[0.0,0.0,0.0],[0.0,0.0,0.0],[0.0,0.0,0.0],[0.0,0.0,0.0],0.0,0.0,0.0],"type":"NEW_GEOMETRY_BL"},{"dispersionFactor":0.0,"falloffFactor":1.0,"inputs":[[0.0,0.0,0.0],0.0,5.0,1.1920928955078125e-07,1.0,2.0,0.0],"is_active_output":false,"name":"Noise Texture.002","outputs":[0.0,[0.0,0.0,0.0,0.0]],"type":"TEX_NOISE_BL"},{"dispersionFactor":0.0,"falloffFactor":1.0,"inputs":[[0.0,0.0,0.0],0.0,25.0,1.1920928955078125e-07,1.0,2.0,0.0],"is_active_output":false,"name":"Noise Texture","outputs":[0.0,[0.0,0.0,0.0,0.0]],"type":"TEX_NOISE_BL"},{"blendType":"MIX","clampFactor":true,"clampResult":false,"dataType":"RGBA","factorMode":"UNIFORM","inputs":[0.5,[0.5,0.5,0.5],0.0,0.0,[0.0,0.0,0.0],[0.0,0.0,0.0],[0.09998650848865509,0.04050721973180771,0.020568951964378357,1.0],[0.06414361298084259,0.023292599245905876,0.0010505737736821175,1.0],0,0],"is_active_output":false,"name":"Mix","outputs":[0.0,[0.0,0.0,0.0],[0.0,0.0,0.0,0.0],0],"type":"MIX_BL"},{"blendType":"MULTIPLY","clampFactor":true,"clampResult":false,"dataType":"RGBA","factorMode":"UNIFORM","inputs":[0.7250000238418579,[0.5,0.5,0.5],0.0,0.0,[0.0,0.0,0.0],[0.0,0.0,0.0],[0.5,0.5,0.5,1.0],[0.0,0.0,0.0,1.0],0,0],"is_active_output":false,"name":"Mix.002","outputs":[0.0,[0.0,0.0,0.0],[0.0,0.0,0.0,0.0],0],"type":"MIX_BL"},{"inputs":[0.5,[0.0,0.0,0.0]],"is_active_output":false,"name":"Layer Weight","outputs":[0.0,0.0],"type":"LAYER_WEIGHT_BL"},{"inputs":[[0.800000011920929,0.800000011920929,0.800000011920929,1.0],0.0,1.0,1.4500000476837158,1.0,[0.0,0.0,0.0],0.0,[1.0,0.20000000298023224,0.10000000149011612],0.05000000074505806,1.399999976158142,0.0,0.5,[1.0,1.0,1.0,1.0],0.0,0.0,[0.0,0.0,0.0],0.0,0.0,0.029999999329447746,1.5,[1.0,1.0,1.0,1.0],[0.0,0.0,0.0],0.20000000298023224,0.5,[1.0,1.0,1.0,1.0],[0.0,0.0,0.0,1.0],1.0],"is_active_output":false,"name":"Principled BSDF","outputs":[[0,0,0,0]],"type":"BSDF_PRINCIPLED_BL"},{"inputs":[0.10000000149011612,1.0,1.0,[0.0,0.0,0.0]],"invert":false,"is_active_output":false,"name":"Bump","outputs":[[0.0,0.0,0.0]],"type":"BUMP_BL"},{"dispersionFactor":0.20000000298023224,"falloffFactor":1.0,"inputs":[[0.0,0.0,0.0],0.0,50.0,1.1920928955078125e-07,1.0,2.0,0.0],"is_active_output":false,"name":"Noise Texture.001","outputs":[0.0,[0.0,0.0,0.0,0.0]],"type":"TEX_NOISE_BL"}]},"useCastShadows":true}},"name":"fur"},{"extensions":{"S8S_v3d_materials":{"gtaoVisible":true,"materialIndex":0,"nodeGraph":{"edges":[{"fromNode":0,"fromOutput":0,"toInput":0,"toNode":1},{"fromNode":2,"fromOutput":0,"toInput":2,"toNode":3},{"fromNode":3,"fromOutput":0,"toInput":5,"toNode":0}],"nodes":[{"inputs":[[0.012668853625655174,0.012668853625655174,0.012668853625655174,1.0],0.0,0.37727272510528564,1.4500000476837158,1.0,[0.0,0.0,0.0],0.0,[1.0,0.20000000298023224,0.10000000149011612],0.05000000074505806,1.399999976158142,0.0,0.5,[1.0,1.0,1.0,1.0],0.0,0.0,[0.0,0.0,0.0],0.0,0.0,0.029999999329447746,1.5,[1.0,1.0,1.0,1.0],[0.0,0.0,0.0],0.0,0.5,[1.0,1.0,1.0,1.0],[0.0,0.0,0.0,1.0],1.0],"is_active_output":false,"name":"Principled BSDF","outputs":[[0,0,0,0]],"type":"BSDF_PRINCIPLED_BL"},{"inputs":[[0,0,0,0],[0,0,0,0],[0.0,0.0,0.0],0.0],"is_active_output":true,"name":"Material Output","outputs":[],"type":"OUTPUT_MATERIAL_BL"},{"dispersionFactor":0.20000000298023224,"falloffFactor":1.0,"inputs":[[0.0,0.0,0.0],0.0,50.0,1.1920928955078125e-07,1.0,2.0,0.0],"is_active_output":false,"name":"Noise Texture.001","outputs":[0.0,[0.0,0.0,0.0,0.0]],"type":"TEX_NOISE_BL"},{"inputs":[0.11666663736104965,1.0,1.0,[0.0,0.0,0.0]],"invert":false,"is_active_output":false,"name":"Bump","outputs":[[0.0,0.0,0.0]],"type":"BUMP_BL"}]},"useCastShadows":true}},"name":"nose"},{"extensions":{"S8S_v3d_materials":{"gtaoVisible":true,"materialIndex":0,"nodeGraph":{"edges":[{"fromNode":0,"fromOutput":0,"toInput":0,"toNode":1}],"nodes":[{"inputs":[[0.06689903140068054,0.15672872960567474,0.34698396921157837,1.0],0.0,0.267036497592926,1.4500000476837158,1.0,[0.0,0.0,0.0],0.0,[1.0,0.20000000298023224,0.10000000149011612],0.05000000074505806,1.399999976158142,0.0,0.5,[1.0,1.0,1.0,1.0],0.0,0.0,[0.0,0.0,0.0],0.0,0.0,0.029999999329447746,1.5,[1.0,1.0,1.0,1.0],[0.0,0.0,0.0],0.0,0.5,[1.0,1.0,1.0,1.0],[0.0,0.0,0.0,1.0],1.0],"is_active_output":false,"name":"Principled BSDF","outputs":[[0,0,0,0]],"type":"BSDF_PRINCIPLED_BL"},{"inputs":[[0,0,0,0],[0,0,0,0],[0.0,0.0,0.0],0.0],"is_active_output":true,"name":"Material Output","outputs":[],"type":"OUTPUT_MATERIAL_BL"}]},"useCastShadows":true}},"name":"plastic"},{"extensions":{"S8S_v3d_materials":{"gtaoVisible":true,"materialIndex":0,"nodeGraph":{"edges":[{"fromNode":1,"fromOutput":0,"toInput":0,"toNode":0}],"nodes":[{"inputs":[[0,0,0,0],[0,0,0,0],[0.0,0.0,0.0],0.0],"is_active_output":true,"name":"Material Output","outputs":[],"type":"OUTPUT_MATERIAL_BL"},{"inputs":[[0.08517361432313919,0.03509881719946861,0.04205058515071869,1.0],0.5,[0.0,0.0,0.0]],"is_active_output":false,"name":"Diffuse BSDF","outputs":[[0,0,0,0]],"type":"BSDF_DIFFUSE_BL"}]},"useCastShadows":true}},"name":"sneets"},{"extensions":{"S8S_v3d_materials":{"gtaoVisible":true,"materialIndex":0,"nodeGraph":{"edges":[{"fromNode":1,"fromOutput":0,"toInput":0,"toNode":0},{"fromNode":2,"fromOutput":0,"toInput":0,"toNode":1}],"nodes":[{"inputs":[[0,0,0,0],[0,0,0,0]],"is_active_output":true,"name":"World Output","outputs":[],"type":"OUTPUT_WORLD_BL"},{"inputs":[[0.05087608844041824,0.05087608844041824,0.05087608844041824,1.0],0.10000008344650269],"is_active_output":false,"name":"Background","outputs":[[0,0,0,0]],"type":"BACKGROUND_BL"},{"inputs":[[0.0,0.0,0.0]],"is_active_output":false,"name":"Environment Texture","outputs":[[0.0,0.0,0.0,0.0]],"projection":"EQUIRECTANGULAR","texture":0,"type":"TEX_ENVIRONMENT_BL"}]},"useCastShadows":true}},"name":"Verge3D_Environment_World"}],"meshes":[{"extensions":{"S8S_v3d_mesh":{"colorLayers":{},"uvLayers":{"UVMap":"TEXCOORD_0"}}},"name":"button","primitives":[{"attributes":{"NORMAL":2,"POSITION":1,"TEXCOORD_0":3},"indices":0,"material":3,"mode":4},{"attributes":{"NORMAL":6,"POSITION":5,"TEXCOORD_0":7},"indices":4,"material":4,"mode":4}]},{"extensions":{"S8S_v3d_mesh":{"colorLayers":{},"uvLayers":{"UVMap":"TEXCOORD_0"}}},"name":"Cylinder","primitives":[{"attributes":{"NORMAL":10,"POSITION":9,"TEXCOORD_0":11},"indices":8,"material":0,"mode":4}]},{"extensions":{"S8S_v3d_mesh":{"colorLayers":{},"uvLayers":{"UVMap":"TEXCOORD_0"}}},"name":"Plane","primitives":[{"attributes":{"NORMAL":14,"POSITION":13,"TEXCOORD_0":15},"indices":12,"material":2,"mode":4}]},{"extensions":{"S8S_v3d_mesh":{"colorLayers":{},"uvLayers":{}}},"name":"Mball.006","primitives":[{"attributes":{"NORMAL":18,"POSITION":17},"indices":16,"material":1,"mode":4}]}],"nodes":[{"extensions":{"S8S_v3d_node":{"frustumCulling":true,"groupNames":["Collection"],"hidden":false,"hidpiCompositing":false,"objectColor":[1.0,1.0,1.0,1.0],"objectIndex":0,"renderOrder":0,"useShadows":true}},"mesh":3,"name":"Mball","rotation":[-4.750302551315144e-08,4.7503014855010406e-08,-0.7071066498756409,0.70710688829422],"scale":[0.7491763830184937,1.0642622709274292,1.0642622709274292],"translation":[0.0,1.7761536836624146,-0.0]},{"extensions":{"S8S_v3d_node":{"frustumCulling":true,"groupNames":["Collection"],"hidden":false,"hidpiCompositing":false,"objectColor":[1.0,1.0,1.0,1.0],"objectIndex":0,"renderOrder":0,"useShadows":true}},"name":"Mball.004","rotation":[0.0,-0.1277853548526764,-0.0,0.9918018579483032],"scale":[0.5747119784355164,0.6274502873420715,0.5139395594596863],"translation":[0.8526715040206909,0.6445642709732056,1.527895212173462]},{"extensions":{"S8S_v3d_node":{"frustumCulling":true,"groupNames":["Collection"],"hidden":false,"hidpiCompositing":false,"objectColor":[1.0,1.0,1.0,1.0],"objectIndex":0,"renderOrder":0,"useShadows":true}},"name":"Mball.008","rotation":[0.0,-0.17072738707065582,-0.0,0.9853183031082153],"scale":[0.5148733258247375,0.7978654503822327,0.7181320786476135],"translation":[2.285569429397583,0.934321939945221,1.819474220275879]},{"extensions":{"S8S_v3d_node":{"frustumCulling":true,"groupNames":["Collection"],"hidden":false,"hidpiCompositing":false,"objectColor":[1.0,1.0,1.0,1.0],"objectIndex":0,"renderOrder":0,"useShadows":true}},"name":"Mball.016","rotation":[-0.11892224848270416,-0.0,-0.9929035902023315,0.0],"scale":[-0.5148733258247375,-0.7978654503822327,-0.7181320786476135],"translation":[2.2314183712005615,0.934321939945221,-1.819474220275879]},{"extensions":{"S8S_v3d_node":{"frustumCulling":true,"groupNames":["Collection"],"hidden":false,"hidpiCompositing":false,"objectColor":[1.0,1.0,1.0,1.0],"objectIndex":0,"renderOrder":0,"useShadows":true}},"name":"Mball.012","rotation":[-2.7573056956154557e-15,-3.455886243841633e-08,0.25721317529678345,0.9663546681404114],"scale":[0.3689720034599304,0.32117003202438354,0.32117003202438354],"translation":[-1.3880715370178223,0.700798511505127,-1.5084886229033145e-07]},{"extensions":{"S8S_v3d_node":{"frustumCulling":true,"groupNames":["Collection"],"hidden":false,"hidpiCompositing":false,"objectColor":[1.0,1.0,1.0,1.0],"objectIndex":0,"renderOrder":0,"useShadows":true}},"name":"Mball.020","rotation":[0.0,0.3219392001628876,-0.0,0.946760356426239],"scale":[0.691893458366394,0.6918933987617493,0.691893458366394],"translation":[-2.0855352878570557,0.7300232648849487,-4.7591681480407715]},{"extensions":{"S8S_v3d_node":{"frustumCulling":true,"groupNames":["Collection"],"hidden":false,"hidpiCompositing":false,"objectColor":[1.0,1.0,1.0,1.0],"objectIndex":0,"renderOrder":0,"useShadows":true}},"mesh":0,"name":"button","rotation":[-0.25463777780532837,-0.08326011151075363,-0.5057587623596191,0.8200216293334961],"scale":[0.08954965323209763,0.08954965323209763,0.08954965323209763],"translation":[0.9291790127754211,5.1280083656311035,-0.644225001335144]},{"extensions":{"S8S_v3d_node":{"frustumCulling":true,"groupNames":["Collection"],"hidden":false,"hidpiCompositing":false,"objectColor":[1.0,1.0,1.0,1.0],"objectIndex":0,"renderOrder":0,"useShadows":true}},"mesh":2,"name":"Plane","rotation":[0.5227060914039612,0.4762125313282013,-0.4762125611305237,0.5227060317993164],"scale":[0.3556382954120636,0.3556382954120636,0.3556382954120636],"translation":[1.8135825395584106,4.6066179275512695,0.07701662182807922]},{"extensions":{"S8S_v3d_node":{"frustumCulling":true,"groupNames":["Collection"],"hidden":false,"hidpiCompositing":false,"objectColor":[1.0,1.0,1.0,1.0],"objectIndex":0,"renderOrder":0,"useShadows":true}},"name":"Mball.003","rotation":[0.22484400868415833,0.0010589250596240163,-0.0727187991142273,0.9716769456863403],"scale":[0.34990960359573364,0.4535660743713379,0.45138755440711975],"translation":[1.0549653768539429,2.3325345516204834,1.9215461015701294]},{"extensions":{"S8S_v3d_node":{"frustumCulling":true,"groupNames":["Collection"],"hidden":false,"hidpiCompositing":false,"objectColor":[1.0,1.0,1.0,1.0],"objectIndex":0,"renderOrder":0,"useShadows":true}},"name":"Mball.007","rotation":[0.35991203784942627,0.2021014243364334,0.0801706463098526,0.907298743724823],"scale":[0.2634132504463196,0.6356439590454102,0.5334008932113647],"translation":[-0.4364229440689087,5.515868186950684,-1.5005320310592651]},{"extensions":{"S8S_v3d_node":{"frustumCulling":true,"groupNames":["Collection"],"hidden":false,"hidpiCompositing":false,"objectColor":[1.0,1.0,1.0,1.0],"objectIndex":0,"renderOrder":0,"useShadows":true}},"name":"Mball.011","scale":[0.6145325303077698,0.6145325303077698,0.6145325303077698],"translation":[-0.6804978847503662,0.9217734932899475,-1.0501215541580677e-07]},{"extensions":{"S8S_v3d_node":{"frustumCulling":true,"groupNames":["Collection"],"hidden":false,"hidpiCompositing":false,"objectColor":[1.0,1.0,1.0,1.0],"objectIndex":0,"renderOrder":0,"useShadows":true}},"name":"Mball.015","rotation":[-0.11168865114450455,-0.0,-0.9937432408332825,0.0],"scale":[-0.6004652976989746,-0.617043137550354,-0.5099968314170837],"translation":[0.8526483774185181,0.6445642709732056,-1.5739176273345947]},{"extensions":{"S8S_v3d_node":{"frustumCulling":true,"groupNames":["Collection"],"hidden":false,"hidpiCompositing":false,"objectColor":[1.0,1.0,1.0,1.0],"objectIndex":0,"renderOrder":0,"useShadows":true}},"name":"Mball.019","rotation":[0.0,-0.35425326228141785,-0.0,0.9351494908332825],"scale":[0.30455806851387024,0.30455803871154785,0.30455806851387024],"translation":[5.687282085418701,0.6785564422607422,-0.4355047941207886]},{"extensions":{"S8S_v3d_lights":{"light":2},"S8S_v3d_node":{"frustumCulling":true,"groupNames":["Collection"],"hidden":false,"hidpiCompositing":false,"objectColor":[1.0,1.0,1.0,1.0],"objectIndex":0,"renderOrder":0}},"name":"Point.002","rotation":[-0.7071067690849304,0.0,0.0,0.7071067690849304],"scale":[1.0,0.9999999403953552,0.9999999403953552],"translation":[4.622593879699707,2.2357425689697266,-6.877384662628174]},{"extensions":{"S8S_v3d_node":{"frustumCulling":true,"groupNames":["Collection"],"hidden":false,"hidpiCompositing":false,"objectColor":[1.0,1.0,1.0,1.0],"objectIndex":0,"renderOrder":0,"useShadows":true}},"mesh":1,"name":"Cylinder"},{"extensions":{"S8S_v3d_node":{"frustumCulling":true,"groupNames":["Collection"],"hidden":false,"hidpiCompositing":false,"objectColor":[1.0,1.0,1.0,1.0],"objectIndex":0,"renderOrder":0,"useShadows":true}},"name":"Mball.023","rotation":[0.0,0.7309536337852478,-0.0,0.6824271082878113],"scale":[1.0175561904907227,0.42155250906944275,1.0175561904907227],"translation":[-4.369009017944336,0.5159638524055481,-5.770161151885986]},{"extensions":{"S8S_v3d_node":{"frustumCulling":true,"groupNames":["Collection"],"hidden":false,"hidpiCompositing":false,"objectColor":[1.0,1.0,1.0,1.0],"objectIndex":0,"renderOrder":0,"useShadows":true}},"name":"Mball.002","rotation":[-0.06549829244613647,-0.31991302967071533,-0.2939129173755646,0.8983210921287537],"scale":[0.34703323245048523,0.4196251332759857,0.4441976249217987],"translation":[0.24647952616214752,2.697800636291504,1.6299352645874023]},{"extensions":{"S8S_v3d_node":{"frustumCulling":true,"groupNames":["Collection"],"hidden":false,"hidpiCompositing":false,"objectColor":[1.0,1.0,1.0,1.0],"objectIndex":0,"renderOrder":0,"useShadows":true}},"name":"Mball.006","rotation":[-0.2912783622741699,-0.15510432422161102,0.04792138561606407,0.9427635669708252],"scale":[0.26687175035476685,0.6184371113777161,0.5334008932113647],"translation":[-0.4364229440689087,5.4721784591674805,1.4945685863494873]},{"extensions":{"S8S_v3d_node":{"frustumCulling":true,"groupNames":["Collection"],"hidden":false,"hidpiCompositing":false,"objectColor":[1.0,1.0,1.0,1.0],"objectIndex":0,"renderOrder":0,"useShadows":true}},"name":"Mball.018","rotation":[0.0,0.20471715927124023,-0.0,0.9788211584091187],"scale":[0.2625323235988617,0.2625323235988617,0.2625323235988617],"translation":[3.8936498165130615,0.6121256351470947,-0.20299690961837769]},{"extensions":{"S8S_v3d_node":{"frustumCulling":true,"groupNames":["Collection"],"hidden":false,"hidpiCompositing":false,"objectColor":[1.0,1.0,1.0,1.0],"objectIndex":0,"renderOrder":0,"useShadows":true}},"name":"Mball.010","scale":[0.176296204328537,0.23155687749385834,0.2732262909412384],"translation":[1.5056493282318115,4.5806193351745605,4.438157930053421e-08]},{"extensions":{"S8S_v3d_node":{"frustumCulling":true,"groupNames":["Collection"],"hidden":false,"hidpiCompositing":false,"objectColor":[1.0,1.0,1.0,1.0],"objectIndex":0,"renderOrder":0,"useShadows":true}},"name":"Mball.014","rotation":[0.018681790679693222,-0.3142387568950653,0.9490918517112732,0.011387853883206844],"scale":[-0.33031171560287476,-0.4560522437095642,-0.4538618326187134],"translation":[1.0960241556167603,2.403425455093384,-1.8685640096664429]},{"extensions":{"S8S_v3d_lights":{"light":1},"S8S_v3d_node":{"frustumCulling":true,"groupNames":["Collection"],"hidden":false,"hidpiCompositing":false,"objectColor":[1.0,1.0,1.0,1.0],"objectIndex":0,"renderOrder":0}},"name":"Point.001","rotation":[-0.6634103059768677,-0.42522531747817993,0.5925816893577576,0.16708432137966156],"scale":[1.0,0.9999999403953552,0.9999998807907104],"translation":[-6.7832770347595215,2.675023078918457,-2.152070999145508]},{"camera":0,"extensions":{"S8S_v3d_node":{"frustumCulling":true,"groupNames":["Collection"],"hidden":false,"hidpiCompositing":false,"objectColor":[1.0,1.0,1.0,1.0],"objectIndex":0,"renderOrder":0}},"name":"Camera","rotation":[-0.07652589678764343,0.83985835313797,0.12285320460796356,0.5231528282165527],"scale":[0.9999998807907104,0.9999997615814209,0.9999998211860657],"translation":[18.07413101196289,8.520076751708984,-8.878666877746582]},{"extensions":{"S8S_v3d_node":{"frustumCulling":true,"groupNames":["Collection"],"hidden":false,"hidpiCompositing":false,"objectColor":[1.0,1.0,1.0,1.0],"objectIndex":0,"renderOrder":0,"useShadows":true}},"name":"Mball.022","rotation":[0.0,-0.15446686744689941,-0.0,0.9879980087280273],"scale":[0.4384068548679352,0.4384068548679352,0.4384068548679352],"translation":[-1.1516308784484863,0.4949565529823303,6.070001602172852]},{"extensions":{"S8S_v3d_node":{"frustumCulling":true,"groupNames":["Collection"],"hidden":false,"hidpiCompositing":false,"objectColor":[1.0,1.0,1.0,1.0],"objectIndex":0,"renderOrder":0,"useShadows":true}},"name":"Mball.001","scale":[1.0918710231781006,1.243056058883667,1.4075679779052734],"translation":[-0.11913226544857025,4.63532829284668,4.365401373718214e-09]},{"extensions":{"S8S_v3d_node":{"frustumCulling":true,"groupNames":["Collection"],"hidden":false,"hidpiCompositing":false,"objectColor":[1.0,1.0,1.0,1.0],"objectIndex":0,"renderOrder":0,"useShadows":true}},"name":"Mball.005","scale":[0.3441709876060486,0.4520525634288788,0.5334008932113647],"translation":[1.2258689403533936,4.2827887535095215,4.365401373718214e-09]},{"extensions":{"S8S_v3d_node":{"frustumCulling":true,"groupNames":["Collection"],"hidden":false,"hidpiCompositing":false,"objectColor":[1.0,1.0,1.0,1.0],"objectIndex":0,"renderOrder":0,"useShadows":true}},"name":"Mball.009","scale":[1.0,0.840893566608429,1.0],"translation":[0.045125849545001984,1.0587986707687378,-1.7340344982130773e-07]},{"extensions":{"S8S_v3d_node":{"frustumCulling":true,"groupNames":["Collection"],"hidden":false,"hidpiCompositing":false,"objectColor":[1.0,1.0,1.0,1.0],"objectIndex":0,"renderOrder":0,"useShadows":true}},"name":"Mball.017","rotation":[0.0,-0.23592324554920197,-0.0,0.9717717170715332],"scale":[0.29676568508148193,0.29676568508148193,0.29676568508148193],"translation":[4.159372806549072,0.645341157913208,-1.780728816986084]},{"extensions":{"S8S_v3d_node":{"frustumCulling":true,"groupNames":["Collection"],"hidden":false,"hidpiCompositing":false,"objectColor":[1.0,1.0,1.0,1.0],"objectIndex":0,"renderOrder":0,"useShadows":true}},"name":"Mball.013","rotation":[-0.2355237454175949,0.31506404280662537,-0.1876256763935089,0.9000332355499268],"scale":[0.34703323245048523,0.4196251332759857,0.44419801235198975],"translation":[0.24647952616214752,2.689833402633667,-1.582132339477539]},{"extensions":{"S8S_v3d_lights":{"light":0},"S8S_v3d_node":{"frustumCulling":true,"groupNames":["Collection"],"hidden":false,"hidpiCompositing":false,"objectColor":[1.0,1.0,1.0,1.0],"objectIndex":0,"renderOrder":0}},"name":"Point","rotation":[-0.7071067690849304,0.0,0.0,0.7071067690849304],"scale":[1.0,0.9999999403953552,0.9999999403953552],"translation":[4.5963006019592285,5.957732677459717,5.053572654724121]},{"extensions":{"S8S_v3d_node":{"frustumCulling":true,"groupNames":["Collection"],"hidden":false,"hidpiCompositing":false,"objectColor":[1.0,1.0,1.0,1.0],"objectIndex":0,"renderOrder":0,"useShadows":true}},"name":"Mball.021","rotation":[0.0,0.4683641791343689,-0.0,0.8835355043411255],"scale":[0.628913402557373,0.628913402557373,0.628913402557373],"translation":[-2.750994920730591,0.7207700610160828,4.4765825271606445]},{"extensions":{"S8S_v3d_node":{"frustumCulling":true,"groupNames":["Collection"],"hidden":false,"hidpiCompositing":false,"objectColor":[1.0,1.0,1.0,1.0],"objectIndex":0,"renderOrder":0,"useShadows":true}},"mesh":0,"name":"button.001","rotation":[0.1839069128036499,-0.03881475329399109,-0.5433123707771301,0.8182196617126465],"scale":[0.08954965323209763,0.08954965323209763,0.08954965323209763],"translation":[0.9354394674301147,5.095300674438477,0.6895622611045837]}],"samplers":[{}],"scene":0,"scenes":[{"extensions":{"S8S_v3d_scene":{"aaMethod":"AUTO","iblEnvironmentMode":"PMREM","physicallyCorrectLights":true,"pmremMaxTileSize":512,"shadowMap":{"esmDistanceScale":1.0,"renderReverseSided":false,"renderSingleSided":true,"type":"PCFPOISSON"},"toneMapping":{"type":"filmicBlender"},"worldMaterial":5}},"extras":{"animFrameRate":24,"coordSystem":"Z_UP_RIGHT"},"name":"Scene","nodes":[0,24,16,8,1,25,17,9,2,26,19,10,4,11,3,28,20,27,18,12,29,21,13,22,14,5,30,23,31,6,7,15]}],"textures":[{"extensions":{"S8S_v3d_texture":{"colorSpace":"linear rec.709","source":0}},"name":"environment.hdr","sampler":0}]}
