{"accessors":[{"bufferView":0,"componentType":5123,"count":15534,"max":[4219],"min":[0],"type":"SCALAR"},{"bufferView":1,"componentType":5126,"count":4220,"max":[1.1635085344314575,2.140868663787842,2.893397331237793],"min":[-1.165079951286316,-5.210748672485352,-1.929335355758667],"type":"VEC3"},{"bufferView":2,"componentType":5126,"count":4220,"max":[1.0,1.0,1.0],"min":[-1.0,-1.0,-1.0],"type":"VEC3"},{"bufferView":3,"componentType":5126,"count":4220,"max":[1.402580976486206,1.0],"min":[0.0,-0.40258097648620605],"type":"VEC2"},{"bufferView":4,"componentType":5123,"count":7272,"max":[1739],"min":[0],"type":"SCALAR"},{"bufferView":5,"componentType":5126,"count":1740,"max":[6.55532693862915,0.42613133788108826,1.1861236095428467],"min":[-0.4261314570903778,-3.2835001945495605,-3.358924150466919],"type":"VEC3"},{"bufferView":6,"componentType":5126,"count":1740,"max":[1.0,1.0,1.0],"min":[-1.0,-1.0,-1.0],"type":"VEC3"},{"bufferView":7,"componentType":5126,"count":1740,"max":[0.0,1.0],"min":[0.0,1.0],"type":"VEC2"},{"bufferView":8,"componentType":5123,"count":22488,"max":[9895],"min":[0],"type":"SCALAR"},{"bufferView":9,"componentType":5126,"count":9896,"max":[0.9881998300552368,0.03215641528367996,0.9892448782920837],"min":[-0.9910776019096375,-0.03215671703219414,-0.9900324940681458],"type":"VEC3"},{"bufferView":10,"componentType":5126,"count":9896,"max":[1.0,1.0,1.0],"min":[-1.0,-1.0,-1.0],"type":"VEC3"},{"bufferView":11,"componentType":5126,"count":9896,"max":[0.0,1.0],"min":[0.0,1.0],"type":"VEC2"},{"bufferView":12,"componentType":5123,"count":7134,"max":[2560],"min":[0],"type":"SCALAR"},{"bufferView":13,"componentType":5126,"count":2561,"max":[0.7743569016456604,0.7732067108154297,2.2625045776367188],"min":[-0.761214554309845,-0.7623647451400757,-1.8940794467926025],"type":"VEC3"},{"bufferView":14,"componentType":5126,"count":2561,"max":[1.0,1.0,1.0],"min":[-1.0,-1.0,-1.0],"type":"VEC3"},{"bufferView":15,"componentType":5126,"count":2561,"max":[3.997297525405884,1.4033830165863037],"min":[0.0,0.1440035104751587],"type":"VEC2"},{"bufferView":16,"componentType":5123,"count":3456,"max":[1151],"min":[0],"type":"SCALAR"},{"bufferView":17,"componentType":5126,"count":1152,"max":[1.1642943620681763,1.164293885231018,0.10529898852109909],"min":[-1.1642941236495972,-1.1642946004867554,-0.14375260472297668],"type":"VEC3"},{"bufferView":18,"componentType":5126,"count":1152,"max":[1.0,1.0,1.0],"min":[-1.0,-1.0,-1.0],"type":"VEC3"},{"bufferView":19,"componentType":5126,"count":1152,"max":[0.0,1.0],"min":[0.0,1.0],"type":"VEC2"},{"bufferView":20,"componentType":5123,"count":4992,"max":[1087],"min":[0],"type":"SCALAR"},{"bufferView":21,"componentType":5126,"count":1088,"max":[0.38678795099258423,0.3867877125740051,-0.25506943464279175],"min":[-0.3867878019809723,-0.3867880702018738,-3.193033218383789],"type":"VEC3"},{"bufferView":22,"componentType":5126,"count":1088,"max":[1.0,1.0,1.0],"min":[-1.0,-1.0,-1.0],"type":"VEC3"},{"bufferView":23,"componentType":5126,"count":1088,"max":[0.0,1.0],"min":[0.0,1.0],"type":"VEC2"},{"bufferView":24,"componentType":5123,"count":936,"max":[307],"min":[0],"type":"SCALAR"},{"bufferView":25,"componentType":5126,"count":308,"max":[1.0578713417053223,0.24310803413391113,0.404909610748291],"min":[-1.0578718185424805,-0.1347428560256958,-0.40586090087890625],"type":"VEC3"},{"bufferView":26,"componentType":5126,"count":308,"max":[1.0,0.9998706579208374,1.0],"min":[-1.0,-0.9998629093170166,-1.0],"type":"VEC3"},{"bufferView":27,"componentType":5126,"count":308,"max":[1.0,1.0],"min":[0.9999999403953552,0.0],"type":"VEC2"},{"bufferView":28,"componentType":5123,"count":792,"max":[319],"min":[0],"type":"SCALAR"},{"bufferView":29,"componentType":5126,"count":320,"max":[0.8032321333885193,0.8032321929931641,0.09448422491550446],"min":[-0.8032320737838745,-0.8032321333885193,-0.08385758101940155],"type":"VEC3"},{"bufferView":30,"componentType":5126,"count":320,"max":[1.0,1.0,1.0],"min":[-1.0,-1.0,-1.0],"type":"VEC3"},{"bufferView":31,"componentType":5126,"count":320,"max":[1.0,1.0],"min":[0.0,0.0],"type":"VEC2"},{"bufferView":32,"componentType":5123,"count":2154,"max":[417],"min":[0],"type":"SCALAR"},{"bufferView":33,"componentType":5126,"count":418,"max":[0.4545818567276001,0.27363353967666626,0.6698160171508789],"min":[-0.4545818567276001,-2.721212148666382,-0.8066977262496948],"type":"VEC3"},{"bufferView":34,"componentType":5126,"count":418,"max":[1.0,1.0,0.9999870657920837],"min":[-1.0,-0.999991238117218,-0.9999840259552002],"type":"VEC3"},{"bufferView":35,"componentType":5121,"count":15,"max":[6],"min":[0],"type":"SCALAR"},{"bufferView":36,"componentType":5126,"count":7,"max":[4.865927219390869,0.0,1.6134814023971558],"min":[0.0,0.0,-1.6134814023971558],"type":"VEC3"},{"bufferView":37,"componentType":5126,"count":7,"max":[0.0,1.0,-0.0],"min":[0.0,1.0,-0.0],"type":"VEC3"},{"bufferView":38,"componentType":5126,"count":7,"max":[1.0,1.0],"min":[0.0,0.0],"type":"VEC2"},{"bufferView":39,"componentType":5121,"count":15,"max":[6],"min":[0],"type":"SCALAR"},{"bufferView":40,"componentType":5126,"count":7,"max":[4.865927219390869,0.0,1.6134814023971558],"min":[0.0,0.0,-1.6134814023971558],"type":"VEC3"},{"bufferView":41,"componentType":5126,"count":7,"max":[0.0,1.0,-0.0],"min":[0.0,1.0,-0.0],"type":"VEC3"},{"bufferView":42,"componentType":5126,"count":7,"max":[1.0,1.0],"min":[0.0,0.0],"type":"VEC2"},{"bufferView":43,"componentType":5126,"count":4,"max":[4.125],"min":[0.0],"type":"SCALAR"},{"bufferView":44,"componentType":5126,"count":4,"max":[-0.0,-0.0,-0.0,1.0],"min":[-0.0,-0.0,-0.9997962713241577,-0.9999619126319885],"type":"VEC4"}],"animations":[{"channels":[{"sampler":0,"target":{"node":5,"path":"rotation"}}],"extensions":{"S8S_v3d_animation":{"auto":true,"loop":"REPEAT","offset":0.0,"repeatCount":1.0,"repeatInfinite":true}},"name":"Circle.002","samplers":[{"input":43,"interpolation":"LINEAR","output":44}]}],"asset":{"generator":"Verge3D for Blender v4.9.0","version":"2.0"},"bufferViews":[{"buffer":0,"byteLength":31068,"byteOffset":0,"target":34963},{"buffer":0,"byteLength":50640,"byteOffset":31068,"target":34962},{"buffer":0,"byteLength":50640,"byteOffset":81708,"target":34962},{"buffer":0,"byteLength":33760,"byteOffset":132348,"target":34962},{"buffer":0,"byteLength":14544,"byteOffset":166108,"target":34963},{"buffer":0,"byteLength":20880,"byteOffset":180652,"target":34962},{"buffer":0,"byteLength":20880,"byteOffset":201532,"target":34962},{"buffer":0,"byteLength":13920,"byteOffset":222412,"target":34962},{"buffer":0,"byteLength":44976,"byteOffset":236332,"target":34963},{"buffer":0,"byteLength":118752,"byteOffset":281308,"target":34962},{"buffer":0,"byteLength":118752,"byteOffset":400060,"target":34962},{"buffer":0,"byteLength":79168,"byteOffset":518812,"target":34962},{"buffer":0,"byteLength":14268,"byteOffset":597980,"target":34963},{"buffer":0,"byteLength":30732,"byteOffset":612248,"target":34962},{"buffer":0,"byteLength":30732,"byteOffset":642980,"target":34962},{"buffer":0,"byteLength":20488,"byteOffset":673712,"target":34962},{"buffer":0,"byteLength":6912,"byteOffset":694200,"target":34963},{"buffer":0,"byteLength":13824,"byteOffset":701112,"target":34962},{"buffer":0,"byteLength":13824,"byteOffset":714936,"target":34962},{"buffer":0,"byteLength":9216,"byteOffset":728760,"target":34962},{"buffer":0,"byteLength":9984,"byteOffset":737976,"target":34963},{"buffer":0,"byteLength":13056,"byteOffset":747960,"target":34962},{"buffer":0,"byteLength":13056,"byteOffset":761016,"target":34962},{"buffer":0,"byteLength":8704,"byteOffset":774072,"target":34962},{"buffer":0,"byteLength":1872,"byteOffset":782776,"target":34963},{"buffer":0,"byteLength":3696,"byteOffset":784648,"target":34962},{"buffer":0,"byteLength":3696,"byteOffset":788344,"target":34962},{"buffer":0,"byteLength":2464,"byteOffset":792040,"target":34962},{"buffer":0,"byteLength":1584,"byteOffset":794504,"target":34963},{"buffer":0,"byteLength":3840,"byteOffset":796088,"target":34962},{"buffer":0,"byteLength":3840,"byteOffset":799928,"target":34962},{"buffer":0,"byteLength":2560,"byteOffset":803768,"target":34962},{"buffer":0,"byteLength":4308,"byteOffset":806328,"target":34963},{"buffer":0,"byteLength":5016,"byteOffset":810636,"target":34962},{"buffer":0,"byteLength":5016,"byteOffset":815652,"target":34962},{"buffer":0,"byteLength":15,"byteOffset":820668,"target":34963},{"buffer":0,"byteLength":84,"byteOffset":820684,"target":34962},{"buffer":0,"byteLength":84,"byteOffset":820768,"target":34962},{"buffer":0,"byteLength":56,"byteOffset":820852,"target":34962},{"buffer":0,"byteLength":15,"byteOffset":820908,"target":34963},{"buffer":0,"byteLength":84,"byteOffset":820924,"target":34962},{"buffer":0,"byteLength":84,"byteOffset":821008,"target":34962},{"buffer":0,"byteLength":56,"byteOffset":821092,"target":34962},{"buffer":0,"byteLength":16,"byteOffset":821148},{"buffer":0,"byteLength":64,"byteOffset":821164}],"buffers":[{"byteLength":821228,"uri":"clipping_planes.bin"}],"cameras":[{"extensions":{"S8S_v3d_camera":{"controls":"ORBIT","enablePan":false,"moveSpeed":1.0,"orbitMaxDistance":100.0,"orbitMaxPolarAngle":3.1415927410125732,"orbitMaxZoom":2.0,"orbitMinDistance":0.0,"orbitMinPolarAngle":0.0,"orbitMinZoom":0.4000000059604645,"orbitTarget":[0.0,-1.0,-0.0],"rotateSpeed":1.0,"viewportFitInitialAspect":1.7777777483433883,"viewportFitType":"AUTO"}},"name":"Camera.003","orthographic":{"xmag":6.40000057220459,"ymag":3.6000003814697266,"zfar":1000.0,"znear":0.10000000149011612},"type":"orthographic"}],"extensions":{"S8S_v3d_clipping_planes":{"clippingPlanes":[{"clipIntersection":false,"clipShadows":false,"clippingGroup":"main_body","color":[0.45753154158592224,0.0,0.003819738980382681],"crossSection":true,"name":"ClippingPlane","negated":false,"opacity":1.0,"renderSide":"FRONT","size":100.0}]}},"extensionsUsed":["S8S_v3d_texture","S8S_v3d_materials","S8S_v3d_camera","S8S_v3d_mesh","S8S_v3d_clipping_planes","S8S_v3d_node","S8S_v3d_animation","S8S_v3d_scene"],"images":[{"uri":"environment.hdr"}],"materials":[{"alphaMode":"OPAQUE","extensions":{"S8S_v3d_materials":{"gtaoVisible":true,"materialIndex":0,"nodeGraph":{"edges":[{"fromNode":4,"fromOutput":0,"toInput":1,"toNode":2},{"fromNode":1,"fromOutput":6,"toInput":0,"toNode":2},{"fromNode":3,"fromOutput":0,"toInput":2,"toNode":2},{"fromNode":4,"fromOutput":0,"toInput":0,"toNode":0}],"nodes":[{"inputs":[[0,0,0,0],[0,0,0,0],[0.0,0.0,0.0],0.0],"is_active_output":true,"name":"Material Output","outputs":[],"type":"OUTPUT_MATERIAL_BL"},{"inputs":[],"is_active_output":false,"name":"Geometry","outputs":[[0.0,0.0,0.0],[0.0,0.0,0.0],[0.0,0.0,0.0],[0.0,0.0,0.0],[0.0,0.0,0.0],[0.0,0.0,0.0],0.0,0.0,0.0],"type":"NEW_GEOMETRY_BL"},{"inputs":[0.5,[0,0,0,0],[0,0,0,0]],"is_active_output":false,"name":"Mix Shader","outputs":[[0,0,0,0]],"type":"MIX_SHADER_BL"},{"inputs":[[0.5183020830154419,0.5183020830154419,0.5183020830154419,1.0],1.0],"is_active_output":false,"name":"Emission","outputs":[[0,0,0,0]],"type":"EMISSION_BL"},{"inputs":[[0.800000011920929,0.800000011920929,0.800000011920929,1.0],1.0,0.10000000149011612,1.4500000476837158,1.0,[0.0,0.0,0.0],0.0,[1.0,0.20000000298023224,0.10000000149011612],0.05000000074505806,1.399999976158142,0.0,0.5,[1.0,1.0,1.0,1.0],0.0,0.0,[0.0,0.0,0.0],0.0,0.0,0.029999999329447746,1.5,[1.0,1.0,1.0,1.0],[0.0,0.0,0.0],0.0,0.5,[1.0,1.0,1.0,1.0],[0.0,0.0,0.0,1.0],1.0,0.0,1.3300000429153442],"is_active_output":false,"name":"Principled BSDF","outputs":[[0,0,0,0]],"type":"BSDF_PRINCIPLED_BL"}]}}},"name":"chrome"},{"alphaMode":"OPAQUE","doubleSided":true,"extensions":{"S8S_v3d_materials":{"gtaoVisible":true,"materialIndex":0,"nodeGraph":{"edges":[{"fromNode":1,"fromOutput":0,"toInput":0,"toNode":0}],"nodes":[{"inputs":[[0,0,0,0],[0,0,0,0],[0.0,0.0,0.0],0.0],"is_active_output":true,"name":"Material Output","outputs":[],"type":"OUTPUT_MATERIAL_BL"},{"inputs":[[0.03085884265601635,0.19140173494815826,1.0,1.0],1.0],"is_active_output":false,"name":"Emission","outputs":[[0,0,0,0]],"type":"EMISSION_BL"}]},"renderSide":"DOUBLE"}},"name":"manipulators"},{"alphaMode":"OPAQUE","extensions":{"S8S_v3d_materials":{"gtaoVisible":true,"materialIndex":0,"nodeGraph":{"edges":[{"fromNode":0,"fromOutput":0,"toInput":0,"toNode":1}],"nodes":[{"inputs":[[0.6975868344306946,0.6975868344306946,0.6975868344306946,1.0],0.0,0.3217601776123047,1.4500000476837158,1.0,[0.0,0.0,0.0],0.0,[1.0,0.20000000298023224,0.10000000149011612],0.05000000074505806,1.399999976158142,0.0,0.4929077923297882,[1.0,1.0,1.0,1.0],0.0,0.0,[0.0,0.0,0.0],0.0,0.0,0.029999999329447746,1.5,[1.0,1.0,1.0,1.0],[0.0,0.0,0.0],0.0,0.5,[1.0,1.0,1.0,1.0],[0.0,0.0,0.0,1.0],1.0,0.0,1.3300000429153442],"is_active_output":false,"name":"Principled BSDF","outputs":[[0,0,0,0]],"type":"BSDF_PRINCIPLED_BL"},{"inputs":[[0,0,0,0],[0,0,0,0],[0.0,0.0,0.0],0.0],"is_active_output":true,"name":"Material Output","outputs":[],"type":"OUTPUT_MATERIAL_BL"}]}}},"name":"plastic"},{"alphaMode":"OPAQUE","extensions":{"S8S_v3d_materials":{"gtaoVisible":true,"materialIndex":0,"nodeGraph":{"edges":[{"fromNode":0,"fromOutput":0,"toInput":0,"toNode":1}],"nodes":[{"inputs":[[0.23301586508750916,0.23301586508750916,0.23301586508750916,1.0],1.0,0.40070921182632446,1.4500000476837158,1.0,[0.0,0.0,0.0],0.0,[1.0,0.20000000298023224,0.10000000149011612],0.05000000074505806,1.399999976158142,0.0,0.5,[1.0,1.0,1.0,1.0],0.0,0.0,[0.0,0.0,0.0],0.0,0.0,0.029999999329447746,1.5,[1.0,1.0,1.0,1.0],[0.0,0.0,0.0],0.0,0.5,[1.0,1.0,1.0,1.0],[0.0,0.0,0.0,1.0],1.0,0.0,1.3300000429153442],"is_active_output":false,"name":"Principled BSDF","outputs":[[0,0,0,0]],"type":"BSDF_PRINCIPLED_BL"},{"inputs":[[0,0,0,0],[0,0,0,0],[0.0,0.0,0.0],0.0],"is_active_output":true,"name":"Material Output","outputs":[],"type":"OUTPUT_MATERIAL_BL"}]}}},"name":"steel"},{"alphaMode":"OPAQUE","extensions":{"S8S_v3d_materials":{"gtaoVisible":true,"materialIndex":0,"nodeGraph":{"edges":[{"fromNode":0,"fromOutput":0,"toInput":0,"toNode":1}],"nodes":[{"inputs":[[0.03521808236837387,0.02038511261343956,0.011095130816102028,1.0],0.0,0.8617020845413208,1.4500000476837158,1.0,[0.0,0.0,0.0],0.0,[1.0,0.20000000298023224,0.10000000149011612],0.05000000074505806,1.399999976158142,0.0,0.5,[1.0,1.0,1.0,1.0],0.0,0.0,[0.0,0.0,0.0],0.0,0.0,0.029999999329447746,1.5,[1.0,1.0,1.0,1.0],[0.0,0.0,0.0],0.0,0.5,[1.0,1.0,1.0,1.0],[0.0,0.0,0.0,1.0],1.0,0.0,1.3300000429153442],"is_active_output":false,"name":"Principled BSDF","outputs":[[0,0,0,0]],"type":"BSDF_PRINCIPLED_BL"},{"inputs":[[0,0,0,0],[0,0,0,0],[0.0,0.0,0.0],0.0],"is_active_output":true,"name":"Material Output","outputs":[],"type":"OUTPUT_MATERIAL_BL"}]}}},"name":"wood"},{"alphaMode":"OPAQUE","extensions":{"S8S_v3d_materials":{"gtaoVisible":true,"materialIndex":0,"nodeGraph":{"edges":[{"fromNode":1,"fromOutput":0,"toInput":0,"toNode":0},{"fromNode":3,"fromOutput":0,"toInput":6,"toNode":4},{"fromNode":4,"fromOutput":2,"toInput":0,"toNode":1},{"fromNode":2,"fromOutput":0,"toInput":0,"toNode":4}],"nodes":[{"inputs":[[0,0,0,0],[0,0,0,0]],"is_active_output":true,"name":"World Output","outputs":[],"type":"OUTPUT_WORLD_BL"},{"inputs":[[0.05087608844041824,0.05087608844041824,0.05087608844041824,1.0],1.0],"is_active_output":false,"name":"Background","outputs":[[0,0,0,0]],"type":"BACKGROUND_BL"},{"inputs":[],"is_active_output":false,"name":"Light Path","outputs":[0.0,0.0,0.0,0.0,0.0,0.0,0.0,0.0,0.0,0.0,0.0,0.0,0.0],"type":"LIGHT_PATH_BL"},{"inputs":[[0.0,0.0,0.0]],"is_active_output":false,"name":"Environment Texture","outputs":[[0.0,0.0,0.0,0.0]],"projection":"EQUIRECTANGULAR","texture":0,"type":"TEX_ENVIRONMENT_BL"},{"blendType":"MIX","clampFactor":true,"clampResult":false,"dataType":"RGBA","factorMode":"UNIFORM","inputs":[0.5,[0.5,0.5,0.5],0.0,0.0,[0.0,0.0,0.0],[0.0,0.0,0.0],[0.5,0.5,0.5,1.0],[0.0,0.0022088598925620317,0.01319772657006979,1.0],0,0],"is_active_output":false,"name":"Mix","outputs":[0.0,[0.0,0.0,0.0],[0.0,0.0,0.0,0.0],0],"type":"MIX_BL"}]}}},"name":"Verge3D_Environment_World"}],"meshes":[{"extensions":{"S8S_v3d_mesh":{"colorLayers":{},"uvLayers":{"UVMap":"TEXCOORD_0"}}},"name":"Circle","primitives":[{"attributes":{"NORMAL":2,"POSITION":1,"TEXCOORD_0":3},"indices":0,"material":0,"mode":4}]},{"extensions":{"S8S_v3d_mesh":{"colorLayers":{},"uvLayers":{"UVMap":"TEXCOORD_0"}}},"name":"Circle.003","primitives":[{"attributes":{"NORMAL":6,"POSITION":5,"TEXCOORD_0":7},"indices":4,"material":0,"mode":4}]},{"extensions":{"S8S_v3d_mesh":{"colorLayers":{},"uvLayers":{"UVMap":"TEXCOORD_0"}}},"name":"Circle.004","primitives":[{"attributes":{"NORMAL":10,"POSITION":9,"TEXCOORD_0":11},"indices":8,"material":3,"mode":4}]},{"extensions":{"S8S_v3d_mesh":{"colorLayers":{},"uvLayers":{"UVMap":"TEXCOORD_0"}}},"name":"Circle.006","primitives":[{"attributes":{"NORMAL":14,"POSITION":13,"TEXCOORD_0":15},"indices":12,"material":3,"mode":4}]},{"extensions":{"S8S_v3d_mesh":{"colorLayers":{},"uvLayers":{"UVMap":"TEXCOORD_0"}}},"name":"Circle.007","primitives":[{"attributes":{"NORMAL":18,"POSITION":17,"TEXCOORD_0":19},"indices":16,"material":0,"mode":4}]},{"extensions":{"S8S_v3d_mesh":{"colorLayers":{},"uvLayers":{"UVMap":"TEXCOORD_0"}}},"name":"Circle.012","primitives":[{"attributes":{"NORMAL":22,"POSITION":21,"TEXCOORD_0":23},"indices":20,"material":4,"mode":4}]},{"extensions":{"S8S_v3d_mesh":{"colorLayers":{},"uvLayers":{"UVMap":"TEXCOORD_0"}}},"name":"Plane.004","primitives":[{"attributes":{"NORMAL":26,"POSITION":25,"TEXCOORD_0":27},"indices":24,"material":2,"mode":4}]},{"extensions":{"S8S_v3d_mesh":{"colorLayers":{},"uvLayers":{"UVMap":"TEXCOORD_0"}}},"name":"Plane.005","primitives":[{"attributes":{"NORMAL":30,"POSITION":29,"TEXCOORD_0":31},"indices":28,"material":3,"mode":4}]},{"extensions":{"S8S_v3d_mesh":{"colorLayers":{},"uvLayers":{}}},"name":"Plane.007","primitives":[{"attributes":{"NORMAL":34,"POSITION":33},"indices":32,"material":3,"mode":4}]},{"extensions":{"S8S_v3d_mesh":{"colorLayers":{},"uvLayers":{"UVMap":"TEXCOORD_0"}}},"name":"Plane.010","primitives":[{"attributes":{"NORMAL":37,"POSITION":36,"TEXCOORD_0":38},"indices":35,"material":1,"mode":4}]},{"extensions":{"S8S_v3d_mesh":{"colorLayers":{},"uvLayers":{"UVMap":"TEXCOORD_0"}}},"name":"Plane.011","primitives":[{"attributes":{"NORMAL":41,"POSITION":40,"TEXCOORD_0":42},"indices":39,"material":1,"mode":4}]}],"nodes":[{"camera":0,"extensions":{"S8S_v3d_node":{"frustumCulling":true,"groupNames":[],"hidden":false,"hidpiCompositing":false,"objectColor":[1.0,1.0,1.0,1.0],"objectIndex":0,"renderOrder":0,"useCastShadows":true}},"name":"Camera","rotation":[-0.23437535762786865,-0.3550243377685547,-0.09242681413888931,0.9002684354782104],"scale":[0.9999999403953552,0.9999999403953552,0.9999998211860657],"translation":[-12.618677139282227,9.325790405273438,13.511069297790527]},{"extensions":{"S8S_v3d_node":{"frustumCulling":true,"groupNames":["main_body"],"hidden":false,"hidpiCompositing":false,"objectColor":[1.0,1.0,1.0,1.0],"objectIndex":0,"renderOrder":0,"useCastShadows":true,"useShadows":true}},"mesh":3,"name":"screw","translation":[-0.006571169476956129,-0.005421124864369631,1.0048903226852417]},{"children":[1],"name":"v3d_Proxy_Node_0_screw","translation":[1.117233026093345e-07,-3.0174851417541504e-07,1.4864004850387573]},{"extensions":{"S8S_v3d_node":{"frustumCulling":true,"groupNames":["main_body"],"hidden":false,"hidpiCompositing":false,"objectColor":[1.0,1.0,1.0,1.0],"objectIndex":0,"renderOrder":0,"useCastShadows":true,"useShadows":true}},"mesh":4,"name":"Circle.005","translation":[-7.82310962677002e-08,3.1968491498446383e-07,3.1992850303649902]},{"extensions":{"S8S_v3d_node":{"frustumCulling":true,"groupNames":["main_body"],"hidden":false,"hidpiCompositing":false,"objectColor":[1.0,1.0,1.0,1.0],"objectIndex":0,"renderOrder":0,"useCastShadows":true,"useShadows":true}},"mesh":8,"name":"clamp","translation":[2.3469328880310059e-07,-4.161620140075684,0.07994786649942398]},{"children":[13,11,2],"extensions":{"S8S_v3d_node":{"frustumCulling":true,"groupNames":["handle"],"hidden":false,"hidpiCompositing":false,"objectColor":[1.0,1.0,1.0,1.0],"objectIndex":0,"renderOrder":0,"useCastShadows":true,"useShadows":true}},"mesh":1,"name":"Circle.002","translation":[-1.117233026093345e-07,3.0174851417541504e-07,-1.4864004850387573]},{"extensions":{"S8S_v3d_node":{"constraints":[{"maxX":4.0,"maxY":"Infinity","maxZ":"Infinity","minX":1.0,"minY":"-Infinity","minZ":"-Infinity","mute":false,"name":"Limit Location","space":"WORLD","type":"limitLocation"}],"frustumCulling":true,"groupNames":["slipping_pnae"],"hidden":false,"hidpiCompositing":false,"objectColor":[1.0,1.0,1.0,1.0],"objectIndex":0,"renderOrder":0,"useCastShadows":true,"useShadows":true}},"mesh":9,"name":"plus","scale":[0.3278249502182007,0.3278249502182007,0.3278249502182007],"translation":[2.5,0.0,0.9936715364456177]},{"extensions":{"S8S_v3d_node":{"frustumCulling":true,"groupNames":["main_body"],"hidden":false,"hidpiCompositing":false,"objectColor":[1.0,1.0,1.0,1.0],"objectIndex":0,"renderOrder":0,"useCastShadows":true,"useShadows":true}},"mesh":2,"name":"sieve","rotation":[0.7071067690849304,0.0,-0.0,0.7071067690849304],"translation":[0.0014389880234375596,-0.00039377278881147504,3.2030606269836426]},{"extensions":{"S8S_v3d_node":{"frustumCulling":true,"groupNames":["main_body"],"hidden":false,"hidpiCompositing":false,"objectColor":[1.0,1.0,1.0,1.0],"objectIndex":0,"renderOrder":0,"useCastShadows":true,"useShadows":true}},"mesh":0,"name":"body","translation":[0.0007857522577978671,0.25284910202026367,0.344346821308136]},{"extensions":{"S8S_v3d_node":{"frustumCulling":true,"groupNames":["main_body"],"hidden":false,"hidpiCompositing":false,"objectColor":[1.0,1.0,1.0,1.0],"objectIndex":0,"renderOrder":0,"useCastShadows":true,"useShadows":true}},"mesh":6,"name":"caps","translation":[2.5667250724836776e-07,-2.7234785556793213,0.00047560929669998586]},{"extensions":{"S8S_v3d_node":{"frustumCulling":true,"groupNames":["main_body"],"hidden":false,"hidpiCompositing":false,"objectColor":[1.0,1.0,1.0,1.0],"objectIndex":0,"renderOrder":0,"useCastShadows":true,"useShadows":true}},"mesh":7,"name":"razors","translation":[-1.2558743378576764e-07,1.38396686111264e-07,2.9452617168426514]},{"children":[10],"name":"v3d_Proxy_Node_0_razors","translation":[1.117233026093345e-07,-3.0174851417541504e-07,1.4864004850387573]},{"extensions":{"S8S_v3d_node":{"frustumCulling":true,"groupNames":["handle"],"hidden":false,"hidpiCompositing":false,"objectColor":[1.0,1.0,1.0,1.0],"objectIndex":0,"renderOrder":0,"useCastShadows":true,"useShadows":true}},"mesh":5,"name":"Circle.009","translation":[6.25233268737793,-2.98050594329834,-1.5970627069473267]},{"children":[12],"name":"v3d_Proxy_Node_0_Circle.009","translation":[1.117233026093345e-07,-3.0174851417541504e-07,1.4864004850387573]},{"extensions":{"S8S_v3d_node":{"constraints":[{"maxX":-1.0,"maxY":"Infinity","maxZ":"Infinity","minX":-4.0,"minY":"-Infinity","minZ":"-Infinity","mute":false,"name":"Limit Location","space":"WORLD","type":"limitLocation"}],"frustumCulling":true,"groupNames":["slipping_pnae"],"hidden":false,"hidpiCompositing":false,"objectColor":[1.0,1.0,1.0,1.0],"objectIndex":0,"renderOrder":0,"useCastShadows":true,"useShadows":true}},"mesh":10,"name":"minus","rotation":[-0.0,-1.0,0.0,1.6292068494294654e-07],"scale":[0.3278249502182007,0.3278249502182007,0.3278249502182007],"translation":[-2.5,0.0,0.9936714172363281]},{"extensions":{"S8S_v3d_clipping_planes":{"clippingPlane":0},"S8S_v3d_node":{"frustumCulling":true,"groupNames":["slipping_pnae"],"hidden":false,"hidpiCompositing":false,"objectColor":[1.0,1.0,1.0,1.0],"objectIndex":0,"renderOrder":0,"useCastShadows":true}},"name":"ClippingPlane","rotation":[0.5,0.5,-0.5,0.5]}],"samplers":[{}],"scene":0,"scenes":[{"extensions":{"S8S_v3d_scene":{"aaMethod":"FXAA","iblEnvironmentMode":"PMREM","physicallyCorrectLights":true,"pmremMaxTileSize":512,"shadowMap":{"esmDistanceScale":1.0,"renderReverseSided":false,"renderSingleSided":true,"type":"PCFPOISSON"},"toneMapping":{"type":"filmicBlender"},"worldMaterial":5}},"extras":{"animFrameRate":24,"coordSystem":"Z_UP_RIGHT"},"name":"Scene","nodes":[0,8,7,3,9,4,5,6,14,15]}],"textures":[{"extensions":{"S8S_v3d_texture":{"colorSpace":"linear rec.709","source":0}},"name":"environment.hdr","sampler":0}]}
