{"accessors":[{"bufferView":0,"componentType":5121,"count":30,"max":[19],"min":[0],"type":"SCALAR"},{"bufferView":1,"componentType":5126,"count":20,"max":[1.0,2.0,1.0],"min":[-1.0,0.0,-1.0],"type":"VEC3"},{"bufferView":2,"componentType":5126,"count":20,"max":[1.0,0.0,1.0],"min":[-1.0,-1.0,-1.0],"type":"VEC3"},{"bufferView":3,"componentType":5126,"count":20,"max":[0.875,1.0],"min":[0.375,0.0],"type":"VEC2"},{"bufferView":4,"componentType":5121,"count":6,"max":[3],"min":[0],"type":"SCALAR"},{"bufferView":5,"componentType":5126,"count":4,"max":[1.0,0.0,1.0],"min":[-1.0,0.0,-1.0],"type":"VEC3"},{"bufferView":6,"componentType":5126,"count":4,"max":[0.0,1.0,-0.0],"min":[0.0,1.0,-0.0],"type":"VEC3"},{"bufferView":7,"componentType":5126,"count":4,"max":[0.375,0.5],"min":[0.125,0.25],"type":"VEC2"},{"bufferView":8,"componentType":5123,"count":11274,"max":[3291],"min":[0],"type":"SCALAR"},{"bufferView":9,"componentType":5126,"count":3292,"max":[0.19487538933753967,1.6151905059814453,0.14526920020580292],"min":[-0.19487528502941132,0.0,-1.5128326416015625],"type":"VEC3"},{"bufferView":10,"componentType":5126,"count":3292,"max":[1.0,1.0,1.0],"min":[-1.0,-1.0,-1.0],"type":"VEC3"},{"bufferView":11,"componentType":5126,"count":3292,"max":[0.997477650642395,0.9982955455780029],"min":[0.001703384448774159,0.002305269241333008],"type":"VEC2"},{"bufferView":12,"componentType":5126,"count":3292,"max":[1.0,1.0,1.0,1.0],"min":[0.30946895480155945,0.30946895480155945,0.30946895480155945,1.0],"type":"VEC4"},{"bufferView":13,"componentType":5126,"count":3292,"max":[1.0,1.0,1.0,1.0],"min":[0.0,0.0,0.0,1.0],"type":"VEC4"},{"bufferView":14,"componentType":5126,"count":3292,"max":[1.0,1.0,1.0,1.0],"min":[0.0,0.0,0.0,1.0],"type":"VEC4"},{"bufferView":15,"componentType":5123,"count":1338,"max":[363],"min":[0],"type":"SCALAR"},{"bufferView":16,"componentType":5126,"count":364,"max":[0.044552549719810486,0.04348751902580261,0.04455246031284332],"min":[-0.04455234110355377,7.450580596923828e-09,-0.044552430510520935],"type":"VEC3"},{"bufferView":17,"componentType":5126,"count":364,"max":[1.0,1.0,1.0],"min":[-1.0,-1.0,-1.0],"type":"VEC3"},{"bufferView":18,"componentType":5126,"count":364,"max":[0.9969707131385803,0.9969687461853027],"min":[0.00302522792480886,0.13927459716796875],"type":"VEC2"},{"bufferView":19,"componentType":5126,"count":364,"max":[0.9173773527145386,0.9132035374641418],"min":[0.0032999617978930473,0.05964773893356323],"type":"VEC2"},{"bufferView":20,"componentType":5123,"count":1338,"max":[363],"min":[0],"type":"SCALAR"},{"bufferView":21,"componentType":5126,"count":364,"max":[0.044552549719810486,0.04348751902580261,0.04455246031284332],"min":[-0.04455234110355377,7.450580596923828e-09,-0.044552430510520935],"type":"VEC3"},{"bufferView":22,"componentType":5126,"count":364,"max":[1.0,1.0,1.0],"min":[-1.0,-1.0,-1.0],"type":"VEC3"},{"bufferView":23,"componentType":5126,"count":364,"max":[0.9969707131385803,0.9969687461853027],"min":[0.00302522792480886,0.13927459716796875],"type":"VEC2"},{"bufferView":24,"componentType":5126,"count":364,"max":[0.9173773527145386,0.9132035374641418],"min":[0.0032999617978930473,0.05964773893356323],"type":"VEC2"},{"bufferView":25,"componentType":5123,"count":1338,"max":[363],"min":[0],"type":"SCALAR"},{"bufferView":26,"componentType":5126,"count":364,"max":[0.044552549719810486,0.04348751902580261,0.04455246031284332],"min":[-0.04455234110355377,7.450580596923828e-09,-0.044552430510520935],"type":"VEC3"},{"bufferView":27,"componentType":5126,"count":364,"max":[1.0,1.0,1.0],"min":[-1.0,-1.0,-1.0],"type":"VEC3"},{"bufferView":28,"componentType":5126,"count":364,"max":[0.9969707131385803,0.9969687461853027],"min":[0.00302522792480886,0.13927459716796875],"type":"VEC2"},{"bufferView":29,"componentType":5126,"count":364,"max":[0.9173773527145386,0.9132035374641418],"min":[0.0032999617978930473,0.05964773893356323],"type":"VEC2"},{"bufferView":30,"componentType":5123,"count":13908,"max":[4495],"min":[0],"type":"SCALAR"},{"bufferView":31,"componentType":5126,"count":4496,"max":[0.11129678785800934,1.7157031297683716,0.3869425058364868],"min":[-0.10961581021547318,-0.21006059646606445,-0.3625321388244629],"type":"VEC3"},{"bufferView":32,"componentType":5126,"count":4496,"max":[1.0,1.0,1.0],"min":[-1.0,-1.0,-1.0],"type":"VEC3"},{"bufferView":33,"componentType":5126,"count":4496,"max":[0.2034713476896286,1.0],"min":[0.0,6.842613220214844e-05],"type":"VEC2"},{"bufferView":34,"componentType":5126,"count":4496,"max":[0.9985089302062988,0.9984146356582642],"min":[0.001495111733675003,0.01697385311126709],"type":"VEC2"},{"bufferView":35,"componentType":5126,"count":4496,"max":[1.0,1.0,1.0,1.0],"min":[0.0,0.0,0.0,1.0],"type":"VEC4"},{"bufferView":36,"componentType":5126,"count":4496,"max":[1.0,1.0,1.0,1.0],"min":[0.0,0.0,0.0,1.0],"type":"VEC4"},{"bufferView":37,"componentType":5126,"count":4496,"max":[1.0,1.0,1.0,1.0],"min":[0.0,0.0,0.0,1.0],"type":"VEC4"},{"bufferView":38,"componentType":5123,"count":4728,"max":[1045],"min":[0],"type":"SCALAR"},{"bufferView":39,"componentType":5126,"count":1046,"max":[0.32305219769477844,0.9234952330589294,0.2945323586463928],"min":[-0.3205452561378479,-2.942373976111412e-05,-0.2945323586463928],"type":"VEC3"},{"bufferView":40,"componentType":5126,"count":1046,"max":[0.9973068833351135,0.9972643852233887,1.0],"min":[-0.9973140954971313,-1.0,-1.0],"type":"VEC3"},{"bufferView":41,"componentType":5126,"count":1046,"max":[0.9544684290885925,1.0],"min":[0.0,0.00016862154006958008],"type":"VEC2"},{"bufferView":42,"componentType":5126,"count":1046,"max":[0.9976375699043274,0.9010822176933289],"min":[0.09521925449371338,0.0536152720451355],"type":"VEC2"},{"bufferView":43,"componentType":5126,"count":1046,"max":[0.623960554599762,0.623960554599762,0.623960554599762,1.0],"min":[0.006995410192757845,0.0,0.0,1.0],"type":"VEC4"},{"bufferView":44,"componentType":5126,"count":1046,"max":[1.0,1.0,1.0,1.0],"min":[0.05951124057173729,0.0,0.0,1.0],"type":"VEC4"},{"bufferView":45,"componentType":5126,"count":1046,"max":[1.0,0.0,0.0,1.0],"min":[1.0,0.0,0.0,1.0],"type":"VEC4"},{"bufferView":46,"componentType":5123,"count":4728,"max":[1045],"min":[0],"type":"SCALAR"},{"bufferView":47,"componentType":5126,"count":1046,"max":[0.32305219769477844,0.9234952330589294,0.2945323586463928],"min":[-0.3205452561378479,-2.942373976111412e-05,-0.2945323586463928],"type":"VEC3"},{"bufferView":48,"componentType":5126,"count":1046,"max":[0.9973068833351135,0.9972643852233887,1.0],"min":[-0.9973140954971313,-1.0,-1.0],"type":"VEC3"},{"bufferView":49,"componentType":5126,"count":1046,"max":[0.9544684290885925,1.0],"min":[0.0,0.00016862154006958008],"type":"VEC2"},{"bufferView":50,"componentType":5126,"count":1046,"max":[0.9976375699043274,0.9010822176933289],"min":[0.09521925449371338,0.0536152720451355],"type":"VEC2"},{"bufferView":51,"componentType":5126,"count":1046,"max":[0.623960554599762,0.623960554599762,0.623960554599762,1.0],"min":[0.006995410192757845,0.0,0.0,1.0],"type":"VEC4"},{"bufferView":52,"componentType":5126,"count":1046,"max":[1.0,1.0,1.0,1.0],"min":[0.05951124057173729,0.0,0.0,1.0],"type":"VEC4"},{"bufferView":53,"componentType":5126,"count":1046,"max":[1.0,0.0,0.0,1.0],"min":[1.0,0.0,0.0,1.0],"type":"VEC4"},{"bufferView":54,"componentType":5123,"count":4728,"max":[1045],"min":[0],"type":"SCALAR"},{"bufferView":55,"componentType":5126,"count":1046,"max":[0.32305219769477844,0.9234952330589294,0.2945323586463928],"min":[-0.3205452561378479,-2.942373976111412e-05,-0.2945323586463928],"type":"VEC3"},{"bufferView":56,"componentType":5126,"count":1046,"max":[0.9973068833351135,0.9972643852233887,1.0],"min":[-0.9973140954971313,-1.0,-1.0],"type":"VEC3"},{"bufferView":57,"componentType":5126,"count":1046,"max":[0.9544684290885925,1.0],"min":[0.0,0.00016862154006958008],"type":"VEC2"},{"bufferView":58,"componentType":5126,"count":1046,"max":[0.9976375699043274,0.9010822176933289],"min":[0.09521925449371338,0.0536152720451355],"type":"VEC2"},{"bufferView":59,"componentType":5126,"count":1046,"max":[0.623960554599762,0.623960554599762,0.623960554599762,1.0],"min":[0.006995410192757845,0.0,0.0,1.0],"type":"VEC4"},{"bufferView":60,"componentType":5126,"count":1046,"max":[1.0,1.0,1.0,1.0],"min":[0.05951124057173729,0.0,0.0,1.0],"type":"VEC4"},{"bufferView":61,"componentType":5126,"count":1046,"max":[1.0,0.0,0.0,1.0],"min":[1.0,0.0,0.0,1.0],"type":"VEC4"},{"bufferView":62,"componentType":5123,"count":14535,"max":[3453],"min":[0],"type":"SCALAR"},{"bufferView":63,"componentType":5126,"count":3454,"max":[0.33103203773498535,0.4716276228427887,0.2690049409866333],"min":[-0.32920342683792114,-1.4901161193847656e-08,-0.27497199177742004],"type":"VEC3"},{"bufferView":64,"componentType":5126,"count":3454,"max":[1.0,1.0,1.0],"min":[-1.0,-1.0,-1.0],"type":"VEC3"},{"bufferView":65,"componentType":5126,"count":3454,"max":[0.9960348010063171,0.9980354309082031],"min":[0.0018294634064659476,0.0016313791275024414],"type":"VEC2"},{"bufferView":66,"componentType":5123,"count":34254,"max":[6715],"min":[0],"type":"SCALAR"},{"bufferView":67,"componentType":5126,"count":6716,"max":[0.415932297706604,0.8989973664283752,0.40865132212638855],"min":[-0.415932297706604,2.4706125259399414e-05,-0.322958767414093],"type":"VEC3"},{"bufferView":68,"componentType":5126,"count":6716,"max":[1.0,0.9998282194137573,1.0],"min":[-1.0,-1.0,-1.0],"type":"VEC3"},{"bufferView":69,"componentType":5126,"count":6716,"max":[0.978423535823822,1.0],"min":[8.704776701051742e-05,0.001996755599975586],"type":"VEC2"},{"bufferView":70,"componentType":5121,"count":228,"max":[151],"min":[0],"type":"SCALAR"},{"bufferView":71,"componentType":5126,"count":152,"max":[0.44999998807907104,0.7699999809265137,0.8999999761581421],"min":[-0.44999998807907104,0.0,-0.8999999761581421],"type":"VEC3"},{"bufferView":72,"componentType":5126,"count":152,"max":[1.0,1.0,1.0],"min":[-1.0,-1.0,-1.0],"type":"VEC3"},{"bufferView":73,"componentType":5126,"count":152,"max":[0.9984913468360901,0.9985008835792542],"min":[0.0014963491121307015,0.0017668604850769043],"type":"VEC2"},{"bufferView":74,"componentType":5126,"count":152,"max":[0.986794650554657,0.9985094666481018],"min":[0.0014880895614624023,0.035993337631225586],"type":"VEC2"},{"bufferView":75,"componentType":5123,"count":4728,"max":[1045],"min":[0],"type":"SCALAR"},{"bufferView":76,"componentType":5126,"count":1046,"max":[0.32305219769477844,0.9234952330589294,0.2945323586463928],"min":[-0.3205452561378479,-2.942373976111412e-05,-0.2945323586463928],"type":"VEC3"},{"bufferView":77,"componentType":5126,"count":1046,"max":[0.9973068833351135,0.9972643852233887,1.0],"min":[-0.9973140954971313,-1.0,-1.0],"type":"VEC3"},{"bufferView":78,"componentType":5126,"count":1046,"max":[0.9544684290885925,1.0],"min":[0.0,0.00016862154006958008],"type":"VEC2"},{"bufferView":79,"componentType":5126,"count":1046,"max":[0.9976375699043274,0.9010822176933289],"min":[0.09521925449371338,0.0536152720451355],"type":"VEC2"},{"bufferView":80,"componentType":5126,"count":1046,"max":[0.623960554599762,0.623960554599762,0.623960554599762,1.0],"min":[0.006995410192757845,0.0,0.0,1.0],"type":"VEC4"},{"bufferView":81,"componentType":5126,"count":1046,"max":[1.0,1.0,1.0,1.0],"min":[0.05951124057173729,0.0,0.0,1.0],"type":"VEC4"},{"bufferView":82,"componentType":5126,"count":1046,"max":[1.0,0.0,0.0,1.0],"min":[1.0,0.0,0.0,1.0],"type":"VEC4"},{"bufferView":83,"componentType":5123,"count":9726,"max":[2047],"min":[0],"type":"SCALAR"},{"bufferView":84,"componentType":5126,"count":2048,"max":[0.1448579579591751,0.17567330598831177,0.14485789835453033],"min":[-0.16800425946712494,-0.01742771826684475,-0.14604397118091583],"type":"VEC3"},{"bufferView":85,"componentType":5126,"count":2048,"max":[1.0,1.0,1.0],"min":[-1.0,-1.0,-1.0],"type":"VEC3"},{"bufferView":86,"componentType":5126,"count":2048,"max":[0.9806743264198303,0.9982947111129761],"min":[0.001708388444967568,0.018092870712280273],"type":"VEC2"},{"bufferView":87,"componentType":5126,"count":2048,"max":[0.9966269135475159,1.0],"min":[0.0,0.0025085806846618652],"type":"VEC2"},{"bufferView":88,"componentType":5126,"count":2048,"max":[1.0,1.0,1.0,1.0],"min":[0.26225072145462036,0.4969330430030823,0.22696588933467865,1.0],"type":"VEC4"},{"bufferView":89,"componentType":5123,"count":4638,"max":[1024],"min":[0],"type":"SCALAR"},{"bufferView":90,"componentType":5126,"count":1025,"max":[0.10121095180511475,0.17449705302715302,0.07462999224662781],"min":[-0.11285565793514252,0.0,-0.07462999224662781],"type":"VEC3"},{"bufferView":91,"componentType":5126,"count":1025,"max":[0.9999837875366211,0.9968597888946533,1.0],"min":[-0.9999995231628418,-1.0,-1.0],"type":"VEC3"},{"bufferView":92,"componentType":5126,"count":1025,"max":[0.9919788837432861,0.9969646334648132],"min":[0.001432392280548811,0.024266362190246582],"type":"VEC2"},{"bufferView":93,"componentType":5126,"count":1025,"max":[0.8541772365570068,0.9857197999954224],"min":[0.21088112890720367,0.06500035524368286],"type":"VEC2"},{"bufferView":94,"componentType":5123,"count":17280,"max":[4272],"min":[0],"type":"SCALAR"},{"bufferView":95,"componentType":5126,"count":4273,"max":[0.17155571281909943,1.0315438508987427,0.8388330340385437],"min":[-0.1806780844926834,0.0,-0.8388612270355225],"type":"VEC3"},{"bufferView":96,"componentType":5126,"count":4273,"max":[1.0,1.0,1.0],"min":[-1.0,-1.0,-1.0],"type":"VEC3"},{"bufferView":97,"componentType":5126,"count":4273,"max":[0.9964570999145508,0.9965015053749084],"min":[0.0035086979623883963,0.007995426654815674],"type":"VEC2"},{"bufferView":98,"componentType":5126,"count":881,"max":[36.66666793823242],"min":[0.0],"type":"SCALAR"},{"bufferView":99,"componentType":5126,"count":881,"max":[0.9315973520278931,1.1144460439682007,0.7595100998878479],"min":[-0.6574102640151978,0.7874276638031006,-0.6962096691131592],"type":"VEC3"},{"bufferView":100,"componentType":5126,"count":881,"max":[36.66666793823242],"min":[0.0],"type":"SCALAR"},{"bufferView":101,"componentType":5126,"count":881,"max":[0.02447071112692356,0.9709274768829346,0.02009340561926365,1.0],"min":[0.0,-0.00023237441200762987,-0.018902771174907684,0.2381196916103363],"type":"VEC4"},{"bufferView":102,"componentType":5126,"count":881,"max":[36.66666793823242],"min":[0.0],"type":"SCALAR"},{"bufferView":103,"componentType":5126,"count":881,"max":[0.8946676850318909,2.9802322387695312e-08,0.7706287503242493],"min":[-0.6629807949066162,0.0,-0.7017802000045776],"type":"VEC3"},{"bufferView":104,"componentType":5126,"count":881,"max":[36.66666793823242],"min":[0.0],"type":"SCALAR"},{"bufferView":105,"componentType":5126,"count":881,"max":[0.0,0.0,0.0,1.0],"min":[0.0,-0.7072744965553284,0.0,0.7069389820098877],"type":"VEC4"},{"bufferView":106,"componentType":5126,"count":881,"max":[36.66666793823242],"min":[0.0],"type":"SCALAR"},{"bufferView":107,"componentType":5126,"count":881,"max":[1.6515253782272339,2.9802322387695312e-08,1.6197638511657715],"min":[-1.5988380908966064,0.0,-1.5901488065719604],"type":"VEC3"},{"bufferView":108,"componentType":5126,"count":881,"max":[36.66666793823242],"min":[0.0],"type":"SCALAR"},{"bufferView":109,"componentType":5126,"count":881,"max":[0.0,1.0,0.0,0.9999573826789856],"min":[0.0,-0.6870646476745605,0.0,-0.01248427014797926],"type":"VEC4"},{"bufferView":110,"componentType":5126,"count":881,"max":[36.66666793823242],"min":[0.0],"type":"SCALAR"},{"bufferView":111,"componentType":5126,"count":881,"max":[0.7113727331161499,2.9802322387695312e-08,1.1420423984527588],"min":[-0.998543918132782,0.0,-1.4738962650299072],"type":"VEC3"},{"bufferView":112,"componentType":5126,"count":881,"max":[36.66666793823242],"min":[0.0],"type":"SCALAR"},{"bufferView":113,"componentType":5126,"count":881,"max":[0.0,1.0,-0.0,0.6938143372535706],"min":[0.0,-0.6994045972824097,-0.0,-0.9999998807907104],"type":"VEC4"},{"bufferView":114,"componentType":5126,"count":881,"max":[36.66666793823242],"min":[0.0],"type":"SCALAR"},{"bufferView":115,"componentType":5126,"count":881,"max":[1.612412929534912,2.9802322387695312e-08,1.621533751487732],"min":[-1.5268243551254272,0.0,-1.594041347503662],"type":"VEC3"},{"bufferView":116,"componentType":5126,"count":881,"max":[36.66666793823242],"min":[0.0],"type":"SCALAR"},{"bufferView":117,"componentType":5126,"count":881,"max":[0.0,0.9999850988388062,-0.0,0.9998999834060669],"min":[0.0,-0.2681010067462921,-0.0,-0.6426632404327393],"type":"VEC4"},{"bufferView":118,"componentType":5126,"count":881,"max":[36.66666793823242],"min":[0.0],"type":"SCALAR"},{"bufferView":119,"componentType":5126,"count":881,"max":[1.2362263202667236,1.178328275680542,0.4872746467590332],"min":[-0.9917258024215698,0.7699999809265137,-1.0305252075195312],"type":"VEC3"},{"bufferView":120,"componentType":5126,"count":881,"max":[36.66666793823242],"min":[0.0],"type":"SCALAR"},{"bufferView":121,"componentType":5126,"count":881,"max":[0.06533453613519669,0.02810606174170971,0.04519827291369438,1.0],"min":[-0.04560830444097519,-0.06020119786262512,-0.07753001153469086,0.9933781027793884],"type":"VEC4"},{"bufferView":122,"componentType":5126,"count":881,"max":[36.66666793823242],"min":[0.0],"type":"SCALAR"},{"bufferView":123,"componentType":5126,"count":881,"max":[1.6076797246932983,2.9802322387695312e-08,1.6177172660827637],"min":[-1.5445293188095093,0.0,-1.4941669702529907],"type":"VEC3"},{"bufferView":124,"componentType":5126,"count":881,"max":[36.66666793823242],"min":[0.0],"type":"SCALAR"},{"bufferView":125,"componentType":5126,"count":881,"max":[0.0,0.999997615814209,-0.0,0.11679356545209885],"min":[0.0,-0.7485393285751343,-0.0,-0.9999832510948181],"type":"VEC4"},{"bufferView":126,"componentType":5126,"count":881,"max":[36.66666793823242],"min":[0.0],"type":"SCALAR"},{"bufferView":127,"componentType":5126,"count":881,"max":[1.812396764755249,2.9802322387695312e-08,1.8146719932556152],"min":[-1.8170347213745117,0.0,-1.2974369525909424],"type":"VEC3"},{"bufferView":128,"componentType":5126,"count":881,"max":[36.66666793823242],"min":[0.0],"type":"SCALAR"},{"bufferView":129,"componentType":5126,"count":881,"max":[0.0,1.0,-0.0,1.0],"min":[0.0,0.0,-0.0,-1.6292068494294654e-07],"type":"VEC4"},{"bufferView":130,"componentType":5126,"count":881,"max":[36.66666793823242],"min":[0.0],"type":"SCALAR"},{"bufferView":131,"componentType":5126,"count":881,"max":[1.5716456174850464,2.9802322387695312e-08,1.6178867816925049],"min":[-1.5924947261810303,0.0,-1.574400782585144],"type":"VEC3"},{"bufferView":132,"componentType":5126,"count":881,"max":[36.66666793823242],"min":[0.0],"type":"SCALAR"},{"bufferView":133,"componentType":5126,"count":881,"max":[0.0,0.9999859929084778,-0.0,0.9999587535858154],"min":[0.0,-0.8107385039329529,-0.0,0.005297830794006586],"type":"VEC4"},{"bufferView":134,"componentType":5126,"count":881,"max":[36.66666793823242],"min":[0.0],"type":"SCALAR"},{"bufferView":135,"componentType":5126,"count":881,"max":[1.0221184492111206,2.9802322387695312e-08,0.764437198638916],"min":[-1.1420363187789917,0.0,-1.4309437274932861],"type":"VEC3"},{"bufferView":136,"componentType":5126,"count":881,"max":[36.66666793823242],"min":[0.0],"type":"SCALAR"},{"bufferView":137,"componentType":5126,"count":881,"max":[0.0,0.9999920725822449,-0.0,0.7427613735198975],"min":[0.0,-0.6813675165176392,-0.0,-0.9999953508377075],"type":"VEC4"},{"bufferView":138,"componentType":5126,"count":881,"max":[36.66666793823242],"min":[0.0],"type":"SCALAR"},{"bufferView":139,"componentType":5126,"count":881,"max":[0.7711324691772461,1.2154035568237305,0.5035436749458313],"min":[-0.9899952411651611,0.7699999809265137,-1.0287946462631226],"type":"VEC3"},{"bufferView":140,"componentType":5126,"count":881,"max":[36.66666793823242],"min":[0.0],"type":"SCALAR"},{"bufferView":141,"componentType":5126,"count":881,"max":[0.07664211839437485,0.2555118501186371,0.09427949041128159,1.0],"min":[-0.07260503619909286,0.0,-0.07660090178251266,0.9652798771858215],"type":"VEC4"},{"bufferView":142,"componentType":5126,"count":881,"max":[36.66666793823242],"min":[0.0],"type":"SCALAR"},{"bufferView":143,"componentType":5126,"count":881,"max":[0.9314815998077393,1.1268558502197266,1.2454057931900024],"min":[-0.4331244230270386,0.7699999809265137,-0.45443594455718994],"type":"VEC3"},{"bufferView":144,"componentType":5126,"count":881,"max":[36.66666793823242],"min":[0.0],"type":"SCALAR"},{"bufferView":145,"componentType":5126,"count":881,"max":[0.0009609468979761004,0.46798408031463623,0.09458962827920914,1.0],"min":[-0.07321865111589432,0.0,-0.04283422976732254,0.8827968835830688],"type":"VEC4"},{"bufferView":146,"componentType":5126,"count":881,"max":[36.66666793823242],"min":[0.0],"type":"SCALAR"},{"bufferView":147,"componentType":5126,"count":881,"max":[0.9229564666748047,2.283581495285034,0.7530776858329773],"min":[-0.6424447298049927,2.283581256866455,-0.6812441349029541],"type":"VEC3"},{"bufferView":148,"componentType":5126,"count":881,"max":[36.66666793823242],"min":[0.0],"type":"SCALAR"},{"bufferView":149,"componentType":5126,"count":881,"max":[0.0,-0.7071065902709961,-0.0,0.7071067690849304],"min":[0.0,-1.0,-0.0,-0.7071069478988647],"type":"VEC4"},{"bufferView":150,"componentType":5126,"count":1,"max":[9.166666984558105],"min":[9.166666984558105],"type":"SCALAR"},{"bufferView":151,"componentType":5126,"count":1,"max":[1.0,1.0,1.0],"min":[1.0,1.0,1.0],"type":"VEC3"},{"bufferView":152,"componentType":5126,"count":881,"max":[36.66666793823242],"min":[0.0],"type":"SCALAR"},{"bufferView":153,"componentType":5126,"count":881,"max":[1.6939092874526978,2.9802322387695312e-08,1.6902577877044678],"min":[-1.7503355741500854,0.0,-1.7531859874725342],"type":"VEC3"},{"bufferView":154,"componentType":5126,"count":881,"max":[36.66666793823242],"min":[0.0],"type":"SCALAR"},{"bufferView":155,"componentType":5126,"count":881,"max":[0.0,0.9673413634300232,-0.0,0.999979555606842],"min":[0.0,-0.9339063763618469,-0.0,0.25347715616226196],"type":"VEC4"},{"bufferView":156,"componentType":5126,"count":881,"max":[36.66666793823242],"min":[0.0],"type":"SCALAR"},{"bufferView":157,"componentType":5126,"count":881,"max":[0.8234467506408691,1.0832605361938477,1.1020628213882446],"min":[-0.6851859092712402,0.7699999809265137,-0.7239852547645569],"type":"VEC3"},{"bufferView":158,"componentType":5126,"count":881,"max":[36.66666793823242],"min":[0.0],"type":"SCALAR"},{"bufferView":159,"componentType":5126,"count":881,"max":[0.06573742628097534,0.9510765671730042,0.025870464742183685,1.0],"min":[-0.022623993456363678,-0.5711972117424011,-0.08425845950841904,0.30895528197288513],"type":"VEC4"}],"animations":[{"channels":[{"sampler":0,"target":{"node":0,"path":"translation"}},{"sampler":1,"target":{"node":0,"path":"rotation"}}],"extensions":{"S8S_v3d_animation":{"auto":true,"loop":"REPEAT","offset":0.0,"repeatCount":1.0,"repeatInfinite":true}},"name":"bowl","samplers":[{"input":98,"interpolation":"LINEAR","output":99},{"input":100,"interpolation":"LINEAR","output":101}]},{"channels":[{"sampler":0,"target":{"node":1,"path":"translation"}},{"sampler":1,"target":{"node":1,"path":"rotation"}}],"extensions":{"S8S_v3d_animation":{"auto":true,"loop":"REPEAT","offset":0.0,"repeatCount":1.0,"repeatInfinite":true}},"name":"big_table","samplers":[{"input":102,"interpolation":"LINEAR","output":103},{"input":104,"interpolation":"LINEAR","output":105}]},{"channels":[{"sampler":0,"target":{"node":2,"path":"translation"}},{"sampler":1,"target":{"node":2,"path":"rotation"}}],"extensions":{"S8S_v3d_animation":{"auto":true,"loop":"REPEAT","offset":0.0,"repeatCount":1.0,"repeatInfinite":true}},"name":"chair","samplers":[{"input":106,"interpolation":"LINEAR","output":107},{"input":108,"interpolation":"LINEAR","output":109}]},{"channels":[{"sampler":0,"target":{"node":3,"path":"translation"}},{"sampler":1,"target":{"node":3,"path":"rotation"}}],"extensions":{"S8S_v3d_animation":{"auto":true,"loop":"REPEAT","offset":0.0,"repeatCount":1.0,"repeatInfinite":true}},"name":"chair.002","samplers":[{"input":110,"interpolation":"LINEAR","output":111},{"input":112,"interpolation":"LINEAR","output":113}]},{"channels":[{"sampler":0,"target":{"node":4,"path":"translation"}},{"sampler":1,"target":{"node":4,"path":"rotation"}}],"extensions":{"S8S_v3d_animation":{"auto":true,"loop":"REPEAT","offset":0.0,"repeatCount":1.0,"repeatInfinite":true}},"name":"chair_1","samplers":[{"input":114,"interpolation":"LINEAR","output":115},{"input":116,"interpolation":"LINEAR","output":117}]},{"channels":[{"sampler":0,"target":{"node":5,"path":"translation"}},{"sampler":1,"target":{"node":5,"path":"rotation"}}],"extensions":{"S8S_v3d_animation":{"auto":true,"loop":"REPEAT","offset":0.0,"repeatCount":1.0,"repeatInfinite":true}},"name":"cup","samplers":[{"input":118,"interpolation":"LINEAR","output":119},{"input":120,"interpolation":"LINEAR","output":121}]},{"channels":[{"sampler":0,"target":{"node":6,"path":"translation"}},{"sampler":1,"target":{"node":6,"path":"rotation"}}],"extensions":{"S8S_v3d_animation":{"auto":true,"loop":"REPEAT","offset":0.0,"repeatCount":1.0,"repeatInfinite":true}},"name":"puff_1","samplers":[{"input":122,"interpolation":"LINEAR","output":123},{"input":124,"interpolation":"LINEAR","output":125}]},{"channels":[{"sampler":0,"target":{"node":7,"path":"translation"}},{"sampler":1,"target":{"node":7,"path":"rotation"}}],"extensions":{"S8S_v3d_animation":{"auto":true,"loop":"REPEAT","offset":0.0,"repeatCount":1.0,"repeatInfinite":true}},"name":"tv_stand_3","samplers":[{"input":126,"interpolation":"LINEAR","output":127},{"input":128,"interpolation":"LINEAR","output":129}]},{"channels":[{"sampler":0,"target":{"node":8,"path":"translation"}},{"sampler":1,"target":{"node":8,"path":"rotation"}}],"extensions":{"S8S_v3d_animation":{"auto":true,"loop":"REPEAT","offset":0.0,"repeatCount":1.0,"repeatInfinite":true}},"name":"chair.001","samplers":[{"input":130,"interpolation":"LINEAR","output":131},{"input":132,"interpolation":"LINEAR","output":133}]},{"channels":[{"sampler":0,"target":{"node":10,"path":"translation"}},{"sampler":1,"target":{"node":10,"path":"rotation"}}],"extensions":{"S8S_v3d_animation":{"auto":true,"loop":"REPEAT","offset":0.0,"repeatCount":1.0,"repeatInfinite":true}},"name":"chair.003","samplers":[{"input":134,"interpolation":"LINEAR","output":135},{"input":136,"interpolation":"LINEAR","output":137}]},{"channels":[{"sampler":0,"target":{"node":12,"path":"translation"}},{"sampler":1,"target":{"node":12,"path":"rotation"}}],"extensions":{"S8S_v3d_animation":{"auto":true,"loop":"REPEAT","offset":0.0,"repeatCount":1.0,"repeatInfinite":true}},"name":"cup.001","samplers":[{"input":138,"interpolation":"LINEAR","output":139},{"input":140,"interpolation":"LINEAR","output":141}]},{"channels":[{"sampler":0,"target":{"node":13,"path":"translation"}},{"sampler":1,"target":{"node":13,"path":"rotation"}}],"extensions":{"S8S_v3d_animation":{"auto":true,"loop":"REPEAT","offset":0.0,"repeatCount":1.0,"repeatInfinite":true}},"name":"cup.002","samplers":[{"input":142,"interpolation":"LINEAR","output":143},{"input":144,"interpolation":"LINEAR","output":145}]},{"channels":[{"sampler":0,"target":{"node":14,"path":"translation"}},{"sampler":1,"target":{"node":14,"path":"rotation"}},{"sampler":2,"target":{"node":14,"path":"scale"}}],"extensions":{"S8S_v3d_animation":{"auto":true,"loop":"REPEAT","offset":0.0,"repeatCount":1.0,"repeatInfinite":true}},"name":"dinner_zone_light_wood","samplers":[{"input":146,"interpolation":"LINEAR","output":147},{"input":148,"interpolation":"LINEAR","output":149},{"input":150,"interpolation":"LINEAR","output":151}]},{"channels":[{"sampler":0,"target":{"node":15,"path":"translation"}},{"sampler":1,"target":{"node":15,"path":"rotation"}}],"extensions":{"S8S_v3d_animation":{"auto":true,"loop":"REPEAT","offset":0.0,"repeatCount":1.0,"repeatInfinite":true}},"name":"lightstand","samplers":[{"input":152,"interpolation":"LINEAR","output":153},{"input":154,"interpolation":"LINEAR","output":155}]},{"channels":[{"sampler":0,"target":{"node":16,"path":"translation"}},{"sampler":1,"target":{"node":16,"path":"rotation"}}],"extensions":{"S8S_v3d_animation":{"auto":true,"loop":"REPEAT","offset":0.0,"repeatCount":1.0,"repeatInfinite":true}},"name":"teapot","samplers":[{"input":156,"interpolation":"LINEAR","output":157},{"input":158,"interpolation":"LINEAR","output":159}]}],"asset":{"generator":"Verge3D for Blender v4.10.0","version":"2.0"},"bufferViews":[{"buffer":0,"byteLength":30,"byteOffset":0,"target":34963},{"buffer":0,"byteLength":240,"byteOffset":32,"target":34962},{"buffer":0,"byteLength":240,"byteOffset":272,"target":34962},{"buffer":0,"byteLength":160,"byteOffset":512,"target":34962},{"buffer":0,"byteLength":6,"byteOffset":672,"target":34963},{"buffer":0,"byteLength":48,"byteOffset":680,"target":34962},{"buffer":0,"byteLength":48,"byteOffset":728,"target":34962},{"buffer":0,"byteLength":32,"byteOffset":776,"target":34962},{"buffer":0,"byteLength":22548,"byteOffset":808,"target":34963},{"buffer":0,"byteLength":39504,"byteOffset":23356,"target":34962},{"buffer":0,"byteLength":39504,"byteOffset":62860,"target":34962},{"buffer":0,"byteLength":26336,"byteOffset":102364,"target":34962},{"buffer":0,"byteLength":52672,"byteOffset":128700,"target":34962},{"buffer":0,"byteLength":52672,"byteOffset":181372,"target":34962},{"buffer":0,"byteLength":52672,"byteOffset":234044,"target":34962},{"buffer":0,"byteLength":2676,"byteOffset":286716,"target":34963},{"buffer":0,"byteLength":4368,"byteOffset":289392,"target":34962},{"buffer":0,"byteLength":4368,"byteOffset":293760,"target":34962},{"buffer":0,"byteLength":2912,"byteOffset":298128,"target":34962},{"buffer":0,"byteLength":2912,"byteOffset":301040,"target":34962},{"buffer":0,"byteLength":2676,"byteOffset":303952,"target":34963},{"buffer":0,"byteLength":4368,"byteOffset":306628,"target":34962},{"buffer":0,"byteLength":4368,"byteOffset":310996,"target":34962},{"buffer":0,"byteLength":2912,"byteOffset":315364,"target":34962},{"buffer":0,"byteLength":2912,"byteOffset":318276,"target":34962},{"buffer":0,"byteLength":2676,"byteOffset":321188,"target":34963},{"buffer":0,"byteLength":4368,"byteOffset":323864,"target":34962},{"buffer":0,"byteLength":4368,"byteOffset":328232,"target":34962},{"buffer":0,"byteLength":2912,"byteOffset":332600,"target":34962},{"buffer":0,"byteLength":2912,"byteOffset":335512,"target":34962},{"buffer":0,"byteLength":27816,"byteOffset":338424,"target":34963},{"buffer":0,"byteLength":53952,"byteOffset":366240,"target":34962},{"buffer":0,"byteLength":53952,"byteOffset":420192,"target":34962},{"buffer":0,"byteLength":35968,"byteOffset":474144,"target":34962},{"buffer":0,"byteLength":35968,"byteOffset":510112,"target":34962},{"buffer":0,"byteLength":71936,"byteOffset":546080,"target":34962},{"buffer":0,"byteLength":71936,"byteOffset":618016,"target":34962},{"buffer":0,"byteLength":71936,"byteOffset":689952,"target":34962},{"buffer":0,"byteLength":9456,"byteOffset":761888,"target":34963},{"buffer":0,"byteLength":12552,"byteOffset":771344,"target":34962},{"buffer":0,"byteLength":12552,"byteOffset":783896,"target":34962},{"buffer":0,"byteLength":8368,"byteOffset":796448,"target":34962},{"buffer":0,"byteLength":8368,"byteOffset":804816,"target":34962},{"buffer":0,"byteLength":16736,"byteOffset":813184,"target":34962},{"buffer":0,"byteLength":16736,"byteOffset":829920,"target":34962},{"buffer":0,"byteLength":16736,"byteOffset":846656,"target":34962},{"buffer":0,"byteLength":9456,"byteOffset":863392,"target":34963},{"buffer":0,"byteLength":12552,"byteOffset":872848,"target":34962},{"buffer":0,"byteLength":12552,"byteOffset":885400,"target":34962},{"buffer":0,"byteLength":8368,"byteOffset":897952,"target":34962},{"buffer":0,"byteLength":8368,"byteOffset":906320,"target":34962},{"buffer":0,"byteLength":16736,"byteOffset":914688,"target":34962},{"buffer":0,"byteLength":16736,"byteOffset":931424,"target":34962},{"buffer":0,"byteLength":16736,"byteOffset":948160,"target":34962},{"buffer":0,"byteLength":9456,"byteOffset":964896,"target":34963},{"buffer":0,"byteLength":12552,"byteOffset":974352,"target":34962},{"buffer":0,"byteLength":12552,"byteOffset":986904,"target":34962},{"buffer":0,"byteLength":8368,"byteOffset":999456,"target":34962},{"buffer":0,"byteLength":8368,"byteOffset":1007824,"target":34962},{"buffer":0,"byteLength":16736,"byteOffset":1016192,"target":34962},{"buffer":0,"byteLength":16736,"byteOffset":1032928,"target":34962},{"buffer":0,"byteLength":16736,"byteOffset":1049664,"target":34962},{"buffer":0,"byteLength":29070,"byteOffset":1066400,"target":34963},{"buffer":0,"byteLength":41448,"byteOffset":1095472,"target":34962},{"buffer":0,"byteLength":41448,"byteOffset":1136920,"target":34962},{"buffer":0,"byteLength":27632,"byteOffset":1178368,"target":34962},{"buffer":0,"byteLength":68508,"byteOffset":1206000,"target":34963},{"buffer":0,"byteLength":80592,"byteOffset":1274508,"target":34962},{"buffer":0,"byteLength":80592,"byteOffset":1355100,"target":34962},{"buffer":0,"byteLength":53728,"byteOffset":1435692,"target":34962},{"buffer":0,"byteLength":228,"byteOffset":1489420,"target":34963},{"buffer":0,"byteLength":1824,"byteOffset":1489648,"target":34962},{"buffer":0,"byteLength":1824,"byteOffset":1491472,"target":34962},{"buffer":0,"byteLength":1216,"byteOffset":1493296,"target":34962},{"buffer":0,"byteLength":1216,"byteOffset":1494512,"target":34962},{"buffer":0,"byteLength":9456,"byteOffset":1495728,"target":34963},{"buffer":0,"byteLength":12552,"byteOffset":1505184,"target":34962},{"buffer":0,"byteLength":12552,"byteOffset":1517736,"target":34962},{"buffer":0,"byteLength":8368,"byteOffset":1530288,"target":34962},{"buffer":0,"byteLength":8368,"byteOffset":1538656,"target":34962},{"buffer":0,"byteLength":16736,"byteOffset":1547024,"target":34962},{"buffer":0,"byteLength":16736,"byteOffset":1563760,"target":34962},{"buffer":0,"byteLength":16736,"byteOffset":1580496,"target":34962},{"buffer":0,"byteLength":19452,"byteOffset":1597232,"target":34963},{"buffer":0,"byteLength":24576,"byteOffset":1616684,"target":34962},{"buffer":0,"byteLength":24576,"byteOffset":1641260,"target":34962},{"buffer":0,"byteLength":16384,"byteOffset":1665836,"target":34962},{"buffer":0,"byteLength":16384,"byteOffset":1682220,"target":34962},{"buffer":0,"byteLength":32768,"byteOffset":1698604,"target":34962},{"buffer":0,"byteLength":9276,"byteOffset":1731372,"target":34963},{"buffer":0,"byteLength":12300,"byteOffset":1740648,"target":34962},{"buffer":0,"byteLength":12300,"byteOffset":1752948,"target":34962},{"buffer":0,"byteLength":8200,"byteOffset":1765248,"target":34962},{"buffer":0,"byteLength":8200,"byteOffset":1773448,"target":34962},{"buffer":0,"byteLength":34560,"byteOffset":1781648,"target":34963},{"buffer":0,"byteLength":51276,"byteOffset":1816208,"target":34962},{"buffer":0,"byteLength":51276,"byteOffset":1867484,"target":34962},{"buffer":0,"byteLength":34184,"byteOffset":1918760,"target":34962},{"buffer":0,"byteLength":3524,"byteOffset":1952944},{"buffer":0,"byteLength":10572,"byteOffset":1956468},{"buffer":0,"byteLength":3524,"byteOffset":1967040},{"buffer":0,"byteLength":14096,"byteOffset":1970564},{"buffer":0,"byteLength":3524,"byteOffset":1984660},{"buffer":0,"byteLength":10572,"byteOffset":1988184},{"buffer":0,"byteLength":3524,"byteOffset":1998756},{"buffer":0,"byteLength":14096,"byteOffset":2002280},{"buffer":0,"byteLength":3524,"byteOffset":2016376},{"buffer":0,"byteLength":10572,"byteOffset":2019900},{"buffer":0,"byteLength":3524,"byteOffset":2030472},{"buffer":0,"byteLength":14096,"byteOffset":2033996},{"buffer":0,"byteLength":3524,"byteOffset":2048092},{"buffer":0,"byteLength":10572,"byteOffset":2051616},{"buffer":0,"byteLength":3524,"byteOffset":2062188},{"buffer":0,"byteLength":14096,"byteOffset":2065712},{"buffer":0,"byteLength":3524,"byteOffset":2079808},{"buffer":0,"byteLength":10572,"byteOffset":2083332},{"buffer":0,"byteLength":3524,"byteOffset":2093904},{"buffer":0,"byteLength":14096,"byteOffset":2097428},{"buffer":0,"byteLength":3524,"byteOffset":2111524},{"buffer":0,"byteLength":10572,"byteOffset":2115048},{"buffer":0,"byteLength":3524,"byteOffset":2125620},{"buffer":0,"byteLength":14096,"byteOffset":2129144},{"buffer":0,"byteLength":3524,"byteOffset":2143240},{"buffer":0,"byteLength":10572,"byteOffset":2146764},{"buffer":0,"byteLength":3524,"byteOffset":2157336},{"buffer":0,"byteLength":14096,"byteOffset":2160860},{"buffer":0,"byteLength":3524,"byteOffset":2174956},{"buffer":0,"byteLength":10572,"byteOffset":2178480},{"buffer":0,"byteLength":3524,"byteOffset":2189052},{"buffer":0,"byteLength":14096,"byteOffset":2192576},{"buffer":0,"byteLength":3524,"byteOffset":2206672},{"buffer":0,"byteLength":10572,"byteOffset":2210196},{"buffer":0,"byteLength":3524,"byteOffset":2220768},{"buffer":0,"byteLength":14096,"byteOffset":2224292},{"buffer":0,"byteLength":3524,"byteOffset":2238388},{"buffer":0,"byteLength":10572,"byteOffset":2241912},{"buffer":0,"byteLength":3524,"byteOffset":2252484},{"buffer":0,"byteLength":14096,"byteOffset":2256008},{"buffer":0,"byteLength":3524,"byteOffset":2270104},{"buffer":0,"byteLength":10572,"byteOffset":2273628},{"buffer":0,"byteLength":3524,"byteOffset":2284200},{"buffer":0,"byteLength":14096,"byteOffset":2287724},{"buffer":0,"byteLength":3524,"byteOffset":2301820},{"buffer":0,"byteLength":10572,"byteOffset":2305344},{"buffer":0,"byteLength":3524,"byteOffset":2315916},{"buffer":0,"byteLength":14096,"byteOffset":2319440},{"buffer":0,"byteLength":3524,"byteOffset":2333536},{"buffer":0,"byteLength":10572,"byteOffset":2337060},{"buffer":0,"byteLength":3524,"byteOffset":2347632},{"buffer":0,"byteLength":14096,"byteOffset":2351156},{"buffer":0,"byteLength":4,"byteOffset":2365252},{"buffer":0,"byteLength":12,"byteOffset":2365256},{"buffer":0,"byteLength":3524,"byteOffset":2365268},{"buffer":0,"byteLength":10572,"byteOffset":2368792},{"buffer":0,"byteLength":3524,"byteOffset":2379364},{"buffer":0,"byteLength":14096,"byteOffset":2382888},{"buffer":0,"byteLength":3524,"byteOffset":2396984},{"buffer":0,"byteLength":10572,"byteOffset":2400508},{"buffer":0,"byteLength":3524,"byteOffset":2411080},{"buffer":0,"byteLength":14096,"byteOffset":2414604}],"buffers":[{"byteLength":2428700,"uri":"ambient_occlusion.bin"}],"cameras":[{"extensions":{"S8S_v3d_camera":{"controls":"ORBIT","enablePan":false,"moveSpeed":1.0,"orbitMaxDistance":3.200000047683716,"orbitMaxPolarAngle":1.483529806137085,"orbitMaxZoom":100.0,"orbitMinDistance":3.200000047683716,"orbitMinPolarAngle":0.4363323152065277,"orbitMinZoom":0.009999999776482582,"orbitTarget":[0.0,0.9999642372131348,-0.0],"rotateSpeed":1.0,"viewportFitInitialAspect":1.7777777777777777,"viewportFitType":"AUTO"}},"name":"Camera","perspective":{"aspectRatio":1.7777777777777777,"yfov":0.5033799372418416,"zfar":100.0,"znear":0.10000000149011612},"type":"perspective"}],"extensionsUsed":["S8S_v3d_texture","S8S_v3d_materials","S8S_v3d_camera","S8S_v3d_mesh","S8S_v3d_node","S8S_v3d_animation","S8S_v3d_scene"],"images":[{"uri":"environment.hdr"}],"materials":[{"alphaMode":"OPAQUE","extensions":{"S8S_v3d_materials":{"gtaoVisible":true,"materialIndex":0,"nodeGraph":{"edges":[{"fromNode":0,"fromOutput":0,"toInput":0,"toNode":1}],"nodes":[{"inputs":[[0.4385434687137604,0.4385434687137604,0.4385434687137604,1.0],0.0,1.0,1.4500000476837158,1.0,[0.0,0.0,0.0],0.0,0.0,[1.0,0.20000000298023224,0.10000000149011612],0.05000000074505806,1.399999976158142,0.0,0.5,[1.0,1.0,1.0,1.0],0.0,0.0,[0.0,0.0,0.0],0.0,0.0,0.029999999329447746,1.5,[1.0,1.0,1.0,1.0],[0.0,0.0,0.0],0.0,0.5,[1.0,1.0,1.0,1.0],[0.0,0.0,0.0,1.0],1.0,0.0,1.3300000429153442],"is_active_output":false,"name":"Principled BSDF","outputs":[[0,0,0,0]],"type":"BSDF_PRINCIPLED_BL"},{"inputs":[[0,0,0,0],[0,0,0,0],[0.0,0.0,0.0],0.0],"is_active_output":true,"name":"Material Output","outputs":[],"type":"OUTPUT_MATERIAL_BL"}]}}},"name":"floor"},{"alphaMode":"OPAQUE","extensions":{"S8S_v3d_materials":{"gtaoVisible":true,"materialIndex":0,"nodeGraph":{"edges":[{"fromNode":0,"fromOutput":0,"toInput":0,"toNode":1}],"nodes":[{"inputs":[[1.0,1.0,1.0,1.0],0.0,0.5,1.4500000476837158,1.0,[0.0,0.0,0.0],0.0,0.0,[1.0,0.20000000298023224,0.10000000149011612],0.05000000074505806,1.399999976158142,0.0,0.5,[1.0,1.0,1.0,1.0],0.0,0.0,[0.0,0.0,0.0],0.0,0.0,0.029999999329447746,1.5,[1.0,1.0,1.0,1.0],[0.0,0.0,0.0],0.0,0.5,[1.0,1.0,1.0,1.0],[0.0,0.0,0.0,1.0],1.0,0.0,1.3300000429153442],"is_active_output":false,"name":"Principled BSDF","outputs":[[0,0,0,0]],"type":"BSDF_PRINCIPLED_BL"},{"inputs":[[0,0,0,0],[0,0,0,0],[0.0,0.0,0.0],0.0],"is_active_output":true,"name":"Material Output","outputs":[],"type":"OUTPUT_MATERIAL_BL"}]}}},"name":"objects"},{"alphaMode":"OPAQUE","extensions":{"S8S_v3d_materials":{"gtaoVisible":true,"materialIndex":0,"nodeGraph":{"edges":[{"fromNode":0,"fromOutput":0,"toInput":0,"toNode":1}],"nodes":[{"inputs":[[0.8006553053855896,0.8006553053855896,0.8006553053855896,1.0],0.0,1.0,1.4500000476837158,1.0,[0.0,0.0,0.0],0.0,0.0,[1.0,0.20000000298023224,0.10000000149011612],0.05000000074505806,1.399999976158142,0.0,0.5,[1.0,1.0,1.0,1.0],0.0,0.0,[0.0,0.0,0.0],0.0,0.0,0.029999999329447746,1.5,[1.0,1.0,1.0,1.0],[0.0,0.0,0.0],0.0,0.5,[1.0,1.0,1.0,1.0],[0.0,0.0,0.0,1.0],1.0,0.0,1.3300000429153442],"is_active_output":false,"name":"Principled BSDF","outputs":[[0,0,0,0]],"type":"BSDF_PRINCIPLED_BL"},{"inputs":[[0,0,0,0],[0,0,0,0],[0.0,0.0,0.0],0.0],"is_active_output":true,"name":"Material Output","outputs":[],"type":"OUTPUT_MATERIAL_BL"}]}}},"name":"walls"},{"alphaMode":"OPAQUE","extensions":{"S8S_v3d_materials":{"gtaoVisible":true,"materialIndex":0,"nodeGraph":{"edges":[{"fromNode":0,"fromOutput":0,"toInput":0,"toNode":1},{"fromNode":4,"fromOutput":0,"toInput":6,"toNode":2},{"fromNode":3,"fromOutput":0,"toInput":0,"toNode":2},{"fromNode":2,"fromOutput":2,"toInput":0,"toNode":0}],"nodes":[{"inputs":[[0.05087608844041824,0.05087608844041824,0.05087608844041824,1.0],1.0],"is_active_output":false,"name":"Background","outputs":[[0,0,0,0]],"type":"BACKGROUND_BL"},{"inputs":[[0,0,0,0],[0,0,0,0]],"is_active_output":true,"name":"World Output","outputs":[],"type":"OUTPUT_WORLD_BL"},{"blendType":"MIX","clampFactor":true,"clampResult":false,"dataType":"RGBA","factorMode":"UNIFORM","inputs":[0.5,[0.5,0.5,0.5],0.0,0.0,[0.0,0.0,0.0],[0.0,0.0,0.0],[0.5,0.5,0.5,1.0],[0.6507534980773926,0.6507534980773926,0.6507534980773926,1.0],0,0],"is_active_output":false,"name":"Mix","outputs":[0.0,[0.0,0.0,0.0],[0.0,0.0,0.0,0.0],0],"type":"MIX_BL"},{"inputs":[],"is_active_output":false,"name":"Light Path","outputs":[0.0,0.0,0.0,0.0,0.0,0.0,0.0,0.0,0.0,0.0,0.0,0.0,0.0],"type":"LIGHT_PATH_BL"},{"inputs":[[0.0,0.0,0.0]],"is_active_output":false,"name":"Environment Texture","outputs":[[0.0,0.0,0.0,0.0]],"projection":"EQUIRECTANGULAR","texture":0,"type":"TEX_ENVIRONMENT_BL"}]}}},"name":"Verge3D_Environment_World"}],"meshes":[{"extensions":{"S8S_v3d_mesh":{"colorLayers":{},"uvLayers":{"UVMap":"TEXCOORD_0"}}},"name":"Cube.001","primitives":[{"attributes":{"NORMAL":2,"POSITION":1,"TEXCOORD_0":3},"indices":0,"material":2,"mode":4},{"attributes":{"NORMAL":6,"POSITION":5,"TEXCOORD_0":7},"indices":4,"material":0,"mode":4}]},{"extensions":{"S8S_v3d_mesh":{"colorLayers":{"colors":"COLOR_0","mask":"COLOR_2","pbr":"COLOR_1"},"uvLayers":{"ao":"TEXCOORD_0"}}},"name":"Cube.002","primitives":[{"attributes":{"COLOR_0":12,"COLOR_1":13,"COLOR_2":14,"NORMAL":10,"POSITION":9,"TEXCOORD_0":11},"indices":8,"material":1,"mode":4}]},{"extensions":{"S8S_v3d_mesh":{"colorLayers":{},"uvLayers":{"material":"TEXCOORD_0","scene":"TEXCOORD_1"}}},"name":"cup","primitives":[{"attributes":{"NORMAL":17,"POSITION":16,"TEXCOORD_0":18,"TEXCOORD_1":19},"indices":15,"material":1,"mode":4}]},{"extensions":{"S8S_v3d_mesh":{"colorLayers":{},"uvLayers":{"material":"TEXCOORD_0","scene":"TEXCOORD_1"}}},"name":"cup.001","primitives":[{"attributes":{"NORMAL":22,"POSITION":21,"TEXCOORD_0":23,"TEXCOORD_1":24},"indices":20,"material":1,"mode":4}]},{"extensions":{"S8S_v3d_mesh":{"colorLayers":{},"uvLayers":{"material":"TEXCOORD_0","scene":"TEXCOORD_1"}}},"name":"cup.002","primitives":[{"attributes":{"NORMAL":27,"POSITION":26,"TEXCOORD_0":28,"TEXCOORD_1":29},"indices":25,"material":1,"mode":4}]},{"extensions":{"S8S_v3d_mesh":{"colorLayers":{"colors":"COLOR_1","mask":"COLOR_0","pbr":"COLOR_2"},"uvLayers":{"UVMap":"TEXCOORD_0","ao":"TEXCOORD_1"}}},"name":"Cylinder.003","primitives":[{"attributes":{"COLOR_0":35,"COLOR_1":36,"COLOR_2":37,"NORMAL":32,"POSITION":31,"TEXCOORD_0":33,"TEXCOORD_1":34},"indices":30,"material":1,"mode":4}]},{"extensions":{"S8S_v3d_mesh":{"colorLayers":{"colors":"COLOR_0","mask":"COLOR_2","pbr":"COLOR_1"},"uvLayers":{"UVMap":"TEXCOORD_0","ao":"TEXCOORD_1"}}},"name":"Plane.001","primitives":[{"attributes":{"COLOR_0":43,"COLOR_1":44,"COLOR_2":45,"NORMAL":40,"POSITION":39,"TEXCOORD_0":41,"TEXCOORD_1":42},"indices":38,"material":1,"mode":4}]},{"extensions":{"S8S_v3d_mesh":{"colorLayers":{"colors":"COLOR_0","mask":"COLOR_2","pbr":"COLOR_1"},"uvLayers":{"UVMap":"TEXCOORD_0","ao":"TEXCOORD_1"}}},"name":"Plane.002","primitives":[{"attributes":{"COLOR_0":51,"COLOR_1":52,"COLOR_2":53,"NORMAL":48,"POSITION":47,"TEXCOORD_0":49,"TEXCOORD_1":50},"indices":46,"material":1,"mode":4}]},{"extensions":{"S8S_v3d_mesh":{"colorLayers":{"colors":"COLOR_0","mask":"COLOR_2","pbr":"COLOR_1"},"uvLayers":{"UVMap":"TEXCOORD_0","ao":"TEXCOORD_1"}}},"name":"Plane.003","primitives":[{"attributes":{"COLOR_0":59,"COLOR_1":60,"COLOR_2":61,"NORMAL":56,"POSITION":55,"TEXCOORD_0":57,"TEXCOORD_1":58},"indices":54,"material":1,"mode":4}]},{"extensions":{"S8S_v3d_mesh":{"colorLayers":{},"uvLayers":{"UVMap":"TEXCOORD_0"}}},"name":"Plane.004","primitives":[{"attributes":{"NORMAL":64,"POSITION":63,"TEXCOORD_0":65},"indices":62,"material":1,"mode":4}]},{"extensions":{"S8S_v3d_mesh":{"colorLayers":{},"uvLayers":{"UVMap":"TEXCOORD_0"}}},"name":"Plane.006","primitives":[{"attributes":{"NORMAL":68,"POSITION":67,"TEXCOORD_0":69},"indices":66,"material":1,"mode":4}]},{"extensions":{"S8S_v3d_mesh":{"colorLayers":{},"uvLayers":{"UVMap":"TEXCOORD_0","ao":"TEXCOORD_1"}}},"name":"Plane.010","primitives":[{"attributes":{"NORMAL":72,"POSITION":71,"TEXCOORD_0":73,"TEXCOORD_1":74},"indices":70,"material":1,"mode":4}]},{"extensions":{"S8S_v3d_mesh":{"colorLayers":{"colors":"COLOR_0","mask":"COLOR_2","pbr":"COLOR_1"},"uvLayers":{"UVMap":"TEXCOORD_0","ao":"TEXCOORD_1"}}},"name":"Plane.012","primitives":[{"attributes":{"COLOR_0":80,"COLOR_1":81,"COLOR_2":82,"NORMAL":77,"POSITION":76,"TEXCOORD_0":78,"TEXCOORD_1":79},"indices":75,"material":1,"mode":4}]},{"extensions":{"S8S_v3d_mesh":{"colorLayers":{"Col":"COLOR_0"},"uvLayers":{"UVMap":"TEXCOORD_1","ao":"TEXCOORD_0"}}},"name":"Plane.022","primitives":[{"attributes":{"COLOR_0":88,"NORMAL":85,"POSITION":84,"TEXCOORD_0":86,"TEXCOORD_1":87},"indices":83,"material":1,"mode":4}]},{"extensions":{"S8S_v3d_mesh":{"colorLayers":{},"uvLayers":{"material":"TEXCOORD_1","scene":"TEXCOORD_0"}}},"name":"teapot","primitives":[{"attributes":{"NORMAL":91,"POSITION":90,"TEXCOORD_0":93,"TEXCOORD_1":92},"indices":89,"material":1,"mode":4}]},{"extensions":{"S8S_v3d_mesh":{"colorLayers":{},"uvLayers":{"UVMap":"TEXCOORD_0"}}},"name":"tv_stand_doors","primitives":[{"attributes":{"NORMAL":96,"POSITION":95,"TEXCOORD_0":97},"indices":94,"material":1,"mode":4}]}],"nodes":[{"extensions":{"S8S_v3d_node":{"frustumCulling":true,"groupNames":["room"],"hidden":false,"hidpiCompositing":false,"objectColor":[1.0,1.0,1.0,1.0],"objectIndex":0,"renderOrder":0,"useCastShadows":true,"useShadows":true}},"mesh":13,"name":"bowl","translation":[-0.11087676882743835,0.7889932990074158,0.7595100998878479]},{"extensions":{"S8S_v3d_node":{"frustumCulling":true,"groupNames":["room"],"hidden":false,"hidpiCompositing":false,"objectColor":[1.0,1.0,1.0,1.0],"objectIndex":0,"renderOrder":0,"useCastShadows":true,"useShadows":true}},"mesh":11,"name":"big_table","rotation":[-0.0,-0.7071067690849304,0.0,0.7071067690849304],"translation":[-0.07534316182136536,0.0,0.7706287503242493]},{"extensions":{"S8S_v3d_node":{"frustumCulling":true,"groupNames":["room"],"hidden":false,"hidpiCompositing":false,"objectColor":[1.0,1.0,1.0,1.0],"objectIndex":0,"renderOrder":0,"useCastShadows":true,"useShadows":true}},"mesh":12,"name":"chair","rotation":[0.0,-0.6870647668838501,-0.0,0.7265962362289429],"scale":[0.9999999403953552,1.0,0.9999999403953552],"translation":[0.3820980191230774,0.0,1.2774019241333008]},{"extensions":{"S8S_v3d_node":{"frustumCulling":true,"groupNames":["room"],"hidden":false,"hidpiCompositing":false,"objectColor":[1.0,1.0,1.0,1.0],"objectIndex":0,"renderOrder":0,"useCastShadows":true,"useShadows":true}},"mesh":7,"name":"chair.002","rotation":[0.0,0.7201539278030396,-0.0,0.6938143968582153],"scale":[0.9999999403953552,1.0,0.9999999403953552],"translation":[-0.47896772623062134,0.0,0.12931430339813232]},{"extensions":{"S8S_v3d_node":{"frustumCulling":true,"groupNames":["room"],"hidden":false,"hidpiCompositing":false,"objectColor":[1.0,1.0,1.0,1.0],"objectIndex":0,"renderOrder":0,"useCastShadows":true,"useShadows":true}},"mesh":10,"name":"chair_1","rotation":[0.0,-0.2681010067462921,-0.0,0.9633907675743103],"translation":[1.5406490564346313,0.0,-1.594041347503662]},{"extensions":{"S8S_v3d_node":{"frustumCulling":true,"groupNames":["room"],"hidden":false,"hidpiCompositing":false,"objectColor":[1.0,1.0,1.0,1.0],"objectIndex":0,"renderOrder":0,"useCastShadows":true,"useShadows":true}},"mesh":2,"name":"cup","translation":[-0.42772409319877625,0.7704020142555237,0.4872746467590332]},{"extensions":{"S8S_v3d_node":{"frustumCulling":true,"groupNames":["room"],"hidden":false,"hidpiCompositing":false,"objectColor":[1.0,1.0,1.0,1.0],"objectIndex":0,"renderOrder":0,"useCastShadows":true,"useShadows":true}},"mesh":9,"name":"puff_1","rotation":[0.0,0.9931561946868896,-0.0,0.11679358035326004],"translation":[1.2918235063552856,0.0,-0.788707435131073]},{"extensions":{"S8S_v3d_node":{"frustumCulling":true,"groupNames":["room"],"hidden":false,"hidpiCompositing":false,"objectColor":[1.0,1.0,1.0,1.0],"objectIndex":0,"renderOrder":0,"useCastShadows":true,"useShadows":true}},"mesh":15,"name":"tv_stand_3","translation":[-1.8170347213745117,0.0,-0.7858294248580933]},{"extensions":{"S8S_v3d_node":{"frustumCulling":true,"groupNames":["room"],"hidden":false,"hidpiCompositing":false,"objectColor":[1.0,1.0,1.0,1.0],"objectIndex":0,"renderOrder":0,"useCastShadows":true,"useShadows":true}},"mesh":6,"name":"chair.001","rotation":[-0.0,-0.7230511903762817,0.0,0.6907945275306702],"scale":[0.9999999403953552,1.0,0.9999999403953552],"translation":[-0.5013914108276367,0.0,1.2280700206756592]},{"camera":0,"extensions":{"S8S_v3d_node":{"frustumCulling":true,"groupNames":[],"hidden":false,"hidpiCompositing":false,"objectColor":[0.0,0.0,0.0,0.0],"objectIndex":0,"renderOrder":0,"useCastShadows":true}},"name":"Camera","rotation":[-0.17833296954631805,0.38433966040611267,0.07593535631895065,0.9026151895523071],"scale":[1.0,0.9999999403953552,0.9999998211860657],"translation":[3.129601240158081,2.7850661277770996,3.0086047649383545]},{"extensions":{"S8S_v3d_node":{"frustumCulling":true,"groupNames":["room"],"hidden":false,"hidpiCompositing":false,"objectColor":[1.0,1.0,1.0,1.0],"objectIndex":0,"renderOrder":0,"useCastShadows":true,"useShadows":true}},"mesh":8,"name":"chair.003","rotation":[0.0,0.7060012221336365,-0.0,0.7082105875015259],"translation":[0.3686438798904419,0.0,0.14276844263076782]},{"extensions":{"S8S_v3d_node":{"frustumCulling":true,"groupNames":["room"],"hidden":false,"hidpiCompositing":false,"objectColor":[1.0,1.0,1.0,1.0],"objectIndex":0,"renderOrder":0,"useCastShadows":true,"useShadows":true}},"mesh":0,"name":"walls","scale":[2.0,2.0,2.0]},{"extensions":{"S8S_v3d_node":{"frustumCulling":true,"groupNames":["room"],"hidden":false,"hidpiCompositing":false,"objectColor":[1.0,1.0,1.0,1.0],"objectIndex":0,"renderOrder":0,"useCastShadows":true,"useShadows":true}},"mesh":3,"name":"cup.001","translation":[0.397927850484848,0.7704020142555237,0.5035436749458313]},{"extensions":{"S8S_v3d_node":{"frustumCulling":true,"groupNames":["room"],"hidden":false,"hidpiCompositing":false,"objectColor":[1.0,1.0,1.0,1.0],"objectIndex":0,"renderOrder":0,"useCastShadows":true,"useShadows":true}},"mesh":4,"name":"cup.002","translation":[0.34159642457962036,0.7704020142555237,0.967820405960083]},{"extensions":{"S8S_v3d_node":{"frustumCulling":true,"groupNames":["room"],"hidden":false,"hidpiCompositing":false,"objectColor":[1.0,1.0,1.0,1.0],"objectIndex":0,"renderOrder":0,"useCastShadows":true,"useShadows":true}},"mesh":5,"name":"dinner_zone_light_wood","rotation":[-0.0,-0.7071067690849304,0.0,0.7071067690849304],"translation":[-1.6673677993850333e-09,2.283581495285034,0.7530776858329773]},{"extensions":{"S8S_v3d_node":{"frustumCulling":true,"groupNames":["room"],"hidden":false,"hidpiCompositing":false,"objectColor":[1.0,1.0,1.0,1.0],"objectIndex":0,"renderOrder":0,"useCastShadows":true,"useShadows":true}},"mesh":1,"name":"lightstand","rotation":[-0.0,-0.8671098947525024,0.0,0.4981169104576111],"translation":[0.2910146713256836,0.0,-1.7531859874725342]},{"extensions":{"S8S_v3d_node":{"frustumCulling":true,"groupNames":["room"],"hidden":false,"hidpiCompositing":false,"objectColor":[1.0,1.0,1.0,1.0],"objectIndex":0,"renderOrder":0,"useCastShadows":true,"useShadows":true}},"mesh":14,"name":"teapot","rotation":[0.0,0.9510765671730042,-0.0,0.30895528197288513],"translation":[0.21352021396160126,0.7704021334648132,0.8167667388916016]}],"samplers":[{}],"scene":0,"scenes":[{"extensions":{"S8S_v3d_scene":{"aaMethod":"AUTO","iblEnvironmentMode":"PMREM","physicallyCorrectLights":true,"pmremMaxTileSize":256,"postprocessing":[{"bentNormals":true,"distance":0.5,"factor":0.4000000059604645,"precision":0.25,"type":"gtao"}],"shadowMap":{"esmDistanceScale":1.0,"renderReverseSided":false,"renderSingleSided":true,"type":"PCFPOISSON"},"worldMaterial":3}},"extras":{"animFrameRate":24,"coordSystem":"Z_UP_RIGHT"},"name":"Scene","nodes":[9,1,0,2,8,3,10,4,11,5,12,13,14,15,6,16,7]}],"textures":[{"extensions":{"S8S_v3d_texture":{"colorSpace":"linear rec.709","source":0}},"name":"environment.hdr","sampler":0}]}
